<?xml version="1.0" encoding="UTF-8" standalone="no"?>
<!DOCTYPE svg PUBLIC "-//W3C//DTD SVG 1.1//EN" "http://www.w3.org/Graphics/SVG/1.1/DTD/svg11.dtd">
<svg width="100%" height="100%" viewBox="0 0 60 380" version="1.1" xmlns="http://www.w3.org/2000/svg" xmlns:xlink="http://www.w3.org/1999/xlink" xml:space="preserve" xmlns:serif="http://www.serif.com/" style="fill-rule:evenodd;clip-rule:evenodd;stroke-linejoin:round;stroke-miterlimit:1.5;">
    <g id="Layer1">
        <rect x="0" y="0" width="60" height="380" style="fill:#252626;"/>
        <path d="M-0,25L60,25" style="fill:none;stroke:#f7c5ad;stroke-width:0.83px;"/>
        <path d="M12.327,375.731C15.077,375.731 16.287,375.117 16.507,373.302L14.178,373.302C13.977,373.953 13.546,374.136 11.96,374.136L11.74,374.136C9.797,374.136 9.476,373.724 9.476,372.541L9.476,372.33C9.476,371.13 9.797,370.726 11.74,370.726L11.96,370.726C13.546,370.726 13.977,370.91 14.178,371.56L16.507,371.56C16.287,369.745 15.077,369.131 12.327,369.131L11.373,369.131C8.321,369.131 7.157,369.874 7.157,372.23L7.157,372.633C7.157,374.989 8.321,375.731 11.373,375.731L12.327,375.731Z" style="fill:#f7c5ad;fill-rule:nonzero;"/>
        <path d="M25.132,374.127L19.724,374.127L19.724,373.183L25.132,373.183L25.132,371.67L19.724,371.67L19.724,370.735L25.132,370.735L25.132,369.223L17.451,369.223L17.451,375.64L25.132,375.64L25.132,374.127Z" style="fill:#f7c5ad;fill-rule:nonzero;"/>
        <path d="M33.52,373.925L28.515,373.925L28.515,369.223L26.242,369.223L26.242,375.64L33.52,375.64L33.52,373.925Z" style="fill:#f7c5ad;fill-rule:nonzero;"/>
        <path d="M41.596,373.925L36.591,373.925L36.591,369.223L34.317,369.223L34.317,375.64L41.596,375.64L41.596,373.925Z" style="fill:#f7c5ad;fill-rule:nonzero;"/>
        <path d="M49.094,369.223L45.611,369.223L41.862,375.64L44.373,375.64L45.097,374.365L49.516,374.365L50.249,375.64L52.843,375.64L49.094,369.223ZM47.353,370.58L48.654,372.853L45.959,372.853L47.27,370.58L47.353,370.58Z" style="fill:#f7c5ad;fill-rule:nonzero;"/>
        <path d="M10.583,16.807L9.417,16.823L12.717,13.623C13.867,12.507 14.45,11.757 14.617,10.257L14.65,9.957C14.833,8.357 13.933,6.273 10.617,6.273C7.683,6.273 6.233,7.707 5.9,10.557L5.867,10.84L8.967,10.84C9.15,9.423 9.667,8.973 10.317,8.973L10.483,8.973C11.133,8.973 11.583,9.39 11.483,10.457L11.467,10.623C11.4,11.207 10.967,11.723 10.517,12.173L4.983,17.557L4.733,19.507L13.4,19.507L13.75,16.807L10.583,16.807Z" style="fill:#f7c5ad;fill-rule:nonzero;"/>
        <path d="M19.5,14.273C21.267,14.507 21.583,15.023 21.517,15.673L21.5,15.84C21.433,16.473 20.95,17.007 19.867,17.007L19.7,17.007C18.617,17.007 18.133,16.44 18.317,15.007L15.15,15.007L15.117,15.273C14.733,18.29 16.367,19.74 19.533,19.74C22.6,19.74 24.433,18.44 24.7,15.99L24.733,15.69C25.017,13.207 23.783,12.107 21,11.723C19.283,11.49 19,11.04 19.067,10.34L19.083,10.173C19.15,9.523 19.683,9.007 20.6,9.007L20.767,9.007C21.933,9.007 22.267,9.707 22.067,11.173L25.233,11.173L25.283,10.773C25.65,7.807 24.3,6.273 21.05,6.273C17.8,6.273 16.117,7.84 15.867,10.14L15.833,10.44C15.567,12.79 16.717,13.907 19.5,14.273Z" style="fill:#f7c5ad;fill-rule:nonzero;"/>
        <path d="M32.417,9.24L35.333,9.24L35.683,6.507L26.683,6.507L26.333,9.24L29.25,9.24L27.9,19.507L31.067,19.507L32.417,9.24Z" style="fill:#f7c5ad;fill-rule:nonzero;"/>
        <path d="M36.767,6.507L35.067,19.507L43.233,19.507L43.583,16.773L38.583,16.773L38.917,14.24L43.083,14.24L43.45,11.507L39.283,11.507L39.583,9.24L44.583,9.24L44.933,6.507L36.767,6.507Z" style="fill:#f7c5ad;fill-rule:nonzero;"/>
        <path d="M48.483,15.04L49.8,15.04C52,15.04 54.533,14.54 55.017,10.94L55.067,10.573C55.55,6.973 53.117,6.507 50.917,6.507L46.433,6.507L44.733,19.507L47.9,19.507L48.483,15.04ZM48.833,12.307L49.25,9.24L50.7,9.24C51.317,9.24 51.967,9.44 51.85,10.673L51.833,10.857C51.717,12.057 50.9,12.307 50.283,12.307L48.833,12.307Z" style="fill:#f7c5ad;fill-rule:nonzero;"/>
        <path d="M59.25,317.8C59.25,316.255 57.995,315 56.45,315L33.55,315C32.005,315 30.75,316.255 30.75,317.8L30.75,352.2C30.75,353.745 32.005,355 33.55,355L56.45,355C57.995,355 59.25,353.745 59.25,352.2L59.25,317.8Z" style="fill:#79305a;"/>
        <path d="M38.63,352.376C40.661,352.376 41.63,351.199 41.63,348.386L41.63,347.97C41.63,345.157 40.661,343.98 38.63,343.98C36.589,343.98 35.62,345.157 35.62,347.97L35.62,348.386C35.62,351.199 36.589,352.376 38.63,352.376ZM38.578,351.157C37.443,351.157 37.047,350.22 37.047,348.386L37.047,347.97C37.047,346.136 37.443,345.199 38.578,345.199L38.672,345.199C39.807,345.199 40.203,346.136 40.203,347.97L40.203,348.386C40.203,350.22 39.807,351.157 38.672,351.157L38.578,351.157Z" style="fill:#f7c5ad;fill-rule:nonzero;"/>
        <path d="M45.505,352.376C47.557,352.376 48.328,351.511 48.328,349.688L48.328,344.115L46.932,344.115L46.932,349.636C46.932,350.709 46.547,351.157 45.505,351.157C44.453,351.157 44.068,350.709 44.068,349.636L44.068,344.115L42.672,344.115L42.672,349.688C42.672,351.511 43.443,352.376 45.505,352.376Z" style="fill:#f7c5ad;fill-rule:nonzero;"/>
        <path d="M52.443,345.334L54.38,345.334L54.38,344.115L49.109,344.115L49.109,345.334L51.047,345.334L51.047,352.24L52.443,352.24L52.443,345.334Z" style="fill:#f7c5ad;fill-rule:nonzero;"/>
        <path d="M6.458,352.378C7.833,352.378 8.635,351.92 9.187,351.43L9.187,347.972L6.614,347.972L6.614,349.18L7.791,349.18L7.791,350.753C7.521,350.972 7.083,351.159 6.51,351.159L6.416,351.159C5.135,351.159 4.739,350.222 4.739,348.388L4.739,347.972C4.739,346.138 5.146,345.201 6.344,345.201L6.437,345.201C7.458,345.201 7.791,345.878 7.791,347.17L9.187,347.17L9.187,346.815C9.187,344.836 8.219,343.982 6.354,343.982C4.323,343.982 3.312,345.159 3.312,347.972L3.312,348.388C3.312,351.201 4.323,352.378 6.458,352.378Z" style="fill:#f7c5ad;fill-rule:nonzero;"/>
        <path d="M11.969,344.076L9.833,352.242L11.344,352.242L11.791,350.388L14.083,350.388L14.531,352.242L16.031,352.242L13.896,344.076L11.969,344.076ZM12.937,345.67L13.781,349.17L12.083,349.17L12.937,345.67Z" style="fill:#f7c5ad;fill-rule:nonzero;"/>
        <path d="M19.208,345.336L21.146,345.336L21.146,344.117L15.875,344.117L15.875,345.336L17.812,345.336L17.812,352.242L19.208,352.242L19.208,345.336Z" style="fill:#f7c5ad;fill-rule:nonzero;"/>
        <path d="M21.979,344.117L21.979,352.242L26.812,352.242L26.812,351.024L23.375,351.024L23.375,348.701L26.291,348.701L26.291,347.492L23.375,347.492L23.375,345.336L26.812,345.336L26.812,344.117L21.979,344.117Z" style="fill:#f7c5ad;fill-rule:nonzero;"/>
        <path d="M9.198,302.98L9.198,301.762L6.063,301.762L6.063,294.855L4.667,294.855L4.667,302.98L9.198,302.98Z" style="fill:#f7c5ad;fill-rule:nonzero;"/>
        <path d="M12.646,303.116C14.677,303.116 15.646,301.939 15.646,299.126L15.646,298.71C15.646,295.897 14.677,294.72 12.646,294.72C10.604,294.72 9.635,295.897 9.635,298.71L9.635,299.126C9.635,301.939 10.604,303.116 12.646,303.116ZM12.594,301.897C11.458,301.897 11.063,300.96 11.063,299.126L11.063,298.71C11.063,296.876 11.458,295.939 12.594,295.939L12.688,295.939C13.823,295.939 14.219,296.876 14.219,298.71L14.219,299.126C14.219,300.96 13.823,301.897 12.688,301.897L12.594,301.897Z" style="fill:#f7c5ad;fill-rule:nonzero;"/>
        <path d="M22.125,303.022L23.938,303.022L25.333,294.855L23.875,294.855L22.948,301.147L21.667,294.855L19.906,294.855L18.635,301.147L17.708,294.855L16.25,294.855L17.646,303.022L19.448,303.022L20.792,296.439L22.125,303.022Z" style="fill:#f7c5ad;fill-rule:nonzero;"/>
        <path d="M38.125,294.855L38.125,298.23L35.365,298.23L35.365,294.855L33.969,294.855L33.969,302.98L35.365,302.98L35.365,299.439L38.125,299.439L38.125,302.98L39.521,302.98L39.521,294.855L38.125,294.855Z" style="fill:#f7c5ad;fill-rule:nonzero;"/>
        <rect x="40.844" y="294.855" width="1.396" height="8.125" style="fill:#f7c5ad;fill-rule:nonzero;"/>
        <path d="M46.531,303.116C47.906,303.116 48.708,302.657 49.26,302.168L49.26,298.71L46.687,298.71L46.687,299.918L47.865,299.918L47.865,301.491C47.594,301.71 47.156,301.897 46.583,301.897L46.49,301.897C45.208,301.897 44.812,300.96 44.812,299.126L44.812,298.71C44.812,296.876 45.219,295.939 46.417,295.939L46.51,295.939C47.531,295.939 47.865,296.616 47.865,297.907L49.26,297.907L49.26,297.553C49.26,295.574 48.292,294.72 46.427,294.72C44.396,294.72 43.385,295.897 43.385,298.71L43.385,299.126C43.385,301.939 44.396,303.116 46.531,303.116Z" style="fill:#f7c5ad;fill-rule:nonzero;"/>
        <path d="M54.635,294.855L54.635,298.23L51.875,298.23L51.875,294.855L50.479,294.855L50.479,302.98L51.875,302.98L51.875,299.439L54.635,299.439L54.635,302.98L56.031,302.98L56.031,294.855L54.635,294.855Z" style="fill:#f7c5ad;fill-rule:nonzero;"/>
        <path d="M44.782,262.24L44.782,261.515L43.21,261.515L43.21,257.402L42.51,257.402L42.51,262.24L44.782,262.24Z" style="fill:#f7c5ad;fill-rule:nonzero;"/>
        <path d="M46.025,257.377L44.954,262.24L45.711,262.24L45.936,261.136L47.085,261.136L47.309,262.24L48.061,262.24L46.991,257.377L46.025,257.377ZM46.51,258.326L46.933,260.41L46.082,260.41L46.51,258.326Z" style="fill:#f7c5ad;fill-rule:nonzero;"/>
        <path d="M49.654,258.127L50.626,258.127L50.626,257.402L47.983,257.402L47.983,258.127L48.954,258.127L48.954,262.24L49.654,262.24L49.654,258.127Z" style="fill:#f7c5ad;fill-rule:nonzero;"/>
        <path d="M51.581,259.945L51.581,259.697C51.581,258.605 51.769,258.047 52.349,258.047L52.396,258.047C52.892,258.047 53.054,258.45 53.054,259.219L53.759,259.219L53.759,259.008C53.759,257.83 53.289,257.321 52.354,257.321C51.336,257.321 50.866,258.022 50.866,259.697L50.866,259.945C50.866,261.62 51.336,262.321 52.354,262.321C53.289,262.321 53.759,261.812 53.759,260.671L53.759,260.609L53.054,260.609C53.054,261.217 52.871,261.595 52.396,261.595L52.349,261.595C51.764,261.595 51.581,261.037 51.581,259.945Z" style="fill:#f7c5ad;fill-rule:nonzero;"/>
        <path d="M56.381,257.402L56.381,259.412L54.997,259.412L54.997,257.402L54.297,257.402L54.297,262.24L54.997,262.24L54.997,260.131L56.381,260.131L56.381,262.24L57.08,262.24L57.08,257.402L56.381,257.402Z" style="fill:#f7c5ad;fill-rule:nonzero;"/>
        <path d="M14.38,262.321C15.198,262.321 15.676,262.048 16.005,261.756L16.005,259.697L14.473,259.697L14.473,260.417L15.174,260.417L15.174,261.353C15.012,261.484 14.752,261.595 14.411,261.595L14.355,261.595C13.592,261.595 13.356,261.037 13.356,259.945L13.356,259.697C13.356,258.605 13.598,258.047 14.311,258.047L14.367,258.047C14.975,258.047 15.174,258.45 15.174,259.219L16.005,259.219L16.005,259.008C16.005,257.83 15.428,257.321 14.317,257.321C13.108,257.321 12.506,258.022 12.506,259.697L12.506,259.945C12.506,261.62 13.108,262.321 14.38,262.321Z" style="fill:#f7c5ad;fill-rule:nonzero;"/>
        <path d="M17.661,257.377L16.389,262.24L17.289,262.24L17.556,261.136L18.92,261.136L19.187,262.24L20.081,262.24L18.809,257.377L17.661,257.377ZM18.238,258.326L18.741,260.41L17.729,260.41L18.238,258.326Z" style="fill:#f7c5ad;fill-rule:nonzero;"/>
        <path d="M21.973,258.127L23.126,258.127L23.126,257.402L19.987,257.402L19.987,258.127L21.141,258.127L21.141,262.24L21.973,262.24L21.973,258.127Z" style="fill:#f7c5ad;fill-rule:nonzero;"/>
        <path d="M23.623,257.402L23.623,262.24L26.501,262.24L26.501,261.515L24.454,261.515L24.454,260.131L26.191,260.131L26.191,259.412L24.454,259.412L24.454,258.127L26.501,258.127L26.501,257.402L23.623,257.402Z" style="fill:#f7c5ad;fill-rule:nonzero;"/>
        <path d="M44.782,148.889L44.782,148.164L43.21,148.164L43.21,144.051L42.51,144.051L42.51,148.889L44.782,148.889Z" style="fill:#f7c5ad;fill-rule:nonzero;"/>
        <path d="M46.025,144.026L44.954,148.889L45.711,148.889L45.936,147.785L47.085,147.785L47.309,148.889L48.061,148.889L46.991,144.026L46.025,144.026ZM46.51,144.975L46.933,147.059L46.082,147.059L46.51,144.975Z" style="fill:#f7c5ad;fill-rule:nonzero;"/>
        <path d="M49.654,144.776L50.626,144.776L50.626,144.051L47.983,144.051L47.983,144.776L48.954,144.776L48.954,148.889L49.654,148.889L49.654,144.776Z" style="fill:#f7c5ad;fill-rule:nonzero;"/>
        <path d="M51.581,146.594L51.581,146.346C51.581,145.254 51.769,144.696 52.349,144.696L52.396,144.696C52.892,144.696 53.054,145.099 53.054,145.868L53.759,145.868L53.759,145.657C53.759,144.479 53.289,143.97 52.354,143.97C51.336,143.97 50.866,144.671 50.866,146.346L50.866,146.594C50.866,148.269 51.336,148.97 52.354,148.97C53.289,148.97 53.759,148.461 53.759,147.32L53.759,147.258L53.054,147.258C53.054,147.866 52.871,148.244 52.396,148.244L52.349,148.244C51.764,148.244 51.581,147.686 51.581,146.594Z" style="fill:#f7c5ad;fill-rule:nonzero;"/>
        <path d="M56.381,144.051L56.381,146.061L54.997,146.061L54.997,144.051L54.297,144.051L54.297,148.889L54.997,148.889L54.997,146.78L56.381,146.78L56.381,148.889L57.08,148.889L57.08,144.051L56.381,144.051Z" style="fill:#f7c5ad;fill-rule:nonzero;"/>
        <path d="M14.38,148.97C15.198,148.97 15.676,148.697 16.005,148.405L16.005,146.346L14.473,146.346L14.473,147.066L15.174,147.066L15.174,148.002C15.012,148.133 14.752,148.244 14.411,148.244L14.355,148.244C13.592,148.244 13.356,147.686 13.356,146.594L13.356,146.346C13.356,145.254 13.598,144.696 14.311,144.696L14.367,144.696C14.975,144.696 15.174,145.099 15.174,145.868L16.005,145.868L16.005,145.657C16.005,144.479 15.428,143.97 14.317,143.97C13.108,143.97 12.506,144.671 12.506,146.346L12.506,146.594C12.506,148.269 13.108,148.97 14.38,148.97Z" style="fill:#f7c5ad;fill-rule:nonzero;"/>
        <path d="M17.661,144.026L16.389,148.889L17.289,148.889L17.556,147.785L18.92,147.785L19.187,148.889L20.081,148.889L18.809,144.026L17.661,144.026ZM18.238,144.975L18.741,147.059L17.729,147.059L18.238,144.975Z" style="fill:#f7c5ad;fill-rule:nonzero;"/>
        <path d="M21.973,144.776L23.126,144.776L23.126,144.051L19.987,144.051L19.987,144.776L21.141,144.776L21.141,148.889L21.973,148.889L21.973,144.776Z" style="fill:#f7c5ad;fill-rule:nonzero;"/>
        <path d="M23.623,144.051L23.623,148.889L26.501,148.889L26.501,148.164L24.454,148.164L24.454,146.78L26.191,146.78L26.191,146.061L24.454,146.061L24.454,144.776L26.501,144.776L26.501,144.051L23.623,144.051Z" style="fill:#f7c5ad;fill-rule:nonzero;"/>
        <path d="M44.782,35.539L44.782,34.814L43.21,34.814L43.21,30.701L42.51,30.701L42.51,35.539L44.782,35.539Z" style="fill:#f7c5ad;fill-rule:nonzero;"/>
        <path d="M46.025,30.676L44.954,35.539L45.711,35.539L45.936,34.435L47.085,34.435L47.309,35.539L48.061,35.539L46.991,30.676L46.025,30.676ZM46.51,31.625L46.933,33.709L46.082,33.709L46.51,31.625Z" style="fill:#f7c5ad;fill-rule:nonzero;"/>
        <path d="M49.654,31.426L50.626,31.426L50.626,30.701L47.983,30.701L47.983,31.426L48.954,31.426L48.954,35.539L49.654,35.539L49.654,31.426Z" style="fill:#f7c5ad;fill-rule:nonzero;"/>
        <path d="M51.581,33.244L51.581,32.996C51.581,31.904 51.769,31.346 52.349,31.346L52.396,31.346C52.892,31.346 53.054,31.749 53.054,32.518L53.759,32.518L53.759,32.307C53.759,31.129 53.289,30.62 52.354,30.62C51.336,30.62 50.866,31.321 50.866,32.996L50.866,33.244C50.866,34.919 51.336,35.62 52.354,35.62C53.289,35.62 53.759,35.111 53.759,33.97L53.759,33.908L53.054,33.908C53.054,34.516 52.871,34.894 52.396,34.894L52.349,34.894C51.764,34.894 51.581,34.336 51.581,33.244Z" style="fill:#f7c5ad;fill-rule:nonzero;"/>
        <path d="M56.381,30.701L56.381,32.711L54.997,32.711L54.997,30.701L54.297,30.701L54.297,35.539L54.997,35.539L54.997,33.43L56.381,33.43L56.381,35.539L57.08,35.539L57.08,30.701L56.381,30.701Z" style="fill:#f7c5ad;fill-rule:nonzero;"/>
        <path d="M14.38,35.62C15.198,35.62 15.676,35.347 16.005,35.055L16.005,32.996L14.473,32.996L14.473,33.716L15.174,33.716L15.174,34.652C15.012,34.783 14.752,34.894 14.411,34.894L14.355,34.894C13.592,34.894 13.356,34.336 13.356,33.244L13.356,32.996C13.356,31.904 13.598,31.346 14.311,31.346L14.367,31.346C14.975,31.346 15.174,31.749 15.174,32.518L16.005,32.518L16.005,32.307C16.005,31.129 15.428,30.62 14.317,30.62C13.108,30.62 12.506,31.321 12.506,32.996L12.506,33.244C12.506,34.919 13.108,35.62 14.38,35.62Z" style="fill:#f7c5ad;fill-rule:nonzero;"/>
        <path d="M17.661,30.676L16.389,35.539L17.289,35.539L17.556,34.435L18.92,34.435L19.187,35.539L20.081,35.539L18.809,30.676L17.661,30.676ZM18.238,31.625L18.741,33.709L17.729,33.709L18.238,31.625Z" style="fill:#f7c5ad;fill-rule:nonzero;"/>
        <path d="M21.973,31.426L23.126,31.426L23.126,30.701L19.987,30.701L19.987,31.426L21.141,31.426L21.141,35.539L21.973,35.539L21.973,31.426Z" style="fill:#f7c5ad;fill-rule:nonzero;"/>
        <path d="M23.623,30.701L23.623,35.539L26.501,35.539L26.501,34.814L24.454,34.814L24.454,33.43L26.191,33.43L26.191,32.711L24.454,32.711L24.454,31.426L26.501,31.426L26.501,30.701L23.623,30.701Z" style="fill:#f7c5ad;fill-rule:nonzero;"/>
        <g id="SmmCTR">
            <path d="M35.376,288.738C35.721,289.122 36.315,289.154 36.7,288.808C37.084,288.462 37.116,287.869 36.77,287.484C36.424,287.1 35.831,287.068 35.446,287.414C35.061,287.76 35.03,288.353 35.376,288.738Z" style="fill:#f7c5ad;"/>
            <path d="M54.624,288.738C54.279,289.122 53.685,289.154 53.3,288.808C52.916,288.462 52.884,287.869 53.23,287.484C53.576,287.1 54.169,287.068 54.554,287.414C54.939,287.76 54.97,288.353 54.624,288.738Z" style="fill:#f7c5ad;"/>
            <path d="M36.073,288.111C34.163,285.985 33,283.175 33,280.095C33,273.472 38.377,268.095 45,268.095C51.623,268.095 57,273.472 57,280.095C57,283.175 55.837,285.985 53.927,288.111" style="fill:none;stroke:#f7c5ad;stroke-width:0.63px;stroke-linecap:square;"/>
            <path id="line87" d="M45,270.173L45,268.266" style="fill:none;fill-rule:nonzero;stroke:#f7c5ad;stroke-width:0.63px;stroke-linecap:round;stroke-miterlimit:4;"/>
        </g>
        <g id="SmmCTR1" serif:id="SmmCTR">
            <path d="M5.376,288.738C5.721,289.122 6.315,289.154 6.7,288.808C7.084,288.462 7.116,287.869 6.77,287.484C6.424,287.1 5.831,287.068 5.446,287.414C5.061,287.76 5.03,288.353 5.376,288.738Z" style="fill:#f7c5ad;"/>
            <path d="M24.624,288.738C24.279,289.122 23.685,289.154 23.3,288.808C22.916,288.462 22.884,287.869 23.23,287.484C23.576,287.1 24.169,287.068 24.554,287.414C24.939,287.76 24.97,288.353 24.624,288.738Z" style="fill:#f7c5ad;"/>
            <path d="M6.073,288.111C4.163,285.985 3,283.175 3,280.095C3,273.472 8.377,268.095 15,268.095C21.623,268.095 27,273.472 27,280.095C27,283.175 25.837,285.985 23.927,288.111" style="fill:none;stroke:#f7c5ad;stroke-width:0.63px;stroke-linecap:square;"/>
            <path id="line871" serif:id="line87" d="M15,270.173L15,268.266" style="fill:none;fill-rule:nonzero;stroke:#f7c5ad;stroke-width:0.63px;stroke-linecap:round;stroke-miterlimit:4;"/>
        </g>
        <g id="Group-2" serif:id="Group 2">
            <path d="M59.25,204.45C59.25,202.905 57.995,201.65 56.45,201.65L33.55,201.65C32.005,201.65 30.75,202.905 30.75,204.45L30.75,238.85C30.75,240.395 32.005,241.65 33.55,241.65L56.45,241.65C57.995,241.65 59.25,240.395 59.25,238.85L59.25,204.45Z" style="fill:#79305a;"/>
            <path d="M38.63,239.026C40.661,239.026 41.63,237.849 41.63,235.036L41.63,234.62C41.63,231.807 40.661,230.63 38.63,230.63C36.589,230.63 35.62,231.807 35.62,234.62L35.62,235.036C35.62,237.849 36.589,239.026 38.63,239.026ZM38.578,237.807C37.443,237.807 37.047,236.87 37.047,235.036L37.047,234.62C37.047,232.786 37.443,231.849 38.578,231.849L38.672,231.849C39.807,231.849 40.203,232.786 40.203,234.62L40.203,235.036C40.203,236.87 39.807,237.807 38.672,237.807L38.578,237.807Z" style="fill:#f7c5ad;fill-rule:nonzero;"/>
            <path d="M45.505,239.026C47.557,239.026 48.328,238.161 48.328,236.338L48.328,230.765L46.932,230.765L46.932,236.286C46.932,237.359 46.547,237.807 45.505,237.807C44.453,237.807 44.068,237.359 44.068,236.286L44.068,230.765L42.672,230.765L42.672,236.338C42.672,238.161 43.443,239.026 45.505,239.026Z" style="fill:#f7c5ad;fill-rule:nonzero;"/>
            <path d="M52.443,231.984L54.38,231.984L54.38,230.765L49.109,230.765L49.109,231.984L51.047,231.984L51.047,238.89L52.443,238.89L52.443,231.984Z" style="fill:#f7c5ad;fill-rule:nonzero;"/>
            <path d="M6.458,239.028C7.833,239.028 8.635,238.57 9.187,238.08L9.187,234.622L6.614,234.622L6.614,235.83L7.791,235.83L7.791,237.403C7.521,237.622 7.083,237.809 6.51,237.809L6.416,237.809C5.135,237.809 4.739,236.872 4.739,235.038L4.739,234.622C4.739,232.788 5.146,231.851 6.344,231.851L6.437,231.851C7.458,231.851 7.791,232.528 7.791,233.82L9.187,233.82L9.187,233.465C9.187,231.486 8.219,230.632 6.354,230.632C4.323,230.632 3.312,231.809 3.312,234.622L3.312,235.038C3.312,237.851 4.323,239.028 6.458,239.028Z" style="fill:#f7c5ad;fill-rule:nonzero;"/>
            <path d="M11.969,230.726L9.833,238.892L11.344,238.892L11.791,237.038L14.083,237.038L14.531,238.892L16.031,238.892L13.896,230.726L11.969,230.726ZM12.937,232.32L13.781,235.82L12.083,235.82L12.937,232.32Z" style="fill:#f7c5ad;fill-rule:nonzero;"/>
            <path d="M19.208,231.986L21.146,231.986L21.146,230.767L15.875,230.767L15.875,231.986L17.812,231.986L17.812,238.892L19.208,238.892L19.208,231.986Z" style="fill:#f7c5ad;fill-rule:nonzero;"/>
            <path d="M21.979,230.767L21.979,238.892L26.812,238.892L26.812,237.674L23.375,237.674L23.375,235.351L26.291,235.351L26.291,234.142L23.375,234.142L23.375,231.986L26.812,231.986L26.812,230.767L21.979,230.767Z" style="fill:#f7c5ad;fill-rule:nonzero;"/>
            <path d="M9.198,189.63L9.198,188.412L6.063,188.412L6.063,181.505L4.667,181.505L4.667,189.63L9.198,189.63Z" style="fill:#f7c5ad;fill-rule:nonzero;"/>
            <path d="M12.646,189.766C14.677,189.766 15.646,188.589 15.646,185.776L15.646,185.36C15.646,182.547 14.677,181.37 12.646,181.37C10.604,181.37 9.635,182.547 9.635,185.36L9.635,185.776C9.635,188.589 10.604,189.766 12.646,189.766ZM12.594,188.547C11.458,188.547 11.063,187.61 11.063,185.776L11.063,185.36C11.063,183.526 11.458,182.589 12.594,182.589L12.688,182.589C13.823,182.589 14.219,183.526 14.219,185.36L14.219,185.776C14.219,187.61 13.823,188.547 12.688,188.547L12.594,188.547Z" style="fill:#f7c5ad;fill-rule:nonzero;"/>
            <path d="M22.125,189.672L23.938,189.672L25.333,181.505L23.875,181.505L22.948,187.797L21.667,181.505L19.906,181.505L18.635,187.797L17.708,181.505L16.25,181.505L17.646,189.672L19.448,189.672L20.792,183.089L22.125,189.672Z" style="fill:#f7c5ad;fill-rule:nonzero;"/>
            <path d="M38.125,181.505L38.125,184.88L35.365,184.88L35.365,181.505L33.969,181.505L33.969,189.63L35.365,189.63L35.365,186.089L38.125,186.089L38.125,189.63L39.521,189.63L39.521,181.505L38.125,181.505Z" style="fill:#f7c5ad;fill-rule:nonzero;"/>
            <rect x="40.844" y="181.505" width="1.396" height="8.125" style="fill:#f7c5ad;fill-rule:nonzero;"/>
            <path d="M46.531,189.766C47.906,189.766 48.708,189.308 49.26,188.818L49.26,185.36L46.687,185.36L46.687,186.568L47.865,186.568L47.865,188.141C47.594,188.36 47.156,188.547 46.583,188.547L46.49,188.547C45.208,188.547 44.812,187.61 44.812,185.776L44.812,185.36C44.812,183.526 45.219,182.589 46.417,182.589L46.51,182.589C47.531,182.589 47.865,183.266 47.865,184.558L49.26,184.558L49.26,184.203C49.26,182.224 48.292,181.37 46.427,181.37C44.396,181.37 43.385,182.547 43.385,185.36L43.385,185.776C43.385,188.589 44.396,189.766 46.531,189.766Z" style="fill:#f7c5ad;fill-rule:nonzero;"/>
            <path d="M54.635,181.505L54.635,184.88L51.875,184.88L51.875,181.505L50.479,181.505L50.479,189.63L51.875,189.63L51.875,186.089L54.635,186.089L54.635,189.63L56.031,189.63L56.031,181.505L54.635,181.505Z" style="fill:#f7c5ad;fill-rule:nonzero;"/>
            <g id="SmmCTR2" serif:id="SmmCTR">
                <path d="M35.376,175.388C35.721,175.772 36.315,175.804 36.7,175.458C37.084,175.112 37.116,174.519 36.77,174.134C36.424,173.75 35.831,173.718 35.446,174.064C35.061,174.41 35.03,175.003 35.376,175.388Z" style="fill:#f7c5ad;"/>
                <path d="M54.624,175.388C54.279,175.772 53.685,175.804 53.3,175.458C52.916,175.112 52.884,174.519 53.23,174.134C53.576,173.75 54.169,173.718 54.554,174.064C54.939,174.41 54.97,175.003 54.624,175.388Z" style="fill:#f7c5ad;"/>
                <path d="M36.073,174.761C34.163,172.635 33,169.825 33,166.745C33,160.122 38.377,154.745 45,154.745C51.623,154.745 57,160.122 57,166.745C57,169.825 55.837,172.635 53.927,174.761" style="fill:none;stroke:#f7c5ad;stroke-width:0.63px;stroke-linecap:square;"/>
                <path id="line872" serif:id="line87" d="M45,156.823L45,154.916" style="fill:none;fill-rule:nonzero;stroke:#f7c5ad;stroke-width:0.63px;stroke-linecap:round;stroke-miterlimit:4;"/>
            </g>
            <g id="SmmCTR3" serif:id="SmmCTR">
                <path d="M5.376,175.388C5.721,175.772 6.315,175.804 6.7,175.458C7.084,175.112 7.116,174.519 6.77,174.134C6.424,173.75 5.831,173.718 5.446,174.064C5.061,174.41 5.03,175.003 5.376,175.388Z" style="fill:#f7c5ad;"/>
                <path d="M24.624,175.388C24.279,175.772 23.685,175.804 23.3,175.458C22.916,175.112 22.884,174.519 23.23,174.134C23.576,173.75 24.169,173.718 24.554,174.064C24.939,174.41 24.97,175.003 24.624,175.388Z" style="fill:#f7c5ad;"/>
                <path d="M6.073,174.761C4.163,172.635 3,169.825 3,166.745C3,160.122 8.377,154.745 15,154.745C21.623,154.745 27,160.122 27,166.745C27,169.825 25.837,172.635 23.927,174.761" style="fill:none;stroke:#f7c5ad;stroke-width:0.63px;stroke-linecap:square;"/>
                <path id="line873" serif:id="line87" d="M15,156.823L15,154.916" style="fill:none;fill-rule:nonzero;stroke:#f7c5ad;stroke-width:0.63px;stroke-linecap:round;stroke-miterlimit:4;"/>
            </g>
        </g>
        <g id="Group-1" serif:id="Group 1">
            <path d="M59.25,91.1C59.25,89.555 57.995,88.3 56.45,88.3L33.55,88.3C32.005,88.3 30.75,89.555 30.75,91.1L30.75,125.5C30.75,127.045 32.005,128.3 33.55,128.3L56.45,128.3C57.995,128.3 59.25,127.045 59.25,125.5L59.25,91.1Z" style="fill:#79305a;"/>
            <path d="M38.63,125.676C40.661,125.676 41.63,124.499 41.63,121.686L41.63,121.27C41.63,118.457 40.661,117.28 38.63,117.28C36.589,117.28 35.62,118.457 35.62,121.27L35.62,121.686C35.62,124.499 36.589,125.676 38.63,125.676ZM38.578,124.457C37.443,124.457 37.047,123.52 37.047,121.686L37.047,121.27C37.047,119.436 37.443,118.499 38.578,118.499L38.672,118.499C39.807,118.499 40.203,119.436 40.203,121.27L40.203,121.686C40.203,123.52 39.807,124.457 38.672,124.457L38.578,124.457Z" style="fill:#f7c5ad;fill-rule:nonzero;"/>
            <path d="M45.505,125.676C47.557,125.676 48.328,124.811 48.328,122.988L48.328,117.415L46.932,117.415L46.932,122.936C46.932,124.009 46.547,124.457 45.505,124.457C44.453,124.457 44.068,124.009 44.068,122.936L44.068,117.415L42.672,117.415L42.672,122.988C42.672,124.811 43.443,125.676 45.505,125.676Z" style="fill:#f7c5ad;fill-rule:nonzero;"/>
            <path d="M52.443,118.634L54.38,118.634L54.38,117.415L49.109,117.415L49.109,118.634L51.047,118.634L51.047,125.54L52.443,125.54L52.443,118.634Z" style="fill:#f7c5ad;fill-rule:nonzero;"/>
            <path d="M6.458,125.678C7.833,125.678 8.635,125.22 9.187,124.73L9.187,121.272L6.614,121.272L6.614,122.48L7.791,122.48L7.791,124.053C7.521,124.272 7.083,124.459 6.51,124.459L6.416,124.459C5.135,124.459 4.739,123.522 4.739,121.688L4.739,121.272C4.739,119.438 5.146,118.501 6.344,118.501L6.437,118.501C7.458,118.501 7.791,119.178 7.791,120.47L9.187,120.47L9.187,120.115C9.187,118.136 8.219,117.282 6.354,117.282C4.323,117.282 3.312,118.459 3.312,121.272L3.312,121.688C3.312,124.501 4.323,125.678 6.458,125.678Z" style="fill:#f7c5ad;fill-rule:nonzero;"/>
            <path d="M11.969,117.376L9.833,125.542L11.344,125.542L11.791,123.688L14.083,123.688L14.531,125.542L16.031,125.542L13.896,117.376L11.969,117.376ZM12.937,118.97L13.781,122.47L12.083,122.47L12.937,118.97Z" style="fill:#f7c5ad;fill-rule:nonzero;"/>
            <path d="M19.208,118.636L21.146,118.636L21.146,117.417L15.875,117.417L15.875,118.636L17.812,118.636L17.812,125.542L19.208,125.542L19.208,118.636Z" style="fill:#f7c5ad;fill-rule:nonzero;"/>
            <path d="M21.979,117.417L21.979,125.542L26.812,125.542L26.812,124.324L23.375,124.324L23.375,122.001L26.291,122.001L26.291,120.792L23.375,120.792L23.375,118.636L26.812,118.636L26.812,117.417L21.979,117.417Z" style="fill:#f7c5ad;fill-rule:nonzero;"/>
            <path d="M9.198,76.28L9.198,75.062L6.063,75.062L6.063,68.155L4.667,68.155L4.667,76.28L9.198,76.28Z" style="fill:#f7c5ad;fill-rule:nonzero;"/>
            <path d="M12.646,76.416C14.677,76.416 15.646,75.239 15.646,72.426L15.646,72.01C15.646,69.197 14.677,68.02 12.646,68.02C10.604,68.02 9.635,69.197 9.635,72.01L9.635,72.426C9.635,75.239 10.604,76.416 12.646,76.416ZM12.594,75.197C11.458,75.197 11.063,74.26 11.063,72.426L11.063,72.01C11.063,70.176 11.458,69.239 12.594,69.239L12.688,69.239C13.823,69.239 14.219,70.176 14.219,72.01L14.219,72.426C14.219,74.26 13.823,75.197 12.688,75.197L12.594,75.197Z" style="fill:#f7c5ad;fill-rule:nonzero;"/>
            <path d="M22.125,76.322L23.938,76.322L25.333,68.155L23.875,68.155L22.948,74.447L21.667,68.155L19.906,68.155L18.635,74.447L17.708,68.155L16.25,68.155L17.646,76.322L19.448,76.322L20.792,69.739L22.125,76.322Z" style="fill:#f7c5ad;fill-rule:nonzero;"/>
            <path d="M38.125,68.155L38.125,71.53L35.365,71.53L35.365,68.155L33.969,68.155L33.969,76.28L35.365,76.28L35.365,72.739L38.125,72.739L38.125,76.28L39.521,76.28L39.521,68.155L38.125,68.155Z" style="fill:#f7c5ad;fill-rule:nonzero;"/>
            <rect x="40.844" y="68.155" width="1.396" height="8.125" style="fill:#f7c5ad;fill-rule:nonzero;"/>
            <path d="M46.531,76.416C47.906,76.416 48.708,75.957 49.26,75.468L49.26,72.01L46.687,72.01L46.687,73.218L47.865,73.218L47.865,74.791C47.594,75.01 47.156,75.197 46.583,75.197L46.49,75.197C45.208,75.197 44.812,74.26 44.812,72.426L44.812,72.01C44.812,70.176 45.219,69.239 46.417,69.239L46.51,69.239C47.531,69.239 47.865,69.916 47.865,71.207L49.26,71.207L49.26,70.853C49.26,68.874 48.292,68.02 46.427,68.02C44.396,68.02 43.385,69.197 43.385,72.01L43.385,72.426C43.385,75.239 44.396,76.416 46.531,76.416Z" style="fill:#f7c5ad;fill-rule:nonzero;"/>
            <path d="M54.635,68.155L54.635,71.53L51.875,71.53L51.875,68.155L50.479,68.155L50.479,76.28L51.875,76.28L51.875,72.739L54.635,72.739L54.635,76.28L56.031,76.28L56.031,68.155L54.635,68.155Z" style="fill:#f7c5ad;fill-rule:nonzero;"/>
            <g id="SmmCTR4" serif:id="SmmCTR">
                <path d="M35.376,62.038C35.721,62.422 36.315,62.454 36.7,62.108C37.084,61.762 37.116,61.169 36.77,60.784C36.424,60.4 35.831,60.368 35.446,60.714C35.061,61.06 35.03,61.653 35.376,62.038Z" style="fill:#f7c5ad;"/>
                <path d="M54.624,62.038C54.279,62.422 53.685,62.454 53.3,62.108C52.916,61.762 52.884,61.169 53.23,60.784C53.576,60.4 54.169,60.368 54.554,60.714C54.939,61.06 54.97,61.653 54.624,62.038Z" style="fill:#f7c5ad;"/>
                <path d="M36.073,61.411C34.163,59.285 33,56.475 33,53.395C33,46.772 38.377,41.395 45,41.395C51.623,41.395 57,46.772 57,53.395C57,56.475 55.837,59.285 53.927,61.411" style="fill:none;stroke:#f7c5ad;stroke-width:0.63px;stroke-linecap:square;"/>
                <path id="line874" serif:id="line87" d="M45,43.473L45,41.566" style="fill:none;fill-rule:nonzero;stroke:#f7c5ad;stroke-width:0.63px;stroke-linecap:round;stroke-miterlimit:4;"/>
            </g>
            <g id="SmmCTR5" serif:id="SmmCTR">
                <path d="M5.376,62.038C5.721,62.422 6.315,62.454 6.7,62.108C7.084,61.762 7.116,61.169 6.77,60.784C6.424,60.4 5.831,60.368 5.446,60.714C5.061,61.06 5.03,61.653 5.376,62.038Z" style="fill:#f7c5ad;"/>
                <path d="M24.624,62.038C24.279,62.422 23.685,62.454 23.3,62.108C22.916,61.762 22.884,61.169 23.23,60.784C23.576,60.4 24.169,60.368 24.554,60.714C24.939,61.06 24.97,61.653 24.624,62.038Z" style="fill:#f7c5ad;"/>
                <path d="M6.073,61.411C4.163,59.285 3,56.475 3,53.395C3,46.772 8.377,41.395 15,41.395C21.623,41.395 27,46.772 27,53.395C27,56.475 25.837,59.285 23.927,61.411" style="fill:none;stroke:#f7c5ad;stroke-width:0.63px;stroke-linecap:square;"/>
                <path id="line875" serif:id="line87" d="M15,43.473L15,41.566" style="fill:none;fill-rule:nonzero;stroke:#f7c5ad;stroke-width:0.63px;stroke-linecap:round;stroke-miterlimit:4;"/>
            </g>
        </g>
    </g>
</svg>
