<?xml version="1.0" encoding="UTF-8" standalone="no"?>
<!DOCTYPE svg PUBLIC "-//W3C//DTD SVG 1.1//EN" "http://www.w3.org/Graphics/SVG/1.1/DTD/svg11.dtd">
<svg width="100%" height="100%" viewBox="0 0 225 380" version="1.1" xmlns="http://www.w3.org/2000/svg" xmlns:xlink="http://www.w3.org/1999/xlink" xml:space="preserve" xmlns:serif="http://www.serif.com/" style="fill-rule:evenodd;clip-rule:evenodd;stroke-linejoin:round;stroke-miterlimit:1.5;">
    <g id="Layer1">
        <rect x="-0" y="0" width="225" height="380" style="fill:#252626;"/>
        <path d="M218.25,317.759C218.25,316.214 216.995,314.959 215.45,314.959L189.55,314.959C188.005,314.959 186.75,316.214 186.75,317.759L186.75,352.159C186.75,353.705 188.005,354.959 189.55,354.959L215.45,354.959C216.995,354.959 218.25,353.705 218.25,352.159L218.25,317.759Z" style="fill:#79305a;"/>
        <path d="M0,25L225,25" style="fill:none;stroke:#f7c5ad;stroke-width:0.83px;"/>
        <path d="M196.13,352.314C198.161,352.314 199.13,351.137 199.13,348.324L199.13,347.908C199.13,345.095 198.161,343.918 196.13,343.918C194.089,343.918 193.12,345.095 193.12,347.908L193.12,348.324C193.12,351.137 194.089,352.314 196.13,352.314ZM196.078,351.095C194.943,351.095 194.547,350.158 194.547,348.324L194.547,347.908C194.547,346.074 194.943,345.137 196.078,345.137L196.172,345.137C197.307,345.137 197.703,346.074 197.703,347.908L197.703,348.324C197.703,350.158 197.307,351.095 196.172,351.095L196.078,351.095Z" style="fill:#f7c5ad;fill-rule:nonzero;"/>
        <path d="M203.005,352.314C205.057,352.314 205.828,351.449 205.828,349.626L205.828,344.054L204.432,344.054L204.432,349.574C204.432,350.647 204.047,351.095 203.005,351.095C201.953,351.095 201.568,350.647 201.568,349.574L201.568,344.054L200.172,344.054L200.172,349.626C200.172,351.449 200.943,352.314 203.005,352.314Z" style="fill:#f7c5ad;fill-rule:nonzero;"/>
        <path d="M209.943,345.272L211.88,345.272L211.88,344.054L206.609,344.054L206.609,345.272L208.547,345.272L208.547,352.179L209.943,352.179L209.943,345.272Z" style="fill:#f7c5ad;fill-rule:nonzero;"/>
        <path d="M142.76,352.314C144.792,352.314 145.76,351.137 145.76,348.324L145.76,347.908C145.76,345.095 144.792,343.918 142.76,343.918C140.719,343.918 139.75,345.095 139.75,347.908L139.75,348.324C139.75,351.137 140.719,352.314 142.76,352.314ZM142.708,351.095C141.573,351.095 141.177,350.158 141.177,348.324L141.177,347.908C141.177,346.074 141.573,345.137 142.708,345.137L142.802,345.137C143.938,345.137 144.333,346.074 144.333,347.908L144.333,348.324C144.333,350.158 143.938,351.095 142.802,351.095L142.708,351.095Z" style="fill:#f7c5ad;fill-rule:nonzero;"/>
        <path d="M146.854,344.054L146.854,352.179L148.25,352.179L148.25,348.637L151.094,348.637L151.094,347.429L148.25,347.429L148.25,345.272L151.615,345.272L151.615,344.054L146.854,344.054Z" style="fill:#f7c5ad;fill-rule:nonzero;"/>
        <path d="M152.458,344.054L152.458,352.179L153.854,352.179L153.854,348.637L156.698,348.637L156.698,347.429L153.854,347.429L153.854,345.272L157.219,345.272L157.219,344.054L152.458,344.054Z" style="fill:#f7c5ad;fill-rule:nonzero;"/>
        <path d="M160.448,348.637C161.688,348.804 162.083,349.179 162.083,349.887L162.083,349.949C162.083,350.626 161.583,351.095 160.708,351.095L160.615,351.095C159.74,351.095 159.208,350.595 159.208,349.439L157.813,349.439L157.813,349.543C157.813,351.408 158.802,352.314 160.667,352.314C162.479,352.314 163.51,351.418 163.51,349.897L163.51,349.783C163.51,348.356 162.667,347.72 160.896,347.481C159.615,347.304 159.313,346.929 159.313,346.262L159.313,346.199C159.313,345.564 159.813,345.137 160.583,345.137L160.677,345.137C161.646,345.137 162.042,345.679 162.042,346.897L163.438,346.897L163.438,346.658C163.438,344.824 162.594,343.918 160.667,343.918C158.906,343.918 157.885,344.835 157.885,346.272L157.885,346.376C157.885,347.72 158.677,348.397 160.448,348.637Z" style="fill:#f7c5ad;fill-rule:nonzero;"/>
        <path d="M164.531,344.054L164.531,352.179L169.365,352.179L169.365,350.96L165.927,350.96L165.927,348.637L168.844,348.637L168.844,347.429L165.927,347.429L165.927,345.272L169.365,345.272L169.365,344.054L164.531,344.054Z" style="fill:#f7c5ad;fill-rule:nonzero;"/>
        <path d="M173.313,345.272L175.25,345.272L175.25,344.054L169.979,344.054L169.979,345.272L171.917,345.272L171.917,352.179L173.313,352.179L173.313,345.272Z" style="fill:#f7c5ad;fill-rule:nonzero;"/>
        <path d="M58.698,344.054L58.698,352.179L63.531,352.179L63.531,350.96L60.094,350.96L60.094,348.637L63.01,348.637L63.01,347.429L60.094,347.429L60.094,345.272L63.531,345.272L63.531,344.054L58.698,344.054Z" style="fill:#f7c5ad;fill-rule:nonzero;"/>
        <path d="M65.979,349.147L67.167,349.147L68.333,352.179L69.844,352.179L68.521,348.929C69.26,348.637 69.844,348.001 69.844,346.699L69.844,346.491C69.844,344.429 68.396,344.054 67.125,344.054L64.583,344.054L64.583,352.179L65.979,352.179L65.979,349.147ZM65.979,347.929L65.979,345.272L67.177,345.272C67.719,345.272 68.427,345.47 68.427,346.543L68.427,346.658C68.427,347.731 67.719,347.929 67.177,347.929L65.979,347.929Z" style="fill:#f7c5ad;fill-rule:nonzero;"/>
        <path d="M72.344,349.147L73.531,349.147L74.698,352.179L76.208,352.179L74.885,348.929C75.625,348.637 76.208,348.001 76.208,346.699L76.208,346.491C76.208,344.429 74.76,344.054 73.49,344.054L70.948,344.054L70.948,352.179L72.344,352.179L72.344,349.147ZM72.344,347.929L72.344,345.272L73.542,345.272C74.083,345.272 74.792,345.47 74.792,346.543L74.792,346.658C74.792,347.731 74.083,347.929 73.542,347.929L72.344,347.929Z" style="fill:#f7c5ad;fill-rule:nonzero;"/>
        <path d="M102.479,344.054L102.479,352.179L107.313,352.179L107.313,350.96L103.875,350.96L103.875,348.637L106.792,348.637L106.792,347.429L103.875,347.429L103.875,345.272L107.313,345.272L107.313,344.054L102.479,344.054Z" style="fill:#f7c5ad;fill-rule:nonzero;"/>
        <path d="M114.094,348.324L114.094,347.908C114.094,345.095 113.042,344.054 110.76,344.054L108.365,344.054L108.365,352.179L110.76,352.179C113.042,352.179 114.094,351.137 114.094,348.324ZM109.76,350.96L109.76,345.272L110.677,345.272C112.125,345.272 112.667,346.074 112.667,347.908L112.667,348.324C112.667,350.158 112.125,350.96 110.677,350.96L109.76,350.96Z" style="fill:#f7c5ad;fill-rule:nonzero;"/>
        <rect x="115.24" y="344.054" width="1.396" height="8.125" style="fill:#f7c5ad;fill-rule:nonzero;"/>
        <path d="M120.854,345.272L122.792,345.272L122.792,344.054L117.521,344.054L117.521,345.272L119.458,345.272L119.458,352.179L120.854,352.179L120.854,345.272Z" style="fill:#f7c5ad;fill-rule:nonzero;"/>
        <path d="M68.732,229.258L69.93,229.258L69.846,227.696L69.846,225.696C69.846,224.404 69.326,223.602 67.607,223.602C65.846,223.602 65.367,224.54 65.367,225.467L65.367,225.56L66.659,225.56C66.659,225.081 66.826,224.654 67.576,224.654C68.273,224.654 68.492,224.998 68.492,225.696L68.492,225.717L67.086,225.935C66.013,226.092 65.159,226.467 65.159,227.665L65.159,227.769C65.159,228.654 65.659,229.394 66.826,229.394C67.648,229.394 68.242,229.071 68.628,228.623L68.732,229.258ZM67.294,228.279C66.742,228.279 66.513,227.946 66.513,227.602L66.513,227.519C66.513,227.092 66.763,226.821 67.336,226.727L68.492,226.54L68.492,227.706C68.315,227.946 67.93,228.279 67.294,228.279Z" style="fill:#f7c5ad;fill-rule:nonzero;"/>
        <path d="M111.622,220.925L110.268,220.925L110.268,227.696L110.185,229.258L111.383,229.258L111.497,228.571C111.799,229.04 112.299,229.394 113.091,229.394C114.602,229.394 115.154,228.238 115.154,226.665L115.154,226.331C115.154,224.748 114.602,223.602 113.091,223.602C112.404,223.602 111.935,223.873 111.622,224.248L111.622,220.925ZM111.622,225.415C111.789,225.154 112.133,224.779 112.706,224.779C113.477,224.779 113.799,225.363 113.799,226.331L113.799,226.665C113.799,227.633 113.477,228.206 112.706,228.206C112.133,228.206 111.789,227.842 111.622,227.581L111.622,225.415Z" style="fill:#f7c5ad;fill-rule:nonzero;"/>
        <path d="M156.602,226.665L156.602,226.331C156.602,225.373 156.924,224.779 157.716,224.779C158.383,224.779 158.695,225.196 158.695,225.842L159.977,225.842L159.977,225.613C159.977,224.498 159.247,223.602 157.685,223.602C155.987,223.602 155.247,224.748 155.247,226.331L155.247,226.665C155.247,228.238 155.987,229.394 157.685,229.394C159.247,229.394 159.977,228.519 159.977,227.467L159.977,227.248L158.695,227.248C158.695,227.79 158.404,228.206 157.716,228.206C156.924,228.206 156.602,227.613 156.602,226.665Z" style="fill:#f7c5ad;fill-rule:nonzero;"/>
        <path d="M59.023,298.417L59.023,298.001C59.023,296.167 59.398,295.23 60.555,295.23L60.648,295.23C61.638,295.23 61.961,295.907 61.961,297.198L63.367,297.198L63.367,296.844C63.367,294.865 62.43,294.011 60.565,294.011C58.534,294.011 57.596,295.188 57.596,298.001L57.596,298.417C57.596,301.23 58.534,302.407 60.565,302.407C62.43,302.407 63.367,301.553 63.367,299.636L63.367,299.532L61.961,299.532C61.961,300.553 61.596,301.188 60.648,301.188L60.555,301.188C59.388,301.188 59.023,300.251 59.023,298.417Z" style="fill:#f7c5ad;fill-rule:nonzero;"/>
        <path d="M67.93,302.313L70.065,294.146L68.565,294.146L66.971,300.719L65.367,294.146L63.867,294.146L66.003,302.313L67.93,302.313Z" style="fill:#f7c5ad;fill-rule:nonzero;"/>
        <path d="M76.263,302.271L77.461,302.271L77.378,300.709L77.378,298.709C77.378,297.417 76.857,296.615 75.138,296.615C73.378,296.615 72.898,297.553 72.898,298.48L72.898,298.573L74.19,298.573C74.19,298.094 74.357,297.667 75.107,297.667C75.805,297.667 76.023,298.011 76.023,298.709L76.023,298.73L74.617,298.948C73.544,299.105 72.69,299.48 72.69,300.678L72.69,300.782C72.69,301.667 73.19,302.407 74.357,302.407C75.18,302.407 75.773,302.084 76.159,301.636L76.263,302.271ZM74.826,301.292C74.273,301.292 74.044,300.959 74.044,300.615L74.044,300.532C74.044,300.105 74.294,299.834 74.867,299.74L76.023,299.553L76.023,300.719C75.846,300.959 75.461,301.292 74.826,301.292Z" style="fill:#f7c5ad;fill-rule:nonzero;"/>
        <path d="M103.893,298.454L103.893,298.037C103.893,296.204 104.268,295.266 105.424,295.266L105.518,295.266C106.508,295.266 106.831,295.943 106.831,297.235L108.237,297.235L108.237,296.881C108.237,294.902 107.299,294.047 105.435,294.047C103.404,294.047 102.466,295.224 102.466,298.037L102.466,298.454C102.466,301.266 103.404,302.443 105.435,302.443C107.299,302.443 108.237,301.589 108.237,299.672L108.237,299.568L106.831,299.568C106.831,300.589 106.466,301.224 105.518,301.224L105.424,301.224C104.258,301.224 103.893,300.287 103.893,298.454Z" style="fill:#f7c5ad;fill-rule:nonzero;"/>
        <path d="M112.799,302.349L114.935,294.183L113.435,294.183L111.841,300.756L110.237,294.183L108.737,294.183L110.872,302.349L112.799,302.349Z" style="fill:#f7c5ad;fill-rule:nonzero;"/>
        <path d="M119.154,293.974L117.799,293.974L117.799,300.745L117.716,302.308L118.914,302.308L119.029,301.62C119.331,302.089 119.831,302.443 120.622,302.443C122.133,302.443 122.685,301.287 122.685,299.714L122.685,299.381C122.685,297.797 122.133,296.652 120.622,296.652C119.935,296.652 119.466,296.922 119.154,297.297L119.154,293.974ZM119.154,298.464C119.32,298.204 119.664,297.829 120.237,297.829C121.008,297.829 121.331,298.412 121.331,299.381L121.331,299.714C121.331,300.683 121.008,301.256 120.237,301.256C119.664,301.256 119.32,300.891 119.154,300.631L119.154,298.464Z" style="fill:#f7c5ad;fill-rule:nonzero;"/>
        <path d="M149.091,298.417L149.091,298.001C149.091,296.167 149.466,295.23 150.622,295.23L150.716,295.23C151.706,295.23 152.029,295.907 152.029,297.198L153.435,297.198L153.435,296.844C153.435,294.865 152.497,294.011 150.633,294.011C148.602,294.011 147.664,295.188 147.664,298.001L147.664,298.417C147.664,301.23 148.602,302.407 150.633,302.407C152.497,302.407 153.435,301.553 153.435,299.636L153.435,299.532L152.029,299.532C152.029,300.553 151.664,301.188 150.716,301.188L150.622,301.188C149.456,301.188 149.091,300.251 149.091,298.417Z" style="fill:#f7c5ad;fill-rule:nonzero;"/>
        <path d="M157.997,302.313L160.133,294.146L158.633,294.146L157.039,300.719L155.435,294.146L153.935,294.146L156.07,302.313L157.997,302.313Z" style="fill:#f7c5ad;fill-rule:nonzero;"/>
        <path d="M164.133,299.678L164.133,299.344C164.133,298.386 164.456,297.792 165.247,297.792C165.914,297.792 166.227,298.209 166.227,298.855L167.508,298.855L167.508,298.626C167.508,297.511 166.779,296.615 165.216,296.615C163.518,296.615 162.779,297.761 162.779,299.344L162.779,299.678C162.779,301.251 163.518,302.407 165.216,302.407C166.779,302.407 167.508,301.532 167.508,300.48L167.508,300.261L166.227,300.261C166.227,300.803 165.935,301.219 165.247,301.219C164.456,301.219 164.133,300.626 164.133,299.678Z" style="fill:#f7c5ad;fill-rule:nonzero;"/>
        <path d="M14.422,299.172L15.609,299.172L16.776,302.204L18.286,302.204L16.964,298.954C17.703,298.662 18.286,298.027 18.286,296.724L18.286,296.516C18.286,294.454 16.839,294.079 15.568,294.079L13.026,294.079L13.026,302.204L14.422,302.204L14.422,299.172ZM14.422,297.954L14.422,295.297L15.62,295.297C16.161,295.297 16.87,295.495 16.87,296.568L16.87,296.683C16.87,297.756 16.161,297.954 15.62,297.954L14.422,297.954Z" style="fill:#f7c5ad;fill-rule:nonzero;"/>
        <path d="M22.172,302.339C24.224,302.339 24.995,301.474 24.995,299.652L24.995,294.079L23.599,294.079L23.599,299.599C23.599,300.672 23.214,301.12 22.172,301.12C21.12,301.12 20.734,300.672 20.734,299.599L20.734,294.079L19.339,294.079L19.339,299.652C19.339,301.474 20.109,302.339 22.172,302.339Z" style="fill:#f7c5ad;fill-rule:nonzero;"/>
        <path d="M31.974,294.079L30.651,294.079L30.651,297.964L30.693,299.683L27.693,294.079L26.214,294.079L26.214,302.204L27.536,302.204L27.536,298.318L27.495,296.599L30.495,302.204L31.974,302.204L31.974,294.079Z" style="fill:#f7c5ad;fill-rule:nonzero;"/>
        <path d="M189.396,299.172L190.583,299.172L191.75,302.204L193.26,302.204L191.937,298.954C192.677,298.662 193.26,298.027 193.26,296.724L193.26,296.516C193.26,294.454 191.812,294.079 190.542,294.079L188,294.079L188,302.204L189.396,302.204L189.396,299.172ZM189.396,297.954L189.396,295.297L190.594,295.297C191.135,295.297 191.844,295.495 191.844,296.568L191.844,296.683C191.844,297.756 191.135,297.954 190.594,297.954L189.396,297.954Z" style="fill:#f7c5ad;fill-rule:nonzero;"/>
        <path d="M194.365,294.079L194.365,302.204L199.198,302.204L199.198,300.985L195.76,300.985L195.76,298.662L198.677,298.662L198.677,297.454L195.76,297.454L195.76,295.297L199.198,295.297L199.198,294.079L194.365,294.079Z" style="fill:#f7c5ad;fill-rule:nonzero;"/>
        <path d="M202.635,298.662C203.875,298.829 204.271,299.204 204.271,299.912L204.271,299.974C204.271,300.652 203.771,301.12 202.896,301.12L202.802,301.12C201.927,301.12 201.396,300.62 201.396,299.464L200,299.464L200,299.568C200,301.433 200.99,302.339 202.854,302.339C204.667,302.339 205.698,301.443 205.698,299.922L205.698,299.808C205.698,298.381 204.854,297.745 203.083,297.506C201.802,297.329 201.5,296.954 201.5,296.287L201.5,296.224C201.5,295.589 202,295.162 202.771,295.162L202.865,295.162C203.833,295.162 204.229,295.704 204.229,296.922L205.625,296.922L205.625,296.683C205.625,294.849 204.781,293.943 202.854,293.943C201.094,293.943 200.073,294.86 200.073,296.297L200.073,296.402C200.073,297.745 200.865,298.422 202.635,298.662Z" style="fill:#f7c5ad;fill-rule:nonzero;"/>
        <path d="M206.719,294.079L206.719,302.204L211.552,302.204L211.552,300.985L208.115,300.985L208.115,298.662L211.031,298.662L211.031,297.454L208.115,297.454L208.115,295.297L211.552,295.297L211.552,294.079L206.719,294.079Z" style="fill:#f7c5ad;fill-rule:nonzero;"/>
        <path d="M215.5,295.297L217.437,295.297L217.437,294.079L212.167,294.079L212.167,295.297L214.104,295.297L214.104,302.204L215.5,302.204L215.5,295.297Z" style="fill:#f7c5ad;fill-rule:nonzero;"/>
        <path d="M8.5,348.23L8.5,347.813C8.5,345.98 8.875,345.042 10.031,345.042L10.125,345.042C11.115,345.042 11.438,345.719 11.438,347.011L12.844,347.011L12.844,346.657C12.844,344.678 11.906,343.824 10.042,343.824C8.01,343.824 7.073,345.001 7.073,347.813L7.073,348.23C7.073,351.042 8.01,352.219 10.042,352.219C11.906,352.219 12.844,351.365 12.844,349.449L12.844,349.344L11.438,349.344C11.438,350.365 11.073,351.001 10.125,351.001L10.031,351.001C8.865,351.001 8.5,350.063 8.5,348.23Z" style="fill:#f7c5ad;fill-rule:nonzero;"/>
        <path d="M18.448,352.084L18.448,350.865L15.313,350.865L15.313,343.959L13.917,343.959L13.917,352.084L18.448,352.084Z" style="fill:#f7c5ad;fill-rule:nonzero;"/>
        <path d="M21.896,352.219C23.927,352.219 24.896,351.042 24.896,348.23L24.896,347.813C24.896,345.001 23.927,343.824 21.896,343.824C19.854,343.824 18.885,345.001 18.885,347.813L18.885,348.23C18.885,351.042 19.854,352.219 21.896,352.219ZM21.844,351.001C20.708,351.001 20.313,350.063 20.313,348.23L20.313,347.813C20.313,345.98 20.708,345.042 21.844,345.042L21.938,345.042C23.073,345.042 23.469,345.98 23.469,347.813L23.469,348.23C23.469,350.063 23.073,351.001 21.938,351.001L21.844,351.001Z" style="fill:#f7c5ad;fill-rule:nonzero;"/>
        <path d="M27.24,348.23L27.24,347.813C27.24,345.98 27.615,345.042 28.771,345.042L28.865,345.042C29.854,345.042 30.177,345.719 30.177,347.011L31.583,347.011L31.583,346.657C31.583,344.678 30.646,343.824 28.781,343.824C26.75,343.824 25.813,345.001 25.813,347.813L25.813,348.23C25.813,351.042 26.75,352.219 28.781,352.219C30.646,352.219 31.583,351.365 31.583,349.449L31.583,349.344L30.177,349.344C30.177,350.365 29.813,351.001 28.865,351.001L28.771,351.001C27.604,351.001 27.24,350.063 27.24,348.23Z" style="fill:#f7c5ad;fill-rule:nonzero;"/>
        <path d="M34.052,343.959L32.656,343.959L32.656,352.084L34.052,352.084L34.052,349.688L34.875,348.521L36.521,352.084L38.073,352.084L35.76,347.261L38.073,343.959L36.385,343.959L34.052,347.553L34.052,343.959Z" style="fill:#f7c5ad;fill-rule:nonzero;"/>
        <path d="M93.779,6.507L92.079,19.507L96.746,19.507C98.812,19.507 101.412,19.04 101.746,15.64L101.779,15.307C101.912,13.973 101.479,13.24 100.712,12.79C101.412,12.34 101.929,11.657 102.079,10.557L102.129,10.19C102.579,6.923 100.346,6.507 98.362,6.507L93.779,6.507ZM97.512,14.24C98.029,14.24 98.679,14.39 98.579,15.407L98.562,15.59C98.462,16.607 97.696,16.773 97.179,16.773L95.596,16.773L95.929,14.24L97.512,14.24ZM97.962,9.24C98.462,9.24 98.996,9.373 98.912,10.29L98.896,10.473C98.812,11.373 98.129,11.507 97.662,11.507L96.296,11.507L96.596,9.24L97.962,9.24Z" style="fill:#f7c5ad;fill-rule:nonzero;"/>
        <path d="M109.146,15.507L114.012,6.507L110.546,6.507L108.079,11.607L106.946,6.507L103.479,6.507L105.979,15.507L105.462,19.507L108.629,19.507L109.146,15.507Z" style="fill:#f7c5ad;fill-rule:nonzero;"/>
        <path d="M120.062,9.24L122.979,9.24L123.329,6.507L114.329,6.507L113.979,9.24L116.896,9.24L115.546,19.507L118.712,19.507L120.062,9.24Z" style="fill:#f7c5ad;fill-rule:nonzero;"/>
        <path d="M124.412,6.507L122.712,19.507L130.879,19.507L131.229,16.773L126.229,16.773L126.562,14.24L130.729,14.24L131.096,11.507L126.929,11.507L127.229,9.24L132.229,9.24L132.579,6.507L124.412,6.507Z" style="fill:#f7c5ad;fill-rule:nonzero;"/>
        <path d="M8.75,226.706L8.75,226.29C8.75,224.456 9.125,223.519 10.281,223.519L10.375,223.519C11.365,223.519 11.687,224.196 11.687,225.488L13.094,225.488L13.094,225.133C13.094,223.154 12.156,222.3 10.292,222.3C8.26,222.3 7.323,223.477 7.323,226.29L7.323,226.706C7.323,229.519 8.26,230.696 10.292,230.696C12.156,230.696 13.094,229.842 13.094,227.925L13.094,227.821L11.687,227.821C11.687,228.842 11.323,229.477 10.375,229.477L10.281,229.477C9.115,229.477 8.75,228.54 8.75,226.706Z" style="fill:#f7c5ad;fill-rule:nonzero;"/>
        <path d="M18.698,230.56L18.698,229.342L15.562,229.342L15.562,222.435L14.167,222.435L14.167,230.56L18.698,230.56Z" style="fill:#f7c5ad;fill-rule:nonzero;"/>
        <path d="M22.146,230.696C24.177,230.696 25.146,229.519 25.146,226.706L25.146,226.29C25.146,223.477 24.177,222.3 22.146,222.3C20.104,222.3 19.135,223.477 19.135,226.29L19.135,226.706C19.135,229.519 20.104,230.696 22.146,230.696ZM22.094,229.477C20.958,229.477 20.562,228.54 20.562,226.706L20.562,226.29C20.562,224.456 20.958,223.519 22.094,223.519L22.187,223.519C23.323,223.519 23.719,224.456 23.719,226.29L23.719,226.706C23.719,228.54 23.323,229.477 22.187,229.477L22.094,229.477Z" style="fill:#f7c5ad;fill-rule:nonzero;"/>
        <path d="M27.49,226.706L27.49,226.29C27.49,224.456 27.865,223.519 29.021,223.519L29.115,223.519C30.104,223.519 30.427,224.196 30.427,225.488L31.833,225.488L31.833,225.133C31.833,223.154 30.896,222.3 29.031,222.3C27,222.3 26.062,223.477 26.062,226.29L26.062,226.706C26.062,229.519 27,230.696 29.031,230.696C30.896,230.696 31.833,229.842 31.833,227.925L31.833,227.821L30.427,227.821C30.427,228.842 30.062,229.477 29.115,229.477L29.021,229.477C27.854,229.477 27.49,228.54 27.49,226.706Z" style="fill:#f7c5ad;fill-rule:nonzero;"/>
        <path d="M34.302,222.435L32.906,222.435L32.906,230.56L34.302,230.56L34.302,228.165L35.125,226.998L36.771,230.56L38.323,230.56L36.01,225.738L38.323,222.435L36.635,222.435L34.302,226.029L34.302,222.435Z" style="fill:#f7c5ad;fill-rule:nonzero;"/>
        <path d="M94.827,375.731C97.577,375.731 98.787,375.117 99.007,373.302L96.678,373.302C96.477,373.953 96.046,374.136 94.46,374.136L94.24,374.136C92.297,374.136 91.976,373.724 91.976,372.541L91.976,372.33C91.976,371.13 92.297,370.726 94.24,370.726L94.46,370.726C96.046,370.726 96.477,370.91 96.678,371.56L99.007,371.56C98.787,369.745 97.577,369.131 94.827,369.131L93.873,369.131C90.821,369.131 89.657,369.874 89.657,372.23L89.657,372.633C89.657,374.989 90.821,375.731 93.873,375.731L94.827,375.731Z" style="fill:#f7c5ad;fill-rule:nonzero;"/>
        <path d="M107.633,374.127L102.224,374.127L102.224,373.183L107.633,373.183L107.633,371.67L102.224,371.67L102.224,370.735L107.633,370.735L107.633,369.223L99.951,369.223L99.951,375.64L107.633,375.64L107.633,374.127Z" style="fill:#f7c5ad;fill-rule:nonzero;"/>
        <path d="M116.02,373.925L111.015,373.925L111.015,369.223L108.742,369.223L108.742,375.64L116.02,375.64L116.02,373.925Z" style="fill:#f7c5ad;fill-rule:nonzero;"/>
        <path d="M124.096,373.925L119.091,373.925L119.091,369.223L116.818,369.223L116.818,375.64L124.096,375.64L124.096,373.925Z" style="fill:#f7c5ad;fill-rule:nonzero;"/>
        <path d="M131.594,369.223L128.111,369.223L124.362,375.64L126.873,375.64L127.598,374.365L132.016,374.365L132.749,375.64L135.343,375.64L131.594,369.223ZM129.853,370.58L131.154,372.853L128.459,372.853L129.77,370.58L129.853,370.58Z" style="fill:#f7c5ad;fill-rule:nonzero;"/>
        <g id="CTR">
            <circle id="Base" cx="157.504" cy="203.79" r="16.496" style="fill:none;"/>
            <path id="path89" d="M165.412,216.887C164.851,217.226 164.671,217.956 165.01,218.517C165.349,219.078 166.08,219.258 166.641,218.919C167.202,218.58 167.382,217.85 167.043,217.289C166.704,216.728 165.973,216.548 165.412,216.887Z" style="fill:#f7c5ad;fill-rule:nonzero;"/>
            <path d="M149.645,216.929C150.208,217.265 150.392,217.994 150.056,218.557C149.72,219.12 148.99,219.304 148.427,218.968C147.865,218.632 147.681,217.902 148.017,217.339C148.353,216.777 149.082,216.593 149.645,216.929Z" style="fill:#f7c5ad;fill-rule:nonzero;"/>
            <path d="M166.027,217.903C170.962,214.919 173.988,209.555 173.988,203.788C173.988,194.74 166.542,187.294 157.494,187.294C148.446,187.294 141,194.74 141,203.788C141,209.586 144.058,214.975 149.036,217.948" style="fill:none;fill-rule:nonzero;stroke:#f7c5ad;stroke-width:0.79px;stroke-linecap:round;stroke-miterlimit:4;"/>
        </g>
        <g id="CTR1" serif:id="CTR">
            <circle id="Base1" serif:id="Base" cx="112.504" cy="203.79" r="16.496" style="fill:none;"/>
            <path id="path891" serif:id="path89" d="M120.412,216.887C119.851,217.226 119.671,217.956 120.01,218.517C120.349,219.078 121.08,219.258 121.641,218.919C122.202,218.58 122.382,217.85 122.043,217.289C121.704,216.728 120.973,216.548 120.412,216.887Z" style="fill:#f7c5ad;fill-rule:nonzero;"/>
            <path d="M104.645,216.929C105.208,217.265 105.392,217.994 105.056,218.557C104.72,219.12 103.99,219.304 103.427,218.968C102.865,218.632 102.681,217.902 103.017,217.339C103.353,216.777 104.082,216.593 104.645,216.929Z" style="fill:#f7c5ad;fill-rule:nonzero;"/>
            <path d="M121.027,217.903C125.962,214.919 128.988,209.555 128.988,203.788C128.988,194.74 121.542,187.294 112.494,187.294C103.446,187.294 96,194.74 96,203.788C96,209.586 99.058,214.975 104.036,217.948" style="fill:none;fill-rule:nonzero;stroke:#f7c5ad;stroke-width:0.79px;stroke-linecap:round;stroke-miterlimit:4;"/>
        </g>
        <g id="CTR2" serif:id="CTR">
            <circle id="Base2" serif:id="Base" cx="67.504" cy="203.79" r="16.496" style="fill:none;"/>
            <path id="path892" serif:id="path89" d="M75.412,216.887C74.851,217.226 74.671,217.956 75.01,218.517C75.349,219.078 76.08,219.258 76.641,218.919C77.202,218.58 77.382,217.85 77.043,217.289C76.704,216.728 75.973,216.548 75.412,216.887Z" style="fill:#f7c5ad;fill-rule:nonzero;"/>
            <path d="M59.645,216.929C60.208,217.265 60.392,217.994 60.056,218.557C59.72,219.12 58.99,219.304 58.427,218.968C57.865,218.632 57.681,217.902 58.017,217.339C58.353,216.777 59.082,216.593 59.645,216.929Z" style="fill:#f7c5ad;fill-rule:nonzero;"/>
            <path d="M76.027,217.903C80.962,214.919 83.988,209.555 83.988,203.788C83.988,194.74 76.542,187.294 67.494,187.294C58.446,187.294 51,194.74 51,203.788C51,209.586 54.058,214.975 59.036,217.948" style="fill:none;fill-rule:nonzero;stroke:#f7c5ad;stroke-width:0.79px;stroke-linecap:round;stroke-miterlimit:4;"/>
        </g>
        <g id="SMCTR">
            <path d="M157.488,280.1L157.488,252.593" style="fill:none;stroke:#f7c5ad;stroke-width:0.83px;stroke-linecap:square;"/>
            <path id="line87" d="M157.497,242.74L157.497,240.008" style="fill:none;fill-rule:nonzero;stroke:#f7c5ad;stroke-width:0.61px;stroke-linecap:round;stroke-miterlimit:4;"/>
            <path d="M146.967,262.295C147.313,262.68 147.906,262.712 148.291,262.366C148.676,262.02 148.707,261.427 148.361,261.042C148.016,260.657 147.422,260.626 147.038,260.972C146.653,261.317 146.621,261.911 146.967,262.295Z" style="fill:#f7c5ad;"/>
            <path d="M168.009,262.295C167.663,262.68 167.069,262.712 166.685,262.366C166.3,262.02 166.268,261.427 166.614,261.042C166.96,260.657 167.553,260.626 167.938,260.972C168.323,261.317 168.354,261.911 168.009,262.295Z" style="fill:#f7c5ad;"/>
            <path d="M147.664,261.669C145.562,259.33 144.283,256.237 144.283,252.848C144.283,245.56 150.2,239.643 157.488,239.643C164.776,239.643 170.693,245.56 170.693,252.848C170.693,256.237 169.413,259.33 167.311,261.669" style="fill:none;stroke:#f7c5ad;stroke-width:0.63px;stroke-linecap:square;"/>
        </g>
        <g id="SMCTR1" serif:id="SMCTR">
            <path d="M67.5,280.1L67.5,252.593" style="fill:none;stroke:#f7c5ad;stroke-width:0.83px;stroke-linecap:square;"/>
            <path id="line871" serif:id="line87" d="M67.509,242.74L67.509,240.008" style="fill:none;fill-rule:nonzero;stroke:#f7c5ad;stroke-width:0.61px;stroke-linecap:round;stroke-miterlimit:4;"/>
            <path d="M56.979,262.295C57.325,262.68 57.918,262.712 58.303,262.366C58.688,262.02 58.72,261.427 58.374,261.042C58.028,260.657 57.435,260.626 57.05,260.972C56.665,261.317 56.633,261.911 56.979,262.295Z" style="fill:#f7c5ad;"/>
            <path d="M78.021,262.295C77.675,262.68 77.082,262.712 76.697,262.366C76.312,262.02 76.28,261.427 76.626,261.042C76.972,260.657 77.565,260.626 77.95,260.972C78.335,261.317 78.367,261.911 78.021,262.295Z" style="fill:#f7c5ad;"/>
            <path d="M57.676,261.669C55.575,259.33 54.295,256.237 54.295,252.848C54.295,245.56 60.212,239.643 67.5,239.643C74.788,239.643 80.705,245.56 80.705,252.848C80.705,256.237 79.425,259.33 77.324,261.669" style="fill:none;stroke:#f7c5ad;stroke-width:0.63px;stroke-linecap:square;"/>
        </g>
        <path d="M22.5,280.1L22.5,252.593" style="fill:none;stroke:#f7c5ad;stroke-width:0.83px;stroke-linecap:square;"/>
        <path d="M202.5,280.1L202.5,252.593" style="fill:none;stroke:#f7c5ad;stroke-width:0.83px;stroke-linecap:square;"/>
        <g id="SMCTR2" serif:id="SMCTR">
            <path d="M112.5,280.1L112.5,252.593" style="fill:none;stroke:#f7c5ad;stroke-width:0.83px;stroke-linecap:square;"/>
            <path id="line872" serif:id="line87" d="M112.509,242.74L112.509,240.008" style="fill:none;fill-rule:nonzero;stroke:#f7c5ad;stroke-width:0.61px;stroke-linecap:round;stroke-miterlimit:4;"/>
            <path d="M101.979,262.295C102.325,262.68 102.918,262.712 103.303,262.366C103.688,262.02 103.72,261.427 103.374,261.042C103.028,260.657 102.435,260.626 102.05,260.972C101.665,261.317 101.633,261.911 101.979,262.295Z" style="fill:#f7c5ad;"/>
            <path d="M123.021,262.295C122.675,262.68 122.082,262.712 121.697,262.366C121.312,262.02 121.28,261.427 121.626,261.042C121.972,260.657 122.565,260.626 122.95,260.972C123.335,261.317 123.367,261.911 123.021,262.295Z" style="fill:#f7c5ad;"/>
            <path d="M102.676,261.669C100.575,259.33 99.295,256.237 99.295,252.848C99.295,245.56 105.212,239.643 112.5,239.643C119.788,239.643 125.705,245.56 125.705,252.848C125.705,256.237 124.425,259.33 122.324,261.669" style="fill:none;stroke:#f7c5ad;stroke-width:0.63px;stroke-linecap:square;"/>
        </g>
        <g id="Port-Smaller" serif:id="Port Smaller">
            <g id="g200">
                <g id="g145">
                    <path id="path143" d="M67.5,339.44C61.876,339.44 57.3,334.864 57.3,329.24C57.3,323.616 61.876,319.04 67.5,319.04C73.125,319.04 77.7,323.616 77.7,329.24C77.7,334.864 73.125,339.44 67.5,339.44Z" style="fill:url(#_Linear1);fill-rule:nonzero;"/>
                </g>
                <circle id="circle152" cx="67.5" cy="329.25" r="9.689" style="fill:url(#_Linear2);"/>
                <circle id="circle154" cx="67.5" cy="329.25" r="9.114" style="fill:#e0e0e0;"/>
                <circle id="circle168" cx="67.5" cy="329.24" r="7.626" style="fill:url(#_Linear3);"/>
                <circle id="circle170" cx="67.5" cy="329.24" r="7.127" style="fill:#1f1f1f;"/>
                <path id="path172" d="M67.5,322.58C71.177,322.58 74.158,325.881 74.158,329.953C74.158,334.024 71.177,338.058 67.5,338.058C63.823,338.058 60.843,334.024 60.843,329.953C60.843,325.881 63.823,322.58 67.5,322.58Z" style="fill:#404040;fill-opacity:0.28;fill-rule:nonzero;"/>
            </g>
        </g>
        <g id="Port-Smaller1" serif:id="Port Smaller">
            <g id="g2001" serif:id="g200">
                <g id="g1451" serif:id="g145">
                    <path id="path1431" serif:id="path143" d="M112.5,338.949C106.876,338.949 102.3,334.374 102.3,328.75C102.3,323.125 106.876,318.549 112.5,318.549C118.125,318.549 122.7,323.125 122.7,328.75C122.7,334.374 118.125,338.949 112.5,338.949Z" style="fill:url(#_Linear4);fill-rule:nonzero;"/>
                </g>
                <circle id="circle1521" serif:id="circle152" cx="112.5" cy="328.759" r="9.689" style="fill:url(#_Linear5);"/>
                <circle id="circle1541" serif:id="circle154" cx="112.5" cy="328.759" r="9.114" style="fill:#e0e0e0;"/>
                <circle id="circle1681" serif:id="circle168" cx="112.5" cy="328.749" r="7.626" style="fill:url(#_Linear6);"/>
                <circle id="circle1701" serif:id="circle170" cx="112.5" cy="328.749" r="7.127" style="fill:#1f1f1f;"/>
                <path id="path1721" serif:id="path172" d="M112.5,322.089C116.177,322.089 119.158,325.39 119.158,329.462C119.158,333.534 116.177,337.567 112.5,337.567C108.823,337.567 105.843,333.534 105.843,329.462C105.843,325.39 108.823,322.089 112.5,322.089Z" style="fill:#404040;fill-opacity:0.28;fill-rule:nonzero;"/>
            </g>
        </g>
    </g>
    <defs>
        <linearGradient id="_Linear1" x1="0" y1="0" x2="1" y2="0" gradientUnits="userSpaceOnUse" gradientTransform="matrix(1.24911e-15,20.3996,-20.3996,1.24911e-15,67.5001,319.04)"><stop offset="0" style="stop-color:#828181;stop-opacity:1"/><stop offset="1" style="stop-color:#575757;stop-opacity:1"/></linearGradient>
        <linearGradient id="_Linear2" x1="0" y1="0" x2="1" y2="0" gradientUnits="userSpaceOnUse" gradientTransform="matrix(1.18659e-15,19.3784,-19.3784,1.18659e-15,67.5002,319.561)"><stop offset="0" style="stop-color:#f7c5ad;stop-opacity:1"/><stop offset="0.01" style="stop-color:#f7c5ad;stop-opacity:1"/><stop offset="1" style="stop-color:#7a7a7a;stop-opacity:1"/></linearGradient>
        <linearGradient id="_Linear3" x1="0" y1="0" x2="1" y2="0" gradientUnits="userSpaceOnUse" gradientTransform="matrix(9.33928e-16,-15.2522,15.2522,9.33928e-16,67.5003,336.866)"><stop offset="0" style="stop-color:#b0aeae;stop-opacity:1"/><stop offset="1" style="stop-color:#616161;stop-opacity:1"/></linearGradient>
        <linearGradient id="_Linear4" x1="0" y1="0" x2="1" y2="0" gradientUnits="userSpaceOnUse" gradientTransform="matrix(1.24911e-15,20.3996,-20.3996,1.24911e-15,112.5,318.549)"><stop offset="0" style="stop-color:#828181;stop-opacity:1"/><stop offset="1" style="stop-color:#575757;stop-opacity:1"/></linearGradient>
        <linearGradient id="_Linear5" x1="0" y1="0" x2="1" y2="0" gradientUnits="userSpaceOnUse" gradientTransform="matrix(1.18659e-15,19.3784,-19.3784,1.18659e-15,112.5,319.07)"><stop offset="0" style="stop-color:#f7c5ad;stop-opacity:1"/><stop offset="0.01" style="stop-color:#f7c5ad;stop-opacity:1"/><stop offset="1" style="stop-color:#7a7a7a;stop-opacity:1"/></linearGradient>
        <linearGradient id="_Linear6" x1="0" y1="0" x2="1" y2="0" gradientUnits="userSpaceOnUse" gradientTransform="matrix(9.33928e-16,-15.2522,15.2522,9.33928e-16,112.5,336.375)"><stop offset="0" style="stop-color:#b0aeae;stop-opacity:1"/><stop offset="1" style="stop-color:#616161;stop-opacity:1"/></linearGradient>
    </defs>
</svg>
