<?xml version="1.0" encoding="UTF-8" standalone="no"?>
<!DOCTYPE svg PUBLIC "-//W3C//DTD SVG 1.1//EN" "http://www.w3.org/Graphics/SVG/1.1/DTD/svg11.dtd">
<svg width="100%" height="100%" viewBox="0 0 240 380" version="1.1" xmlns="http://www.w3.org/2000/svg" xmlns:xlink="http://www.w3.org/1999/xlink" xml:space="preserve" xmlns:serif="http://www.serif.com/" style="fill-rule:evenodd;clip-rule:evenodd;stroke-linejoin:round;stroke-miterlimit:1.5;">
    <g id="Layer1">
        <rect x="-0" y="0" width="240" height="380" style="fill:#909090;"/>
        <path d="M225.75,317.759C225.75,316.214 224.495,314.959 222.95,314.959L197.05,314.959C195.505,314.959 194.25,316.214 194.25,317.759L194.25,352.159C194.25,353.705 195.505,354.959 197.05,354.959L222.95,354.959C224.495,354.959 225.75,353.705 225.75,352.159L225.75,317.759Z" style="fill:#ab5b87;"/>
        <path d="M0,25L240,25" style="fill:none;stroke:#ecedf1;stroke-width:0.83px;"/>
        <path d="M203.63,352.314C205.661,352.314 206.63,351.137 206.63,348.324L206.63,347.908C206.63,345.095 205.661,343.918 203.63,343.918C201.589,343.918 200.62,345.095 200.62,347.908L200.62,348.324C200.62,351.137 201.589,352.314 203.63,352.314ZM203.578,351.095C202.443,351.095 202.047,350.158 202.047,348.324L202.047,347.908C202.047,346.074 202.443,345.137 203.578,345.137L203.672,345.137C204.807,345.137 205.203,346.074 205.203,347.908L205.203,348.324C205.203,350.158 204.807,351.095 203.672,351.095L203.578,351.095Z" style="fill:#ecedf1;fill-rule:nonzero;"/>
        <path d="M210.505,352.314C212.557,352.314 213.328,351.449 213.328,349.626L213.328,344.054L211.932,344.054L211.932,349.574C211.932,350.647 211.547,351.095 210.505,351.095C209.453,351.095 209.068,350.647 209.068,349.574L209.068,344.054L207.672,344.054L207.672,349.626C207.672,351.449 208.443,352.314 210.505,352.314Z" style="fill:#ecedf1;fill-rule:nonzero;"/>
        <path d="M217.443,345.272L219.38,345.272L219.38,344.054L214.109,344.054L214.109,345.272L216.047,345.272L216.047,352.179L217.443,352.179L217.443,345.272Z" style="fill:#ecedf1;fill-rule:nonzero;"/>
        <path d="M76.232,229.258L77.43,229.258L77.346,227.696L77.346,225.696C77.346,224.404 76.826,223.602 75.107,223.602C73.346,223.602 72.867,224.54 72.867,225.467L72.867,225.56L74.159,225.56C74.159,225.081 74.326,224.654 75.076,224.654C75.773,224.654 75.992,224.998 75.992,225.696L75.992,225.717L74.586,225.935C73.513,226.092 72.659,226.467 72.659,227.665L72.659,227.769C72.659,228.654 73.159,229.394 74.326,229.394C75.148,229.394 75.742,229.071 76.128,228.623L76.232,229.258ZM74.794,228.279C74.242,228.279 74.013,227.946 74.013,227.602L74.013,227.519C74.013,227.092 74.263,226.821 74.836,226.727L75.992,226.54L75.992,227.706C75.815,227.946 75.43,228.279 74.794,228.279Z" style="fill:#ecedf1;fill-rule:nonzero;"/>
        <path d="M119.122,220.925L117.768,220.925L117.768,227.696L117.685,229.258L118.883,229.258L118.997,228.571C119.299,229.04 119.799,229.394 120.591,229.394C122.102,229.394 122.654,228.238 122.654,226.665L122.654,226.331C122.654,224.748 122.102,223.602 120.591,223.602C119.904,223.602 119.435,223.873 119.122,224.248L119.122,220.925ZM119.122,225.415C119.289,225.154 119.633,224.779 120.206,224.779C120.977,224.779 121.299,225.363 121.299,226.331L121.299,226.665C121.299,227.633 120.977,228.206 120.206,228.206C119.633,228.206 119.289,227.842 119.122,227.581L119.122,225.415Z" style="fill:#ecedf1;fill-rule:nonzero;"/>
        <path d="M164.102,226.665L164.102,226.331C164.102,225.373 164.424,224.779 165.216,224.779C165.883,224.779 166.195,225.196 166.195,225.842L167.477,225.842L167.477,225.613C167.477,224.498 166.747,223.602 165.185,223.602C163.487,223.602 162.747,224.748 162.747,226.331L162.747,226.665C162.747,228.238 163.487,229.394 165.185,229.394C166.747,229.394 167.477,228.519 167.477,227.467L167.477,227.248L166.195,227.248C166.195,227.79 165.904,228.206 165.216,228.206C164.424,228.206 164.102,227.613 164.102,226.665Z" style="fill:#ecedf1;fill-rule:nonzero;"/>
        <path d="M21.922,299.172L23.109,299.172L24.276,302.204L25.786,302.204L24.464,298.954C25.203,298.662 25.786,298.027 25.786,296.724L25.786,296.516C25.786,294.454 24.339,294.079 23.068,294.079L20.526,294.079L20.526,302.204L21.922,302.204L21.922,299.172ZM21.922,297.954L21.922,295.297L23.12,295.297C23.661,295.297 24.37,295.495 24.37,296.568L24.37,296.683C24.37,297.756 23.661,297.954 23.12,297.954L21.922,297.954Z" style="fill:#ecedf1;fill-rule:nonzero;"/>
        <path d="M29.672,302.339C31.724,302.339 32.495,301.474 32.495,299.652L32.495,294.079L31.099,294.079L31.099,299.599C31.099,300.672 30.714,301.12 29.672,301.12C28.62,301.12 28.234,300.672 28.234,299.599L28.234,294.079L26.839,294.079L26.839,299.652C26.839,301.474 27.609,302.339 29.672,302.339Z" style="fill:#ecedf1;fill-rule:nonzero;"/>
        <path d="M39.474,294.079L38.151,294.079L38.151,297.964L38.193,299.683L35.193,294.079L33.714,294.079L33.714,302.204L35.036,302.204L35.036,298.318L34.995,296.599L37.995,302.204L39.474,302.204L39.474,294.079Z" style="fill:#ecedf1;fill-rule:nonzero;"/>
        <path d="M196.896,299.172L198.083,299.172L199.25,302.204L200.76,302.204L199.437,298.954C200.177,298.662 200.76,298.027 200.76,296.724L200.76,296.516C200.76,294.454 199.312,294.079 198.042,294.079L195.5,294.079L195.5,302.204L196.896,302.204L196.896,299.172ZM196.896,297.954L196.896,295.297L198.094,295.297C198.635,295.297 199.344,295.495 199.344,296.568L199.344,296.683C199.344,297.756 198.635,297.954 198.094,297.954L196.896,297.954Z" style="fill:#ecedf1;fill-rule:nonzero;"/>
        <path d="M201.865,294.079L201.865,302.204L206.698,302.204L206.698,300.985L203.26,300.985L203.26,298.662L206.177,298.662L206.177,297.454L203.26,297.454L203.26,295.297L206.698,295.297L206.698,294.079L201.865,294.079Z" style="fill:#ecedf1;fill-rule:nonzero;"/>
        <path d="M210.135,298.662C211.375,298.829 211.771,299.204 211.771,299.912L211.771,299.974C211.771,300.652 211.271,301.12 210.396,301.12L210.302,301.12C209.427,301.12 208.896,300.62 208.896,299.464L207.5,299.464L207.5,299.568C207.5,301.433 208.49,302.339 210.354,302.339C212.167,302.339 213.198,301.443 213.198,299.922L213.198,299.808C213.198,298.381 212.354,297.745 210.583,297.506C209.302,297.329 209,296.954 209,296.287L209,296.224C209,295.589 209.5,295.162 210.271,295.162L210.365,295.162C211.333,295.162 211.729,295.704 211.729,296.922L213.125,296.922L213.125,296.683C213.125,294.849 212.281,293.943 210.354,293.943C208.594,293.943 207.573,294.86 207.573,296.297L207.573,296.402C207.573,297.745 208.365,298.422 210.135,298.662Z" style="fill:#ecedf1;fill-rule:nonzero;"/>
        <path d="M214.219,294.079L214.219,302.204L219.052,302.204L219.052,300.985L215.615,300.985L215.615,298.662L218.531,298.662L218.531,297.454L215.615,297.454L215.615,295.297L219.052,295.297L219.052,294.079L214.219,294.079Z" style="fill:#ecedf1;fill-rule:nonzero;"/>
        <path d="M223,295.297L224.937,295.297L224.937,294.079L219.667,294.079L219.667,295.297L221.604,295.297L221.604,302.204L223,302.204L223,295.297Z" style="fill:#ecedf1;fill-rule:nonzero;"/>
        <path d="M16,348.23L16,347.813C16,345.98 16.375,345.042 17.531,345.042L17.625,345.042C18.615,345.042 18.938,345.719 18.938,347.011L20.344,347.011L20.344,346.657C20.344,344.678 19.406,343.824 17.542,343.824C15.51,343.824 14.573,345.001 14.573,347.813L14.573,348.23C14.573,351.042 15.51,352.219 17.542,352.219C19.406,352.219 20.344,351.365 20.344,349.449L20.344,349.344L18.938,349.344C18.938,350.365 18.573,351.001 17.625,351.001L17.531,351.001C16.365,351.001 16,350.063 16,348.23Z" style="fill:#ecedf1;fill-rule:nonzero;"/>
        <path d="M25.948,352.084L25.948,350.865L22.813,350.865L22.813,343.959L21.417,343.959L21.417,352.084L25.948,352.084Z" style="fill:#ecedf1;fill-rule:nonzero;"/>
        <path d="M29.396,352.219C31.427,352.219 32.396,351.042 32.396,348.23L32.396,347.813C32.396,345.001 31.427,343.824 29.396,343.824C27.354,343.824 26.385,345.001 26.385,347.813L26.385,348.23C26.385,351.042 27.354,352.219 29.396,352.219ZM29.344,351.001C28.208,351.001 27.813,350.063 27.813,348.23L27.813,347.813C27.813,345.98 28.208,345.042 29.344,345.042L29.438,345.042C30.573,345.042 30.969,345.98 30.969,347.813L30.969,348.23C30.969,350.063 30.573,351.001 29.438,351.001L29.344,351.001Z" style="fill:#ecedf1;fill-rule:nonzero;"/>
        <path d="M34.74,348.23L34.74,347.813C34.74,345.98 35.115,345.042 36.271,345.042L36.365,345.042C37.354,345.042 37.677,345.719 37.677,347.011L39.083,347.011L39.083,346.657C39.083,344.678 38.146,343.824 36.281,343.824C34.25,343.824 33.313,345.001 33.313,347.813L33.313,348.23C33.313,351.042 34.25,352.219 36.281,352.219C38.146,352.219 39.083,351.365 39.083,349.449L39.083,349.344L37.677,349.344C37.677,350.365 37.313,351.001 36.365,351.001L36.271,351.001C35.104,351.001 34.74,350.063 34.74,348.23Z" style="fill:#ecedf1;fill-rule:nonzero;"/>
        <path d="M41.552,343.959L40.156,343.959L40.156,352.084L41.552,352.084L41.552,349.688L42.375,348.521L44.021,352.084L45.573,352.084L43.26,347.261L45.573,343.959L43.885,343.959L41.552,347.553L41.552,343.959Z" style="fill:#ecedf1;fill-rule:nonzero;"/>
        <path d="M101.279,6.507L99.579,19.507L104.246,19.507C106.312,19.507 108.912,19.04 109.246,15.64L109.279,15.307C109.412,13.973 108.979,13.24 108.212,12.79C108.912,12.34 109.429,11.657 109.579,10.557L109.629,10.19C110.079,6.923 107.846,6.507 105.862,6.507L101.279,6.507ZM105.012,14.24C105.529,14.24 106.179,14.39 106.079,15.407L106.062,15.59C105.962,16.607 105.196,16.773 104.679,16.773L103.096,16.773L103.429,14.24L105.012,14.24ZM105.462,9.24C105.962,9.24 106.496,9.373 106.412,10.29L106.396,10.473C106.312,11.373 105.629,11.507 105.162,11.507L103.796,11.507L104.096,9.24L105.462,9.24Z" style="fill:#ecedf1;fill-rule:nonzero;"/>
        <path d="M116.646,15.507L121.512,6.507L118.046,6.507L115.579,11.607L114.446,6.507L110.979,6.507L113.479,15.507L112.962,19.507L116.129,19.507L116.646,15.507Z" style="fill:#ecedf1;fill-rule:nonzero;"/>
        <path d="M127.562,9.24L130.479,9.24L130.829,6.507L121.829,6.507L121.479,9.24L124.396,9.24L123.046,19.507L126.212,19.507L127.562,9.24Z" style="fill:#ecedf1;fill-rule:nonzero;"/>
        <path d="M131.912,6.507L130.212,19.507L138.379,19.507L138.729,16.773L133.729,16.773L134.062,14.24L138.229,14.24L138.596,11.507L134.429,11.507L134.729,9.24L139.729,9.24L140.079,6.507L131.912,6.507Z" style="fill:#ecedf1;fill-rule:nonzero;"/>
        <path d="M16.25,226.706L16.25,226.29C16.25,224.456 16.625,223.519 17.781,223.519L17.875,223.519C18.865,223.519 19.187,224.196 19.187,225.488L20.594,225.488L20.594,225.133C20.594,223.154 19.656,222.3 17.792,222.3C15.76,222.3 14.823,223.477 14.823,226.29L14.823,226.706C14.823,229.519 15.76,230.696 17.792,230.696C19.656,230.696 20.594,229.842 20.594,227.925L20.594,227.821L19.187,227.821C19.187,228.842 18.823,229.477 17.875,229.477L17.781,229.477C16.615,229.477 16.25,228.54 16.25,226.706Z" style="fill:#ecedf1;fill-rule:nonzero;"/>
        <path d="M26.198,230.56L26.198,229.342L23.062,229.342L23.062,222.435L21.667,222.435L21.667,230.56L26.198,230.56Z" style="fill:#ecedf1;fill-rule:nonzero;"/>
        <path d="M29.646,230.696C31.677,230.696 32.646,229.519 32.646,226.706L32.646,226.29C32.646,223.477 31.677,222.3 29.646,222.3C27.604,222.3 26.635,223.477 26.635,226.29L26.635,226.706C26.635,229.519 27.604,230.696 29.646,230.696ZM29.594,229.477C28.458,229.477 28.062,228.54 28.062,226.706L28.062,226.29C28.062,224.456 28.458,223.519 29.594,223.519L29.687,223.519C30.823,223.519 31.219,224.456 31.219,226.29L31.219,226.706C31.219,228.54 30.823,229.477 29.687,229.477L29.594,229.477Z" style="fill:#ecedf1;fill-rule:nonzero;"/>
        <path d="M34.99,226.706L34.99,226.29C34.99,224.456 35.365,223.519 36.521,223.519L36.615,223.519C37.604,223.519 37.927,224.196 37.927,225.488L39.333,225.488L39.333,225.133C39.333,223.154 38.396,222.3 36.531,222.3C34.5,222.3 33.562,223.477 33.562,226.29L33.562,226.706C33.562,229.519 34.5,230.696 36.531,230.696C38.396,230.696 39.333,229.842 39.333,227.925L39.333,227.821L37.927,227.821C37.927,228.842 37.562,229.477 36.615,229.477L36.521,229.477C35.354,229.477 34.99,228.54 34.99,226.706Z" style="fill:#ecedf1;fill-rule:nonzero;"/>
        <path d="M41.802,222.435L40.406,222.435L40.406,230.56L41.802,230.56L41.802,228.165L42.625,226.998L44.271,230.56L45.823,230.56L43.51,225.738L45.823,222.435L44.135,222.435L41.802,226.029L41.802,222.435Z" style="fill:#ecedf1;fill-rule:nonzero;"/>
        <path d="M102.327,375.731C105.077,375.731 106.287,375.117 106.507,373.302L104.178,373.302C103.977,373.953 103.546,374.136 101.96,374.136L101.74,374.136C99.797,374.136 99.476,373.724 99.476,372.541L99.476,372.33C99.476,371.13 99.797,370.726 101.74,370.726L101.96,370.726C103.546,370.726 103.977,370.91 104.178,371.56L106.507,371.56C106.287,369.745 105.077,369.131 102.327,369.131L101.373,369.131C98.321,369.131 97.157,369.874 97.157,372.23L97.157,372.633C97.157,374.989 98.321,375.731 101.373,375.731L102.327,375.731Z" style="fill:#ecedf1;fill-rule:nonzero;"/>
        <path d="M115.133,374.127L109.724,374.127L109.724,373.183L115.133,373.183L115.133,371.67L109.724,371.67L109.724,370.735L115.133,370.735L115.133,369.223L107.451,369.223L107.451,375.64L115.133,375.64L115.133,374.127Z" style="fill:#ecedf1;fill-rule:nonzero;"/>
        <path d="M123.52,373.925L118.515,373.925L118.515,369.223L116.242,369.223L116.242,375.64L123.52,375.64L123.52,373.925Z" style="fill:#ecedf1;fill-rule:nonzero;"/>
        <path d="M131.596,373.925L126.591,373.925L126.591,369.223L124.318,369.223L124.318,375.64L131.596,375.64L131.596,373.925Z" style="fill:#ecedf1;fill-rule:nonzero;"/>
        <path d="M139.094,369.223L135.611,369.223L131.862,375.64L134.373,375.64L135.098,374.365L139.516,374.365L140.249,375.64L142.843,375.64L139.094,369.223ZM137.353,370.58L138.654,372.853L135.959,372.853L137.27,370.58L137.353,370.58Z" style="fill:#ecedf1;fill-rule:nonzero;"/>
        <g id="CTR">
            <circle id="Base" cx="165.004" cy="203.79" r="16.496" style="fill:none;"/>
            <path id="path89" d="M172.912,216.887C172.351,217.226 172.171,217.956 172.51,218.517C172.849,219.078 173.58,219.258 174.141,218.919C174.702,218.58 174.882,217.85 174.543,217.289C174.204,216.728 173.473,216.548 172.912,216.887Z" style="fill:#ecedf1;fill-rule:nonzero;"/>
            <path d="M157.145,216.929C157.708,217.265 157.892,217.994 157.556,218.557C157.22,219.12 156.49,219.304 155.927,218.968C155.365,218.632 155.181,217.902 155.517,217.339C155.853,216.777 156.582,216.593 157.145,216.929Z" style="fill:#ecedf1;fill-rule:nonzero;"/>
            <path d="M173.527,217.903C178.462,214.919 181.488,209.555 181.488,203.788C181.488,194.74 174.042,187.294 164.994,187.294C155.946,187.294 148.5,194.74 148.5,203.788C148.5,209.586 151.558,214.975 156.536,217.948" style="fill:none;fill-rule:nonzero;stroke:#ecedf1;stroke-width:0.79px;stroke-linecap:round;stroke-miterlimit:4;"/>
        </g>
        <g id="CTR1" serif:id="CTR">
            <circle id="Base1" serif:id="Base" cx="120.004" cy="203.79" r="16.496" style="fill:none;"/>
            <path id="path891" serif:id="path89" d="M127.912,216.887C127.351,217.226 127.171,217.956 127.51,218.517C127.849,219.078 128.58,219.258 129.141,218.919C129.702,218.58 129.882,217.85 129.543,217.289C129.204,216.728 128.473,216.548 127.912,216.887Z" style="fill:#ecedf1;fill-rule:nonzero;"/>
            <path d="M112.145,216.929C112.708,217.265 112.892,217.994 112.556,218.557C112.22,219.12 111.49,219.304 110.927,218.968C110.365,218.632 110.181,217.902 110.517,217.339C110.853,216.777 111.582,216.593 112.145,216.929Z" style="fill:#ecedf1;fill-rule:nonzero;"/>
            <path d="M128.527,217.903C133.462,214.919 136.488,209.555 136.488,203.788C136.488,194.74 129.042,187.294 119.994,187.294C110.946,187.294 103.5,194.74 103.5,203.788C103.5,209.586 106.558,214.975 111.536,217.948" style="fill:none;fill-rule:nonzero;stroke:#ecedf1;stroke-width:0.79px;stroke-linecap:round;stroke-miterlimit:4;"/>
        </g>
        <g id="CTR2" serif:id="CTR">
            <circle id="Base2" serif:id="Base" cx="75.004" cy="203.79" r="16.496" style="fill:none;"/>
            <path id="path892" serif:id="path89" d="M82.912,216.887C82.351,217.226 82.171,217.956 82.51,218.517C82.849,219.078 83.58,219.258 84.141,218.919C84.702,218.58 84.882,217.85 84.543,217.289C84.204,216.728 83.473,216.548 82.912,216.887Z" style="fill:#ecedf1;fill-rule:nonzero;"/>
            <path d="M67.145,216.929C67.708,217.265 67.892,217.994 67.556,218.557C67.22,219.12 66.49,219.304 65.927,218.968C65.365,218.632 65.181,217.902 65.517,217.339C65.853,216.777 66.582,216.593 67.145,216.929Z" style="fill:#ecedf1;fill-rule:nonzero;"/>
            <path d="M83.527,217.903C88.462,214.919 91.488,209.555 91.488,203.788C91.488,194.74 84.042,187.294 74.994,187.294C65.946,187.294 58.5,194.74 58.5,203.788C58.5,209.586 61.558,214.975 66.536,217.948" style="fill:none;fill-rule:nonzero;stroke:#ecedf1;stroke-width:0.79px;stroke-linecap:round;stroke-miterlimit:4;"/>
        </g>
        <g id="SMCTR">
            <path d="M164.988,280.1L164.988,252.593" style="fill:none;stroke:#ecedf1;stroke-width:0.83px;stroke-linecap:square;"/>
            <path id="line87" d="M164.997,242.74L164.997,240.008" style="fill:none;fill-rule:nonzero;stroke:#ecedf1;stroke-width:0.61px;stroke-linecap:round;stroke-miterlimit:4;"/>
            <path d="M154.467,262.295C154.813,262.68 155.406,262.712 155.791,262.366C156.176,262.02 156.207,261.427 155.861,261.042C155.516,260.657 154.922,260.626 154.538,260.972C154.153,261.317 154.121,261.911 154.467,262.295Z" style="fill:#ecedf1;"/>
            <path d="M175.509,262.295C175.163,262.68 174.569,262.712 174.185,262.366C173.8,262.02 173.768,261.427 174.114,261.042C174.46,260.657 175.053,260.626 175.438,260.972C175.823,261.317 175.854,261.911 175.509,262.295Z" style="fill:#ecedf1;"/>
            <path d="M155.164,261.669C153.062,259.33 151.783,256.237 151.783,252.848C151.783,245.56 157.7,239.643 164.988,239.643C172.276,239.643 178.193,245.56 178.193,252.848C178.193,256.237 176.913,259.33 174.811,261.669" style="fill:none;stroke:#ecedf1;stroke-width:0.63px;stroke-linecap:square;"/>
        </g>
        <g id="SMCTR1" serif:id="SMCTR">
            <path d="M75,280.1L75,252.593" style="fill:none;stroke:#ecedf1;stroke-width:0.83px;stroke-linecap:square;"/>
            <path id="line871" serif:id="line87" d="M75.009,242.74L75.009,240.008" style="fill:none;fill-rule:nonzero;stroke:#ecedf1;stroke-width:0.61px;stroke-linecap:round;stroke-miterlimit:4;"/>
            <path d="M64.479,262.295C64.825,262.68 65.418,262.712 65.803,262.366C66.188,262.02 66.22,261.427 65.874,261.042C65.528,260.657 64.935,260.626 64.55,260.972C64.165,261.317 64.133,261.911 64.479,262.295Z" style="fill:#ecedf1;"/>
            <path d="M85.521,262.295C85.175,262.68 84.582,262.712 84.197,262.366C83.812,262.02 83.78,261.427 84.126,261.042C84.472,260.657 85.065,260.626 85.45,260.972C85.835,261.317 85.867,261.911 85.521,262.295Z" style="fill:#ecedf1;"/>
            <path d="M65.176,261.669C63.075,259.33 61.795,256.237 61.795,252.848C61.795,245.56 67.712,239.643 75,239.643C82.288,239.643 88.205,245.56 88.205,252.848C88.205,256.237 86.925,259.33 84.824,261.669" style="fill:none;stroke:#ecedf1;stroke-width:0.63px;stroke-linecap:square;"/>
        </g>
        <g id="SMCTR2" serif:id="SMCTR">
            <path d="M120,280.1L120,252.593" style="fill:none;stroke:#ecedf1;stroke-width:0.83px;stroke-linecap:square;"/>
            <path id="line872" serif:id="line87" d="M120.009,242.74L120.009,240.008" style="fill:none;fill-rule:nonzero;stroke:#ecedf1;stroke-width:0.61px;stroke-linecap:round;stroke-miterlimit:4;"/>
            <path d="M109.479,262.295C109.825,262.68 110.418,262.712 110.803,262.366C111.188,262.02 111.22,261.427 110.874,261.042C110.528,260.657 109.935,260.626 109.55,260.972C109.165,261.317 109.133,261.911 109.479,262.295Z" style="fill:#ecedf1;"/>
            <path d="M130.521,262.295C130.175,262.68 129.582,262.712 129.197,262.366C128.812,262.02 128.78,261.427 129.126,261.042C129.472,260.657 130.065,260.626 130.45,260.972C130.835,261.317 130.867,261.911 130.521,262.295Z" style="fill:#ecedf1;"/>
            <path d="M110.176,261.669C108.075,259.33 106.795,256.237 106.795,252.848C106.795,245.56 112.712,239.643 120,239.643C127.288,239.643 133.205,245.56 133.205,252.848C133.205,256.237 131.925,259.33 129.824,261.669" style="fill:none;stroke:#ecedf1;stroke-width:0.63px;stroke-linecap:square;"/>
        </g>
    </g>
</svg>
