<?xml version="1.0" encoding="UTF-8" standalone="no"?>
<!DOCTYPE svg PUBLIC "-//W3C//DTD SVG 1.1//EN" "http://www.w3.org/Graphics/SVG/1.1/DTD/svg11.dtd">
<svg width="100%" height="100%" viewBox="0 0 240 380" version="1.1" xmlns="http://www.w3.org/2000/svg" xmlns:xlink="http://www.w3.org/1999/xlink" xml:space="preserve" xmlns:serif="http://www.serif.com/" style="fill-rule:evenodd;clip-rule:evenodd;stroke-linejoin:round;stroke-miterlimit:1.5;">
    <g id="Layer1">
        <rect x="-0" y="0" width="240" height="380" style="fill:#909090;"/>
        <path d="M225.75,317.759C225.75,316.214 224.495,314.959 222.95,314.959L197.05,314.959C195.505,314.959 194.25,316.214 194.25,317.759L194.25,352.159C194.25,353.705 195.505,354.959 197.05,354.959L222.95,354.959C224.495,354.959 225.75,353.705 225.75,352.159L225.75,317.759Z" style="fill:#ab5b87;"/>
        <path d="M0,25L240,25" style="fill:none;stroke:#ecedf1;stroke-width:0.83px;"/>
        <path d="M203.63,352.314C205.661,352.314 206.63,351.137 206.63,348.324L206.63,347.908C206.63,345.095 205.661,343.918 203.63,343.918C201.589,343.918 200.62,345.095 200.62,347.908L200.62,348.324C200.62,351.137 201.589,352.314 203.63,352.314ZM203.578,351.095C202.443,351.095 202.047,350.158 202.047,348.324L202.047,347.908C202.047,346.074 202.443,345.137 203.578,345.137L203.672,345.137C204.807,345.137 205.203,346.074 205.203,347.908L205.203,348.324C205.203,350.158 204.807,351.095 203.672,351.095L203.578,351.095Z" style="fill:#ecedf1;fill-rule:nonzero;"/>
        <path d="M210.505,352.314C212.557,352.314 213.328,351.449 213.328,349.626L213.328,344.054L211.932,344.054L211.932,349.574C211.932,350.647 211.547,351.095 210.505,351.095C209.453,351.095 209.068,350.647 209.068,349.574L209.068,344.054L207.672,344.054L207.672,349.626C207.672,351.449 208.443,352.314 210.505,352.314Z" style="fill:#ecedf1;fill-rule:nonzero;"/>
        <path d="M217.443,345.272L219.38,345.272L219.38,344.054L214.109,344.054L214.109,345.272L216.047,345.272L216.047,352.179L217.443,352.179L217.443,345.272Z" style="fill:#ecedf1;fill-rule:nonzero;"/>
        <path d="M117.37,293.959L117.37,302.084L119.964,302.084C121.297,302.084 122.63,301.646 122.63,299.803L122.63,299.594C122.63,298.667 122.151,298.167 121.516,297.896C122.047,297.626 122.422,297.157 122.422,296.355L122.422,296.146C122.422,294.365 121.151,293.959 119.859,293.959L117.37,293.959ZM120.016,298.532C120.62,298.532 121.214,298.803 121.214,299.646L121.214,299.761C121.214,300.594 120.62,300.865 120.016,300.865L118.766,300.865L118.766,298.532L120.016,298.532ZM119.859,295.178C120.443,295.178 121.005,295.396 121.005,296.178L121.005,296.313C121.005,297.094 120.443,297.313 119.859,297.313L118.766,297.313L118.766,295.178L119.859,295.178Z" style="fill:#ecedf1;fill-rule:nonzero;"/>
        <path d="M73.995,294.053L71.859,302.219L73.37,302.219L73.818,300.365L76.109,300.365L76.557,302.219L78.057,302.219L75.922,294.053L73.995,294.053ZM74.964,295.646L75.807,299.146L74.109,299.146L74.964,295.646Z" style="fill:#ecedf1;fill-rule:nonzero;"/>
        <path d="M16.026,298.349L16.026,297.933C16.026,296.099 16.401,295.162 17.557,295.162L17.651,295.162C18.641,295.162 18.964,295.839 18.964,297.131L20.37,297.131L20.37,296.777C20.37,294.797 19.432,293.943 17.568,293.943C15.536,293.943 14.599,295.12 14.599,297.933L14.599,298.349C14.599,301.162 15.536,302.339 17.568,302.339C19.432,302.339 20.37,301.485 20.37,299.568L20.37,299.464L18.964,299.464C18.964,300.485 18.599,301.12 17.651,301.12L17.557,301.12C16.391,301.12 16.026,300.183 16.026,298.349Z" style="fill:#ecedf1;fill-rule:nonzero;"/>
        <path d="M25.974,302.204L25.974,300.985L22.839,300.985L22.839,294.079L21.443,294.079L21.443,302.204L25.974,302.204Z" style="fill:#ecedf1;fill-rule:nonzero;"/>
        <path d="M29.422,302.339C31.453,302.339 32.422,301.162 32.422,298.349L32.422,297.933C32.422,295.12 31.453,293.943 29.422,293.943C27.38,293.943 26.411,295.12 26.411,297.933L26.411,298.349C26.411,301.162 27.38,302.339 29.422,302.339ZM29.37,301.12C28.234,301.12 27.839,300.183 27.839,298.349L27.839,297.933C27.839,296.099 28.234,295.162 29.37,295.162L29.464,295.162C30.599,295.162 30.995,296.099 30.995,297.933L30.995,298.349C30.995,300.183 30.599,301.12 29.464,301.12L29.37,301.12Z" style="fill:#ecedf1;fill-rule:nonzero;"/>
        <path d="M34.766,298.349L34.766,297.933C34.766,296.099 35.141,295.162 36.297,295.162L36.391,295.162C37.38,295.162 37.703,295.839 37.703,297.131L39.109,297.131L39.109,296.777C39.109,294.797 38.172,293.943 36.307,293.943C34.276,293.943 33.339,295.12 33.339,297.933L33.339,298.349C33.339,301.162 34.276,302.339 36.307,302.339C38.172,302.339 39.109,301.485 39.109,299.568L39.109,299.464L37.703,299.464C37.703,300.485 37.339,301.12 36.391,301.12L36.297,301.12C35.13,301.12 34.766,300.183 34.766,298.349Z" style="fill:#ecedf1;fill-rule:nonzero;"/>
        <path d="M41.578,294.079L40.182,294.079L40.182,302.204L41.578,302.204L41.578,299.808L42.401,298.641L44.047,302.204L45.599,302.204L43.286,297.381L45.599,294.079L43.911,294.079L41.578,297.672L41.578,294.079Z" style="fill:#ecedf1;fill-rule:nonzero;"/>
        <path d="M30.672,345.178L32.609,345.178L32.609,343.959L27.339,343.959L27.339,345.178L29.276,345.178L29.276,352.084L30.672,352.084L30.672,345.178Z" style="fill:#ecedf1;fill-rule:nonzero;"/>
        <path d="M101.279,6.507L99.579,19.507L104.246,19.507C106.312,19.507 108.912,19.04 109.246,15.64L109.279,15.307C109.412,13.973 108.979,13.24 108.212,12.79C108.912,12.34 109.429,11.657 109.579,10.557L109.629,10.19C110.079,6.923 107.846,6.507 105.862,6.507L101.279,6.507ZM105.012,14.24C105.529,14.24 106.179,14.39 106.079,15.407L106.062,15.59C105.962,16.607 105.196,16.773 104.679,16.773L103.096,16.773L103.429,14.24L105.012,14.24ZM105.462,9.24C105.962,9.24 106.496,9.373 106.412,10.29L106.396,10.473C106.312,11.373 105.629,11.507 105.162,11.507L103.796,11.507L104.096,9.24L105.462,9.24Z" style="fill:#ecedf1;fill-rule:nonzero;"/>
        <path d="M116.646,15.507L121.512,6.507L118.046,6.507L115.579,11.607L114.446,6.507L110.979,6.507L113.479,15.507L112.962,19.507L116.129,19.507L116.646,15.507Z" style="fill:#ecedf1;fill-rule:nonzero;"/>
        <path d="M127.562,9.24L130.479,9.24L130.829,6.507L121.829,6.507L121.479,9.24L124.396,9.24L123.046,19.507L126.212,19.507L127.562,9.24Z" style="fill:#ecedf1;fill-rule:nonzero;"/>
        <path d="M131.912,6.507L130.212,19.507L138.379,19.507L138.729,16.773L133.729,16.773L134.062,14.24L138.229,14.24L138.596,11.507L134.429,11.507L134.729,9.24L139.729,9.24L140.079,6.507L131.912,6.507Z" style="fill:#ecedf1;fill-rule:nonzero;"/>
        <path d="M102.327,375.731C105.077,375.731 106.287,375.117 106.507,373.302L104.178,373.302C103.977,373.953 103.546,374.136 101.96,374.136L101.74,374.136C99.797,374.136 99.476,373.724 99.476,372.541L99.476,372.33C99.476,371.13 99.797,370.726 101.74,370.726L101.96,370.726C103.546,370.726 103.977,370.91 104.178,371.56L106.507,371.56C106.287,369.745 105.077,369.131 102.327,369.131L101.373,369.131C98.321,369.131 97.157,369.874 97.157,372.23L97.157,372.633C97.157,374.989 98.321,375.731 101.373,375.731L102.327,375.731Z" style="fill:#ecedf1;fill-rule:nonzero;"/>
        <path d="M115.133,374.127L109.724,374.127L109.724,373.183L115.133,373.183L115.133,371.67L109.724,371.67L109.724,370.735L115.133,370.735L115.133,369.223L107.451,369.223L107.451,375.64L115.133,375.64L115.133,374.127Z" style="fill:#ecedf1;fill-rule:nonzero;"/>
        <path d="M123.52,373.925L118.515,373.925L118.515,369.223L116.242,369.223L116.242,375.64L123.52,375.64L123.52,373.925Z" style="fill:#ecedf1;fill-rule:nonzero;"/>
        <path d="M131.596,373.925L126.591,373.925L126.591,369.223L124.318,369.223L124.318,375.64L131.596,375.64L131.596,373.925Z" style="fill:#ecedf1;fill-rule:nonzero;"/>
        <path d="M139.094,369.223L135.611,369.223L131.862,375.64L134.373,375.64L135.098,374.365L139.516,374.365L140.249,375.64L142.843,375.64L139.094,369.223ZM137.353,370.58L138.654,372.853L135.959,372.853L137.27,370.58L137.353,370.58Z" style="fill:#ecedf1;fill-rule:nonzero;"/>
        <path d="M163.5,298.23L163.5,297.813C163.5,295.98 163.875,295.042 165.031,295.042L165.125,295.042C166.115,295.042 166.438,295.719 166.438,297.011L167.844,297.011L167.844,296.657C167.844,294.678 166.906,293.824 165.042,293.824C163.01,293.824 162.073,295.001 162.073,297.813L162.073,298.23C162.073,301.042 163.01,302.219 165.042,302.219C166.906,302.219 167.844,301.365 167.844,299.449L167.844,299.344L166.438,299.344C166.438,300.365 166.073,301.001 165.125,301.001L165.031,301.001C163.865,301.001 163.5,300.063 163.5,298.23Z" style="fill:#ecedf1;fill-rule:nonzero;"/>
    </g>
</svg>
