<?xml version="1.0" encoding="UTF-8" standalone="no"?>
<!DOCTYPE svg PUBLIC "-//W3C//DTD SVG 1.1//EN" "http://www.w3.org/Graphics/SVG/1.1/DTD/svg11.dtd">
<svg width="100%" height="100%" viewBox="0 0 180 380" version="1.1" xmlns="http://www.w3.org/2000/svg" xmlns:xlink="http://www.w3.org/1999/xlink" xml:space="preserve" xmlns:serif="http://www.serif.com/" style="fill-rule:evenodd;clip-rule:evenodd;stroke-linejoin:round;stroke-miterlimit:1.5;">
    <g id="Layer1">
        <rect x="-0" y="0" width="180" height="380" style="fill:#909090;"/>
        <path d="M173.25,317.8C173.25,316.255 171.995,315 170.45,315L144.55,315C143.005,315 141.75,316.255 141.75,317.8L141.75,352.2C141.75,353.745 143.005,355 144.55,355L170.45,355C171.995,355 173.25,353.745 173.25,352.2L173.25,317.8Z" style="fill:#ab5b87;"/>
        <path d="M0,25L180,25" style="fill:none;stroke:#ecedf1;stroke-width:0.83px;"/>
        <path d="M157.37,352.355C159.193,352.355 160.057,351.199 160.057,350.084L160.057,349.896C160.057,348.969 159.578,348.386 158.974,348.074C159.557,347.761 160.005,347.199 160.005,346.303L160.005,346.115C160.005,345.053 159.245,343.959 157.37,343.959C155.495,343.959 154.734,345.053 154.734,346.115L154.734,346.303C154.734,347.199 155.172,347.761 155.766,348.074C155.151,348.386 154.682,348.969 154.682,349.896L154.682,350.084C154.682,351.199 155.547,352.355 157.37,352.355ZM157.276,348.678L157.464,348.678C158.182,348.678 158.672,349.063 158.672,349.824L158.672,349.949C158.672,350.782 158.078,351.136 157.422,351.136L157.318,351.136C156.661,351.136 156.068,350.782 156.068,349.949L156.068,349.824C156.068,349.063 156.557,348.678 157.276,348.678ZM157.422,345.178C158.13,345.178 158.62,345.605 158.62,346.282L158.62,346.365C158.62,347.115 158.141,347.469 157.432,347.469L157.307,347.469C156.599,347.469 156.12,347.115 156.12,346.365L156.12,346.282C156.12,345.605 156.609,345.178 157.318,345.178L157.422,345.178Z" style="fill:#ecedf1;fill-rule:nonzero;"/>
        <path d="M128.25,317.8C128.25,316.255 126.995,315 125.45,315L99.55,315C98.005,315 96.75,316.255 96.75,317.8L96.75,352.2C96.75,353.745 98.005,355 99.55,355L125.45,355C126.995,355 128.25,353.745 128.25,352.2L128.25,317.8Z" style="fill:#ab5b87;"/>
        <path d="M38.531,268.65C38.531,267.105 37.277,265.85 35.731,265.85L9.831,265.85C8.286,265.85 7.031,267.105 7.031,268.65L7.031,303.05C7.031,304.595 8.286,305.85 9.831,305.85L35.731,305.85C37.277,305.85 38.531,304.595 38.531,303.05L38.531,268.65Z" style="fill:#ab5b87;"/>
        <path d="M38.531,219.12C38.531,217.575 37.277,216.32 35.731,216.32L9.831,216.32C8.286,216.32 7.031,217.575 7.031,219.12L7.031,253.22C7.031,254.765 8.286,256.02 9.831,256.02L35.731,256.02C37.277,256.02 38.531,254.765 38.531,253.22L38.531,219.12Z" style="fill:#ab5b87;"/>
        <path d="M83.25,219.12C83.25,217.575 81.995,216.32 80.45,216.32L54.55,216.32C53.005,216.32 51.75,217.575 51.75,219.12L51.75,253.22C51.75,254.765 53.005,256.02 54.55,256.02L80.45,256.02C81.995,256.02 83.25,254.765 83.25,253.22L83.25,219.12Z" style="fill:#ab5b87;"/>
        <path d="M128.25,219.12C128.25,217.575 126.995,216.32 125.45,216.32L99.55,216.32C98.005,216.32 96.75,217.575 96.75,219.12L96.75,253.22C96.75,254.765 98.005,256.02 99.55,256.02L125.45,256.02C126.995,256.02 128.25,254.765 128.25,253.22L128.25,219.12Z" style="fill:#ab5b87;"/>
        <path d="M173.25,219.12C173.25,217.575 171.995,216.32 170.45,216.32L144.55,216.32C143.005,216.32 141.75,217.575 141.75,219.12L141.75,253.22C141.75,254.765 143.005,256.02 144.55,256.02L170.45,256.02C171.995,256.02 173.25,254.765 173.25,253.22L173.25,219.12Z" style="fill:#ab5b87;"/>
        <path d="M109.786,347.146L111.005,347.146L111.005,345.449L112.589,345.449L113.63,345.428L110.755,352.355L112.224,352.355L115.182,345.084L115.182,344.23L109.786,344.23L109.786,347.146Z" style="fill:#ecedf1;fill-rule:nonzero;"/>
        <path d="M154.26,253.51L154.26,252.292L152.365,252.292L152.365,245.365L151.365,245.365L148.833,247.094L149.51,248.104L150.99,247.104L150.99,252.292L149.094,252.292L149.094,253.51L154.26,253.51Z" style="fill:#ecedf1;fill-rule:nonzero;"/>
        <rect x="155.115" y="249.271" width="4.375" height="1.188" style="fill:#ecedf1;fill-rule:nonzero;"/>
        <path d="M163.031,253.646C164.854,253.646 165.719,252.49 165.719,251.375L165.719,251.188C165.719,250.26 165.24,249.677 164.635,249.365C165.219,249.052 165.667,248.49 165.667,247.594L165.667,247.406C165.667,246.344 164.906,245.25 163.031,245.25C161.156,245.25 160.396,246.344 160.396,247.406L160.396,247.594C160.396,248.49 160.833,249.052 161.427,249.365C160.813,249.677 160.344,250.26 160.344,251.188L160.344,251.375C160.344,252.49 161.208,253.646 163.031,253.646ZM162.938,249.969L163.125,249.969C163.844,249.969 164.333,250.354 164.333,251.115L164.333,251.24C164.333,252.073 163.74,252.427 163.083,252.427L162.979,252.427C162.323,252.427 161.729,252.073 161.729,251.24L161.729,251.115C161.729,250.354 162.219,249.969 162.938,249.969ZM163.083,246.469C163.792,246.469 164.281,246.896 164.281,247.573L164.281,247.656C164.281,248.406 163.802,248.76 163.094,248.76L162.969,248.76C162.26,248.76 161.781,248.406 161.781,247.656L161.781,247.573C161.781,246.896 162.271,246.469 162.979,246.469L163.083,246.469Z" style="fill:#ecedf1;fill-rule:nonzero;"/>
        <path d="M60.464,250.906L59.089,250.906L59.089,251.042C59.089,252.677 59.974,253.646 61.776,253.646C63.599,253.646 64.464,252.479 64.464,251.365L64.464,251.177C64.464,250.25 63.995,249.667 63.38,249.365C63.964,249.063 64.411,248.5 64.411,247.604L64.411,247.417C64.411,246.354 63.651,245.25 61.776,245.25C59.974,245.25 59.141,246.156 59.141,247.875L59.141,248.094L60.516,248.094C60.516,246.906 60.953,246.469 61.724,246.469L61.828,246.469C62.536,246.469 63.026,246.906 63.026,247.583L63.026,247.677C63.026,248.417 62.547,248.76 61.839,248.76L60.734,248.76L60.734,249.969L61.87,249.969C62.589,249.969 63.078,250.344 63.078,251.104L63.078,251.229C63.078,252.063 62.484,252.427 61.828,252.427L61.724,252.427C60.984,252.427 60.464,252.01 60.464,250.906Z" style="fill:#ecedf1;fill-rule:nonzero;"/>
        <rect x="65.318" y="249.271" width="4.375" height="1.188" style="fill:#ecedf1;fill-rule:nonzero;"/>
        <path d="M75.536,245.25C74.005,245.25 72.609,245.635 71.714,246.833C70.849,247.99 70.568,249.271 70.568,250.563L70.568,250.698C70.568,252.5 71.578,253.646 73.255,253.646C74.974,253.646 75.932,252.698 75.932,251.052L75.932,250.948C75.932,249.313 74.984,248.396 73.609,248.396C73.005,248.396 72.526,248.594 72.151,248.885C72.286,248.406 72.495,247.979 72.786,247.604C73.422,246.813 74.37,246.49 75.536,246.49L75.536,245.25ZM73.276,249.604L73.328,249.604C74.047,249.604 74.557,250.021 74.557,250.906L74.557,251.104C74.557,251.948 74.016,252.427 73.286,252.427L73.224,252.427C72.516,252.427 71.943,251.854 71.943,250.802L71.943,250.396C72.224,249.885 72.734,249.604 73.276,249.604Z" style="fill:#ecedf1;fill-rule:nonzero;"/>
        <path d="M19.203,253.521L19.203,252.302L17.307,252.302L17.307,245.375L16.307,245.375L13.776,247.104L14.453,248.115L15.932,247.115L15.932,252.302L14.036,252.302L14.036,253.521L19.203,253.521Z" style="fill:#ecedf1;fill-rule:nonzero;"/>
        <rect x="20.057" y="249.281" width="4.375" height="1.188" style="fill:#ecedf1;fill-rule:nonzero;"/>
        <path d="M29.766,253.521L29.766,251.625L30.797,251.625L30.797,250.417L29.766,250.417L29.766,245.396L28.464,245.396L25.151,250.677L25.151,251.625L28.391,251.625L28.391,253.521L29.766,253.521ZM28.411,247.604L28.391,248.344L28.391,250.417L27.266,250.417L26.62,250.427L28.411,247.604Z" style="fill:#ecedf1;fill-rule:nonzero;"/>
        <path d="M147.667,180.153L149.229,180.153L150.75,176.903L152.292,180.153L153.844,180.153L151.75,175.923L153.844,172.028L152.219,172.028L150.76,174.955L149.292,172.028L147.667,172.028L149.76,175.934L147.667,180.153Z" style="fill:#ecedf1;fill-rule:nonzero;"/>
        <path d="M157.344,180.288C159.375,180.288 160.344,179.111 160.344,176.298L160.344,175.882C160.344,173.069 159.375,171.892 157.344,171.892C155.302,171.892 154.333,173.069 154.333,175.882L154.333,176.298C154.333,179.111 155.302,180.288 157.344,180.288ZM157.292,179.069C156.156,179.069 155.76,178.132 155.76,176.298L155.76,175.882C155.76,174.048 156.156,173.111 157.292,173.111L157.385,173.111C158.521,173.111 158.917,174.048 158.917,175.882L158.917,176.298C158.917,178.132 158.521,179.069 157.385,179.069L157.292,179.069Z" style="fill:#ecedf1;fill-rule:nonzero;"/>
        <path d="M162.833,177.121L164.021,177.121L165.188,180.153L166.698,180.153L165.375,176.903C166.115,176.611 166.698,175.975 166.698,174.673L166.698,174.465C166.698,172.403 165.25,172.028 163.979,172.028L161.438,172.028L161.438,180.153L162.833,180.153L162.833,177.121ZM162.833,175.903L162.833,173.246L164.031,173.246C164.573,173.246 165.281,173.444 165.281,174.517L165.281,174.632C165.281,175.705 164.573,175.903 164.031,175.903L162.833,175.903Z" style="fill:#ecedf1;fill-rule:nonzero;"/>
        <path d="M103.458,180.153L103.458,178.934L100.323,178.934L100.323,172.028L98.927,172.028L98.927,180.153L103.458,180.153Z" style="fill:#ecedf1;fill-rule:nonzero;"/>
        <path d="M106.906,180.288C108.938,180.288 109.906,179.111 109.906,176.298L109.906,175.882C109.906,173.069 108.938,171.892 106.906,171.892C104.865,171.892 103.896,173.069 103.896,175.882L103.896,176.298C103.896,179.111 104.865,180.288 106.906,180.288ZM106.854,179.069C105.719,179.069 105.323,178.132 105.323,176.298L105.323,175.882C105.323,174.048 105.719,173.111 106.854,173.111L106.948,173.111C108.083,173.111 108.479,174.048 108.479,175.882L108.479,176.298C108.479,178.132 108.083,179.069 106.948,179.069L106.854,179.069Z" style="fill:#ecedf1;fill-rule:nonzero;"/>
        <path d="M113.969,180.288C115.344,180.288 116.146,179.83 116.698,179.34L116.698,175.882L114.125,175.882L114.125,177.09L115.302,177.09L115.302,178.663C115.031,178.882 114.594,179.069 114.021,179.069L113.927,179.069C112.646,179.069 112.25,178.132 112.25,176.298L112.25,175.882C112.25,174.048 112.656,173.111 113.854,173.111L113.948,173.111C114.969,173.111 115.302,173.788 115.302,175.08L116.698,175.08L116.698,174.725C116.698,172.746 115.729,171.892 113.865,171.892C111.833,171.892 110.823,173.069 110.823,175.882L110.823,176.298C110.823,179.111 111.833,180.288 113.969,180.288Z" style="fill:#ecedf1;fill-rule:nonzero;"/>
        <rect x="117.969" y="172.028" width="1.396" height="8.125" style="fill:#ecedf1;fill-rule:nonzero;"/>
        <path d="M121.938,176.298L121.938,175.882C121.938,174.048 122.313,173.111 123.469,173.111L123.563,173.111C124.552,173.111 124.875,173.788 124.875,175.08L126.281,175.08L126.281,174.725C126.281,172.746 125.344,171.892 123.479,171.892C121.448,171.892 120.51,173.069 120.51,175.882L120.51,176.298C120.51,179.111 121.448,180.288 123.479,180.288C125.344,180.288 126.281,179.434 126.281,177.517L126.281,177.413L124.875,177.413C124.875,178.434 124.51,179.069 123.563,179.069L123.469,179.069C122.302,179.069 121.938,178.132 121.938,176.298Z" style="fill:#ecedf1;fill-rule:nonzero;"/>
        <path d="M8.271,176.298L8.271,175.882C8.271,174.048 8.646,173.111 9.802,173.111L9.896,173.111C10.885,173.111 11.208,173.788 11.208,175.08L12.615,175.08L12.615,174.725C12.615,172.746 11.677,171.892 9.813,171.892C7.781,171.892 6.844,173.069 6.844,175.882L6.844,176.298C6.844,179.111 7.781,180.288 9.813,180.288C11.677,180.288 12.615,179.434 12.615,177.517L12.615,177.413L11.208,177.413C11.208,178.434 10.844,179.069 9.896,179.069L9.802,179.069C8.635,179.069 8.271,178.132 8.271,176.298Z" style="fill:#ecedf1;fill-rule:nonzero;"/>
        <path d="M18.219,180.153L18.219,178.934L15.083,178.934L15.083,172.028L13.688,172.028L13.688,180.153L18.219,180.153Z" style="fill:#ecedf1;fill-rule:nonzero;"/>
        <path d="M21.667,180.288C23.698,180.288 24.667,179.111 24.667,176.298L24.667,175.882C24.667,173.069 23.698,171.892 21.667,171.892C19.625,171.892 18.656,173.069 18.656,175.882L18.656,176.298C18.656,179.111 19.625,180.288 21.667,180.288ZM21.615,179.069C20.479,179.069 20.083,178.132 20.083,176.298L20.083,175.882C20.083,174.048 20.479,173.111 21.615,173.111L21.708,173.111C22.844,173.111 23.24,174.048 23.24,175.882L23.24,176.298C23.24,178.132 22.844,179.069 21.708,179.069L21.615,179.069Z" style="fill:#ecedf1;fill-rule:nonzero;"/>
        <path d="M27.01,176.298L27.01,175.882C27.01,174.048 27.385,173.111 28.542,173.111L28.635,173.111C29.625,173.111 29.948,173.788 29.948,175.08L31.354,175.08L31.354,174.725C31.354,172.746 30.417,171.892 28.552,171.892C26.521,171.892 25.583,173.069 25.583,175.882L25.583,176.298C25.583,179.111 26.521,180.288 28.552,180.288C30.417,180.288 31.354,179.434 31.354,177.517L31.354,177.413L29.948,177.413C29.948,178.434 29.583,179.069 28.635,179.069L28.542,179.069C27.375,179.069 27.01,178.132 27.01,176.298Z" style="fill:#ecedf1;fill-rule:nonzero;"/>
        <path d="M33.823,172.028L32.427,172.028L32.427,180.153L33.823,180.153L33.823,177.757L34.646,176.59L36.292,180.153L37.844,180.153L35.531,175.33L37.844,172.028L36.156,172.028L33.823,175.621L33.823,172.028Z" style="fill:#ecedf1;fill-rule:nonzero;"/>
        <path d="M26.462,12.707C26.762,10.457 27.179,9.007 28.762,9.007L28.946,9.007C30.196,9.007 30.312,10.007 30.112,11.507L33.279,11.507L33.362,10.857C33.762,7.723 32.212,6.273 29.046,6.273C25.546,6.273 23.846,8.207 23.246,12.707L23.162,13.34C22.562,17.84 24.129,19.74 27.629,19.74C30.546,19.74 32.429,18.523 32.796,15.157L32.812,15.007L29.646,15.007C29.496,16.173 29.012,17.007 27.896,17.007L27.712,17.007C26.212,17.007 26.079,15.607 26.379,13.34L26.462,12.707Z" style="fill:#ecedf1;fill-rule:nonzero;"/>
        <path d="M40.046,6.273C36.546,6.273 34.846,8.207 34.246,12.707L34.162,13.34C33.562,17.84 35.129,19.74 38.629,19.74C42.129,19.74 43.812,17.807 44.412,13.307L44.496,12.673C45.096,8.173 43.546,6.273 40.046,6.273ZM38.712,17.007C37.212,17.007 37.079,15.607 37.379,13.34L37.462,12.707C37.762,10.44 38.262,9.007 39.762,9.007L39.946,9.007C41.446,9.007 41.579,10.407 41.279,12.673L41.196,13.307C40.896,15.573 40.396,17.007 38.896,17.007L38.712,17.007Z" style="fill:#ecedf1;fill-rule:nonzero;"/>
        <path d="M50.129,19.74C52.596,19.74 53.879,19.023 54.879,18.207L55.662,12.273L50.929,12.273L50.562,15.007L52.129,15.007L51.912,16.673C51.579,16.857 50.962,17.007 50.479,17.007L50.296,17.007C48.712,17.007 48.412,15.607 48.712,13.34L48.796,12.707C49.096,10.457 49.612,9.007 51.196,9.007L51.379,9.007C52.629,9.007 52.812,10.007 52.612,11.507L55.779,11.507L55.862,10.857C56.262,7.723 54.662,6.273 51.479,6.273C47.979,6.273 46.179,8.207 45.579,12.707L45.496,13.34C44.896,17.84 46.629,19.74 50.129,19.74Z" style="fill:#ecedf1;fill-rule:nonzero;"/>
        <path d="M67.846,6.507L64.846,6.507L64.229,11.173L63.996,13.673L61.346,6.507L58.012,6.507L56.312,19.507L59.312,19.507L59.912,14.84L60.162,12.34L62.812,19.507L66.146,19.507L67.846,6.507Z" style="fill:#ecedf1;fill-rule:nonzero;"/>
        <path d="M72.762,6.507L69.596,6.507L67.896,19.507L71.062,19.507L72.762,6.507Z" style="fill:#ecedf1;fill-rule:nonzero;"/>
        <path d="M79.662,9.24L82.579,9.24L82.929,6.507L73.929,6.507L73.579,9.24L76.496,9.24L75.146,19.507L78.312,19.507L79.662,9.24Z" style="fill:#ecedf1;fill-rule:nonzero;"/>
        <path d="M87.262,6.507L84.096,6.507L82.396,19.507L85.562,19.507L87.262,6.507Z" style="fill:#ecedf1;fill-rule:nonzero;"/>
        <path d="M94.062,19.507L98.862,6.507L95.462,6.507L92.362,15.84L91.712,6.507L88.329,6.507L89.729,19.507L94.062,19.507Z" style="fill:#ecedf1;fill-rule:nonzero;"/>
        <path d="M99.846,6.507L98.146,19.507L106.312,19.507L106.662,16.773L101.662,16.773L101.996,14.24L106.162,14.24L106.529,11.507L102.362,11.507L102.662,9.24L107.662,9.24L108.012,6.507L99.846,6.507Z" style="fill:#ecedf1;fill-rule:nonzero;"/>
        <path d="M115.746,14.273C117.512,14.507 117.829,15.023 117.762,15.673L117.746,15.84C117.679,16.473 117.196,17.007 116.112,17.007L115.946,17.007C114.862,17.007 114.379,16.44 114.562,15.007L111.396,15.007L111.362,15.273C110.979,18.29 112.612,19.74 115.779,19.74C118.846,19.74 120.679,18.44 120.946,15.99L120.979,15.69C121.262,13.207 120.029,12.107 117.246,11.723C115.529,11.49 115.246,11.04 115.312,10.34L115.329,10.173C115.396,9.523 115.929,9.007 116.846,9.007L117.012,9.007C118.179,9.007 118.512,9.707 118.312,11.173L121.479,11.173L121.529,10.773C121.896,7.807 120.546,6.273 117.296,6.273C114.046,6.273 112.362,7.84 112.112,10.14L112.079,10.44C111.812,12.79 112.962,13.907 115.746,14.273Z" style="fill:#ecedf1;fill-rule:nonzero;"/>
        <path d="M129.846,6.507L129.196,11.507L126.029,11.507L126.679,6.507L123.512,6.507L121.812,19.507L124.979,19.507L125.662,14.24L128.829,14.24L128.146,19.507L131.312,19.507L133.012,6.507L129.846,6.507Z" style="fill:#ecedf1;fill-rule:nonzero;"/>
        <path d="M137.929,6.507L134.762,6.507L133.062,19.507L136.229,19.507L137.929,6.507Z" style="fill:#ecedf1;fill-rule:nonzero;"/>
        <path d="M139.679,6.507L137.979,19.507L141.146,19.507L141.829,14.24L145.996,14.24L146.362,11.507L142.196,11.507L142.496,9.24L147.496,9.24L147.846,6.507L139.679,6.507Z" style="fill:#ecedf1;fill-rule:nonzero;"/>
        <path d="M154.162,9.24L157.079,9.24L157.429,6.507L148.429,6.507L148.079,9.24L150.996,9.24L149.646,19.507L152.812,19.507L154.162,9.24Z" style="fill:#ecedf1;fill-rule:nonzero;"/>
        <path d="M72.327,375.731C75.077,375.731 76.287,375.117 76.507,373.302L74.178,373.302C73.977,373.953 73.546,374.136 71.96,374.136L71.74,374.136C69.797,374.136 69.476,373.724 69.476,372.541L69.476,372.33C69.476,371.13 69.797,370.726 71.74,370.726L71.96,370.726C73.546,370.726 73.977,370.91 74.178,371.56L76.507,371.56C76.287,369.745 75.077,369.131 72.327,369.131L71.373,369.131C68.321,369.131 67.157,369.874 67.157,372.23L67.157,372.633C67.157,374.989 68.321,375.731 71.373,375.731L72.327,375.731Z" style="fill:#ecedf1;fill-rule:nonzero;"/>
        <path d="M85.133,374.127L79.724,374.127L79.724,373.183L85.133,373.183L85.133,371.67L79.724,371.67L79.724,370.735L85.133,370.735L85.133,369.223L77.451,369.223L77.451,375.64L85.133,375.64L85.133,374.127Z" style="fill:#ecedf1;fill-rule:nonzero;"/>
        <path d="M93.52,373.925L88.515,373.925L88.515,369.223L86.242,369.223L86.242,375.64L93.52,375.64L93.52,373.925Z" style="fill:#ecedf1;fill-rule:nonzero;"/>
        <path d="M101.596,373.925L96.591,373.925L96.591,369.223L94.318,369.223L94.318,375.64L101.596,375.64L101.596,373.925Z" style="fill:#ecedf1;fill-rule:nonzero;"/>
        <path d="M109.094,369.223L105.611,369.223L101.862,375.64L104.373,375.64L105.098,374.365L109.516,374.365L110.249,375.64L112.843,375.64L109.094,369.223ZM107.353,370.58L108.654,372.853L105.959,372.853L107.27,370.58L107.353,370.58Z" style="fill:#ecedf1;fill-rule:nonzero;"/>
        <path d="M18.302,352.261L20.115,352.261L21.51,344.094L20.052,344.094L19.125,350.386L17.844,344.094L16.083,344.094L14.812,350.386L13.885,344.094L12.427,344.094L13.823,352.261L15.625,352.261L16.969,345.678L18.302,352.261Z" style="fill:#ecedf1;fill-rule:nonzero;"/>
        <path d="M22.417,344.094L22.417,352.219L27.25,352.219L27.25,351.001L23.812,351.001L23.812,348.678L26.729,348.678L26.729,347.469L23.812,347.469L23.812,345.313L27.25,345.313L27.25,344.094L22.417,344.094Z" style="fill:#ecedf1;fill-rule:nonzero;"/>
        <path d="M31.198,345.313L33.135,345.313L33.135,344.094L27.865,344.094L27.865,345.313L29.802,345.313L29.802,352.219L31.198,352.219L31.198,345.313Z" style="fill:#ecedf1;fill-rule:nonzero;"/>
        <g id="SMCTR">
            <path d="M22.5,231.316L22.5,203.809" style="fill:none;stroke:#ecedf1;stroke-width:0.83px;stroke-linecap:square;"/>
            <path id="line87" d="M22.509,193.956L22.509,191.224" style="fill:none;fill-rule:nonzero;stroke:#ecedf1;stroke-width:0.61px;stroke-linecap:round;stroke-miterlimit:4;"/>
            <path d="M11.979,213.511C12.325,213.896 12.918,213.928 13.303,213.582C13.688,213.236 13.72,212.643 13.374,212.258C13.028,211.873 12.435,211.841 12.05,212.187C11.665,212.533 11.633,213.126 11.979,213.511Z" style="fill:#ecedf1;"/>
            <path d="M33.021,213.511C32.675,213.896 32.082,213.928 31.697,213.582C31.312,213.236 31.28,212.643 31.626,212.258C31.972,211.873 32.565,211.841 32.95,212.187C33.335,212.533 33.367,213.126 33.021,213.511Z" style="fill:#ecedf1;"/>
            <path d="M12.676,212.885C10.575,210.546 9.295,207.453 9.295,204.064C9.295,196.776 15.212,190.859 22.5,190.859C29.788,190.859 35.705,196.776 35.705,204.064C35.705,207.453 34.425,210.546 32.324,212.885" style="fill:none;stroke:#ecedf1;stroke-width:0.63px;stroke-linecap:square;"/>
        </g>
        <g id="SMCTR1" serif:id="SMCTR">
            <path d="M67.5,231.316L67.5,203.809" style="fill:none;stroke:#ecedf1;stroke-width:0.83px;stroke-linecap:square;"/>
            <path id="line871" serif:id="line87" d="M67.509,193.956L67.509,191.224" style="fill:none;fill-rule:nonzero;stroke:#ecedf1;stroke-width:0.61px;stroke-linecap:round;stroke-miterlimit:4;"/>
            <path d="M56.979,213.511C57.325,213.896 57.918,213.928 58.303,213.582C58.688,213.236 58.72,212.643 58.374,212.258C58.028,211.873 57.435,211.841 57.05,212.187C56.665,212.533 56.633,213.126 56.979,213.511Z" style="fill:#ecedf1;"/>
            <path d="M78.021,213.511C77.675,213.896 77.082,213.928 76.697,213.582C76.312,213.236 76.28,212.643 76.626,212.258C76.972,211.873 77.565,211.841 77.95,212.187C78.335,212.533 78.367,213.126 78.021,213.511Z" style="fill:#ecedf1;"/>
            <path d="M57.676,212.885C55.575,210.546 54.295,207.453 54.295,204.064C54.295,196.776 60.212,190.859 67.5,190.859C74.788,190.859 80.705,196.776 80.705,204.064C80.705,207.453 79.425,210.546 77.324,212.885" style="fill:none;stroke:#ecedf1;stroke-width:0.63px;stroke-linecap:square;"/>
        </g>
        <g id="SMCTR2" serif:id="SMCTR">
            <path id="line872" serif:id="line87" d="M112.509,93.974L112.509,91.242" style="fill:none;fill-rule:nonzero;stroke:#ecedf1;stroke-width:0.61px;stroke-linecap:round;stroke-miterlimit:4;"/>
            <path d="M101.979,113.529C102.325,113.914 102.918,113.946 103.303,113.6C103.688,113.254 103.72,112.661 103.374,112.276C103.028,111.891 102.435,111.859 102.05,112.205C101.665,112.551 101.633,113.144 101.979,113.529Z" style="fill:#ecedf1;"/>
            <path d="M123.021,113.529C122.675,113.914 122.082,113.946 121.697,113.6C121.312,113.254 121.28,112.661 121.626,112.276C121.972,111.891 122.565,111.859 122.95,112.205C123.335,112.551 123.367,113.144 123.021,113.529Z" style="fill:#ecedf1;"/>
            <path d="M102.676,112.903C100.575,110.564 99.295,107.471 99.295,104.082C99.295,96.794 105.212,90.877 112.5,90.877C119.788,90.877 125.705,96.794 125.705,104.082C125.705,107.471 124.425,110.564 122.324,112.903" style="fill:none;stroke:#ecedf1;stroke-width:0.63px;stroke-linecap:square;"/>
        </g>
        <g id="SMCTR3" serif:id="SMCTR">
            <path d="M157.5,231.316L157.5,203.809" style="fill:none;stroke:#ecedf1;stroke-width:0.83px;stroke-linecap:square;"/>
            <path id="line873" serif:id="line87" d="M157.509,193.956L157.509,191.224" style="fill:none;fill-rule:nonzero;stroke:#ecedf1;stroke-width:0.61px;stroke-linecap:round;stroke-miterlimit:4;"/>
            <path d="M146.979,213.511C147.325,213.896 147.918,213.928 148.303,213.582C148.688,213.236 148.72,212.643 148.374,212.258C148.028,211.873 147.435,211.841 147.05,212.187C146.665,212.533 146.633,213.126 146.979,213.511Z" style="fill:#ecedf1;"/>
            <path d="M168.021,213.511C167.675,213.896 167.082,213.928 166.697,213.582C166.312,213.236 166.28,212.643 166.626,212.258C166.972,211.873 167.565,211.841 167.95,212.187C168.335,212.533 168.367,213.126 168.021,213.511Z" style="fill:#ecedf1;"/>
            <path d="M147.676,212.885C145.575,210.546 144.295,207.453 144.295,204.064C144.295,196.776 150.212,190.859 157.5,190.859C164.788,190.859 170.705,196.776 170.705,204.064C170.705,207.453 169.425,210.546 167.324,212.885" style="fill:none;stroke:#ecedf1;stroke-width:0.63px;stroke-linecap:square;"/>
        </g>
        <path d="M25.286,303.081L25.286,301.862L23.391,301.862L23.391,294.935L22.391,294.935L19.859,296.664L20.536,297.675L22.016,296.675L22.016,301.862L20.12,301.862L20.12,303.081L25.286,303.081Z" style="fill:#ecedf1;fill-rule:nonzero;"/>
        <path d="M9.168,126.121L9.168,125.704C9.168,123.871 9.543,122.933 10.699,122.933L10.793,122.933C11.782,122.933 12.105,123.61 12.105,124.902L13.512,124.902L13.512,124.548C13.512,122.569 12.574,121.715 10.709,121.715C8.678,121.715 7.741,122.892 7.741,125.704L7.741,126.121C7.741,128.933 8.678,130.11 10.709,130.11C12.574,130.11 13.512,129.256 13.512,127.34L13.512,127.235L12.105,127.235C12.105,128.256 11.741,128.892 10.793,128.892L10.699,128.892C9.532,128.892 9.168,127.954 9.168,126.121Z" style="fill:#ecedf1;fill-rule:nonzero;"/>
        <path d="M19.116,129.975L19.116,128.756L15.98,128.756L15.98,121.85L14.584,121.85L14.584,129.975L19.116,129.975Z" style="fill:#ecedf1;fill-rule:nonzero;"/>
        <path d="M19.907,121.85L19.907,129.975L24.741,129.975L24.741,128.756L21.303,128.756L21.303,126.433L24.22,126.433L24.22,125.225L21.303,125.225L21.303,123.069L24.741,123.069L24.741,121.85L19.907,121.85Z" style="fill:#ecedf1;fill-rule:nonzero;"/>
        <path d="M27.48,121.808L25.345,129.975L26.855,129.975L27.303,128.121L29.595,128.121L30.043,129.975L31.543,129.975L29.407,121.808L27.48,121.808ZM28.449,123.402L29.293,126.902L27.595,126.902L28.449,123.402Z" style="fill:#ecedf1;fill-rule:nonzero;"/>
        <path d="M33.762,126.944L34.949,126.944L36.116,129.975L37.626,129.975L36.303,126.725C37.043,126.433 37.626,125.798 37.626,124.496L37.626,124.288C37.626,122.225 36.178,121.85 34.907,121.85L32.366,121.85L32.366,129.975L33.762,129.975L33.762,126.944ZM33.762,125.725L33.762,123.069L34.959,123.069C35.501,123.069 36.209,123.267 36.209,124.34L36.209,124.454C36.209,125.527 35.501,125.725 34.959,125.725L33.762,125.725Z" style="fill:#ecedf1;fill-rule:nonzero;"/>
        <path d="M70.193,123.069L72.13,123.069L72.13,121.85L66.859,121.85L66.859,123.069L68.797,123.069L68.797,129.975L70.193,129.975L70.193,123.069Z" style="fill:#ecedf1;fill-rule:nonzero;"/>
        <path d="M77.12,121.85L77.12,125.225L74.359,125.225L74.359,121.85L72.964,121.85L72.964,129.975L74.359,129.975L74.359,126.433L77.12,126.433L77.12,129.975L78.516,129.975L78.516,121.85L77.12,121.85Z" style="fill:#ecedf1;fill-rule:nonzero;"/>
        <path d="M81.182,126.944L82.37,126.944L83.536,129.975L85.047,129.975L83.724,126.725C84.464,126.433 85.047,125.798 85.047,124.496L85.047,124.288C85.047,122.225 83.599,121.85 82.328,121.85L79.786,121.85L79.786,129.975L81.182,129.975L81.182,126.944ZM81.182,125.725L81.182,123.069L82.38,123.069C82.922,123.069 83.63,123.267 83.63,124.34L83.63,124.454C83.63,125.527 82.922,125.725 82.38,125.725L81.182,125.725Z" style="fill:#ecedf1;fill-rule:nonzero;"/>
        <path d="M86.151,121.85L86.151,129.975L90.984,129.975L90.984,128.756L87.547,128.756L87.547,126.433L90.464,126.433L90.464,125.225L87.547,125.225L87.547,123.069L90.984,123.069L90.984,121.85L86.151,121.85Z" style="fill:#ecedf1;fill-rule:nonzero;"/>
        <path d="M94.422,126.433C95.661,126.6 96.057,126.975 96.057,127.683L96.057,127.746C96.057,128.423 95.557,128.892 94.682,128.892L94.589,128.892C93.714,128.892 93.182,128.392 93.182,127.235L91.786,127.235L91.786,127.34C91.786,129.204 92.776,130.11 94.641,130.11C96.453,130.11 97.484,129.215 97.484,127.694L97.484,127.579C97.484,126.152 96.641,125.517 94.87,125.277C93.589,125.1 93.286,124.725 93.286,124.058L93.286,123.996C93.286,123.36 93.786,122.933 94.557,122.933L94.651,122.933C95.62,122.933 96.016,123.475 96.016,124.694L97.411,124.694L97.411,124.454C97.411,122.621 96.568,121.715 94.641,121.715C92.88,121.715 91.859,122.631 91.859,124.069L91.859,124.173C91.859,125.517 92.651,126.194 94.422,126.433Z" style="fill:#ecedf1;fill-rule:nonzero;"/>
        <path d="M101.839,126.121L101.839,125.704C101.839,123.871 102.214,122.933 103.37,122.933L103.464,122.933C104.453,122.933 104.776,123.61 104.776,124.902L106.182,124.902L106.182,124.548C106.182,122.569 105.245,121.715 103.38,121.715C101.349,121.715 100.411,122.892 100.411,125.704L100.411,126.121C100.411,128.933 101.349,130.11 103.38,130.11C105.245,130.11 106.182,129.256 106.182,127.34L106.182,127.235L104.776,127.235C104.776,128.256 104.411,128.892 103.464,128.892L103.37,128.892C102.203,128.892 101.839,127.954 101.839,126.121Z" style="fill:#ecedf1;fill-rule:nonzero;"/>
        <path d="M110.745,130.017L112.88,121.85L111.38,121.85L109.786,128.423L108.182,121.85L106.682,121.85L108.818,130.017L110.745,130.017Z" style="fill:#ecedf1;fill-rule:nonzero;"/>
        <path d="M9.168,76.118L9.168,75.702C9.168,73.868 9.543,72.931 10.699,72.931L10.793,72.931C11.782,72.931 12.105,73.608 12.105,74.9L13.512,74.9L13.512,74.545C13.512,72.566 12.574,71.712 10.709,71.712C8.678,71.712 7.741,72.889 7.741,75.702L7.741,76.118C7.741,78.931 8.678,80.108 10.709,80.108C12.574,80.108 13.512,79.254 13.512,77.337L13.512,77.233L12.105,77.233C12.105,78.254 11.741,78.889 10.793,78.889L10.699,78.889C9.532,78.889 9.168,77.952 9.168,76.118Z" style="fill:#ecedf1;fill-rule:nonzero;"/>
        <path d="M19.116,79.973L19.116,78.754L15.98,78.754L15.98,71.848L14.584,71.848L14.584,79.973L19.116,79.973Z" style="fill:#ecedf1;fill-rule:nonzero;"/>
        <path d="M19.907,71.848L19.907,79.973L24.741,79.973L24.741,78.754L21.303,78.754L21.303,76.431L24.22,76.431L24.22,75.223L21.303,75.223L21.303,73.066L24.741,73.066L24.741,71.848L19.907,71.848Z" style="fill:#ecedf1;fill-rule:nonzero;"/>
        <path d="M27.48,71.806L25.345,79.973L26.855,79.973L27.303,78.118L29.595,78.118L30.043,79.973L31.543,79.973L29.407,71.806L27.48,71.806ZM28.449,73.4L29.293,76.9L27.595,76.9L28.449,73.4Z" style="fill:#ecedf1;fill-rule:nonzero;"/>
        <path d="M33.762,76.941L34.949,76.941L36.116,79.973L37.626,79.973L36.303,76.723C37.043,76.431 37.626,75.795 37.626,74.493L37.626,74.285C37.626,72.223 36.178,71.848 34.907,71.848L32.366,71.848L32.366,79.973L33.762,79.973L33.762,76.941ZM33.762,75.723L33.762,73.066L34.959,73.066C35.501,73.066 36.209,73.264 36.209,74.337L36.209,74.452C36.209,75.525 35.501,75.723 34.959,75.723L33.762,75.723Z" style="fill:#ecedf1;fill-rule:nonzero;"/>
        <path d="M58.678,79.879L60.491,79.879L61.887,71.712L60.428,71.712L59.501,78.004L58.22,71.712L56.459,71.712L55.189,78.004L54.262,71.712L52.803,71.712L54.199,79.879L56.001,79.879L57.345,73.295L58.678,79.879Z" style="fill:#ecedf1;fill-rule:nonzero;"/>
        <path d="M64.189,76.806L65.376,76.806L66.543,79.837L68.053,79.837L66.73,76.587C67.47,76.295 68.053,75.66 68.053,74.358L68.053,74.15C68.053,72.087 66.605,71.712 65.334,71.712L62.793,71.712L62.793,79.837L64.189,79.837L64.189,76.806ZM64.189,75.587L64.189,72.931L65.387,72.931C65.928,72.931 66.637,73.129 66.637,74.202L66.637,74.316C66.637,75.389 65.928,75.587 65.387,75.587L64.189,75.587Z" style="fill:#ecedf1;fill-rule:nonzero;"/>
        <rect x="69.209" y="71.712" width="1.396" height="8.125" style="fill:#ecedf1;fill-rule:nonzero;"/>
        <path d="M74.824,72.931L76.762,72.931L76.762,71.712L71.491,71.712L71.491,72.931L73.428,72.931L73.428,79.837L74.824,79.837L74.824,72.931Z" style="fill:#ecedf1;fill-rule:nonzero;"/>
        <path d="M77.595,71.712L77.595,79.837L82.428,79.837L82.428,78.618L78.991,78.618L78.991,76.295L81.907,76.295L81.907,75.087L78.991,75.087L78.991,72.931L82.428,72.931L82.428,71.712L77.595,71.712Z" style="fill:#ecedf1;fill-rule:nonzero;"/>
        <path d="M97.85,71.847L97.85,79.972L102.683,79.972L102.683,78.754L99.246,78.754L99.246,76.431L102.163,76.431L102.163,75.222L99.246,75.222L99.246,73.066L102.683,73.066L102.683,71.847L97.85,71.847Z" style="fill:#ecedf1;fill-rule:nonzero;"/>
        <path d="M105.131,76.941L106.319,76.941L107.485,79.972L108.996,79.972L107.673,76.722C108.413,76.431 108.996,75.795 108.996,74.493L108.996,74.285C108.996,72.222 107.548,71.847 106.277,71.847L103.735,71.847L103.735,79.972L105.131,79.972L105.131,76.941ZM105.131,75.722L105.131,73.066L106.329,73.066C106.871,73.066 107.579,73.264 107.579,74.337L107.579,74.452C107.579,75.525 106.871,75.722 106.329,75.722L105.131,75.722Z" style="fill:#ecedf1;fill-rule:nonzero;"/>
        <path d="M111.683,71.806L109.548,79.972L111.058,79.972L111.506,78.118L113.798,78.118L114.246,79.972L115.746,79.972L113.61,71.806L111.683,71.806ZM112.652,73.4L113.496,76.9L111.798,76.9L112.652,73.4Z" style="fill:#ecedf1;fill-rule:nonzero;"/>
        <path d="M118.829,76.431C120.069,76.597 120.465,76.972 120.465,77.681L120.465,77.743C120.465,78.42 119.965,78.889 119.09,78.889L118.996,78.889C118.121,78.889 117.59,78.389 117.59,77.233L116.194,77.233L116.194,77.337C116.194,79.202 117.183,80.108 119.048,80.108C120.86,80.108 121.892,79.212 121.892,77.691L121.892,77.577C121.892,76.15 121.048,75.514 119.277,75.275C117.996,75.097 117.694,74.722 117.694,74.056L117.694,73.993C117.694,73.358 118.194,72.931 118.965,72.931L119.058,72.931C120.027,72.931 120.423,73.472 120.423,74.691L121.819,74.691L121.819,74.452C121.819,72.618 120.975,71.712 119.048,71.712C117.288,71.712 116.267,72.629 116.267,74.066L116.267,74.17C116.267,75.514 117.058,76.191 118.829,76.431Z" style="fill:#ecedf1;fill-rule:nonzero;"/>
        <path d="M122.913,71.847L122.913,79.972L127.746,79.972L127.746,78.754L124.308,78.754L124.308,76.431L127.225,76.431L127.225,75.222L124.308,75.222L124.308,73.066L127.746,73.066L127.746,71.847L122.913,71.847Z" style="fill:#ecedf1;fill-rule:nonzero;"/>
        <path d="M147.751,71.712L147.751,79.837L152.584,79.837L152.584,78.618L149.147,78.618L149.147,76.295L152.064,76.295L152.064,75.087L149.147,75.087L149.147,72.931L152.584,72.931L152.584,71.712L147.751,71.712Z" style="fill:#ecedf1;fill-rule:nonzero;"/>
        <path d="M159.366,75.983L159.366,75.566C159.366,72.754 158.314,71.712 156.032,71.712L153.637,71.712L153.637,79.837L156.032,79.837C158.314,79.837 159.366,78.795 159.366,75.983ZM155.032,78.618L155.032,72.931L155.949,72.931C157.397,72.931 157.939,73.733 157.939,75.566L157.939,75.983C157.939,77.816 157.397,78.618 155.949,78.618L155.032,78.618Z" style="fill:#ecedf1;fill-rule:nonzero;"/>
        <rect x="160.512" y="71.712" width="1.396" height="8.125" style="fill:#ecedf1;fill-rule:nonzero;"/>
        <path d="M166.126,72.931L168.064,72.931L168.064,71.712L162.793,71.712L162.793,72.931L164.73,72.931L164.73,79.837L166.126,79.837L166.126,72.931Z" style="fill:#ecedf1;fill-rule:nonzero;"/>
        <path d="M61.656,176.205L61.656,175.788C61.656,172.975 60.604,171.934 58.323,171.934L55.927,171.934L55.927,180.059L58.323,180.059C60.604,180.059 61.656,179.017 61.656,176.205ZM57.323,178.84L57.323,173.153L58.24,173.153C59.687,173.153 60.229,173.955 60.229,175.788L60.229,176.205C60.229,178.038 59.687,178.84 58.24,178.84L57.323,178.84Z" style="fill:#ecedf1;fill-rule:nonzero;"/>
        <path d="M64.312,171.892L62.177,180.059L63.687,180.059L64.135,178.205L66.427,178.205L66.875,180.059L68.375,180.059L66.24,171.892L64.312,171.892ZM65.281,173.486L66.125,176.986L64.427,176.986L65.281,173.486Z" style="fill:#ecedf1;fill-rule:nonzero;"/>
        <path d="M71.552,173.153L73.49,173.153L73.49,171.934L68.219,171.934L68.219,173.153L70.156,173.153L70.156,180.059L71.552,180.059L71.552,173.153Z" style="fill:#ecedf1;fill-rule:nonzero;"/>
        <path d="M75.469,171.892L73.333,180.059L74.844,180.059L75.292,178.205L77.583,178.205L78.031,180.059L79.531,180.059L77.396,171.892L75.469,171.892ZM76.437,173.486L77.281,176.986L75.583,176.986L76.437,173.486Z" style="fill:#ecedf1;fill-rule:nonzero;"/>
        <path d="M83.25,317.8C83.25,316.255 81.995,315 80.45,315L54.55,315C53.005,315 51.75,316.255 51.75,317.8L51.75,352.2C51.75,353.745 53.005,355 54.55,355L80.45,355C81.995,355 83.25,353.745 83.25,352.2L83.25,317.8Z" style="fill:#ab5b87;"/>
        <path d="M38.531,317.8C38.531,316.255 37.277,315 35.731,315L9.831,315C8.286,315 7.031,316.255 7.031,317.8L7.031,352.2C7.031,353.745 8.286,355 9.831,355L35.731,355C37.277,355 38.531,353.745 38.531,352.2L38.531,317.8Z" style="fill:#ab5b87;"/>
        <path d="M69.766,343.959C68.234,343.959 66.839,344.344 65.943,345.542C65.078,346.699 64.797,347.98 64.797,349.271L64.797,349.407C64.797,351.209 65.807,352.355 67.484,352.355C69.203,352.355 70.161,351.407 70.161,349.761L70.161,349.657C70.161,348.021 69.214,347.105 67.839,347.105C67.234,347.105 66.755,347.303 66.38,347.594C66.516,347.115 66.724,346.688 67.016,346.313C67.651,345.521 68.599,345.199 69.766,345.199L69.766,343.959ZM67.505,348.313L67.557,348.313C68.276,348.313 68.786,348.73 68.786,349.615L68.786,349.813C68.786,350.657 68.245,351.136 67.516,351.136L67.453,351.136C66.745,351.136 66.172,350.563 66.172,349.511L66.172,349.105C66.453,348.594 66.964,348.313 67.505,348.313Z" style="fill:#ecedf1;fill-rule:nonzero;"/>
        <path d="M20.057,349.615L20.057,349.751C20.057,351.386 20.943,352.355 22.745,352.355C24.432,352.355 25.432,351.376 25.432,349.751L25.432,349.584C25.432,347.959 24.432,346.98 22.807,346.98C22.276,346.98 21.786,347.115 21.391,347.334L21.484,345.313L25.328,345.313L25.328,344.094L20.318,344.094L20.12,348.584L21.297,348.98C21.547,348.449 22.13,348.199 22.661,348.199L22.734,348.199C23.453,348.199 24.047,348.594 24.047,349.594L24.047,349.74C24.047,350.74 23.453,351.136 22.797,351.136L22.693,351.136C21.953,351.136 21.432,350.719 21.432,349.615L20.057,349.615Z" style="fill:#ecedf1;fill-rule:nonzero;"/>
        <path d="M104.089,250.906L104.089,251.042C104.089,252.677 104.974,253.646 106.776,253.646C108.464,253.646 109.464,252.667 109.464,251.042L109.464,250.875C109.464,249.25 108.464,248.271 106.839,248.271C106.307,248.271 105.818,248.406 105.422,248.625L105.516,246.604L109.359,246.604L109.359,245.385L104.349,245.385L104.151,249.875L105.328,250.271C105.578,249.74 106.161,249.49 106.693,249.49L106.766,249.49C107.484,249.49 108.078,249.885 108.078,250.885L108.078,251.031C108.078,252.031 107.484,252.427 106.828,252.427L106.724,252.427C105.984,252.427 105.464,252.01 105.464,250.906L104.089,250.906Z" style="fill:#ecedf1;fill-rule:nonzero;"/>
        <rect x="110.318" y="249.271" width="4.375" height="1.188" style="fill:#ecedf1;fill-rule:nonzero;"/>
        <path d="M118.234,253.646C120.057,253.646 120.922,252.49 120.922,251.375L120.922,251.188C120.922,250.26 120.443,249.677 119.839,249.365C120.422,249.052 120.87,248.49 120.87,247.594L120.87,247.406C120.87,246.344 120.109,245.25 118.234,245.25C116.359,245.25 115.599,246.344 115.599,247.406L115.599,247.594C115.599,248.49 116.036,249.052 116.63,249.365C116.016,249.677 115.547,250.26 115.547,251.188L115.547,251.375C115.547,252.49 116.411,253.646 118.234,253.646ZM118.141,249.969L118.328,249.969C119.047,249.969 119.536,250.354 119.536,251.115L119.536,251.24C119.536,252.073 118.943,252.427 118.286,252.427L118.182,252.427C117.526,252.427 116.932,252.073 116.932,251.24L116.932,251.115C116.932,250.354 117.422,249.969 118.141,249.969ZM118.286,246.469C118.995,246.469 119.484,246.896 119.484,247.573L119.484,247.656C119.484,248.406 119.005,248.76 118.297,248.76L118.172,248.76C117.464,248.76 116.984,248.406 116.984,247.656L116.984,247.573C116.984,246.896 117.474,246.469 118.182,246.469L118.286,246.469Z" style="fill:#ecedf1;fill-rule:nonzero;"/>
        <path d="M83.25,268.65C83.25,267.105 81.995,265.85 80.45,265.85L54.55,265.85C53.005,265.85 51.75,267.105 51.75,268.65L51.75,303.05C51.75,304.595 53.005,305.85 54.55,305.85L80.45,305.85C81.995,305.85 83.25,304.595 83.25,303.05L83.25,268.65Z" style="fill:#ab5b87;"/>
        <path d="M67.411,301.919L66.682,301.93L69.026,299.378C69.672,298.68 69.953,298.201 69.953,297.284L69.953,297.107C69.953,295.982 69.193,294.878 67.318,294.878C65.516,294.878 64.682,295.784 64.682,297.503L64.682,297.721L66.057,297.721C66.057,296.534 66.505,296.096 67.276,296.096L67.359,296.096C68.068,296.096 68.568,296.534 68.568,297.357L68.568,297.461C68.568,297.951 68.38,298.263 67.943,298.732L64.682,302.274L64.682,303.138L69.953,303.138L69.953,301.919L67.411,301.919Z" style="fill:#ecedf1;fill-rule:nonzero;"/>
        <path d="M128.25,268.65C128.25,267.105 126.995,265.85 125.45,265.85L99.55,265.85C98.005,265.85 96.75,267.105 96.75,268.65L96.75,303.05C96.75,304.595 98.005,305.85 99.55,305.85L125.45,305.85C126.995,305.85 128.25,304.595 128.25,303.05L128.25,268.65Z" style="fill:#ab5b87;"/>
        <path d="M111.005,300.466L109.63,300.466L109.63,300.602C109.63,302.237 110.516,303.206 112.318,303.206C114.141,303.206 115.005,302.039 115.005,300.925L115.005,300.737C115.005,299.81 114.536,299.227 113.922,298.925C114.505,298.623 114.953,298.06 114.953,297.164L114.953,296.977C114.953,295.914 114.193,294.81 112.318,294.81C110.516,294.81 109.682,295.716 109.682,297.435L109.682,297.654L111.057,297.654C111.057,296.466 111.495,296.029 112.266,296.029L112.37,296.029C113.078,296.029 113.568,296.466 113.568,297.143L113.568,297.237C113.568,297.977 113.089,298.32 112.38,298.32L111.276,298.32L111.276,299.529L112.411,299.529C113.13,299.529 113.62,299.904 113.62,300.664L113.62,300.789C113.62,301.623 113.026,301.987 112.37,301.987L112.266,301.987C111.526,301.987 111.005,301.57 111.005,300.466Z" style="fill:#ecedf1;fill-rule:nonzero;"/>
        <path d="M173.25,268.65C173.25,267.105 171.995,265.85 170.45,265.85L144.55,265.85C143.005,265.85 141.75,267.105 141.75,268.65L141.75,303.05C141.75,304.595 143.005,305.85 144.55,305.85L170.45,305.85C171.995,305.85 173.25,304.595 173.25,303.05L173.25,268.65Z" style="fill:#ab5b87;"/>
        <path d="M159.109,303.07L159.109,301.175L160.141,301.175L160.141,299.966L159.109,299.966L159.109,294.945L157.807,294.945L154.495,300.227L154.495,301.175L157.734,301.175L157.734,303.07L159.109,303.07ZM157.755,297.154L157.734,297.893L157.734,299.966L156.609,299.966L155.964,299.977L157.755,297.154Z" style="fill:#ecedf1;fill-rule:nonzero;"/>
        <g id="SMCTR4" serif:id="SMCTR">
            <path d="M112.5,231.316L112.5,203.809" style="fill:none;stroke:#ecedf1;stroke-width:0.83px;stroke-linecap:square;"/>
            <path id="line874" serif:id="line87" d="M112.509,193.956L112.509,191.224" style="fill:none;fill-rule:nonzero;stroke:#ecedf1;stroke-width:0.61px;stroke-linecap:round;stroke-miterlimit:4;"/>
            <path d="M101.979,213.511C102.325,213.896 102.918,213.928 103.303,213.582C103.688,213.236 103.72,212.643 103.374,212.258C103.028,211.873 102.435,211.841 102.05,212.187C101.665,212.533 101.633,213.126 101.979,213.511Z" style="fill:#ecedf1;"/>
            <path d="M123.021,213.511C122.675,213.896 122.082,213.928 121.697,213.582C121.312,213.236 121.28,212.643 121.626,212.258C121.972,211.873 122.565,211.841 122.95,212.187C123.335,212.533 123.367,213.126 123.021,213.511Z" style="fill:#ecedf1;"/>
            <path d="M102.676,212.885C100.575,210.546 99.295,207.453 99.295,204.064C99.295,196.776 105.212,190.859 112.5,190.859C119.788,190.859 125.705,196.776 125.705,204.064C125.705,207.453 124.425,210.546 122.324,212.885" style="fill:none;stroke:#ecedf1;stroke-width:0.63px;stroke-linecap:square;"/>
        </g>
        <path d="M71.788,103.496L99.295,103.496" style="fill:none;stroke:#ecedf1;stroke-width:0.83px;stroke-linecap:square;"/>
        <circle id="Base" cx="157.504" cy="103.386" r="16.496" style="fill:none;"/>
        <g id="CTR">
            <circle id="Base1" serif:id="Base" cx="157.504" cy="103.502" r="16.496" style="fill:none;"/>
            <path id="path89" d="M165.412,116.599C164.851,116.938 164.671,117.668 165.01,118.229C165.349,118.79 166.08,118.97 166.641,118.631C167.202,118.292 167.382,117.561 167.043,117.001C166.704,116.44 165.973,116.26 165.412,116.599Z" style="fill:#ecedf1;fill-rule:nonzero;"/>
            <path d="M149.645,116.641C150.208,116.977 150.392,117.706 150.056,118.269C149.72,118.832 148.99,119.016 148.427,118.68C147.865,118.344 147.681,117.614 148.017,117.051C148.353,116.489 149.082,116.305 149.645,116.641Z" style="fill:#ecedf1;fill-rule:nonzero;"/>
            <path d="M166.027,117.615C170.962,114.631 173.988,109.267 173.988,103.5C173.988,94.452 166.542,87.006 157.494,87.006C148.446,87.006 141,94.452 141,103.5C141,109.298 144.058,114.687 149.036,117.66" style="fill:none;fill-rule:nonzero;stroke:#ecedf1;stroke-width:0.79px;stroke-linecap:round;stroke-miterlimit:4;"/>
        </g>
        <path d="M145.616,123.069L147.553,123.069L147.553,121.85L142.282,121.85L142.282,123.069L144.22,123.069L144.22,129.975L145.616,129.975L145.616,123.069Z" style="fill:#ecedf1;fill-rule:nonzero;"/>
        <path d="M152.543,121.85L152.543,125.225L149.782,125.225L149.782,121.85L148.387,121.85L148.387,129.975L149.782,129.975L149.782,126.433L152.543,126.433L152.543,129.975L153.939,129.975L153.939,121.85L152.543,121.85Z" style="fill:#ecedf1;fill-rule:nonzero;"/>
        <path d="M156.605,126.944L157.793,126.944L158.959,129.975L160.47,129.975L159.147,126.725C159.887,126.433 160.47,125.798 160.47,124.496L160.47,124.288C160.47,122.225 159.022,121.85 157.751,121.85L155.209,121.85L155.209,129.975L156.605,129.975L156.605,126.944ZM156.605,125.725L156.605,123.069L157.803,123.069C158.345,123.069 159.053,123.267 159.053,124.34L159.053,124.454C159.053,125.527 158.345,125.725 157.803,125.725L156.605,125.725Z" style="fill:#ecedf1;fill-rule:nonzero;"/>
        <path d="M161.574,121.85L161.574,129.975L166.407,129.975L166.407,128.756L162.97,128.756L162.97,126.433L165.887,126.433L165.887,125.225L162.97,125.225L162.97,123.069L166.407,123.069L166.407,121.85L161.574,121.85Z" style="fill:#ecedf1;fill-rule:nonzero;"/>
        <path d="M169.845,126.433C171.084,126.6 171.48,126.975 171.48,127.683L171.48,127.746C171.48,128.423 170.98,128.892 170.105,128.892L170.012,128.892C169.137,128.892 168.605,128.392 168.605,127.235L167.209,127.235L167.209,127.34C167.209,129.204 168.199,130.11 170.064,130.11C171.876,130.11 172.907,129.215 172.907,127.694L172.907,127.579C172.907,126.152 172.064,125.517 170.293,125.277C169.012,125.1 168.709,124.725 168.709,124.058L168.709,123.996C168.709,123.36 169.209,122.933 169.98,122.933L170.074,122.933C171.043,122.933 171.439,123.475 171.439,124.694L172.834,124.694L172.834,124.454C172.834,122.621 171.991,121.715 170.064,121.715C168.303,121.715 167.282,122.631 167.282,124.069L167.282,124.173C167.282,125.517 168.074,126.194 169.845,126.433Z" style="fill:#ecedf1;fill-rule:nonzero;"/>
    </g>
</svg>
