<?xml version="1.0" encoding="UTF-8" standalone="no"?>
<!DOCTYPE svg PUBLIC "-//W3C//DTD SVG 1.1//EN" "http://www.w3.org/Graphics/SVG/1.1/DTD/svg11.dtd">
<svg width="100%" height="100%" viewBox="0 0 180 380" version="1.1" xmlns="http://www.w3.org/2000/svg" xmlns:xlink="http://www.w3.org/1999/xlink" xml:space="preserve" xmlns:serif="http://www.serif.com/" style="fill-rule:evenodd;clip-rule:evenodd;stroke-linejoin:round;stroke-miterlimit:1.5;">
    <g id="Layer1">
        <rect x="-0" y="0" width="180" height="380" style="fill:#909090;"/>
        <path d="M173.25,317.8C173.25,316.255 171.995,315 170.45,315L144.55,315C143.005,315 141.75,316.255 141.75,317.8L141.75,352.2C141.75,353.745 143.005,355 144.55,355L170.45,355C171.995,355 173.25,353.745 173.25,352.2L173.25,317.8Z" style="fill:#ab5b87;"/>
        <path d="M0,25L180,25" style="fill:none;stroke:#ecedf1;stroke-width:0.83px;"/>
        <path d="M157.37,352.355C159.193,352.355 160.057,351.199 160.057,350.084L160.057,349.896C160.057,348.969 159.578,348.386 158.974,348.074C159.557,347.761 160.005,347.199 160.005,346.303L160.005,346.115C160.005,345.053 159.245,343.959 157.37,343.959C155.495,343.959 154.734,345.053 154.734,346.115L154.734,346.303C154.734,347.199 155.172,347.761 155.766,348.074C155.151,348.386 154.682,348.969 154.682,349.896L154.682,350.084C154.682,351.199 155.547,352.355 157.37,352.355ZM157.276,348.678L157.464,348.678C158.182,348.678 158.672,349.063 158.672,349.824L158.672,349.949C158.672,350.782 158.078,351.136 157.422,351.136L157.318,351.136C156.661,351.136 156.068,350.782 156.068,349.949L156.068,349.824C156.068,349.063 156.557,348.678 157.276,348.678ZM157.422,345.178C158.13,345.178 158.62,345.605 158.62,346.282L158.62,346.365C158.62,347.115 158.141,347.469 157.432,347.469L157.307,347.469C156.599,347.469 156.12,347.115 156.12,346.365L156.12,346.282C156.12,345.605 156.609,345.178 157.318,345.178L157.422,345.178Z" style="fill:#ecedf1;fill-rule:nonzero;"/>
        <path d="M128.25,317.8C128.25,316.255 126.995,315 125.45,315L99.55,315C98.005,315 96.75,316.255 96.75,317.8L96.75,352.2C96.75,353.745 98.005,355 99.55,355L125.45,355C126.995,355 128.25,353.745 128.25,352.2L128.25,317.8Z" style="fill:#ab5b87;"/>
        <path d="M38.531,267.204C38.531,265.659 37.277,264.404 35.731,264.404L9.831,264.404C8.286,264.404 7.031,265.659 7.031,267.204L7.031,301.604C7.031,303.149 8.286,304.404 9.831,304.404L35.731,304.404C37.277,304.404 38.531,303.149 38.531,301.604L38.531,267.204Z" style="fill:#ab5b87;"/>
        <path d="M38.531,219.183C38.531,217.637 37.277,216.383 35.731,216.383L9.831,216.383C8.286,216.383 7.031,217.637 7.031,219.183L7.031,252.396C7.031,253.941 8.286,255.196 9.831,255.196L35.731,255.196C37.277,255.196 38.531,253.941 38.531,252.396L38.531,219.183Z" style="fill:#ab5b87;"/>
        <path d="M83.25,219.183C83.25,217.637 81.995,216.383 80.45,216.383L54.55,216.383C53.005,216.383 51.75,217.637 51.75,219.183L51.75,252.396C51.75,253.941 53.005,255.196 54.55,255.196L80.45,255.196C81.995,255.196 83.25,253.941 83.25,252.396L83.25,219.183Z" style="fill:#ab5b87;"/>
        <path d="M128.25,219.183C128.25,217.637 126.995,216.383 125.45,216.383L99.55,216.383C98.005,216.383 96.75,217.637 96.75,219.183L96.75,252.396C96.75,253.941 98.005,255.196 99.55,255.196L125.45,255.196C126.995,255.196 128.25,253.941 128.25,252.396L128.25,219.183Z" style="fill:#ab5b87;"/>
        <path d="M173.25,219.183C173.25,217.637 171.995,216.383 170.45,216.383L144.55,216.383C143.005,216.383 141.75,217.637 141.75,219.183L141.75,252.396C141.75,253.941 143.005,255.196 144.55,255.196L170.45,255.196C171.995,255.196 173.25,253.941 173.25,252.396L173.25,219.183Z" style="fill:#ab5b87;"/>
        <path d="M173.25,141.186C173.25,139.64 171.995,138.386 170.45,138.386L144.55,138.386C143.005,138.386 141.75,139.64 141.75,141.186L141.75,179.002C141.75,180.547 143.005,181.802 144.55,181.802L170.45,181.802C171.995,181.802 173.25,180.547 173.25,179.002L173.25,141.186Z" style="fill:#ab5b87;"/>
        <path d="M109.786,347.011L111.005,347.011L111.005,345.313L112.589,345.313L113.63,345.292L110.755,352.219L112.224,352.219L115.182,344.949L115.182,344.094L109.786,344.094L109.786,347.011Z" style="fill:#ecedf1;fill-rule:nonzero;"/>
        <path d="M154.26,253.336L154.26,252.118L152.365,252.118L152.365,245.191L151.365,245.191L148.833,246.92L149.51,247.93L150.99,246.93L150.99,252.118L149.094,252.118L149.094,253.336L154.26,253.336Z" style="fill:#ecedf1;fill-rule:nonzero;"/>
        <rect x="155.115" y="249.097" width="4.375" height="1.188" style="fill:#ecedf1;fill-rule:nonzero;"/>
        <path d="M163.031,253.472C164.854,253.472 165.719,252.316 165.719,251.201L165.719,251.013C165.719,250.086 165.24,249.503 164.635,249.191C165.219,248.878 165.667,248.316 165.667,247.42L165.667,247.232C165.667,246.17 164.906,245.076 163.031,245.076C161.156,245.076 160.396,246.17 160.396,247.232L160.396,247.42C160.396,248.316 160.833,248.878 161.427,249.191C160.813,249.503 160.344,250.086 160.344,251.013L160.344,251.201C160.344,252.316 161.208,253.472 163.031,253.472ZM162.938,249.795L163.125,249.795C163.844,249.795 164.333,250.18 164.333,250.941L164.333,251.066C164.333,251.899 163.74,252.253 163.083,252.253L162.979,252.253C162.323,252.253 161.729,251.899 161.729,251.066L161.729,250.941C161.729,250.18 162.219,249.795 162.938,249.795ZM163.083,246.295C163.792,246.295 164.281,246.722 164.281,247.399L164.281,247.482C164.281,248.232 163.802,248.586 163.094,248.586L162.969,248.586C162.26,248.586 161.781,248.232 161.781,247.482L161.781,247.399C161.781,246.722 162.271,246.295 162.979,246.295L163.083,246.295Z" style="fill:#ecedf1;fill-rule:nonzero;"/>
        <path d="M60.464,250.597L59.089,250.597L59.089,250.732C59.089,252.368 59.974,253.336 61.776,253.336C63.599,253.336 64.464,252.17 64.464,251.055L64.464,250.868C64.464,249.941 63.995,249.357 63.38,249.055C63.964,248.753 64.411,248.191 64.411,247.295L64.411,247.107C64.411,246.045 63.651,244.941 61.776,244.941C59.974,244.941 59.141,245.847 59.141,247.566L59.141,247.784L60.516,247.784C60.516,246.597 60.953,246.159 61.724,246.159L61.828,246.159C62.536,246.159 63.026,246.597 63.026,247.274L63.026,247.368C63.026,248.107 62.547,248.451 61.839,248.451L60.734,248.451L60.734,249.659L61.87,249.659C62.589,249.659 63.078,250.034 63.078,250.795L63.078,250.92C63.078,251.753 62.484,252.118 61.828,252.118L61.724,252.118C60.984,252.118 60.464,251.701 60.464,250.597Z" style="fill:#ecedf1;fill-rule:nonzero;"/>
        <rect x="65.318" y="248.961" width="4.375" height="1.188" style="fill:#ecedf1;fill-rule:nonzero;"/>
        <path d="M75.536,244.941C74.005,244.941 72.609,245.326 71.714,246.524C70.849,247.68 70.568,248.961 70.568,250.253L70.568,250.388C70.568,252.191 71.578,253.336 73.255,253.336C74.974,253.336 75.932,252.388 75.932,250.743L75.932,250.638C75.932,249.003 74.984,248.086 73.609,248.086C73.005,248.086 72.526,248.284 72.151,248.576C72.286,248.097 72.495,247.67 72.786,247.295C73.422,246.503 74.37,246.18 75.536,246.18L75.536,244.941ZM73.276,249.295L73.328,249.295C74.047,249.295 74.557,249.711 74.557,250.597L74.557,250.795C74.557,251.638 74.016,252.118 73.286,252.118L73.224,252.118C72.516,252.118 71.943,251.545 71.943,250.493L71.943,250.086C72.224,249.576 72.734,249.295 73.276,249.295Z" style="fill:#ecedf1;fill-rule:nonzero;"/>
        <path d="M19.203,252.413L19.203,251.194L17.307,251.194L17.307,244.267L16.307,244.267L13.776,245.996L14.453,247.007L15.932,246.007L15.932,251.194L14.036,251.194L14.036,252.413L19.203,252.413Z" style="fill:#ecedf1;fill-rule:nonzero;"/>
        <rect x="20.057" y="248.173" width="4.375" height="1.188" style="fill:#ecedf1;fill-rule:nonzero;"/>
        <path d="M29.766,252.413L29.766,250.517L30.797,250.517L30.797,249.309L29.766,249.309L29.766,244.288L28.464,244.288L25.151,249.569L25.151,250.517L28.391,250.517L28.391,252.413L29.766,252.413ZM28.411,246.496L28.391,247.236L28.391,249.309L27.266,249.309L26.62,249.319L28.411,246.496Z" style="fill:#ecedf1;fill-rule:nonzero;"/>
        <path d="M150.036,175.482L150.036,175.066C150.036,173.232 150.411,172.295 151.568,172.295L151.661,172.295C152.651,172.295 152.974,172.972 152.974,174.263L154.38,174.263L154.38,173.909C154.38,171.93 153.443,171.076 151.578,171.076C149.547,171.076 148.609,172.253 148.609,175.066L148.609,175.482C148.609,178.295 149.547,179.472 151.578,179.472C153.443,179.472 154.38,178.618 154.38,176.701L154.38,176.597L152.974,176.597C152.974,177.618 152.609,178.253 151.661,178.253L151.568,178.253C150.401,178.253 150.036,177.316 150.036,175.482Z" style="fill:#ecedf1;fill-rule:nonzero;"/>
        <path d="M159.984,179.336L159.984,178.118L156.849,178.118L156.849,171.211L155.453,171.211L155.453,179.336L159.984,179.336Z" style="fill:#ecedf1;fill-rule:nonzero;"/>
        <path d="M162.172,171.211L160.776,171.211L160.776,179.336L162.172,179.336L162.172,176.941L162.995,175.774L164.641,179.336L166.193,179.336L163.88,174.513L166.193,171.211L164.505,171.211L162.172,174.805L162.172,171.211Z" style="fill:#ecedf1;fill-rule:nonzero;"/>
        <path d="M102.87,180.201L104.432,180.201L105.953,176.951L107.495,180.201L109.047,180.201L106.953,175.972L109.047,172.076L107.422,172.076L105.964,175.003L104.495,172.076L102.87,172.076L104.964,175.982L102.87,180.201Z" style="fill:#ecedf1;fill-rule:nonzero;"/>
        <path d="M112.547,180.336C114.578,180.336 115.547,179.159 115.547,176.347L115.547,175.93C115.547,173.118 114.578,171.941 112.547,171.941C110.505,171.941 109.536,173.118 109.536,175.93L109.536,176.347C109.536,179.159 110.505,180.336 112.547,180.336ZM112.495,179.118C111.359,179.118 110.964,178.18 110.964,176.347L110.964,175.93C110.964,174.097 111.359,173.159 112.495,173.159L112.589,173.159C113.724,173.159 114.12,174.097 114.12,175.93L114.12,176.347C114.12,178.18 113.724,179.118 112.589,179.118L112.495,179.118Z" style="fill:#ecedf1;fill-rule:nonzero;"/>
        <path d="M118.036,177.17L119.224,177.17L120.391,180.201L121.901,180.201L120.578,176.951C121.318,176.659 121.901,176.024 121.901,174.722L121.901,174.513C121.901,172.451 120.453,172.076 119.182,172.076L116.641,172.076L116.641,180.201L118.036,180.201L118.036,177.17ZM118.036,175.951L118.036,173.295L119.234,173.295C119.776,173.295 120.484,173.493 120.484,174.566L120.484,174.68C120.484,175.753 119.776,175.951 119.234,175.951L118.036,175.951Z" style="fill:#ecedf1;fill-rule:nonzero;"/>
        <path d="M14.979,176.347L14.979,175.93C14.979,174.097 15.354,173.159 16.51,173.159L16.604,173.159C17.594,173.159 17.917,173.836 17.917,175.128L19.323,175.128L19.323,174.774C19.323,172.795 18.385,171.941 16.521,171.941C14.49,171.941 13.552,173.118 13.552,175.93L13.552,176.347C13.552,179.159 14.49,180.336 16.521,180.336C18.385,180.336 19.323,179.482 19.323,177.566L19.323,177.461L17.917,177.461C17.917,178.482 17.552,179.118 16.604,179.118L16.51,179.118C15.344,179.118 14.979,178.18 14.979,176.347Z" style="fill:#ecedf1;fill-rule:nonzero;"/>
        <path d="M24.927,180.201L24.927,178.982L21.792,178.982L21.792,172.076L20.396,172.076L20.396,180.201L24.927,180.201Z" style="fill:#ecedf1;fill-rule:nonzero;"/>
        <path d="M27.115,172.076L25.719,172.076L25.719,180.201L27.115,180.201L27.115,177.805L27.938,176.638L29.583,180.201L31.135,180.201L28.823,175.378L31.135,172.076L29.448,172.076L27.115,175.67L27.115,172.076Z" style="fill:#ecedf1;fill-rule:nonzero;"/>
        <path d="M26.462,12.707C26.762,10.457 27.179,9.007 28.762,9.007L28.946,9.007C30.196,9.007 30.312,10.007 30.112,11.507L33.279,11.507L33.362,10.857C33.762,7.723 32.212,6.273 29.046,6.273C25.546,6.273 23.846,8.207 23.246,12.707L23.162,13.34C22.562,17.84 24.129,19.74 27.629,19.74C30.546,19.74 32.429,18.523 32.796,15.157L32.812,15.007L29.646,15.007C29.496,16.173 29.012,17.007 27.896,17.007L27.712,17.007C26.212,17.007 26.079,15.607 26.379,13.34L26.462,12.707Z" style="fill:#ecedf1;fill-rule:nonzero;"/>
        <path d="M40.046,6.273C36.546,6.273 34.846,8.207 34.246,12.707L34.162,13.34C33.562,17.84 35.129,19.74 38.629,19.74C42.129,19.74 43.812,17.807 44.412,13.307L44.496,12.673C45.096,8.173 43.546,6.273 40.046,6.273ZM38.712,17.007C37.212,17.007 37.079,15.607 37.379,13.34L37.462,12.707C37.762,10.44 38.262,9.007 39.762,9.007L39.946,9.007C41.446,9.007 41.579,10.407 41.279,12.673L41.196,13.307C40.896,15.573 40.396,17.007 38.896,17.007L38.712,17.007Z" style="fill:#ecedf1;fill-rule:nonzero;"/>
        <path d="M50.129,19.74C52.596,19.74 53.879,19.023 54.879,18.207L55.662,12.273L50.929,12.273L50.562,15.007L52.129,15.007L51.912,16.673C51.579,16.857 50.962,17.007 50.479,17.007L50.296,17.007C48.712,17.007 48.412,15.607 48.712,13.34L48.796,12.707C49.096,10.457 49.612,9.007 51.196,9.007L51.379,9.007C52.629,9.007 52.812,10.007 52.612,11.507L55.779,11.507L55.862,10.857C56.262,7.723 54.662,6.273 51.479,6.273C47.979,6.273 46.179,8.207 45.579,12.707L45.496,13.34C44.896,17.84 46.629,19.74 50.129,19.74Z" style="fill:#ecedf1;fill-rule:nonzero;"/>
        <path d="M67.846,6.507L64.846,6.507L64.229,11.173L63.996,13.673L61.346,6.507L58.012,6.507L56.312,19.507L59.312,19.507L59.912,14.84L60.162,12.34L62.812,19.507L66.146,19.507L67.846,6.507Z" style="fill:#ecedf1;fill-rule:nonzero;"/>
        <path d="M72.762,6.507L69.596,6.507L67.896,19.507L71.062,19.507L72.762,6.507Z" style="fill:#ecedf1;fill-rule:nonzero;"/>
        <path d="M79.662,9.24L82.579,9.24L82.929,6.507L73.929,6.507L73.579,9.24L76.496,9.24L75.146,19.507L78.312,19.507L79.662,9.24Z" style="fill:#ecedf1;fill-rule:nonzero;"/>
        <path d="M87.262,6.507L84.096,6.507L82.396,19.507L85.562,19.507L87.262,6.507Z" style="fill:#ecedf1;fill-rule:nonzero;"/>
        <path d="M94.062,19.507L98.862,6.507L95.462,6.507L92.362,15.84L91.712,6.507L88.329,6.507L89.729,19.507L94.062,19.507Z" style="fill:#ecedf1;fill-rule:nonzero;"/>
        <path d="M99.846,6.507L98.146,19.507L106.312,19.507L106.662,16.773L101.662,16.773L101.996,14.24L106.162,14.24L106.529,11.507L102.362,11.507L102.662,9.24L107.662,9.24L108.012,6.507L99.846,6.507Z" style="fill:#ecedf1;fill-rule:nonzero;"/>
        <path d="M115.746,14.273C117.512,14.507 117.829,15.023 117.762,15.673L117.746,15.84C117.679,16.473 117.196,17.007 116.112,17.007L115.946,17.007C114.862,17.007 114.379,16.44 114.562,15.007L111.396,15.007L111.362,15.273C110.979,18.29 112.612,19.74 115.779,19.74C118.846,19.74 120.679,18.44 120.946,15.99L120.979,15.69C121.262,13.207 120.029,12.107 117.246,11.723C115.529,11.49 115.246,11.04 115.312,10.34L115.329,10.173C115.396,9.523 115.929,9.007 116.846,9.007L117.012,9.007C118.179,9.007 118.512,9.707 118.312,11.173L121.479,11.173L121.529,10.773C121.896,7.807 120.546,6.273 117.296,6.273C114.046,6.273 112.362,7.84 112.112,10.14L112.079,10.44C111.812,12.79 112.962,13.907 115.746,14.273Z" style="fill:#ecedf1;fill-rule:nonzero;"/>
        <path d="M129.846,6.507L129.196,11.507L126.029,11.507L126.679,6.507L123.512,6.507L121.812,19.507L124.979,19.507L125.662,14.24L128.829,14.24L128.146,19.507L131.312,19.507L133.012,6.507L129.846,6.507Z" style="fill:#ecedf1;fill-rule:nonzero;"/>
        <path d="M137.929,6.507L134.762,6.507L133.062,19.507L136.229,19.507L137.929,6.507Z" style="fill:#ecedf1;fill-rule:nonzero;"/>
        <path d="M139.679,6.507L137.979,19.507L141.146,19.507L141.829,14.24L145.996,14.24L146.362,11.507L142.196,11.507L142.496,9.24L147.496,9.24L147.846,6.507L139.679,6.507Z" style="fill:#ecedf1;fill-rule:nonzero;"/>
        <path d="M154.162,9.24L157.079,9.24L157.429,6.507L148.429,6.507L148.079,9.24L150.996,9.24L149.646,19.507L152.812,19.507L154.162,9.24Z" style="fill:#ecedf1;fill-rule:nonzero;"/>
        <path d="M72.327,375.731C75.077,375.731 76.287,375.117 76.507,373.302L74.178,373.302C73.977,373.953 73.546,374.136 71.96,374.136L71.74,374.136C69.797,374.136 69.476,373.724 69.476,372.541L69.476,372.33C69.476,371.13 69.797,370.726 71.74,370.726L71.96,370.726C73.546,370.726 73.977,370.91 74.178,371.56L76.507,371.56C76.287,369.745 75.077,369.131 72.327,369.131L71.373,369.131C68.321,369.131 67.157,369.874 67.157,372.23L67.157,372.633C67.157,374.989 68.321,375.731 71.373,375.731L72.327,375.731Z" style="fill:#ecedf1;fill-rule:nonzero;"/>
        <path d="M85.133,374.127L79.724,374.127L79.724,373.183L85.133,373.183L85.133,371.67L79.724,371.67L79.724,370.735L85.133,370.735L85.133,369.223L77.451,369.223L77.451,375.64L85.133,375.64L85.133,374.127Z" style="fill:#ecedf1;fill-rule:nonzero;"/>
        <path d="M93.52,373.925L88.515,373.925L88.515,369.223L86.242,369.223L86.242,375.64L93.52,375.64L93.52,373.925Z" style="fill:#ecedf1;fill-rule:nonzero;"/>
        <path d="M101.596,373.925L96.591,373.925L96.591,369.223L94.318,369.223L94.318,375.64L101.596,375.64L101.596,373.925Z" style="fill:#ecedf1;fill-rule:nonzero;"/>
        <path d="M109.094,369.223L105.611,369.223L101.862,375.64L104.373,375.64L105.098,374.365L109.516,374.365L110.249,375.64L112.843,375.64L109.094,369.223ZM107.353,370.58L108.654,372.853L105.959,372.853L107.27,370.58L107.353,370.58Z" style="fill:#ecedf1;fill-rule:nonzero;"/>
        <path d="M18.302,352.261L20.115,352.261L21.51,344.094L20.052,344.094L19.125,350.386L17.844,344.094L16.083,344.094L14.812,350.386L13.885,344.094L12.427,344.094L13.823,352.261L15.625,352.261L16.969,345.678L18.302,352.261Z" style="fill:#ecedf1;fill-rule:nonzero;"/>
        <path d="M22.417,344.094L22.417,352.219L27.25,352.219L27.25,351.001L23.812,351.001L23.812,348.678L26.729,348.678L26.729,347.469L23.812,347.469L23.812,345.313L27.25,345.313L27.25,344.094L22.417,344.094Z" style="fill:#ecedf1;fill-rule:nonzero;"/>
        <path d="M31.198,345.313L33.135,345.313L33.135,344.094L27.865,344.094L27.865,345.313L29.802,345.313L29.802,352.219L31.198,352.219L31.198,345.313Z" style="fill:#ecedf1;fill-rule:nonzero;"/>
        <g id="CTR">
            <circle id="Base" cx="22.504" cy="53.39" r="16.496" style="fill:none;"/>
            <path id="path89" d="M30.412,66.487C29.851,66.826 29.671,67.556 30.01,68.117C30.349,68.678 31.08,68.858 31.641,68.519C32.202,68.18 32.382,67.45 32.043,66.889C31.704,66.328 30.973,66.148 30.412,66.487Z" style="fill:#ecedf1;fill-rule:nonzero;"/>
            <path d="M14.645,66.529C15.208,66.865 15.392,67.594 15.056,68.157C14.72,68.72 13.99,68.904 13.427,68.568C12.865,68.232 12.681,67.502 13.017,66.939C13.353,66.377 14.082,66.193 14.645,66.529Z" style="fill:#ecedf1;fill-rule:nonzero;"/>
            <path d="M31.027,67.503C35.962,64.519 38.988,59.155 38.988,53.388C38.988,44.34 31.542,36.894 22.494,36.894C13.446,36.894 6,44.34 6,53.388C6,59.186 9.058,64.575 14.036,67.548" style="fill:none;fill-rule:nonzero;stroke:#ecedf1;stroke-width:0.79px;stroke-linecap:round;stroke-miterlimit:4;"/>
        </g>
        <g id="CTR1" serif:id="CTR">
            <circle id="Base1" serif:id="Base" cx="157.504" cy="53.39" r="16.496" style="fill:none;"/>
            <path id="path891" serif:id="path89" d="M165.412,66.487C164.851,66.826 164.671,67.556 165.01,68.117C165.349,68.678 166.08,68.858 166.641,68.519C167.202,68.18 167.382,67.45 167.043,66.889C166.704,66.328 165.973,66.148 165.412,66.487Z" style="fill:#ecedf1;fill-rule:nonzero;"/>
            <path d="M149.645,66.529C150.208,66.865 150.392,67.594 150.056,68.157C149.72,68.72 148.99,68.904 148.427,68.568C147.865,68.232 147.681,67.502 148.017,66.939C148.353,66.377 149.082,66.193 149.645,66.529Z" style="fill:#ecedf1;fill-rule:nonzero;"/>
            <path d="M166.027,67.503C170.962,64.519 173.988,59.155 173.988,53.388C173.988,44.34 166.542,36.894 157.494,36.894C148.446,36.894 141,44.34 141,53.388C141,59.186 144.058,64.575 149.036,67.548" style="fill:none;fill-rule:nonzero;stroke:#ecedf1;stroke-width:0.79px;stroke-linecap:round;stroke-miterlimit:4;"/>
        </g>
        <g id="SMCTR">
            <path d="M22.5,231.316L22.5,203.809" style="fill:none;stroke:#ecedf1;stroke-width:0.83px;stroke-linecap:square;"/>
            <path id="line87" d="M22.509,193.956L22.509,191.224" style="fill:none;fill-rule:nonzero;stroke:#ecedf1;stroke-width:0.61px;stroke-linecap:round;stroke-miterlimit:4;"/>
            <path d="M11.979,213.511C12.325,213.896 12.918,213.928 13.303,213.582C13.688,213.236 13.72,212.643 13.374,212.258C13.028,211.873 12.435,211.841 12.05,212.187C11.665,212.533 11.633,213.126 11.979,213.511Z" style="fill:#ecedf1;"/>
            <path d="M33.021,213.511C32.675,213.896 32.082,213.928 31.697,213.582C31.312,213.236 31.28,212.643 31.626,212.258C31.972,211.873 32.565,211.841 32.95,212.187C33.335,212.533 33.367,213.126 33.021,213.511Z" style="fill:#ecedf1;"/>
            <path d="M12.676,212.885C10.575,210.546 9.295,207.453 9.295,204.064C9.295,196.776 15.212,190.859 22.5,190.859C29.788,190.859 35.705,196.776 35.705,204.064C35.705,207.453 34.425,210.546 32.324,212.885" style="fill:none;stroke:#ecedf1;stroke-width:0.63px;stroke-linecap:square;"/>
        </g>
        <g id="SMCTR1" serif:id="SMCTR">
            <path d="M67.5,231.316L67.5,203.809" style="fill:none;stroke:#ecedf1;stroke-width:0.83px;stroke-linecap:square;"/>
            <path id="line871" serif:id="line87" d="M67.509,193.956L67.509,191.224" style="fill:none;fill-rule:nonzero;stroke:#ecedf1;stroke-width:0.61px;stroke-linecap:round;stroke-miterlimit:4;"/>
            <path d="M56.979,213.511C57.325,213.896 57.918,213.928 58.303,213.582C58.688,213.236 58.72,212.643 58.374,212.258C58.028,211.873 57.435,211.841 57.05,212.187C56.665,212.533 56.633,213.126 56.979,213.511Z" style="fill:#ecedf1;"/>
            <path d="M78.021,213.511C77.675,213.896 77.082,213.928 76.697,213.582C76.312,213.236 76.28,212.643 76.626,212.258C76.972,211.873 77.565,211.841 77.95,212.187C78.335,212.533 78.367,213.126 78.021,213.511Z" style="fill:#ecedf1;"/>
            <path d="M57.676,212.885C55.575,210.546 54.295,207.453 54.295,204.064C54.295,196.776 60.212,190.859 67.5,190.859C74.788,190.859 80.705,196.776 80.705,204.064C80.705,207.453 79.425,210.546 77.324,212.885" style="fill:none;stroke:#ecedf1;stroke-width:0.63px;stroke-linecap:square;"/>
        </g>
        <g id="SMCTR2" serif:id="SMCTR">
            <path id="line872" serif:id="line87" d="M112.509,43.979L112.509,41.247" style="fill:none;fill-rule:nonzero;stroke:#ecedf1;stroke-width:0.61px;stroke-linecap:round;stroke-miterlimit:4;"/>
            <path d="M101.979,63.534C102.325,63.918 102.918,63.95 103.303,63.604C103.688,63.258 103.72,62.665 103.374,62.28C103.028,61.895 102.435,61.864 102.05,62.21C101.665,62.555 101.633,63.149 101.979,63.534Z" style="fill:#ecedf1;"/>
            <path d="M123.021,63.534C122.675,63.918 122.082,63.95 121.697,63.604C121.312,63.258 121.28,62.665 121.626,62.28C121.972,61.895 122.565,61.864 122.95,62.21C123.335,62.555 123.367,63.149 123.021,63.534Z" style="fill:#ecedf1;"/>
            <path d="M102.676,62.907C100.575,60.568 99.295,57.475 99.295,54.086C99.295,46.798 105.212,40.881 112.5,40.881C119.788,40.881 125.705,46.798 125.705,54.086C125.705,57.475 124.425,60.568 122.324,62.907" style="fill:none;stroke:#ecedf1;stroke-width:0.63px;stroke-linecap:square;"/>
        </g>
        <g id="SMCTR3" serif:id="SMCTR">
            <path d="M157.5,231.316L157.5,203.809" style="fill:none;stroke:#ecedf1;stroke-width:0.83px;stroke-linecap:square;"/>
            <path id="line873" serif:id="line87" d="M157.509,193.956L157.509,191.224" style="fill:none;fill-rule:nonzero;stroke:#ecedf1;stroke-width:0.61px;stroke-linecap:round;stroke-miterlimit:4;"/>
            <path d="M146.979,213.511C147.325,213.896 147.918,213.928 148.303,213.582C148.688,213.236 148.72,212.643 148.374,212.258C148.028,211.873 147.435,211.841 147.05,212.187C146.665,212.533 146.633,213.126 146.979,213.511Z" style="fill:#ecedf1;"/>
            <path d="M168.021,213.511C167.675,213.896 167.082,213.928 166.697,213.582C166.312,213.236 166.28,212.643 166.626,212.258C166.972,211.873 167.565,211.841 167.95,212.187C168.335,212.533 168.367,213.126 168.021,213.511Z" style="fill:#ecedf1;"/>
            <path d="M147.676,212.885C145.575,210.546 144.295,207.453 144.295,204.064C144.295,196.776 150.212,190.859 157.5,190.859C164.788,190.859 170.705,196.776 170.705,204.064C170.705,207.453 169.425,210.546 167.324,212.885" style="fill:none;stroke:#ecedf1;stroke-width:0.63px;stroke-linecap:square;"/>
        </g>
        <path d="M25.432,301.622L25.432,300.403L23.536,300.403L23.536,293.476L22.536,293.476L20.005,295.205L20.682,296.215L22.161,295.215L22.161,300.403L20.266,300.403L20.266,301.622L25.432,301.622Z" style="fill:#ecedf1;fill-rule:nonzero;"/>
        <path d="M8.715,76.125L8.715,75.709C8.715,73.875 9.09,72.938 10.246,72.938L10.34,72.938C11.329,72.938 11.652,73.615 11.652,74.906L13.058,74.906L13.058,74.552C13.058,72.573 12.121,71.719 10.256,71.719C8.225,71.719 7.288,72.896 7.288,75.709L7.288,76.125C7.288,78.938 8.225,80.115 10.256,80.115C12.121,80.115 13.058,79.261 13.058,77.344L13.058,77.24L11.652,77.24C11.652,78.261 11.288,78.896 10.34,78.896L10.246,78.896C9.079,78.896 8.715,77.959 8.715,76.125Z" style="fill:#ecedf1;fill-rule:nonzero;"/>
        <path d="M18.663,79.979L18.663,78.761L15.527,78.761L15.527,71.854L14.131,71.854L14.131,79.979L18.663,79.979Z" style="fill:#ecedf1;fill-rule:nonzero;"/>
        <path d="M22.11,80.115C24.142,80.115 25.11,78.938 25.11,76.125L25.11,75.709C25.11,72.896 24.142,71.719 22.11,71.719C20.069,71.719 19.1,72.896 19.1,75.709L19.1,76.125C19.1,78.938 20.069,80.115 22.11,80.115ZM22.058,78.896C20.923,78.896 20.527,77.959 20.527,76.125L20.527,75.709C20.527,73.875 20.923,72.938 22.058,72.938L22.152,72.938C23.288,72.938 23.683,73.875 23.683,75.709L23.683,76.125C23.683,77.959 23.288,78.896 22.152,78.896L22.058,78.896Z" style="fill:#ecedf1;fill-rule:nonzero;"/>
        <path d="M27.454,76.125L27.454,75.709C27.454,73.875 27.829,72.938 28.985,72.938L29.079,72.938C30.069,72.938 30.392,73.615 30.392,74.906L31.798,74.906L31.798,74.552C31.798,72.573 30.86,71.719 28.996,71.719C26.965,71.719 26.027,72.896 26.027,75.709L26.027,76.125C26.027,78.938 26.965,80.115 28.996,80.115C30.86,80.115 31.798,79.261 31.798,77.344L31.798,77.24L30.392,77.24C30.392,78.261 30.027,78.896 29.079,78.896L28.985,78.896C27.819,78.896 27.454,77.959 27.454,76.125Z" style="fill:#ecedf1;fill-rule:nonzero;"/>
        <path d="M34.267,71.854L32.871,71.854L32.871,79.979L34.267,79.979L34.267,77.584L35.09,76.417L36.735,79.979L38.288,79.979L35.975,75.156L38.288,71.854L36.6,71.854L34.267,75.448L34.267,71.854Z" style="fill:#ecedf1;fill-rule:nonzero;"/>
        <path d="M148.818,79.938C150.193,79.938 150.995,79.479 151.547,78.99L151.547,75.531L148.974,75.531L148.974,76.74L150.151,76.74L150.151,78.313C149.88,78.531 149.443,78.719 148.87,78.719L148.776,78.719C147.495,78.719 147.099,77.781 147.099,75.948L147.099,75.531C147.099,73.698 147.505,72.761 148.703,72.761L148.797,72.761C149.818,72.761 150.151,73.438 150.151,74.729L151.547,74.729L151.547,74.375C151.547,72.396 150.578,71.542 148.714,71.542C146.682,71.542 145.672,72.719 145.672,75.531L145.672,75.948C145.672,78.761 146.682,79.938 148.818,79.938Z" style="fill:#ecedf1;fill-rule:nonzero;"/>
        <path d="M154.328,71.636L152.193,79.802L153.703,79.802L154.151,77.948L156.443,77.948L156.891,79.802L158.391,79.802L156.255,71.636L154.328,71.636ZM155.297,73.229L156.141,76.729L154.443,76.729L155.297,73.229Z" style="fill:#ecedf1;fill-rule:nonzero;"/>
        <path d="M161.568,72.896L163.505,72.896L163.505,71.677L158.234,71.677L158.234,72.896L160.172,72.896L160.172,79.802L161.568,79.802L161.568,72.896Z" style="fill:#ecedf1;fill-rule:nonzero;"/>
        <path d="M164.339,71.677L164.339,79.802L169.172,79.802L169.172,78.584L165.734,78.584L165.734,76.261L168.651,76.261L168.651,75.052L165.734,75.052L165.734,72.896L169.172,72.896L169.172,71.677L164.339,71.677Z" style="fill:#ecedf1;fill-rule:nonzero;"/>
        <path d="M68.292,76.125L68.292,75.709C68.292,73.875 68.667,72.938 69.823,72.938L69.917,72.938C70.906,72.938 71.229,73.615 71.229,74.906L72.635,74.906L72.635,74.552C72.635,72.573 71.698,71.719 69.833,71.719C67.802,71.719 66.865,72.896 66.865,75.709L66.865,76.125C66.865,78.938 67.802,80.115 69.833,80.115C71.698,80.115 72.635,79.261 72.635,77.344L72.635,77.24L71.229,77.24C71.229,78.261 70.865,78.896 69.917,78.896L69.823,78.896C68.656,78.896 68.292,77.959 68.292,76.125Z" style="fill:#ecedf1;fill-rule:nonzero;"/>
        <path d="M78.24,79.979L78.24,78.761L75.104,78.761L75.104,71.854L73.708,71.854L73.708,79.979L78.24,79.979Z" style="fill:#ecedf1;fill-rule:nonzero;"/>
        <path d="M81.688,80.115C83.719,80.115 84.688,78.938 84.688,76.125L84.688,75.709C84.688,72.896 83.719,71.719 81.688,71.719C79.646,71.719 78.677,72.896 78.677,75.709L78.677,76.125C78.677,78.938 79.646,80.115 81.688,80.115ZM81.635,78.896C80.5,78.896 80.104,77.959 80.104,76.125L80.104,75.709C80.104,73.875 80.5,72.938 81.635,72.938L81.729,72.938C82.865,72.938 83.26,73.875 83.26,75.709L83.26,76.125C83.26,77.959 82.865,78.896 81.729,78.896L81.635,78.896Z" style="fill:#ecedf1;fill-rule:nonzero;"/>
        <path d="M87.031,76.125L87.031,75.709C87.031,73.875 87.406,72.938 88.563,72.938L88.656,72.938C89.646,72.938 89.969,73.615 89.969,74.906L91.375,74.906L91.375,74.552C91.375,72.573 90.437,71.719 88.573,71.719C86.542,71.719 85.604,72.896 85.604,75.709L85.604,76.125C85.604,78.938 86.542,80.115 88.573,80.115C90.437,80.115 91.375,79.261 91.375,77.344L91.375,77.24L89.969,77.24C89.969,78.261 89.604,78.896 88.656,78.896L88.563,78.896C87.396,78.896 87.031,77.959 87.031,76.125Z" style="fill:#ecedf1;fill-rule:nonzero;"/>
        <path d="M93.844,71.854L92.448,71.854L92.448,79.979L93.844,79.979L93.844,77.584L94.667,76.417L96.313,79.979L97.865,79.979L95.552,75.156L97.865,71.854L96.177,71.854L93.844,75.448L93.844,71.854Z" style="fill:#ecedf1;fill-rule:nonzero;"/>
        <path d="M102.094,76.125L102.094,75.709C102.094,73.875 102.469,72.938 103.625,72.938L103.719,72.938C104.708,72.938 105.031,73.615 105.031,74.906L106.437,74.906L106.437,74.552C106.437,72.573 105.5,71.719 103.635,71.719C101.604,71.719 100.667,72.896 100.667,75.709L100.667,76.125C100.667,78.938 101.604,80.115 103.635,80.115C105.5,80.115 106.437,79.261 106.437,77.344L106.437,77.24L105.031,77.24C105.031,78.261 104.667,78.896 103.719,78.896L103.625,78.896C102.458,78.896 102.094,77.959 102.094,76.125Z" style="fill:#ecedf1;fill-rule:nonzero;"/>
        <path d="M111,80.021L113.135,71.854L111.635,71.854L110.042,78.427L108.437,71.854L106.937,71.854L109.073,80.021L111,80.021Z" style="fill:#ecedf1;fill-rule:nonzero;"/>
        <rect x="9.116" y="121.858" width="1.396" height="8.125" style="fill:#ecedf1;fill-rule:nonzero;"/>
        <path d="M17.595,121.858L16.272,121.858L16.272,125.743L16.314,127.462L13.314,121.858L11.834,121.858L11.834,129.983L13.157,129.983L13.157,126.097L13.116,124.378L16.116,129.983L17.595,129.983L17.595,121.858Z" style="fill:#ecedf1;fill-rule:nonzero;"/>
        <path d="M20.262,126.951L21.407,126.951C22.678,126.951 24.126,126.576 24.126,124.503L24.126,124.295C24.126,122.233 22.678,121.858 21.407,121.858L18.866,121.858L18.866,129.983L20.262,129.983L20.262,126.951ZM20.262,125.733L20.262,123.076L21.459,123.076C22.001,123.076 22.709,123.274 22.709,124.347L22.709,124.462C22.709,125.535 22.001,125.733 21.459,125.733L20.262,125.733Z" style="fill:#ecedf1;fill-rule:nonzero;"/>
        <path d="M27.876,130.118C29.928,130.118 30.699,129.253 30.699,127.43L30.699,121.858L29.303,121.858L29.303,127.378C29.303,128.451 28.918,128.899 27.876,128.899C26.824,128.899 26.439,128.451 26.439,127.378L26.439,121.858L25.043,121.858L25.043,127.43C25.043,129.253 25.814,130.118 27.876,130.118Z" style="fill:#ecedf1;fill-rule:nonzero;"/>
        <path d="M34.814,123.076L36.751,123.076L36.751,121.858L31.48,121.858L31.48,123.076L33.418,123.076L33.418,129.983L34.814,129.983L34.814,123.076Z" style="fill:#ecedf1;fill-rule:nonzero;"/>
        <path d="M58.678,130.024L60.491,130.024L61.887,121.858L60.428,121.858L59.501,128.149L58.22,121.858L56.459,121.858L55.189,128.149L54.262,121.858L52.803,121.858L54.199,130.024L56.001,130.024L57.345,123.441L58.678,130.024Z" style="fill:#ecedf1;fill-rule:nonzero;"/>
        <path d="M64.189,126.951L65.376,126.951L66.543,129.983L68.053,129.983L66.73,126.733C67.47,126.441 68.053,125.805 68.053,124.503L68.053,124.295C68.053,122.233 66.605,121.858 65.334,121.858L62.793,121.858L62.793,129.983L64.189,129.983L64.189,126.951ZM64.189,125.733L64.189,123.076L65.387,123.076C65.928,123.076 66.637,123.274 66.637,124.347L66.637,124.462C66.637,125.535 65.928,125.733 65.387,125.733L64.189,125.733Z" style="fill:#ecedf1;fill-rule:nonzero;"/>
        <rect x="69.209" y="121.858" width="1.396" height="8.125" style="fill:#ecedf1;fill-rule:nonzero;"/>
        <path d="M74.824,123.076L76.762,123.076L76.762,121.858L71.491,121.858L71.491,123.076L73.428,123.076L73.428,129.983L74.824,129.983L74.824,123.076Z" style="fill:#ecedf1;fill-rule:nonzero;"/>
        <path d="M77.595,121.858L77.595,129.983L82.428,129.983L82.428,128.764L78.991,128.764L78.991,126.441L81.907,126.441L81.907,125.233L78.991,125.233L78.991,123.076L82.428,123.076L82.428,121.858L77.595,121.858Z" style="fill:#ecedf1;fill-rule:nonzero;"/>
        <path d="M97.85,121.857L97.85,129.982L102.683,129.982L102.683,128.764L99.246,128.764L99.246,126.441L102.163,126.441L102.163,125.232L99.246,125.232L99.246,123.076L102.683,123.076L102.683,121.857L97.85,121.857Z" style="fill:#ecedf1;fill-rule:nonzero;"/>
        <path d="M105.131,126.951L106.319,126.951L107.485,129.982L108.996,129.982L107.673,126.732C108.413,126.441 108.996,125.805 108.996,124.503L108.996,124.295C108.996,122.232 107.548,121.857 106.277,121.857L103.735,121.857L103.735,129.982L105.131,129.982L105.131,126.951ZM105.131,125.732L105.131,123.076L106.329,123.076C106.871,123.076 107.579,123.274 107.579,124.347L107.579,124.462C107.579,125.535 106.871,125.732 106.329,125.732L105.131,125.732Z" style="fill:#ecedf1;fill-rule:nonzero;"/>
        <path d="M111.683,121.816L109.548,129.982L111.058,129.982L111.506,128.128L113.798,128.128L114.246,129.982L115.746,129.982L113.61,121.816L111.683,121.816ZM112.652,123.41L113.496,126.91L111.798,126.91L112.652,123.41Z" style="fill:#ecedf1;fill-rule:nonzero;"/>
        <path d="M118.829,126.441C120.069,126.607 120.465,126.982 120.465,127.691L120.465,127.753C120.465,128.43 119.965,128.899 119.09,128.899L118.996,128.899C118.121,128.899 117.59,128.399 117.59,127.243L116.194,127.243L116.194,127.347C116.194,129.212 117.183,130.118 119.048,130.118C120.86,130.118 121.892,129.222 121.892,127.701L121.892,127.587C121.892,126.16 121.048,125.524 119.277,125.285C117.996,125.107 117.694,124.732 117.694,124.066L117.694,124.003C117.694,123.368 118.194,122.941 118.965,122.941L119.058,122.941C120.027,122.941 120.423,123.482 120.423,124.701L121.819,124.701L121.819,124.462C121.819,122.628 120.975,121.722 119.048,121.722C117.288,121.722 116.267,122.639 116.267,124.076L116.267,124.18C116.267,125.524 117.058,126.201 118.829,126.441Z" style="fill:#ecedf1;fill-rule:nonzero;"/>
        <path d="M122.913,121.857L122.913,129.982L127.746,129.982L127.746,128.764L124.308,128.764L124.308,126.441L127.225,126.441L127.225,125.232L124.308,125.232L124.308,123.076L127.746,123.076L127.746,121.857L122.913,121.857Z" style="fill:#ecedf1;fill-rule:nonzero;"/>
        <path d="M144.168,126.128L144.168,125.712C144.168,123.878 144.543,122.941 145.699,122.941L145.793,122.941C146.782,122.941 147.105,123.618 147.105,124.91L148.512,124.91L148.512,124.555C148.512,122.576 147.574,121.722 145.709,121.722C143.678,121.722 142.741,122.899 142.741,125.712L142.741,126.128C142.741,128.941 143.678,130.118 145.709,130.118C147.574,130.118 148.512,129.264 148.512,127.347L148.512,127.243L147.105,127.243C147.105,128.264 146.741,128.899 145.793,128.899L145.699,128.899C144.532,128.899 144.168,127.962 144.168,126.128Z" style="fill:#ecedf1;fill-rule:nonzero;"/>
        <path d="M154.116,129.982L154.116,128.764L150.98,128.764L150.98,121.857L149.584,121.857L149.584,129.982L154.116,129.982Z" style="fill:#ecedf1;fill-rule:nonzero;"/>
        <path d="M154.907,121.857L154.907,129.982L159.741,129.982L159.741,128.764L156.303,128.764L156.303,126.441L159.22,126.441L159.22,125.232L156.303,125.232L156.303,123.076L159.741,123.076L159.741,121.857L154.907,121.857Z" style="fill:#ecedf1;fill-rule:nonzero;"/>
        <path d="M162.48,121.816L160.345,129.982L161.855,129.982L162.303,128.128L164.595,128.128L165.043,129.982L166.543,129.982L164.407,121.816L162.48,121.816ZM163.449,123.41L164.293,126.91L162.595,126.91L163.449,123.41Z" style="fill:#ecedf1;fill-rule:nonzero;"/>
        <path d="M168.762,126.951L169.949,126.951L171.116,129.982L172.626,129.982L171.303,126.732C172.043,126.441 172.626,125.805 172.626,124.503L172.626,124.295C172.626,122.232 171.178,121.857 169.907,121.857L167.366,121.857L167.366,129.982L168.762,129.982L168.762,126.951ZM168.762,125.732L168.762,123.076L169.959,123.076C170.501,123.076 171.209,123.274 171.209,124.347L171.209,124.462C171.209,125.535 170.501,125.732 169.959,125.732L168.762,125.732Z" style="fill:#ecedf1;fill-rule:nonzero;"/>
        <path d="M61.656,176.347L61.656,175.93C61.656,173.118 60.604,172.076 58.323,172.076L55.927,172.076L55.927,180.201L58.323,180.201C60.604,180.201 61.656,179.159 61.656,176.347ZM57.323,178.982L57.323,173.295L58.24,173.295C59.687,173.295 60.229,174.097 60.229,175.93L60.229,176.347C60.229,178.18 59.687,178.982 58.24,178.982L57.323,178.982Z" style="fill:#ecedf1;fill-rule:nonzero;"/>
        <path d="M64.312,172.034L62.177,180.201L63.687,180.201L64.135,178.347L66.427,178.347L66.875,180.201L68.375,180.201L66.24,172.034L64.312,172.034ZM65.281,173.628L66.125,177.128L64.427,177.128L65.281,173.628Z" style="fill:#ecedf1;fill-rule:nonzero;"/>
        <path d="M71.552,173.295L73.49,173.295L73.49,172.076L68.219,172.076L68.219,173.295L70.156,173.295L70.156,180.201L71.552,180.201L71.552,173.295Z" style="fill:#ecedf1;fill-rule:nonzero;"/>
        <path d="M75.469,172.034L73.333,180.201L74.844,180.201L75.292,178.347L77.583,178.347L78.031,180.201L79.531,180.201L77.396,172.034L75.469,172.034ZM76.437,173.628L77.281,177.128L75.583,177.128L76.437,173.628Z" style="fill:#ecedf1;fill-rule:nonzero;"/>
        <path d="M83.25,317.8C83.25,316.255 81.995,315 80.45,315L54.55,315C53.005,315 51.75,316.255 51.75,317.8L51.75,352.2C51.75,353.745 53.005,355 54.55,355L80.45,355C81.995,355 83.25,353.745 83.25,352.2L83.25,317.8Z" style="fill:#ab5b87;"/>
        <path d="M38.531,317.8C38.531,316.255 37.277,315 35.731,315L9.831,315C8.286,315 7.031,316.255 7.031,317.8L7.031,352.2C7.031,353.745 8.286,355 9.831,355L35.731,355C37.277,355 38.531,353.745 38.531,352.2L38.531,317.8Z" style="fill:#ab5b87;"/>
        <path d="M69.766,343.959C68.234,343.959 66.839,344.344 65.943,345.542C65.078,346.699 64.797,347.98 64.797,349.271L64.797,349.407C64.797,351.209 65.807,352.355 67.484,352.355C69.203,352.355 70.161,351.407 70.161,349.761L70.161,349.657C70.161,348.021 69.214,347.105 67.839,347.105C67.234,347.105 66.755,347.303 66.38,347.594C66.516,347.115 66.724,346.688 67.016,346.313C67.651,345.521 68.599,345.199 69.766,345.199L69.766,343.959ZM67.505,348.313L67.557,348.313C68.276,348.313 68.786,348.73 68.786,349.615L68.786,349.813C68.786,350.657 68.245,351.136 67.516,351.136L67.453,351.136C66.745,351.136 66.172,350.563 66.172,349.511L66.172,349.105C66.453,348.594 66.964,348.313 67.505,348.313Z" style="fill:#ecedf1;fill-rule:nonzero;"/>
        <path d="M20.057,349.615L20.057,349.751C20.057,351.386 20.943,352.355 22.745,352.355C24.432,352.355 25.432,351.376 25.432,349.751L25.432,349.584C25.432,347.959 24.432,346.98 22.807,346.98C22.276,346.98 21.786,347.115 21.391,347.334L21.484,345.313L25.328,345.313L25.328,344.094L20.318,344.094L20.12,348.584L21.297,348.98C21.547,348.449 22.13,348.199 22.661,348.199L22.734,348.199C23.453,348.199 24.047,348.594 24.047,349.594L24.047,349.74C24.047,350.74 23.453,351.136 22.797,351.136L22.693,351.136C21.953,351.136 21.432,350.719 21.432,349.615L20.057,349.615Z" style="fill:#ecedf1;fill-rule:nonzero;"/>
        <path d="M104.089,250.597L104.089,250.732C104.089,252.368 104.974,253.336 106.776,253.336C108.464,253.336 109.464,252.357 109.464,250.732L109.464,250.566C109.464,248.941 108.464,247.961 106.839,247.961C106.307,247.961 105.818,248.097 105.422,248.316L105.516,246.295L109.359,246.295L109.359,245.076L104.349,245.076L104.151,249.566L105.328,249.961C105.578,249.43 106.161,249.18 106.693,249.18L106.766,249.18C107.484,249.18 108.078,249.576 108.078,250.576L108.078,250.722C108.078,251.722 107.484,252.118 106.828,252.118L106.724,252.118C105.984,252.118 105.464,251.701 105.464,250.597L104.089,250.597Z" style="fill:#ecedf1;fill-rule:nonzero;"/>
        <rect x="110.318" y="248.961" width="4.375" height="1.188" style="fill:#ecedf1;fill-rule:nonzero;"/>
        <path d="M118.234,253.336C120.057,253.336 120.922,252.18 120.922,251.066L120.922,250.878C120.922,249.951 120.443,249.368 119.839,249.055C120.422,248.743 120.87,248.18 120.87,247.284L120.87,247.097C120.87,246.034 120.109,244.941 118.234,244.941C116.359,244.941 115.599,246.034 115.599,247.097L115.599,247.284C115.599,248.18 116.036,248.743 116.63,249.055C116.016,249.368 115.547,249.951 115.547,250.878L115.547,251.066C115.547,252.18 116.411,253.336 118.234,253.336ZM118.141,249.659L118.328,249.659C119.047,249.659 119.536,250.045 119.536,250.805L119.536,250.93C119.536,251.763 118.943,252.118 118.286,252.118L118.182,252.118C117.526,252.118 116.932,251.763 116.932,250.93L116.932,250.805C116.932,250.045 117.422,249.659 118.141,249.659ZM118.286,246.159C118.995,246.159 119.484,246.586 119.484,247.263L119.484,247.347C119.484,248.097 119.005,248.451 118.297,248.451L118.172,248.451C117.464,248.451 116.984,248.097 116.984,247.347L116.984,247.263C116.984,246.586 117.474,246.159 118.182,246.159L118.286,246.159Z" style="fill:#ecedf1;fill-rule:nonzero;"/>
        <path d="M83.25,267.204C83.25,265.659 81.995,264.404 80.45,264.404L54.55,264.404C53.005,264.404 51.75,265.659 51.75,267.204L51.75,301.604C51.75,303.149 53.005,304.404 54.55,304.404L80.45,304.404C81.995,304.404 83.25,303.149 83.25,301.604L83.25,267.204Z" style="fill:#ab5b87;"/>
        <path d="M67.557,300.403L66.828,300.413L69.172,297.861C69.818,297.163 70.099,296.684 70.099,295.767L70.099,295.59C70.099,294.465 69.339,293.361 67.464,293.361C65.661,293.361 64.828,294.267 64.828,295.986L64.828,296.205L66.203,296.205C66.203,295.017 66.651,294.58 67.422,294.58L67.505,294.58C68.214,294.58 68.714,295.017 68.714,295.84L68.714,295.945C68.714,296.434 68.526,296.747 68.089,297.215L64.828,300.757L64.828,301.622L70.099,301.622L70.099,300.403L67.557,300.403Z" style="fill:#ecedf1;fill-rule:nonzero;"/>
        <path d="M128.25,267.113C128.25,265.567 126.995,264.313 125.45,264.313L99.55,264.313C98.005,264.313 96.75,265.567 96.75,267.113L96.75,301.513C96.75,303.058 98.005,304.313 99.55,304.313L125.45,304.313C126.995,304.313 128.25,303.058 128.25,301.513L128.25,267.113Z" style="fill:#ab5b87;"/>
        <path d="M111.151,299.49L109.776,299.49L109.776,299.625C109.776,301.26 110.661,302.229 112.464,302.229C114.286,302.229 115.151,301.062 115.151,299.948L115.151,299.76C115.151,298.833 114.682,298.25 114.068,297.948C114.651,297.646 115.099,297.083 115.099,296.187L115.099,296C115.099,294.937 114.339,293.833 112.464,293.833C110.661,293.833 109.828,294.74 109.828,296.458L109.828,296.677L111.203,296.677C111.203,295.49 111.641,295.052 112.411,295.052L112.516,295.052C113.224,295.052 113.714,295.49 113.714,296.167L113.714,296.26C113.714,297 113.234,297.344 112.526,297.344L111.422,297.344L111.422,298.552L112.557,298.552C113.276,298.552 113.766,298.927 113.766,299.687L113.766,299.812C113.766,300.646 113.172,301.01 112.516,301.01L112.411,301.01C111.672,301.01 111.151,300.594 111.151,299.49Z" style="fill:#ecedf1;fill-rule:nonzero;"/>
        <path d="M173.25,266.811C173.25,265.266 171.995,264.011 170.45,264.011L144.55,264.011C143.005,264.011 141.75,265.266 141.75,266.811L141.75,301.211C141.75,302.757 143.005,304.011 144.55,304.011L170.45,304.011C171.995,304.011 173.25,302.757 173.25,301.211L173.25,266.811Z" style="fill:#ab5b87;"/>
        <path d="M159.255,301.229L159.255,299.333L160.286,299.333L160.286,298.125L159.255,298.125L159.255,293.104L157.953,293.104L154.641,298.385L154.641,299.333L157.88,299.333L157.88,301.229L159.255,301.229ZM157.901,295.312L157.88,296.052L157.88,298.125L156.755,298.125L156.109,298.135L157.901,295.312Z" style="fill:#ecedf1;fill-rule:nonzero;"/>
        <g id="SMCTR4" serif:id="SMCTR">
            <path d="M112.5,231.316L112.5,203.809" style="fill:none;stroke:#ecedf1;stroke-width:0.83px;stroke-linecap:square;"/>
            <path id="line874" serif:id="line87" d="M112.509,193.956L112.509,191.224" style="fill:none;fill-rule:nonzero;stroke:#ecedf1;stroke-width:0.61px;stroke-linecap:round;stroke-miterlimit:4;"/>
            <path d="M101.979,213.511C102.325,213.896 102.918,213.928 103.303,213.582C103.688,213.236 103.72,212.643 103.374,212.258C103.028,211.873 102.435,211.841 102.05,212.187C101.665,212.533 101.633,213.126 101.979,213.511Z" style="fill:#ecedf1;"/>
            <path d="M123.021,213.511C122.675,213.896 122.082,213.928 121.697,213.582C121.312,213.236 121.28,212.643 121.626,212.258C121.972,211.873 122.565,211.841 122.95,212.187C123.335,212.533 123.367,213.126 123.021,213.511Z" style="fill:#ecedf1;"/>
            <path d="M102.676,212.885C100.575,210.546 99.295,207.453 99.295,204.064C99.295,196.776 105.212,190.859 112.5,190.859C119.788,190.859 125.705,196.776 125.705,204.064C125.705,207.453 124.425,210.546 122.324,212.885" style="fill:none;stroke:#ecedf1;stroke-width:0.63px;stroke-linecap:square;"/>
        </g>
        <path d="M71.788,53.5L99.295,53.5" style="fill:none;stroke:#ecedf1;stroke-width:0.83px;stroke-linecap:square;"/>
    </g>
</svg>
