<?xml version="1.0" encoding="UTF-8" standalone="no"?>
<!DOCTYPE svg PUBLIC "-//W3C//DTD SVG 1.1//EN" "http://www.w3.org/Graphics/SVG/1.1/DTD/svg11.dtd">
<svg width="100%" height="100%" viewBox="0 0 180 380" version="1.1" xmlns="http://www.w3.org/2000/svg" xmlns:xlink="http://www.w3.org/1999/xlink" xml:space="preserve" xmlns:serif="http://www.serif.com/" style="fill-rule:evenodd;clip-rule:evenodd;stroke-linejoin:round;stroke-miterlimit:1.5;">
    <g id="Layer1">
        <rect x="-0" y="0" width="180" height="380" style="fill:#252626;"/>
        <path d="M173.25,317.8C173.25,316.255 171.995,315 170.45,315L144.55,315C143.005,315 141.75,316.255 141.75,317.8L141.75,352.2C141.75,353.745 143.005,355 144.55,355L170.45,355C171.995,355 173.25,353.745 173.25,352.2L173.25,317.8Z" style="fill:#79305a;"/>
        <path d="M0,25L180,25" style="fill:none;stroke:#f7c5ad;stroke-width:0.83px;"/>
        <path d="M157.37,352.355C159.193,352.355 160.057,351.199 160.057,350.084L160.057,349.896C160.057,348.969 159.578,348.386 158.974,348.074C159.557,347.761 160.005,347.199 160.005,346.303L160.005,346.115C160.005,345.053 159.245,343.959 157.37,343.959C155.495,343.959 154.734,345.053 154.734,346.115L154.734,346.303C154.734,347.199 155.172,347.761 155.766,348.074C155.151,348.386 154.682,348.969 154.682,349.896L154.682,350.084C154.682,351.199 155.547,352.355 157.37,352.355ZM157.276,348.678L157.464,348.678C158.182,348.678 158.672,349.063 158.672,349.824L158.672,349.949C158.672,350.782 158.078,351.136 157.422,351.136L157.318,351.136C156.661,351.136 156.068,350.782 156.068,349.949L156.068,349.824C156.068,349.063 156.557,348.678 157.276,348.678ZM157.422,345.178C158.13,345.178 158.62,345.605 158.62,346.282L158.62,346.365C158.62,347.115 158.141,347.469 157.432,347.469L157.307,347.469C156.599,347.469 156.12,347.115 156.12,346.365L156.12,346.282C156.12,345.605 156.609,345.178 157.318,345.178L157.422,345.178Z" style="fill:#f7c5ad;fill-rule:nonzero;"/>
        <path d="M128.25,317.8C128.25,316.255 126.995,315 125.45,315L99.55,315C98.005,315 96.75,316.255 96.75,317.8L96.75,352.2C96.75,353.745 98.005,355 99.55,355L125.45,355C126.995,355 128.25,353.745 128.25,352.2L128.25,317.8Z" style="fill:#79305a;"/>
        <path d="M38.531,267.204C38.531,265.659 37.277,264.404 35.731,264.404L9.831,264.404C8.286,264.404 7.031,265.659 7.031,267.204L7.031,301.604C7.031,303.149 8.286,304.404 9.831,304.404L35.731,304.404C37.277,304.404 38.531,303.149 38.531,301.604L38.531,267.204Z" style="fill:#79305a;"/>
        <path d="M38.531,219.183C38.531,217.637 37.277,216.383 35.731,216.383L9.831,216.383C8.286,216.383 7.031,217.637 7.031,219.183L7.031,252.396C7.031,253.941 8.286,255.196 9.831,255.196L35.731,255.196C37.277,255.196 38.531,253.941 38.531,252.396L38.531,219.183Z" style="fill:#79305a;"/>
        <path d="M83.25,219.183C83.25,217.637 81.995,216.383 80.45,216.383L54.55,216.383C53.005,216.383 51.75,217.637 51.75,219.183L51.75,252.396C51.75,253.941 53.005,255.196 54.55,255.196L80.45,255.196C81.995,255.196 83.25,253.941 83.25,252.396L83.25,219.183Z" style="fill:#79305a;"/>
        <path d="M128.25,219.183C128.25,217.637 126.995,216.383 125.45,216.383L99.55,216.383C98.005,216.383 96.75,217.637 96.75,219.183L96.75,252.396C96.75,253.941 98.005,255.196 99.55,255.196L125.45,255.196C126.995,255.196 128.25,253.941 128.25,252.396L128.25,219.183Z" style="fill:#79305a;"/>
        <path d="M173.25,219.183C173.25,217.637 171.995,216.383 170.45,216.383L144.55,216.383C143.005,216.383 141.75,217.637 141.75,219.183L141.75,252.396C141.75,253.941 143.005,255.196 144.55,255.196L170.45,255.196C171.995,255.196 173.25,253.941 173.25,252.396L173.25,219.183Z" style="fill:#79305a;"/>
        <path d="M109.786,347.011L111.005,347.011L111.005,345.313L112.589,345.313L113.63,345.292L110.755,352.219L112.224,352.219L115.182,344.949L115.182,344.094L109.786,344.094L109.786,347.011Z" style="fill:#f7c5ad;fill-rule:nonzero;"/>
        <path d="M154.26,253.336L154.26,252.118L152.365,252.118L152.365,245.191L151.365,245.191L148.833,246.92L149.51,247.93L150.99,246.93L150.99,252.118L149.094,252.118L149.094,253.336L154.26,253.336Z" style="fill:#f7c5ad;fill-rule:nonzero;"/>
        <rect x="155.115" y="249.097" width="4.375" height="1.188" style="fill:#f7c5ad;fill-rule:nonzero;"/>
        <path d="M163.031,253.472C164.854,253.472 165.719,252.316 165.719,251.201L165.719,251.013C165.719,250.086 165.24,249.503 164.635,249.191C165.219,248.878 165.667,248.316 165.667,247.42L165.667,247.232C165.667,246.17 164.906,245.076 163.031,245.076C161.156,245.076 160.396,246.17 160.396,247.232L160.396,247.42C160.396,248.316 160.833,248.878 161.427,249.191C160.813,249.503 160.344,250.086 160.344,251.013L160.344,251.201C160.344,252.316 161.208,253.472 163.031,253.472ZM162.938,249.795L163.125,249.795C163.844,249.795 164.333,250.18 164.333,250.941L164.333,251.066C164.333,251.899 163.74,252.253 163.083,252.253L162.979,252.253C162.323,252.253 161.729,251.899 161.729,251.066L161.729,250.941C161.729,250.18 162.219,249.795 162.938,249.795ZM163.083,246.295C163.792,246.295 164.281,246.722 164.281,247.399L164.281,247.482C164.281,248.232 163.802,248.586 163.094,248.586L162.969,248.586C162.26,248.586 161.781,248.232 161.781,247.482L161.781,247.399C161.781,246.722 162.271,246.295 162.979,246.295L163.083,246.295Z" style="fill:#f7c5ad;fill-rule:nonzero;"/>
        <path d="M60.464,250.597L59.089,250.597L59.089,250.732C59.089,252.368 59.974,253.336 61.776,253.336C63.599,253.336 64.464,252.17 64.464,251.055L64.464,250.868C64.464,249.941 63.995,249.357 63.38,249.055C63.964,248.753 64.411,248.191 64.411,247.295L64.411,247.107C64.411,246.045 63.651,244.941 61.776,244.941C59.974,244.941 59.141,245.847 59.141,247.566L59.141,247.784L60.516,247.784C60.516,246.597 60.953,246.159 61.724,246.159L61.828,246.159C62.536,246.159 63.026,246.597 63.026,247.274L63.026,247.368C63.026,248.107 62.547,248.451 61.839,248.451L60.734,248.451L60.734,249.659L61.87,249.659C62.589,249.659 63.078,250.034 63.078,250.795L63.078,250.92C63.078,251.753 62.484,252.118 61.828,252.118L61.724,252.118C60.984,252.118 60.464,251.701 60.464,250.597Z" style="fill:#f7c5ad;fill-rule:nonzero;"/>
        <rect x="65.318" y="248.961" width="4.375" height="1.188" style="fill:#f7c5ad;fill-rule:nonzero;"/>
        <path d="M75.536,244.941C74.005,244.941 72.609,245.326 71.714,246.524C70.849,247.68 70.568,248.961 70.568,250.253L70.568,250.388C70.568,252.191 71.578,253.336 73.255,253.336C74.974,253.336 75.932,252.388 75.932,250.743L75.932,250.638C75.932,249.003 74.984,248.086 73.609,248.086C73.005,248.086 72.526,248.284 72.151,248.576C72.286,248.097 72.495,247.67 72.786,247.295C73.422,246.503 74.37,246.18 75.536,246.18L75.536,244.941ZM73.276,249.295L73.328,249.295C74.047,249.295 74.557,249.711 74.557,250.597L74.557,250.795C74.557,251.638 74.016,252.118 73.286,252.118L73.224,252.118C72.516,252.118 71.943,251.545 71.943,250.493L71.943,250.086C72.224,249.576 72.734,249.295 73.276,249.295Z" style="fill:#f7c5ad;fill-rule:nonzero;"/>
        <path d="M19.203,252.413L19.203,251.194L17.307,251.194L17.307,244.267L16.307,244.267L13.776,245.996L14.453,247.007L15.932,246.007L15.932,251.194L14.036,251.194L14.036,252.413L19.203,252.413Z" style="fill:#f7c5ad;fill-rule:nonzero;"/>
        <rect x="20.057" y="248.173" width="4.375" height="1.188" style="fill:#f7c5ad;fill-rule:nonzero;"/>
        <path d="M29.766,252.413L29.766,250.517L30.797,250.517L30.797,249.309L29.766,249.309L29.766,244.288L28.464,244.288L25.151,249.569L25.151,250.517L28.391,250.517L28.391,252.413L29.766,252.413ZM28.411,246.496L28.391,247.236L28.391,249.309L27.266,249.309L26.62,249.319L28.411,246.496Z" style="fill:#f7c5ad;fill-rule:nonzero;"/>
        <path d="M143.411,179.336L144.974,179.336L146.495,176.086L148.036,179.336L149.589,179.336L147.495,175.107L149.589,171.211L147.964,171.211L146.505,174.138L145.036,171.211L143.411,171.211L145.505,175.118L143.411,179.336Z" style="fill:#f7c5ad;fill-rule:nonzero;"/>
        <path d="M153.089,179.472C155.12,179.472 156.089,178.295 156.089,175.482L156.089,175.066C156.089,172.253 155.12,171.076 153.089,171.076C151.047,171.076 150.078,172.253 150.078,175.066L150.078,175.482C150.078,178.295 151.047,179.472 153.089,179.472ZM153.036,178.253C151.901,178.253 151.505,177.316 151.505,175.482L151.505,175.066C151.505,173.232 151.901,172.295 153.036,172.295L153.13,172.295C154.266,172.295 154.661,173.232 154.661,175.066L154.661,175.482C154.661,177.316 154.266,178.253 153.13,178.253L153.036,178.253Z" style="fill:#f7c5ad;fill-rule:nonzero;"/>
        <path d="M158.578,176.305L159.766,176.305L160.932,179.336L162.443,179.336L161.12,176.086C161.859,175.795 162.443,175.159 162.443,173.857L162.443,173.649C162.443,171.586 160.995,171.211 159.724,171.211L157.182,171.211L157.182,179.336L158.578,179.336L158.578,176.305ZM158.578,175.086L158.578,172.43L159.776,172.43C160.318,172.43 161.026,172.628 161.026,173.701L161.026,173.816C161.026,174.888 160.318,175.086 159.776,175.086L158.578,175.086Z" style="fill:#f7c5ad;fill-rule:nonzero;"/>
        <path d="M165.63,171.211L165.63,179.336L168.224,179.336C169.557,179.336 170.891,178.899 170.891,177.055L170.891,176.847C170.891,175.92 170.411,175.42 169.776,175.149C170.307,174.878 170.682,174.409 170.682,173.607L170.682,173.399C170.682,171.618 169.411,171.211 168.12,171.211L165.63,171.211ZM168.276,175.784C168.88,175.784 169.474,176.055 169.474,176.899L169.474,177.013C169.474,177.847 168.88,178.118 168.276,178.118L167.026,178.118L167.026,175.784L168.276,175.784ZM168.12,172.43C168.703,172.43 169.266,172.649 169.266,173.43L169.266,173.566C169.266,174.347 168.703,174.566 168.12,174.566L167.026,174.566L167.026,172.43L168.12,172.43Z" style="fill:#f7c5ad;fill-rule:nonzero;"/>
        <path d="M98.604,180.201L100.167,180.201L101.688,176.951L103.229,180.201L104.781,180.201L102.688,175.972L104.781,172.076L103.156,172.076L101.698,175.003L100.229,172.076L98.604,172.076L100.698,175.982L98.604,180.201Z" style="fill:#f7c5ad;fill-rule:nonzero;"/>
        <path d="M108.281,180.336C110.313,180.336 111.281,179.159 111.281,176.347L111.281,175.93C111.281,173.118 110.313,171.941 108.281,171.941C106.24,171.941 105.271,173.118 105.271,175.93L105.271,176.347C105.271,179.159 106.24,180.336 108.281,180.336ZM108.229,179.118C107.094,179.118 106.698,178.18 106.698,176.347L106.698,175.93C106.698,174.097 107.094,173.159 108.229,173.159L108.323,173.159C109.458,173.159 109.854,174.097 109.854,175.93L109.854,176.347C109.854,178.18 109.458,179.118 108.323,179.118L108.229,179.118Z" style="fill:#f7c5ad;fill-rule:nonzero;"/>
        <path d="M113.771,177.17L114.958,177.17L116.125,180.201L117.635,180.201L116.313,176.951C117.052,176.659 117.635,176.024 117.635,174.722L117.635,174.513C117.635,172.451 116.188,172.076 114.917,172.076L112.375,172.076L112.375,180.201L113.771,180.201L113.771,177.17ZM113.771,175.951L113.771,173.295L114.969,173.295C115.51,173.295 116.219,173.493 116.219,174.566L116.219,174.68C116.219,175.753 115.51,175.951 114.969,175.951L113.771,175.951Z" style="fill:#f7c5ad;fill-rule:nonzero;"/>
        <path d="M122.385,172.034L120.25,180.201L121.76,180.201L122.208,178.347L124.5,178.347L124.948,180.201L126.448,180.201L124.313,172.034L122.385,172.034ZM123.354,173.628L124.198,177.128L122.5,177.128L123.354,173.628Z" style="fill:#f7c5ad;fill-rule:nonzero;"/>
        <path d="M14.979,176.347L14.979,175.93C14.979,174.097 15.354,173.159 16.51,173.159L16.604,173.159C17.594,173.159 17.917,173.836 17.917,175.128L19.323,175.128L19.323,174.774C19.323,172.795 18.385,171.941 16.521,171.941C14.49,171.941 13.552,173.118 13.552,175.93L13.552,176.347C13.552,179.159 14.49,180.336 16.521,180.336C18.385,180.336 19.323,179.482 19.323,177.566L19.323,177.461L17.917,177.461C17.917,178.482 17.552,179.118 16.604,179.118L16.51,179.118C15.344,179.118 14.979,178.18 14.979,176.347Z" style="fill:#f7c5ad;fill-rule:nonzero;"/>
        <path d="M24.927,180.201L24.927,178.982L21.792,178.982L21.792,172.076L20.396,172.076L20.396,180.201L24.927,180.201Z" style="fill:#f7c5ad;fill-rule:nonzero;"/>
        <path d="M27.115,172.076L25.719,172.076L25.719,180.201L27.115,180.201L27.115,177.805L27.938,176.638L29.583,180.201L31.135,180.201L28.823,175.378L31.135,172.076L29.448,172.076L27.115,175.67L27.115,172.076Z" style="fill:#f7c5ad;fill-rule:nonzero;"/>
        <path d="M26.462,12.707C26.762,10.457 27.179,9.007 28.762,9.007L28.946,9.007C30.196,9.007 30.312,10.007 30.112,11.507L33.279,11.507L33.362,10.857C33.762,7.723 32.212,6.273 29.046,6.273C25.546,6.273 23.846,8.207 23.246,12.707L23.162,13.34C22.562,17.84 24.129,19.74 27.629,19.74C30.546,19.74 32.429,18.523 32.796,15.157L32.812,15.007L29.646,15.007C29.496,16.173 29.012,17.007 27.896,17.007L27.712,17.007C26.212,17.007 26.079,15.607 26.379,13.34L26.462,12.707Z" style="fill:#f7c5ad;fill-rule:nonzero;"/>
        <path d="M40.046,6.273C36.546,6.273 34.846,8.207 34.246,12.707L34.162,13.34C33.562,17.84 35.129,19.74 38.629,19.74C42.129,19.74 43.812,17.807 44.412,13.307L44.496,12.673C45.096,8.173 43.546,6.273 40.046,6.273ZM38.712,17.007C37.212,17.007 37.079,15.607 37.379,13.34L37.462,12.707C37.762,10.44 38.262,9.007 39.762,9.007L39.946,9.007C41.446,9.007 41.579,10.407 41.279,12.673L41.196,13.307C40.896,15.573 40.396,17.007 38.896,17.007L38.712,17.007Z" style="fill:#f7c5ad;fill-rule:nonzero;"/>
        <path d="M50.129,19.74C52.596,19.74 53.879,19.023 54.879,18.207L55.662,12.273L50.929,12.273L50.562,15.007L52.129,15.007L51.912,16.673C51.579,16.857 50.962,17.007 50.479,17.007L50.296,17.007C48.712,17.007 48.412,15.607 48.712,13.34L48.796,12.707C49.096,10.457 49.612,9.007 51.196,9.007L51.379,9.007C52.629,9.007 52.812,10.007 52.612,11.507L55.779,11.507L55.862,10.857C56.262,7.723 54.662,6.273 51.479,6.273C47.979,6.273 46.179,8.207 45.579,12.707L45.496,13.34C44.896,17.84 46.629,19.74 50.129,19.74Z" style="fill:#f7c5ad;fill-rule:nonzero;"/>
        <path d="M67.846,6.507L64.846,6.507L64.229,11.173L63.996,13.673L61.346,6.507L58.012,6.507L56.312,19.507L59.312,19.507L59.912,14.84L60.162,12.34L62.812,19.507L66.146,19.507L67.846,6.507Z" style="fill:#f7c5ad;fill-rule:nonzero;"/>
        <path d="M72.762,6.507L69.596,6.507L67.896,19.507L71.062,19.507L72.762,6.507Z" style="fill:#f7c5ad;fill-rule:nonzero;"/>
        <path d="M79.662,9.24L82.579,9.24L82.929,6.507L73.929,6.507L73.579,9.24L76.496,9.24L75.146,19.507L78.312,19.507L79.662,9.24Z" style="fill:#f7c5ad;fill-rule:nonzero;"/>
        <path d="M87.262,6.507L84.096,6.507L82.396,19.507L85.562,19.507L87.262,6.507Z" style="fill:#f7c5ad;fill-rule:nonzero;"/>
        <path d="M94.062,19.507L98.862,6.507L95.462,6.507L92.362,15.84L91.712,6.507L88.329,6.507L89.729,19.507L94.062,19.507Z" style="fill:#f7c5ad;fill-rule:nonzero;"/>
        <path d="M99.846,6.507L98.146,19.507L106.312,19.507L106.662,16.773L101.662,16.773L101.996,14.24L106.162,14.24L106.529,11.507L102.362,11.507L102.662,9.24L107.662,9.24L108.012,6.507L99.846,6.507Z" style="fill:#f7c5ad;fill-rule:nonzero;"/>
        <path d="M115.746,14.273C117.512,14.507 117.829,15.023 117.762,15.673L117.746,15.84C117.679,16.473 117.196,17.007 116.112,17.007L115.946,17.007C114.862,17.007 114.379,16.44 114.562,15.007L111.396,15.007L111.362,15.273C110.979,18.29 112.612,19.74 115.779,19.74C118.846,19.74 120.679,18.44 120.946,15.99L120.979,15.69C121.262,13.207 120.029,12.107 117.246,11.723C115.529,11.49 115.246,11.04 115.312,10.34L115.329,10.173C115.396,9.523 115.929,9.007 116.846,9.007L117.012,9.007C118.179,9.007 118.512,9.707 118.312,11.173L121.479,11.173L121.529,10.773C121.896,7.807 120.546,6.273 117.296,6.273C114.046,6.273 112.362,7.84 112.112,10.14L112.079,10.44C111.812,12.79 112.962,13.907 115.746,14.273Z" style="fill:#f7c5ad;fill-rule:nonzero;"/>
        <path d="M129.846,6.507L129.196,11.507L126.029,11.507L126.679,6.507L123.512,6.507L121.812,19.507L124.979,19.507L125.662,14.24L128.829,14.24L128.146,19.507L131.312,19.507L133.012,6.507L129.846,6.507Z" style="fill:#f7c5ad;fill-rule:nonzero;"/>
        <path d="M137.929,6.507L134.762,6.507L133.062,19.507L136.229,19.507L137.929,6.507Z" style="fill:#f7c5ad;fill-rule:nonzero;"/>
        <path d="M139.679,6.507L137.979,19.507L141.146,19.507L141.829,14.24L145.996,14.24L146.362,11.507L142.196,11.507L142.496,9.24L147.496,9.24L147.846,6.507L139.679,6.507Z" style="fill:#f7c5ad;fill-rule:nonzero;"/>
        <path d="M154.162,9.24L157.079,9.24L157.429,6.507L148.429,6.507L148.079,9.24L150.996,9.24L149.646,19.507L152.812,19.507L154.162,9.24Z" style="fill:#f7c5ad;fill-rule:nonzero;"/>
        <path d="M72.327,375.731C75.077,375.731 76.287,375.117 76.507,373.302L74.178,373.302C73.977,373.953 73.546,374.136 71.96,374.136L71.74,374.136C69.797,374.136 69.476,373.724 69.476,372.541L69.476,372.33C69.476,371.13 69.797,370.726 71.74,370.726L71.96,370.726C73.546,370.726 73.977,370.91 74.178,371.56L76.507,371.56C76.287,369.745 75.077,369.131 72.327,369.131L71.373,369.131C68.321,369.131 67.157,369.874 67.157,372.23L67.157,372.633C67.157,374.989 68.321,375.731 71.373,375.731L72.327,375.731Z" style="fill:#f7c5ad;fill-rule:nonzero;"/>
        <path d="M85.133,374.127L79.724,374.127L79.724,373.183L85.133,373.183L85.133,371.67L79.724,371.67L79.724,370.735L85.133,370.735L85.133,369.223L77.451,369.223L77.451,375.64L85.133,375.64L85.133,374.127Z" style="fill:#f7c5ad;fill-rule:nonzero;"/>
        <path d="M93.52,373.925L88.515,373.925L88.515,369.223L86.242,369.223L86.242,375.64L93.52,375.64L93.52,373.925Z" style="fill:#f7c5ad;fill-rule:nonzero;"/>
        <path d="M101.596,373.925L96.591,373.925L96.591,369.223L94.318,369.223L94.318,375.64L101.596,375.64L101.596,373.925Z" style="fill:#f7c5ad;fill-rule:nonzero;"/>
        <path d="M109.094,369.223L105.611,369.223L101.862,375.64L104.373,375.64L105.098,374.365L109.516,374.365L110.249,375.64L112.843,375.64L109.094,369.223ZM107.353,370.58L108.654,372.853L105.959,372.853L107.27,370.58L107.353,370.58Z" style="fill:#f7c5ad;fill-rule:nonzero;"/>
        <path d="M18.302,352.261L20.115,352.261L21.51,344.094L20.052,344.094L19.125,350.386L17.844,344.094L16.083,344.094L14.812,350.386L13.885,344.094L12.427,344.094L13.823,352.261L15.625,352.261L16.969,345.678L18.302,352.261Z" style="fill:#f7c5ad;fill-rule:nonzero;"/>
        <path d="M22.417,344.094L22.417,352.219L27.25,352.219L27.25,351.001L23.812,351.001L23.812,348.678L26.729,348.678L26.729,347.469L23.812,347.469L23.812,345.313L27.25,345.313L27.25,344.094L22.417,344.094Z" style="fill:#f7c5ad;fill-rule:nonzero;"/>
        <path d="M31.198,345.313L33.135,345.313L33.135,344.094L27.865,344.094L27.865,345.313L29.802,345.313L29.802,352.219L31.198,352.219L31.198,345.313Z" style="fill:#f7c5ad;fill-rule:nonzero;"/>
        <g id="SMCTR">
            <path d="M22.5,231.316L22.5,203.809" style="fill:none;stroke:#f7c5ad;stroke-width:0.83px;stroke-linecap:square;"/>
            <path id="line87" d="M22.509,193.956L22.509,191.224" style="fill:none;fill-rule:nonzero;stroke:#f7c5ad;stroke-width:0.61px;stroke-linecap:round;stroke-miterlimit:4;"/>
            <path d="M11.979,213.511C12.325,213.896 12.918,213.928 13.303,213.582C13.688,213.236 13.72,212.643 13.374,212.258C13.028,211.873 12.435,211.841 12.05,212.187C11.665,212.533 11.633,213.126 11.979,213.511Z" style="fill:#f7c5ad;"/>
            <path d="M33.021,213.511C32.675,213.896 32.082,213.928 31.697,213.582C31.312,213.236 31.28,212.643 31.626,212.258C31.972,211.873 32.565,211.841 32.95,212.187C33.335,212.533 33.367,213.126 33.021,213.511Z" style="fill:#f7c5ad;"/>
            <path d="M12.676,212.885C10.575,210.546 9.295,207.453 9.295,204.064C9.295,196.776 15.212,190.859 22.5,190.859C29.788,190.859 35.705,196.776 35.705,204.064C35.705,207.453 34.425,210.546 32.324,212.885" style="fill:none;stroke:#f7c5ad;stroke-width:0.63px;stroke-linecap:square;"/>
        </g>
        <g id="SMCTR1" serif:id="SMCTR">
            <path d="M67.5,231.316L67.5,203.809" style="fill:none;stroke:#f7c5ad;stroke-width:0.83px;stroke-linecap:square;"/>
            <path id="line871" serif:id="line87" d="M67.509,193.956L67.509,191.224" style="fill:none;fill-rule:nonzero;stroke:#f7c5ad;stroke-width:0.61px;stroke-linecap:round;stroke-miterlimit:4;"/>
            <path d="M56.979,213.511C57.325,213.896 57.918,213.928 58.303,213.582C58.688,213.236 58.72,212.643 58.374,212.258C58.028,211.873 57.435,211.841 57.05,212.187C56.665,212.533 56.633,213.126 56.979,213.511Z" style="fill:#f7c5ad;"/>
            <path d="M78.021,213.511C77.675,213.896 77.082,213.928 76.697,213.582C76.312,213.236 76.28,212.643 76.626,212.258C76.972,211.873 77.565,211.841 77.95,212.187C78.335,212.533 78.367,213.126 78.021,213.511Z" style="fill:#f7c5ad;"/>
            <path d="M57.676,212.885C55.575,210.546 54.295,207.453 54.295,204.064C54.295,196.776 60.212,190.859 67.5,190.859C74.788,190.859 80.705,196.776 80.705,204.064C80.705,207.453 79.425,210.546 77.324,212.885" style="fill:none;stroke:#f7c5ad;stroke-width:0.63px;stroke-linecap:square;"/>
        </g>
        <g id="SMCTR2" serif:id="SMCTR">
            <path id="line872" serif:id="line87" d="M112.509,93.974L112.509,91.242" style="fill:none;fill-rule:nonzero;stroke:#f7c5ad;stroke-width:0.61px;stroke-linecap:round;stroke-miterlimit:4;"/>
            <path d="M101.979,113.529C102.325,113.914 102.918,113.946 103.303,113.6C103.688,113.254 103.72,112.661 103.374,112.276C103.028,111.891 102.435,111.859 102.05,112.205C101.665,112.551 101.633,113.144 101.979,113.529Z" style="fill:#f7c5ad;"/>
            <path d="M123.021,113.529C122.675,113.914 122.082,113.946 121.697,113.6C121.312,113.254 121.28,112.661 121.626,112.276C121.972,111.891 122.565,111.859 122.95,112.205C123.335,112.551 123.367,113.144 123.021,113.529Z" style="fill:#f7c5ad;"/>
            <path d="M102.676,112.903C100.575,110.564 99.295,107.471 99.295,104.082C99.295,96.794 105.212,90.877 112.5,90.877C119.788,90.877 125.705,96.794 125.705,104.082C125.705,107.471 124.425,110.564 122.324,112.903" style="fill:none;stroke:#f7c5ad;stroke-width:0.63px;stroke-linecap:square;"/>
        </g>
        <g id="SMCTR3" serif:id="SMCTR">
            <path d="M157.5,231.316L157.5,203.809" style="fill:none;stroke:#f7c5ad;stroke-width:0.83px;stroke-linecap:square;"/>
            <path id="line873" serif:id="line87" d="M157.509,193.956L157.509,191.224" style="fill:none;fill-rule:nonzero;stroke:#f7c5ad;stroke-width:0.61px;stroke-linecap:round;stroke-miterlimit:4;"/>
            <path d="M146.979,213.511C147.325,213.896 147.918,213.928 148.303,213.582C148.688,213.236 148.72,212.643 148.374,212.258C148.028,211.873 147.435,211.841 147.05,212.187C146.665,212.533 146.633,213.126 146.979,213.511Z" style="fill:#f7c5ad;"/>
            <path d="M168.021,213.511C167.675,213.896 167.082,213.928 166.697,213.582C166.312,213.236 166.28,212.643 166.626,212.258C166.972,211.873 167.565,211.841 167.95,212.187C168.335,212.533 168.367,213.126 168.021,213.511Z" style="fill:#f7c5ad;"/>
            <path d="M147.676,212.885C145.575,210.546 144.295,207.453 144.295,204.064C144.295,196.776 150.212,190.859 157.5,190.859C164.788,190.859 170.705,196.776 170.705,204.064C170.705,207.453 169.425,210.546 167.324,212.885" style="fill:none;stroke:#f7c5ad;stroke-width:0.63px;stroke-linecap:square;"/>
        </g>
        <path d="M25.432,301.622L25.432,300.403L23.536,300.403L23.536,293.476L22.536,293.476L20.005,295.205L20.682,296.215L22.161,295.215L22.161,300.403L20.266,300.403L20.266,301.622L25.432,301.622Z" style="fill:#f7c5ad;fill-rule:nonzero;"/>
        <path d="M9.168,126.121L9.168,125.704C9.168,123.871 9.543,122.933 10.699,122.933L10.793,122.933C11.782,122.933 12.105,123.61 12.105,124.902L13.512,124.902L13.512,124.548C13.512,122.569 12.574,121.715 10.709,121.715C8.678,121.715 7.741,122.892 7.741,125.704L7.741,126.121C7.741,128.933 8.678,130.11 10.709,130.11C12.574,130.11 13.512,129.256 13.512,127.34L13.512,127.235L12.105,127.235C12.105,128.256 11.741,128.892 10.793,128.892L10.699,128.892C9.532,128.892 9.168,127.954 9.168,126.121Z" style="fill:#f7c5ad;fill-rule:nonzero;"/>
        <path d="M19.116,129.975L19.116,128.756L15.98,128.756L15.98,121.85L14.584,121.85L14.584,129.975L19.116,129.975Z" style="fill:#f7c5ad;fill-rule:nonzero;"/>
        <path d="M19.907,121.85L19.907,129.975L24.741,129.975L24.741,128.756L21.303,128.756L21.303,126.433L24.22,126.433L24.22,125.225L21.303,125.225L21.303,123.069L24.741,123.069L24.741,121.85L19.907,121.85Z" style="fill:#f7c5ad;fill-rule:nonzero;"/>
        <path d="M27.48,121.808L25.345,129.975L26.855,129.975L27.303,128.121L29.595,128.121L30.043,129.975L31.543,129.975L29.407,121.808L27.48,121.808ZM28.449,123.402L29.293,126.902L27.595,126.902L28.449,123.402Z" style="fill:#f7c5ad;fill-rule:nonzero;"/>
        <path d="M33.762,126.944L34.949,126.944L36.116,129.975L37.626,129.975L36.303,126.725C37.043,126.433 37.626,125.798 37.626,124.496L37.626,124.288C37.626,122.225 36.178,121.85 34.907,121.85L32.366,121.85L32.366,129.975L33.762,129.975L33.762,126.944ZM33.762,125.725L33.762,123.069L34.959,123.069C35.501,123.069 36.209,123.267 36.209,124.34L36.209,124.454C36.209,125.527 35.501,125.725 34.959,125.725L33.762,125.725Z" style="fill:#f7c5ad;fill-rule:nonzero;"/>
        <path d="M70.193,123.069L72.13,123.069L72.13,121.85L66.859,121.85L66.859,123.069L68.797,123.069L68.797,129.975L70.193,129.975L70.193,123.069Z" style="fill:#f7c5ad;fill-rule:nonzero;"/>
        <path d="M77.12,121.85L77.12,125.225L74.359,125.225L74.359,121.85L72.964,121.85L72.964,129.975L74.359,129.975L74.359,126.433L77.12,126.433L77.12,129.975L78.516,129.975L78.516,121.85L77.12,121.85Z" style="fill:#f7c5ad;fill-rule:nonzero;"/>
        <path d="M81.182,126.944L82.37,126.944L83.536,129.975L85.047,129.975L83.724,126.725C84.464,126.433 85.047,125.798 85.047,124.496L85.047,124.288C85.047,122.225 83.599,121.85 82.328,121.85L79.786,121.85L79.786,129.975L81.182,129.975L81.182,126.944ZM81.182,125.725L81.182,123.069L82.38,123.069C82.922,123.069 83.63,123.267 83.63,124.34L83.63,124.454C83.63,125.527 82.922,125.725 82.38,125.725L81.182,125.725Z" style="fill:#f7c5ad;fill-rule:nonzero;"/>
        <path d="M86.151,121.85L86.151,129.975L90.984,129.975L90.984,128.756L87.547,128.756L87.547,126.433L90.464,126.433L90.464,125.225L87.547,125.225L87.547,123.069L90.984,123.069L90.984,121.85L86.151,121.85Z" style="fill:#f7c5ad;fill-rule:nonzero;"/>
        <path d="M94.422,126.433C95.661,126.6 96.057,126.975 96.057,127.683L96.057,127.746C96.057,128.423 95.557,128.892 94.682,128.892L94.589,128.892C93.714,128.892 93.182,128.392 93.182,127.235L91.786,127.235L91.786,127.34C91.786,129.204 92.776,130.11 94.641,130.11C96.453,130.11 97.484,129.215 97.484,127.694L97.484,127.579C97.484,126.152 96.641,125.517 94.87,125.277C93.589,125.1 93.286,124.725 93.286,124.058L93.286,123.996C93.286,123.36 93.786,122.933 94.557,122.933L94.651,122.933C95.62,122.933 96.016,123.475 96.016,124.694L97.411,124.694L97.411,124.454C97.411,122.621 96.568,121.715 94.641,121.715C92.88,121.715 91.859,122.631 91.859,124.069L91.859,124.173C91.859,125.517 92.651,126.194 94.422,126.433Z" style="fill:#f7c5ad;fill-rule:nonzero;"/>
        <path d="M101.839,126.121L101.839,125.704C101.839,123.871 102.214,122.933 103.37,122.933L103.464,122.933C104.453,122.933 104.776,123.61 104.776,124.902L106.182,124.902L106.182,124.548C106.182,122.569 105.245,121.715 103.38,121.715C101.349,121.715 100.411,122.892 100.411,125.704L100.411,126.121C100.411,128.933 101.349,130.11 103.38,130.11C105.245,130.11 106.182,129.256 106.182,127.34L106.182,127.235L104.776,127.235C104.776,128.256 104.411,128.892 103.464,128.892L103.37,128.892C102.203,128.892 101.839,127.954 101.839,126.121Z" style="fill:#f7c5ad;fill-rule:nonzero;"/>
        <path d="M110.745,130.017L112.88,121.85L111.38,121.85L109.786,128.423L108.182,121.85L106.682,121.85L108.818,130.017L110.745,130.017Z" style="fill:#f7c5ad;fill-rule:nonzero;"/>
        <path d="M9.168,76.128L9.168,75.712C9.168,73.878 9.543,72.941 10.699,72.941L10.793,72.941C11.782,72.941 12.105,73.618 12.105,74.91L13.512,74.91L13.512,74.555C13.512,72.576 12.574,71.722 10.709,71.722C8.678,71.722 7.741,72.899 7.741,75.712L7.741,76.128C7.741,78.941 8.678,80.118 10.709,80.118C12.574,80.118 13.512,79.264 13.512,77.347L13.512,77.243L12.105,77.243C12.105,78.264 11.741,78.899 10.793,78.899L10.699,78.899C9.532,78.899 9.168,77.962 9.168,76.128Z" style="fill:#f7c5ad;fill-rule:nonzero;"/>
        <path d="M19.116,79.983L19.116,78.764L15.98,78.764L15.98,71.858L14.584,71.858L14.584,79.983L19.116,79.983Z" style="fill:#f7c5ad;fill-rule:nonzero;"/>
        <path d="M19.907,71.858L19.907,79.983L24.741,79.983L24.741,78.764L21.303,78.764L21.303,76.441L24.22,76.441L24.22,75.233L21.303,75.233L21.303,73.076L24.741,73.076L24.741,71.858L19.907,71.858Z" style="fill:#f7c5ad;fill-rule:nonzero;"/>
        <path d="M27.48,71.816L25.345,79.983L26.855,79.983L27.303,78.128L29.595,78.128L30.043,79.983L31.543,79.983L29.407,71.816L27.48,71.816ZM28.449,73.41L29.293,76.91L27.595,76.91L28.449,73.41Z" style="fill:#f7c5ad;fill-rule:nonzero;"/>
        <path d="M33.762,76.951L34.949,76.951L36.116,79.983L37.626,79.983L36.303,76.733C37.043,76.441 37.626,75.805 37.626,74.503L37.626,74.295C37.626,72.233 36.178,71.858 34.907,71.858L32.366,71.858L32.366,79.983L33.762,79.983L33.762,76.951ZM33.762,75.733L33.762,73.076L34.959,73.076C35.501,73.076 36.209,73.274 36.209,74.347L36.209,74.462C36.209,75.535 35.501,75.733 34.959,75.733L33.762,75.733Z" style="fill:#f7c5ad;fill-rule:nonzero;"/>
        <path d="M58.678,80.024L60.491,80.024L61.887,71.858L60.428,71.858L59.501,78.149L58.22,71.858L56.459,71.858L55.189,78.149L54.262,71.858L52.803,71.858L54.199,80.024L56.001,80.024L57.345,73.441L58.678,80.024Z" style="fill:#f7c5ad;fill-rule:nonzero;"/>
        <path d="M64.189,76.951L65.376,76.951L66.543,79.983L68.053,79.983L66.73,76.733C67.47,76.441 68.053,75.805 68.053,74.503L68.053,74.295C68.053,72.233 66.605,71.858 65.334,71.858L62.793,71.858L62.793,79.983L64.189,79.983L64.189,76.951ZM64.189,75.733L64.189,73.076L65.387,73.076C65.928,73.076 66.637,73.274 66.637,74.347L66.637,74.462C66.637,75.535 65.928,75.733 65.387,75.733L64.189,75.733Z" style="fill:#f7c5ad;fill-rule:nonzero;"/>
        <rect x="69.209" y="71.858" width="1.396" height="8.125" style="fill:#f7c5ad;fill-rule:nonzero;"/>
        <path d="M74.824,73.076L76.762,73.076L76.762,71.858L71.491,71.858L71.491,73.076L73.428,73.076L73.428,79.983L74.824,79.983L74.824,73.076Z" style="fill:#f7c5ad;fill-rule:nonzero;"/>
        <path d="M77.595,71.858L77.595,79.983L82.428,79.983L82.428,78.764L78.991,78.764L78.991,76.441L81.907,76.441L81.907,75.233L78.991,75.233L78.991,73.076L82.428,73.076L82.428,71.858L77.595,71.858Z" style="fill:#f7c5ad;fill-rule:nonzero;"/>
        <path d="M97.85,71.857L97.85,79.982L102.683,79.982L102.683,78.764L99.246,78.764L99.246,76.441L102.163,76.441L102.163,75.232L99.246,75.232L99.246,73.076L102.683,73.076L102.683,71.857L97.85,71.857Z" style="fill:#f7c5ad;fill-rule:nonzero;"/>
        <path d="M105.131,76.951L106.319,76.951L107.485,79.982L108.996,79.982L107.673,76.732C108.413,76.441 108.996,75.805 108.996,74.503L108.996,74.295C108.996,72.232 107.548,71.857 106.277,71.857L103.735,71.857L103.735,79.982L105.131,79.982L105.131,76.951ZM105.131,75.732L105.131,73.076L106.329,73.076C106.871,73.076 107.579,73.274 107.579,74.347L107.579,74.462C107.579,75.535 106.871,75.732 106.329,75.732L105.131,75.732Z" style="fill:#f7c5ad;fill-rule:nonzero;"/>
        <path d="M111.683,71.816L109.548,79.982L111.058,79.982L111.506,78.128L113.798,78.128L114.246,79.982L115.746,79.982L113.61,71.816L111.683,71.816ZM112.652,73.41L113.496,76.91L111.798,76.91L112.652,73.41Z" style="fill:#f7c5ad;fill-rule:nonzero;"/>
        <path d="M118.829,76.441C120.069,76.607 120.465,76.982 120.465,77.691L120.465,77.753C120.465,78.43 119.965,78.899 119.09,78.899L118.996,78.899C118.121,78.899 117.59,78.399 117.59,77.243L116.194,77.243L116.194,77.347C116.194,79.212 117.183,80.118 119.048,80.118C120.86,80.118 121.892,79.222 121.892,77.701L121.892,77.587C121.892,76.16 121.048,75.524 119.277,75.285C117.996,75.107 117.694,74.732 117.694,74.066L117.694,74.003C117.694,73.368 118.194,72.941 118.965,72.941L119.058,72.941C120.027,72.941 120.423,73.482 120.423,74.701L121.819,74.701L121.819,74.462C121.819,72.628 120.975,71.722 119.048,71.722C117.288,71.722 116.267,72.639 116.267,74.076L116.267,74.18C116.267,75.524 117.058,76.201 118.829,76.441Z" style="fill:#f7c5ad;fill-rule:nonzero;"/>
        <path d="M122.913,71.857L122.913,79.982L127.746,79.982L127.746,78.764L124.308,78.764L124.308,76.441L127.225,76.441L127.225,75.232L124.308,75.232L124.308,73.076L127.746,73.076L127.746,71.857L122.913,71.857Z" style="fill:#f7c5ad;fill-rule:nonzero;"/>
        <rect x="144.116" y="71.857" width="1.396" height="8.125" style="fill:#f7c5ad;fill-rule:nonzero;"/>
        <path d="M152.595,71.857L151.272,71.857L151.272,75.743L151.314,77.462L148.314,71.857L146.834,71.857L146.834,79.982L148.157,79.982L148.157,76.097L148.116,74.378L151.116,79.982L152.595,79.982L152.595,71.857Z" style="fill:#f7c5ad;fill-rule:nonzero;"/>
        <path d="M155.262,76.951L156.407,76.951C157.678,76.951 159.126,76.576 159.126,74.503L159.126,74.295C159.126,72.232 157.678,71.857 156.407,71.857L153.866,71.857L153.866,79.982L155.262,79.982L155.262,76.951ZM155.262,75.732L155.262,73.076L156.459,73.076C157.001,73.076 157.709,73.274 157.709,74.347L157.709,74.462C157.709,75.535 157.001,75.732 156.459,75.732L155.262,75.732Z" style="fill:#f7c5ad;fill-rule:nonzero;"/>
        <path d="M162.876,80.118C164.928,80.118 165.699,79.253 165.699,77.43L165.699,71.857L164.303,71.857L164.303,77.378C164.303,78.451 163.918,78.899 162.876,78.899C161.824,78.899 161.439,78.451 161.439,77.378L161.439,71.857L160.043,71.857L160.043,77.43C160.043,79.253 160.814,80.118 162.876,80.118Z" style="fill:#f7c5ad;fill-rule:nonzero;"/>
        <path d="M169.814,73.076L171.751,73.076L171.751,71.857L166.48,71.857L166.48,73.076L168.418,73.076L168.418,79.982L169.814,79.982L169.814,73.076Z" style="fill:#f7c5ad;fill-rule:nonzero;"/>
        <path d="M61.656,176.347L61.656,175.93C61.656,173.118 60.604,172.076 58.323,172.076L55.927,172.076L55.927,180.201L58.323,180.201C60.604,180.201 61.656,179.159 61.656,176.347ZM57.323,178.982L57.323,173.295L58.24,173.295C59.687,173.295 60.229,174.097 60.229,175.93L60.229,176.347C60.229,178.18 59.687,178.982 58.24,178.982L57.323,178.982Z" style="fill:#f7c5ad;fill-rule:nonzero;"/>
        <path d="M64.312,172.034L62.177,180.201L63.687,180.201L64.135,178.347L66.427,178.347L66.875,180.201L68.375,180.201L66.24,172.034L64.312,172.034ZM65.281,173.628L66.125,177.128L64.427,177.128L65.281,173.628Z" style="fill:#f7c5ad;fill-rule:nonzero;"/>
        <path d="M71.552,173.295L73.49,173.295L73.49,172.076L68.219,172.076L68.219,173.295L70.156,173.295L70.156,180.201L71.552,180.201L71.552,173.295Z" style="fill:#f7c5ad;fill-rule:nonzero;"/>
        <path d="M75.469,172.034L73.333,180.201L74.844,180.201L75.292,178.347L77.583,178.347L78.031,180.201L79.531,180.201L77.396,172.034L75.469,172.034ZM76.437,173.628L77.281,177.128L75.583,177.128L76.437,173.628Z" style="fill:#f7c5ad;fill-rule:nonzero;"/>
        <path d="M83.25,317.8C83.25,316.255 81.995,315 80.45,315L54.55,315C53.005,315 51.75,316.255 51.75,317.8L51.75,352.2C51.75,353.745 53.005,355 54.55,355L80.45,355C81.995,355 83.25,353.745 83.25,352.2L83.25,317.8Z" style="fill:#79305a;"/>
        <path d="M38.531,317.8C38.531,316.255 37.277,315 35.731,315L9.831,315C8.286,315 7.031,316.255 7.031,317.8L7.031,352.2C7.031,353.745 8.286,355 9.831,355L35.731,355C37.277,355 38.531,353.745 38.531,352.2L38.531,317.8Z" style="fill:#79305a;"/>
        <path d="M69.766,343.959C68.234,343.959 66.839,344.344 65.943,345.542C65.078,346.699 64.797,347.98 64.797,349.271L64.797,349.407C64.797,351.209 65.807,352.355 67.484,352.355C69.203,352.355 70.161,351.407 70.161,349.761L70.161,349.657C70.161,348.021 69.214,347.105 67.839,347.105C67.234,347.105 66.755,347.303 66.38,347.594C66.516,347.115 66.724,346.688 67.016,346.313C67.651,345.521 68.599,345.199 69.766,345.199L69.766,343.959ZM67.505,348.313L67.557,348.313C68.276,348.313 68.786,348.73 68.786,349.615L68.786,349.813C68.786,350.657 68.245,351.136 67.516,351.136L67.453,351.136C66.745,351.136 66.172,350.563 66.172,349.511L66.172,349.105C66.453,348.594 66.964,348.313 67.505,348.313Z" style="fill:#f7c5ad;fill-rule:nonzero;"/>
        <path d="M20.057,349.615L20.057,349.751C20.057,351.386 20.943,352.355 22.745,352.355C24.432,352.355 25.432,351.376 25.432,349.751L25.432,349.584C25.432,347.959 24.432,346.98 22.807,346.98C22.276,346.98 21.786,347.115 21.391,347.334L21.484,345.313L25.328,345.313L25.328,344.094L20.318,344.094L20.12,348.584L21.297,348.98C21.547,348.449 22.13,348.199 22.661,348.199L22.734,348.199C23.453,348.199 24.047,348.594 24.047,349.594L24.047,349.74C24.047,350.74 23.453,351.136 22.797,351.136L22.693,351.136C21.953,351.136 21.432,350.719 21.432,349.615L20.057,349.615Z" style="fill:#f7c5ad;fill-rule:nonzero;"/>
        <path d="M104.089,250.597L104.089,250.732C104.089,252.368 104.974,253.336 106.776,253.336C108.464,253.336 109.464,252.357 109.464,250.732L109.464,250.566C109.464,248.941 108.464,247.961 106.839,247.961C106.307,247.961 105.818,248.097 105.422,248.316L105.516,246.295L109.359,246.295L109.359,245.076L104.349,245.076L104.151,249.566L105.328,249.961C105.578,249.43 106.161,249.18 106.693,249.18L106.766,249.18C107.484,249.18 108.078,249.576 108.078,250.576L108.078,250.722C108.078,251.722 107.484,252.118 106.828,252.118L106.724,252.118C105.984,252.118 105.464,251.701 105.464,250.597L104.089,250.597Z" style="fill:#f7c5ad;fill-rule:nonzero;"/>
        <rect x="110.318" y="248.961" width="4.375" height="1.188" style="fill:#f7c5ad;fill-rule:nonzero;"/>
        <path d="M118.234,253.336C120.057,253.336 120.922,252.18 120.922,251.066L120.922,250.878C120.922,249.951 120.443,249.368 119.839,249.055C120.422,248.743 120.87,248.18 120.87,247.284L120.87,247.097C120.87,246.034 120.109,244.941 118.234,244.941C116.359,244.941 115.599,246.034 115.599,247.097L115.599,247.284C115.599,248.18 116.036,248.743 116.63,249.055C116.016,249.368 115.547,249.951 115.547,250.878L115.547,251.066C115.547,252.18 116.411,253.336 118.234,253.336ZM118.141,249.659L118.328,249.659C119.047,249.659 119.536,250.045 119.536,250.805L119.536,250.93C119.536,251.763 118.943,252.118 118.286,252.118L118.182,252.118C117.526,252.118 116.932,251.763 116.932,250.93L116.932,250.805C116.932,250.045 117.422,249.659 118.141,249.659ZM118.286,246.159C118.995,246.159 119.484,246.586 119.484,247.263L119.484,247.347C119.484,248.097 119.005,248.451 118.297,248.451L118.172,248.451C117.464,248.451 116.984,248.097 116.984,247.347L116.984,247.263C116.984,246.586 117.474,246.159 118.182,246.159L118.286,246.159Z" style="fill:#f7c5ad;fill-rule:nonzero;"/>
        <path d="M83.25,267.204C83.25,265.659 81.995,264.404 80.45,264.404L54.55,264.404C53.005,264.404 51.75,265.659 51.75,267.204L51.75,301.604C51.75,303.149 53.005,304.404 54.55,304.404L80.45,304.404C81.995,304.404 83.25,303.149 83.25,301.604L83.25,267.204Z" style="fill:#79305a;"/>
        <path d="M67.557,300.403L66.828,300.413L69.172,297.861C69.818,297.163 70.099,296.684 70.099,295.767L70.099,295.59C70.099,294.465 69.339,293.361 67.464,293.361C65.661,293.361 64.828,294.267 64.828,295.986L64.828,296.205L66.203,296.205C66.203,295.017 66.651,294.58 67.422,294.58L67.505,294.58C68.214,294.58 68.714,295.017 68.714,295.84L68.714,295.945C68.714,296.434 68.526,296.747 68.089,297.215L64.828,300.757L64.828,301.622L70.099,301.622L70.099,300.403L67.557,300.403Z" style="fill:#f7c5ad;fill-rule:nonzero;"/>
        <path d="M128.25,267.113C128.25,265.567 126.995,264.313 125.45,264.313L99.55,264.313C98.005,264.313 96.75,265.567 96.75,267.113L96.75,301.513C96.75,303.058 98.005,304.313 99.55,304.313L125.45,304.313C126.995,304.313 128.25,303.058 128.25,301.513L128.25,267.113Z" style="fill:#79305a;"/>
        <path d="M111.151,299.49L109.776,299.49L109.776,299.625C109.776,301.26 110.661,302.229 112.464,302.229C114.286,302.229 115.151,301.062 115.151,299.948L115.151,299.76C115.151,298.833 114.682,298.25 114.068,297.948C114.651,297.646 115.099,297.083 115.099,296.187L115.099,296C115.099,294.937 114.339,293.833 112.464,293.833C110.661,293.833 109.828,294.74 109.828,296.458L109.828,296.677L111.203,296.677C111.203,295.49 111.641,295.052 112.411,295.052L112.516,295.052C113.224,295.052 113.714,295.49 113.714,296.167L113.714,296.26C113.714,297 113.234,297.344 112.526,297.344L111.422,297.344L111.422,298.552L112.557,298.552C113.276,298.552 113.766,298.927 113.766,299.687L113.766,299.812C113.766,300.646 113.172,301.01 112.516,301.01L112.411,301.01C111.672,301.01 111.151,300.594 111.151,299.49Z" style="fill:#f7c5ad;fill-rule:nonzero;"/>
        <path d="M173.25,266.811C173.25,265.266 171.995,264.011 170.45,264.011L144.55,264.011C143.005,264.011 141.75,265.266 141.75,266.811L141.75,301.211C141.75,302.757 143.005,304.011 144.55,304.011L170.45,304.011C171.995,304.011 173.25,302.757 173.25,301.211L173.25,266.811Z" style="fill:#79305a;"/>
        <path d="M159.255,301.229L159.255,299.333L160.286,299.333L160.286,298.125L159.255,298.125L159.255,293.104L157.953,293.104L154.641,298.385L154.641,299.333L157.88,299.333L157.88,301.229L159.255,301.229ZM157.901,295.312L157.88,296.052L157.88,298.125L156.755,298.125L156.109,298.135L157.901,295.312Z" style="fill:#f7c5ad;fill-rule:nonzero;"/>
        <g id="SMCTR4" serif:id="SMCTR">
            <path d="M112.5,231.316L112.5,203.809" style="fill:none;stroke:#f7c5ad;stroke-width:0.83px;stroke-linecap:square;"/>
            <path id="line874" serif:id="line87" d="M112.509,193.956L112.509,191.224" style="fill:none;fill-rule:nonzero;stroke:#f7c5ad;stroke-width:0.61px;stroke-linecap:round;stroke-miterlimit:4;"/>
            <path d="M101.979,213.511C102.325,213.896 102.918,213.928 103.303,213.582C103.688,213.236 103.72,212.643 103.374,212.258C103.028,211.873 102.435,211.841 102.05,212.187C101.665,212.533 101.633,213.126 101.979,213.511Z" style="fill:#f7c5ad;"/>
            <path d="M123.021,213.511C122.675,213.896 122.082,213.928 121.697,213.582C121.312,213.236 121.28,212.643 121.626,212.258C121.972,211.873 122.565,211.841 122.95,212.187C123.335,212.533 123.367,213.126 123.021,213.511Z" style="fill:#f7c5ad;"/>
            <path d="M102.676,212.885C100.575,210.546 99.295,207.453 99.295,204.064C99.295,196.776 105.212,190.859 112.5,190.859C119.788,190.859 125.705,196.776 125.705,204.064C125.705,207.453 124.425,210.546 122.324,212.885" style="fill:none;stroke:#f7c5ad;stroke-width:0.63px;stroke-linecap:square;"/>
        </g>
        <path d="M71.788,103.496L99.295,103.496" style="fill:none;stroke:#f7c5ad;stroke-width:0.83px;stroke-linecap:square;"/>
        <circle id="Base" cx="157.504" cy="103.386" r="16.496" style="fill:none;"/>
        <path id="path89" d="M165.412,116.482C164.851,116.821 164.671,117.552 165.01,118.113C165.349,118.674 166.08,118.854 166.641,118.515C167.202,118.176 167.382,117.445 167.043,116.884C166.704,116.323 165.973,116.143 165.412,116.482Z" style="fill:#f7c5ad;fill-rule:nonzero;"/>
        <path d="M149.645,116.524C150.208,116.86 150.392,117.59 150.056,118.153C149.72,118.715 148.99,118.899 148.427,118.563C147.865,118.227 147.681,117.498 148.017,116.935C148.353,116.372 149.082,116.188 149.645,116.524Z" style="fill:#f7c5ad;fill-rule:nonzero;"/>
        <path d="M166.027,117.499C170.962,114.515 173.988,109.151 173.988,103.383C173.988,94.335 166.542,86.89 157.494,86.89C148.446,86.89 141,94.335 141,103.383C141,109.182 144.058,114.57 149.036,117.544" style="fill:none;fill-rule:nonzero;stroke:#f7c5ad;stroke-width:0.79px;stroke-linecap:round;stroke-miterlimit:4;"/>
        <path d="M145.616,123.069L147.553,123.069L147.553,121.85L142.282,121.85L142.282,123.069L144.22,123.069L144.22,129.975L145.616,129.975L145.616,123.069Z" style="fill:#f7c5ad;fill-rule:nonzero;"/>
        <path d="M152.543,121.85L152.543,125.225L149.782,125.225L149.782,121.85L148.387,121.85L148.387,129.975L149.782,129.975L149.782,126.433L152.543,126.433L152.543,129.975L153.939,129.975L153.939,121.85L152.543,121.85Z" style="fill:#f7c5ad;fill-rule:nonzero;"/>
        <path d="M156.605,126.944L157.793,126.944L158.959,129.975L160.47,129.975L159.147,126.725C159.887,126.433 160.47,125.798 160.47,124.496L160.47,124.288C160.47,122.225 159.022,121.85 157.751,121.85L155.209,121.85L155.209,129.975L156.605,129.975L156.605,126.944ZM156.605,125.725L156.605,123.069L157.803,123.069C158.345,123.069 159.053,123.267 159.053,124.34L159.053,124.454C159.053,125.527 158.345,125.725 157.803,125.725L156.605,125.725Z" style="fill:#f7c5ad;fill-rule:nonzero;"/>
        <path d="M161.574,121.85L161.574,129.975L166.407,129.975L166.407,128.756L162.97,128.756L162.97,126.433L165.887,126.433L165.887,125.225L162.97,125.225L162.97,123.069L166.407,123.069L166.407,121.85L161.574,121.85Z" style="fill:#f7c5ad;fill-rule:nonzero;"/>
        <path d="M169.845,126.433C171.084,126.6 171.48,126.975 171.48,127.683L171.48,127.746C171.48,128.423 170.98,128.892 170.105,128.892L170.012,128.892C169.137,128.892 168.605,128.392 168.605,127.235L167.209,127.235L167.209,127.34C167.209,129.204 168.199,130.11 170.064,130.11C171.876,130.11 172.907,129.215 172.907,127.694L172.907,127.579C172.907,126.152 172.064,125.517 170.293,125.277C169.012,125.1 168.709,124.725 168.709,124.058L168.709,123.996C168.709,123.36 169.209,122.933 169.98,122.933L170.074,122.933C171.043,122.933 171.439,123.475 171.439,124.694L172.834,124.694L172.834,124.454C172.834,122.621 171.991,121.715 170.064,121.715C168.303,121.715 167.282,122.631 167.282,124.069L167.282,124.173C167.282,125.517 168.074,126.194 169.845,126.433Z" style="fill:#f7c5ad;fill-rule:nonzero;"/>
    </g>
</svg>
