<?xml version="1.0" encoding="UTF-8" standalone="no"?>
<!DOCTYPE svg PUBLIC "-//W3C//DTD SVG 1.1//EN" "http://www.w3.org/Graphics/SVG/1.1/DTD/svg11.dtd">
<svg width="100%" height="100%" viewBox="0 0 90 380" version="1.1" xmlns="http://www.w3.org/2000/svg" xmlns:xlink="http://www.w3.org/1999/xlink" xml:space="preserve" xmlns:serif="http://www.serif.com/" style="fill-rule:evenodd;clip-rule:evenodd;stroke-linejoin:round;stroke-miterlimit:1.5;">
    <g id="Layer1">
        <rect x="0" y="0" width="90" height="380" style="fill:#909090;"/>
        <path d="M38.25,317.084C38.25,315.539 36.995,314.284 35.45,314.284L9.55,314.284C8.005,314.284 6.75,315.539 6.75,317.084L6.75,351.484C6.75,353.029 8.005,354.284 9.55,354.284L35.45,354.284C36.995,354.284 38.25,353.029 38.25,351.484L38.25,317.084Z" style="fill:#ab5b87;"/>
        <path d="M82.638,317.084C82.638,315.539 81.384,314.284 79.838,314.284L53.938,314.284C52.393,314.284 51.138,315.539 51.138,317.084L51.138,351.484C51.138,353.029 52.393,354.284 53.938,354.284L79.838,354.284C81.384,354.284 82.638,353.029 82.638,351.484L82.638,317.084Z" style="fill:#ab5b87;"/>
        <path d="M0,25L90,25" style="fill:none;stroke:#ecedf1;stroke-width:0.83px;"/>
        <path d="M15.403,345.306L17.341,345.306L17.341,344.088L12.07,344.088L12.07,345.306L14.008,345.306L14.008,352.213L15.403,352.213L15.403,345.306Z" style="fill:#ecedf1;fill-rule:nonzero;"/>
        <path d="M19.57,349.181L20.758,349.181L21.924,352.213L23.435,352.213L22.112,348.963C22.851,348.671 23.435,348.035 23.435,346.733L23.435,346.525C23.435,344.463 21.987,344.088 20.716,344.088L18.174,344.088L18.174,352.213L19.57,352.213L19.57,349.181ZM19.57,347.963L19.57,345.306L20.768,345.306C21.31,345.306 22.018,345.504 22.018,346.577L22.018,346.692C22.018,347.765 21.31,347.963 20.768,347.963L19.57,347.963Z" style="fill:#ecedf1;fill-rule:nonzero;"/>
        <rect x="24.591" y="344.088" width="1.396" height="8.125" style="fill:#ecedf1;fill-rule:nonzero;"/>
        <path d="M30.278,352.348C31.653,352.348 32.455,351.89 33.008,351.4L33.008,347.942L30.435,347.942L30.435,349.15L31.612,349.15L31.612,350.723C31.341,350.942 30.903,351.129 30.33,351.129L30.237,351.129C28.955,351.129 28.56,350.192 28.56,348.358L28.56,347.942C28.56,346.108 28.966,345.171 30.164,345.171L30.258,345.171C31.278,345.171 31.612,345.848 31.612,347.14L33.008,347.14L33.008,346.785C33.008,344.806 32.039,343.952 30.174,343.952C28.143,343.952 27.133,345.129 27.133,347.942L27.133,348.358C27.133,351.171 28.143,352.348 30.278,352.348Z" style="fill:#ecedf1;fill-rule:nonzero;"/>
        <path d="M60.557,352.202C62.588,352.202 63.557,351.025 63.557,348.212L63.557,347.796C63.557,344.983 62.588,343.806 60.557,343.806C58.516,343.806 57.547,344.983 57.547,347.796L57.547,348.212C57.547,351.025 58.516,352.202 60.557,352.202ZM60.505,350.983C59.37,350.983 58.974,350.046 58.974,348.212L58.974,347.796C58.974,345.962 59.37,345.025 60.505,345.025L60.599,345.025C61.734,345.025 62.13,345.962 62.13,347.796L62.13,348.212C62.13,350.046 61.734,350.983 60.599,350.983L60.505,350.983Z" style="fill:#ecedf1;fill-rule:nonzero;"/>
        <path d="M67.432,352.202C69.484,352.202 70.255,351.337 70.255,349.515L70.255,343.942L68.859,343.942L68.859,349.462C68.859,350.535 68.474,350.983 67.432,350.983C66.38,350.983 65.995,350.535 65.995,349.462L65.995,343.942L64.599,343.942L64.599,349.515C64.599,351.337 65.37,352.202 67.432,352.202Z" style="fill:#ecedf1;fill-rule:nonzero;"/>
        <path d="M74.37,345.16L76.307,345.16L76.307,343.942L71.036,343.942L71.036,345.16L72.974,345.16L72.974,352.067L74.37,352.067L74.37,345.16Z" style="fill:#ecedf1;fill-rule:nonzero;"/>
        <path d="M24.008,6.507L22.308,19.507L30.475,19.507L30.825,16.773L25.825,16.773L26.158,14.24L30.325,14.24L30.692,11.507L26.525,11.507L26.825,9.24L31.825,9.24L32.175,6.507L24.008,6.507Z" style="fill:#ecedf1;fill-rule:nonzero;"/>
        <path d="M39.725,19.507L40.075,16.773L35.492,16.773L36.842,6.507L33.675,6.507L31.975,19.507L39.725,19.507Z" style="fill:#ecedf1;fill-rule:nonzero;"/>
        <path d="M47.075,19.507L51.875,6.507L48.475,6.507L45.375,15.84L44.725,6.507L41.342,6.507L42.742,19.507L47.075,19.507Z" style="fill:#ecedf1;fill-rule:nonzero;"/>
        <path d="M56.108,6.507L52.942,6.507L51.242,19.507L54.408,19.507L56.108,6.507Z" style="fill:#ecedf1;fill-rule:nonzero;"/>
        <path d="M67.692,6.507L64.692,6.507L64.075,11.173L63.842,13.673L61.192,6.507L57.858,6.507L56.158,19.507L59.158,19.507L59.758,14.84L60.008,12.34L62.658,19.507L65.992,19.507L67.692,6.507Z" style="fill:#ecedf1;fill-rule:nonzero;"/>
        <path d="M27.327,375.731C30.077,375.731 31.287,375.117 31.507,373.302L29.178,373.302C28.977,373.953 28.546,374.136 26.96,374.136L26.74,374.136C24.797,374.136 24.476,373.724 24.476,372.541L24.476,372.33C24.476,371.13 24.797,370.726 26.74,370.726L26.96,370.726C28.546,370.726 28.977,370.91 29.178,371.56L31.507,371.56C31.287,369.745 30.077,369.131 27.327,369.131L26.373,369.131C23.321,369.131 22.157,369.874 22.157,372.23L22.157,372.633C22.157,374.989 23.321,375.731 26.373,375.731L27.327,375.731Z" style="fill:#ecedf1;fill-rule:nonzero;"/>
        <path d="M40.132,374.127L34.724,374.127L34.724,373.183L40.132,373.183L40.132,371.67L34.724,371.67L34.724,370.735L40.132,370.735L40.132,369.223L32.451,369.223L32.451,375.64L40.132,375.64L40.132,374.127Z" style="fill:#ecedf1;fill-rule:nonzero;"/>
        <path d="M48.52,373.925L43.515,373.925L43.515,369.223L41.242,369.223L41.242,375.64L48.52,375.64L48.52,373.925Z" style="fill:#ecedf1;fill-rule:nonzero;"/>
        <path d="M56.596,373.925L51.591,373.925L51.591,369.223L49.317,369.223L49.317,375.64L56.596,375.64L56.596,373.925Z" style="fill:#ecedf1;fill-rule:nonzero;"/>
        <path d="M64.094,369.223L60.611,369.223L56.862,375.64L59.373,375.64L60.097,374.365L64.516,374.365L65.249,375.64L67.843,375.64L64.094,369.223ZM62.353,370.58L63.654,372.853L60.959,372.853L62.27,370.58L62.353,370.58Z" style="fill:#ecedf1;fill-rule:nonzero;"/>
        <path d="M3.587,71.461L1.025,81.261L2.837,81.261L3.375,79.036L6.125,79.036L6.662,81.261L8.462,81.261L5.9,71.461L3.587,71.461ZM4.75,73.374L5.762,77.574L3.725,77.574L4.75,73.374Z" style="fill:#ecedf1;fill-rule:nonzero;"/>
        <path d="M12.275,72.974L14.6,72.974L14.6,71.511L8.275,71.511L8.275,72.974L10.6,72.974L10.6,81.261L12.275,81.261L12.275,72.974Z" style="fill:#ecedf1;fill-rule:nonzero;"/>
        <path d="M19.075,72.974L21.4,72.974L21.4,71.511L15.075,71.511L15.075,72.974L17.4,72.974L17.4,81.261L19.075,81.261L19.075,72.974Z" style="fill:#ecedf1;fill-rule:nonzero;"/>
        <path d="M23.775,71.461L21.212,81.261L23.025,81.261L23.562,79.036L26.312,79.036L26.85,81.261L28.65,81.261L26.087,71.461L23.775,71.461ZM24.937,73.374L25.95,77.574L23.912,77.574L24.937,73.374Z" style="fill:#ecedf1;fill-rule:nonzero;"/>
        <path d="M30.987,76.636L30.987,76.136C30.987,73.936 31.437,72.811 32.825,72.811L32.937,72.811C34.125,72.811 34.512,73.624 34.512,75.174L36.2,75.174L36.2,74.749C36.2,72.374 35.075,71.349 32.837,71.349C30.4,71.349 29.275,72.761 29.275,76.136L29.275,76.636C29.275,80.011 30.4,81.424 32.837,81.424C35.075,81.424 36.2,80.399 36.2,78.099L36.2,77.974L34.512,77.974C34.512,79.199 34.075,79.961 32.937,79.961L32.825,79.961C31.425,79.961 30.987,78.836 30.987,76.636Z" style="fill:#ecedf1;fill-rule:nonzero;"/>
        <path d="M39.162,71.511L37.487,71.511L37.487,81.261L39.162,81.261L39.162,78.386L40.15,76.986L42.125,81.261L43.987,81.261L41.212,75.474L43.987,71.511L41.962,71.511L39.162,75.824L39.162,71.511Z" style="fill:#ecedf1;fill-rule:nonzero;"/>
        <path d="M57.419,76.475L57.419,75.975C57.419,72.6 56.157,71.35 53.419,71.35L50.544,71.35L50.544,81.1L53.419,81.1C56.157,81.1 57.419,79.85 57.419,76.475ZM52.219,79.638L52.219,72.813L53.319,72.813C55.057,72.813 55.707,73.775 55.707,75.975L55.707,76.475C55.707,78.675 55.057,79.638 53.319,79.638L52.219,79.638Z" style="fill:#ecedf1;fill-rule:nonzero;"/>
        <path d="M58.732,71.35L58.732,81.1L64.532,81.1L64.532,79.638L60.407,79.638L60.407,76.85L63.907,76.85L63.907,75.4L60.407,75.4L60.407,72.813L64.532,72.813L64.532,71.35L58.732,71.35Z" style="fill:#ecedf1;fill-rule:nonzero;"/>
        <path d="M67.294,76.475L67.294,75.975C67.294,73.775 67.744,72.65 69.132,72.65L69.244,72.65C70.432,72.65 70.819,73.463 70.819,75.013L72.507,75.013L72.507,74.588C72.507,72.213 71.382,71.188 69.144,71.188C66.707,71.188 65.582,72.6 65.582,75.975L65.582,76.475C65.582,79.85 66.707,81.263 69.144,81.263C71.382,81.263 72.507,80.238 72.507,77.938L72.507,77.813L70.819,77.813C70.819,79.038 70.382,79.8 69.244,79.8L69.132,79.8C67.732,79.8 67.294,78.675 67.294,76.475Z" style="fill:#ecedf1;fill-rule:nonzero;"/>
        <path d="M75.669,71.3L73.107,81.1L74.919,81.1L75.457,78.875L78.207,78.875L78.744,81.1L80.544,81.1L77.982,71.3L75.669,71.3ZM76.832,73.213L77.844,77.413L75.807,77.413L76.832,73.213Z" style="fill:#ecedf1;fill-rule:nonzero;"/>
        <path d="M84.844,78.125L87.669,71.35L85.844,71.35L84.007,76.063L82.169,71.35L80.344,71.35L83.169,78.125L83.169,81.1L84.844,81.1L84.844,78.125Z" style="fill:#ecedf1;fill-rule:nonzero;"/>
        <path d="M6.751,127.985C8.239,128.185 8.714,128.635 8.714,129.485L8.714,129.56C8.714,130.373 8.114,130.935 7.064,130.935L6.951,130.935C5.901,130.935 5.264,130.335 5.264,128.948L3.589,128.948L3.589,129.073C3.589,131.31 4.776,132.398 7.014,132.398C9.189,132.398 10.426,131.323 10.426,129.498L10.426,129.36C10.426,127.648 9.414,126.885 7.289,126.598C5.751,126.385 5.389,125.935 5.389,125.135L5.389,125.06C5.389,124.298 5.989,123.785 6.914,123.785L7.026,123.785C8.189,123.785 8.664,124.435 8.664,125.898L10.339,125.898L10.339,125.61C10.339,123.41 9.326,122.323 7.014,122.323C4.901,122.323 3.676,123.423 3.676,125.148L3.676,125.273C3.676,126.885 4.626,127.698 6.751,127.985Z" style="fill:#ecedf1;fill-rule:nonzero;"/>
        <path d="M16.639,122.485L16.639,126.535L13.326,126.535L13.326,122.485L11.651,122.485L11.651,132.235L13.326,132.235L13.326,127.985L16.639,127.985L16.639,132.235L18.314,132.235L18.314,122.485L16.639,122.485Z" style="fill:#ecedf1;fill-rule:nonzero;"/>
        <path d="M21.864,122.435L19.301,132.235L21.114,132.235L21.651,130.01L24.401,130.01L24.939,132.235L26.739,132.235L24.176,122.435L21.864,122.435ZM23.026,124.348L24.039,128.548L22.001,128.548L23.026,124.348Z" style="fill:#ecedf1;fill-rule:nonzero;"/>
        <path d="M29.401,128.598L30.776,128.598C32.301,128.598 34.039,128.148 34.039,125.66L34.039,125.41C34.039,122.935 32.301,122.485 30.776,122.485L27.726,122.485L27.726,132.235L29.401,132.235L29.401,128.598ZM29.401,127.135L29.401,123.948L30.839,123.948C31.489,123.948 32.339,124.185 32.339,125.473L32.339,125.61C32.339,126.898 31.489,127.135 30.839,127.135L29.401,127.135Z" style="fill:#ecedf1;fill-rule:nonzero;"/>
        <path d="M35.201,122.485L35.201,132.235L41.001,132.235L41.001,130.773L36.876,130.773L36.876,127.985L40.376,127.985L40.376,126.535L36.876,126.535L36.876,123.948L41.001,123.948L41.001,122.485L35.201,122.485Z" style="fill:#ecedf1;fill-rule:nonzero;"/>
        <path d="M11.019,230.23L11.019,228.767L7.256,228.767L7.256,220.48L5.581,220.48L5.581,230.23L11.019,230.23Z" style="fill:#ecedf1;fill-rule:nonzero;"/>
        <path d="M11.969,220.48L11.969,230.23L17.769,230.23L17.769,228.767L13.644,228.767L13.644,225.98L17.144,225.98L17.144,224.53L13.644,224.53L13.644,221.942L17.769,221.942L17.769,220.48L11.969,220.48Z" style="fill:#ecedf1;fill-rule:nonzero;"/>
        <path d="M23.369,230.28L25.931,220.48L24.131,220.48L22.219,228.367L20.294,220.48L18.494,220.48L21.056,230.28L23.369,230.28Z" style="fill:#ecedf1;fill-rule:nonzero;"/>
        <path d="M26.919,220.48L26.919,230.23L32.719,230.23L32.719,228.767L28.594,228.767L28.594,225.98L32.094,225.98L32.094,224.53L28.594,224.53L28.594,221.942L32.719,221.942L32.719,220.48L26.919,220.48Z" style="fill:#ecedf1;fill-rule:nonzero;"/>
        <path d="M39.419,230.23L39.419,228.767L35.656,228.767L35.656,220.48L33.981,220.48L33.981,230.23L39.419,230.23Z" style="fill:#ecedf1;fill-rule:nonzero;"/>
        <path d="M15.365,175.066L17.302,175.066L17.302,173.848L12.031,173.848L12.031,175.066L13.969,175.066L13.969,181.973L15.365,181.973L15.365,175.066Z" style="fill:#ecedf1;fill-rule:nonzero;"/>
        <path d="M19.531,178.941L20.719,178.941L21.885,181.973L23.396,181.973L22.073,178.723C22.812,178.431 23.396,177.795 23.396,176.493L23.396,176.285C23.396,174.223 21.948,173.848 20.677,173.848L18.135,173.848L18.135,181.973L19.531,181.973L19.531,178.941ZM19.531,177.723L19.531,175.066L20.729,175.066C21.271,175.066 21.979,175.264 21.979,176.337L21.979,176.452C21.979,177.525 21.271,177.723 20.729,177.723L19.531,177.723Z" style="fill:#ecedf1;fill-rule:nonzero;"/>
        <rect x="24.552" y="173.848" width="1.396" height="8.125" style="fill:#ecedf1;fill-rule:nonzero;"/>
        <path d="M30.24,182.108C31.615,182.108 32.417,181.65 32.969,181.16L32.969,177.702L30.396,177.702L30.396,178.91L31.573,178.91L31.573,180.483C31.302,180.702 30.865,180.889 30.292,180.889L30.198,180.889C28.917,180.889 28.521,179.952 28.521,178.118L28.521,177.702C28.521,175.868 28.927,174.931 30.125,174.931L30.219,174.931C31.24,174.931 31.573,175.608 31.573,176.9L32.969,176.9L32.969,176.545C32.969,174.566 32,173.712 30.135,173.712C28.104,173.712 27.094,174.889 27.094,177.702L27.094,178.118C27.094,180.931 28.104,182.108 30.24,182.108Z" style="fill:#ecedf1;fill-rule:nonzero;"/>
        <g id="CTR">
            <circle id="Base" cx="22.51" cy="53.392" r="16.496" style="fill:none;"/>
            <circle cx="14.09" cy="67.55" r="0.911" style="fill:#ecedf1;"/>
            <circle cx="31.016" cy="67.55" r="0.911" style="fill:#ecedf1;"/>
            <path id="path89" d="M31.033,67.505C35.968,64.521 38.994,59.157 38.994,53.39C38.994,44.341 31.548,36.896 22.5,36.896C13.451,36.896 6.006,44.341 6.006,53.39C6.006,59.188 9.064,64.577 14.042,67.55" style="fill:none;fill-rule:nonzero;stroke:#ecedf1;stroke-width:0.79px;stroke-linecap:round;stroke-miterlimit:4;"/>
        </g>
        <g id="CTR1" serif:id="CTR">
            <circle id="Base1" serif:id="Base" cx="67.504" cy="53.392" r="16.496" style="fill:none;"/>
            <circle cx="59.084" cy="67.55" r="0.911" style="fill:#ecedf1;"/>
            <circle cx="76.01" cy="67.55" r="0.911" style="fill:#ecedf1;"/>
            <path id="path891" serif:id="path89" d="M76.027,67.505C80.962,64.521 83.988,59.157 83.988,53.39C83.988,44.341 76.542,36.896 67.494,36.896C58.446,36.896 51,44.341 51,53.39C51,59.188 54.058,64.577 59.036,67.55" style="fill:none;fill-rule:nonzero;stroke:#ecedf1;stroke-width:0.79px;stroke-linecap:round;stroke-miterlimit:4;"/>
        </g>
        <path d="M13.978,67.888L31.129,67.888" style="fill:none;"/>
        <path d="M22.5,36.896L22.5,35L67.5,35L67.5,36.809" style="fill:none;stroke:#ecedf1;stroke-width:0.83px;stroke-linejoin:miter;"/>
        <path d="M48.931,220.455L46.369,230.255L48.181,230.255L48.719,228.03L51.469,228.03L52.006,230.255L53.806,230.255L51.244,220.455L48.931,220.455ZM50.094,222.368L51.106,226.568L49.069,226.568L50.094,222.368Z" style="fill:#ecedf1;fill-rule:nonzero;"/>
        <path d="M60.231,230.255L60.231,228.792L56.469,228.792L56.469,220.505L54.794,220.505L54.794,230.255L60.231,230.255Z" style="fill:#ecedf1;fill-rule:nonzero;"/>
        <path d="M61.181,220.505L61.181,230.255L66.981,230.255L66.981,228.792L62.856,228.792L62.856,226.005L66.356,226.005L66.356,224.555L62.856,224.555L62.856,221.968L66.981,221.968L66.981,220.505L61.181,220.505Z" style="fill:#ecedf1;fill-rule:nonzero;"/>
        <path d="M72.581,230.305L75.144,220.505L73.344,220.505L71.431,228.392L69.506,220.505L67.706,220.505L70.269,230.305L72.581,230.305Z" style="fill:#ecedf1;fill-rule:nonzero;"/>
        <path d="M76.131,220.505L76.131,230.255L81.931,230.255L81.931,228.792L77.806,228.792L77.806,226.005L81.306,226.005L81.306,224.555L77.806,224.555L77.806,221.968L81.931,221.968L81.931,220.505L76.131,220.505Z" style="fill:#ecedf1;fill-rule:nonzero;"/>
        <path d="M88.631,230.255L88.631,228.792L84.869,228.792L84.869,220.505L83.194,220.505L83.194,230.255L88.631,230.255Z" style="fill:#ecedf1;fill-rule:nonzero;"/>
        <path d="M50.034,173.67L47.899,181.837L49.409,181.837L49.857,179.983L52.149,179.983L52.597,181.837L54.097,181.837L51.961,173.67L50.034,173.67ZM51.003,175.264L51.847,178.764L50.149,178.764L51.003,175.264Z" style="fill:#ecedf1;fill-rule:nonzero;"/>
        <path d="M56.044,177.983L56.044,177.566C56.044,175.733 56.419,174.795 57.576,174.795L57.669,174.795C58.659,174.795 58.982,175.473 58.982,176.764L60.388,176.764L60.388,176.41C60.388,174.431 59.451,173.577 57.586,173.577C55.555,173.577 54.617,174.754 54.617,177.566L54.617,177.983C54.617,180.795 55.555,181.973 57.586,181.973C59.451,181.973 60.388,181.118 60.388,179.202L60.388,179.098L58.982,179.098C58.982,180.118 58.617,180.754 57.669,180.754L57.576,180.754C56.409,180.754 56.044,179.816 56.044,177.983Z" style="fill:#ecedf1;fill-rule:nonzero;"/>
        <path d="M62.711,177.983L62.711,177.566C62.711,175.733 63.086,174.795 64.242,174.795L64.336,174.795C65.326,174.795 65.649,175.473 65.649,176.764L67.055,176.764L67.055,176.41C67.055,174.431 66.117,173.577 64.253,173.577C62.222,173.577 61.284,174.754 61.284,177.566L61.284,177.983C61.284,180.795 62.222,181.973 64.253,181.973C66.117,181.973 67.055,181.118 67.055,179.202L67.055,179.098L65.649,179.098C65.649,180.118 65.284,180.754 64.336,180.754L64.242,180.754C63.076,180.754 62.711,179.816 62.711,177.983Z" style="fill:#ecedf1;fill-rule:nonzero;"/>
        <path d="M68.128,173.712L68.128,181.837L72.961,181.837L72.961,180.618L69.524,180.618L69.524,178.295L72.44,178.295L72.44,177.087L69.524,177.087L69.524,174.931L72.961,174.931L72.961,173.712L68.128,173.712Z" style="fill:#ecedf1;fill-rule:nonzero;"/>
        <path d="M79.774,173.712L78.451,173.712L78.451,177.598L78.492,179.316L75.492,173.712L74.013,173.712L74.013,181.837L75.336,181.837L75.336,177.952L75.294,176.233L78.294,181.837L79.774,181.837L79.774,173.712Z" style="fill:#ecedf1;fill-rule:nonzero;"/>
        <path d="M83.94,174.931L85.878,174.931L85.878,173.712L80.607,173.712L80.607,174.931L82.544,174.931L82.544,181.837L83.94,181.837L83.94,174.931Z" style="fill:#ecedf1;fill-rule:nonzero;"/>
        <path d="M52.769,127.985C54.256,128.185 54.731,128.635 54.731,129.485L54.731,129.56C54.731,130.373 54.131,130.935 53.081,130.935L52.969,130.935C51.919,130.935 51.281,130.335 51.281,128.948L49.606,128.948L49.606,129.073C49.606,131.31 50.794,132.398 53.031,132.398C55.206,132.398 56.444,131.323 56.444,129.498L56.444,129.36C56.444,127.648 55.431,126.885 53.306,126.598C51.769,126.385 51.406,125.935 51.406,125.135L51.406,125.06C51.406,124.298 52.006,123.785 52.931,123.785L53.044,123.785C54.206,123.785 54.681,124.435 54.681,125.898L56.356,125.898L56.356,125.61C56.356,123.41 55.344,122.323 53.031,122.323C50.919,122.323 49.694,123.423 49.694,125.148L49.694,125.273C49.694,126.885 50.644,127.698 52.769,127.985Z" style="fill:#ecedf1;fill-rule:nonzero;"/>
        <path d="M61.144,123.948L63.469,123.948L63.469,122.485L57.144,122.485L57.144,123.948L59.469,123.948L59.469,132.235L61.144,132.235L61.144,123.948Z" style="fill:#ecedf1;fill-rule:nonzero;"/>
        <path d="M64.469,122.485L64.469,132.235L70.269,132.235L70.269,130.773L66.144,130.773L66.144,127.985L69.644,127.985L69.644,126.535L66.144,126.535L66.144,123.948L70.269,123.948L70.269,122.485L64.469,122.485Z" style="fill:#ecedf1;fill-rule:nonzero;"/>
        <path d="M73.206,128.598L74.581,128.598C76.106,128.598 77.844,128.148 77.844,125.66L77.844,125.41C77.844,122.935 76.106,122.485 74.581,122.485L71.531,122.485L71.531,132.235L73.206,132.235L73.206,128.598ZM73.206,127.135L73.206,123.948L74.644,123.948C75.294,123.948 76.144,124.185 76.144,125.473L76.144,125.61C76.144,126.898 75.294,127.135 74.644,127.135L73.206,127.135Z" style="fill:#ecedf1;fill-rule:nonzero;"/>
        <path d="M81.719,127.985C83.206,128.185 83.681,128.635 83.681,129.485L83.681,129.56C83.681,130.373 83.081,130.935 82.031,130.935L81.919,130.935C80.869,130.935 80.231,130.335 80.231,128.948L78.556,128.948L78.556,129.073C78.556,131.31 79.744,132.398 81.981,132.398C84.156,132.398 85.394,131.323 85.394,129.498L85.394,129.36C85.394,127.648 84.381,126.885 82.256,126.598C80.719,126.385 80.356,125.935 80.356,125.135L80.356,125.06C80.356,124.298 80.956,123.785 81.881,123.785L81.994,123.785C83.156,123.785 83.631,124.435 83.631,125.898L85.306,125.898L85.306,125.61C85.306,123.41 84.294,122.323 81.981,122.323C79.869,122.323 78.644,123.423 78.644,125.148L78.644,125.273C78.644,126.885 79.594,127.698 81.719,127.985Z" style="fill:#ecedf1;fill-rule:nonzero;"/>
        <path d="M57.76,299.118L57.76,298.702C57.76,295.889 56.708,294.848 54.427,294.848L52.031,294.848L52.031,302.973L54.427,302.973C56.708,302.973 57.76,301.931 57.76,299.118ZM53.427,301.754L53.427,296.066L54.344,296.066C55.792,296.066 56.333,296.868 56.333,298.702L56.333,299.118C56.333,300.952 55.792,301.754 54.344,301.754L53.427,301.754Z" style="fill:#ecedf1;fill-rule:nonzero;"/>
        <path d="M58.854,294.848L58.854,302.973L63.687,302.973L63.687,301.754L60.25,301.754L60.25,299.431L63.167,299.431L63.167,298.223L60.25,298.223L60.25,296.066L63.687,296.066L63.687,294.848L58.854,294.848Z" style="fill:#ecedf1;fill-rule:nonzero;"/>
        <path d="M65.99,299.118L65.99,298.702C65.99,296.868 66.365,295.931 67.521,295.931L67.615,295.931C68.604,295.931 68.927,296.608 68.927,297.9L70.333,297.9L70.333,297.545C70.333,295.566 69.396,294.712 67.531,294.712C65.5,294.712 64.562,295.889 64.562,298.702L64.562,299.118C64.562,301.931 65.5,303.108 67.531,303.108C69.396,303.108 70.333,302.254 70.333,300.337L70.333,300.233L68.927,300.233C68.927,301.254 68.562,301.889 67.615,301.889L67.521,301.889C66.354,301.889 65.99,300.952 65.99,299.118Z" style="fill:#ecedf1;fill-rule:nonzero;"/>
        <path d="M72.969,294.806L70.833,302.973L72.344,302.973L72.792,301.118L75.083,301.118L75.531,302.973L77.031,302.973L74.896,294.806L72.969,294.806ZM73.937,296.4L74.781,299.9L73.083,299.9L73.937,296.4Z" style="fill:#ecedf1;fill-rule:nonzero;"/>
        <path d="M80.615,300.493L82.969,294.848L81.448,294.848L79.917,298.775L78.385,294.848L76.865,294.848L79.219,300.493L79.219,302.973L80.615,302.973L80.615,300.493Z" style="fill:#ecedf1;fill-rule:nonzero;"/>
        <path d="M6.734,294.806L4.599,302.973L6.109,302.973L6.557,301.118L8.849,301.118L9.297,302.973L10.797,302.973L8.661,294.806L6.734,294.806ZM7.703,296.4L8.547,299.9L6.849,299.9L7.703,296.4Z" style="fill:#ecedf1;fill-rule:nonzero;"/>
        <path d="M13.974,296.066L15.911,296.066L15.911,294.848L10.641,294.848L10.641,296.066L12.578,296.066L12.578,302.973L13.974,302.973L13.974,296.066Z" style="fill:#ecedf1;fill-rule:nonzero;"/>
        <path d="M19.641,296.066L21.578,296.066L21.578,294.848L16.307,294.848L16.307,296.066L18.245,296.066L18.245,302.973L19.641,302.973L19.641,296.066Z" style="fill:#ecedf1;fill-rule:nonzero;"/>
        <path d="M23.557,294.806L21.422,302.973L22.932,302.973L23.38,301.118L25.672,301.118L26.12,302.973L27.62,302.973L25.484,294.806L23.557,294.806ZM24.526,296.4L25.37,299.9L23.672,299.9L24.526,296.4Z" style="fill:#ecedf1;fill-rule:nonzero;"/>
        <path d="M29.568,299.118L29.568,298.702C29.568,296.868 29.943,295.931 31.099,295.931L31.193,295.931C32.182,295.931 32.505,296.608 32.505,297.9L33.911,297.9L33.911,297.545C33.911,295.566 32.974,294.712 31.109,294.712C29.078,294.712 28.141,295.889 28.141,298.702L28.141,299.118C28.141,301.931 29.078,303.108 31.109,303.108C32.974,303.108 33.911,302.254 33.911,300.337L33.911,300.233L32.505,300.233C32.505,301.254 32.141,301.889 31.193,301.889L31.099,301.889C29.932,301.889 29.568,300.952 29.568,299.118Z" style="fill:#ecedf1;fill-rule:nonzero;"/>
        <path d="M36.38,294.848L34.984,294.848L34.984,302.973L36.38,302.973L36.38,300.577L37.203,299.41L38.849,302.973L40.401,302.973L38.089,298.15L40.401,294.848L38.714,294.848L36.38,298.441L36.38,294.848Z" style="fill:#ecedf1;fill-rule:nonzero;"/>
    </g>
</svg>
