<?xml version="1.0" encoding="UTF-8" standalone="no"?>
<!DOCTYPE svg PUBLIC "-//W3C//DTD SVG 1.1//EN" "http://www.w3.org/Graphics/SVG/1.1/DTD/svg11.dtd">
<svg width="100%" height="100%" viewBox="0 0 90 380" version="1.1" xmlns="http://www.w3.org/2000/svg" xmlns:xlink="http://www.w3.org/1999/xlink" xml:space="preserve" xmlns:serif="http://www.serif.com/" style="fill-rule:evenodd;clip-rule:evenodd;stroke-linejoin:round;stroke-miterlimit:1.5;">
    <g id="Layer1">
        <rect x="0" y="0" width="90" height="380" style="fill:#909090;"/>
        <path d="M38.25,317.084C38.25,315.539 36.995,314.284 35.45,314.284L9.55,314.284C8.005,314.284 6.75,315.539 6.75,317.084L6.75,351.484C6.75,353.029 8.005,354.284 9.55,354.284L35.45,354.284C36.995,354.284 38.25,353.029 38.25,351.484L38.25,317.084Z" style="fill:#ab5b87;"/>
        <path d="M82.638,317.084C82.638,315.539 81.384,314.284 79.838,314.284L53.938,314.284C52.393,314.284 51.138,315.539 51.138,317.084L51.138,351.484C51.138,353.029 52.393,354.284 53.938,354.284L79.838,354.284C81.384,354.284 82.638,353.029 82.638,351.484L82.638,317.084Z" style="fill:#ab5b87;"/>
        <g>
            <path d="M67.5,265.667C75.411,265.667 81.833,272.089 81.833,280C81.833,287.911 75.411,294.333 67.5,294.333C59.589,294.333 53.167,287.911 53.167,280C53.167,272.089 59.589,265.667 67.5,265.667ZM67.5,266.5C60.049,266.5 54,272.549 54,280C54,287.451 60.049,293.5 67.5,293.5C74.951,293.5 81,287.451 81,280C81,272.549 74.951,266.5 67.5,266.5Z" style="fill:#ab5b87;"/>
            <path d="M67.5,263.44C76.64,263.44 84.06,270.86 84.06,280C84.06,289.14 76.64,296.56 67.5,296.56C58.36,296.56 50.94,289.14 50.94,280C50.94,270.86 58.36,263.44 67.5,263.44ZM67.5,264.273C58.82,264.273 51.773,271.32 51.773,280C51.773,288.68 58.82,295.727 67.5,295.727C76.18,295.727 83.227,288.68 83.227,280C83.227,271.32 76.18,264.273 67.5,264.273Z" style="fill:#ab5b87;fill-opacity:0.58;"/>
            <path d="M67.5,261.237C77.855,261.237 86.263,269.645 86.263,280C86.263,290.355 77.855,298.763 67.5,298.763C57.145,298.763 48.737,290.355 48.737,280C48.737,269.645 57.145,261.237 67.5,261.237ZM67.5,262.071C57.605,262.071 49.571,270.105 49.571,280C49.571,289.895 57.605,297.929 67.5,297.929C77.395,297.929 85.429,289.895 85.429,280C85.429,270.105 77.395,262.071 67.5,262.071Z" style="fill:#ab5b87;fill-opacity:0.31;"/>
            <path d="M67.5,258.83C79.184,258.83 88.67,268.316 88.67,280C88.67,291.684 79.184,301.17 67.5,301.17C55.816,301.17 46.33,291.684 46.33,280C46.33,268.316 55.816,258.83 67.5,258.83ZM67.5,259.664C56.276,259.664 47.164,268.776 47.164,280C47.164,291.224 56.276,300.336 67.5,300.336C78.724,300.336 87.836,291.224 87.836,280C87.836,268.776 78.724,259.664 67.5,259.664Z" style="fill:#ab5b87;fill-opacity:0.13;"/>
        </g>
        <path d="M0,25L90,25" style="fill:none;stroke:#ecedf1;stroke-width:0.83px;"/>
        <path d="M15.057,344.046L12.922,352.213L14.432,352.213L14.88,350.358L17.172,350.358L17.62,352.213L19.12,352.213L16.984,344.046L15.057,344.046ZM16.026,345.64L16.87,349.14L15.172,349.14L16.026,345.64Z" style="fill:#ecedf1;fill-rule:nonzero;"/>
        <path d="M21.068,348.358L21.068,347.942C21.068,346.108 21.443,345.171 22.599,345.171L22.693,345.171C23.682,345.171 24.005,345.848 24.005,347.14L25.411,347.14L25.411,346.785C25.411,344.806 24.474,343.952 22.609,343.952C20.578,343.952 19.641,345.129 19.641,347.942L19.641,348.358C19.641,351.171 20.578,352.348 22.609,352.348C24.474,352.348 25.411,351.494 25.411,349.577L25.411,349.473L24.005,349.473C24.005,350.494 23.641,351.129 22.693,351.129L22.599,351.129C21.432,351.129 21.068,350.192 21.068,348.358Z" style="fill:#ecedf1;fill-rule:nonzero;"/>
        <path d="M27.734,348.358L27.734,347.942C27.734,346.108 28.109,345.171 29.266,345.171L29.359,345.171C30.349,345.171 30.672,345.848 30.672,347.14L32.078,347.14L32.078,346.785C32.078,344.806 31.141,343.952 29.276,343.952C27.245,343.952 26.307,345.129 26.307,347.942L26.307,348.358C26.307,351.171 27.245,352.348 29.276,352.348C31.141,352.348 32.078,351.494 32.078,349.577L32.078,349.473L30.672,349.473C30.672,350.494 30.307,351.129 29.359,351.129L29.266,351.129C28.099,351.129 27.734,350.192 27.734,348.358Z" style="fill:#ecedf1;fill-rule:nonzero;"/>
        <path d="M58.167,343.942L58.167,352.067L63,352.067L63,350.848L59.562,350.848L59.562,348.525L62.479,348.525L62.479,347.317L59.562,347.317L59.562,345.16L63,345.16L63,343.942L58.167,343.942Z" style="fill:#ecedf1;fill-rule:nonzero;"/>
        <path d="M69.812,343.942L68.49,343.942L68.49,347.827L68.531,349.546L65.531,343.942L64.052,343.942L64.052,352.067L65.375,352.067L65.375,348.181L65.333,346.462L68.333,352.067L69.812,352.067L69.812,343.942Z" style="fill:#ecedf1;fill-rule:nonzero;"/>
        <path d="M74.698,352.108L76.833,343.942L75.333,343.942L73.74,350.515L72.135,343.942L70.635,343.942L72.771,352.108L74.698,352.108Z" style="fill:#ecedf1;fill-rule:nonzero;"/>
        <path d="M24.008,6.507L22.308,19.507L30.475,19.507L30.825,16.773L25.825,16.773L26.158,14.24L30.325,14.24L30.692,11.507L26.525,11.507L26.825,9.24L31.825,9.24L32.175,6.507L24.008,6.507Z" style="fill:#ecedf1;fill-rule:nonzero;"/>
        <path d="M39.725,19.507L40.075,16.773L35.492,16.773L36.842,6.507L33.675,6.507L31.975,19.507L39.725,19.507Z" style="fill:#ecedf1;fill-rule:nonzero;"/>
        <path d="M47.075,19.507L51.875,6.507L48.475,6.507L45.375,15.84L44.725,6.507L41.342,6.507L42.742,19.507L47.075,19.507Z" style="fill:#ecedf1;fill-rule:nonzero;"/>
        <path d="M56.108,6.507L52.942,6.507L51.242,19.507L54.408,19.507L56.108,6.507Z" style="fill:#ecedf1;fill-rule:nonzero;"/>
        <path d="M67.692,6.507L64.692,6.507L64.075,11.173L63.842,13.673L61.192,6.507L57.858,6.507L56.158,19.507L59.158,19.507L59.758,14.84L60.008,12.34L62.658,19.507L65.992,19.507L67.692,6.507Z" style="fill:#ecedf1;fill-rule:nonzero;"/>
        <path d="M27.327,375.731C30.077,375.731 31.287,375.117 31.507,373.302L29.178,373.302C28.977,373.953 28.546,374.136 26.96,374.136L26.74,374.136C24.797,374.136 24.476,373.724 24.476,372.541L24.476,372.33C24.476,371.13 24.797,370.726 26.74,370.726L26.96,370.726C28.546,370.726 28.977,370.91 29.178,371.56L31.507,371.56C31.287,369.745 30.077,369.131 27.327,369.131L26.373,369.131C23.321,369.131 22.157,369.874 22.157,372.23L22.157,372.633C22.157,374.989 23.321,375.731 26.373,375.731L27.327,375.731Z" style="fill:#ecedf1;fill-rule:nonzero;"/>
        <path d="M40.132,374.127L34.724,374.127L34.724,373.183L40.132,373.183L40.132,371.67L34.724,371.67L34.724,370.735L40.132,370.735L40.132,369.223L32.451,369.223L32.451,375.64L40.132,375.64L40.132,374.127Z" style="fill:#ecedf1;fill-rule:nonzero;"/>
        <path d="M48.52,373.925L43.515,373.925L43.515,369.223L41.242,369.223L41.242,375.64L48.52,375.64L48.52,373.925Z" style="fill:#ecedf1;fill-rule:nonzero;"/>
        <path d="M56.596,373.925L51.591,373.925L51.591,369.223L49.317,369.223L49.317,375.64L56.596,375.64L56.596,373.925Z" style="fill:#ecedf1;fill-rule:nonzero;"/>
        <path d="M64.094,369.223L60.611,369.223L56.862,375.64L59.373,375.64L60.097,374.365L64.516,374.365L65.249,375.64L67.843,375.64L64.094,369.223ZM62.353,370.58L63.654,372.853L60.959,372.853L62.27,370.58L62.353,370.58Z" style="fill:#ecedf1;fill-rule:nonzero;"/>
        <path d="M3.587,71.461L1.025,81.261L2.837,81.261L3.375,79.036L6.125,79.036L6.662,81.261L8.462,81.261L5.9,71.461L3.587,71.461ZM4.75,73.374L5.762,77.574L3.725,77.574L4.75,73.374Z" style="fill:#ecedf1;fill-rule:nonzero;"/>
        <path d="M12.275,72.974L14.6,72.974L14.6,71.511L8.275,71.511L8.275,72.974L10.6,72.974L10.6,81.261L12.275,81.261L12.275,72.974Z" style="fill:#ecedf1;fill-rule:nonzero;"/>
        <path d="M19.075,72.974L21.4,72.974L21.4,71.511L15.075,71.511L15.075,72.974L17.4,72.974L17.4,81.261L19.075,81.261L19.075,72.974Z" style="fill:#ecedf1;fill-rule:nonzero;"/>
        <path d="M23.775,71.461L21.212,81.261L23.025,81.261L23.562,79.036L26.312,79.036L26.85,81.261L28.65,81.261L26.087,71.461L23.775,71.461ZM24.937,73.374L25.95,77.574L23.912,77.574L24.937,73.374Z" style="fill:#ecedf1;fill-rule:nonzero;"/>
        <path d="M30.987,76.636L30.987,76.136C30.987,73.936 31.437,72.811 32.825,72.811L32.937,72.811C34.125,72.811 34.512,73.624 34.512,75.174L36.2,75.174L36.2,74.749C36.2,72.374 35.075,71.349 32.837,71.349C30.4,71.349 29.275,72.761 29.275,76.136L29.275,76.636C29.275,80.011 30.4,81.424 32.837,81.424C35.075,81.424 36.2,80.399 36.2,78.099L36.2,77.974L34.512,77.974C34.512,79.199 34.075,79.961 32.937,79.961L32.825,79.961C31.425,79.961 30.987,78.836 30.987,76.636Z" style="fill:#ecedf1;fill-rule:nonzero;"/>
        <path d="M39.162,71.511L37.487,71.511L37.487,81.261L39.162,81.261L39.162,78.386L40.15,76.986L42.125,81.261L43.987,81.261L41.212,75.474L43.987,71.511L41.962,71.511L39.162,75.824L39.162,71.511Z" style="fill:#ecedf1;fill-rule:nonzero;"/>
        <path d="M57.419,76.475L57.419,75.975C57.419,72.6 56.157,71.35 53.419,71.35L50.544,71.35L50.544,81.1L53.419,81.1C56.157,81.1 57.419,79.85 57.419,76.475ZM52.219,79.638L52.219,72.813L53.319,72.813C55.057,72.813 55.707,73.775 55.707,75.975L55.707,76.475C55.707,78.675 55.057,79.638 53.319,79.638L52.219,79.638Z" style="fill:#ecedf1;fill-rule:nonzero;"/>
        <path d="M58.732,71.35L58.732,81.1L64.532,81.1L64.532,79.638L60.407,79.638L60.407,76.85L63.907,76.85L63.907,75.4L60.407,75.4L60.407,72.813L64.532,72.813L64.532,71.35L58.732,71.35Z" style="fill:#ecedf1;fill-rule:nonzero;"/>
        <path d="M67.294,76.475L67.294,75.975C67.294,73.775 67.744,72.65 69.132,72.65L69.244,72.65C70.432,72.65 70.819,73.463 70.819,75.013L72.507,75.013L72.507,74.588C72.507,72.213 71.382,71.188 69.144,71.188C66.707,71.188 65.582,72.6 65.582,75.975L65.582,76.475C65.582,79.85 66.707,81.263 69.144,81.263C71.382,81.263 72.507,80.238 72.507,77.938L72.507,77.813L70.819,77.813C70.819,79.038 70.382,79.8 69.244,79.8L69.132,79.8C67.732,79.8 67.294,78.675 67.294,76.475Z" style="fill:#ecedf1;fill-rule:nonzero;"/>
        <path d="M75.669,71.3L73.107,81.1L74.919,81.1L75.457,78.875L78.207,78.875L78.744,81.1L80.544,81.1L77.982,71.3L75.669,71.3ZM76.832,73.213L77.844,77.413L75.807,77.413L76.832,73.213Z" style="fill:#ecedf1;fill-rule:nonzero;"/>
        <path d="M84.844,78.125L87.669,71.35L85.844,71.35L84.007,76.063L82.169,71.35L80.344,71.35L83.169,78.125L83.169,81.1L84.844,81.1L84.844,78.125Z" style="fill:#ecedf1;fill-rule:nonzero;"/>
        <path d="M6.751,127.126C8.239,127.326 8.714,127.776 8.714,128.626L8.714,128.701C8.714,129.514 8.114,130.076 7.064,130.076L6.951,130.076C5.901,130.076 5.264,129.476 5.264,128.089L3.589,128.089L3.589,128.214C3.589,130.451 4.776,131.539 7.014,131.539C9.189,131.539 10.426,130.464 10.426,128.639L10.426,128.501C10.426,126.789 9.414,126.026 7.289,125.739C5.751,125.526 5.389,125.076 5.389,124.276L5.389,124.201C5.389,123.439 5.989,122.926 6.914,122.926L7.026,122.926C8.189,122.926 8.664,123.576 8.664,125.039L10.339,125.039L10.339,124.751C10.339,122.551 9.326,121.464 7.014,121.464C4.901,121.464 3.676,122.564 3.676,124.289L3.676,124.414C3.676,126.026 4.626,126.839 6.751,127.126Z" style="fill:#ecedf1;fill-rule:nonzero;"/>
        <path d="M16.639,121.626L16.639,125.676L13.326,125.676L13.326,121.626L11.651,121.626L11.651,131.376L13.326,131.376L13.326,127.126L16.639,127.126L16.639,131.376L18.314,131.376L18.314,121.626L16.639,121.626Z" style="fill:#ecedf1;fill-rule:nonzero;"/>
        <path d="M21.864,121.576L19.301,131.376L21.114,131.376L21.651,129.151L24.401,129.151L24.939,131.376L26.739,131.376L24.176,121.576L21.864,121.576ZM23.026,123.489L24.039,127.689L22.001,127.689L23.026,123.489Z" style="fill:#ecedf1;fill-rule:nonzero;"/>
        <path d="M29.401,127.739L30.776,127.739C32.301,127.739 34.039,127.289 34.039,124.801L34.039,124.551C34.039,122.076 32.301,121.626 30.776,121.626L27.726,121.626L27.726,131.376L29.401,131.376L29.401,127.739ZM29.401,126.276L29.401,123.089L30.839,123.089C31.489,123.089 32.339,123.326 32.339,124.614L32.339,124.751C32.339,126.039 31.489,126.276 30.839,126.276L29.401,126.276Z" style="fill:#ecedf1;fill-rule:nonzero;"/>
        <path d="M35.201,121.626L35.201,131.376L41.001,131.376L41.001,129.914L36.876,129.914L36.876,127.126L40.376,127.126L40.376,125.676L36.876,125.676L36.876,123.089L41.001,123.089L41.001,121.626L35.201,121.626Z" style="fill:#ecedf1;fill-rule:nonzero;"/>
        <path d="M11.013,181.251L11.013,179.789L7.25,179.789L7.25,171.501L5.575,171.501L5.575,181.251L11.013,181.251Z" style="fill:#ecedf1;fill-rule:nonzero;"/>
        <path d="M11.963,171.501L11.963,181.251L17.763,181.251L17.763,179.789L13.638,179.789L13.638,177.001L17.138,177.001L17.138,175.551L13.638,175.551L13.638,172.964L17.763,172.964L17.763,171.501L11.963,171.501Z" style="fill:#ecedf1;fill-rule:nonzero;"/>
        <path d="M23.363,181.301L25.925,171.501L24.125,171.501L22.213,179.389L20.288,171.501L18.488,171.501L21.05,181.301L23.363,181.301Z" style="fill:#ecedf1;fill-rule:nonzero;"/>
        <path d="M26.913,171.501L26.913,181.251L32.713,181.251L32.713,179.789L28.588,179.789L28.588,177.001L32.088,177.001L32.088,175.551L28.588,175.551L28.588,172.964L32.713,172.964L32.713,171.501L26.913,171.501Z" style="fill:#ecedf1;fill-rule:nonzero;"/>
        <path d="M39.413,181.251L39.413,179.789L35.65,179.789L35.65,171.501L33.975,171.501L33.975,181.251L39.413,181.251Z" style="fill:#ecedf1;fill-rule:nonzero;"/>
        <g id="CTR">
            <circle id="Base" cx="22.504" cy="153.382" r="16.496" style="fill:none;"/>
            <path id="path89" d="M30.414,166.482C29.855,166.82 29.675,167.548 30.013,168.108C30.351,168.667 31.08,168.847 31.639,168.509C32.199,168.17 32.378,167.442 32.04,166.882C31.702,166.323 30.973,166.143 30.414,166.482Z" style="fill:#ecedf1;fill-rule:nonzero;"/>
            <path d="M14.643,166.523C15.205,166.859 15.388,167.586 15.053,168.148C14.718,168.709 13.99,168.892 13.429,168.557C12.868,168.222 12.684,167.494 13.019,166.933C13.355,166.372 14.082,166.188 14.643,166.523Z" style="fill:#ecedf1;fill-rule:nonzero;"/>
            <path d="M31.027,167.495C35.962,164.511 38.988,159.147 38.988,153.38C38.988,144.332 31.542,136.886 22.494,136.886C13.446,136.886 6,144.332 6,153.38C6,159.179 9.058,164.567 14.036,167.54" style="fill:none;fill-rule:nonzero;stroke:#ecedf1;stroke-width:0.79px;stroke-linecap:round;stroke-miterlimit:4;"/>
        </g>
        <path d="M48.931,171.508L46.369,181.308L48.181,181.308L48.719,179.083L51.469,179.083L52.006,181.308L53.806,181.308L51.244,171.508L48.931,171.508ZM50.094,173.42L51.106,177.62L49.069,177.62L50.094,173.42Z" style="fill:#ecedf1;fill-rule:nonzero;"/>
        <path d="M60.231,181.308L60.231,179.845L56.469,179.845L56.469,171.558L54.794,171.558L54.794,181.308L60.231,181.308Z" style="fill:#ecedf1;fill-rule:nonzero;"/>
        <path d="M61.181,171.558L61.181,181.308L66.981,181.308L66.981,179.845L62.856,179.845L62.856,177.058L66.356,177.058L66.356,175.608L62.856,175.608L62.856,173.02L66.981,173.02L66.981,171.558L61.181,171.558Z" style="fill:#ecedf1;fill-rule:nonzero;"/>
        <path d="M72.581,181.358L75.144,171.558L73.344,171.558L71.431,179.445L69.506,171.558L67.706,171.558L70.269,181.358L72.581,181.358Z" style="fill:#ecedf1;fill-rule:nonzero;"/>
        <path d="M76.131,171.558L76.131,181.308L81.931,181.308L81.931,179.845L77.806,179.845L77.806,177.058L81.306,177.058L81.306,175.608L77.806,175.608L77.806,173.02L81.931,173.02L81.931,171.558L76.131,171.558Z" style="fill:#ecedf1;fill-rule:nonzero;"/>
        <path d="M88.631,181.308L88.631,179.845L84.869,179.845L84.869,171.558L83.194,171.558L83.194,181.308L88.631,181.308Z" style="fill:#ecedf1;fill-rule:nonzero;"/>
        <circle id="Base1" serif:id="Base" cx="67.51" cy="153.438" r="16.496" style="fill:none;"/>
        <path id="path891" serif:id="path89" d="M75.42,166.538C74.86,166.876 74.681,167.605 75.019,168.164C75.357,168.723 76.086,168.903 76.645,168.565C77.205,168.227 77.384,167.498 77.046,166.939C76.708,166.379 75.979,166.2 75.42,166.538Z" style="fill:#ecedf1;fill-rule:nonzero;"/>
        <path d="M59.649,166.58C60.211,166.915 60.394,167.643 60.059,168.204C59.724,168.765 58.996,168.948 58.435,168.613C57.874,168.278 57.69,167.55 58.025,166.989C58.36,166.428 59.088,166.245 59.649,166.58Z" style="fill:#ecedf1;fill-rule:nonzero;"/>
        <path d="M76.033,167.551C80.968,164.568 83.994,159.204 83.994,153.436C83.994,144.388 76.548,136.942 67.5,136.942C58.451,136.942 51.006,144.388 51.006,153.436C51.006,159.235 54.064,164.623 59.042,167.596" style="fill:none;fill-rule:nonzero;stroke:#ecedf1;stroke-width:0.79px;stroke-linecap:round;stroke-miterlimit:4;"/>
        <g id="CTR1" serif:id="CTR">
            <circle id="Base2" serif:id="Base" cx="22.498" cy="103.498" r="16.496" style="fill:none;"/>
            <path id="path892" serif:id="path89" d="M30.408,116.597C29.848,116.935 29.669,117.664 30.007,118.223C30.345,118.783 31.074,118.962 31.633,118.624C32.192,118.286 32.372,117.557 32.034,116.998C31.696,116.439 30.967,116.259 30.408,116.597Z" style="fill:#ecedf1;fill-rule:nonzero;"/>
            <path d="M14.637,116.639C15.198,116.974 15.382,117.702 15.047,118.263C14.711,118.824 13.984,119.008 13.422,118.673C12.861,118.338 12.678,117.61 13.013,117.049C13.348,116.487 14.076,116.304 14.637,116.639Z" style="fill:#ecedf1;fill-rule:nonzero;"/>
            <path d="M31.02,117.611C35.956,114.627 38.981,109.263 38.981,103.496C38.981,94.447 31.536,87.002 22.487,87.002C13.439,87.002 5.994,94.447 5.994,103.496C5.994,109.294 9.052,114.683 14.03,117.656" style="fill:none;fill-rule:nonzero;stroke:#ecedf1;stroke-width:0.79px;stroke-linecap:round;stroke-miterlimit:4;"/>
        </g>
        <g id="CTR2" serif:id="CTR">
            <circle id="Base3" serif:id="Base" cx="67.518" cy="103.498" r="16.496" style="fill:none;"/>
            <path id="path893" serif:id="path89" d="M75.428,116.597C74.868,116.935 74.689,117.664 75.027,118.223C75.365,118.783 76.094,118.962 76.653,118.624C77.213,118.286 77.392,117.557 77.054,116.998C76.716,116.439 75.987,116.259 75.428,116.597Z" style="fill:#ecedf1;fill-rule:nonzero;"/>
            <path d="M59.657,116.639C60.218,116.974 60.402,117.702 60.067,118.263C59.732,118.824 59.004,119.008 58.443,118.673C57.882,118.338 57.698,117.61 58.033,117.049C58.368,116.487 59.096,116.304 59.657,116.639Z" style="fill:#ecedf1;fill-rule:nonzero;"/>
            <path d="M76.04,117.611C80.976,114.627 84.001,109.263 84.001,103.496C84.001,94.447 76.556,87.002 67.508,87.002C58.459,87.002 51.014,94.447 51.014,103.496C51.014,109.294 54.072,114.683 59.05,117.656" style="fill:none;fill-rule:nonzero;stroke:#ecedf1;stroke-width:0.79px;stroke-linecap:round;stroke-miterlimit:4;"/>
        </g>
        <g>
            <path d="M73.059,86.716C73.679,86.921 74.015,87.59 73.81,88.208C73.606,88.826 72.936,89.162 72.317,88.956C71.698,88.751 71.361,88.083 71.566,87.465C71.771,86.846 72.44,86.511 73.059,86.716Z" style="fill:#ecedf1;"/>
            <ellipse cx="67.5" cy="87.002" rx="1.182" ry="1.18" style="fill:#909090;"/>
            <path d="M67.5,85.822C68.152,85.822 68.682,86.35 68.682,87.002C68.682,87.653 68.152,88.182 67.5,88.182C66.848,88.182 66.318,87.653 66.318,87.002C66.318,86.35 66.848,85.822 67.5,85.822ZM67.5,86.53C67.239,86.53 67.026,86.741 67.026,87.002C67.026,87.262 67.239,87.473 67.5,87.473C67.761,87.473 67.974,87.262 67.974,87.002C67.974,86.741 67.761,86.53 67.5,86.53Z" style="fill:#ecedf1;"/>
            <path d="M61.941,86.721C62.561,86.516 63.23,86.851 63.435,87.469C63.64,88.088 63.303,88.756 62.684,88.961C62.064,89.166 61.395,88.831 61.19,88.213C60.986,87.595 61.322,86.926 61.941,86.721Z" style="fill:#ecedf1;"/>
            <path d="M56.948,89.323C57.471,88.933 58.212,89.041 58.601,89.563C58.989,90.086 58.88,90.826 58.357,91.216C57.833,91.605 57.093,91.498 56.704,90.975C56.315,90.453 56.424,89.712 56.948,89.323Z" style="fill:#ecedf1;"/>
            <path d="M53.026,93.363C53.4,92.829 54.137,92.698 54.67,93.072C55.204,93.445 55.333,94.183 54.959,94.717C54.584,95.251 53.847,95.382 53.314,95.008C52.78,94.635 52.651,93.897 53.026,93.363Z" style="fill:#ecedf1;"/>
            <path d="M50.573,98.432C50.76,97.807 51.419,97.451 52.043,97.638C52.667,97.825 53.021,98.484 52.834,99.109C52.647,99.734 51.988,100.09 51.364,99.903C50.74,99.716 50.386,99.057 50.573,98.432Z" style="fill:#ecedf1;"/>
            <path d="M49.839,104.014C49.82,103.362 50.334,102.817 50.985,102.799C51.636,102.78 52.179,103.294 52.198,103.946C52.217,104.599 51.704,105.143 51.053,105.162C50.402,105.181 49.858,104.667 49.839,104.014Z" style="fill:#ecedf1;"/>
            <path d="M50.898,109.545C50.675,108.932 50.991,108.253 51.603,108.03C52.215,107.808 52.893,108.125 53.116,108.738C53.339,109.352 53.023,110.03 52.411,110.253C51.799,110.475 51.121,110.158 50.898,109.545Z" style="fill:#ecedf1;"/>
            <path d="M50.898,109.545C50.675,108.932 50.991,108.253 51.603,108.03C52.215,107.808 52.893,108.125 53.116,108.738C53.339,109.352 53.023,110.03 52.411,110.253C51.799,110.475 51.121,110.158 50.898,109.545Z" style="fill:#ecedf1;"/>
            <path d="M53.643,114.461C53.238,113.949 53.325,113.206 53.836,112.802C54.347,112.399 55.09,112.486 55.494,112.998C55.899,113.51 55.812,114.254 55.301,114.658C54.79,115.061 54.047,114.973 53.643,114.461Z" style="fill:#ecedf1;"/>
            <path d="M78.055,89.314C78.579,89.703 78.688,90.444 78.299,90.966C77.91,91.489 77.17,91.596 76.646,91.207C76.123,90.817 76.014,90.077 76.402,89.554C76.791,89.032 77.532,88.924 78.055,89.314Z" style="fill:#ecedf1;"/>
            <path d="M81.981,93.35C82.355,93.885 82.226,94.622 81.693,94.996C81.159,95.369 80.422,95.239 80.048,94.704C79.674,94.17 79.803,93.433 80.336,93.059C80.87,92.686 81.607,92.816 81.981,93.35Z" style="fill:#ecedf1;"/>
            <path d="M84.438,98.417C84.625,99.042 84.271,99.701 83.647,99.888C83.023,100.075 82.364,99.719 82.177,99.094C81.99,98.469 82.344,97.81 82.968,97.623C83.592,97.436 84.25,97.792 84.438,98.417Z" style="fill:#ecedf1;"/>
            <path d="M85.177,103.999C85.158,104.651 84.614,105.166 83.963,105.147C83.312,105.128 82.799,104.583 82.818,103.931C82.836,103.279 83.38,102.765 84.031,102.783C84.682,102.802 85.195,103.347 85.177,103.999Z" style="fill:#ecedf1;"/>
            <path d="M84.122,109.53C83.899,110.144 83.222,110.461 82.609,110.238C81.997,110.016 81.681,109.337 81.904,108.724C82.127,108.111 82.805,107.794 83.417,108.016C84.029,108.239 84.345,108.917 84.122,109.53Z" style="fill:#ecedf1;"/>
            <path d="M81.382,114.449C80.978,114.961 80.234,115.049 79.723,114.646C79.212,114.242 79.126,113.498 79.53,112.986C79.935,112.475 80.678,112.387 81.189,112.79C81.7,113.194 81.787,113.938 81.382,114.449Z" style="fill:#ecedf1;"/>
        </g>
        <g id="CTR3" serif:id="CTR">
            <circle id="Base4" serif:id="Base" cx="22.51" cy="53.392" r="16.496" style="fill:none;"/>
            <path id="path894" serif:id="path89" d="M30.42,66.491C29.86,66.829 29.681,67.558 30.019,68.118C30.357,68.677 31.086,68.856 31.645,68.518C32.205,68.18 32.384,67.452 32.046,66.892C31.708,66.333 30.979,66.153 30.42,66.491Z" style="fill:#ecedf1;fill-rule:nonzero;"/>
            <path d="M14.649,66.533C15.211,66.868 15.394,67.596 15.059,68.157C14.724,68.718 13.996,68.902 13.435,68.567C12.874,68.232 12.69,67.504 13.025,66.943C13.36,66.382 14.088,66.198 14.649,66.533Z" style="fill:#ecedf1;fill-rule:nonzero;"/>
            <path d="M31.033,67.505C35.968,64.521 38.994,59.157 38.994,53.39C38.994,44.341 31.548,36.896 22.5,36.896C13.451,36.896 6.006,44.341 6.006,53.39C6.006,59.188 9.064,64.577 14.042,67.55" style="fill:none;fill-rule:nonzero;stroke:#ecedf1;stroke-width:0.79px;stroke-linecap:round;stroke-miterlimit:4;"/>
        </g>
        <g id="CTR4" serif:id="CTR">
            <circle id="Base5" serif:id="Base" cx="67.504" cy="53.392" r="16.496" style="fill:none;"/>
            <path id="path895" serif:id="path89" d="M75.414,66.491C74.855,66.829 74.675,67.558 75.013,68.118C75.351,68.677 76.08,68.856 76.639,68.518C77.199,68.18 77.378,67.452 77.04,66.892C76.702,66.333 75.973,66.153 75.414,66.491Z" style="fill:#ecedf1;fill-rule:nonzero;"/>
            <path d="M59.643,66.533C60.205,66.868 60.388,67.596 60.053,68.157C59.718,68.718 58.99,68.902 58.429,68.567C57.868,68.232 57.684,67.504 58.019,66.943C58.355,66.382 59.082,66.198 59.643,66.533Z" style="fill:#ecedf1;fill-rule:nonzero;"/>
            <path d="M76.027,67.505C80.962,64.521 83.988,59.157 83.988,53.39C83.988,44.341 76.542,36.896 67.494,36.896C58.446,36.896 51,44.341 51,53.39C51,59.188 54.058,64.577 59.036,67.55" style="fill:none;fill-rule:nonzero;stroke:#ecedf1;stroke-width:0.79px;stroke-linecap:round;stroke-miterlimit:4;"/>
        </g>
        <path d="M13.978,67.888L31.129,67.888" style="fill:none;"/>
        <path d="M22.5,36.896L22.5,35L67.5,35L67.5,36.809" style="fill:none;stroke:#ecedf1;stroke-width:0.83px;stroke-linejoin:miter;"/>
        <path d="M52.769,127.126C54.256,127.326 54.731,127.776 54.731,128.626L54.731,128.701C54.731,129.514 54.131,130.076 53.081,130.076L52.969,130.076C51.919,130.076 51.281,129.476 51.281,128.089L49.606,128.089L49.606,128.214C49.606,130.451 50.794,131.539 53.031,131.539C55.206,131.539 56.444,130.464 56.444,128.639L56.444,128.501C56.444,126.789 55.431,126.026 53.306,125.739C51.769,125.526 51.406,125.076 51.406,124.276L51.406,124.201C51.406,123.439 52.006,122.926 52.931,122.926L53.044,122.926C54.206,122.926 54.681,123.576 54.681,125.039L56.356,125.039L56.356,124.751C56.356,122.551 55.344,121.464 53.031,121.464C50.919,121.464 49.694,122.564 49.694,124.289L49.694,124.414C49.694,126.026 50.644,126.839 52.769,127.126Z" style="fill:#ecedf1;fill-rule:nonzero;"/>
        <path d="M61.144,123.089L63.469,123.089L63.469,121.626L57.144,121.626L57.144,123.089L59.469,123.089L59.469,131.376L61.144,131.376L61.144,123.089Z" style="fill:#ecedf1;fill-rule:nonzero;"/>
        <path d="M64.469,121.626L64.469,131.376L70.269,131.376L70.269,129.914L66.144,129.914L66.144,127.126L69.644,127.126L69.644,125.676L66.144,125.676L66.144,123.089L70.269,123.089L70.269,121.626L64.469,121.626Z" style="fill:#ecedf1;fill-rule:nonzero;"/>
        <path d="M73.206,127.739L74.581,127.739C76.106,127.739 77.844,127.289 77.844,124.801L77.844,124.551C77.844,122.076 76.106,121.626 74.581,121.626L71.531,121.626L71.531,131.376L73.206,131.376L73.206,127.739ZM73.206,126.276L73.206,123.089L74.644,123.089C75.294,123.089 76.144,123.326 76.144,124.614L76.144,124.751C76.144,126.039 75.294,126.276 74.644,126.276L73.206,126.276Z" style="fill:#ecedf1;fill-rule:nonzero;"/>
        <path d="M81.719,127.126C83.206,127.326 83.681,127.776 83.681,128.626L83.681,128.701C83.681,129.514 83.081,130.076 82.031,130.076L81.919,130.076C80.869,130.076 80.231,129.476 80.231,128.089L78.556,128.089L78.556,128.214C78.556,130.451 79.744,131.539 81.981,131.539C84.156,131.539 85.394,130.464 85.394,128.639L85.394,128.501C85.394,126.789 84.381,126.026 82.256,125.739C80.719,125.526 80.356,125.076 80.356,124.276L80.356,124.201C80.356,123.439 80.956,122.926 81.881,122.926L81.994,122.926C83.156,122.926 83.631,123.576 83.631,125.039L85.306,125.039L85.306,124.751C85.306,122.551 84.294,121.464 81.981,121.464C79.869,121.464 78.644,122.564 78.644,124.289L78.644,124.414C78.644,126.026 79.594,126.839 81.719,127.126Z" style="fill:#ecedf1;fill-rule:nonzero;"/>
        <path d="M22.508,234.314L22.508,206.014" style="fill:none;stroke:#ecedf1;stroke-width:0.83px;stroke-linecap:square;"/>
        <path d="M67.623,234.291L67.623,206.791" style="fill:none;stroke:#ecedf1;stroke-width:0.83px;stroke-linecap:square;"/>
        <path d="M6.73,245.97L4.595,254.136L6.105,254.136L6.553,252.282L8.845,252.282L9.293,254.136L10.793,254.136L8.657,245.97L6.73,245.97ZM7.699,247.563L8.543,251.063L6.845,251.063L7.699,247.563Z" style="fill:#ecedf1;fill-rule:nonzero;"/>
        <path d="M13.97,247.23L15.907,247.23L15.907,246.011L10.637,246.011L10.637,247.23L12.574,247.23L12.574,254.136L13.97,254.136L13.97,247.23Z" style="fill:#ecedf1;fill-rule:nonzero;"/>
        <path d="M19.637,247.23L21.574,247.23L21.574,246.011L16.303,246.011L16.303,247.23L18.241,247.23L18.241,254.136L19.637,254.136L19.637,247.23Z" style="fill:#ecedf1;fill-rule:nonzero;"/>
        <path d="M23.553,245.97L21.418,254.136L22.928,254.136L23.376,252.282L25.668,252.282L26.116,254.136L27.616,254.136L25.48,245.97L23.553,245.97ZM24.522,247.563L25.366,251.063L23.668,251.063L24.522,247.563Z" style="fill:#ecedf1;fill-rule:nonzero;"/>
        <path d="M29.564,250.282L29.564,249.865C29.564,248.032 29.939,247.095 31.095,247.095L31.189,247.095C32.178,247.095 32.501,247.772 32.501,249.063L33.907,249.063L33.907,248.709C33.907,246.73 32.97,245.876 31.105,245.876C29.074,245.876 28.137,247.053 28.137,249.865L28.137,250.282C28.137,253.095 29.074,254.272 31.105,254.272C32.97,254.272 33.907,253.418 33.907,251.501L33.907,251.397L32.501,251.397C32.501,252.418 32.137,253.053 31.189,253.053L31.095,253.053C29.928,253.053 29.564,252.115 29.564,250.282Z" style="fill:#ecedf1;fill-rule:nonzero;"/>
        <path d="M36.376,246.011L34.98,246.011L34.98,254.136L36.376,254.136L36.376,251.74L37.199,250.574L38.845,254.136L40.397,254.136L38.084,249.313L40.397,246.011L38.709,246.011L36.376,249.605L36.376,246.011Z" style="fill:#ecedf1;fill-rule:nonzero;"/>
        <path d="M57.76,250.265L57.76,249.849C57.76,247.036 56.708,245.994 54.427,245.994L52.031,245.994L52.031,254.119L54.427,254.119C56.708,254.119 57.76,253.078 57.76,250.265ZM53.427,252.901L53.427,247.213L54.344,247.213C55.792,247.213 56.333,248.015 56.333,249.849L56.333,250.265C56.333,252.099 55.792,252.901 54.344,252.901L53.427,252.901Z" style="fill:#ecedf1;fill-rule:nonzero;"/>
        <path d="M58.854,245.994L58.854,254.119L63.688,254.119L63.688,252.901L60.25,252.901L60.25,250.578L63.167,250.578L63.167,249.369L60.25,249.369L60.25,247.213L63.688,247.213L63.688,245.994L58.854,245.994Z" style="fill:#ecedf1;fill-rule:nonzero;"/>
        <path d="M65.99,250.265L65.99,249.849C65.99,248.015 66.365,247.078 67.521,247.078L67.615,247.078C68.604,247.078 68.927,247.755 68.927,249.046L70.333,249.046L70.333,248.692C70.333,246.713 69.396,245.859 67.531,245.859C65.5,245.859 64.563,247.036 64.563,249.849L64.563,250.265C64.563,253.078 65.5,254.255 67.531,254.255C69.396,254.255 70.333,253.401 70.333,251.484L70.333,251.38L68.927,251.38C68.927,252.401 68.563,253.036 67.615,253.036L67.521,253.036C66.354,253.036 65.99,252.099 65.99,250.265Z" style="fill:#ecedf1;fill-rule:nonzero;"/>
        <path d="M72.969,245.953L70.833,254.119L72.344,254.119L72.792,252.265L75.083,252.265L75.531,254.119L77.031,254.119L74.896,245.953L72.969,245.953ZM73.938,247.546L74.781,251.046L73.083,251.046L73.938,247.546Z" style="fill:#ecedf1;fill-rule:nonzero;"/>
        <path d="M80.615,251.64L82.969,245.994L81.448,245.994L79.917,249.921L78.385,245.994L76.865,245.994L79.219,251.64L79.219,254.119L80.615,254.119L80.615,251.64Z" style="fill:#ecedf1;fill-rule:nonzero;"/>
        <path id="line87" d="M67.523,193.936L67.523,191.204" style="fill:none;fill-rule:nonzero;stroke:#ecedf1;stroke-width:0.61px;stroke-linecap:round;stroke-miterlimit:4;"/>
        <path d="M56.993,213.491C57.339,213.876 57.932,213.908 58.317,213.562C58.702,213.216 58.733,212.623 58.388,212.238C58.042,211.853 57.448,211.822 57.064,212.167C56.679,212.513 56.647,213.107 56.993,213.491Z" style="fill:#ecedf1;"/>
        <path d="M78.035,213.491C77.689,213.876 77.096,213.908 76.711,213.562C76.326,213.216 76.294,212.623 76.64,212.238C76.986,211.853 77.579,211.822 77.964,212.167C78.349,212.513 78.38,213.107 78.035,213.491Z" style="fill:#ecedf1;"/>
        <path d="M57.69,212.865C55.588,210.526 54.309,207.433 54.309,204.044C54.309,196.756 60.226,190.839 67.514,190.839C74.802,190.839 80.719,196.756 80.719,204.044C80.719,207.433 79.439,210.526 77.337,212.865" style="fill:none;stroke:#ecedf1;stroke-width:0.63px;stroke-linecap:square;"/>
        <path id="line871" serif:id="line87" d="M22.509,193.961L22.509,191.229" style="fill:none;fill-rule:nonzero;stroke:#ecedf1;stroke-width:0.61px;stroke-linecap:round;stroke-miterlimit:4;"/>
        <path d="M11.979,213.516C12.325,213.901 12.918,213.933 13.303,213.587C13.688,213.241 13.72,212.648 13.374,212.263C13.028,211.878 12.435,211.846 12.05,212.192C11.665,212.538 11.633,213.131 11.979,213.516Z" style="fill:#ecedf1;"/>
        <path d="M33.021,213.516C32.675,213.901 32.082,213.933 31.697,213.587C31.312,213.241 31.28,212.648 31.626,212.263C31.972,211.878 32.565,211.846 32.95,212.192C33.335,212.538 33.367,213.131 33.021,213.516Z" style="fill:#ecedf1;"/>
        <path d="M12.676,212.889C10.575,210.55 9.295,207.458 9.295,204.069C9.295,196.781 15.212,190.864 22.5,190.864C29.788,190.864 35.705,196.781 35.705,204.069C35.705,207.458 34.425,210.55 32.324,212.889" style="fill:none;stroke:#ecedf1;stroke-width:0.63px;stroke-linecap:square;"/>
        <path d="M15.36,296.076L17.298,296.076L17.298,294.857L12.027,294.857L12.027,296.076L13.965,296.076L13.965,302.982L15.36,302.982L15.36,296.076Z" style="fill:#ecedf1;fill-rule:nonzero;"/>
        <path d="M19.527,299.951L20.715,299.951L21.881,302.982L23.392,302.982L22.069,299.732C22.808,299.441 23.392,298.805 23.392,297.503L23.392,297.295C23.392,295.232 21.944,294.857 20.673,294.857L18.131,294.857L18.131,302.982L19.527,302.982L19.527,299.951ZM19.527,298.732L19.527,296.076L20.725,296.076C21.267,296.076 21.975,296.274 21.975,297.347L21.975,297.462C21.975,298.535 21.267,298.732 20.725,298.732L19.527,298.732Z" style="fill:#ecedf1;fill-rule:nonzero;"/>
        <rect x="24.548" y="294.857" width="1.396" height="8.125" style="fill:#ecedf1;fill-rule:nonzero;"/>
        <path d="M30.235,303.118C31.61,303.118 32.413,302.66 32.965,302.17L32.965,298.712L30.392,298.712L30.392,299.92L31.569,299.92L31.569,301.493C31.298,301.712 30.86,301.899 30.288,301.899L30.194,301.899C28.913,301.899 28.517,300.962 28.517,299.128L28.517,298.712C28.517,296.878 28.923,295.941 30.121,295.941L30.215,295.941C31.235,295.941 31.569,296.618 31.569,297.91L32.965,297.91L32.965,297.555C32.965,295.576 31.996,294.722 30.131,294.722C28.1,294.722 27.09,295.899 27.09,298.712L27.09,299.128C27.09,301.941 28.1,303.118 30.235,303.118Z" style="fill:#ecedf1;fill-rule:nonzero;"/>
        <path d="M50.646,294.664L48.51,302.83L50.021,302.83L50.469,300.976L52.76,300.976L53.208,302.83L54.708,302.83L52.573,294.664L50.646,294.664ZM51.615,296.258L52.458,299.758L50.76,299.758L51.615,296.258Z" style="fill:#ecedf1;fill-rule:nonzero;"/>
        <path d="M56.656,298.976L56.656,298.56C56.656,296.726 57.031,295.789 58.187,295.789L58.281,295.789C59.271,295.789 59.594,296.466 59.594,297.758L61,297.758L61,297.403C61,295.424 60.062,294.57 58.198,294.57C56.167,294.57 55.229,295.747 55.229,298.56L55.229,298.976C55.229,301.789 56.167,302.966 58.198,302.966C60.062,302.966 61,302.112 61,300.195L61,300.091L59.594,300.091C59.594,301.112 59.229,301.747 58.281,301.747L58.187,301.747C57.021,301.747 56.656,300.81 56.656,298.976Z" style="fill:#ecedf1;fill-rule:nonzero;"/>
        <path d="M63.323,298.976L63.323,298.56C63.323,296.726 63.698,295.789 64.854,295.789L64.948,295.789C65.937,295.789 66.26,296.466 66.26,297.758L67.667,297.758L67.667,297.403C67.667,295.424 66.729,294.57 64.865,294.57C62.833,294.57 61.896,295.747 61.896,298.56L61.896,298.976C61.896,301.789 62.833,302.966 64.865,302.966C66.729,302.966 67.667,302.112 67.667,300.195L67.667,300.091L66.26,300.091C66.26,301.112 65.896,301.747 64.948,301.747L64.854,301.747C63.687,301.747 63.323,300.81 63.323,298.976Z" style="fill:#ecedf1;fill-rule:nonzero;"/>
        <path d="M68.74,294.705L68.74,302.83L73.573,302.83L73.573,301.612L70.135,301.612L70.135,299.289L73.052,299.289L73.052,298.08L70.135,298.08L70.135,295.924L73.573,295.924L73.573,294.705L68.74,294.705Z" style="fill:#ecedf1;fill-rule:nonzero;"/>
        <path d="M80.385,294.705L79.062,294.705L79.062,298.591L79.104,300.31L76.104,294.705L74.625,294.705L74.625,302.83L75.948,302.83L75.948,298.945L75.906,297.226L78.906,302.83L80.385,302.83L80.385,294.705Z" style="fill:#ecedf1;fill-rule:nonzero;"/>
        <path d="M84.552,295.924L86.49,295.924L86.49,294.705L81.219,294.705L81.219,295.924L83.156,295.924L83.156,302.83L84.552,302.83L84.552,295.924Z" style="fill:#ecedf1;fill-rule:nonzero;"/>
        <path d="M67.495,86.063L67.495,83.592" style="fill:none;stroke:#ecedf1;stroke-width:0.83px;stroke-linecap:round;stroke-linejoin:miter;"/>
        <g>
            <path id="path4882" d="M35.58,118.892C35.497,116.505 36.437,115.122 38.92,115.25" style="fill:none;fill-rule:nonzero;stroke:#ecedf1;stroke-width:0.64px;stroke-linejoin:miter;stroke-miterlimit:4;"/>
            <path id="path4884" d="M42.387,118.591C40.114,118.67 38.781,117.3 38.903,114.952" style="fill:none;fill-rule:nonzero;stroke:#ecedf1;stroke-width:0.64px;stroke-linejoin:miter;stroke-miterlimit:4;"/>
        </g>
        <path id="path4890" d="M10.015,118.642L6.607,114.954L3.205,118.636" style="fill:none;fill-rule:nonzero;stroke:#ecedf1;stroke-width:0.62px;stroke-linejoin:miter;stroke-miterlimit:4;"/>
        <path d="M52.137,118.452L49.044,118.894L49.486,115.8L52.137,118.452Z" style="fill:#ecedf1;"/>
        <path d="M52.984,114.954C52.984,114.954 51.588,116.349 50.458,117.479" style="fill:none;stroke:#ecedf1;stroke-width:0.83px;stroke-linecap:round;stroke-linejoin:miter;"/>
        <path d="M81.742,115.395L84.836,114.954L84.394,118.047L81.742,115.395Z" style="fill:#ecedf1;"/>
        <path d="M80.896,118.894C80.896,118.894 82.292,117.498 83.422,116.368" style="fill:none;stroke:#ecedf1;stroke-width:0.83px;stroke-linecap:round;stroke-linejoin:miter;"/>
    </g>
</svg>
