<?xml version="1.0" encoding="UTF-8" standalone="no"?>
<!DOCTYPE svg PUBLIC "-//W3C//DTD SVG 1.1//EN" "http://www.w3.org/Graphics/SVG/1.1/DTD/svg11.dtd">
<svg width="100%" height="100%" viewBox="0 0 60 380" version="1.1" xmlns="http://www.w3.org/2000/svg" xmlns:xlink="http://www.w3.org/1999/xlink" xml:space="preserve" xmlns:serif="http://www.serif.com/" style="fill-rule:evenodd;clip-rule:evenodd;stroke-linejoin:round;stroke-miterlimit:1.5;">
    <g id="Layer1">
        <rect x="0" y="0" width="60" height="380" style="fill:#909090;"/>
        <path d="M45.75,317.8C45.75,316.255 44.495,315 42.95,315L17.05,315C15.505,315 14.25,316.255 14.25,317.8L14.25,352.2C14.25,353.745 15.505,355 17.05,355L42.95,355C44.495,355 45.75,353.745 45.75,352.2L45.75,317.8Z" style="fill:#ab5b87;"/>
        <path d="M0,25L60,25" style="fill:none;stroke:#ecedf1;stroke-width:0.83px;"/>
        <path d="M23.63,353.111C25.661,353.111 26.63,351.934 26.63,349.121L26.63,348.704C26.63,345.892 25.661,344.715 23.63,344.715C21.589,344.715 20.62,345.892 20.62,348.704L20.62,349.121C20.62,351.934 21.589,353.111 23.63,353.111ZM23.578,351.892C22.443,351.892 22.047,350.954 22.047,349.121L22.047,348.704C22.047,346.871 22.443,345.934 23.578,345.934L23.672,345.934C24.807,345.934 25.203,346.871 25.203,348.704L25.203,349.121C25.203,350.954 24.807,351.892 23.672,351.892L23.578,351.892Z" style="fill:#ecedf1;fill-rule:nonzero;"/>
        <path d="M30.505,353.111C32.557,353.111 33.328,352.246 33.328,350.423L33.328,344.85L31.932,344.85L31.932,350.371C31.932,351.444 31.547,351.892 30.505,351.892C29.453,351.892 29.068,351.444 29.068,350.371L29.068,344.85L27.672,344.85L27.672,350.423C27.672,352.246 28.443,353.111 30.505,353.111Z" style="fill:#ecedf1;fill-rule:nonzero;"/>
        <path d="M37.443,346.069L39.38,346.069L39.38,344.85L34.109,344.85L34.109,346.069L36.047,346.069L36.047,352.975L37.443,352.975L37.443,346.069Z" style="fill:#ecedf1;fill-rule:nonzero;"/>
        <path d="M16.661,6.351L15.218,19.351L22.152,19.351L22.449,16.618L18.204,16.618L18.487,14.084L22.025,14.084L22.336,11.351L18.798,11.351L19.053,9.084L23.298,9.084L23.596,6.351L16.661,6.351Z" style="fill:#ecedf1;fill-rule:nonzero;"/>
        <path d="M27.516,19.584C30.714,19.584 31.719,17.951 32.016,15.218L33.007,6.351L30.318,6.351L29.341,15.134C29.228,16.168 28.846,16.851 27.671,16.851C26.497,16.851 26.398,16.168 26.511,15.134L27.487,6.351L24.798,6.351L23.808,15.218C23.511,17.951 24.317,19.584 27.516,19.584Z" style="fill:#ecedf1;fill-rule:nonzero;"/>
        <path d="M39.488,19.351L39.785,16.618L35.894,16.618L37.04,6.351L34.351,6.351L32.908,19.351L39.488,19.351Z" style="fill:#ecedf1;fill-rule:nonzero;"/>
        <path d="M41.851,6.351L40.408,19.351L47.342,19.351L47.64,16.618L43.394,16.618L43.677,14.084L47.215,14.084L47.526,11.351L43.988,11.351L44.243,9.084L48.489,9.084L48.786,6.351L41.851,6.351Z" style="fill:#ecedf1;fill-rule:nonzero;"/>
        <path d="M52.097,12.151L52.451,9.084L53.682,9.084C54.206,9.084 54.758,9.284 54.659,10.518L54.645,10.701C54.546,11.901 53.852,12.151 53.329,12.151L52.097,12.151ZM51.8,14.884L52.55,14.884L53.498,19.351L56.4,19.351L55.225,14.451C56.258,13.951 57.107,12.901 57.348,10.784L57.39,10.418C57.801,6.818 55.734,6.351 53.866,6.351L50.06,6.351L48.616,19.351L51.305,19.351L51.8,14.884Z" style="fill:#ecedf1;fill-rule:nonzero;"/>
        <path d="M20.639,375.731C23.119,375.731 24.211,375.117 24.409,373.302L22.309,373.302C22.127,373.953 21.738,374.136 20.308,374.136L20.11,374.136C18.357,374.136 18.067,373.724 18.067,372.541L18.067,372.33C18.067,371.13 18.357,370.726 20.11,370.726L20.308,370.726C21.738,370.726 22.127,370.91 22.309,371.56L24.409,371.56C24.211,369.745 23.119,369.131 20.639,369.131L19.779,369.131C17.026,369.131 15.976,369.874 15.976,372.23L15.976,372.633C15.976,374.989 17.026,375.731 19.779,375.731L20.639,375.731Z" style="fill:#ecedf1;fill-rule:nonzero;"/>
        <path d="M32.189,374.127L27.311,374.127L27.311,373.183L32.189,373.183L32.189,371.67L27.311,371.67L27.311,370.735L32.189,370.735L32.189,369.223L25.261,369.223L25.261,375.64L32.189,375.64L32.189,374.127Z" style="fill:#ecedf1;fill-rule:nonzero;"/>
        <path d="M39.754,373.925L35.24,373.925L35.24,369.223L33.19,369.223L33.19,375.64L39.754,375.64L39.754,373.925Z" style="fill:#ecedf1;fill-rule:nonzero;"/>
        <path d="M47.039,373.925L42.524,373.925L42.524,369.223L40.474,369.223L40.474,375.64L47.039,375.64L47.039,373.925Z" style="fill:#ecedf1;fill-rule:nonzero;"/>
        <path d="M53.802,369.223L50.66,369.223L47.278,375.64L49.544,375.64L50.197,374.365L54.182,374.365L54.844,375.64L57.183,375.64L53.802,369.223ZM52.231,370.58L53.405,372.853L50.974,372.853L52.156,370.58L52.231,370.58Z" style="fill:#ecedf1;fill-rule:nonzero;"/>
        <path d="M15.787,122.485L15.787,132.235L17.462,132.235L17.462,127.985L20.875,127.985L20.875,126.535L17.462,126.535L17.462,123.948L21.5,123.948L21.5,122.485L15.787,122.485Z" style="fill:#ecedf1;fill-rule:nonzero;"/>
        <path d="M24.187,128.598L25.612,128.598L27.012,132.235L28.825,132.235L27.237,128.335C28.125,127.985 28.825,127.223 28.825,125.66L28.825,125.41C28.825,122.935 27.087,122.485 25.562,122.485L22.512,122.485L22.512,132.235L24.187,132.235L24.187,128.598ZM24.187,127.135L24.187,123.948L25.625,123.948C26.275,123.948 27.125,124.185 27.125,125.473L27.125,125.61C27.125,126.898 26.275,127.135 25.625,127.135L24.187,127.135Z" style="fill:#ecedf1;fill-rule:nonzero;"/>
        <path d="M30.15,122.485L30.15,132.235L35.95,132.235L35.95,130.773L31.825,130.773L31.825,127.985L35.325,127.985L35.325,126.535L31.825,126.535L31.825,123.948L35.95,123.948L35.95,122.485L30.15,122.485Z" style="fill:#ecedf1;fill-rule:nonzero;"/>
        <path d="M40.612,132.398C40.787,132.398 40.962,132.385 41.137,132.373L41.562,133.485L42.9,133.485L42.337,132.073C43.6,131.473 44.212,130.06 44.212,127.61L44.212,127.11C44.212,123.735 43.05,122.323 40.612,122.323C38.162,122.323 37,123.735 37,127.11L37,127.61C37,130.985 38.162,132.398 40.612,132.398ZM41.175,129.098L39.887,129.098L40.587,130.935L40.55,130.935C39.187,130.935 38.712,129.81 38.712,127.61L38.712,127.11C38.712,124.91 39.187,123.785 40.55,123.785L40.662,123.785C42.025,123.785 42.5,124.91 42.5,127.11L42.5,127.61C42.5,129.073 42.287,130.06 41.75,130.56L41.175,129.098Z" style="fill:#ecedf1;fill-rule:nonzero;"/>
        <rect x="25.76" y="245.99" width="1.396" height="8.125" style="fill:#ecedf1;fill-rule:nonzero;"/>
        <path d="M34.24,245.99L32.917,245.99L32.917,249.876L32.958,251.594L29.958,245.99L28.479,245.99L28.479,254.115L29.802,254.115L29.802,250.23L29.76,248.511L32.76,254.115L34.24,254.115L34.24,245.99Z" style="fill:#ecedf1;fill-rule:nonzero;"/>
        <g id="CTR">
            <circle id="Base" cx="30.004" cy="104.357" r="16.496" style="fill:none;"/>
            <circle cx="21.584" cy="118.515" r="0.911" style="fill:#ecedf1;"/>
            <circle cx="38.51" cy="118.515" r="0.911" style="fill:#ecedf1;"/>
            <path id="path89" d="M38.527,118.47C43.462,115.486 46.488,110.122 46.488,104.354C46.488,95.306 39.042,87.861 29.994,87.861C20.946,87.861 13.5,95.306 13.5,104.354C13.5,110.153 16.558,115.541 21.536,118.515" style="fill:none;fill-rule:nonzero;stroke:#ecedf1;stroke-width:0.79px;stroke-linecap:round;stroke-miterlimit:4;"/>
        </g>
        <path d="M21.425,67.888L38.575,67.888" style="fill:none;"/>
        <path d="M19.406,201.304L19.323,202.158L21.073,202.158L19.719,210.262C19.49,211.637 18.948,215.054 17.844,215.054C17.052,215.054 17.74,213.2 16.49,213.2C15.948,213.2 15.656,213.637 15.656,214.221C15.656,214.95 16.177,215.721 17.51,215.721C20.365,215.721 21.281,211.054 21.573,209.262L22.76,202.158L24.719,202.158L24.844,201.304L22.865,201.304L23.115,199.825C23.427,198.054 23.99,196.825 25.052,196.825C25.552,196.825 25.594,197.325 25.677,197.846C25.74,198.283 25.948,198.658 26.51,198.658C26.948,198.658 27.344,198.346 27.344,197.741C27.344,196.846 26.635,196.221 25.365,196.221C23.573,196.221 22.719,197.179 22.177,198.158C21.698,199.012 21.448,200.137 21.198,201.304L19.406,201.304Z" style="fill:#ecedf1;fill-rule:nonzero;"/>
        <path d="M24.865,207.512C24.865,210.887 26.406,213.429 28.76,214.804L29.115,214.325C27.281,212.908 26.469,210.721 26.469,207.887C26.469,201.783 29.51,198.366 32.99,196.346L32.719,195.825C28.135,197.929 24.865,202.116 24.865,207.512Z" style="fill:#ecedf1;fill-rule:nonzero;"/>
        <path d="M38.01,201.304L35.906,201.304L36.49,198.679L35.865,198.679C34.823,200.491 34.302,200.991 32.969,201.679L32.885,202.116L34.073,202.116L32.656,208.929C32.615,209.137 32.51,209.762 32.51,210.116C32.51,210.762 32.906,211.221 33.781,211.221C35.427,211.221 36.302,209.679 36.906,208.866L36.49,208.554C35.76,209.491 35.323,209.804 34.719,209.804C34.427,209.804 34.365,209.596 34.365,209.366C34.365,209.012 34.51,208.325 34.51,208.325L35.74,202.116L37.844,202.116L38.01,201.304Z" style="fill:#ecedf1;fill-rule:nonzero;"/>
        <path d="M44.344,203.116C44.344,199.741 42.802,197.2 40.448,195.825L40.094,196.304C41.927,197.721 42.74,199.908 42.74,202.741C42.74,208.846 39.698,212.262 36.219,214.283L36.49,214.804C41.073,212.7 44.344,208.512 44.344,203.116Z" style="fill:#ecedf1;fill-rule:nonzero;"/>
        <path d="M31.542,67.921L31.083,67.921L28.229,68.15L28.229,68.692C28.229,68.692 28.604,68.65 28.854,68.65C29.479,68.65 29.583,68.942 29.583,69.296C29.583,69.588 29.521,69.963 29.521,69.963L28.854,73.463L28.792,73.463C28.313,72.942 27.563,72.63 26.646,72.63C23.75,72.63 21.417,75.734 21.417,79.296C21.417,81.838 22.604,82.859 24.042,82.859C25.271,82.859 26.313,82.088 27.313,80.838L27.479,80.838C27.438,81.088 27.375,81.484 27.375,81.734C27.375,82.38 27.792,82.817 28.604,82.817C29.979,82.817 30.75,81.609 31.458,80.588L31.042,80.275C30.75,80.671 30.188,81.359 29.521,81.359C29.25,81.359 29.125,81.255 29.125,80.963C29.125,80.692 29.229,80.088 29.229,80.088L31.542,67.921ZM27.688,78.942C27.354,80.234 26.146,81.484 24.771,81.484C23.875,81.484 23.25,80.942 23.25,79.046C23.25,76.338 24.542,73.421 26.542,73.421C27.563,73.421 28.271,74.192 28.271,75.38C28.271,75.984 28.083,77.317 27.688,78.942Z" style="fill:#ecedf1;fill-rule:nonzero;"/>
        <path d="M38.583,72.88L36.479,72.88L37.063,70.255L36.438,70.255C35.396,72.067 34.875,72.567 33.542,73.255L33.458,73.692L34.646,73.692L33.229,80.505C33.188,80.713 33.083,81.338 33.083,81.692C33.083,82.338 33.479,82.796 34.354,82.796C36,82.796 36.875,81.255 37.479,80.442L37.063,80.13C36.333,81.067 35.896,81.38 35.292,81.38C35,81.38 34.938,81.171 34.938,80.942C34.938,80.588 35.083,79.9 35.083,79.9L36.313,73.692L38.417,73.692L38.583,72.88Z" style="fill:#ecedf1;fill-rule:nonzero;"/>
        <path d="M36.51,300.433C36.51,297.62 34.969,295.037 31.198,295.037C26.719,295.037 23.49,298.828 23.49,303.787C23.49,306.849 24.927,309.224 28.76,309.224C33.156,309.224 36.51,305.745 36.51,300.433ZM29.01,308.328C26.427,308.328 25.635,306.391 25.635,303.912C25.635,303.391 25.656,302.891 25.719,302.391L34.24,302.391C33.719,305.933 31.865,308.328 29.01,308.328ZM34.385,300.349C34.385,300.745 34.365,301.12 34.344,301.495L25.844,301.495C26.448,298.266 28.302,295.933 30.969,295.933C33.115,295.933 34.385,297.412 34.385,300.349Z" style="fill:#ecedf1;fill-rule:nonzero;"/>
        <g>
            <path d="M52.407,155.554C52.407,153.866 51.482,152.316 49.22,152.316C46.532,152.316 44.595,154.591 44.595,157.566C44.595,159.404 45.457,160.829 47.757,160.829C50.395,160.829 52.407,158.741 52.407,155.554ZM47.907,160.291C46.357,160.291 45.882,159.129 45.882,157.641C45.882,157.329 45.895,157.029 45.932,156.729L51.045,156.729C50.732,158.854 49.62,160.291 47.907,160.291ZM51.132,155.504C51.132,155.741 51.12,155.966 51.107,156.191L46.007,156.191C46.37,154.254 47.482,152.854 49.082,152.854C50.37,152.854 51.132,153.741 51.132,155.504Z" style="fill:#ecedf1;fill-rule:nonzero;"/>
            <path d="M34.491,147.506C42.399,154.717 44.009,163.288 44.591,173.468C44.603,173.693 44.583,173.921 44.579,174.151" style="fill:none;stroke:#ecedf1;stroke-width:0.67px;stroke-linecap:round;stroke-dasharray:1.33,1.33,0,0,0,0;"/>
            <path d="M7.593,174.151L47.555,174.151" style="fill:none;fill-rule:nonzero;stroke:#ecedf1;stroke-opacity:0.9;stroke-width:0.96px;stroke-linejoin:miter;stroke-miterlimit:10;"/>
            <path d="M8.553,173.468L36.402,145.619" style="fill:none;fill-rule:nonzero;stroke:#ecedf1;stroke-width:0.96px;stroke-linecap:round;stroke-miterlimit:10;"/>
            <path d="M7.888,174.115L9.399,172.625L13.699,168.53L16.444,166.266L18.731,164.7L20.744,163.617L22.574,162.901L24.312,162.475L26.05,162.306L27.697,162.387L29.436,162.726L31.174,163.316L33.004,164.195L35.017,165.44L37.304,167.163L40.049,169.568L44.075,173.49L44.449,173.851" style="fill:none;stroke:#ab5b87;stroke-width:2.04px;stroke-linecap:round;stroke-miterlimit:10;"/>
        </g>
    </g>
</svg>
