<?xml version="1.0" encoding="UTF-8" standalone="no"?>
<!DOCTYPE svg PUBLIC "-//W3C//DTD SVG 1.1//EN" "http://www.w3.org/Graphics/SVG/1.1/DTD/svg11.dtd">
<svg width="100%" height="100%" viewBox="0 0 75 380" version="1.1" xmlns="http://www.w3.org/2000/svg" xmlns:xlink="http://www.w3.org/1999/xlink" xml:space="preserve" xmlns:serif="http://www.serif.com/" style="fill-rule:evenodd;clip-rule:evenodd;stroke-linejoin:round;stroke-miterlimit:1.5;">
    <g id="Layer1">
        <rect x="0" y="0" width="75" height="380" style="fill:#252626;"/>
        <path d="M-0,25L75,25" style="fill:none;stroke:#f7c5ad;stroke-width:0.83px;"/>
        <path d="M35.25,317.822C35.25,316.276 33.995,315.022 32.45,315.022L9.55,315.022C8.005,315.022 6.75,316.276 6.75,317.822L6.75,352.222C6.75,353.767 8.005,355.022 9.55,355.022L32.45,355.022C33.995,355.022 35.25,353.767 35.25,352.222L35.25,317.822Z" style="fill:#79305a;"/>
        <path d="M35.25,267.822C35.25,266.276 33.995,265.022 32.45,265.022L9.55,265.022C8.005,265.022 6.75,266.276 6.75,267.822L6.75,302.222C6.75,303.767 8.005,305.022 9.55,305.022L32.45,305.022C33.995,305.022 35.25,303.767 35.25,302.222L35.25,267.822Z" style="fill:#79305a;"/>
        <path d="M68.25,267.8C68.25,266.255 66.995,265 65.45,265L42.55,265C41.005,265 39.75,266.255 39.75,267.8L39.75,302.2C39.75,303.745 41.005,305 42.55,305L65.45,305C66.995,305 68.25,303.745 68.25,302.2L68.25,267.8Z" style="fill:#79305a;"/>
        <path d="M68.25,317.822C68.25,316.276 66.995,315.022 65.45,315.022L42.55,315.022C41.005,315.022 39.75,316.276 39.75,317.822L39.75,352.222C39.75,353.767 41.005,355.022 42.55,355.022L65.45,355.022C66.995,355.022 68.25,353.767 68.25,352.222L68.25,317.822Z" style="fill:#79305a;"/>
        <path d="M25.12,347.865C25.12,345.904 23.973,344.732 21.863,344.732C18.866,344.732 16.88,346.891 16.88,349.975C16.88,351.985 17.99,353.157 20.1,353.157C23.22,353.157 25.12,350.9 25.12,347.865ZM20.26,352.516C19.211,352.516 18.693,351.64 18.693,350.209C18.693,349.864 18.706,349.531 18.743,349.197L23.171,349.197C22.9,350.838 22.11,352.516 20.26,352.516ZM23.282,347.68C23.282,347.952 23.27,348.235 23.245,348.531L18.841,348.531C19.236,346.632 20.322,345.349 21.703,345.349C22.702,345.349 23.282,346.188 23.282,347.68Z" style="fill:#f7c5ad;fill-rule:nonzero;"/>
        <path d="M15.943,349.328L15.943,348.561L13.759,348.561L13.759,346.353L12.959,346.353L12.959,348.561L10.776,348.561L10.776,349.328L12.959,349.328L12.959,351.536L13.759,351.536L13.759,349.328L15.943,349.328Z" style="fill:#f7c5ad;fill-rule:nonzero;"/>
        <path d="M48.475,349.383L48.653,348.557L43.95,348.557L43.772,349.383L48.475,349.383Z" style="fill:#f7c5ad;fill-rule:nonzero;"/>
        <path d="M25.663,375.731C28.144,375.731 29.235,375.117 29.433,373.302L27.333,373.302C27.151,373.953 26.763,374.136 25.332,374.136L25.134,374.136C23.381,374.136 23.092,373.724 23.092,372.541L23.092,372.33C23.092,371.13 23.381,370.726 25.134,370.726L25.332,370.726C26.763,370.726 27.151,370.91 27.333,371.56L29.433,371.56C29.235,369.745 28.144,369.131 25.663,369.131L24.803,369.131C22.05,369.131 21,369.874 21,372.23L21,372.633C21,374.989 22.05,375.731 24.803,375.731L25.663,375.731Z" style="fill:#f7c5ad;fill-rule:nonzero;"/>
        <path d="M37.214,374.127L32.335,374.127L32.335,373.183L37.214,373.183L37.214,371.67L32.335,371.67L32.335,370.735L37.214,370.735L37.214,369.223L30.285,369.223L30.285,375.64L37.214,375.64L37.214,374.127Z" style="fill:#f7c5ad;fill-rule:nonzero;"/>
        <path d="M44.779,373.925L40.264,373.925L40.264,369.223L38.214,369.223L38.214,375.64L44.779,375.64L44.779,373.925Z" style="fill:#f7c5ad;fill-rule:nonzero;"/>
        <path d="M52.063,373.925L47.549,373.925L47.549,369.223L45.498,369.223L45.498,375.64L52.063,375.64L52.063,373.925Z" style="fill:#f7c5ad;fill-rule:nonzero;"/>
        <path d="M58.826,369.223L55.684,369.223L52.303,375.64L54.568,375.64L55.221,374.365L59.207,374.365L59.868,375.64L62.208,375.64L58.826,369.223ZM57.255,370.58L58.429,372.853L55.999,372.853L57.181,370.58L57.255,370.58Z" style="fill:#f7c5ad;fill-rule:nonzero;"/>
        <path d="M23.287,122.485L23.287,132.235L24.962,132.235L24.962,127.985L28.375,127.985L28.375,126.535L24.962,126.535L24.962,123.948L29,123.948L29,122.485L23.287,122.485Z" style="fill:#f7c5ad;fill-rule:nonzero;"/>
        <path d="M31.687,128.598L33.112,128.598L34.512,132.235L36.325,132.235L34.737,128.335C35.625,127.985 36.325,127.223 36.325,125.66L36.325,125.41C36.325,122.935 34.587,122.485 33.062,122.485L30.012,122.485L30.012,132.235L31.687,132.235L31.687,128.598ZM31.687,127.135L31.687,123.948L33.125,123.948C33.775,123.948 34.625,124.185 34.625,125.473L34.625,125.61C34.625,126.898 33.775,127.135 33.125,127.135L31.687,127.135Z" style="fill:#f7c5ad;fill-rule:nonzero;"/>
        <path d="M37.65,122.485L37.65,132.235L43.45,132.235L43.45,130.773L39.325,130.773L39.325,127.985L42.825,127.985L42.825,126.535L39.325,126.535L39.325,123.948L43.45,123.948L43.45,122.485L37.65,122.485Z" style="fill:#f7c5ad;fill-rule:nonzero;"/>
        <path d="M48.112,132.398C48.287,132.398 48.462,132.385 48.637,132.373L49.062,133.485L50.4,133.485L49.837,132.073C51.1,131.473 51.712,130.06 51.712,127.61L51.712,127.11C51.712,123.735 50.55,122.323 48.112,122.323C45.662,122.323 44.5,123.735 44.5,127.11L44.5,127.61C44.5,130.985 45.662,132.398 48.112,132.398ZM48.675,129.098L47.387,129.098L48.087,130.935L48.05,130.935C46.687,130.935 46.212,129.81 46.212,127.61L46.212,127.11C46.212,124.91 46.687,123.785 48.05,123.785L48.162,123.785C49.525,123.785 50,124.91 50,127.11L50,127.61C50,129.073 49.787,130.06 49.25,130.56L48.675,129.098Z" style="fill:#f7c5ad;fill-rule:nonzero;"/>
        <rect x="33.26" y="245.99" width="1.396" height="8.125" style="fill:#f7c5ad;fill-rule:nonzero;"/>
        <path d="M41.74,245.99L40.417,245.99L40.417,249.876L40.458,251.594L37.458,245.99L35.979,245.99L35.979,254.115L37.302,254.115L37.302,250.23L37.26,248.511L40.26,254.115L41.74,254.115L41.74,245.99Z" style="fill:#f7c5ad;fill-rule:nonzero;"/>
        <g id="CTR">
            <circle id="Base" cx="37.504" cy="104.357" r="16.496" style="fill:none;"/>
            <path id="path89" d="M45.414,117.456C44.855,117.794 44.675,118.523 45.013,119.082C45.351,119.642 46.08,119.821 46.639,119.483C47.199,119.145 47.378,118.416 47.04,117.857C46.702,117.297 45.973,117.118 45.414,117.456Z" style="fill:#f7c5ad;fill-rule:nonzero;"/>
            <path d="M29.643,117.498C30.205,117.833 30.388,118.561 30.053,119.122C29.718,119.683 28.99,119.867 28.429,119.531C27.868,119.196 27.684,118.469 28.019,117.907C28.355,117.346 29.082,117.163 29.643,117.498Z" style="fill:#f7c5ad;fill-rule:nonzero;"/>
            <path d="M46.027,118.47C50.962,115.486 53.988,110.122 53.988,104.354C53.988,95.306 46.542,87.861 37.494,87.861C28.446,87.861 21,95.306 21,104.354C21,110.153 24.058,115.541 29.036,118.515" style="fill:none;fill-rule:nonzero;stroke:#f7c5ad;stroke-width:0.79px;stroke-linecap:round;stroke-miterlimit:4;"/>
        </g>
        <path d="M28.925,67.888L46.075,67.888" style="fill:none;"/>
        <path d="M26.906,201.304L26.823,202.158L28.573,202.158L27.219,210.262C26.99,211.637 26.448,215.054 25.344,215.054C24.552,215.054 25.24,213.2 23.99,213.2C23.448,213.2 23.156,213.637 23.156,214.221C23.156,214.95 23.677,215.721 25.01,215.721C27.865,215.721 28.781,211.054 29.073,209.262L30.26,202.158L32.219,202.158L32.344,201.304L30.365,201.304L30.615,199.825C30.927,198.054 31.49,196.825 32.552,196.825C33.052,196.825 33.094,197.325 33.177,197.846C33.24,198.283 33.448,198.658 34.01,198.658C34.448,198.658 34.844,198.346 34.844,197.741C34.844,196.846 34.135,196.221 32.865,196.221C31.073,196.221 30.219,197.179 29.677,198.158C29.198,199.012 28.948,200.137 28.698,201.304L26.906,201.304Z" style="fill:#f7c5ad;fill-rule:nonzero;"/>
        <path d="M32.365,207.512C32.365,210.887 33.906,213.429 36.26,214.804L36.615,214.325C34.781,212.908 33.969,210.721 33.969,207.887C33.969,201.783 37.01,198.366 40.49,196.346L40.219,195.825C35.635,197.929 32.365,202.116 32.365,207.512Z" style="fill:#f7c5ad;fill-rule:nonzero;"/>
        <path d="M45.51,201.304L43.406,201.304L43.99,198.679L43.365,198.679C42.323,200.491 41.802,200.991 40.469,201.679L40.385,202.116L41.573,202.116L40.156,208.929C40.115,209.137 40.01,209.762 40.01,210.116C40.01,210.762 40.406,211.221 41.281,211.221C42.927,211.221 43.802,209.679 44.406,208.866L43.99,208.554C43.26,209.491 42.823,209.804 42.219,209.804C41.927,209.804 41.865,209.596 41.865,209.366C41.865,209.012 42.01,208.325 42.01,208.325L43.24,202.116L45.344,202.116L45.51,201.304Z" style="fill:#f7c5ad;fill-rule:nonzero;"/>
        <path d="M51.844,203.116C51.844,199.741 50.302,197.2 47.948,195.825L47.594,196.304C49.427,197.721 50.24,199.908 50.24,202.741C50.24,208.846 47.198,212.262 43.719,214.283L43.99,214.804C48.573,212.7 51.844,208.512 51.844,203.116Z" style="fill:#f7c5ad;fill-rule:nonzero;"/>
        <path d="M39.042,67.921L38.583,67.921L35.729,68.15L35.729,68.692C35.729,68.692 36.104,68.65 36.354,68.65C36.979,68.65 37.083,68.942 37.083,69.296C37.083,69.588 37.021,69.963 37.021,69.963L36.354,73.463L36.292,73.463C35.813,72.942 35.063,72.63 34.146,72.63C31.25,72.63 28.917,75.734 28.917,79.296C28.917,81.838 30.104,82.859 31.542,82.859C32.771,82.859 33.813,82.088 34.813,80.838L34.979,80.838C34.938,81.088 34.875,81.484 34.875,81.734C34.875,82.38 35.292,82.817 36.104,82.817C37.479,82.817 38.25,81.609 38.958,80.588L38.542,80.275C38.25,80.671 37.688,81.359 37.021,81.359C36.75,81.359 36.625,81.255 36.625,80.963C36.625,80.692 36.729,80.088 36.729,80.088L39.042,67.921ZM35.188,78.942C34.854,80.234 33.646,81.484 32.271,81.484C31.375,81.484 30.75,80.942 30.75,79.046C30.75,76.338 32.042,73.421 34.042,73.421C35.063,73.421 35.771,74.192 35.771,75.38C35.771,75.984 35.583,77.317 35.188,78.942Z" style="fill:#f7c5ad;fill-rule:nonzero;"/>
        <path d="M46.083,72.88L43.979,72.88L44.563,70.255L43.938,70.255C42.896,72.067 42.375,72.567 41.042,73.255L40.958,73.692L42.146,73.692L40.729,80.505C40.688,80.713 40.583,81.338 40.583,81.692C40.583,82.338 40.979,82.796 41.854,82.796C43.5,82.796 44.375,81.255 44.979,80.442L44.563,80.13C43.833,81.067 43.396,81.38 42.792,81.38C42.5,81.38 42.438,81.171 42.438,80.942C42.438,80.588 42.583,79.9 42.583,79.9L43.813,73.692L45.917,73.692L46.083,72.88Z" style="fill:#f7c5ad;fill-rule:nonzero;"/>
        <path d="M25.12,297.844C25.12,295.882 23.973,294.711 21.863,294.711C18.866,294.711 16.88,296.869 16.88,299.953C16.88,301.964 17.99,303.135 20.1,303.135C23.22,303.135 25.12,300.878 25.12,297.844ZM20.26,302.494C19.211,302.494 18.693,301.618 18.693,300.187C18.693,299.842 18.706,299.509 18.743,299.176L23.171,299.176C22.9,300.816 22.11,302.494 20.26,302.494ZM23.282,297.659C23.282,297.93 23.27,298.214 23.245,298.51L18.841,298.51C19.236,296.61 20.322,295.327 21.703,295.327C22.702,295.327 23.282,296.166 23.282,297.659Z" style="fill:#f7c5ad;fill-rule:nonzero;"/>
        <path d="M58.108,347.89C58.108,345.929 56.96,344.757 54.851,344.757C51.854,344.757 49.868,346.916 49.868,350C49.868,352.01 50.978,353.182 53.087,353.182C56.208,353.182 58.108,350.925 58.108,347.89ZM53.248,352.541C52.199,352.541 51.681,351.665 51.681,350.234C51.681,349.889 51.693,349.556 51.73,349.223L56.159,349.223C55.887,350.863 55.098,352.541 53.248,352.541ZM56.27,347.705C56.27,347.977 56.257,348.26 56.233,348.556L51.829,348.556C52.224,346.657 53.309,345.374 54.691,345.374C55.69,345.374 56.27,346.213 56.27,347.705Z" style="fill:#f7c5ad;fill-rule:nonzero;"/>
        <path d="M16.444,177.955C17.931,178.155 18.406,178.605 18.406,179.455L18.406,179.53C18.406,180.343 17.806,180.905 16.756,180.905L16.644,180.905C15.594,180.905 14.956,180.305 14.956,178.918L13.281,178.918L13.281,179.043C13.281,181.28 14.469,182.368 16.706,182.368C18.881,182.368 20.119,181.293 20.119,179.468L20.119,179.33C20.119,177.618 19.106,176.855 16.981,176.568C15.444,176.355 15.081,175.905 15.081,175.105L15.081,175.03C15.081,174.268 15.681,173.755 16.606,173.755L16.719,173.755C17.881,173.755 18.356,174.405 18.356,175.868L20.031,175.868L20.031,175.58C20.031,173.38 19.019,172.293 16.706,172.293C14.594,172.293 13.369,173.393 13.369,175.118L13.369,175.243C13.369,176.855 14.319,177.668 16.444,177.955Z" style="fill:#f7c5ad;fill-rule:nonzero;"/>
        <path d="M28.806,175.368L28.756,177.38L28.756,182.205L30.431,182.205L30.431,172.455L27.969,172.455L25.881,179.305L23.806,172.455L21.344,172.455L21.344,182.205L23.019,182.205L23.019,177.38L22.969,175.368L25.044,182.205L26.719,182.205L28.806,175.368Z" style="fill:#f7c5ad;fill-rule:nonzero;"/>
        <path d="M35.356,182.368C37.794,182.368 38.956,180.955 38.956,177.58L38.956,177.08C38.956,173.705 37.794,172.293 35.356,172.293C32.906,172.293 31.744,173.705 31.744,177.08L31.744,177.58C31.744,180.955 32.906,182.368 35.356,182.368ZM35.294,180.905C33.931,180.905 33.456,179.78 33.456,177.58L33.456,177.08C33.456,174.88 33.931,173.755 35.294,173.755L35.406,173.755C36.769,173.755 37.244,174.88 37.244,177.08L37.244,177.58C37.244,179.78 36.769,180.905 35.406,180.905L35.294,180.905Z" style="fill:#f7c5ad;fill-rule:nonzero;"/>
        <path d="M43.669,182.368C46.106,182.368 47.269,180.955 47.269,177.58L47.269,177.08C47.269,173.705 46.106,172.293 43.669,172.293C41.219,172.293 40.056,173.705 40.056,177.08L40.056,177.58C40.056,180.955 41.219,182.368 43.669,182.368ZM43.606,180.905C42.244,180.905 41.769,179.78 41.769,177.58L41.769,177.08C41.769,174.88 42.244,173.755 43.606,173.755L43.719,173.755C45.081,173.755 45.556,174.88 45.556,177.08L45.556,177.58C45.556,179.78 45.081,180.905 43.719,180.905L43.606,180.905Z" style="fill:#f7c5ad;fill-rule:nonzero;"/>
        <path d="M51.731,173.918L54.056,173.918L54.056,172.455L47.731,172.455L47.731,173.918L50.056,173.918L50.056,182.205L51.731,182.205L51.731,173.918Z" style="fill:#f7c5ad;fill-rule:nonzero;"/>
        <path d="M60.044,172.455L60.044,176.505L56.731,176.505L56.731,172.455L55.056,172.455L55.056,182.205L56.731,182.205L56.731,177.955L60.044,177.955L60.044,182.205L61.719,182.205L61.719,172.455L60.044,172.455Z" style="fill:#f7c5ad;fill-rule:nonzero;"/>
        <g id="CTR1" serif:id="CTR">
            <circle id="Base1" serif:id="Base" cx="37.504" cy="154.327" r="16.496" style="fill:none;"/>
            <path id="path891" serif:id="path89" d="M45.414,167.426C44.855,167.764 44.675,168.493 45.013,169.053C45.351,169.612 46.08,169.791 46.639,169.453C47.199,169.115 47.378,168.387 47.04,167.827C46.702,167.268 45.973,167.088 45.414,167.426Z" style="fill:#f7c5ad;fill-rule:nonzero;"/>
            <path d="M29.643,167.468C30.205,167.803 30.388,168.531 30.053,169.092C29.718,169.653 28.99,169.837 28.429,169.502C27.868,169.167 27.684,168.439 28.019,167.878C28.355,167.317 29.082,167.133 29.643,167.468Z" style="fill:#f7c5ad;fill-rule:nonzero;"/>
            <path d="M46.027,168.44C50.962,165.456 53.988,160.092 53.988,154.325C53.988,145.276 46.542,137.831 37.494,137.831C28.446,137.831 21,145.276 21,154.325C21,160.123 24.058,165.512 29.036,168.485" style="fill:none;fill-rule:nonzero;stroke:#f7c5ad;stroke-width:0.79px;stroke-linecap:round;stroke-miterlimit:4;"/>
        </g>
        <g transform="matrix(0.59207,0,0,0.59207,36.5814,151.287)">
            <g transform="matrix(20.8333,0,0,20.8333,15.8262,256.075)">
                <rect x="0.115" y="-0.679" width="0.057" height="0.717" style="fill:#f7c5ad;fill-rule:nonzero;"/>
            </g>
            <g transform="matrix(20.8333,0,0,20.8333,21.3887,256.075)">
                <path d="M0.729,-0.415C0.729,-0.574 0.636,-0.669 0.465,-0.669C0.222,-0.669 0.061,-0.494 0.061,-0.244C0.061,-0.081 0.151,0.014 0.322,0.014C0.575,0.014 0.729,-0.169 0.729,-0.415ZM0.335,-0.038C0.25,-0.038 0.208,-0.109 0.208,-0.225C0.208,-0.253 0.209,-0.28 0.212,-0.307L0.571,-0.307C0.549,-0.174 0.485,-0.038 0.335,-0.038ZM0.58,-0.43C0.58,-0.408 0.579,-0.385 0.577,-0.361L0.22,-0.361C0.252,-0.515 0.34,-0.619 0.452,-0.619C0.533,-0.619 0.58,-0.551 0.58,-0.43Z" style="fill:#f7c5ad;fill-rule:nonzero;"/>
            </g>
            <g transform="matrix(20.8333,0,0,20.8333,36.9928,256.075)">
                <rect x="0.115" y="-0.679" width="0.057" height="0.717" style="fill:#f7c5ad;fill-rule:nonzero;"/>
            </g>
        </g>
        <g>
            <path d="M50.851,53.848C50.851,52.843 50.299,51.919 48.951,51.919C47.35,51.919 46.196,53.275 46.196,55.047C46.196,56.142 46.71,56.991 48.08,56.991C49.651,56.991 50.851,55.747 50.851,53.848ZM48.169,56.671C47.246,56.671 46.963,55.978 46.963,55.092C46.963,54.906 46.97,54.727 46.993,54.548L50.039,54.548C49.853,55.814 49.19,56.671 48.169,56.671ZM50.091,53.818C50.091,53.96 50.083,54.094 50.076,54.228L47.037,54.228C47.253,53.074 47.916,52.239 48.869,52.239C49.637,52.239 50.091,52.768 50.091,53.818Z" style="fill:#f7c5ad;fill-rule:nonzero;"/>
            <path d="M42.299,49.753L40.176,49.053L40.89,51.172C40.888,50.465 41.592,49.755 42.299,49.753Z" style="fill:#f7c5ad;fill-opacity:0.84;"/>
            <path d="M47.097,62.887L46.186,64.929L45.099,62.975C45.62,63.452 46.619,63.408 47.097,62.887Z" style="fill:#f7c5ad;fill-opacity:0.84;"/>
            <path d="M41.311,50.181C44.777,53.942 45.741,58.296 46.116,63.33" style="fill:none;stroke:#f7c5ad;stroke-opacity:0.84;stroke-width:0.67px;stroke-linecap:round;stroke-dasharray:1.33,1.33,0,0,0,0;"/>
            <path d="M24.149,64.929L47.959,64.929" style="fill:none;fill-rule:nonzero;stroke:#f7c5ad;stroke-opacity:0.84;stroke-width:0.57px;stroke-linejoin:miter;stroke-miterlimit:10;"/>
            <path d="M24.722,64.522L41.315,47.929" style="fill:none;fill-rule:nonzero;stroke:#f7c5ad;stroke-opacity:0.84;stroke-width:0.57px;stroke-linecap:round;stroke-miterlimit:10;"/>
            <path d="M24.325,64.908L25.225,64.019L27.788,61.58L29.423,60.231L30.786,59.298L31.985,58.652L33.075,58.226L34.111,57.972L35.147,57.871L36.128,57.92L37.164,58.122L38.2,58.473L39.29,58.997L40.489,59.739L41.852,60.765L43.487,62.198L45.886,64.535L46.109,64.75" style="fill:none;stroke:#f7c5ad;stroke-width:1.21px;stroke-linecap:round;stroke-miterlimit:10;"/>
        </g>
        <path d="M19.136,6.351L17.436,19.351L25.602,19.351L25.952,16.618L20.952,16.618L21.286,14.084L25.452,14.084L25.819,11.351L21.652,11.351L21.952,9.084L26.952,9.084L27.302,6.351L19.136,6.351Z" style="fill:#f7c5ad;fill-rule:nonzero;"/>
        <path d="M31.919,19.584C35.686,19.584 36.869,17.951 37.219,15.218L38.386,6.351L35.219,6.351L34.069,15.134C33.936,16.168 33.486,16.851 32.102,16.851C30.719,16.851 30.602,16.168 30.736,15.134L31.886,6.351L28.719,6.351L27.552,15.218C27.202,17.951 28.152,19.584 31.919,19.584Z" style="fill:#f7c5ad;fill-rule:nonzero;"/>
        <path d="M46.019,19.351L46.369,16.618L41.786,16.618L43.136,6.351L39.969,6.351L38.269,19.351L46.019,19.351Z" style="fill:#f7c5ad;fill-rule:nonzero;"/>
        <path d="M48.802,6.351L47.102,19.351L55.269,19.351L55.619,16.618L50.619,16.618L50.952,14.084L55.119,14.084L55.486,11.351L51.319,11.351L51.619,9.084L56.619,9.084L56.969,6.351L48.802,6.351Z" style="fill:#f7c5ad;fill-rule:nonzero;"/>
        <path d="M60.869,12.151L61.286,9.084L62.736,9.084C63.352,9.084 64.002,9.284 63.886,10.518L63.869,10.701C63.752,11.901 62.936,12.151 62.319,12.151L60.869,12.151ZM60.519,14.884L61.402,14.884L62.519,19.351L65.936,19.351L64.552,14.451C65.769,13.951 66.769,12.901 67.052,10.784L67.102,10.418C67.586,6.818 65.152,6.351 62.952,6.351L58.469,6.351L56.769,19.351L59.936,19.351L60.519,14.884Z" style="fill:#f7c5ad;fill-rule:nonzero;"/>
    </g>
</svg>
