<?xml version="1.0" encoding="UTF-8" standalone="no"?>
<!DOCTYPE svg PUBLIC "-//W3C//DTD SVG 1.1//EN" "http://www.w3.org/Graphics/SVG/1.1/DTD/svg11.dtd">
<svg width="100%" height="100%" viewBox="0 0 500 380" version="1.1" xmlns="http://www.w3.org/2000/svg" xmlns:xlink="http://www.w3.org/1999/xlink" xml:space="preserve" xmlns:serif="http://www.serif.com/" style="fill-rule:evenodd;clip-rule:evenodd;stroke-linejoin:round;stroke-miterlimit:1.5;">
    <g id="Layer1">
        <rect x="-0" y="0" width="500" height="380" style="fill:#909090;"/>
        <path d="M0,25L500,25" style="fill:none;stroke:#ecedf1;stroke-width:0.83px;"/>
        <path d="M161.596,6.507L159.896,19.507L163.062,19.507L163.746,14.24L167.912,14.24L168.279,11.507L164.112,11.507L164.412,9.24L169.412,9.24L169.762,6.507L161.596,6.507Z" style="fill:#ecedf1;fill-rule:nonzero;"/>
        <path d="M173.329,12.307L173.746,9.24L175.196,9.24C175.812,9.24 176.462,9.44 176.346,10.673L176.329,10.857C176.212,12.057 175.396,12.307 174.779,12.307L173.329,12.307ZM172.979,15.04L173.862,15.04L174.979,19.507L178.396,19.507L177.012,14.607C178.229,14.107 179.229,13.057 179.512,10.94L179.562,10.573C180.046,6.973 177.612,6.507 175.412,6.507L170.929,6.507L169.229,19.507L172.396,19.507L172.979,15.04Z" style="fill:#ecedf1;fill-rule:nonzero;"/>
        <path d="M181.512,6.507L179.812,19.507L187.979,19.507L188.329,16.773L183.329,16.773L183.662,14.24L187.829,14.24L188.196,11.507L184.029,11.507L184.329,9.24L189.329,9.24L189.679,6.507L181.512,6.507Z" style="fill:#ecedf1;fill-rule:nonzero;"/>
        <path d="M195.879,6.273C192.379,6.273 190.679,8.207 190.079,12.707L189.996,13.34C189.396,17.84 190.962,19.74 194.462,19.74C194.579,19.74 194.679,19.723 194.796,19.723L195.162,21.173L197.579,21.173L197.046,19.24C198.846,18.407 199.812,16.507 200.246,13.307L200.329,12.673C200.929,8.173 199.379,6.273 195.879,6.273ZM195.896,14.957L193.562,14.957L194.079,16.957C193.012,16.673 192.946,15.34 193.212,13.34L193.296,12.707C193.596,10.44 194.096,9.007 195.596,9.007L195.779,9.007C197.279,9.007 197.412,10.407 197.112,12.673L197.029,13.307C196.862,14.557 196.646,15.54 196.229,16.19L195.896,14.957Z" style="fill:#ecedf1;fill-rule:nonzero;"/>
        <path d="M205.629,19.74C209.396,19.74 210.579,18.107 210.929,15.373L212.096,6.507L208.929,6.507L207.779,15.29C207.646,16.323 207.196,17.007 205.812,17.007C204.429,17.007 204.312,16.323 204.446,15.29L205.596,6.507L202.429,6.507L201.262,15.373C200.912,18.107 201.862,19.74 205.629,19.74Z" style="fill:#ecedf1;fill-rule:nonzero;"/>
        <path d="M213.679,6.507L211.979,19.507L220.146,19.507L220.496,16.773L215.496,16.773L215.829,14.24L219.996,14.24L220.362,11.507L216.196,11.507L216.496,9.24L221.496,9.24L221.846,6.507L213.679,6.507Z" style="fill:#ecedf1;fill-rule:nonzero;"/>
        <path d="M233.179,6.507L230.179,6.507L229.562,11.173L229.329,13.673L226.679,6.507L223.346,6.507L221.646,19.507L224.646,19.507L225.246,14.84L225.496,12.34L228.146,19.507L231.479,19.507L233.179,6.507Z" style="fill:#ecedf1;fill-rule:nonzero;"/>
        <path d="M236.962,12.707C237.262,10.457 237.679,9.007 239.262,9.007L239.446,9.007C240.696,9.007 240.812,10.007 240.612,11.507L243.779,11.507L243.862,10.857C244.262,7.723 242.712,6.273 239.546,6.273C236.046,6.273 234.346,8.207 233.746,12.707L233.662,13.34C233.062,17.84 234.629,19.74 238.129,19.74C241.046,19.74 242.929,18.523 243.296,15.157L243.312,15.007L240.146,15.007C239.996,16.173 239.512,17.007 238.396,17.007L238.212,17.007C236.712,17.007 236.579,15.607 236.879,13.34L236.962,12.707Z" style="fill:#ecedf1;fill-rule:nonzero;"/>
        <path d="M250.546,15.507L255.412,6.507L251.946,6.507L249.479,11.607L248.346,6.507L244.879,6.507L247.379,15.507L246.862,19.507L250.029,19.507L250.546,15.507Z" style="fill:#ecedf1;fill-rule:nonzero;"/>
        <path d="M261.862,6.507L257.062,19.507L260.462,19.507L261.312,16.873L264.012,16.873L264.212,19.507L267.596,19.507L266.196,6.507L261.862,6.507ZM263.546,10.173L263.829,14.14L262.229,14.14L263.546,10.173Z" style="fill:#ecedf1;fill-rule:nonzero;"/>
        <path d="M280.112,6.507L277.112,6.507L276.496,11.173L276.262,13.673L273.612,6.507L270.279,6.507L268.579,19.507L271.579,19.507L272.179,14.84L272.429,12.34L275.079,19.507L278.412,19.507L280.112,6.507Z" style="fill:#ecedf1;fill-rule:nonzero;"/>
        <path d="M284.196,6.507L279.396,19.507L282.796,19.507L283.646,16.873L286.346,16.873L286.546,19.507L289.929,19.507L288.529,6.507L284.196,6.507ZM285.879,10.173L286.162,14.14L284.562,14.14L285.879,10.173Z" style="fill:#ecedf1;fill-rule:nonzero;"/>
        <path d="M298.662,19.507L299.012,16.773L294.429,16.773L295.779,6.507L292.612,6.507L290.912,19.507L298.662,19.507Z" style="fill:#ecedf1;fill-rule:nonzero;"/>
        <path d="M305.079,15.507L309.946,6.507L306.479,6.507L304.012,11.607L302.879,6.507L299.412,6.507L301.912,15.507L301.396,19.507L304.562,19.507L305.079,15.507Z" style="fill:#ecedf1;fill-rule:nonzero;"/>
        <path d="M309.246,17.34L308.962,19.507L317.796,19.507L318.146,16.773L315.646,16.773L313.179,16.84L319.046,8.673L319.329,6.507L310.829,6.507L310.479,9.24L312.646,9.24L315.112,9.173L309.246,17.34Z" style="fill:#ecedf1;fill-rule:nonzero;"/>
        <path d="M321.012,6.507L319.312,19.507L327.479,19.507L327.829,16.773L322.829,16.773L323.162,14.24L327.329,14.24L327.696,11.507L323.529,11.507L323.829,9.24L328.829,9.24L329.179,6.507L321.012,6.507Z" style="fill:#ecedf1;fill-rule:nonzero;"/>
        <path d="M333.079,12.307L333.496,9.24L334.946,9.24C335.562,9.24 336.212,9.44 336.096,10.673L336.079,10.857C335.962,12.057 335.146,12.307 334.529,12.307L333.079,12.307ZM332.729,15.04L333.612,15.04L334.729,19.507L338.146,19.507L336.762,14.607C337.979,14.107 338.979,13.057 339.262,10.94L339.312,10.573C339.796,6.973 337.362,6.507 335.162,6.507L330.679,6.507L328.979,19.507L332.146,19.507L332.729,15.04Z" style="fill:#ecedf1;fill-rule:nonzero;"/>
        <path d="M232.327,375.731C235.077,375.731 236.287,375.117 236.507,373.302L234.178,373.302C233.977,373.953 233.546,374.136 231.96,374.136L231.74,374.136C229.797,374.136 229.476,373.724 229.476,372.541L229.476,372.33C229.476,371.13 229.797,370.726 231.74,370.726L231.96,370.726C233.546,370.726 233.977,370.91 234.178,371.56L236.507,371.56C236.287,369.745 235.077,369.131 232.327,369.131L231.373,369.131C228.321,369.131 227.157,369.874 227.157,372.23L227.157,372.633C227.157,374.989 228.321,375.731 231.373,375.731L232.327,375.731Z" style="fill:#ecedf1;fill-rule:nonzero;"/>
        <path d="M245.133,374.127L239.724,374.127L239.724,373.183L245.133,373.183L245.133,371.67L239.724,371.67L239.724,370.735L245.133,370.735L245.133,369.223L237.451,369.223L237.451,375.64L245.133,375.64L245.133,374.127Z" style="fill:#ecedf1;fill-rule:nonzero;"/>
        <path d="M253.52,373.925L248.515,373.925L248.515,369.223L246.242,369.223L246.242,375.64L253.52,375.64L253.52,373.925Z" style="fill:#ecedf1;fill-rule:nonzero;"/>
        <path d="M261.596,373.925L256.591,373.925L256.591,369.223L254.318,369.223L254.318,375.64L261.596,375.64L261.596,373.925Z" style="fill:#ecedf1;fill-rule:nonzero;"/>
        <path d="M269.094,369.223L265.611,369.223L261.862,375.64L264.373,375.64L265.098,374.365L269.516,374.365L270.249,375.64L272.843,375.64L269.094,369.223ZM267.353,370.58L268.654,372.853L265.959,372.853L267.27,370.58L267.353,370.58Z" style="fill:#ecedf1;fill-rule:nonzero;"/>
    </g>
</svg>
