<?xml version="1.0" encoding="UTF-8" standalone="no"?>
<!DOCTYPE svg PUBLIC "-//W3C//DTD SVG 1.1//EN" "http://www.w3.org/Graphics/SVG/1.1/DTD/svg11.dtd">
<svg width="100%" height="100%" viewBox="0 0 90 380" version="1.1" xmlns="http://www.w3.org/2000/svg" xmlns:xlink="http://www.w3.org/1999/xlink" xml:space="preserve" xmlns:serif="http://www.serif.com/" style="fill-rule:evenodd;clip-rule:evenodd;stroke-linecap:square;stroke-linejoin:round;stroke-miterlimit:1.5;">
    <g id="Layer1">
        <rect x="0" y="0" width="90" height="380" style="fill:#909090;"/>
        <path d="M83.25,317.8C83.25,316.255 81.995,315 80.45,315L54.55,315C53.005,315 51.75,316.255 51.75,317.8L51.75,352.2C51.75,353.745 53.005,355 54.55,355L80.45,355C81.995,355 83.25,353.745 83.25,352.2L83.25,317.8Z" style="fill:#ab5b87;"/>
        <path d="M22.508,234.314L22.508,206.014" style="fill:none;stroke:#ecedf1;stroke-width:0.83px;"/>
        <path d="M67.623,234.291L67.623,206.791" style="fill:none;stroke:#ecedf1;stroke-width:0.83px;"/>
        <path d="M0,25L90,25" style="fill:none;stroke:#ecedf1;stroke-width:0.83px;stroke-linecap:butt;"/>
        <rect x="18.518" y="344.088" width="1.396" height="8.125" style="fill:#ecedf1;fill-rule:nonzero;"/>
        <path d="M26.997,344.088L25.674,344.088L25.674,347.973L25.716,349.692L22.716,344.088L21.237,344.088L21.237,352.213L22.56,352.213L22.56,348.327L22.518,346.608L25.518,352.213L26.997,352.213L26.997,344.088Z" style="fill:#ecedf1;fill-rule:nonzero;"/>
        <path d="M9.304,299.941L10.492,299.941L11.659,302.973L13.169,302.973L11.846,299.723C12.586,299.431 13.169,298.795 13.169,297.493L13.169,297.285C13.169,295.223 11.721,294.848 10.45,294.848L7.909,294.848L7.909,302.973L9.304,302.973L9.304,299.941ZM9.304,298.723L9.304,296.066L10.502,296.066C11.044,296.066 11.752,296.264 11.752,297.337L11.752,297.452C11.752,298.525 11.044,298.723 10.502,298.723L9.304,298.723Z" style="fill:#ecedf1;fill-rule:nonzero;"/>
        <path d="M14.273,294.848L14.273,302.973L19.107,302.973L19.107,301.754L15.669,301.754L15.669,299.431L18.586,299.431L18.586,298.223L15.669,298.223L15.669,296.066L19.107,296.066L19.107,294.848L14.273,294.848Z" style="fill:#ecedf1;fill-rule:nonzero;"/>
        <path d="M22.544,299.431C23.784,299.598 24.179,299.973 24.179,300.681L24.179,300.743C24.179,301.42 23.679,301.889 22.804,301.889L22.711,301.889C21.836,301.889 21.304,301.389 21.304,300.233L19.909,300.233L19.909,300.337C19.909,302.202 20.898,303.108 22.763,303.108C24.575,303.108 25.607,302.212 25.607,300.691L25.607,300.577C25.607,299.15 24.763,298.514 22.992,298.275C21.711,298.098 21.409,297.723 21.409,297.056L21.409,296.993C21.409,296.358 21.909,295.931 22.679,295.931L22.773,295.931C23.742,295.931 24.138,296.473 24.138,297.691L25.534,297.691L25.534,297.452C25.534,295.618 24.69,294.712 22.763,294.712C21.002,294.712 19.982,295.629 19.982,297.066L19.982,297.17C19.982,298.514 20.773,299.191 22.544,299.431Z" style="fill:#ecedf1;fill-rule:nonzero;"/>
        <path d="M26.627,294.848L26.627,302.973L31.461,302.973L31.461,301.754L28.023,301.754L28.023,299.431L30.94,299.431L30.94,298.223L28.023,298.223L28.023,296.066L31.461,296.066L31.461,294.848L26.627,294.848Z" style="fill:#ecedf1;fill-rule:nonzero;"/>
        <path d="M35.409,296.066L37.346,296.066L37.346,294.848L32.075,294.848L32.075,296.066L34.013,296.066L34.013,302.973L35.409,302.973L35.409,296.066Z" style="fill:#ecedf1;fill-rule:nonzero;"/>
        <path d="M61.24,353.068C63.271,353.068 64.24,351.891 64.24,349.078L64.24,348.662C64.24,345.849 63.271,344.672 61.24,344.672C59.198,344.672 58.229,345.849 58.229,348.662L58.229,349.078C58.229,351.891 59.198,353.068 61.24,353.068ZM61.187,351.849C60.052,351.849 59.656,350.912 59.656,349.078L59.656,348.662C59.656,346.828 60.052,345.891 61.187,345.891L61.281,345.891C62.417,345.891 62.812,346.828 62.812,348.662L62.812,349.078C62.812,350.912 62.417,351.849 61.281,351.849L61.187,351.849Z" style="fill:#ecedf1;fill-rule:nonzero;"/>
        <path d="M68.115,353.068C70.167,353.068 70.937,352.203 70.937,350.38L70.937,344.808L69.542,344.808L69.542,350.328C69.542,351.401 69.156,351.849 68.115,351.849C67.062,351.849 66.677,351.401 66.677,350.328L66.677,344.808L65.281,344.808L65.281,350.38C65.281,352.203 66.052,353.068 68.115,353.068Z" style="fill:#ecedf1;fill-rule:nonzero;"/>
        <path d="M75.052,346.026L76.99,346.026L76.99,344.808L71.719,344.808L71.719,346.026L73.656,346.026L73.656,352.933L75.052,352.933L75.052,346.026Z" style="fill:#ecedf1;fill-rule:nonzero;"/>
        <path d="M14.901,6.507L12.747,6.507L11.591,19.507L13.745,19.507L14.901,6.507Z" style="fill:#ecedf1;fill-rule:nonzero;"/>
        <path d="M22.779,6.507L20.738,6.507L20.319,11.173L20.16,13.673L18.358,6.507L16.091,6.507L14.935,19.507L16.975,19.507L17.383,14.84L17.553,12.34L19.356,19.507L21.623,19.507L22.779,6.507Z" style="fill:#ecedf1;fill-rule:nonzero;"/>
        <path d="M27.415,9.24L29.399,9.24L29.637,6.507L23.516,6.507L23.278,9.24L25.261,9.24L24.343,19.507L26.497,19.507L27.415,9.24Z" style="fill:#ecedf1;fill-rule:nonzero;"/>
        <path d="M30.373,6.507L29.217,19.507L34.772,19.507L35.01,16.773L31.609,16.773L31.836,14.24L34.669,14.24L34.919,11.507L32.085,11.507L32.289,9.24L35.69,9.24L35.928,6.507L30.373,6.507Z" style="fill:#ecedf1;fill-rule:nonzero;"/>
        <path d="M39.294,19.74C40.972,19.74 41.845,19.023 42.525,18.207L43.058,12.273L39.838,12.273L39.589,15.007L40.655,15.007L40.507,16.673C40.28,16.857 39.861,17.007 39.532,17.007L39.408,17.007C38.331,17.007 38.127,15.607 38.331,13.34L38.387,12.707C38.591,10.457 38.943,9.007 40.02,9.007L40.144,9.007C40.995,9.007 41.119,10.007 40.983,11.507L43.137,11.507L43.194,10.857C43.466,7.723 42.377,6.273 40.212,6.273C37.832,6.273 36.608,8.207 36.2,12.707L36.143,13.34C35.735,17.84 36.914,19.74 39.294,19.74Z" style="fill:#ecedf1;fill-rule:nonzero;"/>
        <path d="M46.288,12.307L46.572,9.24L47.558,9.24C47.977,9.24 48.419,9.44 48.34,10.673L48.328,10.857C48.249,12.057 47.694,12.307 47.274,12.307L46.288,12.307ZM46.05,15.04L46.651,15.04L47.41,19.507L49.734,19.507L48.793,14.607C49.621,14.107 50.301,13.057 50.494,10.94L50.528,10.573C50.856,6.973 49.201,6.507 47.705,6.507L44.656,6.507L43.5,19.507L45.653,19.507L46.05,15.04Z" style="fill:#ecedf1;fill-rule:nonzero;"/>
        <path d="M53.384,6.507L50.119,19.507L52.432,19.507L53.01,16.873L54.846,16.873L54.982,19.507L57.283,19.507L56.331,6.507L53.384,6.507ZM54.529,10.173L54.722,14.14L53.633,14.14L54.529,10.173Z" style="fill:#ecedf1;fill-rule:nonzero;"/>
        <path d="M62.021,9.24L64.005,9.24L64.243,6.507L58.122,6.507L57.884,9.24L59.868,9.24L58.95,19.507L61.103,19.507L62.021,9.24Z" style="fill:#ecedf1;fill-rule:nonzero;"/>
        <path d="M67.984,6.273C65.603,6.273 64.447,8.207 64.039,12.707L63.982,13.34C63.574,17.84 64.64,19.74 67.02,19.74C69.401,19.74 70.546,17.807 70.954,13.307L71.01,12.673C71.418,8.173 70.364,6.273 67.984,6.273ZM67.077,17.007C66.057,17.007 65.966,15.607 66.17,13.34L66.227,12.707C66.431,10.44 66.771,9.007 67.791,9.007L67.916,9.007C68.936,9.007 69.027,10.407 68.823,12.673L68.766,13.307C68.562,15.573 68.222,17.007 67.202,17.007L67.077,17.007Z" style="fill:#ecedf1;fill-rule:nonzero;"/>
        <path d="M74.128,12.307L74.411,9.24L75.397,9.24C75.817,9.24 76.259,9.44 76.179,10.673L76.168,10.857C76.089,12.057 75.533,12.307 75.114,12.307L74.128,12.307ZM73.89,15.04L74.49,15.04L75.25,19.507L77.573,19.507L76.633,14.607C77.46,14.107 78.14,13.057 78.333,10.94L78.367,10.573C78.696,6.973 77.041,6.507 75.544,6.507L72.495,6.507L71.339,19.507L73.493,19.507L73.89,15.04Z" style="fill:#ecedf1;fill-rule:nonzero;"/>
        <path d="M27.327,375.731C30.077,375.731 31.287,375.117 31.507,373.302L29.178,373.302C28.977,373.953 28.546,374.136 26.96,374.136L26.74,374.136C24.797,374.136 24.476,373.724 24.476,372.541L24.476,372.33C24.476,371.13 24.797,370.726 26.74,370.726L26.96,370.726C28.546,370.726 28.977,370.91 29.178,371.56L31.507,371.56C31.287,369.745 30.077,369.131 27.327,369.131L26.373,369.131C23.321,369.131 22.157,369.874 22.157,372.23L22.157,372.633C22.157,374.989 23.321,375.731 26.373,375.731L27.327,375.731Z" style="fill:#ecedf1;fill-rule:nonzero;"/>
        <path d="M40.132,374.127L34.724,374.127L34.724,373.183L40.132,373.183L40.132,371.67L34.724,371.67L34.724,370.735L40.132,370.735L40.132,369.223L32.451,369.223L32.451,375.64L40.132,375.64L40.132,374.127Z" style="fill:#ecedf1;fill-rule:nonzero;"/>
        <path d="M48.52,373.925L43.515,373.925L43.515,369.223L41.242,369.223L41.242,375.64L48.52,375.64L48.52,373.925Z" style="fill:#ecedf1;fill-rule:nonzero;"/>
        <path d="M56.596,373.925L51.591,373.925L51.591,369.223L49.317,369.223L49.317,375.64L56.596,375.64L56.596,373.925Z" style="fill:#ecedf1;fill-rule:nonzero;"/>
        <path d="M64.094,369.223L60.611,369.223L56.862,375.64L59.373,375.64L60.097,374.365L64.516,374.365L65.249,375.64L67.843,375.64L64.094,369.223ZM62.353,370.58L63.654,372.853L60.959,372.853L62.27,370.58L62.353,370.58Z" style="fill:#ecedf1;fill-rule:nonzero;"/>
        <path d="M13.031,81.424C14.681,81.424 15.644,80.874 16.306,80.286L16.306,76.136L13.219,76.136L13.219,77.586L14.631,77.586L14.631,79.474C14.306,79.736 13.781,79.961 13.094,79.961L12.981,79.961C11.444,79.961 10.969,78.836 10.969,76.636L10.969,76.136C10.969,73.936 11.456,72.811 12.894,72.811L13.006,72.811C14.231,72.811 14.631,73.624 14.631,75.174L16.306,75.174L16.306,74.749C16.306,72.374 15.144,71.349 12.906,71.349C10.469,71.349 9.256,72.761 9.256,76.136L9.256,76.636C9.256,80.011 10.469,81.424 13.031,81.424Z" style="fill:#ecedf1;fill-rule:nonzero;"/>
        <path d="M19.644,71.461L17.081,81.261L18.894,81.261L19.431,79.036L22.181,79.036L22.719,81.261L24.519,81.261L21.956,71.461L19.644,71.461ZM20.806,73.374L21.819,77.574L19.781,77.574L20.806,73.374Z" style="fill:#ecedf1;fill-rule:nonzero;"/>
        <rect x="25.569" y="71.511" width="1.675" height="9.75" style="fill:#ecedf1;fill-rule:nonzero;"/>
        <path d="M35.744,71.511L34.156,71.511L34.156,76.174L34.206,78.236L30.606,71.511L28.831,71.511L28.831,81.261L30.419,81.261L30.419,76.599L30.369,74.536L33.969,81.261L35.744,81.261L35.744,71.511Z" style="fill:#ecedf1;fill-rule:nonzero;"/>
        <path d="M59.019,81.1L59.019,79.638L55.256,79.638L55.256,71.35L53.581,71.35L53.581,81.1L59.019,81.1Z" style="fill:#ecedf1;fill-rule:nonzero;"/>
        <path d="M59.969,71.35L59.969,81.1L65.769,81.1L65.769,79.638L61.644,79.638L61.644,76.85L65.144,76.85L65.144,75.4L61.644,75.4L61.644,72.813L65.769,72.813L65.769,71.35L59.969,71.35Z" style="fill:#ecedf1;fill-rule:nonzero;"/>
        <path d="M69.056,71.3L66.494,81.1L68.306,81.1L68.844,78.875L71.594,78.875L72.131,81.1L73.931,81.1L71.369,71.3L69.056,71.3ZM70.219,73.213L71.231,77.413L69.194,77.413L70.219,73.213Z" style="fill:#ecedf1;fill-rule:nonzero;"/>
        <path d="M76.594,71.35L74.919,71.35L74.919,81.1L76.594,81.1L76.594,78.225L77.581,76.825L79.556,81.1L81.419,81.1L78.644,75.313L81.419,71.35L79.394,71.35L76.594,75.663L76.594,71.35Z" style="fill:#ecedf1;fill-rule:nonzero;"/>
        <path d="M14.56,254.272C15.935,254.272 16.737,253.813 17.289,253.324L17.289,249.865L14.716,249.865L14.716,251.074L15.893,251.074L15.893,252.647C15.622,252.865 15.185,253.053 14.612,253.053L14.518,253.053C13.237,253.053 12.841,252.115 12.841,250.282L12.841,249.865C12.841,248.032 13.247,247.095 14.445,247.095L14.539,247.095C15.56,247.095 15.893,247.772 15.893,249.063L17.289,249.063L17.289,248.709C17.289,246.73 16.32,245.876 14.455,245.876C12.424,245.876 11.414,247.053 11.414,249.865L11.414,250.282C11.414,253.095 12.424,254.272 14.56,254.272Z" style="fill:#ecedf1;fill-rule:nonzero;"/>
        <path d="M20.07,245.97L17.935,254.136L19.445,254.136L19.893,252.282L22.185,252.282L22.633,254.136L24.133,254.136L21.997,245.97L20.07,245.97ZM21.039,247.563L21.883,251.063L20.185,251.063L21.039,247.563Z" style="fill:#ecedf1;fill-rule:nonzero;"/>
        <rect x="25.008" y="246.011" width="1.396" height="8.125" style="fill:#ecedf1;fill-rule:nonzero;"/>
        <path d="M33.487,246.011L32.164,246.011L32.164,249.897L32.205,251.615L29.205,246.011L27.726,246.011L27.726,254.136L29.049,254.136L29.049,250.251L29.008,248.532L32.008,254.136L33.487,254.136L33.487,246.011Z" style="fill:#ecedf1;fill-rule:nonzero;"/>
        <path d="M64.967,154.125L64.967,153.875C64.967,152.775 65.192,152.212 65.886,152.212L65.942,152.212C66.536,152.212 66.73,152.618 66.73,153.393L67.573,153.393L67.573,153.181C67.573,151.993 67.011,151.481 65.892,151.481C64.673,151.481 64.111,152.187 64.111,153.875L64.111,154.125C64.111,155.812 64.673,156.518 65.892,156.518C67.011,156.518 67.573,156.006 67.573,154.856L67.573,154.793L66.73,154.793C66.73,155.406 66.511,155.787 65.942,155.787L65.886,155.787C65.186,155.787 64.967,155.225 64.967,154.125Z" style="fill:#ecedf1;fill-rule:nonzero;"/>
        <path d="M70.936,156.437L70.936,155.706L69.055,155.706L69.055,151.562L68.217,151.562L68.217,156.437L70.936,156.437Z" style="fill:#ecedf1;fill-rule:nonzero;"/>
        <rect x="71.442" y="151.562" width="0.838" height="4.875" style="fill:#ecedf1;fill-rule:nonzero;"/>
        <path d="M73.911,154.618L74.598,154.618C75.361,154.618 76.23,154.393 76.23,153.15L76.23,153.025C76.23,151.787 75.361,151.562 74.598,151.562L73.073,151.562L73.073,156.437L73.911,156.437L73.911,154.618ZM73.911,153.887L73.911,152.293L74.63,152.293C74.955,152.293 75.38,152.412 75.38,153.056L75.38,153.125C75.38,153.768 74.955,153.887 74.63,153.887L73.911,153.887Z" style="fill:#ecedf1;fill-rule:nonzero;"/>
        <path d="M64.217,160.224L64.217,165.099L65.055,165.099L65.055,162.974L66.761,162.974L66.761,162.249L65.055,162.249L65.055,160.955L67.073,160.955L67.073,160.224L64.217,160.224Z" style="fill:#ecedf1;fill-rule:nonzero;"/>
        <path d="M69.28,165.18C70.498,165.18 71.08,164.474 71.08,162.786L71.08,162.536C71.08,160.849 70.498,160.143 69.28,160.143C68.055,160.143 67.473,160.849 67.473,162.536L67.473,162.786C67.473,164.474 68.055,165.18 69.28,165.18ZM69.248,164.449C68.567,164.449 68.33,163.886 68.33,162.786L68.33,162.536C68.33,161.436 68.567,160.874 69.248,160.874L69.305,160.874C69.986,160.874 70.223,161.436 70.223,162.536L70.223,162.786C70.223,163.886 69.986,164.449 69.305,164.449L69.248,164.449Z" style="fill:#ecedf1;fill-rule:nonzero;"/>
        <path d="M74.455,165.099L74.455,164.368L72.573,164.368L72.573,160.224L71.736,160.224L71.736,165.099L74.455,165.099Z" style="fill:#ecedf1;fill-rule:nonzero;"/>
        <path d="M78.367,162.786L78.367,162.536C78.367,160.849 77.736,160.224 76.367,160.224L74.93,160.224L74.93,165.099L76.367,165.099C77.736,165.099 78.367,164.474 78.367,162.786ZM75.767,164.368L75.767,160.955L76.317,160.955C77.186,160.955 77.511,161.436 77.511,162.536L77.511,162.786C77.511,163.886 77.186,164.368 76.317,164.368L75.767,164.368Z" style="fill:#ecedf1;fill-rule:nonzero;"/>
        <path d="M67.523,173.767L68.611,173.767L69.448,168.867L68.573,168.867L68.017,172.642L67.248,168.867L66.192,168.867L65.43,172.642L64.873,168.867L63.998,168.867L64.836,173.767L65.917,173.767L66.723,169.817L67.523,173.767Z" style="fill:#ecedf1;fill-rule:nonzero;"/>
        <path d="M70.83,171.923L71.542,171.923L72.242,173.742L73.148,173.742L72.355,171.792C72.798,171.617 73.148,171.236 73.148,170.454L73.148,170.329C73.148,169.092 72.28,168.867 71.517,168.867L69.992,168.867L69.992,173.742L70.83,173.742L70.83,171.923ZM70.83,171.192L70.83,169.598L71.548,169.598C71.873,169.598 72.298,169.717 72.298,170.361L72.298,170.429C72.298,171.073 71.873,171.192 71.548,171.192L70.83,171.192Z" style="fill:#ecedf1;fill-rule:nonzero;"/>
        <path d="M74.761,168.842L73.48,173.742L74.386,173.742L74.655,172.629L76.03,172.629L76.298,173.742L77.198,173.742L75.917,168.842L74.761,168.842ZM75.342,169.798L75.848,171.898L74.83,171.898L75.342,169.798Z" style="fill:#ecedf1;fill-rule:nonzero;"/>
        <path d="M78.53,171.923L79.217,171.923C79.98,171.923 80.848,171.698 80.848,170.454L80.848,170.329C80.848,169.092 79.98,168.867 79.217,168.867L77.692,168.867L77.692,173.742L78.53,173.742L78.53,171.923ZM78.53,171.192L78.53,169.598L79.248,169.598C79.573,169.598 79.998,169.717 79.998,170.361L79.998,170.429C79.998,171.073 79.573,171.192 79.248,171.192L78.53,171.192Z" style="fill:#ecedf1;fill-rule:nonzero;"/>
        <g id="CTR">
            <circle id="Base" cx="22.51" cy="53.392" r="16.496" style="fill:none;"/>
            <circle cx="14.09" cy="67.55" r="0.911" style="fill:#ecedf1;"/>
            <circle cx="31.016" cy="67.55" r="0.911" style="fill:#ecedf1;"/>
            <path id="path89" d="M31.033,67.505C35.968,64.521 38.994,59.157 38.994,53.39C38.994,44.341 31.548,36.896 22.5,36.896C13.451,36.896 6.006,44.341 6.006,53.39C6.006,59.188 9.064,64.577 14.042,67.55" style="fill:none;fill-rule:nonzero;stroke:#ecedf1;stroke-width:0.79px;stroke-linecap:round;stroke-miterlimit:4;"/>
        </g>
        <g id="CTR1" serif:id="CTR">
            <circle id="Base1" serif:id="Base" cx="67.504" cy="53.392" r="16.496" style="fill:none;"/>
            <circle cx="59.084" cy="67.55" r="0.911" style="fill:#ecedf1;"/>
            <circle cx="76.01" cy="67.55" r="0.911" style="fill:#ecedf1;"/>
            <path id="path891" serif:id="path89" d="M76.027,67.505C80.962,64.521 83.988,59.157 83.988,53.39C83.988,44.341 76.542,36.896 67.494,36.896C58.446,36.896 51,44.341 51,53.39C51,59.188 54.058,64.577 59.036,67.55" style="fill:none;fill-rule:nonzero;stroke:#ecedf1;stroke-width:0.79px;stroke-linecap:round;stroke-miterlimit:4;"/>
        </g>
        <path d="M60.38,254.119L60.38,252.901L57.245,252.901L57.245,245.994L55.849,245.994L55.849,254.119L60.38,254.119Z" style="fill:#ecedf1;fill-rule:nonzero;"/>
        <path d="M61.172,245.994L61.172,254.119L66.005,254.119L66.005,252.901L62.568,252.901L62.568,250.578L65.484,250.578L65.484,249.369L62.568,249.369L62.568,247.213L66.005,247.213L66.005,245.994L61.172,245.994Z" style="fill:#ecedf1;fill-rule:nonzero;"/>
        <path d="M68.745,245.953L66.609,254.119L68.12,254.119L68.568,252.265L70.859,252.265L71.307,254.119L72.807,254.119L70.672,245.953L68.745,245.953ZM69.714,247.546L70.557,251.046L68.859,251.046L69.714,247.546Z" style="fill:#ecedf1;fill-rule:nonzero;"/>
        <path d="M75.026,245.994L73.63,245.994L73.63,254.119L75.026,254.119L75.026,251.724L75.849,250.557L77.495,254.119L79.047,254.119L76.734,249.296L79.047,245.994L77.359,245.994L75.026,249.588L75.026,245.994Z" style="fill:#ecedf1;fill-rule:nonzero;"/>
        <g id="SMCTR">
            <path id="line87" d="M67.523,193.936L67.523,191.204" style="fill:none;fill-rule:nonzero;stroke:#ecedf1;stroke-width:0.61px;stroke-linecap:round;stroke-miterlimit:4;"/>
            <path d="M57.69,212.865C55.588,210.526 54.309,207.433 54.309,204.044C54.309,196.756 60.226,190.839 67.514,190.839C74.802,190.839 80.719,196.756 80.719,204.044C80.719,207.433 79.439,210.526 77.337,212.865" style="fill:none;stroke:#ecedf1;stroke-width:0.63px;"/>
            <circle cx="57.729" cy="212.969" r="0.73" style="fill:#ecedf1;"/>
            <circle cx="77.303" cy="212.969" r="0.73" style="fill:#ecedf1;"/>
        </g>
        <g id="SMCTR1" serif:id="SMCTR">
            <path id="line871" serif:id="line87" d="M22.509,193.961L22.509,191.229" style="fill:none;fill-rule:nonzero;stroke:#ecedf1;stroke-width:0.61px;stroke-linecap:round;stroke-miterlimit:4;"/>
            <path d="M12.676,212.889C10.575,210.55 9.295,207.458 9.295,204.069C9.295,196.781 15.212,190.864 22.5,190.864C29.788,190.864 35.705,196.781 35.705,204.069C35.705,207.458 34.425,210.55 32.324,212.889" style="fill:none;stroke:#ecedf1;stroke-width:0.63px;"/>
            <circle cx="12.716" cy="212.994" r="0.73" style="fill:#ecedf1;"/>
            <circle cx="32.29" cy="212.994" r="0.73" style="fill:#ecedf1;"/>
        </g>
        <path d="M13.978,67.888L31.129,67.888" style="fill:none;"/>
        <path d="M83.25,148.35C83.25,146.805 81.995,145.55 80.45,145.55L47.993,145.55C46.447,145.55 45.193,146.805 45.193,148.35L45.193,176.897C45.193,178.442 46.447,179.697 47.993,179.697L80.45,179.697C81.995,179.697 83.25,178.442 83.25,176.897L83.25,148.35Z" style="fill:none;stroke:#ecedf1;stroke-width:0.63px;"/>
        <path d="M22.5,36.896L22.5,35L67.5,35L67.5,36.809" style="fill:none;stroke:#ecedf1;stroke-width:0.83px;stroke-linecap:butt;stroke-linejoin:miter;"/>
    </g>
</svg>
