<?xml version="1.0" encoding="UTF-8" standalone="no"?>
<!DOCTYPE svg PUBLIC "-//W3C//DTD SVG 1.1//EN" "http://www.w3.org/Graphics/SVG/1.1/DTD/svg11.dtd">
<svg width="100%" height="100%" viewBox="0 0 90 380" version="1.1" xmlns="http://www.w3.org/2000/svg" xmlns:xlink="http://www.w3.org/1999/xlink" xml:space="preserve" xmlns:serif="http://www.serif.com/" style="fill-rule:evenodd;clip-rule:evenodd;stroke-linejoin:round;stroke-miterlimit:1.5;">
    <g id="Layer1">
        <rect x="0" y="0" width="90" height="380" style="fill:#252626;"/>
        <path d="M83.25,317.8C83.25,316.255 81.995,315 80.45,315L54.55,315C53.005,315 51.75,316.255 51.75,317.8L51.75,352.2C51.75,353.745 53.005,355 54.55,355L80.45,355C81.995,355 83.25,353.745 83.25,352.2L83.25,317.8Z" style="fill:#79305a;"/>
        <path d="M0,25L90,25" style="fill:none;stroke:#f7c5ad;stroke-width:0.83px;"/>
        <rect x="18.518" y="344.088" width="1.396" height="8.125" style="fill:#f7c5ad;fill-rule:nonzero;"/>
        <path d="M26.997,344.088L25.674,344.088L25.674,347.973L25.716,349.692L22.716,344.088L21.237,344.088L21.237,352.213L22.56,352.213L22.56,348.327L22.518,346.608L25.518,352.213L26.997,352.213L26.997,344.088Z" style="fill:#f7c5ad;fill-rule:nonzero;"/>
        <path d="M31.677,299.941L32.865,299.941L34.031,302.973L35.542,302.973L34.219,299.723C34.958,299.431 35.542,298.795 35.542,297.493L35.542,297.285C35.542,295.223 34.094,294.848 32.823,294.848L30.281,294.848L30.281,302.973L31.677,302.973L31.677,299.941ZM31.677,298.723L31.677,296.066L32.875,296.066C33.417,296.066 34.125,296.264 34.125,297.337L34.125,297.452C34.125,298.525 33.417,298.723 32.875,298.723L31.677,298.723Z" style="fill:#f7c5ad;fill-rule:nonzero;"/>
        <path d="M36.646,294.848L36.646,302.973L41.479,302.973L41.479,301.754L38.042,301.754L38.042,299.431L40.958,299.431L40.958,298.223L38.042,298.223L38.042,296.066L41.479,296.066L41.479,294.848L36.646,294.848Z" style="fill:#f7c5ad;fill-rule:nonzero;"/>
        <path d="M44.917,299.431C46.156,299.598 46.552,299.973 46.552,300.681L46.552,300.743C46.552,301.42 46.052,301.889 45.177,301.889L45.083,301.889C44.208,301.889 43.677,301.389 43.677,300.233L42.281,300.233L42.281,300.337C42.281,302.202 43.271,303.108 45.135,303.108C46.948,303.108 47.979,302.212 47.979,300.691L47.979,300.577C47.979,299.15 47.135,298.514 45.365,298.275C44.083,298.098 43.781,297.723 43.781,297.056L43.781,296.993C43.781,296.358 44.281,295.931 45.052,295.931L45.146,295.931C46.115,295.931 46.51,296.473 46.51,297.691L47.906,297.691L47.906,297.452C47.906,295.618 47.063,294.712 45.135,294.712C43.375,294.712 42.354,295.629 42.354,297.066L42.354,297.17C42.354,298.514 43.146,299.191 44.917,299.431Z" style="fill:#f7c5ad;fill-rule:nonzero;"/>
        <path d="M49,294.848L49,302.973L53.833,302.973L53.833,301.754L50.396,301.754L50.396,299.431L53.313,299.431L53.313,298.223L50.396,298.223L50.396,296.066L53.833,296.066L53.833,294.848L49,294.848Z" style="fill:#f7c5ad;fill-rule:nonzero;"/>
        <path d="M57.781,296.066L59.719,296.066L59.719,294.848L54.448,294.848L54.448,296.066L56.385,296.066L56.385,302.973L57.781,302.973L57.781,296.066Z" style="fill:#f7c5ad;fill-rule:nonzero;"/>
        <path d="M61.24,353.068C63.271,353.068 64.24,351.891 64.24,349.078L64.24,348.662C64.24,345.849 63.271,344.672 61.24,344.672C59.198,344.672 58.229,345.849 58.229,348.662L58.229,349.078C58.229,351.891 59.198,353.068 61.24,353.068ZM61.187,351.849C60.052,351.849 59.656,350.912 59.656,349.078L59.656,348.662C59.656,346.828 60.052,345.891 61.187,345.891L61.281,345.891C62.417,345.891 62.812,346.828 62.812,348.662L62.812,349.078C62.812,350.912 62.417,351.849 61.281,351.849L61.187,351.849Z" style="fill:#f7c5ad;fill-rule:nonzero;"/>
        <path d="M68.115,353.068C70.167,353.068 70.937,352.203 70.937,350.38L70.937,344.808L69.542,344.808L69.542,350.328C69.542,351.401 69.156,351.849 68.115,351.849C67.062,351.849 66.677,351.401 66.677,350.328L66.677,344.808L65.281,344.808L65.281,350.38C65.281,352.203 66.052,353.068 68.115,353.068Z" style="fill:#f7c5ad;fill-rule:nonzero;"/>
        <path d="M75.052,346.026L76.99,346.026L76.99,344.808L71.719,344.808L71.719,346.026L73.656,346.026L73.656,352.933L75.052,352.933L75.052,346.026Z" style="fill:#f7c5ad;fill-rule:nonzero;"/>
        <path d="M11.392,6.507L8.225,6.507L6.525,19.507L9.692,19.507L11.392,6.507Z" style="fill:#f7c5ad;fill-rule:nonzero;"/>
        <path d="M22.975,6.507L19.975,6.507L19.358,11.173L19.125,13.673L16.475,6.507L13.142,6.507L11.442,19.507L14.442,19.507L15.042,14.84L15.292,12.34L17.942,19.507L21.275,19.507L22.975,6.507Z" style="fill:#f7c5ad;fill-rule:nonzero;"/>
        <path d="M29.792,9.24L32.708,9.24L33.058,6.507L24.058,6.507L23.708,9.24L26.625,9.24L25.275,19.507L28.442,19.507L29.792,9.24Z" style="fill:#f7c5ad;fill-rule:nonzero;"/>
        <path d="M34.142,6.507L32.442,19.507L40.608,19.507L40.958,16.773L35.958,16.773L36.292,14.24L40.458,14.24L40.825,11.507L36.658,11.507L36.958,9.24L41.958,9.24L42.308,6.507L34.142,6.507Z" style="fill:#f7c5ad;fill-rule:nonzero;"/>
        <path d="M47.258,19.74C49.725,19.74 51.008,19.023 52.008,18.207L52.792,12.273L48.058,12.273L47.692,15.007L49.258,15.007L49.042,16.673C48.708,16.857 48.092,17.007 47.608,17.007L47.425,17.007C45.842,17.007 45.542,15.607 45.842,13.34L45.925,12.707C46.225,10.457 46.742,9.007 48.325,9.007L48.508,9.007C49.758,9.007 49.942,10.007 49.742,11.507L52.908,11.507L52.992,10.857C53.392,7.723 51.792,6.273 48.608,6.273C45.108,6.273 43.308,8.207 42.708,12.707L42.625,13.34C42.025,17.84 43.758,19.74 47.258,19.74Z" style="fill:#f7c5ad;fill-rule:nonzero;"/>
        <path d="M57.542,12.307L57.958,9.24L59.408,9.24C60.025,9.24 60.675,9.44 60.558,10.673L60.542,10.857C60.425,12.057 59.608,12.307 58.992,12.307L57.542,12.307ZM57.192,15.04L58.075,15.04L59.192,19.507L62.608,19.507L61.225,14.607C62.442,14.107 63.442,13.057 63.725,10.94L63.775,10.573C64.258,6.973 61.825,6.507 59.625,6.507L55.142,6.507L53.442,19.507L56.608,19.507L57.192,15.04Z" style="fill:#f7c5ad;fill-rule:nonzero;"/>
        <path d="M67.975,6.507L63.175,19.507L66.575,19.507L67.425,16.873L70.125,16.873L70.325,19.507L73.708,19.507L72.308,6.507L67.975,6.507ZM69.658,10.173L69.942,14.14L68.342,14.14L69.658,10.173Z" style="fill:#f7c5ad;fill-rule:nonzero;"/>
        <path d="M82.442,19.507L82.792,16.773L78.208,16.773L79.558,6.507L76.392,6.507L74.692,19.507L82.442,19.507Z" style="fill:#f7c5ad;fill-rule:nonzero;"/>
        <path d="M27.327,375.731C30.077,375.731 31.287,375.117 31.507,373.302L29.178,373.302C28.977,373.953 28.546,374.136 26.96,374.136L26.74,374.136C24.797,374.136 24.476,373.724 24.476,372.541L24.476,372.33C24.476,371.13 24.797,370.726 26.74,370.726L26.96,370.726C28.546,370.726 28.977,370.91 29.178,371.56L31.507,371.56C31.287,369.745 30.077,369.131 27.327,369.131L26.373,369.131C23.321,369.131 22.157,369.874 22.157,372.23L22.157,372.633C22.157,374.989 23.321,375.731 26.373,375.731L27.327,375.731Z" style="fill:#f7c5ad;fill-rule:nonzero;"/>
        <path d="M40.132,374.127L34.724,374.127L34.724,373.183L40.132,373.183L40.132,371.67L34.724,371.67L34.724,370.735L40.132,370.735L40.132,369.223L32.451,369.223L32.451,375.64L40.132,375.64L40.132,374.127Z" style="fill:#f7c5ad;fill-rule:nonzero;"/>
        <path d="M48.52,373.925L43.515,373.925L43.515,369.223L41.242,369.223L41.242,375.64L48.52,375.64L48.52,373.925Z" style="fill:#f7c5ad;fill-rule:nonzero;"/>
        <path d="M56.596,373.925L51.591,373.925L51.591,369.223L49.317,369.223L49.317,375.64L56.596,375.64L56.596,373.925Z" style="fill:#f7c5ad;fill-rule:nonzero;"/>
        <path d="M64.094,369.223L60.611,369.223L56.862,375.64L59.373,375.64L60.097,374.365L64.516,374.365L65.249,375.64L67.843,375.64L64.094,369.223ZM62.353,370.58L63.654,372.853L60.959,372.853L62.27,370.58L62.353,370.58Z" style="fill:#f7c5ad;fill-rule:nonzero;"/>
        <path d="M10.5,77.624L11.925,77.624L13.325,81.261L15.137,81.261L13.55,77.361C14.437,77.011 15.137,76.249 15.137,74.686L15.137,74.436C15.137,71.961 13.4,71.511 11.875,71.511L8.825,71.511L8.825,81.261L10.5,81.261L10.5,77.624ZM10.5,76.161L10.5,72.974L11.937,72.974C12.587,72.974 13.437,73.211 13.437,74.499L13.437,74.636C13.437,75.924 12.587,76.161 11.937,76.161L10.5,76.161Z" style="fill:#f7c5ad;fill-rule:nonzero;"/>
        <path d="M18.362,71.461L15.8,81.261L17.612,81.261L18.15,79.036L20.9,79.036L21.437,81.261L23.237,81.261L20.675,71.461L18.362,71.461ZM19.525,73.374L20.537,77.574L18.5,77.574L19.525,73.374Z" style="fill:#f7c5ad;fill-rule:nonzero;"/>
        <path d="M27.05,72.974L29.375,72.974L29.375,71.511L23.05,71.511L23.05,72.974L25.375,72.974L25.375,81.261L27.05,81.261L27.05,72.974Z" style="fill:#f7c5ad;fill-rule:nonzero;"/>
        <path d="M30.375,71.511L30.375,81.261L36.175,81.261L36.175,79.799L32.05,79.799L32.05,77.011L35.55,77.011L35.55,75.561L32.05,75.561L32.05,72.974L36.175,72.974L36.175,71.511L30.375,71.511Z" style="fill:#f7c5ad;fill-rule:nonzero;"/>
        <path d="M59.019,81.1L59.019,79.638L55.256,79.638L55.256,71.35L53.581,71.35L53.581,81.1L59.019,81.1Z" style="fill:#f7c5ad;fill-rule:nonzero;"/>
        <path d="M59.969,71.35L59.969,81.1L65.769,81.1L65.769,79.638L61.644,79.638L61.644,76.85L65.144,76.85L65.144,75.4L61.644,75.4L61.644,72.813L65.769,72.813L65.769,71.35L59.969,71.35Z" style="fill:#f7c5ad;fill-rule:nonzero;"/>
        <path d="M69.056,71.3L66.494,81.1L68.306,81.1L68.844,78.875L71.594,78.875L72.131,81.1L73.931,81.1L71.369,71.3L69.056,71.3ZM70.219,73.213L71.231,77.413L69.194,77.413L70.219,73.213Z" style="fill:#f7c5ad;fill-rule:nonzero;"/>
        <path d="M76.594,71.35L74.919,71.35L74.919,81.1L76.594,81.1L76.594,78.225L77.581,76.825L79.556,81.1L81.419,81.1L78.644,75.313L81.419,71.35L79.394,71.35L76.594,75.663L76.594,71.35Z" style="fill:#f7c5ad;fill-rule:nonzero;"/>
        <path d="M5.012,251.105L6.2,251.105L7.366,254.136L8.877,254.136L7.554,250.886C8.294,250.595 8.877,249.959 8.877,248.657L8.877,248.449C8.877,246.386 7.429,246.011 6.158,246.011L3.616,246.011L3.616,254.136L5.012,254.136L5.012,251.105ZM5.012,249.886L5.012,247.23L6.21,247.23C6.752,247.23 7.46,247.428 7.46,248.501L7.46,248.615C7.46,249.688 6.752,249.886 6.21,249.886L5.012,249.886Z" style="fill:#f7c5ad;fill-rule:nonzero;"/>
        <path d="M11.564,245.97L9.429,254.136L10.939,254.136L11.387,252.282L13.679,252.282L14.127,254.136L15.627,254.136L13.491,245.97L11.564,245.97ZM12.533,247.563L13.377,251.063L11.679,251.063L12.533,247.563Z" style="fill:#f7c5ad;fill-rule:nonzero;"/>
        <path d="M18.804,247.23L20.741,247.23L20.741,246.011L15.471,246.011L15.471,247.23L17.408,247.23L17.408,254.136L18.804,254.136L18.804,247.23Z" style="fill:#f7c5ad;fill-rule:nonzero;"/>
        <path d="M21.575,246.011L21.575,254.136L26.408,254.136L26.408,252.918L22.971,252.918L22.971,250.595L25.887,250.595L25.887,249.386L22.971,249.386L22.971,247.23L26.408,247.23L26.408,246.011L21.575,246.011Z" style="fill:#f7c5ad;fill-rule:nonzero;"/>
        <path d="M36.307,254.272C37.682,254.272 38.484,253.813 39.036,253.324L39.036,249.865L36.464,249.865L36.464,251.074L37.641,251.074L37.641,252.647C37.37,252.865 36.932,253.053 36.359,253.053L36.266,253.053C34.984,253.053 34.589,252.115 34.589,250.282L34.589,249.865C34.589,248.032 34.995,247.095 36.193,247.095L36.286,247.095C37.307,247.095 37.641,247.772 37.641,249.063L39.036,249.063L39.036,248.709C39.036,246.73 38.068,245.876 36.203,245.876C34.172,245.876 33.161,247.053 33.161,249.865L33.161,250.282C33.161,253.095 34.172,254.272 36.307,254.272Z" style="fill:#f7c5ad;fill-rule:nonzero;"/>
        <path d="M41.818,245.97L39.682,254.136L41.193,254.136L41.641,252.282L43.932,252.282L44.38,254.136L45.88,254.136L43.745,245.97L41.818,245.97ZM42.786,247.563L43.63,251.063L41.932,251.063L42.786,247.563Z" style="fill:#f7c5ad;fill-rule:nonzero;"/>
        <path d="M49.057,247.23L50.995,247.23L50.995,246.011L45.724,246.011L45.724,247.23L47.661,247.23L47.661,254.136L49.057,254.136L49.057,247.23Z" style="fill:#f7c5ad;fill-rule:nonzero;"/>
        <path d="M51.828,246.011L51.828,254.136L56.661,254.136L56.661,252.918L53.224,252.918L53.224,250.595L56.141,250.595L56.141,249.386L53.224,249.386L53.224,247.23L56.661,247.23L56.661,246.011L51.828,246.011Z" style="fill:#f7c5ad;fill-rule:nonzero;"/>
        <path d="M64.967,157.265L64.967,157.015C64.967,155.915 65.192,155.353 65.886,155.353L65.942,155.353C66.536,155.353 66.73,155.759 66.73,156.534L67.573,156.534L67.573,156.321C67.573,155.134 67.011,154.621 65.892,154.621C64.673,154.621 64.111,155.328 64.111,157.015L64.111,157.265C64.111,158.953 64.673,159.659 65.892,159.659C67.011,159.659 67.573,159.146 67.573,157.996L67.573,157.934L66.73,157.934C66.73,158.546 66.511,158.928 65.942,158.928L65.886,158.928C65.186,158.928 64.967,158.365 64.967,157.265Z" style="fill:#f7c5ad;fill-rule:nonzero;"/>
        <path d="M70.936,159.578L70.936,158.846L69.055,158.846L69.055,154.703L68.217,154.703L68.217,159.578L70.936,159.578Z" style="fill:#f7c5ad;fill-rule:nonzero;"/>
        <rect x="71.442" y="154.703" width="0.838" height="4.875" style="fill:#f7c5ad;fill-rule:nonzero;"/>
        <path d="M73.911,157.759L74.598,157.759C75.361,157.759 76.23,157.534 76.23,156.29L76.23,156.165C76.23,154.928 75.361,154.703 74.598,154.703L73.073,154.703L73.073,159.578L73.911,159.578L73.911,157.759ZM73.911,157.028L73.911,155.434L74.63,155.434C74.955,155.434 75.38,155.553 75.38,156.196L75.38,156.265C75.38,156.909 74.955,157.028 74.63,157.028L73.911,157.028Z" style="fill:#f7c5ad;fill-rule:nonzero;"/>
        <path d="M64.217,165.742L64.217,170.617L65.055,170.617L65.055,168.492L66.761,168.492L66.761,167.767L65.055,167.767L65.055,166.474L67.073,166.474L67.073,165.742L64.217,165.742Z" style="fill:#f7c5ad;fill-rule:nonzero;"/>
        <path d="M69.28,170.699C70.498,170.699 71.08,169.992 71.08,168.305L71.08,168.055C71.08,166.367 70.498,165.661 69.28,165.661C68.055,165.661 67.473,166.367 67.473,168.055L67.473,168.305C67.473,169.992 68.055,170.699 69.28,170.699ZM69.248,169.967C68.567,169.967 68.33,169.405 68.33,168.305L68.33,168.055C68.33,166.955 68.567,166.392 69.248,166.392L69.305,166.392C69.986,166.392 70.223,166.955 70.223,168.055L70.223,168.305C70.223,169.405 69.986,169.967 69.305,169.967L69.248,169.967Z" style="fill:#f7c5ad;fill-rule:nonzero;"/>
        <path d="M74.455,170.617L74.455,169.886L72.573,169.886L72.573,165.742L71.736,165.742L71.736,170.617L74.455,170.617Z" style="fill:#f7c5ad;fill-rule:nonzero;"/>
        <path d="M78.367,168.305L78.367,168.055C78.367,166.367 77.736,165.742 76.367,165.742L74.93,165.742L74.93,170.617L76.367,170.617C77.736,170.617 78.367,169.992 78.367,168.305ZM75.767,169.886L75.767,166.474L76.317,166.474C77.186,166.474 77.511,166.955 77.511,168.055L77.511,168.305C77.511,169.405 77.186,169.886 76.317,169.886L75.767,169.886Z" style="fill:#f7c5ad;fill-rule:nonzero;"/>
        <g id="CTR">
            <circle id="Base" cx="22.51" cy="53.392" r="16.496" style="fill:none;"/>
            <circle cx="14.09" cy="67.55" r="0.911" style="fill:#f7c5ad;"/>
            <circle cx="31.016" cy="67.55" r="0.911" style="fill:#f7c5ad;"/>
            <path id="path89" d="M31.033,67.505C35.968,64.521 38.994,59.157 38.994,53.39C38.994,44.341 31.548,36.896 22.5,36.896C13.451,36.896 6.006,44.341 6.006,53.39C6.006,59.188 9.064,64.577 14.042,67.55" style="fill:none;fill-rule:nonzero;stroke:#f7c5ad;stroke-width:0.79px;stroke-linecap:round;stroke-miterlimit:4;"/>
        </g>
        <g id="CTR1" serif:id="CTR">
            <circle id="Base1" serif:id="Base" cx="67.504" cy="53.392" r="16.496" style="fill:none;"/>
            <circle cx="59.084" cy="67.55" r="0.911" style="fill:#f7c5ad;"/>
            <circle cx="76.01" cy="67.55" r="0.911" style="fill:#f7c5ad;"/>
            <path id="path891" serif:id="path89" d="M76.027,67.505C80.962,64.521 83.988,59.157 83.988,53.39C83.988,44.341 76.542,36.896 67.494,36.896C58.446,36.896 51,44.341 51,53.39C51,59.188 54.058,64.577 59.036,67.55" style="fill:none;fill-rule:nonzero;stroke:#f7c5ad;stroke-width:0.79px;stroke-linecap:round;stroke-miterlimit:4;"/>
        </g>
        <g id="CTR2" serif:id="CTR">
            <circle id="Base2" serif:id="Base" cx="67.504" cy="104.357" r="16.496" style="fill:none;"/>
            <circle cx="59.084" cy="118.515" r="0.911" style="fill:#f7c5ad;"/>
            <circle cx="76.01" cy="118.515" r="0.911" style="fill:#f7c5ad;"/>
            <path id="path892" serif:id="path89" d="M76.027,118.47C80.962,115.486 83.988,110.122 83.988,104.354C83.988,95.306 76.542,87.861 67.494,87.861C58.446,87.861 51,95.306 51,104.354C51,110.153 54.058,115.541 59.036,118.515" style="fill:none;fill-rule:nonzero;stroke:#f7c5ad;stroke-width:0.79px;stroke-linecap:round;stroke-miterlimit:4;"/>
        </g>
        <path d="M67.983,254.119L67.983,252.901L64.847,252.901L64.847,245.994L63.451,245.994L63.451,254.119L67.983,254.119Z" style="fill:#f7c5ad;fill-rule:nonzero;"/>
        <path d="M68.774,245.994L68.774,254.119L73.608,254.119L73.608,252.901L70.17,252.901L70.17,250.578L73.087,250.578L73.087,249.369L70.17,249.369L70.17,247.213L73.608,247.213L73.608,245.994L68.774,245.994Z" style="fill:#f7c5ad;fill-rule:nonzero;"/>
        <path d="M76.347,245.953L74.212,254.119L75.722,254.119L76.17,252.265L78.462,252.265L78.91,254.119L80.41,254.119L78.274,245.953L76.347,245.953ZM77.316,247.546L78.16,251.046L76.462,251.046L77.316,247.546Z" style="fill:#f7c5ad;fill-rule:nonzero;"/>
        <path d="M82.629,245.994L81.233,245.994L81.233,254.119L82.629,254.119L82.629,251.724L83.451,250.557L85.097,254.119L86.649,254.119L84.337,249.296L86.649,245.994L84.962,245.994L82.629,249.588L82.629,245.994Z" style="fill:#f7c5ad;fill-rule:nonzero;"/>
        <path d="M22.354,280.007L56.646,280.007" style="fill:none;stroke:#f7c5ad;stroke-width:0.83px;stroke-linecap:square;"/>
        <path d="M36.977,104.357L50.835,104.357" style="fill:none;stroke:#f7c5ad;stroke-width:0.83px;stroke-linecap:square;"/>
        <path d="M67.5,269.3C73.41,269.3 78.207,274.097 78.207,280.007C78.207,285.917 73.41,290.714 67.5,290.714C61.59,290.714 56.793,285.917 56.793,280.007C56.793,274.097 61.59,269.3 67.5,269.3ZM67.5,269.93C61.938,269.93 57.423,274.445 57.423,280.007C57.423,285.569 61.938,290.084 67.5,290.084C73.062,290.084 77.577,285.569 77.577,280.007C77.577,274.445 73.062,269.93 67.5,269.93Z" style="fill:#f7c5ad;"/>
        <rect x="34.588" y="122.485" width="1.675" height="9.75" style="fill:#f7c5ad;fill-rule:nonzero;"/>
        <path d="M44.763,122.485L43.175,122.485L43.175,127.148L43.225,129.21L39.625,122.485L37.85,122.485L37.85,132.235L39.438,132.235L39.438,127.573L39.388,125.51L42.988,132.235L44.763,132.235L44.763,122.485Z" style="fill:#f7c5ad;fill-rule:nonzero;"/>
        <rect x="46.35" y="122.485" width="1.675" height="9.75" style="fill:#f7c5ad;fill-rule:nonzero;"/>
        <path d="M53.088,123.948L55.413,123.948L55.413,122.485L49.088,122.485L49.088,123.948L51.413,123.948L51.413,132.235L53.088,132.235L53.088,123.948Z" style="fill:#f7c5ad;fill-rule:nonzero;"/>
        <path d="M13.978,67.888L31.129,67.888" style="fill:none;"/>
        <path d="M83.25,148.35C83.25,146.805 81.995,145.55 80.45,145.55L47.993,145.55C46.447,145.55 45.193,146.805 45.193,148.35L45.193,176.897C45.193,178.442 46.447,179.697 47.993,179.697L80.45,179.697C81.995,179.697 83.25,178.442 83.25,176.897L83.25,148.35Z" style="fill:none;stroke:#f7c5ad;stroke-width:0.63px;stroke-linecap:square;"/>
        <path d="M28.503,151.562L28.503,153.587L26.846,153.587L26.846,151.562L26.009,151.562L26.009,156.437L26.846,156.437L26.846,154.312L28.503,154.312L28.503,156.437L29.34,156.437L29.34,151.562L28.503,151.562Z" style="fill:#f7c5ad;fill-rule:nonzero;"/>
        <path d="M29.74,161.68L29.715,162.686L29.715,165.099L30.553,165.099L30.553,160.224L29.321,160.224L28.278,163.649L27.24,160.224L26.009,160.224L26.009,165.099L26.846,165.099L26.846,162.686L26.821,161.68L27.859,165.099L28.696,165.099L29.74,161.68Z" style="fill:#f7c5ad;fill-rule:nonzero;"/>
        <path d="M28.728,173.742L28.728,173.011L26.846,173.011L26.846,168.867L26.009,168.867L26.009,173.742L28.728,173.742Z" style="fill:#f7c5ad;fill-rule:nonzero;"/>
        <path d="M36.741,148.35C36.741,146.805 35.486,145.55 33.941,145.55L9.785,145.55C8.239,145.55 6.985,146.805 6.985,148.35L6.985,176.897C6.985,178.442 8.239,179.697 9.785,179.697L33.941,179.697C35.486,179.697 36.741,178.442 36.741,176.897L36.741,148.35Z" style="fill:none;stroke:#f7c5ad;stroke-width:0.63px;stroke-linecap:square;"/>
        <path d="M22.5,36.896L22.5,35L67.5,35L67.5,36.809" style="fill:none;stroke:#f7c5ad;stroke-width:0.83px;stroke-linejoin:miter;"/>
        <path d="M15.012,234.29L15.012,205.989" style="fill:none;stroke:#f7c5ad;stroke-width:0.83px;stroke-linecap:square;"/>
        <path d="M75.123,234.291L75.123,206.791" style="fill:none;stroke:#f7c5ad;stroke-width:0.83px;stroke-linecap:square;"/>
        <path id="line87" d="M75.023,193.936L75.023,191.204" style="fill:none;fill-rule:nonzero;stroke:#f7c5ad;stroke-width:0.61px;stroke-linecap:round;stroke-miterlimit:4;"/>
        <path d="M64.493,213.491C64.839,213.876 65.432,213.908 65.817,213.562C66.202,213.216 66.233,212.623 65.888,212.238C65.542,211.853 64.948,211.822 64.564,212.167C64.179,212.513 64.147,213.107 64.493,213.491Z" style="fill:#f7c5ad;"/>
        <path d="M85.535,213.491C85.189,213.876 84.596,213.908 84.211,213.562C83.826,213.216 83.794,212.623 84.14,212.238C84.486,211.853 85.079,211.822 85.464,212.167C85.849,212.513 85.88,213.107 85.535,213.491Z" style="fill:#f7c5ad;"/>
        <path d="M65.19,212.865C63.088,210.526 61.809,207.433 61.809,204.044C61.809,196.756 67.726,190.839 75.014,190.839C82.302,190.839 88.219,196.756 88.219,204.044C88.219,207.433 86.939,210.526 84.837,212.865" style="fill:none;stroke:#f7c5ad;stroke-width:0.63px;stroke-linecap:square;"/>
        <path id="line871" serif:id="line87" d="M15.013,193.936L15.013,191.204" style="fill:none;fill-rule:nonzero;stroke:#f7c5ad;stroke-width:0.61px;stroke-linecap:round;stroke-miterlimit:4;"/>
        <path d="M4.483,213.491C4.829,213.876 5.422,213.908 5.807,213.562C6.192,213.216 6.224,212.623 5.878,212.238C5.532,211.853 4.939,211.822 4.554,212.167C4.169,212.513 4.137,213.107 4.483,213.491Z" style="fill:#f7c5ad;"/>
        <path d="M25.525,213.491C25.179,213.876 24.586,213.908 24.201,213.562C23.816,213.216 23.784,212.623 24.13,212.238C24.476,211.853 25.069,211.822 25.454,212.167C25.839,212.513 25.871,213.107 25.525,213.491Z" style="fill:#f7c5ad;"/>
        <path d="M5.181,212.865C3.079,210.526 1.799,207.433 1.799,204.044C1.799,196.756 7.716,190.839 15.004,190.839C22.292,190.839 28.209,196.756 28.209,204.044C28.209,207.433 26.93,210.526 24.828,212.865" style="fill:none;stroke:#f7c5ad;stroke-width:0.63px;stroke-linecap:square;"/>
        <path d="M45,234.291L45,206.791" style="fill:none;stroke:#f7c5ad;stroke-width:0.83px;stroke-linecap:square;"/>
        <circle cx="22.5" cy="104.357" r="14.25" style="fill:none;stroke:#f7c5ad;stroke-width:0.79px;stroke-linecap:round;stroke-linejoin:miter;"/>
    </g>
</svg>
