<?xml version="1.0" encoding="UTF-8" standalone="no"?>
<!DOCTYPE svg PUBLIC "-//W3C//DTD SVG 1.1//EN" "http://www.w3.org/Graphics/SVG/1.1/DTD/svg11.dtd">
<svg width="100%" height="100%" viewBox="0 0 90 380" version="1.1" xmlns="http://www.w3.org/2000/svg" xmlns:xlink="http://www.w3.org/1999/xlink" xml:space="preserve" xmlns:serif="http://www.serif.com/" style="fill-rule:evenodd;clip-rule:evenodd;stroke-linecap:square;stroke-linejoin:round;stroke-miterlimit:1.5;">
    <g id="Layer1">
        <rect x="0" y="0" width="90" height="380" style="fill:#909090;"/>
        <path d="M83.25,317.8C83.25,316.255 81.995,315 80.45,315L54.55,315C53.005,315 51.75,316.255 51.75,317.8L51.75,352.2C51.75,353.745 53.005,355 54.55,355L80.45,355C81.995,355 83.25,353.745 83.25,352.2L83.25,317.8Z" style="fill:#ab5b87;"/>
        <path d="M22.508,234.314L22.508,206.014" style="fill:none;stroke:#ecedf1;stroke-width:0.83px;"/>
        <path d="M67.623,234.291L67.623,206.791" style="fill:none;stroke:#ecedf1;stroke-width:0.83px;"/>
        <path d="M0,25L90,25" style="fill:none;stroke:#ecedf1;stroke-width:0.83px;stroke-linecap:butt;"/>
        <rect x="18.518" y="344.088" width="1.396" height="8.125" style="fill:#ecedf1;fill-rule:nonzero;"/>
        <path d="M26.997,344.088L25.674,344.088L25.674,347.973L25.716,349.692L22.716,344.088L21.237,344.088L21.237,352.213L22.56,352.213L22.56,348.327L22.518,346.608L25.518,352.213L26.997,352.213L26.997,344.088Z" style="fill:#ecedf1;fill-rule:nonzero;"/>
        <path d="M31.677,299.941L32.865,299.941L34.031,302.973L35.542,302.973L34.219,299.723C34.958,299.431 35.542,298.795 35.542,297.493L35.542,297.285C35.542,295.223 34.094,294.848 32.823,294.848L30.281,294.848L30.281,302.973L31.677,302.973L31.677,299.941ZM31.677,298.723L31.677,296.066L32.875,296.066C33.417,296.066 34.125,296.264 34.125,297.337L34.125,297.452C34.125,298.525 33.417,298.723 32.875,298.723L31.677,298.723Z" style="fill:#ecedf1;fill-rule:nonzero;"/>
        <path d="M36.646,294.848L36.646,302.973L41.479,302.973L41.479,301.754L38.042,301.754L38.042,299.431L40.958,299.431L40.958,298.223L38.042,298.223L38.042,296.066L41.479,296.066L41.479,294.848L36.646,294.848Z" style="fill:#ecedf1;fill-rule:nonzero;"/>
        <path d="M44.917,299.431C46.156,299.598 46.552,299.973 46.552,300.681L46.552,300.743C46.552,301.42 46.052,301.889 45.177,301.889L45.083,301.889C44.208,301.889 43.677,301.389 43.677,300.233L42.281,300.233L42.281,300.337C42.281,302.202 43.271,303.108 45.135,303.108C46.948,303.108 47.979,302.212 47.979,300.691L47.979,300.577C47.979,299.15 47.135,298.514 45.365,298.275C44.083,298.098 43.781,297.723 43.781,297.056L43.781,296.993C43.781,296.358 44.281,295.931 45.052,295.931L45.146,295.931C46.115,295.931 46.51,296.473 46.51,297.691L47.906,297.691L47.906,297.452C47.906,295.618 47.063,294.712 45.135,294.712C43.375,294.712 42.354,295.629 42.354,297.066L42.354,297.17C42.354,298.514 43.146,299.191 44.917,299.431Z" style="fill:#ecedf1;fill-rule:nonzero;"/>
        <path d="M49,294.848L49,302.973L53.833,302.973L53.833,301.754L50.396,301.754L50.396,299.431L53.313,299.431L53.313,298.223L50.396,298.223L50.396,296.066L53.833,296.066L53.833,294.848L49,294.848Z" style="fill:#ecedf1;fill-rule:nonzero;"/>
        <path d="M57.781,296.066L59.719,296.066L59.719,294.848L54.448,294.848L54.448,296.066L56.385,296.066L56.385,302.973L57.781,302.973L57.781,296.066Z" style="fill:#ecedf1;fill-rule:nonzero;"/>
        <path d="M61.24,353.068C63.271,353.068 64.24,351.891 64.24,349.078L64.24,348.662C64.24,345.849 63.271,344.672 61.24,344.672C59.198,344.672 58.229,345.849 58.229,348.662L58.229,349.078C58.229,351.891 59.198,353.068 61.24,353.068ZM61.187,351.849C60.052,351.849 59.656,350.912 59.656,349.078L59.656,348.662C59.656,346.828 60.052,345.891 61.187,345.891L61.281,345.891C62.417,345.891 62.812,346.828 62.812,348.662L62.812,349.078C62.812,350.912 62.417,351.849 61.281,351.849L61.187,351.849Z" style="fill:#ecedf1;fill-rule:nonzero;"/>
        <path d="M68.115,353.068C70.167,353.068 70.937,352.203 70.937,350.38L70.937,344.808L69.542,344.808L69.542,350.328C69.542,351.401 69.156,351.849 68.115,351.849C67.062,351.849 66.677,351.401 66.677,350.328L66.677,344.808L65.281,344.808L65.281,350.38C65.281,352.203 66.052,353.068 68.115,353.068Z" style="fill:#ecedf1;fill-rule:nonzero;"/>
        <path d="M75.052,346.026L76.99,346.026L76.99,344.808L71.719,344.808L71.719,346.026L73.656,346.026L73.656,352.933L75.052,352.933L75.052,346.026Z" style="fill:#ecedf1;fill-rule:nonzero;"/>
        <path d="M21.75,6.507L18.985,6.507L17.5,19.507L20.266,19.507L21.75,6.507Z" style="fill:#ecedf1;fill-rule:nonzero;"/>
        <path d="M31.866,6.507L29.246,6.507L28.708,11.173L28.504,13.673L26.19,6.507L23.279,6.507L21.794,19.507L24.414,19.507L24.938,14.84L25.156,12.34L27.471,19.507L30.382,19.507L31.866,6.507Z" style="fill:#ecedf1;fill-rule:nonzero;"/>
        <path d="M37.82,9.24L40.367,9.24L40.673,6.507L32.813,6.507L32.507,9.24L35.054,9.24L33.875,19.507L36.641,19.507L37.82,9.24Z" style="fill:#ecedf1;fill-rule:nonzero;"/>
        <path d="M41.619,6.507L40.134,19.507L47.266,19.507L47.572,16.773L43.205,16.773L43.496,14.24L47.135,14.24L47.456,11.507L43.817,11.507L44.079,9.24L48.445,9.24L48.751,6.507L41.619,6.507Z" style="fill:#ecedf1;fill-rule:nonzero;"/>
        <path d="M53.074,19.74C55.228,19.74 56.349,19.023 57.222,18.207L57.907,12.273L53.773,12.273L53.453,15.007L54.821,15.007L54.632,16.673C54.34,16.857 53.802,17.007 53.38,17.007L53.22,17.007C51.837,17.007 51.575,15.607 51.837,13.34L51.91,12.707C52.172,10.457 52.623,9.007 54.006,9.007L54.166,9.007C55.257,9.007 55.418,10.007 55.243,11.507L58.008,11.507L58.081,10.857C58.431,7.723 57.033,6.273 54.253,6.273C51.196,6.273 49.624,8.207 49.1,12.707L49.028,13.34C48.504,17.84 50.017,19.74 53.074,19.74Z" style="fill:#ecedf1;fill-rule:nonzero;"/>
        <path d="M62.055,12.307L62.419,9.24L63.685,9.24C64.224,9.24 64.791,9.44 64.69,10.673L64.675,10.857C64.573,12.057 63.86,12.307 63.321,12.307L62.055,12.307ZM61.749,15.04L62.521,15.04L63.496,19.507L66.48,19.507L65.272,14.607C66.334,14.107 67.208,13.057 67.455,10.94L67.499,10.573C67.921,6.973 65.796,6.507 63.874,6.507L59.959,6.507L58.474,19.507L61.24,19.507L61.749,15.04Z" style="fill:#ecedf1;fill-rule:nonzero;"/>
        <path d="M71.167,6.507L66.975,19.507L69.944,19.507L70.686,16.873L73.044,16.873L73.219,19.507L76.174,19.507L74.951,6.507L71.167,6.507ZM72.637,10.173L72.884,14.14L71.487,14.14L72.637,10.173Z" style="fill:#ecedf1;fill-rule:nonzero;"/>
        <path d="M83.801,19.507L84.107,16.773L80.104,16.773L81.283,6.507L78.517,6.507L77.033,19.507L83.801,19.507Z" style="fill:#ecedf1;fill-rule:nonzero;"/>
        <path d="M27.327,375.731C30.077,375.731 31.287,375.117 31.507,373.302L29.178,373.302C28.977,373.953 28.546,374.136 26.96,374.136L26.74,374.136C24.797,374.136 24.476,373.724 24.476,372.541L24.476,372.33C24.476,371.13 24.797,370.726 26.74,370.726L26.96,370.726C28.546,370.726 28.977,370.91 29.178,371.56L31.507,371.56C31.287,369.745 30.077,369.131 27.327,369.131L26.373,369.131C23.321,369.131 22.157,369.874 22.157,372.23L22.157,372.633C22.157,374.989 23.321,375.731 26.373,375.731L27.327,375.731Z" style="fill:#ecedf1;fill-rule:nonzero;"/>
        <path d="M40.132,374.127L34.724,374.127L34.724,373.183L40.132,373.183L40.132,371.67L34.724,371.67L34.724,370.735L40.132,370.735L40.132,369.223L32.451,369.223L32.451,375.64L40.132,375.64L40.132,374.127Z" style="fill:#ecedf1;fill-rule:nonzero;"/>
        <path d="M48.52,373.925L43.515,373.925L43.515,369.223L41.242,369.223L41.242,375.64L48.52,375.64L48.52,373.925Z" style="fill:#ecedf1;fill-rule:nonzero;"/>
        <path d="M56.596,373.925L51.591,373.925L51.591,369.223L49.317,369.223L49.317,375.64L56.596,375.64L56.596,373.925Z" style="fill:#ecedf1;fill-rule:nonzero;"/>
        <path d="M64.094,369.223L60.611,369.223L56.862,375.64L59.373,375.64L60.097,374.365L64.516,374.365L65.249,375.64L67.843,375.64L64.094,369.223ZM62.353,370.58L63.654,372.853L60.959,372.853L62.27,370.58L62.353,370.58Z" style="fill:#ecedf1;fill-rule:nonzero;"/>
        <path d="M10.5,77.624L11.925,77.624L13.325,81.261L15.137,81.261L13.55,77.361C14.437,77.011 15.137,76.249 15.137,74.686L15.137,74.436C15.137,71.961 13.4,71.511 11.875,71.511L8.825,71.511L8.825,81.261L10.5,81.261L10.5,77.624ZM10.5,76.161L10.5,72.974L11.937,72.974C12.587,72.974 13.437,73.211 13.437,74.499L13.437,74.636C13.437,75.924 12.587,76.161 11.937,76.161L10.5,76.161Z" style="fill:#ecedf1;fill-rule:nonzero;"/>
        <path d="M18.362,71.461L15.8,81.261L17.612,81.261L18.15,79.036L20.9,79.036L21.437,81.261L23.237,81.261L20.675,71.461L18.362,71.461ZM19.525,73.374L20.537,77.574L18.5,77.574L19.525,73.374Z" style="fill:#ecedf1;fill-rule:nonzero;"/>
        <path d="M27.05,72.974L29.375,72.974L29.375,71.511L23.05,71.511L23.05,72.974L25.375,72.974L25.375,81.261L27.05,81.261L27.05,72.974Z" style="fill:#ecedf1;fill-rule:nonzero;"/>
        <path d="M30.375,71.511L30.375,81.261L36.175,81.261L36.175,79.799L32.05,79.799L32.05,77.011L35.55,77.011L35.55,75.561L32.05,75.561L32.05,72.974L36.175,72.974L36.175,71.511L30.375,71.511Z" style="fill:#ecedf1;fill-rule:nonzero;"/>
        <path d="M59.019,81.1L59.019,79.638L55.256,79.638L55.256,71.35L53.581,71.35L53.581,81.1L59.019,81.1Z" style="fill:#ecedf1;fill-rule:nonzero;"/>
        <path d="M59.969,71.35L59.969,81.1L65.769,81.1L65.769,79.638L61.644,79.638L61.644,76.85L65.144,76.85L65.144,75.4L61.644,75.4L61.644,72.813L65.769,72.813L65.769,71.35L59.969,71.35Z" style="fill:#ecedf1;fill-rule:nonzero;"/>
        <path d="M69.056,71.3L66.494,81.1L68.306,81.1L68.844,78.875L71.594,78.875L72.131,81.1L73.931,81.1L71.369,71.3L69.056,71.3ZM70.219,73.213L71.231,77.413L69.194,77.413L70.219,73.213Z" style="fill:#ecedf1;fill-rule:nonzero;"/>
        <path d="M76.594,71.35L74.919,71.35L74.919,81.1L76.594,81.1L76.594,78.225L77.581,76.825L79.556,81.1L81.419,81.1L78.644,75.313L81.419,71.35L79.394,71.35L76.594,75.663L76.594,71.35Z" style="fill:#ecedf1;fill-rule:nonzero;"/>
        <path d="M12.648,251.105L13.836,251.105L15.002,254.136L16.513,254.136L15.19,250.886C15.929,250.595 16.513,249.959 16.513,248.657L16.513,248.449C16.513,246.386 15.065,246.011 13.794,246.011L11.252,246.011L11.252,254.136L12.648,254.136L12.648,251.105ZM12.648,249.886L12.648,247.23L13.846,247.23C14.388,247.23 15.096,247.428 15.096,248.501L15.096,248.615C15.096,249.688 14.388,249.886 13.846,249.886L12.648,249.886Z" style="fill:#ecedf1;fill-rule:nonzero;"/>
        <path d="M19.2,245.97L17.065,254.136L18.575,254.136L19.023,252.282L21.315,252.282L21.763,254.136L23.263,254.136L21.127,245.97L19.2,245.97ZM20.169,247.563L21.013,251.063L19.315,251.063L20.169,247.563Z" style="fill:#ecedf1;fill-rule:nonzero;"/>
        <path d="M26.44,247.23L28.377,247.23L28.377,246.011L23.107,246.011L23.107,247.23L25.044,247.23L25.044,254.136L26.44,254.136L26.44,247.23Z" style="fill:#ecedf1;fill-rule:nonzero;"/>
        <path d="M29.211,246.011L29.211,254.136L34.044,254.136L34.044,252.918L30.607,252.918L30.607,250.595L33.523,250.595L33.523,249.386L30.607,249.386L30.607,247.23L34.044,247.23L34.044,246.011L29.211,246.011Z" style="fill:#ecedf1;fill-rule:nonzero;"/>
        <path d="M64.967,157.265L64.967,157.015C64.967,155.915 65.192,155.353 65.886,155.353L65.942,155.353C66.536,155.353 66.73,155.759 66.73,156.534L67.573,156.534L67.573,156.321C67.573,155.134 67.011,154.621 65.892,154.621C64.673,154.621 64.111,155.328 64.111,157.015L64.111,157.265C64.111,158.953 64.673,159.659 65.892,159.659C67.011,159.659 67.573,159.146 67.573,157.996L67.573,157.934L66.73,157.934C66.73,158.546 66.511,158.928 65.942,158.928L65.886,158.928C65.186,158.928 64.967,158.365 64.967,157.265Z" style="fill:#ecedf1;fill-rule:nonzero;"/>
        <path d="M70.936,159.578L70.936,158.846L69.055,158.846L69.055,154.703L68.217,154.703L68.217,159.578L70.936,159.578Z" style="fill:#ecedf1;fill-rule:nonzero;"/>
        <rect x="71.442" y="154.703" width="0.838" height="4.875" style="fill:#ecedf1;fill-rule:nonzero;"/>
        <path d="M73.911,157.759L74.598,157.759C75.361,157.759 76.23,157.534 76.23,156.29L76.23,156.165C76.23,154.928 75.361,154.703 74.598,154.703L73.073,154.703L73.073,159.578L73.911,159.578L73.911,157.759ZM73.911,157.028L73.911,155.434L74.63,155.434C74.955,155.434 75.38,155.553 75.38,156.196L75.38,156.265C75.38,156.909 74.955,157.028 74.63,157.028L73.911,157.028Z" style="fill:#ecedf1;fill-rule:nonzero;"/>
        <path d="M64.217,165.742L64.217,170.617L65.055,170.617L65.055,168.492L66.761,168.492L66.761,167.767L65.055,167.767L65.055,166.474L67.073,166.474L67.073,165.742L64.217,165.742Z" style="fill:#ecedf1;fill-rule:nonzero;"/>
        <path d="M69.28,170.699C70.498,170.699 71.08,169.992 71.08,168.305L71.08,168.055C71.08,166.367 70.498,165.661 69.28,165.661C68.055,165.661 67.473,166.367 67.473,168.055L67.473,168.305C67.473,169.992 68.055,170.699 69.28,170.699ZM69.248,169.967C68.567,169.967 68.33,169.405 68.33,168.305L68.33,168.055C68.33,166.955 68.567,166.392 69.248,166.392L69.305,166.392C69.986,166.392 70.223,166.955 70.223,168.055L70.223,168.305C70.223,169.405 69.986,169.967 69.305,169.967L69.248,169.967Z" style="fill:#ecedf1;fill-rule:nonzero;"/>
        <path d="M74.455,170.617L74.455,169.886L72.573,169.886L72.573,165.742L71.736,165.742L71.736,170.617L74.455,170.617Z" style="fill:#ecedf1;fill-rule:nonzero;"/>
        <path d="M78.367,168.305L78.367,168.055C78.367,166.367 77.736,165.742 76.367,165.742L74.93,165.742L74.93,170.617L76.367,170.617C77.736,170.617 78.367,169.992 78.367,168.305ZM75.767,169.886L75.767,166.474L76.317,166.474C77.186,166.474 77.511,166.955 77.511,168.055L77.511,168.305C77.511,169.405 77.186,169.886 76.317,169.886L75.767,169.886Z" style="fill:#ecedf1;fill-rule:nonzero;"/>
        <g id="CTR">
            <circle id="Base" cx="22.51" cy="53.392" r="16.496" style="fill:none;"/>
            <circle cx="14.09" cy="67.55" r="0.911" style="fill:#ecedf1;"/>
            <circle cx="31.016" cy="67.55" r="0.911" style="fill:#ecedf1;"/>
            <path id="path89" d="M31.033,67.505C35.968,64.521 38.994,59.157 38.994,53.39C38.994,44.341 31.548,36.896 22.5,36.896C13.451,36.896 6.006,44.341 6.006,53.39C6.006,59.188 9.064,64.577 14.042,67.55" style="fill:none;fill-rule:nonzero;stroke:#ecedf1;stroke-width:0.79px;stroke-linecap:round;stroke-miterlimit:4;"/>
        </g>
        <g id="CTR1" serif:id="CTR">
            <circle id="Base1" serif:id="Base" cx="67.504" cy="53.392" r="16.496" style="fill:none;"/>
            <circle cx="59.084" cy="67.55" r="0.911" style="fill:#ecedf1;"/>
            <circle cx="76.01" cy="67.55" r="0.911" style="fill:#ecedf1;"/>
            <path id="path891" serif:id="path89" d="M76.027,67.505C80.962,64.521 83.988,59.157 83.988,53.39C83.988,44.341 76.542,36.896 67.494,36.896C58.446,36.896 51,44.341 51,53.39C51,59.188 54.058,64.577 59.036,67.55" style="fill:none;fill-rule:nonzero;stroke:#ecedf1;stroke-width:0.79px;stroke-linecap:round;stroke-miterlimit:4;"/>
        </g>
        <g id="CTR2" serif:id="CTR">
            <circle id="Base2" serif:id="Base" cx="67.504" cy="104.357" r="16.496" style="fill:none;"/>
            <circle cx="59.084" cy="118.515" r="0.911" style="fill:#ecedf1;"/>
            <circle cx="76.01" cy="118.515" r="0.911" style="fill:#ecedf1;"/>
            <path id="path892" serif:id="path89" d="M76.027,118.47C80.962,115.486 83.988,110.122 83.988,104.354C83.988,95.306 76.542,87.861 67.494,87.861C58.446,87.861 51,95.306 51,104.354C51,110.153 54.058,115.541 59.036,118.515" style="fill:none;fill-rule:nonzero;stroke:#ecedf1;stroke-width:0.79px;stroke-linecap:round;stroke-miterlimit:4;"/>
        </g>
        <path d="M60.38,254.119L60.38,252.901L57.245,252.901L57.245,245.994L55.849,245.994L55.849,254.119L60.38,254.119Z" style="fill:#ecedf1;fill-rule:nonzero;"/>
        <path d="M61.172,245.994L61.172,254.119L66.005,254.119L66.005,252.901L62.568,252.901L62.568,250.578L65.484,250.578L65.484,249.369L62.568,249.369L62.568,247.213L66.005,247.213L66.005,245.994L61.172,245.994Z" style="fill:#ecedf1;fill-rule:nonzero;"/>
        <path d="M68.745,245.953L66.609,254.119L68.12,254.119L68.568,252.265L70.859,252.265L71.307,254.119L72.807,254.119L70.672,245.953L68.745,245.953ZM69.714,247.546L70.557,251.046L68.859,251.046L69.714,247.546Z" style="fill:#ecedf1;fill-rule:nonzero;"/>
        <path d="M75.026,245.994L73.63,245.994L73.63,254.119L75.026,254.119L75.026,251.724L75.849,250.557L77.495,254.119L79.047,254.119L76.734,249.296L79.047,245.994L77.359,245.994L75.026,249.588L75.026,245.994Z" style="fill:#ecedf1;fill-rule:nonzero;"/>
        <g id="SMCTR">
            <path id="line87" d="M67.523,193.936L67.523,191.204" style="fill:none;fill-rule:nonzero;stroke:#ecedf1;stroke-width:0.61px;stroke-linecap:round;stroke-miterlimit:4;"/>
            <path d="M57.69,212.865C55.588,210.526 54.309,207.433 54.309,204.044C54.309,196.756 60.226,190.839 67.514,190.839C74.802,190.839 80.719,196.756 80.719,204.044C80.719,207.433 79.439,210.526 77.337,212.865" style="fill:none;stroke:#ecedf1;stroke-width:0.63px;"/>
            <circle cx="57.729" cy="212.969" r="0.73" style="fill:#ecedf1;"/>
            <circle cx="77.303" cy="212.969" r="0.73" style="fill:#ecedf1;"/>
        </g>
        <g id="SMCTR1" serif:id="SMCTR">
            <path id="line871" serif:id="line87" d="M22.509,193.961L22.509,191.229" style="fill:none;fill-rule:nonzero;stroke:#ecedf1;stroke-width:0.61px;stroke-linecap:round;stroke-miterlimit:4;"/>
            <path d="M12.676,212.889C10.575,210.55 9.295,207.458 9.295,204.069C9.295,196.781 15.212,190.864 22.5,190.864C29.788,190.864 35.705,196.781 35.705,204.069C35.705,207.458 34.425,210.55 32.324,212.889" style="fill:none;stroke:#ecedf1;stroke-width:0.63px;"/>
            <circle cx="12.716" cy="212.994" r="0.73" style="fill:#ecedf1;"/>
            <circle cx="32.29" cy="212.994" r="0.73" style="fill:#ecedf1;"/>
        </g>
        <path d="M22.354,280.007L56.646,280.007" style="fill:none;stroke:#ecedf1;stroke-width:0.83px;"/>
        <path d="M22.354,104.357L50.835,104.357" style="fill:none;stroke:#ecedf1;stroke-width:0.83px;"/>
        <path d="M67.5,269.3C73.41,269.3 78.207,274.097 78.207,280.007C78.207,285.917 73.41,290.714 67.5,290.714C61.59,290.714 56.793,285.917 56.793,280.007C56.793,274.097 61.59,269.3 67.5,269.3ZM67.5,269.93C61.938,269.93 57.423,274.445 57.423,280.007C57.423,285.569 61.938,290.084 67.5,290.084C73.062,290.084 77.577,285.569 77.577,280.007C77.577,274.445 73.062,269.93 67.5,269.93Z" style="fill:#ecedf1;"/>
        <rect x="34.588" y="122.485" width="1.675" height="9.75" style="fill:#ecedf1;fill-rule:nonzero;"/>
        <path d="M44.763,122.485L43.175,122.485L43.175,127.148L43.225,129.21L39.625,122.485L37.85,122.485L37.85,132.235L39.438,132.235L39.438,127.573L39.388,125.51L42.988,132.235L44.763,132.235L44.763,122.485Z" style="fill:#ecedf1;fill-rule:nonzero;"/>
        <rect x="46.35" y="122.485" width="1.675" height="9.75" style="fill:#ecedf1;fill-rule:nonzero;"/>
        <path d="M53.088,123.948L55.413,123.948L55.413,122.485L49.088,122.485L49.088,123.948L51.413,123.948L51.413,132.235L53.088,132.235L53.088,123.948Z" style="fill:#ecedf1;fill-rule:nonzero;"/>
        <path d="M13.978,67.888L31.129,67.888" style="fill:none;"/>
        <path d="M83.25,148.35C83.25,146.805 81.995,145.55 80.45,145.55L47.993,145.55C46.447,145.55 45.193,146.805 45.193,148.35L45.193,176.897C45.193,178.442 46.447,179.697 47.993,179.697L80.45,179.697C81.995,179.697 83.25,178.442 83.25,176.897L83.25,148.35Z" style="fill:none;stroke:#ecedf1;stroke-width:0.63px;"/>
        <path d="M28.503,151.562L28.503,153.587L26.846,153.587L26.846,151.562L26.009,151.562L26.009,156.437L26.846,156.437L26.846,154.312L28.503,154.312L28.503,156.437L29.34,156.437L29.34,151.562L28.503,151.562Z" style="fill:#ecedf1;fill-rule:nonzero;"/>
        <rect x="30.134" y="151.562" width="0.837" height="4.875" style="fill:#ecedf1;fill-rule:nonzero;"/>
        <path d="M28.728,165.099L28.728,164.368L26.846,164.368L26.846,160.224L26.009,160.224L26.009,165.099L28.728,165.099Z" style="fill:#ecedf1;fill-rule:nonzero;"/>
        <path d="M30.796,165.18C32.015,165.18 32.596,164.474 32.596,162.786L32.596,162.536C32.596,160.849 32.015,160.143 30.796,160.143C29.571,160.143 28.99,160.849 28.99,162.536L28.99,162.786C28.99,164.474 29.571,165.18 30.796,165.18ZM30.765,164.449C30.084,164.449 29.846,163.886 29.846,162.786L29.846,162.536C29.846,161.436 30.084,160.874 30.765,160.874L30.821,160.874C31.503,160.874 31.74,161.436 31.74,162.536L31.74,162.786C31.74,163.886 31.503,164.449 30.821,164.449L30.765,164.449Z" style="fill:#ecedf1;fill-rule:nonzero;"/>
        <path d="M26.759,171.429L26.759,171.179C26.759,170.079 26.984,169.517 27.678,169.517L27.734,169.517C28.328,169.517 28.521,169.923 28.521,170.698L29.365,170.698L29.365,170.486C29.365,169.298 28.803,168.786 27.684,168.786C26.465,168.786 25.903,169.492 25.903,171.179L25.903,171.429C25.903,173.117 26.465,173.823 27.684,173.823C28.803,173.823 29.365,173.311 29.365,172.161L29.365,172.098L28.521,172.098C28.521,172.711 28.303,173.092 27.734,173.092L27.678,173.092C26.978,173.092 26.759,172.529 26.759,171.429Z" style="fill:#ecedf1;fill-rule:nonzero;"/>
        <path d="M32.103,173.767L33.384,168.867L32.484,168.867L31.528,172.811L30.565,168.867L29.665,168.867L30.946,173.767L32.103,173.767Z" style="fill:#ecedf1;fill-rule:nonzero;"/>
        <path d="M36.741,148.35C36.741,146.805 35.486,145.55 33.941,145.55L9.785,145.55C8.239,145.55 6.985,146.805 6.985,148.35L6.985,176.897C6.985,178.442 8.239,179.697 9.785,179.697L33.941,179.697C35.486,179.697 36.741,178.442 36.741,176.897L36.741,148.35Z" style="fill:none;stroke:#ecedf1;stroke-width:0.63px;"/>
        <path d="M22.5,36.896L22.5,35L67.5,35L67.5,36.809" style="fill:none;stroke:#ecedf1;stroke-width:0.83px;stroke-linecap:butt;stroke-linejoin:miter;"/>
    </g>
</svg>
