<?xml version="1.0" encoding="UTF-8" standalone="no"?>
<!DOCTYPE svg PUBLIC "-//W3C//DTD SVG 1.1//EN" "http://www.w3.org/Graphics/SVG/1.1/DTD/svg11.dtd">
<svg width="100%" height="100%" viewBox="0 0 360 380" version="1.1" xmlns="http://www.w3.org/2000/svg" xmlns:xlink="http://www.w3.org/1999/xlink" xml:space="preserve" xmlns:serif="http://www.serif.com/" style="fill-rule:evenodd;clip-rule:evenodd;stroke-linejoin:round;stroke-miterlimit:2;">
    <g id="Layer1">
        <rect x="-0" y="0" width="360" height="380" style="fill:#909090;"/>
        <path d="M162.327,375.731C165.077,375.731 166.287,375.117 166.507,373.302L164.178,373.302C163.977,373.953 163.546,374.136 161.96,374.136L161.74,374.136C159.797,374.136 159.476,373.724 159.476,372.541L159.476,372.33C159.476,371.13 159.797,370.726 161.74,370.726L161.96,370.726C163.546,370.726 163.977,370.91 164.178,371.56L166.507,371.56C166.287,369.745 165.077,369.131 162.327,369.131L161.373,369.131C158.321,369.131 157.157,369.874 157.157,372.23L157.157,372.633C157.157,374.989 158.321,375.731 161.373,375.731L162.327,375.731Z" style="fill:#ecedf1;fill-rule:nonzero;"/>
        <path d="M175.133,374.127L169.724,374.127L169.724,373.183L175.133,373.183L175.133,371.67L169.724,371.67L169.724,370.735L175.133,370.735L175.133,369.223L167.451,369.223L167.451,375.64L175.133,375.64L175.133,374.127Z" style="fill:#ecedf1;fill-rule:nonzero;"/>
        <path d="M183.52,373.925L178.515,373.925L178.515,369.223L176.242,369.223L176.242,375.64L183.52,375.64L183.52,373.925Z" style="fill:#ecedf1;fill-rule:nonzero;"/>
        <path d="M191.596,373.925L186.591,373.925L186.591,369.223L184.318,369.223L184.318,375.64L191.596,375.64L191.596,373.925Z" style="fill:#ecedf1;fill-rule:nonzero;"/>
        <path d="M199.094,369.223L195.611,369.223L191.862,375.64L194.373,375.64L195.098,374.365L199.516,374.365L200.249,375.64L202.843,375.64L199.094,369.223ZM197.353,370.58L198.654,372.853L195.959,372.853L197.27,370.58L197.353,370.58Z" style="fill:#ecedf1;fill-rule:nonzero;"/>
    </g>
</svg>
