<?xml version="1.0" encoding="UTF-8" standalone="no"?>
<!DOCTYPE svg PUBLIC "-//W3C//DTD SVG 1.1//EN" "http://www.w3.org/Graphics/SVG/1.1/DTD/svg11.dtd">
<svg width="100%" height="100%" viewBox="0 0 30 380" version="1.1" xmlns="http://www.w3.org/2000/svg" xmlns:xlink="http://www.w3.org/1999/xlink" xml:space="preserve" xmlns:serif="http://www.serif.com/" style="fill-rule:evenodd;clip-rule:evenodd;stroke-linejoin:round;stroke-miterlimit:1.5;">
    <g id="Layer1">
        <rect x="0" y="0" width="30" height="380" style="fill:#909090;"/>
        <path d="M-0,25L30,25" style="fill:none;stroke:#ecedf1;stroke-width:0.83px;"/>
        <path d="M7.346,375.731C10.096,375.731 11.306,375.117 11.526,373.302L9.197,373.302C8.996,373.953 8.565,374.136 6.979,374.136L6.759,374.136C4.816,374.136 4.495,373.724 4.495,372.541L4.495,372.33C4.495,371.13 4.816,370.726 6.759,370.726L6.979,370.726C8.565,370.726 8.996,370.91 9.197,371.56L11.526,371.56C11.306,369.745 10.096,369.131 7.346,369.131L6.392,369.131C3.34,369.131 2.176,369.874 2.176,372.23L2.176,372.633C2.176,374.989 3.34,375.731 6.392,375.731L7.346,375.731Z" style="fill:#ecedf1;fill-rule:nonzero;"/>
        <path d="M19.748,373.925L14.743,373.925L14.743,369.223L12.47,369.223L12.47,375.64L19.748,375.64L19.748,373.925Z" style="fill:#ecedf1;fill-rule:nonzero;"/>
        <path d="M27.824,373.925L22.819,373.925L22.819,369.223L20.546,369.223L20.546,375.64L27.824,375.64L27.824,373.925Z" style="fill:#ecedf1;fill-rule:nonzero;"/>
        <path d="M13.221,19.507L13.53,16.773L9.479,16.773L10.672,6.507L7.873,6.507L6.371,19.507L13.221,19.507Z" style="fill:#ecedf1;fill-rule:nonzero;"/>
        <path d="M19.584,6.273C16.491,6.273 14.988,8.207 14.458,12.707L14.384,13.34C13.854,17.84 15.239,19.74 18.332,19.74C21.426,19.74 22.914,17.807 23.444,13.307L23.518,12.673C24.048,8.173 22.678,6.273 19.584,6.273ZM18.406,17.007C17.08,17.007 16.962,15.607 17.228,13.34L17.301,12.707C17.566,10.44 18.008,9.007 19.334,9.007L19.496,9.007C20.822,9.007 20.94,10.407 20.675,12.673L20.601,13.307C20.336,15.573 19.894,17.007 18.568,17.007L18.406,17.007Z" style="fill:#ecedf1;fill-rule:nonzero;"/>
        <path d="M8.734,352.358C10.766,352.358 11.734,351.181 11.734,348.368L11.734,347.952C11.734,345.139 10.766,343.962 8.734,343.962C6.693,343.962 5.724,345.139 5.724,347.952L5.724,348.368C5.724,351.181 6.693,352.358 8.734,352.358ZM8.682,351.139C7.547,351.139 7.151,350.202 7.151,348.368L7.151,347.952C7.151,346.118 7.547,345.181 8.682,345.181L8.776,345.181C9.911,345.181 10.307,346.118 10.307,347.952L10.307,348.368C10.307,350.202 9.911,351.139 8.776,351.139L8.682,351.139Z" style="fill:#ecedf1;fill-rule:nonzero;"/>
        <path d="M15.609,352.358C17.661,352.358 18.432,351.493 18.432,349.67L18.432,344.098L17.036,344.098L17.036,349.618C17.036,350.691 16.651,351.139 15.609,351.139C14.557,351.139 14.172,350.691 14.172,349.618L14.172,344.098L12.776,344.098L12.776,349.67C12.776,351.493 13.547,352.358 15.609,352.358Z" style="fill:#ecedf1;fill-rule:nonzero;"/>
        <path d="M22.547,345.316L24.484,345.316L24.484,344.098L19.214,344.098L19.214,345.316L21.151,345.316L21.151,352.223L22.547,352.223L22.547,345.316Z" style="fill:#ecedf1;fill-rule:nonzero;"/>
        <path d="M22.999,148.519L22.974,149.525L22.974,151.937L23.812,151.937L23.812,147.062L22.58,147.062L21.537,150.487L20.499,147.062L19.268,147.062L19.268,151.937L20.105,151.937L20.105,149.525L20.08,148.519L21.118,151.937L21.955,151.937L22.999,148.519Z" style="fill:#ecedf1;fill-rule:nonzero;"/>
        <path d="M20.849,158.812C21.593,158.912 21.83,159.137 21.83,159.562L21.83,159.6C21.83,160.006 21.53,160.287 21.005,160.287L20.949,160.287C20.424,160.287 20.105,159.987 20.105,159.294L19.268,159.294L19.268,159.356C19.268,160.475 19.862,161.019 20.98,161.019C22.068,161.019 22.687,160.481 22.687,159.569L22.687,159.5C22.687,158.644 22.18,158.262 21.118,158.119C20.349,158.012 20.168,157.787 20.168,157.387L20.168,157.35C20.168,156.969 20.468,156.712 20.93,156.712L20.987,156.712C21.568,156.712 21.805,157.037 21.805,157.769L22.643,157.769L22.643,157.625C22.643,156.525 22.137,155.981 20.98,155.981C19.924,155.981 19.312,156.531 19.312,157.394L19.312,157.456C19.312,158.262 19.787,158.669 20.849,158.812Z" style="fill:#ecedf1;fill-rule:nonzero;"/>
        <path d="M25.037,156.794L26.199,156.794L26.199,156.062L23.037,156.062L23.037,156.794L24.199,156.794L24.199,160.937L25.037,160.937L25.037,156.794Z" style="fill:#ecedf1;fill-rule:nonzero;"/>
        <path d="M30,139.227C30,137.681 28.745,136.427 27.2,136.427L3.043,136.427C1.498,136.427 0.243,137.681 0.243,139.227L0.243,167.773C0.243,169.319 1.498,170.573 3.043,170.573L27.2,170.573C28.745,170.573 30,169.319 30,167.773L30,139.227Z" style="fill:none;stroke:#ecedf1;stroke-width:0.63px;stroke-linecap:square;"/>
        <path d="M21.793,256.071L21.793,257.78L20.084,257.78L20.084,258.803L21.793,258.803L21.793,260.512L22.817,260.512L22.817,258.803L24.526,258.803L24.526,257.78L22.817,257.78L22.817,256.071L21.793,256.071Z" style="fill:#ecedf1;fill-rule:nonzero;"/>
        <g>
            <path d="M21.793,244.488L21.793,246.197L20.084,246.197L20.084,247.22L21.793,247.22L21.793,248.929L22.817,248.929L22.817,247.22L24.526,247.22L24.526,246.197L22.817,246.197L22.817,244.488L21.793,244.488Z" style="fill:#ecedf1;fill-rule:nonzero;"/>
            <rect x="20.084" y="250.012" width="4.442" height="0.989" style="fill:#ecedf1;fill-rule:nonzero;"/>
        </g>
        <path d="M30,238.227C30,236.681 28.745,235.427 27.2,235.427L3.043,235.427C1.498,235.427 0.243,236.681 0.243,238.227L0.243,266.773C0.243,268.319 1.498,269.573 3.043,269.573L27.2,269.573C28.745,269.573 30,268.319 30,266.773L30,238.227Z" style="fill:none;stroke:#ecedf1;stroke-width:0.63px;stroke-linecap:square;"/>
        <path d="M8.677,222.916C9.917,223.083 10.312,223.458 10.312,224.166L10.312,224.229C10.312,224.906 9.812,225.374 8.937,225.374L8.844,225.374C7.969,225.374 7.437,224.874 7.437,223.718L6.042,223.718L6.042,223.822C6.042,225.687 7.031,226.593 8.896,226.593C10.708,226.593 11.74,225.697 11.74,224.177L11.74,224.062C11.74,222.635 10.896,221.999 9.125,221.76C7.844,221.583 7.542,221.208 7.542,220.541L7.542,220.479C7.542,219.843 8.042,219.416 8.812,219.416L8.906,219.416C9.875,219.416 10.271,219.958 10.271,221.177L11.667,221.177L11.667,220.937C11.667,219.104 10.823,218.197 8.896,218.197C7.135,218.197 6.115,219.114 6.115,220.552L6.115,220.656C6.115,221.999 6.906,222.677 8.677,222.916Z" style="fill:#ecedf1;fill-rule:nonzero;"/>
        <path d="M14.01,222.604L14.01,222.187C14.01,220.354 14.385,219.416 15.542,219.416L15.635,219.416C16.625,219.416 16.948,220.093 16.948,221.385L18.354,221.385L18.354,221.031C18.354,219.052 17.417,218.197 15.552,218.197C13.521,218.197 12.583,219.374 12.583,222.187L12.583,222.604C12.583,225.416 13.521,226.593 15.552,226.593C17.417,226.593 18.354,225.739 18.354,223.822L18.354,223.718L16.948,223.718C16.948,224.739 16.583,225.374 15.635,225.374L15.542,225.374C14.375,225.374 14.01,224.437 14.01,222.604Z" style="fill:#ecedf1;fill-rule:nonzero;"/>
        <path d="M23.958,226.458L23.958,225.239L20.823,225.239L20.823,218.333L19.427,218.333L19.427,226.458L23.958,226.458Z" style="fill:#ecedf1;fill-rule:nonzero;"/>
        <g id="SmmCTR">
            <path d="M5.376,212.215C5.721,212.6 6.315,212.631 6.7,212.286C7.084,211.94 7.116,211.347 6.77,210.962C6.424,210.577 5.831,210.545 5.446,210.891C5.061,211.237 5.03,211.83 5.376,212.215Z" style="fill:#ecedf1;"/>
            <path d="M24.624,212.215C24.279,212.6 23.685,212.631 23.3,212.286C22.916,211.94 22.884,211.347 23.23,210.962C23.576,210.577 24.169,210.545 24.554,210.891C24.939,211.237 24.97,211.83 24.624,212.215Z" style="fill:#ecedf1;"/>
            <path d="M6.073,211.588C4.163,209.463 3,206.652 3,203.572C3,196.95 8.377,191.572 15,191.572C21.623,191.572 27,196.95 27,203.572C27,206.652 25.837,209.463 23.927,211.588" style="fill:none;stroke:#ecedf1;stroke-width:0.63px;stroke-linecap:square;"/>
            <path id="line87" d="M15,193.651L15,191.744" style="fill:none;fill-rule:nonzero;stroke:#ecedf1;stroke-width:0.63px;stroke-linecap:round;stroke-miterlimit:4;"/>
        </g>
    </g>
</svg>
