<?xml version="1.0" encoding="UTF-8" standalone="no"?>
<!DOCTYPE svg PUBLIC "-//W3C//DTD SVG 1.1//EN" "http://www.w3.org/Graphics/SVG/1.1/DTD/svg11.dtd">
<svg width="100%" height="100%" viewBox="0 0 225 380" version="1.1" xmlns="http://www.w3.org/2000/svg" xmlns:xlink="http://www.w3.org/1999/xlink" xml:space="preserve" xmlns:serif="http://www.serif.com/" style="fill-rule:evenodd;clip-rule:evenodd;stroke-linejoin:round;stroke-miterlimit:1.5;">
    <g id="Layer1">
        <rect x="-0" y="0" width="225" height="380" style="fill:#909090;"/>
        <path d="M0,25L225,25" style="fill:none;stroke:#ecedf1;stroke-width:0.83px;"/>
        <path d="M55.13,349.147L56.318,349.147L57.484,352.179L58.995,352.179L57.672,348.929C58.411,348.637 58.995,348.001 58.995,346.699L58.995,346.491C58.995,344.429 57.547,344.054 56.276,344.054L53.734,344.054L53.734,352.179L55.13,352.179L55.13,349.147ZM55.13,347.929L55.13,345.272L56.328,345.272C56.87,345.272 57.578,345.47 57.578,346.543L57.578,346.658C57.578,347.731 56.87,347.929 56.328,347.929L55.13,347.929Z" style="fill:#ecedf1;fill-rule:nonzero;"/>
        <rect x="60.151" y="344.054" width="1.396" height="8.125" style="fill:#ecedf1;fill-rule:nonzero;"/>
        <path d="M65.839,352.314C67.214,352.314 68.016,351.856 68.568,351.366L68.568,347.908L65.995,347.908L65.995,349.116L67.172,349.116L67.172,350.689C66.901,350.908 66.464,351.095 65.891,351.095L65.797,351.095C64.516,351.095 64.12,350.158 64.12,348.324L64.12,347.908C64.12,346.074 64.526,345.137 65.724,345.137L65.818,345.137C66.839,345.137 67.172,345.814 67.172,347.106L68.568,347.106L68.568,346.751C68.568,344.772 67.599,343.918 65.734,343.918C63.703,343.918 62.693,345.095 62.693,347.908L62.693,348.324C62.693,351.137 63.703,352.314 65.839,352.314Z" style="fill:#ecedf1;fill-rule:nonzero;"/>
        <path d="M73.943,344.054L73.943,347.429L71.182,347.429L71.182,344.054L69.786,344.054L69.786,352.179L71.182,352.179L71.182,348.637L73.943,348.637L73.943,352.179L75.339,352.179L75.339,344.054L73.943,344.054Z" style="fill:#ecedf1;fill-rule:nonzero;"/>
        <path d="M79.505,345.272L81.443,345.272L81.443,344.054L76.172,344.054L76.172,345.272L78.109,345.272L78.109,352.179L79.505,352.179L79.505,345.272Z" style="fill:#ecedf1;fill-rule:nonzero;"/>
        <path d="M123.677,349.283L124.865,349.283L126.031,352.314L127.542,352.314L126.219,349.064C126.958,348.772 127.542,348.137 127.542,346.835L127.542,346.626C127.542,344.564 126.094,344.189 124.823,344.189L122.281,344.189L122.281,352.314L123.677,352.314L123.677,349.283ZM123.677,348.064L123.677,345.408L124.875,345.408C125.417,345.408 126.125,345.606 126.125,346.679L126.125,346.793C126.125,347.866 125.417,348.064 124.875,348.064L123.677,348.064Z" style="fill:#ecedf1;fill-rule:nonzero;"/>
        <path d="M128.646,344.189L128.646,352.314L133.479,352.314L133.479,351.095L130.042,351.095L130.042,348.772L132.958,348.772L132.958,347.564L130.042,347.564L130.042,345.408L133.479,345.408L133.479,344.189L128.646,344.189Z" style="fill:#ecedf1;fill-rule:nonzero;"/>
        <path d="M136.917,348.772C138.156,348.939 138.552,349.314 138.552,350.022L138.552,350.085C138.552,350.762 138.052,351.231 137.177,351.231L137.083,351.231C136.208,351.231 135.677,350.731 135.677,349.574L134.281,349.574L134.281,349.679C134.281,351.543 135.271,352.449 137.135,352.449C138.948,352.449 139.979,351.554 139.979,350.033L139.979,349.918C139.979,348.491 139.135,347.856 137.365,347.616C136.083,347.439 135.781,347.064 135.781,346.397L135.781,346.335C135.781,345.699 136.281,345.272 137.052,345.272L137.146,345.272C138.115,345.272 138.51,345.814 138.51,347.033L139.906,347.033L139.906,346.793C139.906,344.96 139.063,344.054 137.135,344.054C135.375,344.054 134.354,344.97 134.354,346.408L134.354,346.512C134.354,347.856 135.146,348.533 136.917,348.772Z" style="fill:#ecedf1;fill-rule:nonzero;"/>
        <path d="M141,344.189L141,352.314L145.833,352.314L145.833,351.095L142.396,351.095L142.396,348.772L145.312,348.772L145.312,347.564L142.396,347.564L142.396,345.408L145.833,345.408L145.833,344.189L141,344.189Z" style="fill:#ecedf1;fill-rule:nonzero;"/>
        <path d="M149.781,345.408L151.719,345.408L151.719,344.189L146.448,344.189L146.448,345.408L148.385,345.408L148.385,352.314L149.781,352.314L149.781,345.408Z" style="fill:#ecedf1;fill-rule:nonzero;"/>
        <path d="M187.599,345.408L189.536,345.408L189.536,344.189L184.266,344.189L184.266,345.408L186.203,345.408L186.203,352.314L187.599,352.314L187.599,345.408Z" style="fill:#ecedf1;fill-rule:nonzero;"/>
        <path d="M191.516,344.147L189.38,352.314L190.891,352.314L191.339,350.46L193.63,350.46L194.078,352.314L195.578,352.314L193.443,344.147L191.516,344.147ZM192.484,345.741L193.328,349.241L191.63,349.241L192.484,345.741Z" style="fill:#ecedf1;fill-rule:nonzero;"/>
        <path d="M197.797,349.283L198.984,349.283L200.151,352.314L201.661,352.314L200.339,349.064C201.078,348.772 201.661,348.137 201.661,346.835L201.661,346.626C201.661,344.564 200.214,344.189 198.943,344.189L196.401,344.189L196.401,352.314L197.797,352.314L197.797,349.283ZM197.797,348.064L197.797,345.408L198.995,345.408C199.536,345.408 200.245,345.606 200.245,346.679L200.245,346.793C200.245,347.866 199.536,348.064 198.995,348.064L197.797,348.064Z" style="fill:#ecedf1;fill-rule:nonzero;"/>
        <path d="M205.63,352.449C207.005,352.449 207.807,351.991 208.359,351.501L208.359,348.043L205.786,348.043L205.786,349.251L206.964,349.251L206.964,350.824C206.693,351.043 206.255,351.231 205.682,351.231L205.589,351.231C204.307,351.231 203.911,350.293 203.911,348.46L203.911,348.043C203.911,346.21 204.318,345.272 205.516,345.272L205.609,345.272C206.63,345.272 206.964,345.949 206.964,347.241L208.359,347.241L208.359,346.887C208.359,344.908 207.391,344.054 205.526,344.054C203.495,344.054 202.484,345.231 202.484,348.043L202.484,348.46C202.484,351.272 203.495,352.449 205.63,352.449Z" style="fill:#ecedf1;fill-rule:nonzero;"/>
        <path d="M209.578,344.189L209.578,352.314L214.411,352.314L214.411,351.095L210.974,351.095L210.974,348.772L213.891,348.772L213.891,347.564L210.974,347.564L210.974,345.408L214.411,345.408L214.411,344.189L209.578,344.189Z" style="fill:#ecedf1;fill-rule:nonzero;"/>
        <path d="M218.359,345.408L220.297,345.408L220.297,344.189L215.026,344.189L215.026,345.408L216.964,345.408L216.964,352.314L218.359,352.314L218.359,345.408Z" style="fill:#ecedf1;fill-rule:nonzero;"/>
        <path d="M16.401,352.084L16.401,350.865L13.266,350.865L13.266,343.959L11.87,343.959L11.87,352.084L16.401,352.084Z" style="fill:#ecedf1;fill-rule:nonzero;"/>
        <path d="M17.193,343.959L17.193,352.084L22.026,352.084L22.026,350.865L18.589,350.865L18.589,348.542L21.505,348.542L21.505,347.334L18.589,347.334L18.589,345.178L22.026,345.178L22.026,343.959L17.193,343.959Z" style="fill:#ecedf1;fill-rule:nonzero;"/>
        <path d="M23.078,343.959L23.078,352.084L24.474,352.084L24.474,348.542L27.318,348.542L27.318,347.334L24.474,347.334L24.474,345.178L27.839,345.178L27.839,343.959L23.078,343.959Z" style="fill:#ecedf1;fill-rule:nonzero;"/>
        <path d="M31.578,345.178L33.516,345.178L33.516,343.959L28.245,343.959L28.245,345.178L30.182,345.178L30.182,352.084L31.578,352.084L31.578,345.178Z" style="fill:#ecedf1;fill-rule:nonzero;"/>
        <path d="M49.194,19.507L49.544,16.773L44.961,16.773L46.311,6.507L43.144,6.507L41.444,19.507L49.194,19.507Z" style="fill:#ecedf1;fill-rule:nonzero;"/>
        <path d="M56.394,6.273C52.894,6.273 51.194,8.207 50.594,12.707L50.511,13.34C49.911,17.84 51.477,19.74 54.977,19.74C58.477,19.74 60.161,17.807 60.761,13.307L60.844,12.673C61.444,8.173 59.894,6.273 56.394,6.273ZM55.061,17.007C53.561,17.007 53.427,15.607 53.727,13.34L53.811,12.707C54.111,10.44 54.611,9.007 56.111,9.007L56.294,9.007C57.794,9.007 57.927,10.407 57.627,12.673L57.544,13.307C57.244,15.573 56.744,17.007 55.244,17.007L55.061,17.007Z" style="fill:#ecedf1;fill-rule:nonzero;"/>
        <path d="M66.144,19.74C69.911,19.74 71.094,18.107 71.444,15.373L72.611,6.507L69.444,6.507L68.294,15.29C68.161,16.323 67.711,17.007 66.327,17.007C64.944,17.007 64.827,16.323 64.961,15.29L66.111,6.507L62.944,6.507L61.777,15.373C61.427,18.107 62.377,19.74 66.144,19.74Z" style="fill:#ecedf1;fill-rule:nonzero;"/>
        <path d="M83.161,12.673C83.761,8.173 82.361,6.507 78.277,6.507L74.194,6.507L72.494,19.507L76.744,19.507C80.827,19.507 82.477,17.807 83.077,13.307L83.161,12.673ZM76.011,16.773L77.011,9.24L77.761,9.24C79.927,9.24 80.244,10.423 79.944,12.673L79.861,13.307C79.561,15.557 79.094,16.773 76.927,16.773L76.011,16.773Z" style="fill:#ecedf1;fill-rule:nonzero;"/>
        <path d="M95.194,6.507L92.194,6.507L91.577,11.173L91.344,13.673L88.694,6.507L85.361,6.507L83.661,19.507L86.661,19.507L87.261,14.84L87.511,12.34L90.161,19.507L93.494,19.507L95.194,6.507Z" style="fill:#ecedf1;fill-rule:nonzero;"/>
        <path d="M96.861,6.507L95.161,19.507L103.327,19.507L103.677,16.773L98.677,16.773L99.011,14.24L103.177,14.24L103.544,11.507L99.377,11.507L99.677,9.24L104.677,9.24L105.027,6.507L96.861,6.507Z" style="fill:#ecedf1;fill-rule:nonzero;"/>
        <path d="M109.427,14.273C111.194,14.507 111.511,15.023 111.444,15.673L111.427,15.84C111.361,16.473 110.877,17.007 109.794,17.007L109.627,17.007C108.544,17.007 108.061,16.44 108.244,15.007L105.077,15.007L105.044,15.273C104.661,18.29 106.294,19.74 109.461,19.74C112.527,19.74 114.361,18.44 114.627,15.99L114.661,15.69C114.944,13.207 113.711,12.107 110.927,11.723C109.211,11.49 108.927,11.04 108.994,10.34L109.011,10.173C109.077,9.523 109.611,9.007 110.527,9.007L110.694,9.007C111.861,9.007 112.194,9.707 111.994,11.173L115.161,11.173L115.211,10.773C115.577,7.807 114.227,6.273 110.977,6.273C107.727,6.273 106.044,7.84 105.794,10.14L105.761,10.44C105.494,12.79 106.644,13.907 109.427,14.273Z" style="fill:#ecedf1;fill-rule:nonzero;"/>
        <path d="M120.094,14.273C121.861,14.507 122.177,15.023 122.111,15.673L122.094,15.84C122.027,16.473 121.544,17.007 120.461,17.007L120.294,17.007C119.211,17.007 118.727,16.44 118.911,15.007L115.744,15.007L115.711,15.273C115.327,18.29 116.961,19.74 120.127,19.74C123.194,19.74 125.027,18.44 125.294,15.99L125.327,15.69C125.611,13.207 124.377,12.107 121.594,11.723C119.877,11.49 119.594,11.04 119.661,10.34L119.677,10.173C119.744,9.523 120.277,9.007 121.194,9.007L121.361,9.007C122.527,9.007 122.861,9.707 122.661,11.173L125.827,11.173L125.877,10.773C126.244,7.807 124.894,6.273 121.644,6.273C118.394,6.273 116.711,7.84 116.461,10.14L116.427,10.44C116.161,12.79 117.311,13.907 120.094,14.273Z" style="fill:#ecedf1;fill-rule:nonzero;"/>
        <path d="M140.561,12.007L140.144,14.507L139.494,19.507L142.661,19.507L144.361,6.507L139.644,6.507L136.794,14.007L135.911,6.507L131.194,6.507L129.494,19.507L132.661,19.507L133.311,14.507L133.561,12.007L134.444,19.507L137.711,19.507L140.561,12.007Z" style="fill:#ecedf1;fill-rule:nonzero;"/>
        <path d="M146.027,6.507L144.327,19.507L152.494,19.507L152.844,16.773L147.844,16.773L148.177,14.24L152.344,14.24L152.711,11.507L148.544,11.507L148.844,9.24L153.844,9.24L154.194,6.507L146.027,6.507Z" style="fill:#ecedf1;fill-rule:nonzero;"/>
        <path d="M160.844,9.24L163.761,9.24L164.111,6.507L155.111,6.507L154.761,9.24L157.677,9.24L156.327,19.507L159.494,19.507L160.844,9.24Z" style="fill:#ecedf1;fill-rule:nonzero;"/>
        <path d="M165.194,6.507L163.494,19.507L171.661,19.507L172.011,16.773L167.011,16.773L167.344,14.24L171.511,14.24L171.877,11.507L167.711,11.507L168.011,9.24L173.011,9.24L173.361,6.507L165.194,6.507Z" style="fill:#ecedf1;fill-rule:nonzero;"/>
        <path d="M177.261,12.307L177.677,9.24L179.127,9.24C179.744,9.24 180.394,9.44 180.277,10.673L180.261,10.857C180.144,12.057 179.327,12.307 178.711,12.307L177.261,12.307ZM176.911,15.04L177.794,15.04L178.911,19.507L182.327,19.507L180.944,14.607C182.161,14.107 183.161,13.057 183.444,10.94L183.494,10.573C183.977,6.973 181.544,6.507 179.344,6.507L174.861,6.507L173.161,19.507L176.327,19.507L176.911,15.04Z" style="fill:#ecedf1;fill-rule:nonzero;"/>
        <path d="M94.827,375.731C97.577,375.731 98.787,375.117 99.007,373.302L96.678,373.302C96.477,373.953 96.046,374.136 94.46,374.136L94.24,374.136C92.297,374.136 91.976,373.724 91.976,372.541L91.976,372.33C91.976,371.13 92.297,370.726 94.24,370.726L94.46,370.726C96.046,370.726 96.477,370.91 96.678,371.56L99.007,371.56C98.787,369.745 97.577,369.131 94.827,369.131L93.873,369.131C90.821,369.131 89.657,369.874 89.657,372.23L89.657,372.633C89.657,374.989 90.821,375.731 93.873,375.731L94.827,375.731Z" style="fill:#ecedf1;fill-rule:nonzero;"/>
        <path d="M107.633,374.127L102.224,374.127L102.224,373.183L107.633,373.183L107.633,371.67L102.224,371.67L102.224,370.735L107.633,370.735L107.633,369.223L99.951,369.223L99.951,375.64L107.633,375.64L107.633,374.127Z" style="fill:#ecedf1;fill-rule:nonzero;"/>
        <path d="M116.02,373.925L111.015,373.925L111.015,369.223L108.742,369.223L108.742,375.64L116.02,375.64L116.02,373.925Z" style="fill:#ecedf1;fill-rule:nonzero;"/>
        <path d="M124.096,373.925L119.091,373.925L119.091,369.223L116.818,369.223L116.818,375.64L124.096,375.64L124.096,373.925Z" style="fill:#ecedf1;fill-rule:nonzero;"/>
        <path d="M131.594,369.223L128.111,369.223L124.362,375.64L126.873,375.64L127.598,374.365L132.016,374.365L132.749,375.64L135.343,375.64L131.594,369.223ZM129.853,370.58L131.154,372.853L128.459,372.853L129.77,370.58L129.853,370.58Z" style="fill:#ecedf1;fill-rule:nonzero;"/>
        <path d="M112.5,329.25L146.793,329.25" style="fill:none;stroke:#ecedf1;stroke-width:0.83px;stroke-linecap:square;"/>
        <g id="CTR">
            <circle id="Base" cx="202.284" cy="329.25" r="13.497" style="fill:none;"/>
            <path id="path89" d="M208.755,339.966C208.296,340.243 208.149,340.841 208.426,341.3C208.704,341.759 209.301,341.906 209.76,341.628C210.219,341.351 210.367,340.753 210.089,340.294C209.812,339.835 209.214,339.688 208.755,339.966Z" style="fill:#ecedf1;fill-rule:nonzero;"/>
            <path d="M195.855,340C196.315,340.275 196.465,340.872 196.19,341.332C195.915,341.793 195.318,341.943 194.858,341.668C194.398,341.393 194.247,340.796 194.522,340.336C194.797,339.875 195.394,339.725 195.855,340Z" style="fill:#ecedf1;fill-rule:nonzero;"/>
            <path d="M209.258,340.797C213.296,338.356 215.771,333.967 215.771,329.248C215.771,321.845 209.679,315.753 202.276,315.753C194.873,315.753 188.781,321.845 188.781,329.248C188.781,333.993 191.283,338.401 195.356,340.834" style="fill:none;fill-rule:nonzero;stroke:#ecedf1;stroke-width:0.65px;stroke-linecap:round;stroke-miterlimit:4;"/>
        </g>
        <path d="M157.5,318.543C163.41,318.543 168.207,323.34 168.207,329.25C168.207,335.16 163.41,339.957 157.5,339.957C151.59,339.957 146.793,335.16 146.793,329.25C146.793,323.34 151.59,318.543 157.5,318.543ZM157.5,319.173C151.938,319.173 147.423,323.688 147.423,329.25C147.423,334.812 151.938,339.327 157.5,339.327C163.062,339.327 167.577,334.812 167.577,329.25C167.577,323.688 163.062,319.173 157.5,319.173Z" style="fill:#ecedf1;"/>
    </g>
</svg>
