<?xml version="1.0" encoding="UTF-8" standalone="no"?>
<!DOCTYPE svg PUBLIC "-//W3C//DTD SVG 1.1//EN" "http://www.w3.org/Graphics/SVG/1.1/DTD/svg11.dtd">
<svg width="100%" height="100%" viewBox="0 0 90 380" version="1.1" xmlns="http://www.w3.org/2000/svg" xmlns:xlink="http://www.w3.org/1999/xlink" xml:space="preserve" xmlns:serif="http://www.serif.com/" style="fill-rule:evenodd;clip-rule:evenodd;stroke-linejoin:round;stroke-miterlimit:1.5;">
    <g id="Layer1">
        <rect x="0" y="0" width="90" height="380" style="fill:#252626;"/>
        <path d="M0,25L90,25" style="fill:none;stroke:#f7c5ad;stroke-width:0.83px;"/>
        <path d="M55.13,349.147L56.318,349.147L57.484,352.179L58.995,352.179L57.672,348.929C58.411,348.637 58.995,348.001 58.995,346.699L58.995,346.491C58.995,344.429 57.547,344.054 56.276,344.054L53.734,344.054L53.734,352.179L55.13,352.179L55.13,349.147ZM55.13,347.929L55.13,345.272L56.328,345.272C56.87,345.272 57.578,345.47 57.578,346.543L57.578,346.658C57.578,347.731 56.87,347.929 56.328,347.929L55.13,347.929Z" style="fill:#f7c5ad;fill-rule:nonzero;"/>
        <rect x="60.151" y="344.054" width="1.396" height="8.125" style="fill:#f7c5ad;fill-rule:nonzero;"/>
        <path d="M65.839,352.314C67.214,352.314 68.016,351.856 68.568,351.366L68.568,347.908L65.995,347.908L65.995,349.116L67.172,349.116L67.172,350.689C66.901,350.908 66.464,351.095 65.891,351.095L65.797,351.095C64.516,351.095 64.12,350.158 64.12,348.324L64.12,347.908C64.12,346.074 64.526,345.137 65.724,345.137L65.818,345.137C66.839,345.137 67.172,345.814 67.172,347.106L68.568,347.106L68.568,346.751C68.568,344.772 67.599,343.918 65.734,343.918C63.703,343.918 62.693,345.095 62.693,347.908L62.693,348.324C62.693,351.137 63.703,352.314 65.839,352.314Z" style="fill:#f7c5ad;fill-rule:nonzero;"/>
        <path d="M73.943,344.054L73.943,347.429L71.182,347.429L71.182,344.054L69.786,344.054L69.786,352.179L71.182,352.179L71.182,348.637L73.943,348.637L73.943,352.179L75.339,352.179L75.339,344.054L73.943,344.054Z" style="fill:#f7c5ad;fill-rule:nonzero;"/>
        <path d="M79.505,345.272L81.443,345.272L81.443,344.054L76.172,344.054L76.172,345.272L78.109,345.272L78.109,352.179L79.505,352.179L79.505,345.272Z" style="fill:#f7c5ad;fill-rule:nonzero;"/>
        <path d="M16.401,352.084L16.401,350.865L13.266,350.865L13.266,343.959L11.87,343.959L11.87,352.084L16.401,352.084Z" style="fill:#f7c5ad;fill-rule:nonzero;"/>
        <path d="M17.193,343.959L17.193,352.084L22.026,352.084L22.026,350.865L18.589,350.865L18.589,348.542L21.505,348.542L21.505,347.334L18.589,347.334L18.589,345.178L22.026,345.178L22.026,343.959L17.193,343.959Z" style="fill:#f7c5ad;fill-rule:nonzero;"/>
        <path d="M23.078,343.959L23.078,352.084L24.474,352.084L24.474,348.542L27.318,348.542L27.318,347.334L24.474,347.334L24.474,345.178L27.839,345.178L27.839,343.959L23.078,343.959Z" style="fill:#f7c5ad;fill-rule:nonzero;"/>
        <path d="M31.578,345.178L33.516,345.178L33.516,343.959L28.245,343.959L28.245,345.178L30.182,345.178L30.182,352.084L31.578,352.084L31.578,345.178Z" style="fill:#f7c5ad;fill-rule:nonzero;"/>
        <path d="M31.825,19.507L32.175,16.773L27.592,16.773L28.942,6.507L25.775,6.507L24.075,19.507L31.825,19.507Z" style="fill:#f7c5ad;fill-rule:nonzero;"/>
        <path d="M39.025,6.273C35.525,6.273 33.825,8.207 33.225,12.707L33.142,13.34C32.542,17.84 34.109,19.74 37.609,19.74C41.109,19.74 42.792,17.807 43.392,13.307L43.475,12.673C44.075,8.173 42.525,6.273 39.025,6.273ZM37.692,17.007C36.192,17.007 36.059,15.607 36.359,13.34L36.442,12.707C36.742,10.44 37.242,9.007 38.742,9.007L38.925,9.007C40.425,9.007 40.559,10.407 40.259,12.673L40.175,13.307C39.875,15.573 39.375,17.007 37.875,17.007L37.692,17.007Z" style="fill:#f7c5ad;fill-rule:nonzero;"/>
        <path d="M48.775,19.74C52.542,19.74 53.725,18.107 54.075,15.373L55.242,6.507L52.075,6.507L50.925,15.29C50.792,16.323 50.342,17.007 48.959,17.007C47.575,17.007 47.459,16.323 47.592,15.29L48.742,6.507L45.575,6.507L44.409,15.373C44.059,18.107 45.009,19.74 48.775,19.74Z" style="fill:#f7c5ad;fill-rule:nonzero;"/>
        <path d="M65.792,12.673C66.392,8.173 64.992,6.507 60.909,6.507L56.825,6.507L55.125,19.507L59.375,19.507C63.459,19.507 65.109,17.807 65.709,13.307L65.792,12.673ZM58.642,16.773L59.642,9.24L60.392,9.24C62.559,9.24 62.875,10.423 62.575,12.673L62.492,13.307C62.192,15.557 61.725,16.773 59.559,16.773L58.642,16.773Z" style="fill:#f7c5ad;fill-rule:nonzero;"/>
        <path d="M27.327,375.731C30.077,375.731 31.287,375.117 31.507,373.302L29.178,373.302C28.977,373.953 28.546,374.136 26.96,374.136L26.74,374.136C24.797,374.136 24.476,373.724 24.476,372.541L24.476,372.33C24.476,371.13 24.797,370.726 26.74,370.726L26.96,370.726C28.546,370.726 28.977,370.91 29.178,371.56L31.507,371.56C31.287,369.745 30.077,369.131 27.327,369.131L26.373,369.131C23.321,369.131 22.157,369.874 22.157,372.23L22.157,372.633C22.157,374.989 23.321,375.731 26.373,375.731L27.327,375.731Z" style="fill:#f7c5ad;fill-rule:nonzero;"/>
        <path d="M40.133,374.127L34.724,374.127L34.724,373.183L40.133,373.183L40.133,371.67L34.724,371.67L34.724,370.735L40.133,370.735L40.133,369.223L32.451,369.223L32.451,375.64L40.133,375.64L40.133,374.127Z" style="fill:#f7c5ad;fill-rule:nonzero;"/>
        <path d="M48.52,373.925L43.515,373.925L43.515,369.223L41.242,369.223L41.242,375.64L48.52,375.64L48.52,373.925Z" style="fill:#f7c5ad;fill-rule:nonzero;"/>
        <path d="M56.596,373.925L51.591,373.925L51.591,369.223L49.318,369.223L49.318,375.64L56.596,375.64L56.596,373.925Z" style="fill:#f7c5ad;fill-rule:nonzero;"/>
        <path d="M64.094,369.223L60.611,369.223L56.862,375.64L59.373,375.64L60.098,374.365L64.516,374.365L65.249,375.64L67.843,375.64L64.094,369.223ZM62.353,370.58L63.654,372.853L60.959,372.853L62.27,370.58L62.353,370.58Z" style="fill:#f7c5ad;fill-rule:nonzero;"/>
        <path d="M33.677,300.133L34.865,300.133L36.031,303.164L37.542,303.164L36.219,299.914C36.958,299.622 37.542,298.987 37.542,297.685L37.542,297.476C37.542,295.414 36.094,295.039 34.823,295.039L32.281,295.039L32.281,303.164L33.677,303.164L33.677,300.133ZM33.677,298.914L33.677,296.258L34.875,296.258C35.417,296.258 36.125,296.456 36.125,297.529L36.125,297.643C36.125,298.716 35.417,298.914 34.875,298.914L33.677,298.914Z" style="fill:#f7c5ad;fill-rule:nonzero;"/>
        <path d="M38.646,295.039L38.646,303.164L43.479,303.164L43.479,301.945L40.042,301.945L40.042,299.622L42.958,299.622L42.958,298.414L40.042,298.414L40.042,296.258L43.479,296.258L43.479,295.039L38.646,295.039Z" style="fill:#f7c5ad;fill-rule:nonzero;"/>
        <path d="M46.917,299.622C48.156,299.789 48.552,300.164 48.552,300.872L48.552,300.935C48.552,301.612 48.052,302.081 47.177,302.081L47.083,302.081C46.208,302.081 45.677,301.581 45.677,300.424L44.281,300.424L44.281,300.529C44.281,302.393 45.271,303.299 47.135,303.299C48.948,303.299 49.979,302.404 49.979,300.883L49.979,300.768C49.979,299.341 49.135,298.706 47.365,298.466C46.083,298.289 45.781,297.914 45.781,297.247L45.781,297.185C45.781,296.549 46.281,296.122 47.052,296.122L47.146,296.122C48.115,296.122 48.51,296.664 48.51,297.883L49.906,297.883L49.906,297.643C49.906,295.81 49.062,294.904 47.135,294.904C45.375,294.904 44.354,295.82 44.354,297.258L44.354,297.362C44.354,298.706 45.146,299.383 46.917,299.622Z" style="fill:#f7c5ad;fill-rule:nonzero;"/>
        <path d="M51,295.039L51,303.164L55.833,303.164L55.833,301.945L52.396,301.945L52.396,299.622L55.312,299.622L55.312,298.414L52.396,298.414L52.396,296.258L55.833,296.258L55.833,295.039L51,295.039Z" style="fill:#f7c5ad;fill-rule:nonzero;"/>
        <path d="M59.781,296.258L61.719,296.258L61.719,295.039L56.448,295.039L56.448,296.258L58.385,296.258L58.385,303.164L59.781,303.164L59.781,296.258Z" style="fill:#f7c5ad;fill-rule:nonzero;"/>
        <path d="M22.5,280.1L56.793,280.1" style="fill:none;stroke:#f7c5ad;stroke-width:0.83px;stroke-linecap:square;"/>
        <path d="M67.5,269.393C73.41,269.393 78.207,274.19 78.207,280.1C78.207,286.01 73.41,290.807 67.5,290.807C61.59,290.807 56.793,286.01 56.793,280.1C56.793,274.19 61.59,269.393 67.5,269.393ZM67.5,270.023C61.938,270.023 57.423,274.538 57.423,280.1C57.423,285.662 61.938,290.177 67.5,290.177C73.062,290.177 77.577,285.662 77.577,280.1C77.577,274.538 73.062,270.023 67.5,270.023Z" style="fill:#f7c5ad;"/>
    </g>
</svg>
