<?xml version="1.0" encoding="UTF-8" standalone="no"?>
<!DOCTYPE svg PUBLIC "-//W3C//DTD SVG 1.1//EN" "http://www.w3.org/Graphics/SVG/1.1/DTD/svg11.dtd">
<svg width="100%" height="100%" viewBox="0 0 30 380" version="1.1" xmlns="http://www.w3.org/2000/svg" xmlns:xlink="http://www.w3.org/1999/xlink" xml:space="preserve" xmlns:serif="http://www.serif.com/" style="fill-rule:evenodd;clip-rule:evenodd;stroke-linejoin:round;stroke-miterlimit:1.5;">
    <g id="Layer1">
        <rect x="0" y="0" width="30" height="380" style="fill:#909090;"/>
        <path d="M-0,25L30,25" style="fill:none;stroke:#ecedf1;stroke-width:0.83px;"/>
        <path d="M7.346,375.731C10.096,375.731 11.306,375.117 11.526,373.302L9.197,373.302C8.996,373.953 8.565,374.136 6.979,374.136L6.759,374.136C4.816,374.136 4.495,373.724 4.495,372.541L4.495,372.33C4.495,371.13 4.816,370.726 6.759,370.726L6.979,370.726C8.565,370.726 8.996,370.91 9.197,371.56L11.526,371.56C11.306,369.745 10.096,369.131 7.346,369.131L6.392,369.131C3.34,369.131 2.176,369.874 2.176,372.23L2.176,372.633C2.176,374.989 3.34,375.731 6.392,375.731L7.346,375.731Z" style="fill:#ecedf1;fill-rule:nonzero;"/>
        <path d="M19.748,373.925L14.743,373.925L14.743,369.223L12.47,369.223L12.47,375.64L19.748,375.64L19.748,373.925Z" style="fill:#ecedf1;fill-rule:nonzero;"/>
        <path d="M27.824,373.925L22.819,373.925L22.819,369.223L20.546,369.223L20.546,375.64L27.824,375.64L27.824,373.925Z" style="fill:#ecedf1;fill-rule:nonzero;"/>
        <path d="M8.669,19.507L8.978,16.773L4.927,16.773L6.12,6.507L3.322,6.507L1.819,19.507L8.669,19.507Z" style="fill:#ecedf1;fill-rule:nonzero;"/>
        <path d="M12.749,12.707C13.015,10.457 13.383,9.007 14.782,9.007L14.944,9.007C16.049,9.007 16.152,10.007 15.975,11.507L18.774,11.507L18.848,10.857C19.201,7.723 17.832,6.273 15.033,6.273C11.939,6.273 10.437,8.207 9.906,12.707L9.833,13.34C9.302,17.84 10.687,19.74 13.781,19.74C16.358,19.74 18.023,18.523 18.347,15.157L18.362,15.007L15.563,15.007C15.43,16.173 15.003,17.007 14.016,17.007L13.854,17.007C12.528,17.007 12.411,15.607 12.676,13.34L12.749,12.707Z" style="fill:#ecedf1;fill-rule:nonzero;"/>
        <path d="M24.888,19.507L29.13,6.507L26.125,6.507L23.385,15.84L22.811,6.507L19.82,6.507L21.058,19.507L24.888,19.507Z" style="fill:#ecedf1;fill-rule:nonzero;"/>
        <path d="M8.734,352.358C10.766,352.358 11.734,351.181 11.734,348.368L11.734,347.952C11.734,345.139 10.766,343.962 8.734,343.962C6.693,343.962 5.724,345.139 5.724,347.952L5.724,348.368C5.724,351.181 6.693,352.358 8.734,352.358ZM8.682,351.139C7.547,351.139 7.151,350.202 7.151,348.368L7.151,347.952C7.151,346.118 7.547,345.181 8.682,345.181L8.776,345.181C9.911,345.181 10.307,346.118 10.307,347.952L10.307,348.368C10.307,350.202 9.911,351.139 8.776,351.139L8.682,351.139Z" style="fill:#ecedf1;fill-rule:nonzero;"/>
        <path d="M15.609,352.358C17.661,352.358 18.432,351.493 18.432,349.67L18.432,344.098L17.036,344.098L17.036,349.618C17.036,350.691 16.651,351.139 15.609,351.139C14.557,351.139 14.172,350.691 14.172,349.618L14.172,344.098L12.776,344.098L12.776,349.67C12.776,351.493 13.547,352.358 15.609,352.358Z" style="fill:#ecedf1;fill-rule:nonzero;"/>
        <path d="M22.547,345.316L24.484,345.316L24.484,344.098L19.214,344.098L19.214,345.316L21.151,345.316L21.151,352.223L22.547,352.223L22.547,345.316Z" style="fill:#ecedf1;fill-rule:nonzero;"/>
        <path d="M22.999,147.156L22.974,148.163L22.974,150.575L23.812,150.575L23.812,145.7L22.58,145.7L21.537,149.125L20.499,145.7L19.268,145.7L19.268,150.575L20.105,150.575L20.105,148.163L20.08,147.156L21.118,150.575L21.955,150.575L22.999,147.156Z" style="fill:#ecedf1;fill-rule:nonzero;"/>
        <path d="M20.849,159C21.593,159.1 21.83,159.325 21.83,159.75L21.83,159.788C21.83,160.194 21.53,160.475 21.005,160.475L20.949,160.475C20.424,160.475 20.105,160.175 20.105,159.482L19.268,159.482L19.268,159.544C19.268,160.663 19.862,161.207 20.98,161.207C22.068,161.207 22.687,160.669 22.687,159.757L22.687,159.688C22.687,158.832 22.18,158.45 21.118,158.307C20.349,158.2 20.168,157.975 20.168,157.575L20.168,157.538C20.168,157.157 20.468,156.9 20.93,156.9L20.987,156.9C21.568,156.9 21.805,157.225 21.805,157.957L22.643,157.957L22.643,157.813C22.643,156.713 22.137,156.169 20.98,156.169C19.924,156.169 19.312,156.719 19.312,157.582L19.312,157.644C19.312,158.45 19.787,158.857 20.849,159Z" style="fill:#ecedf1;fill-rule:nonzero;"/>
        <path d="M29.122,142.3C29.122,140.755 27.867,139.5 26.322,139.5L3.922,139.5C2.376,139.5 1.122,140.755 1.122,142.3L1.122,164.7C1.122,166.245 2.376,167.5 3.922,167.5L26.322,167.5C27.867,167.5 29.122,166.245 29.122,164.7L29.122,142.3Z" style="fill:none;stroke:#ecedf1;stroke-width:0.63px;stroke-linecap:square;"/>
        <path d="M21.793,256.071L21.793,257.78L20.084,257.78L20.084,258.803L21.793,258.803L21.793,260.512L22.817,260.512L22.817,258.803L24.526,258.803L24.526,257.78L22.817,257.78L22.817,256.071L21.793,256.071Z" style="fill:#ecedf1;fill-rule:nonzero;"/>
        <g>
            <path d="M21.793,244.488L21.793,246.197L20.084,246.197L20.084,247.22L21.793,247.22L21.793,248.929L22.817,248.929L22.817,247.22L24.526,247.22L24.526,246.197L22.817,246.197L22.817,244.488L21.793,244.488Z" style="fill:#ecedf1;fill-rule:nonzero;"/>
            <rect x="20.084" y="250.012" width="4.442" height="0.989" style="fill:#ecedf1;fill-rule:nonzero;"/>
        </g>
        <path d="M29.122,241.3C29.122,239.755 27.867,238.5 26.322,238.5L3.922,238.5C2.376,238.5 1.122,239.755 1.122,241.3L1.122,263.7C1.122,265.245 2.376,266.5 3.922,266.5L26.322,266.5C27.867,266.5 29.122,265.245 29.122,263.7L29.122,241.3Z" style="fill:none;stroke:#ecedf1;stroke-width:0.63px;stroke-linecap:square;"/>
        <path d="M8.677,222.916C9.917,223.083 10.312,223.458 10.312,224.166L10.312,224.229C10.312,224.906 9.812,225.374 8.937,225.374L8.844,225.374C7.969,225.374 7.437,224.874 7.437,223.718L6.042,223.718L6.042,223.822C6.042,225.687 7.031,226.593 8.896,226.593C10.708,226.593 11.74,225.697 11.74,224.177L11.74,224.062C11.74,222.635 10.896,221.999 9.125,221.76C7.844,221.583 7.542,221.208 7.542,220.541L7.542,220.479C7.542,219.843 8.042,219.416 8.812,219.416L8.906,219.416C9.875,219.416 10.271,219.958 10.271,221.177L11.667,221.177L11.667,220.937C11.667,219.104 10.823,218.197 8.896,218.197C7.135,218.197 6.115,219.114 6.115,220.552L6.115,220.656C6.115,221.999 6.906,222.677 8.677,222.916Z" style="fill:#ecedf1;fill-rule:nonzero;"/>
        <path d="M14.01,222.604L14.01,222.187C14.01,220.354 14.385,219.416 15.542,219.416L15.635,219.416C16.625,219.416 16.948,220.093 16.948,221.385L18.354,221.385L18.354,221.031C18.354,219.052 17.417,218.197 15.552,218.197C13.521,218.197 12.583,219.374 12.583,222.187L12.583,222.604C12.583,225.416 13.521,226.593 15.552,226.593C17.417,226.593 18.354,225.739 18.354,223.822L18.354,223.718L16.948,223.718C16.948,224.739 16.583,225.374 15.635,225.374L15.542,225.374C14.375,225.374 14.01,224.437 14.01,222.604Z" style="fill:#ecedf1;fill-rule:nonzero;"/>
        <path d="M23.958,226.458L23.958,225.239L20.823,225.239L20.823,218.333L19.427,218.333L19.427,226.458L23.958,226.458Z" style="fill:#ecedf1;fill-rule:nonzero;"/>
        <g id="SmmCTR">
            <path d="M5.376,212.215C5.721,212.6 6.315,212.631 6.7,212.286C7.084,211.94 7.116,211.347 6.77,210.962C6.424,210.577 5.831,210.545 5.446,210.891C5.061,211.237 5.03,211.83 5.376,212.215Z" style="fill:#ecedf1;"/>
            <path d="M24.624,212.215C24.279,212.6 23.685,212.631 23.3,212.286C22.916,211.94 22.884,211.347 23.23,210.962C23.576,210.577 24.169,210.545 24.554,210.891C24.939,211.237 24.97,211.83 24.624,212.215Z" style="fill:#ecedf1;"/>
            <path d="M6.073,211.588C4.163,209.463 3,206.652 3,203.572C3,196.95 8.377,191.572 15,191.572C21.623,191.572 27,196.95 27,203.572C27,206.652 25.837,209.463 23.927,211.588" style="fill:none;stroke:#ecedf1;stroke-width:0.63px;stroke-linecap:square;"/>
            <path id="line87" d="M15,193.651L15,191.744" style="fill:none;fill-rule:nonzero;stroke:#ecedf1;stroke-width:0.63px;stroke-linecap:round;stroke-miterlimit:4;"/>
        </g>
    </g>
</svg>
