<?xml version="1.0" encoding="UTF-8" standalone="no"?>
<!DOCTYPE svg PUBLIC "-//W3C//DTD SVG 1.1//EN" "http://www.w3.org/Graphics/SVG/1.1/DTD/svg11.dtd">
<svg width="100%" height="100%" viewBox="0 0 135 380" version="1.1" xmlns="http://www.w3.org/2000/svg" xmlns:xlink="http://www.w3.org/1999/xlink" xml:space="preserve" xmlns:serif="http://www.serif.com/" style="fill-rule:evenodd;clip-rule:evenodd;stroke-linejoin:round;stroke-miterlimit:1.5;">
    <g id="Layer1">
        <rect x="0" y="0" width="135" height="380" style="fill:#909090;"/>
        <path d="M0,25L135,25" style="fill:none;stroke:#ecedf1;stroke-width:0.83px;"/>
        <path d="M55.13,349.147L56.318,349.147L57.484,352.179L58.995,352.179L57.672,348.929C58.411,348.637 58.995,348.001 58.995,346.699L58.995,346.491C58.995,344.429 57.547,344.054 56.276,344.054L53.734,344.054L53.734,352.179L55.13,352.179L55.13,349.147ZM55.13,347.929L55.13,345.272L56.328,345.272C56.87,345.272 57.578,345.47 57.578,346.543L57.578,346.658C57.578,347.731 56.87,347.929 56.328,347.929L55.13,347.929Z" style="fill:#ecedf1;fill-rule:nonzero;"/>
        <rect x="60.151" y="344.054" width="1.396" height="8.125" style="fill:#ecedf1;fill-rule:nonzero;"/>
        <path d="M65.839,352.314C67.214,352.314 68.016,351.856 68.568,351.366L68.568,347.908L65.995,347.908L65.995,349.116L67.172,349.116L67.172,350.689C66.901,350.908 66.464,351.095 65.891,351.095L65.797,351.095C64.516,351.095 64.12,350.158 64.12,348.324L64.12,347.908C64.12,346.074 64.526,345.137 65.724,345.137L65.818,345.137C66.839,345.137 67.172,345.814 67.172,347.106L68.568,347.106L68.568,346.751C68.568,344.772 67.599,343.918 65.734,343.918C63.703,343.918 62.693,345.095 62.693,347.908L62.693,348.324C62.693,351.137 63.703,352.314 65.839,352.314Z" style="fill:#ecedf1;fill-rule:nonzero;"/>
        <path d="M73.943,344.054L73.943,347.429L71.182,347.429L71.182,344.054L69.786,344.054L69.786,352.179L71.182,352.179L71.182,348.637L73.943,348.637L73.943,352.179L75.339,352.179L75.339,344.054L73.943,344.054Z" style="fill:#ecedf1;fill-rule:nonzero;"/>
        <path d="M79.505,345.272L81.443,345.272L81.443,344.054L76.172,344.054L76.172,345.272L78.109,345.272L78.109,352.179L79.505,352.179L79.505,345.272Z" style="fill:#ecedf1;fill-rule:nonzero;"/>
        <path d="M16.401,352.084L16.401,350.865L13.266,350.865L13.266,343.959L11.87,343.959L11.87,352.084L16.401,352.084Z" style="fill:#ecedf1;fill-rule:nonzero;"/>
        <path d="M17.193,343.959L17.193,352.084L22.026,352.084L22.026,350.865L18.589,350.865L18.589,348.542L21.505,348.542L21.505,347.334L18.589,347.334L18.589,345.178L22.026,345.178L22.026,343.959L17.193,343.959Z" style="fill:#ecedf1;fill-rule:nonzero;"/>
        <path d="M23.078,343.959L23.078,352.084L24.474,352.084L24.474,348.542L27.318,348.542L27.318,347.334L24.474,347.334L24.474,345.178L27.839,345.178L27.839,343.959L23.078,343.959Z" style="fill:#ecedf1;fill-rule:nonzero;"/>
        <path d="M31.578,345.178L33.516,345.178L33.516,343.959L28.245,343.959L28.245,345.178L30.182,345.178L30.182,352.084L31.578,352.084L31.578,345.178Z" style="fill:#ecedf1;fill-rule:nonzero;"/>
        <path d="M27.588,19.507L27.938,16.773L23.354,16.773L24.704,6.507L21.538,6.507L19.838,19.507L27.588,19.507Z" style="fill:#ecedf1;fill-rule:nonzero;"/>
        <path d="M34.788,6.273C31.288,6.273 29.588,8.207 28.988,12.707L28.904,13.34C28.304,17.84 29.871,19.74 33.371,19.74C36.871,19.74 38.554,17.807 39.154,13.307L39.238,12.673C39.838,8.173 38.288,6.273 34.788,6.273ZM33.454,17.007C31.954,17.007 31.821,15.607 32.121,13.34L32.204,12.707C32.504,10.44 33.004,9.007 34.504,9.007L34.688,9.007C36.188,9.007 36.321,10.407 36.021,12.673L35.938,13.307C35.638,15.573 35.138,17.007 33.638,17.007L33.454,17.007Z" style="fill:#ecedf1;fill-rule:nonzero;"/>
        <path d="M44.538,19.74C48.304,19.74 49.488,18.107 49.838,15.373L51.004,6.507L47.838,6.507L46.688,15.29C46.554,16.323 46.104,17.007 44.721,17.007C43.338,17.007 43.221,16.323 43.354,15.29L44.504,6.507L41.338,6.507L40.171,15.373C39.821,18.107 40.771,19.74 44.538,19.74Z" style="fill:#ecedf1;fill-rule:nonzero;"/>
        <path d="M61.554,12.673C62.154,8.173 60.754,6.507 56.671,6.507L52.588,6.507L50.888,19.507L55.138,19.507C59.221,19.507 60.871,17.807 61.471,13.307L61.554,12.673ZM54.404,16.773L55.404,9.24L56.154,9.24C58.321,9.24 58.638,10.423 58.338,12.673L58.254,13.307C57.954,15.557 57.488,16.773 55.321,16.773L54.404,16.773Z" style="fill:#ecedf1;fill-rule:nonzero;"/>
        <path d="M73.588,6.507L70.588,6.507L69.971,11.173L69.738,13.673L67.088,6.507L63.754,6.507L62.054,19.507L65.054,19.507L65.654,14.84L65.904,12.34L68.554,19.507L71.888,19.507L73.588,6.507Z" style="fill:#ecedf1;fill-rule:nonzero;"/>
        <path d="M75.254,6.507L73.554,19.507L81.721,19.507L82.071,16.773L77.071,16.773L77.404,14.24L81.571,14.24L81.938,11.507L77.771,11.507L78.071,9.24L83.071,9.24L83.421,6.507L75.254,6.507Z" style="fill:#ecedf1;fill-rule:nonzero;"/>
        <path d="M87.821,14.273C89.588,14.507 89.904,15.023 89.838,15.673L89.821,15.84C89.754,16.473 89.271,17.007 88.188,17.007L88.021,17.007C86.938,17.007 86.454,16.44 86.638,15.007L83.471,15.007L83.438,15.273C83.054,18.29 84.688,19.74 87.854,19.74C90.921,19.74 92.754,18.44 93.021,15.99L93.054,15.69C93.338,13.207 92.104,12.107 89.321,11.723C87.604,11.49 87.321,11.04 87.388,10.34L87.404,10.173C87.471,9.523 88.004,9.007 88.921,9.007L89.088,9.007C90.254,9.007 90.588,9.707 90.388,11.173L93.554,11.173L93.604,10.773C93.971,7.807 92.621,6.273 89.371,6.273C86.121,6.273 84.438,7.84 84.188,10.14L84.154,10.44C83.888,12.79 85.038,13.907 87.821,14.273Z" style="fill:#ecedf1;fill-rule:nonzero;"/>
        <path d="M98.488,14.273C100.254,14.507 100.571,15.023 100.504,15.673L100.488,15.84C100.421,16.473 99.938,17.007 98.854,17.007L98.688,17.007C97.604,17.007 97.121,16.44 97.304,15.007L94.138,15.007L94.104,15.273C93.721,18.29 95.354,19.74 98.521,19.74C101.588,19.74 103.421,18.44 103.688,15.99L103.721,15.69C104.004,13.207 102.771,12.107 99.988,11.723C98.271,11.49 97.988,11.04 98.054,10.34L98.071,10.173C98.138,9.523 98.671,9.007 99.588,9.007L99.754,9.007C100.921,9.007 101.254,9.707 101.054,11.173L104.221,11.173L104.271,10.773C104.638,7.807 103.288,6.273 100.038,6.273C96.788,6.273 95.104,7.84 94.854,10.14L94.821,10.44C94.554,12.79 95.704,13.907 98.488,14.273Z" style="fill:#ecedf1;fill-rule:nonzero;"/>
        <path d="M49.827,375.731C52.577,375.731 53.787,375.117 54.007,373.302L51.678,373.302C51.477,373.953 51.046,374.136 49.46,374.136L49.24,374.136C47.297,374.136 46.976,373.724 46.976,372.541L46.976,372.33C46.976,371.13 47.297,370.726 49.24,370.726L49.46,370.726C51.046,370.726 51.477,370.91 51.678,371.56L54.007,371.56C53.787,369.745 52.577,369.131 49.827,369.131L48.873,369.131C45.821,369.131 44.657,369.874 44.657,372.23L44.657,372.633C44.657,374.989 45.821,375.731 48.873,375.731L49.827,375.731Z" style="fill:#ecedf1;fill-rule:nonzero;"/>
        <path d="M62.633,374.127L57.224,374.127L57.224,373.183L62.633,373.183L62.633,371.67L57.224,371.67L57.224,370.735L62.633,370.735L62.633,369.223L54.951,369.223L54.951,375.64L62.633,375.64L62.633,374.127Z" style="fill:#ecedf1;fill-rule:nonzero;"/>
        <path d="M71.02,373.925L66.015,373.925L66.015,369.223L63.742,369.223L63.742,375.64L71.02,375.64L71.02,373.925Z" style="fill:#ecedf1;fill-rule:nonzero;"/>
        <path d="M79.096,373.925L74.091,373.925L74.091,369.223L71.818,369.223L71.818,375.64L79.096,375.64L79.096,373.925Z" style="fill:#ecedf1;fill-rule:nonzero;"/>
        <path d="M86.594,369.223L83.111,369.223L79.362,375.64L81.873,375.64L82.598,374.365L87.016,374.365L87.749,375.64L90.343,375.64L86.594,369.223ZM84.853,370.58L86.154,372.853L83.459,372.853L84.77,370.58L84.853,370.58Z" style="fill:#ecedf1;fill-rule:nonzero;"/>
        <path d="M99.177,349.283L100.365,349.283L101.531,352.314L103.042,352.314L101.719,349.064C102.458,348.772 103.042,348.137 103.042,346.835L103.042,346.626C103.042,344.564 101.594,344.189 100.323,344.189L97.781,344.189L97.781,352.314L99.177,352.314L99.177,349.283ZM99.177,348.064L99.177,345.408L100.375,345.408C100.917,345.408 101.625,345.606 101.625,346.679L101.625,346.793C101.625,347.866 100.917,348.064 100.375,348.064L99.177,348.064Z" style="fill:#ecedf1;fill-rule:nonzero;"/>
        <path d="M104.146,344.189L104.146,352.314L108.979,352.314L108.979,351.095L105.542,351.095L105.542,348.772L108.458,348.772L108.458,347.564L105.542,347.564L105.542,345.408L108.979,345.408L108.979,344.189L104.146,344.189Z" style="fill:#ecedf1;fill-rule:nonzero;"/>
        <path d="M112.417,348.772C113.656,348.939 114.052,349.314 114.052,350.022L114.052,350.085C114.052,350.762 113.552,351.231 112.677,351.231L112.583,351.231C111.708,351.231 111.177,350.731 111.177,349.574L109.781,349.574L109.781,349.679C109.781,351.543 110.771,352.449 112.635,352.449C114.448,352.449 115.479,351.554 115.479,350.033L115.479,349.918C115.479,348.491 114.635,347.856 112.865,347.616C111.583,347.439 111.281,347.064 111.281,346.397L111.281,346.335C111.281,345.699 111.781,345.272 112.552,345.272L112.646,345.272C113.615,345.272 114.01,345.814 114.01,347.033L115.406,347.033L115.406,346.793C115.406,344.96 114.563,344.054 112.635,344.054C110.875,344.054 109.854,344.97 109.854,346.408L109.854,346.512C109.854,347.856 110.646,348.533 112.417,348.772Z" style="fill:#ecedf1;fill-rule:nonzero;"/>
        <path d="M116.5,344.189L116.5,352.314L121.333,352.314L121.333,351.095L117.896,351.095L117.896,348.772L120.813,348.772L120.813,347.564L117.896,347.564L117.896,345.408L121.333,345.408L121.333,344.189L116.5,344.189Z" style="fill:#ecedf1;fill-rule:nonzero;"/>
        <path d="M125.281,345.408L127.219,345.408L127.219,344.189L121.948,344.189L121.948,345.408L123.885,345.408L123.885,352.314L125.281,352.314L125.281,345.408Z" style="fill:#ecedf1;fill-rule:nonzero;"/>
        <path d="M121.5,1.793C127.41,1.793 132.207,6.59 132.207,12.5C132.207,18.41 127.41,23.207 121.5,23.207C115.59,23.207 110.793,18.41 110.793,12.5C110.793,6.59 115.59,1.793 121.5,1.793ZM121.5,2.423C115.938,2.423 111.423,6.938 111.423,12.5C111.423,18.062 115.938,22.577 121.5,22.577C127.062,22.577 131.577,18.062 131.577,12.5C131.577,6.938 127.062,2.423 121.5,2.423Z" style="fill:#ecedf1;"/>
    </g>
</svg>
