<?xml version="1.0" encoding="UTF-8" standalone="no"?>
<!DOCTYPE svg PUBLIC "-//W3C//DTD SVG 1.1//EN" "http://www.w3.org/Graphics/SVG/1.1/DTD/svg11.dtd">
<svg width="100%" height="100%" viewBox="0 0 225 380" version="1.1" xmlns="http://www.w3.org/2000/svg" xmlns:xlink="http://www.w3.org/1999/xlink" xml:space="preserve" xmlns:serif="http://www.serif.com/" style="fill-rule:evenodd;clip-rule:evenodd;stroke-linejoin:round;stroke-miterlimit:1.5;">
    <g id="Layer1">
        <rect x="-0" y="0" width="225" height="380" style="fill:#909090;"/>
        <path d="M0,25L225,25" style="fill:none;stroke:#ecedf1;stroke-width:0.83px;"/>
        <path d="M92.721,6.507L91.021,19.507L94.187,19.507L94.871,14.24L99.037,14.24L99.404,11.507L95.237,11.507L95.537,9.24L100.537,9.24L100.887,6.507L92.721,6.507Z" style="fill:#ecedf1;fill-rule:nonzero;"/>
        <path d="M106.754,6.273C103.254,6.273 101.554,8.207 100.954,12.707L100.871,13.34C100.271,17.84 101.837,19.74 105.337,19.74C108.837,19.74 110.521,17.807 111.121,13.307L111.204,12.673C111.804,8.173 110.254,6.273 106.754,6.273ZM105.421,17.007C103.921,17.007 103.787,15.607 104.087,13.34L104.171,12.707C104.471,10.44 104.971,9.007 106.471,9.007L106.654,9.007C108.154,9.007 108.287,10.407 107.987,12.673L107.904,13.307C107.604,15.573 107.104,17.007 105.604,17.007L105.421,17.007Z" style="fill:#ecedf1;fill-rule:nonzero;"/>
        <path d="M116.504,19.74C120.271,19.74 121.454,18.107 121.804,15.373L122.971,6.507L119.804,6.507L118.654,15.29C118.521,16.323 118.071,17.007 116.687,17.007C115.304,17.007 115.187,16.323 115.321,15.29L116.471,6.507L113.304,6.507L112.137,15.373C111.787,18.107 112.737,19.74 116.504,19.74Z" style="fill:#ecedf1;fill-rule:nonzero;"/>
        <path d="M126.954,12.307L127.371,9.24L128.821,9.24C129.437,9.24 130.087,9.44 129.971,10.673L129.954,10.857C129.837,12.057 129.021,12.307 128.404,12.307L126.954,12.307ZM126.604,15.04L127.487,15.04L128.604,19.507L132.021,19.507L130.637,14.607C131.854,14.107 132.854,13.057 133.137,10.94L133.187,10.573C133.671,6.973 131.237,6.507 129.037,6.507L124.554,6.507L122.854,19.507L126.021,19.507L126.604,15.04Z" style="fill:#ecedf1;fill-rule:nonzero;"/>
        <path d="M94.827,375.731C97.577,375.731 98.787,375.117 99.007,373.302L96.678,373.302C96.477,373.953 96.046,374.136 94.46,374.136L94.24,374.136C92.297,374.136 91.976,373.724 91.976,372.541L91.976,372.33C91.976,371.13 92.297,370.726 94.24,370.726L94.46,370.726C96.046,370.726 96.477,370.91 96.678,371.56L99.007,371.56C98.787,369.745 97.577,369.131 94.827,369.131L93.873,369.131C90.821,369.131 89.657,369.874 89.657,372.23L89.657,372.633C89.657,374.989 90.821,375.731 93.873,375.731L94.827,375.731Z" style="fill:#ecedf1;fill-rule:nonzero;"/>
        <path d="M107.633,374.127L102.224,374.127L102.224,373.183L107.633,373.183L107.633,371.67L102.224,371.67L102.224,370.735L107.633,370.735L107.633,369.223L99.951,369.223L99.951,375.64L107.633,375.64L107.633,374.127Z" style="fill:#ecedf1;fill-rule:nonzero;"/>
        <path d="M116.02,373.925L111.015,373.925L111.015,369.223L108.742,369.223L108.742,375.64L116.02,375.64L116.02,373.925Z" style="fill:#ecedf1;fill-rule:nonzero;"/>
        <path d="M124.096,373.925L119.091,373.925L119.091,369.223L116.818,369.223L116.818,375.64L124.096,375.64L124.096,373.925Z" style="fill:#ecedf1;fill-rule:nonzero;"/>
        <path d="M131.594,369.223L128.111,369.223L124.362,375.64L126.873,375.64L127.598,374.365L132.016,374.365L132.749,375.64L135.343,375.64L131.594,369.223ZM129.853,370.58L131.154,372.853L128.459,372.853L129.77,370.58L129.853,370.58Z" style="fill:#ecedf1;fill-rule:nonzero;"/>
    </g>
</svg>
