<?xml version="1.0" encoding="UTF-8" standalone="no"?>
<!DOCTYPE svg PUBLIC "-//W3C//DTD SVG 1.1//EN" "http://www.w3.org/Graphics/SVG/1.1/DTD/svg11.dtd">
<svg width="100%" height="100%" viewBox="0 0 225 380" version="1.1" xmlns="http://www.w3.org/2000/svg" xmlns:xlink="http://www.w3.org/1999/xlink" xml:space="preserve" xmlns:serif="http://www.serif.com/" style="fill-rule:evenodd;clip-rule:evenodd;stroke-linejoin:round;stroke-miterlimit:1.5;">
    <g id="Layer1">
        <rect x="-0" y="0" width="225" height="380" style="fill:#252626;"/>
        <path d="M0,25L225,25" style="fill:none;stroke:#f7c5ad;stroke-width:0.83px;"/>
        <path d="M55.13,349.147L56.318,349.147L57.484,352.179L58.995,352.179L57.672,348.929C58.411,348.637 58.995,348.001 58.995,346.699L58.995,346.491C58.995,344.429 57.547,344.054 56.276,344.054L53.734,344.054L53.734,352.179L55.13,352.179L55.13,349.147ZM55.13,347.929L55.13,345.272L56.328,345.272C56.87,345.272 57.578,345.47 57.578,346.543L57.578,346.658C57.578,347.731 56.87,347.929 56.328,347.929L55.13,347.929Z" style="fill:#f7c5ad;fill-rule:nonzero;"/>
        <rect x="60.151" y="344.054" width="1.396" height="8.125" style="fill:#f7c5ad;fill-rule:nonzero;"/>
        <path d="M65.839,352.314C67.214,352.314 68.016,351.856 68.568,351.366L68.568,347.908L65.995,347.908L65.995,349.116L67.172,349.116L67.172,350.689C66.901,350.908 66.464,351.095 65.891,351.095L65.797,351.095C64.516,351.095 64.12,350.158 64.12,348.324L64.12,347.908C64.12,346.074 64.526,345.137 65.724,345.137L65.818,345.137C66.839,345.137 67.172,345.814 67.172,347.106L68.568,347.106L68.568,346.751C68.568,344.772 67.599,343.918 65.734,343.918C63.703,343.918 62.693,345.095 62.693,347.908L62.693,348.324C62.693,351.137 63.703,352.314 65.839,352.314Z" style="fill:#f7c5ad;fill-rule:nonzero;"/>
        <path d="M73.943,344.054L73.943,347.429L71.182,347.429L71.182,344.054L69.786,344.054L69.786,352.179L71.182,352.179L71.182,348.637L73.943,348.637L73.943,352.179L75.339,352.179L75.339,344.054L73.943,344.054Z" style="fill:#f7c5ad;fill-rule:nonzero;"/>
        <path d="M79.505,345.272L81.443,345.272L81.443,344.054L76.172,344.054L76.172,345.272L78.109,345.272L78.109,352.179L79.505,352.179L79.505,345.272Z" style="fill:#f7c5ad;fill-rule:nonzero;"/>
        <path d="M99.307,349.283L100.495,349.283L101.661,352.314L103.172,352.314L101.849,349.064C102.589,348.772 103.172,348.137 103.172,346.835L103.172,346.626C103.172,344.564 101.724,344.189 100.453,344.189L97.911,344.189L97.911,352.314L99.307,352.314L99.307,349.283ZM99.307,348.064L99.307,345.408L100.505,345.408C101.047,345.408 101.755,345.606 101.755,346.679L101.755,346.793C101.755,347.866 101.047,348.064 100.505,348.064L99.307,348.064Z" style="fill:#f7c5ad;fill-rule:nonzero;"/>
        <path d="M104.276,344.189L104.276,352.314L109.109,352.314L109.109,351.095L105.672,351.095L105.672,348.772L108.589,348.772L108.589,347.564L105.672,347.564L105.672,345.408L109.109,345.408L109.109,344.189L104.276,344.189Z" style="fill:#f7c5ad;fill-rule:nonzero;"/>
        <path d="M112.547,348.772C113.786,348.939 114.182,349.314 114.182,350.022L114.182,350.085C114.182,350.762 113.682,351.231 112.807,351.231L112.714,351.231C111.839,351.231 111.307,350.731 111.307,349.574L109.911,349.574L109.911,349.679C109.911,351.543 110.901,352.449 112.766,352.449C114.578,352.449 115.609,351.554 115.609,350.033L115.609,349.918C115.609,348.491 114.766,347.856 112.995,347.616C111.714,347.439 111.411,347.064 111.411,346.397L111.411,346.335C111.411,345.699 111.911,345.272 112.682,345.272L112.776,345.272C113.745,345.272 114.141,345.814 114.141,347.033L115.536,347.033L115.536,346.793C115.536,344.96 114.693,344.054 112.766,344.054C111.005,344.054 109.984,344.97 109.984,346.408L109.984,346.512C109.984,347.856 110.776,348.533 112.547,348.772Z" style="fill:#f7c5ad;fill-rule:nonzero;"/>
        <path d="M116.63,344.189L116.63,352.314L121.464,352.314L121.464,351.095L118.026,351.095L118.026,348.772L120.943,348.772L120.943,347.564L118.026,347.564L118.026,345.408L121.464,345.408L121.464,344.189L116.63,344.189Z" style="fill:#f7c5ad;fill-rule:nonzero;"/>
        <path d="M125.411,345.408L127.349,345.408L127.349,344.189L122.078,344.189L122.078,345.408L124.016,345.408L124.016,352.314L125.411,352.314L125.411,345.408Z" style="fill:#f7c5ad;fill-rule:nonzero;"/>
        <path d="M16.401,352.084L16.401,350.865L13.266,350.865L13.266,343.959L11.87,343.959L11.87,352.084L16.401,352.084Z" style="fill:#f7c5ad;fill-rule:nonzero;"/>
        <path d="M17.193,343.959L17.193,352.084L22.026,352.084L22.026,350.865L18.589,350.865L18.589,348.542L21.505,348.542L21.505,347.334L18.589,347.334L18.589,345.178L22.026,345.178L22.026,343.959L17.193,343.959Z" style="fill:#f7c5ad;fill-rule:nonzero;"/>
        <path d="M23.078,343.959L23.078,352.084L24.474,352.084L24.474,348.542L27.318,348.542L27.318,347.334L24.474,347.334L24.474,345.178L27.839,345.178L27.839,343.959L23.078,343.959Z" style="fill:#f7c5ad;fill-rule:nonzero;"/>
        <path d="M31.578,345.178L33.516,345.178L33.516,343.959L28.245,343.959L28.245,345.178L30.182,345.178L30.182,352.084L31.578,352.084L31.578,345.178Z" style="fill:#f7c5ad;fill-rule:nonzero;"/>
        <path d="M48.829,19.507L49.179,16.773L44.596,16.773L45.946,6.507L42.779,6.507L41.079,19.507L48.829,19.507Z" style="fill:#f7c5ad;fill-rule:nonzero;"/>
        <path d="M56.029,6.273C52.529,6.273 50.829,8.207 50.229,12.707L50.146,13.34C49.546,17.84 51.112,19.74 54.612,19.74C58.112,19.74 59.796,17.807 60.396,13.307L60.479,12.673C61.079,8.173 59.529,6.273 56.029,6.273ZM54.696,17.007C53.196,17.007 53.062,15.607 53.362,13.34L53.446,12.707C53.746,10.44 54.246,9.007 55.746,9.007L55.929,9.007C57.429,9.007 57.562,10.407 57.262,12.673L57.179,13.307C56.879,15.573 56.379,17.007 54.879,17.007L54.696,17.007Z" style="fill:#f7c5ad;fill-rule:nonzero;"/>
        <path d="M65.779,19.74C69.546,19.74 70.729,18.107 71.079,15.373L72.246,6.507L69.079,6.507L67.929,15.29C67.796,16.323 67.346,17.007 65.962,17.007C64.579,17.007 64.462,16.323 64.596,15.29L65.746,6.507L62.579,6.507L61.412,15.373C61.062,18.107 62.012,19.74 65.779,19.74Z" style="fill:#f7c5ad;fill-rule:nonzero;"/>
        <path d="M82.796,12.673C83.396,8.173 81.996,6.507 77.912,6.507L73.829,6.507L72.129,19.507L76.379,19.507C80.462,19.507 82.112,17.807 82.712,13.307L82.796,12.673ZM75.646,16.773L76.646,9.24L77.396,9.24C79.562,9.24 79.879,10.423 79.579,12.673L79.496,13.307C79.196,15.557 78.729,16.773 76.562,16.773L75.646,16.773Z" style="fill:#f7c5ad;fill-rule:nonzero;"/>
        <path d="M94.829,6.507L91.829,6.507L91.212,11.173L90.979,13.673L88.329,6.507L84.996,6.507L83.296,19.507L86.296,19.507L86.896,14.84L87.146,12.34L89.796,19.507L93.129,19.507L94.829,6.507Z" style="fill:#f7c5ad;fill-rule:nonzero;"/>
        <path d="M96.496,6.507L94.796,19.507L102.962,19.507L103.312,16.773L98.312,16.773L98.646,14.24L102.812,14.24L103.179,11.507L99.012,11.507L99.312,9.24L104.312,9.24L104.662,6.507L96.496,6.507Z" style="fill:#f7c5ad;fill-rule:nonzero;"/>
        <path d="M109.062,14.273C110.829,14.507 111.146,15.023 111.079,15.673L111.062,15.84C110.996,16.473 110.512,17.007 109.429,17.007L109.262,17.007C108.179,17.007 107.696,16.44 107.879,15.007L104.712,15.007L104.679,15.273C104.296,18.29 105.929,19.74 109.096,19.74C112.162,19.74 113.996,18.44 114.262,15.99L114.296,15.69C114.579,13.207 113.346,12.107 110.562,11.723C108.846,11.49 108.562,11.04 108.629,10.34L108.646,10.173C108.712,9.523 109.246,9.007 110.162,9.007L110.329,9.007C111.496,9.007 111.829,9.707 111.629,11.173L114.796,11.173L114.846,10.773C115.212,7.807 113.862,6.273 110.612,6.273C107.362,6.273 105.679,7.84 105.429,10.14L105.396,10.44C105.129,12.79 106.279,13.907 109.062,14.273Z" style="fill:#f7c5ad;fill-rule:nonzero;"/>
        <path d="M119.729,14.273C121.496,14.507 121.812,15.023 121.746,15.673L121.729,15.84C121.662,16.473 121.179,17.007 120.096,17.007L119.929,17.007C118.846,17.007 118.362,16.44 118.546,15.007L115.379,15.007L115.346,15.273C114.962,18.29 116.596,19.74 119.762,19.74C122.829,19.74 124.662,18.44 124.929,15.99L124.962,15.69C125.246,13.207 124.012,12.107 121.229,11.723C119.512,11.49 119.229,11.04 119.296,10.34L119.312,10.173C119.379,9.523 119.912,9.007 120.829,9.007L120.996,9.007C122.162,9.007 122.496,9.707 122.296,11.173L125.462,11.173L125.512,10.773C125.879,7.807 124.529,6.273 121.279,6.273C118.029,6.273 116.346,7.84 116.096,10.14L116.062,10.44C115.796,12.79 116.946,13.907 119.729,14.273Z" style="fill:#f7c5ad;fill-rule:nonzero;"/>
        <path d="M140.196,12.007L139.779,14.507L139.129,19.507L142.296,19.507L143.996,6.507L139.279,6.507L136.429,14.007L135.546,6.507L130.829,6.507L129.129,19.507L132.296,19.507L132.946,14.507L133.196,12.007L134.079,19.507L137.346,19.507L140.196,12.007Z" style="fill:#f7c5ad;fill-rule:nonzero;"/>
        <path d="M145.662,6.507L143.962,19.507L152.129,19.507L152.479,16.773L147.479,16.773L147.812,14.24L151.979,14.24L152.346,11.507L148.179,11.507L148.479,9.24L153.479,9.24L153.829,6.507L145.662,6.507Z" style="fill:#f7c5ad;fill-rule:nonzero;"/>
        <path d="M160.479,9.24L163.396,9.24L163.746,6.507L154.746,6.507L154.396,9.24L157.312,9.24L155.962,19.507L159.129,19.507L160.479,9.24Z" style="fill:#f7c5ad;fill-rule:nonzero;"/>
        <path d="M164.829,6.507L163.129,19.507L171.296,19.507L171.646,16.773L166.646,16.773L166.979,14.24L171.146,14.24L171.512,11.507L167.346,11.507L167.646,9.24L172.646,9.24L172.996,6.507L164.829,6.507Z" style="fill:#f7c5ad;fill-rule:nonzero;"/>
        <path d="M176.896,12.307L177.312,9.24L178.762,9.24C179.379,9.24 180.029,9.44 179.912,10.673L179.896,10.857C179.779,12.057 178.962,12.307 178.346,12.307L176.896,12.307ZM176.546,15.04L177.429,15.04L178.546,19.507L181.962,19.507L180.579,14.607C181.796,14.107 182.796,13.057 183.079,10.94L183.129,10.573C183.612,6.973 181.179,6.507 178.979,6.507L174.496,6.507L172.796,19.507L175.962,19.507L176.546,15.04Z" style="fill:#f7c5ad;fill-rule:nonzero;"/>
        <path d="M94.827,375.731C97.577,375.731 98.787,375.117 99.007,373.302L96.678,373.302C96.477,373.953 96.046,374.136 94.46,374.136L94.24,374.136C92.297,374.136 91.976,373.724 91.976,372.541L91.976,372.33C91.976,371.13 92.297,370.726 94.24,370.726L94.46,370.726C96.046,370.726 96.477,370.91 96.678,371.56L99.007,371.56C98.787,369.745 97.577,369.131 94.827,369.131L93.873,369.131C90.821,369.131 89.657,369.874 89.657,372.23L89.657,372.633C89.657,374.989 90.821,375.731 93.873,375.731L94.827,375.731Z" style="fill:#f7c5ad;fill-rule:nonzero;"/>
        <path d="M107.633,374.127L102.224,374.127L102.224,373.183L107.633,373.183L107.633,371.67L102.224,371.67L102.224,370.735L107.633,370.735L107.633,369.223L99.951,369.223L99.951,375.64L107.633,375.64L107.633,374.127Z" style="fill:#f7c5ad;fill-rule:nonzero;"/>
        <path d="M116.02,373.925L111.015,373.925L111.015,369.223L108.742,369.223L108.742,375.64L116.02,375.64L116.02,373.925Z" style="fill:#f7c5ad;fill-rule:nonzero;"/>
        <path d="M124.096,373.925L119.091,373.925L119.091,369.223L116.818,369.223L116.818,375.64L124.096,375.64L124.096,373.925Z" style="fill:#f7c5ad;fill-rule:nonzero;"/>
        <path d="M131.594,369.223L128.111,369.223L124.362,375.64L126.873,375.64L127.598,374.365L132.016,374.365L132.749,375.64L135.343,375.64L131.594,369.223ZM129.853,370.58L131.154,372.853L128.459,372.853L129.77,370.58L129.853,370.58Z" style="fill:#f7c5ad;fill-rule:nonzero;"/>
    </g>
</svg>
