<?xml version="1.0" encoding="UTF-8" standalone="no"?>
<!DOCTYPE svg PUBLIC "-//W3C//DTD SVG 1.1//EN" "http://www.w3.org/Graphics/SVG/1.1/DTD/svg11.dtd">
<svg width="100%" height="100%" viewBox="0 0 180 380" version="1.1" xmlns="http://www.w3.org/2000/svg" xmlns:xlink="http://www.w3.org/1999/xlink" xml:space="preserve" xmlns:serif="http://www.serif.com/" style="fill-rule:evenodd;clip-rule:evenodd;stroke-linejoin:round;stroke-miterlimit:1.5;">
    <g id="Layer1">
        <rect x="-0" y="0" width="180" height="380" style="fill:#252626;"/>
        <path d="M173.25,317.8C173.25,316.255 171.995,315 170.45,315L144.55,315C143.005,315 141.75,316.255 141.75,317.8L141.75,352.2C141.75,353.745 143.005,355 144.55,355L170.45,355C171.995,355 173.25,353.745 173.25,352.2L173.25,317.8Z" style="fill:#79305a;"/>
        <path d="M0,25L180,25" style="fill:none;stroke:#f7c5ad;stroke-width:0.83px;"/>
        <path d="M151.13,352.355C153.161,352.355 154.13,351.178 154.13,348.365L154.13,347.949C154.13,345.136 153.161,343.959 151.13,343.959C149.089,343.959 148.12,345.136 148.12,347.949L148.12,348.365C148.12,351.178 149.089,352.355 151.13,352.355ZM151.078,351.136C149.943,351.136 149.547,350.199 149.547,348.365L149.547,347.949C149.547,346.115 149.943,345.178 151.078,345.178L151.172,345.178C152.307,345.178 152.703,346.115 152.703,347.949L152.703,348.365C152.703,350.199 152.307,351.136 151.172,351.136L151.078,351.136Z" style="fill:#f7c5ad;fill-rule:nonzero;"/>
        <path d="M158.005,352.355C160.057,352.355 160.828,351.49 160.828,349.667L160.828,344.094L159.432,344.094L159.432,349.615C159.432,350.688 159.047,351.136 158.005,351.136C156.953,351.136 156.568,350.688 156.568,349.615L156.568,344.094L155.172,344.094L155.172,349.667C155.172,351.49 155.943,352.355 158.005,352.355Z" style="fill:#f7c5ad;fill-rule:nonzero;"/>
        <path d="M164.943,345.313L166.88,345.313L166.88,344.094L161.609,344.094L161.609,345.313L163.547,345.313L163.547,352.219L164.943,352.219L164.943,345.313Z" style="fill:#f7c5ad;fill-rule:nonzero;"/>
        <path d="M128.25,317.8C128.25,316.255 126.995,315 125.45,315L99.55,315C98.005,315 96.75,316.255 96.75,317.8L96.75,352.2C96.75,353.745 98.005,355 99.55,355L125.45,355C126.995,355 128.25,353.745 128.25,352.2L128.25,317.8Z" style="fill:#79305a;"/>
        <path d="M108.021,352.261L109.833,352.261L111.229,344.094L109.771,344.094L108.844,350.386L107.562,344.094L105.802,344.094L104.531,350.386L103.604,344.094L102.146,344.094L103.542,352.261L105.344,352.261L106.687,345.678L108.021,352.261Z" style="fill:#f7c5ad;fill-rule:nonzero;"/>
        <path d="M112.135,344.094L112.135,352.219L116.969,352.219L116.969,351.001L113.531,351.001L113.531,348.678L116.448,348.678L116.448,347.469L113.531,347.469L113.531,345.313L116.969,345.313L116.969,344.094L112.135,344.094Z" style="fill:#f7c5ad;fill-rule:nonzero;"/>
        <path d="M120.917,345.313L122.854,345.313L122.854,344.094L117.583,344.094L117.583,345.313L119.521,345.313L119.521,352.219L120.917,352.219L120.917,345.313Z" style="fill:#f7c5ad;fill-rule:nonzero;"/>
        <path d="M99.827,320.178L100.515,320.178C101.277,320.178 102.146,319.953 102.146,318.71L102.146,318.585C102.146,317.347 101.277,317.122 100.515,317.122L98.99,317.122L98.99,321.997L99.827,321.997L99.827,320.178ZM99.827,319.447L99.827,317.853L100.546,317.853C100.871,317.853 101.296,317.972 101.296,318.616L101.296,318.685C101.296,319.328 100.871,319.447 100.546,319.447L99.827,319.447Z" style="fill:#f7c5ad;fill-rule:nonzero;"/>
        <path d="M155.026,247.638L154.984,249.316L154.984,253.336L156.38,253.336L156.38,245.211L154.328,245.211L152.589,250.92L150.859,245.211L148.807,245.211L148.807,253.336L150.203,253.336L150.203,249.316L150.161,247.638L151.891,253.336L153.286,253.336L155.026,247.638Z" style="fill:#f7c5ad;fill-rule:nonzero;"/>
        <rect x="157.703" y="245.211" width="1.396" height="8.125" style="fill:#f7c5ad;fill-rule:nonzero;"/>
        <path d="M160.016,253.336L161.578,253.336L163.099,250.086L164.641,253.336L166.193,253.336L164.099,249.107L166.193,245.211L164.568,245.211L163.109,248.138L161.641,245.211L160.016,245.211L162.109,249.118L160.016,253.336Z" style="fill:#f7c5ad;fill-rule:nonzero;"/>
        <path d="M53.375,249.347L53.375,248.93C53.375,247.097 53.75,246.159 54.906,246.159L55,246.159C55.99,246.159 56.313,246.836 56.313,248.128L57.719,248.128L57.719,247.774C57.719,245.795 56.781,244.941 54.917,244.941C52.885,244.941 51.948,246.118 51.948,248.93L51.948,249.347C51.948,252.159 52.885,253.336 54.917,253.336C56.781,253.336 57.719,252.482 57.719,250.566L57.719,250.461L56.313,250.461C56.313,251.482 55.948,252.118 55,252.118L54.906,252.118C53.74,252.118 53.375,251.18 53.375,249.347Z" style="fill:#f7c5ad;fill-rule:nonzero;"/>
        <path d="M61.625,253.336C63.656,253.336 64.625,252.159 64.625,249.347L64.625,248.93C64.625,246.118 63.656,244.941 61.625,244.941C59.583,244.941 58.615,246.118 58.615,248.93L58.615,249.347C58.615,252.159 59.583,253.336 61.625,253.336ZM61.573,252.118C60.438,252.118 60.042,251.18 60.042,249.347L60.042,248.93C60.042,247.097 60.438,246.159 61.573,246.159L61.667,246.159C62.802,246.159 63.198,247.097 63.198,248.93L63.198,249.347C63.198,251.18 62.802,252.118 61.667,252.118L61.573,252.118Z" style="fill:#f7c5ad;fill-rule:nonzero;"/>
        <path d="M70.25,253.201L70.25,251.982L67.115,251.982L67.115,245.076L65.719,245.076L65.719,253.201L70.25,253.201Z" style="fill:#f7c5ad;fill-rule:nonzero;"/>
        <path d="M73.698,253.336C75.729,253.336 76.698,252.159 76.698,249.347L76.698,248.93C76.698,246.118 75.729,244.941 73.698,244.941C71.656,244.941 70.688,246.118 70.688,248.93L70.688,249.347C70.688,252.159 71.656,253.336 73.698,253.336ZM73.646,252.118C72.51,252.118 72.115,251.18 72.115,249.347L72.115,248.93C72.115,247.097 72.51,246.159 73.646,246.159L73.74,246.159C74.875,246.159 75.271,247.097 75.271,248.93L75.271,249.347C75.271,251.18 74.875,252.118 73.74,252.118L73.646,252.118Z" style="fill:#f7c5ad;fill-rule:nonzero;"/>
        <path d="M79.188,250.17L80.375,250.17L81.542,253.201L83.052,253.201L81.729,249.951C82.469,249.659 83.052,249.024 83.052,247.722L83.052,247.513C83.052,245.451 81.604,245.076 80.333,245.076L77.792,245.076L77.792,253.201L79.188,253.201L79.188,250.17ZM79.188,248.951L79.188,246.295L80.385,246.295C80.927,246.295 81.635,246.493 81.635,247.566L81.635,247.68C81.635,248.753 80.927,248.951 80.385,248.951L79.188,248.951Z" style="fill:#f7c5ad;fill-rule:nonzero;"/>
        <path d="M12.76,249.347L12.76,248.93C12.76,246.118 11.708,245.076 9.427,245.076L7.031,245.076L7.031,253.201L9.427,253.201C11.708,253.201 12.76,252.159 12.76,249.347ZM8.427,251.982L8.427,246.295L9.344,246.295C10.792,246.295 11.333,247.097 11.333,248.93L11.333,249.347C11.333,251.18 10.792,251.982 9.344,251.982L8.427,251.982Z" style="fill:#f7c5ad;fill-rule:nonzero;"/>
        <path d="M13.854,245.076L13.854,253.201L18.687,253.201L18.687,251.982L15.25,251.982L15.25,249.659L18.167,249.659L18.167,248.451L15.25,248.451L15.25,246.295L18.687,246.295L18.687,245.076L13.854,245.076Z" style="fill:#f7c5ad;fill-rule:nonzero;"/>
        <path d="M20.99,249.347L20.99,248.93C20.99,247.097 21.365,246.159 22.521,246.159L22.615,246.159C23.604,246.159 23.927,246.836 23.927,248.128L25.333,248.128L25.333,247.774C25.333,245.795 24.396,244.941 22.531,244.941C20.5,244.941 19.562,246.118 19.562,248.93L19.562,249.347C19.562,252.159 20.5,253.336 22.531,253.336C24.396,253.336 25.333,252.482 25.333,250.566L25.333,250.461L23.927,250.461C23.927,251.482 23.562,252.118 22.615,252.118L22.521,252.118C21.354,252.118 20.99,251.18 20.99,249.347Z" style="fill:#f7c5ad;fill-rule:nonzero;"/>
        <path d="M27.969,245.034L25.833,253.201L27.344,253.201L27.792,251.347L30.083,251.347L30.531,253.201L32.031,253.201L29.896,245.034L27.969,245.034ZM28.937,246.628L29.781,250.128L28.083,250.128L28.937,246.628Z" style="fill:#f7c5ad;fill-rule:nonzero;"/>
        <path d="M35.615,250.722L37.969,245.076L36.448,245.076L34.917,249.003L33.385,245.076L31.865,245.076L34.219,250.722L34.219,253.201L35.615,253.201L35.615,250.722Z" style="fill:#f7c5ad;fill-rule:nonzero;"/>
        <path d="M155.026,174.638L154.984,176.316L154.984,180.336L156.38,180.336L156.38,172.211L154.328,172.211L152.589,177.92L150.859,172.211L148.807,172.211L148.807,180.336L150.203,180.336L150.203,176.316L150.161,174.638L151.891,180.336L153.286,180.336L155.026,174.638Z" style="fill:#f7c5ad;fill-rule:nonzero;"/>
        <rect x="157.703" y="172.211" width="1.396" height="8.125" style="fill:#f7c5ad;fill-rule:nonzero;"/>
        <path d="M160.016,180.336L161.578,180.336L163.099,177.086L164.641,180.336L166.193,180.336L164.099,176.107L166.193,172.211L164.568,172.211L163.109,175.138L161.641,172.211L160.016,172.211L162.109,176.118L160.016,180.336Z" style="fill:#f7c5ad;fill-rule:nonzero;"/>
        <path d="M104.526,180.336C105.901,180.336 106.703,179.878 107.255,179.388L107.255,175.93L104.682,175.93L104.682,177.138L105.859,177.138L105.859,178.711C105.589,178.93 105.151,179.118 104.578,179.118L104.484,179.118C103.203,179.118 102.807,178.18 102.807,176.347L102.807,175.93C102.807,174.097 103.214,173.159 104.411,173.159L104.505,173.159C105.526,173.159 105.859,173.836 105.859,175.128L107.255,175.128L107.255,174.774C107.255,172.795 106.286,171.941 104.422,171.941C102.391,171.941 101.38,173.118 101.38,175.93L101.38,176.347C101.38,179.159 102.391,180.336 104.526,180.336Z" style="fill:#f7c5ad;fill-rule:nonzero;"/>
        <path d="M110.036,172.034L107.901,180.201L109.411,180.201L109.859,178.347L112.151,178.347L112.599,180.201L114.099,180.201L111.964,172.034L110.036,172.034ZM111.005,173.628L111.849,177.128L110.151,177.128L111.005,173.628Z" style="fill:#f7c5ad;fill-rule:nonzero;"/>
        <rect x="114.974" y="172.076" width="1.396" height="8.125" style="fill:#f7c5ad;fill-rule:nonzero;"/>
        <path d="M123.453,172.076L122.13,172.076L122.13,175.961L122.172,177.68L119.172,172.076L117.693,172.076L117.693,180.201L119.016,180.201L119.016,176.316L118.974,174.597L121.974,180.201L123.453,180.201L123.453,172.076Z" style="fill:#f7c5ad;fill-rule:nonzero;"/>
        <path d="M12.76,176.347L12.76,175.93C12.76,173.118 11.708,172.076 9.427,172.076L7.031,172.076L7.031,180.201L9.427,180.201C11.708,180.201 12.76,179.159 12.76,176.347ZM8.427,178.982L8.427,173.295L9.344,173.295C10.792,173.295 11.333,174.097 11.333,175.93L11.333,176.347C11.333,178.18 10.792,178.982 9.344,178.982L8.427,178.982Z" style="fill:#f7c5ad;fill-rule:nonzero;"/>
        <path d="M13.854,172.076L13.854,180.201L18.687,180.201L18.687,178.982L15.25,178.982L15.25,176.659L18.167,176.659L18.167,175.451L15.25,175.451L15.25,173.295L18.687,173.295L18.687,172.076L13.854,172.076Z" style="fill:#f7c5ad;fill-rule:nonzero;"/>
        <path d="M20.99,176.347L20.99,175.93C20.99,174.097 21.365,173.159 22.521,173.159L22.615,173.159C23.604,173.159 23.927,173.836 23.927,175.128L25.333,175.128L25.333,174.774C25.333,172.795 24.396,171.941 22.531,171.941C20.5,171.941 19.562,173.118 19.562,175.93L19.562,176.347C19.562,179.159 20.5,180.336 22.531,180.336C24.396,180.336 25.333,179.482 25.333,177.566L25.333,177.461L23.927,177.461C23.927,178.482 23.562,179.118 22.615,179.118L22.521,179.118C21.354,179.118 20.99,178.18 20.99,176.347Z" style="fill:#f7c5ad;fill-rule:nonzero;"/>
        <path d="M27.969,172.034L25.833,180.201L27.344,180.201L27.792,178.347L30.083,178.347L30.531,180.201L32.031,180.201L29.896,172.034L27.969,172.034ZM28.937,173.628L29.781,177.128L28.083,177.128L28.937,173.628Z" style="fill:#f7c5ad;fill-rule:nonzero;"/>
        <path d="M35.615,177.722L37.969,172.076L36.448,172.076L34.917,176.003L33.385,172.076L31.865,172.076L34.219,177.722L34.219,180.201L35.615,180.201L35.615,177.722Z" style="fill:#f7c5ad;fill-rule:nonzero;"/>
        <rect x="18.26" y="344.094" width="1.396" height="8.125" style="fill:#f7c5ad;fill-rule:nonzero;"/>
        <path d="M26.74,344.094L25.417,344.094L25.417,347.98L25.458,349.699L22.458,344.094L20.979,344.094L20.979,352.219L22.302,352.219L22.302,348.334L22.26,346.615L25.26,352.219L26.74,352.219L26.74,344.094Z" style="fill:#f7c5ad;fill-rule:nonzero;"/>
        <path d="M41.071,12.307L41.487,9.24L42.937,9.24C43.554,9.24 44.204,9.44 44.087,10.673L44.071,10.857C43.954,12.057 43.137,12.307 42.521,12.307L41.071,12.307ZM40.721,15.04L41.604,15.04L42.721,19.507L46.137,19.507L44.754,14.607C45.971,14.107 46.971,13.057 47.254,10.94L47.304,10.573C47.787,6.973 45.354,6.507 43.154,6.507L38.671,6.507L36.971,19.507L40.137,19.507L40.721,15.04Z" style="fill:#f7c5ad;fill-rule:nonzero;"/>
        <path d="M49.254,6.507L47.554,19.507L55.721,19.507L56.071,16.773L51.071,16.773L51.404,14.24L55.571,14.24L55.937,11.507L51.771,11.507L52.071,9.24L57.071,9.24L57.421,6.507L49.254,6.507Z" style="fill:#f7c5ad;fill-rule:nonzero;"/>
        <path d="M61.821,14.273C63.587,14.507 63.904,15.023 63.837,15.673L63.821,15.84C63.754,16.473 63.271,17.007 62.187,17.007L62.021,17.007C60.937,17.007 60.454,16.44 60.637,15.007L57.471,15.007L57.437,15.273C57.054,18.29 58.687,19.74 61.854,19.74C64.921,19.74 66.754,18.44 67.021,15.99L67.054,15.69C67.337,13.207 66.104,12.107 63.321,11.723C61.604,11.49 61.321,11.04 61.387,10.34L61.404,10.173C61.471,9.523 62.004,9.007 62.921,9.007L63.087,9.007C64.254,9.007 64.587,9.707 64.387,11.173L67.554,11.173L67.604,10.773C67.971,7.807 66.621,6.273 63.371,6.273C60.121,6.273 58.437,7.84 58.187,10.14L58.154,10.44C57.887,12.79 59.037,13.907 61.821,14.273Z" style="fill:#f7c5ad;fill-rule:nonzero;"/>
        <path d="M74.287,6.273C70.787,6.273 69.087,8.207 68.487,12.707L68.404,13.34C67.804,17.84 69.371,19.74 72.871,19.74C76.371,19.74 78.054,17.807 78.654,13.307L78.737,12.673C79.337,8.173 77.787,6.273 74.287,6.273ZM72.954,17.007C71.454,17.007 71.321,15.607 71.621,13.34L71.704,12.707C72.004,10.44 72.504,9.007 74.004,9.007L74.187,9.007C75.687,9.007 75.821,10.407 75.521,12.673L75.437,13.307C75.137,15.573 74.637,17.007 73.137,17.007L72.954,17.007Z" style="fill:#f7c5ad;fill-rule:nonzero;"/>
        <path d="M90.754,6.507L87.754,6.507L87.137,11.173L86.904,13.673L84.254,6.507L80.921,6.507L79.221,19.507L82.221,19.507L82.821,14.84L83.071,12.34L85.721,19.507L89.054,19.507L90.754,6.507Z" style="fill:#f7c5ad;fill-rule:nonzero;"/>
        <path d="M94.837,6.507L90.037,19.507L93.437,19.507L94.287,16.873L96.987,16.873L97.187,19.507L100.571,19.507L99.171,6.507L94.837,6.507ZM96.521,10.173L96.804,14.14L95.204,14.14L96.521,10.173Z" style="fill:#f7c5ad;fill-rule:nonzero;"/>
        <path d="M107.537,9.24L110.454,9.24L110.804,6.507L101.804,6.507L101.454,9.24L104.371,9.24L103.021,19.507L106.187,19.507L107.537,9.24Z" style="fill:#f7c5ad;fill-rule:nonzero;"/>
        <path d="M116.304,6.273C112.804,6.273 111.104,8.207 110.504,12.707L110.421,13.34C109.821,17.84 111.387,19.74 114.887,19.74C118.387,19.74 120.071,17.807 120.671,13.307L120.754,12.673C121.354,8.173 119.804,6.273 116.304,6.273ZM114.971,17.007C113.471,17.007 113.337,15.607 113.637,13.34L113.721,12.707C114.021,10.44 114.521,9.007 116.021,9.007L116.204,9.007C117.704,9.007 117.837,10.407 117.537,12.673L117.454,13.307C117.154,15.573 116.654,17.007 115.154,17.007L114.971,17.007Z" style="fill:#f7c5ad;fill-rule:nonzero;"/>
        <path d="M125.337,12.307L125.754,9.24L127.204,9.24C127.821,9.24 128.471,9.44 128.354,10.673L128.337,10.857C128.221,12.057 127.404,12.307 126.787,12.307L125.337,12.307ZM124.987,15.04L125.871,15.04L126.987,19.507L130.404,19.507L129.021,14.607C130.237,14.107 131.237,13.057 131.521,10.94L131.571,10.573C132.054,6.973 129.621,6.507 127.421,6.507L122.937,6.507L121.237,19.507L124.404,19.507L124.987,15.04Z" style="fill:#f7c5ad;fill-rule:nonzero;"/>
        <path d="M136.421,14.273C138.187,14.507 138.504,15.023 138.437,15.673L138.421,15.84C138.354,16.473 137.871,17.007 136.787,17.007L136.621,17.007C135.537,17.007 135.054,16.44 135.237,15.007L132.071,15.007L132.037,15.273C131.654,18.29 133.287,19.74 136.454,19.74C139.521,19.74 141.354,18.44 141.621,15.99L141.654,15.69C141.937,13.207 140.704,12.107 137.921,11.723C136.204,11.49 135.921,11.04 135.987,10.34L136.004,10.173C136.071,9.523 136.604,9.007 137.521,9.007L137.687,9.007C138.854,9.007 139.187,9.707 138.987,11.173L142.154,11.173L142.204,10.773C142.571,7.807 141.221,6.273 137.971,6.273C134.721,6.273 133.037,7.84 132.787,10.14L132.754,10.44C132.487,12.79 133.637,13.907 136.421,14.273Z" style="fill:#f7c5ad;fill-rule:nonzero;"/>
        <path d="M72.327,375.731C75.077,375.731 76.287,375.117 76.507,373.302L74.178,373.302C73.977,373.953 73.546,374.136 71.96,374.136L71.74,374.136C69.797,374.136 69.476,373.724 69.476,372.541L69.476,372.33C69.476,371.13 69.797,370.726 71.74,370.726L71.96,370.726C73.546,370.726 73.977,370.91 74.178,371.56L76.507,371.56C76.287,369.745 75.077,369.131 72.327,369.131L71.373,369.131C68.321,369.131 67.157,369.874 67.157,372.23L67.157,372.633C67.157,374.989 68.321,375.731 71.373,375.731L72.327,375.731Z" style="fill:#f7c5ad;fill-rule:nonzero;"/>
        <path d="M85.133,374.127L79.724,374.127L79.724,373.183L85.133,373.183L85.133,371.67L79.724,371.67L79.724,370.735L85.133,370.735L85.133,369.223L77.451,369.223L77.451,375.64L85.133,375.64L85.133,374.127Z" style="fill:#f7c5ad;fill-rule:nonzero;"/>
        <path d="M93.52,373.925L88.515,373.925L88.515,369.223L86.242,369.223L86.242,375.64L93.52,375.64L93.52,373.925Z" style="fill:#f7c5ad;fill-rule:nonzero;"/>
        <path d="M101.596,373.925L96.591,373.925L96.591,369.223L94.318,369.223L94.318,375.64L101.596,375.64L101.596,373.925Z" style="fill:#f7c5ad;fill-rule:nonzero;"/>
        <path d="M109.094,369.223L105.611,369.223L101.862,375.64L104.373,375.64L105.098,374.365L109.516,374.365L110.249,375.64L112.843,375.64L109.094,369.223ZM107.353,370.58L108.654,372.853L105.959,372.853L107.27,370.58L107.353,370.58Z" style="fill:#f7c5ad;fill-rule:nonzero;"/>
        <g id="CTR">
            <circle id="Base" cx="22.504" cy="53.39" r="16.496" style="fill:none;"/>
            <path id="path89" d="M30.412,66.487C29.851,66.826 29.671,67.556 30.01,68.117C30.349,68.678 31.08,68.858 31.641,68.519C32.202,68.18 32.382,67.45 32.043,66.889C31.704,66.328 30.973,66.148 30.412,66.487Z" style="fill:#f7c5ad;fill-rule:nonzero;"/>
            <path d="M14.645,66.529C15.208,66.865 15.392,67.594 15.056,68.157C14.72,68.72 13.99,68.904 13.427,68.568C12.865,68.232 12.681,67.502 13.017,66.939C13.353,66.377 14.082,66.193 14.645,66.529Z" style="fill:#f7c5ad;fill-rule:nonzero;"/>
            <path d="M31.027,67.503C35.962,64.519 38.988,59.155 38.988,53.388C38.988,44.34 31.542,36.894 22.494,36.894C13.446,36.894 6,44.34 6,53.388C6,59.186 9.058,64.575 14.036,67.548" style="fill:none;fill-rule:nonzero;stroke:#f7c5ad;stroke-width:0.79px;stroke-linecap:round;stroke-miterlimit:4;"/>
        </g>
        <g id="CTR1" serif:id="CTR">
            <circle id="Base1" serif:id="Base" cx="67.504" cy="53.39" r="16.496" style="fill:none;"/>
            <path id="path891" serif:id="path89" d="M75.412,66.487C74.851,66.826 74.671,67.556 75.01,68.117C75.349,68.678 76.08,68.858 76.641,68.519C77.202,68.18 77.382,67.45 77.043,66.889C76.704,66.328 75.973,66.148 75.412,66.487Z" style="fill:#f7c5ad;fill-rule:nonzero;"/>
            <path d="M59.645,66.529C60.208,66.865 60.392,67.594 60.056,68.157C59.72,68.72 58.99,68.904 58.427,68.568C57.865,68.232 57.681,67.502 58.017,66.939C58.353,66.377 59.082,66.193 59.645,66.529Z" style="fill:#f7c5ad;fill-rule:nonzero;"/>
            <path d="M76.027,67.503C80.962,64.519 83.988,59.155 83.988,53.388C83.988,44.34 76.542,36.894 67.494,36.894C58.446,36.894 51,44.34 51,53.388C51,59.186 54.058,64.575 59.036,67.548" style="fill:none;fill-rule:nonzero;stroke:#f7c5ad;stroke-width:0.79px;stroke-linecap:round;stroke-miterlimit:4;"/>
        </g>
        <g id="CTR2" serif:id="CTR">
            <circle id="Base2" serif:id="Base" cx="112.504" cy="53.39" r="16.496" style="fill:none;"/>
            <path id="path892" serif:id="path89" d="M120.412,66.487C119.851,66.826 119.671,67.556 120.01,68.117C120.349,68.678 121.08,68.858 121.641,68.519C122.202,68.18 122.382,67.45 122.043,66.889C121.704,66.328 120.973,66.148 120.412,66.487Z" style="fill:#f7c5ad;fill-rule:nonzero;"/>
            <path d="M104.645,66.529C105.208,66.865 105.392,67.594 105.056,68.157C104.72,68.72 103.99,68.904 103.427,68.568C102.865,68.232 102.681,67.502 103.017,66.939C103.353,66.377 104.082,66.193 104.645,66.529Z" style="fill:#f7c5ad;fill-rule:nonzero;"/>
            <path d="M121.027,67.503C125.962,64.519 128.988,59.155 128.988,53.388C128.988,44.34 121.542,36.894 112.494,36.894C103.446,36.894 96,44.34 96,53.388C96,59.186 99.058,64.575 104.036,67.548" style="fill:none;fill-rule:nonzero;stroke:#f7c5ad;stroke-width:0.79px;stroke-linecap:round;stroke-miterlimit:4;"/>
        </g>
        <g id="CTR3" serif:id="CTR">
            <circle id="Base3" serif:id="Base" cx="157.504" cy="53.39" r="16.496" style="fill:none;"/>
            <path id="path893" serif:id="path89" d="M165.412,66.487C164.851,66.826 164.671,67.556 165.01,68.117C165.349,68.678 166.08,68.858 166.641,68.519C167.202,68.18 167.382,67.45 167.043,66.889C166.704,66.328 165.973,66.148 165.412,66.487Z" style="fill:#f7c5ad;fill-rule:nonzero;"/>
            <path d="M149.645,66.529C150.208,66.865 150.392,67.594 150.056,68.157C149.72,68.72 148.99,68.904 148.427,68.568C147.865,68.232 147.681,67.502 148.017,66.939C148.353,66.377 149.082,66.193 149.645,66.529Z" style="fill:#f7c5ad;fill-rule:nonzero;"/>
            <path d="M166.027,67.503C170.962,64.519 173.988,59.155 173.988,53.388C173.988,44.34 166.542,36.894 157.494,36.894C148.446,36.894 141,44.34 141,53.388C141,59.186 144.058,64.575 149.036,67.548" style="fill:none;fill-rule:nonzero;stroke:#f7c5ad;stroke-width:0.79px;stroke-linecap:round;stroke-miterlimit:4;"/>
        </g>
        <g id="CTR4" serif:id="CTR">
            <circle id="Base4" serif:id="Base" cx="22.504" cy="103.502" r="16.496" style="fill:none;"/>
            <path id="path894" serif:id="path89" d="M30.412,116.599C29.851,116.938 29.671,117.668 30.01,118.229C30.349,118.79 31.08,118.97 31.641,118.631C32.202,118.292 32.382,117.561 32.043,117.001C31.704,116.44 30.973,116.26 30.412,116.599Z" style="fill:#f7c5ad;fill-rule:nonzero;"/>
            <path d="M14.645,116.641C15.208,116.977 15.392,117.706 15.056,118.269C14.72,118.832 13.99,119.016 13.427,118.68C12.865,118.344 12.681,117.614 13.017,117.051C13.353,116.489 14.082,116.305 14.645,116.641Z" style="fill:#f7c5ad;fill-rule:nonzero;"/>
            <path d="M31.027,117.615C35.962,114.631 38.988,109.267 38.988,103.5C38.988,94.452 31.542,87.006 22.494,87.006C13.446,87.006 6,94.452 6,103.5C6,109.298 9.058,114.687 14.036,117.66" style="fill:none;fill-rule:nonzero;stroke:#f7c5ad;stroke-width:0.79px;stroke-linecap:round;stroke-miterlimit:4;"/>
        </g>
        <g id="CTR5" serif:id="CTR">
            <circle id="Base5" serif:id="Base" cx="67.504" cy="103.498" r="16.496" style="fill:none;"/>
            <path id="path895" serif:id="path89" d="M75.412,116.595C74.851,116.934 74.671,117.664 75.01,118.225C75.349,118.786 76.08,118.966 76.641,118.627C77.202,118.288 77.382,117.558 77.043,116.997C76.704,116.436 75.973,116.256 75.412,116.595Z" style="fill:#f7c5ad;fill-rule:nonzero;"/>
            <path d="M59.645,116.637C60.208,116.973 60.392,117.702 60.056,118.265C59.72,118.828 58.99,119.012 58.427,118.676C57.865,118.34 57.681,117.61 58.017,117.047C58.353,116.485 59.082,116.301 59.645,116.637Z" style="fill:#f7c5ad;fill-rule:nonzero;"/>
            <path d="M76.027,117.611C80.962,114.627 83.988,109.263 83.988,103.496C83.988,94.448 76.542,87.002 67.494,87.002C58.446,87.002 51,94.448 51,103.496C51,109.294 54.058,114.683 59.036,117.656" style="fill:none;fill-rule:nonzero;stroke:#f7c5ad;stroke-width:0.79px;stroke-linecap:round;stroke-miterlimit:4;"/>
        </g>
        <g id="CTR6" serif:id="CTR">
            <circle id="Base6" serif:id="Base" cx="112.504" cy="103.498" r="16.496" style="fill:none;"/>
            <path id="path896" serif:id="path89" d="M120.412,116.595C119.851,116.934 119.671,117.664 120.01,118.225C120.349,118.786 121.08,118.966 121.641,118.627C122.202,118.288 122.382,117.558 122.043,116.997C121.704,116.436 120.973,116.256 120.412,116.595Z" style="fill:#f7c5ad;fill-rule:nonzero;"/>
            <path d="M104.645,116.637C105.208,116.973 105.392,117.702 105.056,118.265C104.72,118.828 103.99,119.012 103.427,118.676C102.865,118.34 102.681,117.61 103.017,117.047C103.353,116.485 104.082,116.301 104.645,116.637Z" style="fill:#f7c5ad;fill-rule:nonzero;"/>
            <path d="M121.027,117.611C125.962,114.627 128.988,109.263 128.988,103.496C128.988,94.448 121.542,87.002 112.494,87.002C103.446,87.002 96,94.448 96,103.496C96,109.294 99.058,114.683 104.036,117.656" style="fill:none;fill-rule:nonzero;stroke:#f7c5ad;stroke-width:0.79px;stroke-linecap:round;stroke-miterlimit:4;"/>
        </g>
        <g id="CTR7" serif:id="CTR">
            <circle id="Base7" serif:id="Base" cx="157.504" cy="103.502" r="16.496" style="fill:none;"/>
            <path id="path897" serif:id="path89" d="M165.412,116.599C164.851,116.938 164.671,117.668 165.01,118.229C165.349,118.79 166.08,118.97 166.641,118.631C167.202,118.292 167.382,117.561 167.043,117.001C166.704,116.44 165.973,116.26 165.412,116.599Z" style="fill:#f7c5ad;fill-rule:nonzero;"/>
            <path d="M149.645,116.641C150.208,116.977 150.392,117.706 150.056,118.269C149.72,118.832 148.99,119.016 148.427,118.68C147.865,118.344 147.681,117.614 148.017,117.051C148.353,116.489 149.082,116.305 149.645,116.641Z" style="fill:#f7c5ad;fill-rule:nonzero;"/>
            <path d="M166.027,117.615C170.962,114.631 173.988,109.267 173.988,103.5C173.988,94.452 166.542,87.006 157.494,87.006C148.446,87.006 141,94.452 141,103.5C141,109.298 144.058,114.687 149.036,117.66" style="fill:none;fill-rule:nonzero;stroke:#f7c5ad;stroke-width:0.79px;stroke-linecap:round;stroke-miterlimit:4;"/>
        </g>
        <g id="SMCTR">
            <path d="M22.5,231.316L22.5,203.809" style="fill:none;stroke:#f7c5ad;stroke-width:0.83px;stroke-linecap:square;"/>
            <path id="line87" d="M22.509,193.956L22.509,191.224" style="fill:none;fill-rule:nonzero;stroke:#f7c5ad;stroke-width:0.61px;stroke-linecap:round;stroke-miterlimit:4;"/>
            <path d="M11.979,213.511C12.325,213.896 12.918,213.928 13.303,213.582C13.688,213.236 13.72,212.643 13.374,212.258C13.028,211.873 12.435,211.841 12.05,212.187C11.665,212.533 11.633,213.126 11.979,213.511Z" style="fill:#f7c5ad;"/>
            <path d="M33.021,213.511C32.675,213.896 32.082,213.928 31.697,213.582C31.312,213.236 31.28,212.643 31.626,212.258C31.972,211.873 32.565,211.841 32.95,212.187C33.335,212.533 33.367,213.126 33.021,213.511Z" style="fill:#f7c5ad;"/>
            <path d="M12.676,212.885C10.575,210.546 9.295,207.453 9.295,204.064C9.295,196.776 15.212,190.859 22.5,190.859C29.788,190.859 35.705,196.776 35.705,204.064C35.705,207.453 34.425,210.546 32.324,212.885" style="fill:none;stroke:#f7c5ad;stroke-width:0.63px;stroke-linecap:square;"/>
        </g>
        <g id="SMCTR1" serif:id="SMCTR">
            <path d="M67.5,231.316L67.5,203.809" style="fill:none;stroke:#f7c5ad;stroke-width:0.83px;stroke-linecap:square;"/>
            <path id="line871" serif:id="line87" d="M67.509,193.956L67.509,191.224" style="fill:none;fill-rule:nonzero;stroke:#f7c5ad;stroke-width:0.61px;stroke-linecap:round;stroke-miterlimit:4;"/>
            <path d="M56.979,213.511C57.325,213.896 57.918,213.928 58.303,213.582C58.688,213.236 58.72,212.643 58.374,212.258C58.028,211.873 57.435,211.841 57.05,212.187C56.665,212.533 56.633,213.126 56.979,213.511Z" style="fill:#f7c5ad;"/>
            <path d="M78.021,213.511C77.675,213.896 77.082,213.928 76.697,213.582C76.312,213.236 76.28,212.643 76.626,212.258C76.972,211.873 77.565,211.841 77.95,212.187C78.335,212.533 78.367,213.126 78.021,213.511Z" style="fill:#f7c5ad;"/>
            <path d="M57.676,212.885C55.575,210.546 54.295,207.453 54.295,204.064C54.295,196.776 60.212,190.859 67.5,190.859C74.788,190.859 80.705,196.776 80.705,204.064C80.705,207.453 79.425,210.546 77.324,212.885" style="fill:none;stroke:#f7c5ad;stroke-width:0.63px;stroke-linecap:square;"/>
        </g>
        <g id="SMCTR2" serif:id="SMCTR">
            <path d="M157.5,231.316L157.5,203.809" style="fill:none;stroke:#f7c5ad;stroke-width:0.83px;stroke-linecap:square;"/>
            <path id="line872" serif:id="line87" d="M157.509,193.956L157.509,191.224" style="fill:none;fill-rule:nonzero;stroke:#f7c5ad;stroke-width:0.61px;stroke-linecap:round;stroke-miterlimit:4;"/>
            <path d="M146.979,213.511C147.325,213.896 147.918,213.928 148.303,213.582C148.688,213.236 148.72,212.643 148.374,212.258C148.028,211.873 147.435,211.841 147.05,212.187C146.665,212.533 146.633,213.126 146.979,213.511Z" style="fill:#f7c5ad;"/>
            <path d="M168.021,213.511C167.675,213.896 167.082,213.928 166.697,213.582C166.312,213.236 166.28,212.643 166.626,212.258C166.972,211.873 167.565,211.841 167.95,212.187C168.335,212.533 168.367,213.126 168.021,213.511Z" style="fill:#f7c5ad;"/>
            <path d="M147.676,212.885C145.575,210.546 144.295,207.453 144.295,204.064C144.295,196.776 150.212,190.859 157.5,190.859C164.788,190.859 170.705,196.776 170.705,204.064C170.705,207.453 169.425,210.546 167.324,212.885" style="fill:none;stroke:#f7c5ad;stroke-width:0.63px;stroke-linecap:square;"/>
        </g>
        <circle id="Base8" serif:id="Base" cx="22.504" cy="153.498" r="16.496" style="fill:none;"/>
        <path id="path898" serif:id="path89" d="M30.412,166.595C29.851,166.934 29.671,167.664 30.01,168.225C30.349,168.786 31.08,168.966 31.641,168.627C32.202,168.288 32.382,167.558 32.043,166.997C31.704,166.436 30.973,166.256 30.412,166.595Z" style="fill:#f7c5ad;fill-rule:nonzero;"/>
        <path d="M14.645,166.637C15.208,166.973 15.392,167.702 15.056,168.265C14.72,168.828 13.99,169.012 13.427,168.676C12.865,168.34 12.681,167.61 13.017,167.047C13.353,166.485 14.082,166.301 14.645,166.637Z" style="fill:#f7c5ad;fill-rule:nonzero;"/>
        <path d="M31.027,167.611C35.962,164.627 38.988,159.263 38.988,153.496C38.988,144.448 31.542,137.002 22.494,137.002C13.446,137.002 6,144.448 6,153.496C6,159.294 9.058,164.683 14.036,167.656" style="fill:none;fill-rule:nonzero;stroke:#f7c5ad;stroke-width:0.79px;stroke-linecap:round;stroke-miterlimit:4;"/>
        <circle id="Base9" serif:id="Base" cx="112.504" cy="153.498" r="16.496" style="fill:none;"/>
        <path id="path899" serif:id="path89" d="M120.412,166.595C119.851,166.934 119.671,167.664 120.01,168.225C120.349,168.786 121.08,168.966 121.641,168.627C122.202,168.288 122.382,167.558 122.043,166.997C121.704,166.436 120.973,166.256 120.412,166.595Z" style="fill:#f7c5ad;fill-rule:nonzero;"/>
        <path d="M104.645,166.637C105.208,166.973 105.392,167.702 105.056,168.265C104.72,168.828 103.99,169.012 103.427,168.676C102.865,168.34 102.681,167.61 103.017,167.047C103.353,166.485 104.082,166.301 104.645,166.637Z" style="fill:#f7c5ad;fill-rule:nonzero;"/>
        <path d="M121.027,167.611C125.962,164.627 128.988,159.263 128.988,153.496C128.988,144.448 121.542,137.002 112.494,137.002C103.446,137.002 96,144.448 96,153.496C96,159.294 99.058,164.683 104.036,167.656" style="fill:none;fill-rule:nonzero;stroke:#f7c5ad;stroke-width:0.79px;stroke-linecap:round;stroke-miterlimit:4;"/>
        <circle id="Base10" serif:id="Base" cx="157.504" cy="153.502" r="16.496" style="fill:none;"/>
        <path id="path8910" serif:id="path89" d="M165.412,166.599C164.851,166.938 164.671,167.668 165.01,168.229C165.349,168.79 166.08,168.97 166.641,168.631C167.202,168.292 167.382,167.561 167.043,167.001C166.704,166.44 165.973,166.26 165.412,166.599Z" style="fill:#f7c5ad;fill-rule:nonzero;"/>
        <path d="M149.645,166.641C150.208,166.977 150.392,167.706 150.056,168.269C149.72,168.832 148.99,169.016 148.427,168.68C147.865,168.344 147.681,167.614 148.017,167.051C148.353,166.489 149.082,166.305 149.645,166.641Z" style="fill:#f7c5ad;fill-rule:nonzero;"/>
        <path d="M166.027,167.615C170.962,164.631 173.988,159.267 173.988,153.5C173.988,144.452 166.542,137.006 157.494,137.006C148.446,137.006 141,144.452 141,153.5C141,159.298 144.058,164.687 149.036,167.66" style="fill:none;fill-rule:nonzero;stroke:#f7c5ad;stroke-width:0.79px;stroke-linecap:round;stroke-miterlimit:4;"/>
        <path d="M8.506,294.857L8.506,302.982L9.902,302.982L9.902,299.441L12.746,299.441L12.746,298.232L9.902,298.232L9.902,296.076L13.267,296.076L13.267,294.857L8.506,294.857Z" style="fill:#f7c5ad;fill-rule:nonzero;"/>
        <path d="M15.506,299.951L16.694,299.951L17.86,302.982L19.371,302.982L18.048,299.732C18.788,299.441 19.371,298.805 19.371,297.503L19.371,297.295C19.371,295.232 17.923,294.857 16.652,294.857L14.11,294.857L14.11,302.982L15.506,302.982L15.506,299.951ZM15.506,298.732L15.506,296.076L16.704,296.076C17.246,296.076 17.954,296.274 17.954,297.347L17.954,297.462C17.954,298.535 17.246,298.732 16.704,298.732L15.506,298.732Z" style="fill:#f7c5ad;fill-rule:nonzero;"/>
        <path d="M20.475,294.857L20.475,302.982L25.308,302.982L25.308,301.764L21.871,301.764L21.871,299.441L24.788,299.441L24.788,298.232L21.871,298.232L21.871,296.076L25.308,296.076L25.308,294.857L20.475,294.857Z" style="fill:#f7c5ad;fill-rule:nonzero;"/>
        <path d="M29.194,303.118C29.34,303.118 29.485,303.107 29.631,303.097L29.985,304.024L31.1,304.024L30.631,302.847C31.683,302.347 32.194,301.17 32.194,299.128L32.194,298.712C32.194,295.899 31.225,294.722 29.194,294.722C27.152,294.722 26.183,295.899 26.183,298.712L26.183,299.128C26.183,301.941 27.152,303.118 29.194,303.118ZM29.663,300.368L28.59,300.368L29.173,301.899L29.142,301.899C28.006,301.899 27.61,300.962 27.61,299.128L27.61,298.712C27.61,296.878 28.006,295.941 29.142,295.941L29.235,295.941C30.371,295.941 30.767,296.878 30.767,298.712L30.767,299.128C30.767,300.347 30.59,301.17 30.142,301.587L29.663,300.368Z" style="fill:#f7c5ad;fill-rule:nonzero;"/>
        <rect x="35.423" y="294.857" width="1.396" height="8.125" style="fill:#f7c5ad;fill-rule:nonzero;"/>
        <path d="M52.121,294.857L52.121,302.982L53.517,302.982L53.517,299.441L56.36,299.441L56.36,298.232L53.517,298.232L53.517,296.076L56.881,296.076L56.881,294.857L52.121,294.857Z" style="fill:#f7c5ad;fill-rule:nonzero;"/>
        <path d="M59.121,299.951L60.308,299.951L61.475,302.982L62.985,302.982L61.663,299.732C62.402,299.441 62.985,298.805 62.985,297.503L62.985,297.295C62.985,295.232 61.538,294.857 60.267,294.857L57.725,294.857L57.725,302.982L59.121,302.982L59.121,299.951ZM59.121,298.732L59.121,296.076L60.319,296.076C60.86,296.076 61.569,296.274 61.569,297.347L61.569,297.462C61.569,298.535 60.86,298.732 60.319,298.732L59.121,298.732Z" style="fill:#f7c5ad;fill-rule:nonzero;"/>
        <path d="M64.09,294.857L64.09,302.982L68.923,302.982L68.923,301.764L65.485,301.764L65.485,299.441L68.402,299.441L68.402,298.232L65.485,298.232L65.485,296.076L68.923,296.076L68.923,294.857L64.09,294.857Z" style="fill:#f7c5ad;fill-rule:nonzero;"/>
        <path d="M72.808,303.118C72.954,303.118 73.1,303.107 73.246,303.097L73.6,304.024L74.715,304.024L74.246,302.847C75.298,302.347 75.808,301.17 75.808,299.128L75.808,298.712C75.808,295.899 74.84,294.722 72.808,294.722C70.767,294.722 69.798,295.899 69.798,298.712L69.798,299.128C69.798,301.941 70.767,303.118 72.808,303.118ZM73.277,300.368L72.204,300.368L72.788,301.899L72.756,301.899C71.621,301.899 71.225,300.962 71.225,299.128L71.225,298.712C71.225,296.878 71.621,295.941 72.756,295.941L72.85,295.941C73.985,295.941 74.381,296.878 74.381,298.712L74.381,299.128C74.381,300.347 74.204,301.17 73.756,301.587L73.277,300.368Z" style="fill:#f7c5ad;fill-rule:nonzero;"/>
        <rect x="79.038" y="294.857" width="1.396" height="8.125" style="fill:#f7c5ad;fill-rule:nonzero;"/>
        <rect x="81.808" y="294.857" width="1.396" height="8.125" style="fill:#f7c5ad;fill-rule:nonzero;"/>
        <path d="M95.735,294.857L95.735,302.982L97.131,302.982L97.131,299.441L99.975,299.441L99.975,298.232L97.131,298.232L97.131,296.076L100.496,296.076L100.496,294.857L95.735,294.857Z" style="fill:#f7c5ad;fill-rule:nonzero;"/>
        <path d="M102.735,299.951L103.923,299.951L105.09,302.982L106.6,302.982L105.277,299.732C106.017,299.441 106.6,298.805 106.6,297.503L106.6,297.295C106.6,295.232 105.152,294.857 103.881,294.857L101.34,294.857L101.34,302.982L102.735,302.982L102.735,299.951ZM102.735,298.732L102.735,296.076L103.933,296.076C104.475,296.076 105.183,296.274 105.183,297.347L105.183,297.462C105.183,298.535 104.475,298.732 103.933,298.732L102.735,298.732Z" style="fill:#f7c5ad;fill-rule:nonzero;"/>
        <path d="M107.704,294.857L107.704,302.982L112.538,302.982L112.538,301.764L109.1,301.764L109.1,299.441L112.017,299.441L112.017,298.232L109.1,298.232L109.1,296.076L112.538,296.076L112.538,294.857L107.704,294.857Z" style="fill:#f7c5ad;fill-rule:nonzero;"/>
        <path d="M116.423,303.118C116.569,303.118 116.715,303.107 116.86,303.097L117.215,304.024L118.329,304.024L117.86,302.847C118.913,302.347 119.423,301.17 119.423,299.128L119.423,298.712C119.423,295.899 118.454,294.722 116.423,294.722C114.381,294.722 113.413,295.899 113.413,298.712L113.413,299.128C113.413,301.941 114.381,303.118 116.423,303.118ZM116.892,300.368L115.819,300.368L116.402,301.899L116.371,301.899C115.235,301.899 114.84,300.962 114.84,299.128L114.84,298.712C114.84,296.878 115.235,295.941 116.371,295.941L116.465,295.941C117.6,295.941 117.996,296.878 117.996,298.712L117.996,299.128C117.996,300.347 117.819,301.17 117.371,301.587L116.892,300.368Z" style="fill:#f7c5ad;fill-rule:nonzero;"/>
        <rect x="122.652" y="294.857" width="1.396" height="8.125" style="fill:#f7c5ad;fill-rule:nonzero;"/>
        <rect x="125.423" y="294.857" width="1.396" height="8.125" style="fill:#f7c5ad;fill-rule:nonzero;"/>
        <rect x="128.194" y="294.857" width="1.396" height="8.125" style="fill:#f7c5ad;fill-rule:nonzero;"/>
        <path d="M140.22,294.857L140.22,302.982L141.616,302.982L141.616,299.441L144.459,299.441L144.459,298.232L141.616,298.232L141.616,296.076L144.98,296.076L144.98,294.857L140.22,294.857Z" style="fill:#f7c5ad;fill-rule:nonzero;"/>
        <path d="M147.22,299.951L148.407,299.951L149.574,302.982L151.084,302.982L149.762,299.732C150.501,299.441 151.084,298.805 151.084,297.503L151.084,297.295C151.084,295.232 149.637,294.857 148.366,294.857L145.824,294.857L145.824,302.982L147.22,302.982L147.22,299.951ZM147.22,298.732L147.22,296.076L148.418,296.076C148.959,296.076 149.668,296.274 149.668,297.347L149.668,297.462C149.668,298.535 148.959,298.732 148.418,298.732L147.22,298.732Z" style="fill:#f7c5ad;fill-rule:nonzero;"/>
        <path d="M152.189,294.857L152.189,302.982L157.022,302.982L157.022,301.764L153.584,301.764L153.584,299.441L156.501,299.441L156.501,298.232L153.584,298.232L153.584,296.076L157.022,296.076L157.022,294.857L152.189,294.857Z" style="fill:#f7c5ad;fill-rule:nonzero;"/>
        <path d="M160.907,303.118C161.053,303.118 161.199,303.107 161.345,303.097L161.699,304.024L162.814,304.024L162.345,302.847C163.397,302.347 163.907,301.17 163.907,299.128L163.907,298.712C163.907,295.899 162.939,294.722 160.907,294.722C158.866,294.722 157.897,295.899 157.897,298.712L157.897,299.128C157.897,301.941 158.866,303.118 160.907,303.118ZM161.376,300.368L160.303,300.368L160.887,301.899L160.855,301.899C159.72,301.899 159.324,300.962 159.324,299.128L159.324,298.712C159.324,296.878 159.72,295.941 160.855,295.941L160.949,295.941C162.084,295.941 162.48,296.878 162.48,298.712L162.48,299.128C162.48,300.347 162.303,301.17 161.855,301.587L161.376,300.368Z" style="fill:#f7c5ad;fill-rule:nonzero;"/>
        <rect x="167.137" y="294.857" width="1.396" height="8.125" style="fill:#f7c5ad;fill-rule:nonzero;"/>
        <path d="M173.47,303.024L175.605,294.857L174.105,294.857L172.512,301.43L170.907,294.857L169.407,294.857L171.543,303.024L173.47,303.024Z" style="fill:#f7c5ad;fill-rule:nonzero;"/>
        <path d="M8.506,71.854L8.506,79.979L9.902,79.979L9.902,76.438L12.746,76.438L12.746,75.229L9.902,75.229L9.902,73.073L13.267,73.073L13.267,71.854L8.506,71.854Z" style="fill:#f7c5ad;fill-rule:nonzero;"/>
        <path d="M15.506,76.948L16.694,76.948L17.86,79.979L19.371,79.979L18.048,76.729C18.788,76.438 19.371,75.802 19.371,74.5L19.371,74.292C19.371,72.229 17.923,71.854 16.652,71.854L14.11,71.854L14.11,79.979L15.506,79.979L15.506,76.948ZM15.506,75.729L15.506,73.073L16.704,73.073C17.246,73.073 17.954,73.271 17.954,74.344L17.954,74.459C17.954,75.531 17.246,75.729 16.704,75.729L15.506,75.729Z" style="fill:#f7c5ad;fill-rule:nonzero;"/>
        <path d="M20.475,71.854L20.475,79.979L25.308,79.979L25.308,78.761L21.871,78.761L21.871,76.438L24.788,76.438L24.788,75.229L21.871,75.229L21.871,73.073L25.308,73.073L25.308,71.854L20.475,71.854Z" style="fill:#f7c5ad;fill-rule:nonzero;"/>
        <path d="M29.194,80.115C29.34,80.115 29.485,80.104 29.631,80.094L29.985,81.021L31.1,81.021L30.631,79.844C31.683,79.344 32.194,78.167 32.194,76.125L32.194,75.709C32.194,72.896 31.225,71.719 29.194,71.719C27.152,71.719 26.183,72.896 26.183,75.709L26.183,76.125C26.183,78.938 27.152,80.115 29.194,80.115ZM29.663,77.365L28.59,77.365L29.173,78.896L29.142,78.896C28.006,78.896 27.61,77.959 27.61,76.125L27.61,75.709C27.61,73.875 28.006,72.938 29.142,72.938L29.235,72.938C30.371,72.938 30.767,73.875 30.767,75.709L30.767,76.125C30.767,77.344 30.59,78.167 30.142,78.584L29.663,77.365Z" style="fill:#f7c5ad;fill-rule:nonzero;"/>
        <rect x="35.423" y="71.854" width="1.396" height="8.125" style="fill:#f7c5ad;fill-rule:nonzero;"/>
        <path d="M52.121,71.854L52.121,79.979L53.517,79.979L53.517,76.438L56.36,76.438L56.36,75.229L53.517,75.229L53.517,73.073L56.881,73.073L56.881,71.854L52.121,71.854Z" style="fill:#f7c5ad;fill-rule:nonzero;"/>
        <path d="M59.121,76.948L60.308,76.948L61.475,79.979L62.985,79.979L61.663,76.729C62.402,76.438 62.985,75.802 62.985,74.5L62.985,74.292C62.985,72.229 61.538,71.854 60.267,71.854L57.725,71.854L57.725,79.979L59.121,79.979L59.121,76.948ZM59.121,75.729L59.121,73.073L60.319,73.073C60.86,73.073 61.569,73.271 61.569,74.344L61.569,74.459C61.569,75.531 60.86,75.729 60.319,75.729L59.121,75.729Z" style="fill:#f7c5ad;fill-rule:nonzero;"/>
        <path d="M64.09,71.854L64.09,79.979L68.923,79.979L68.923,78.761L65.485,78.761L65.485,76.438L68.402,76.438L68.402,75.229L65.485,75.229L65.485,73.073L68.923,73.073L68.923,71.854L64.09,71.854Z" style="fill:#f7c5ad;fill-rule:nonzero;"/>
        <path d="M72.808,80.115C72.954,80.115 73.1,80.104 73.246,80.094L73.6,81.021L74.715,81.021L74.246,79.844C75.298,79.344 75.808,78.167 75.808,76.125L75.808,75.709C75.808,72.896 74.84,71.719 72.808,71.719C70.767,71.719 69.798,72.896 69.798,75.709L69.798,76.125C69.798,78.938 70.767,80.115 72.808,80.115ZM73.277,77.365L72.204,77.365L72.788,78.896L72.756,78.896C71.621,78.896 71.225,77.959 71.225,76.125L71.225,75.709C71.225,73.875 71.621,72.938 72.756,72.938L72.85,72.938C73.985,72.938 74.381,73.875 74.381,75.709L74.381,76.125C74.381,77.344 74.204,78.167 73.756,78.584L73.277,77.365Z" style="fill:#f7c5ad;fill-rule:nonzero;"/>
        <rect x="79.038" y="71.854" width="1.396" height="8.125" style="fill:#f7c5ad;fill-rule:nonzero;"/>
        <rect x="81.808" y="71.854" width="1.396" height="8.125" style="fill:#f7c5ad;fill-rule:nonzero;"/>
        <path d="M95.735,71.854L95.735,79.979L97.131,79.979L97.131,76.438L99.975,76.438L99.975,75.229L97.131,75.229L97.131,73.073L100.496,73.073L100.496,71.854L95.735,71.854Z" style="fill:#f7c5ad;fill-rule:nonzero;"/>
        <path d="M102.735,76.948L103.923,76.948L105.09,79.979L106.6,79.979L105.277,76.729C106.017,76.438 106.6,75.802 106.6,74.5L106.6,74.292C106.6,72.229 105.152,71.854 103.881,71.854L101.34,71.854L101.34,79.979L102.735,79.979L102.735,76.948ZM102.735,75.729L102.735,73.073L103.933,73.073C104.475,73.073 105.183,73.271 105.183,74.344L105.183,74.459C105.183,75.531 104.475,75.729 103.933,75.729L102.735,75.729Z" style="fill:#f7c5ad;fill-rule:nonzero;"/>
        <path d="M107.704,71.854L107.704,79.979L112.538,79.979L112.538,78.761L109.1,78.761L109.1,76.438L112.017,76.438L112.017,75.229L109.1,75.229L109.1,73.073L112.538,73.073L112.538,71.854L107.704,71.854Z" style="fill:#f7c5ad;fill-rule:nonzero;"/>
        <path d="M116.423,80.115C116.569,80.115 116.715,80.104 116.86,80.094L117.215,81.021L118.329,81.021L117.86,79.844C118.913,79.344 119.423,78.167 119.423,76.125L119.423,75.709C119.423,72.896 118.454,71.719 116.423,71.719C114.381,71.719 113.413,72.896 113.413,75.709L113.413,76.125C113.413,78.938 114.381,80.115 116.423,80.115ZM116.892,77.365L115.819,77.365L116.402,78.896L116.371,78.896C115.235,78.896 114.84,77.959 114.84,76.125L114.84,75.709C114.84,73.875 115.235,72.938 116.371,72.938L116.465,72.938C117.6,72.938 117.996,73.875 117.996,75.709L117.996,76.125C117.996,77.344 117.819,78.167 117.371,78.584L116.892,77.365Z" style="fill:#f7c5ad;fill-rule:nonzero;"/>
        <rect x="122.652" y="71.854" width="1.396" height="8.125" style="fill:#f7c5ad;fill-rule:nonzero;"/>
        <rect x="125.423" y="71.854" width="1.396" height="8.125" style="fill:#f7c5ad;fill-rule:nonzero;"/>
        <rect x="128.194" y="71.854" width="1.396" height="8.125" style="fill:#f7c5ad;fill-rule:nonzero;"/>
        <path d="M140.22,71.854L140.22,79.979L141.616,79.979L141.616,76.438L144.459,76.438L144.459,75.229L141.616,75.229L141.616,73.073L144.98,73.073L144.98,71.854L140.22,71.854Z" style="fill:#f7c5ad;fill-rule:nonzero;"/>
        <path d="M147.22,76.948L148.407,76.948L149.574,79.979L151.084,79.979L149.762,76.729C150.501,76.438 151.084,75.802 151.084,74.5L151.084,74.292C151.084,72.229 149.637,71.854 148.366,71.854L145.824,71.854L145.824,79.979L147.22,79.979L147.22,76.948ZM147.22,75.729L147.22,73.073L148.418,73.073C148.959,73.073 149.668,73.271 149.668,74.344L149.668,74.459C149.668,75.531 148.959,75.729 148.418,75.729L147.22,75.729Z" style="fill:#f7c5ad;fill-rule:nonzero;"/>
        <path d="M152.189,71.854L152.189,79.979L157.022,79.979L157.022,78.761L153.584,78.761L153.584,76.438L156.501,76.438L156.501,75.229L153.584,75.229L153.584,73.073L157.022,73.073L157.022,71.854L152.189,71.854Z" style="fill:#f7c5ad;fill-rule:nonzero;"/>
        <path d="M160.907,80.115C161.053,80.115 161.199,80.104 161.345,80.094L161.699,81.021L162.814,81.021L162.345,79.844C163.397,79.344 163.907,78.167 163.907,76.125L163.907,75.709C163.907,72.896 162.939,71.719 160.907,71.719C158.866,71.719 157.897,72.896 157.897,75.709L157.897,76.125C157.897,78.938 158.866,80.115 160.907,80.115ZM161.376,77.365L160.303,77.365L160.887,78.896L160.855,78.896C159.72,78.896 159.324,77.959 159.324,76.125L159.324,75.709C159.324,73.875 159.72,72.938 160.855,72.938L160.949,72.938C162.084,72.938 162.48,73.875 162.48,75.709L162.48,76.125C162.48,77.344 162.303,78.167 161.855,78.584L161.376,77.365Z" style="fill:#f7c5ad;fill-rule:nonzero;"/>
        <rect x="167.137" y="71.854" width="1.396" height="8.125" style="fill:#f7c5ad;fill-rule:nonzero;"/>
        <path d="M173.47,80.021L175.605,71.854L174.105,71.854L172.512,78.427L170.907,71.854L169.407,71.854L171.543,80.021L173.47,80.021Z" style="fill:#f7c5ad;fill-rule:nonzero;"/>
        <path d="M12.282,130.118C13.657,130.118 14.459,129.66 15.012,129.17L15.012,125.712L12.439,125.712L12.439,126.92L13.616,126.92L13.616,128.493C13.345,128.712 12.907,128.899 12.334,128.899L12.241,128.899C10.959,128.899 10.564,127.962 10.564,126.128L10.564,125.712C10.564,123.878 10.97,122.941 12.168,122.941L12.262,122.941C13.282,122.941 13.616,123.618 13.616,124.91L15.012,124.91L15.012,124.555C15.012,122.576 14.043,121.722 12.178,121.722C10.147,121.722 9.137,122.899 9.137,125.712L9.137,126.128C9.137,128.941 10.147,130.118 12.282,130.118Z" style="fill:#f7c5ad;fill-rule:nonzero;"/>
        <path d="M17.793,121.816L15.657,129.983L17.168,129.983L17.616,128.128L19.907,128.128L20.355,129.983L21.855,129.983L19.72,121.816L17.793,121.816ZM18.762,123.41L19.605,126.91L17.907,126.91L18.762,123.41Z" style="fill:#f7c5ad;fill-rule:nonzero;"/>
        <rect x="22.73" y="121.858" width="1.396" height="8.125" style="fill:#f7c5ad;fill-rule:nonzero;"/>
        <path d="M31.209,121.858L29.887,121.858L29.887,125.743L29.928,127.462L26.928,121.858L25.449,121.858L25.449,129.983L26.772,129.983L26.772,126.097L26.73,124.378L29.73,129.983L31.209,129.983L31.209,121.858Z" style="fill:#f7c5ad;fill-rule:nonzero;"/>
        <rect x="34.616" y="121.858" width="1.396" height="8.125" style="fill:#f7c5ad;fill-rule:nonzero;"/>
        <path d="M55.897,130.118C57.272,130.118 58.074,129.66 58.626,129.17L58.626,125.712L56.053,125.712L56.053,126.92L57.23,126.92L57.23,128.493C56.959,128.712 56.522,128.899 55.949,128.899L55.855,128.899C54.574,128.899 54.178,127.962 54.178,126.128L54.178,125.712C54.178,123.878 54.584,122.941 55.782,122.941L55.876,122.941C56.897,122.941 57.23,123.618 57.23,124.91L58.626,124.91L58.626,124.555C58.626,122.576 57.657,121.722 55.793,121.722C53.762,121.722 52.751,122.899 52.751,125.712L52.751,126.128C52.751,128.941 53.762,130.118 55.897,130.118Z" style="fill:#f7c5ad;fill-rule:nonzero;"/>
        <path d="M61.407,121.816L59.272,129.983L60.782,129.983L61.23,128.128L63.522,128.128L63.97,129.983L65.47,129.983L63.334,121.816L61.407,121.816ZM62.376,123.41L63.22,126.91L61.522,126.91L62.376,123.41Z" style="fill:#f7c5ad;fill-rule:nonzero;"/>
        <rect x="66.345" y="121.858" width="1.396" height="8.125" style="fill:#f7c5ad;fill-rule:nonzero;"/>
        <path d="M74.824,121.858L73.501,121.858L73.501,125.743L73.543,127.462L70.543,121.858L69.064,121.858L69.064,129.983L70.387,129.983L70.387,126.097L70.345,124.378L73.345,129.983L74.824,129.983L74.824,121.858Z" style="fill:#f7c5ad;fill-rule:nonzero;"/>
        <rect x="78.23" y="121.858" width="1.396" height="8.125" style="fill:#f7c5ad;fill-rule:nonzero;"/>
        <rect x="81.001" y="121.858" width="1.396" height="8.125" style="fill:#f7c5ad;fill-rule:nonzero;"/>
        <path d="M99.512,130.118C100.887,130.118 101.689,129.66 102.241,129.17L102.241,125.712L99.668,125.712L99.668,126.92L100.845,126.92L100.845,128.493C100.574,128.712 100.137,128.899 99.564,128.899L99.47,128.899C98.189,128.899 97.793,127.962 97.793,126.128L97.793,125.712C97.793,123.878 98.199,122.941 99.397,122.941L99.491,122.941C100.512,122.941 100.845,123.618 100.845,124.91L102.241,124.91L102.241,124.555C102.241,122.576 101.272,121.722 99.407,121.722C97.376,121.722 96.366,122.899 96.366,125.712L96.366,126.128C96.366,128.941 97.376,130.118 99.512,130.118Z" style="fill:#f7c5ad;fill-rule:nonzero;"/>
        <path d="M105.022,121.816L102.887,129.982L104.397,129.982L104.845,128.128L107.137,128.128L107.584,129.982L109.084,129.982L106.949,121.816L105.022,121.816ZM105.991,123.41L106.834,126.91L105.137,126.91L105.991,123.41Z" style="fill:#f7c5ad;fill-rule:nonzero;"/>
        <rect x="109.959" y="121.857" width="1.396" height="8.125" style="fill:#f7c5ad;fill-rule:nonzero;"/>
        <path d="M118.439,121.857L117.116,121.857L117.116,125.743L117.157,127.462L114.157,121.857L112.678,121.857L112.678,129.982L114.001,129.982L114.001,126.097L113.959,124.378L116.959,129.982L118.439,129.982L118.439,121.857Z" style="fill:#f7c5ad;fill-rule:nonzero;"/>
        <rect x="121.845" y="121.857" width="1.396" height="8.125" style="fill:#f7c5ad;fill-rule:nonzero;"/>
        <rect x="124.616" y="121.857" width="1.396" height="8.125" style="fill:#f7c5ad;fill-rule:nonzero;"/>
        <rect x="127.387" y="121.857" width="1.396" height="8.125" style="fill:#f7c5ad;fill-rule:nonzero;"/>
        <path d="M143.996,130.118C145.371,130.118 146.173,129.66 146.725,129.17L146.725,125.712L144.152,125.712L144.152,126.92L145.329,126.92L145.329,128.493C145.058,128.712 144.621,128.899 144.048,128.899L143.954,128.899C142.673,128.899 142.277,127.962 142.277,126.128L142.277,125.712C142.277,123.878 142.683,122.941 143.881,122.941L143.975,122.941C144.996,122.941 145.329,123.618 145.329,124.91L146.725,124.91L146.725,124.555C146.725,122.576 145.756,121.722 143.892,121.722C141.86,121.722 140.85,122.899 140.85,125.712L140.85,126.128C140.85,128.941 141.86,130.118 143.996,130.118Z" style="fill:#f7c5ad;fill-rule:nonzero;"/>
        <path d="M149.506,121.816L147.371,129.982L148.881,129.982L149.329,128.128L151.621,128.128L152.069,129.982L153.569,129.982L151.433,121.816L149.506,121.816ZM150.475,123.41L151.319,126.91L149.621,126.91L150.475,123.41Z" style="fill:#f7c5ad;fill-rule:nonzero;"/>
        <rect x="154.444" y="121.857" width="1.396" height="8.125" style="fill:#f7c5ad;fill-rule:nonzero;"/>
        <path d="M162.923,121.857L161.6,121.857L161.6,125.743L161.642,127.462L158.642,121.857L157.163,121.857L157.163,129.982L158.485,129.982L158.485,126.097L158.444,124.378L161.444,129.982L162.923,129.982L162.923,121.857Z" style="fill:#f7c5ad;fill-rule:nonzero;"/>
        <rect x="166.329" y="121.857" width="1.396" height="8.125" style="fill:#f7c5ad;fill-rule:nonzero;"/>
        <path d="M172.663,130.024L174.798,121.857L173.298,121.857L171.704,128.43L170.1,121.857L168.6,121.857L170.735,130.024L172.663,130.024Z" style="fill:#f7c5ad;fill-rule:nonzero;"/>
        <path d="M53.375,176.347L53.375,175.93C53.375,174.097 53.75,173.159 54.906,173.159L55,173.159C55.99,173.159 56.312,173.836 56.312,175.128L57.719,175.128L57.719,174.774C57.719,172.795 56.781,171.941 54.917,171.941C52.885,171.941 51.948,173.118 51.948,175.93L51.948,176.347C51.948,179.159 52.885,180.336 54.917,180.336C56.781,180.336 57.719,179.482 57.719,177.566L57.719,177.461L56.312,177.461C56.312,178.482 55.948,179.118 55,179.118L54.906,179.118C53.74,179.118 53.375,178.18 53.375,176.347Z" style="fill:#f7c5ad;fill-rule:nonzero;"/>
        <path d="M61.625,180.336C63.656,180.336 64.625,179.159 64.625,176.347L64.625,175.93C64.625,173.118 63.656,171.941 61.625,171.941C59.583,171.941 58.615,173.118 58.615,175.93L58.615,176.347C58.615,179.159 59.583,180.336 61.625,180.336ZM61.573,179.118C60.437,179.118 60.042,178.18 60.042,176.347L60.042,175.93C60.042,174.097 60.437,173.159 61.573,173.159L61.667,173.159C62.802,173.159 63.198,174.097 63.198,175.93L63.198,176.347C63.198,178.18 62.802,179.118 61.667,179.118L61.573,179.118Z" style="fill:#f7c5ad;fill-rule:nonzero;"/>
        <path d="M70.25,180.201L70.25,178.982L67.115,178.982L67.115,172.076L65.719,172.076L65.719,180.201L70.25,180.201Z" style="fill:#f7c5ad;fill-rule:nonzero;"/>
        <path d="M73.698,180.336C75.729,180.336 76.698,179.159 76.698,176.347L76.698,175.93C76.698,173.118 75.729,171.941 73.698,171.941C71.656,171.941 70.687,173.118 70.687,175.93L70.687,176.347C70.687,179.159 71.656,180.336 73.698,180.336ZM73.646,179.118C72.51,179.118 72.115,178.18 72.115,176.347L72.115,175.93C72.115,174.097 72.51,173.159 73.646,173.159L73.74,173.159C74.875,173.159 75.271,174.097 75.271,175.93L75.271,176.347C75.271,178.18 74.875,179.118 73.74,179.118L73.646,179.118Z" style="fill:#f7c5ad;fill-rule:nonzero;"/>
        <path d="M79.187,177.17L80.375,177.17L81.542,180.201L83.052,180.201L81.729,176.951C82.469,176.659 83.052,176.024 83.052,174.722L83.052,174.513C83.052,172.451 81.604,172.076 80.333,172.076L77.792,172.076L77.792,180.201L79.187,180.201L79.187,177.17ZM79.187,175.951L79.187,173.295L80.385,173.295C80.927,173.295 81.635,173.493 81.635,174.566L81.635,174.68C81.635,175.753 80.927,175.951 80.385,175.951L79.187,175.951Z" style="fill:#f7c5ad;fill-rule:nonzero;"/>
        <circle id="Base11" serif:id="Base" cx="67.504" cy="153.498" r="16.496" style="fill:none;"/>
        <path id="path8911" serif:id="path89" d="M75.412,166.595C74.851,166.934 74.671,167.664 75.01,168.225C75.349,168.786 76.08,168.966 76.641,168.627C77.202,168.288 77.382,167.558 77.043,166.997C76.704,166.436 75.973,166.256 75.412,166.595Z" style="fill:#f7c5ad;fill-rule:nonzero;"/>
        <path d="M59.645,166.637C60.208,166.973 60.392,167.702 60.056,168.265C59.72,168.828 58.99,169.012 58.427,168.676C57.865,168.34 57.681,167.61 58.017,167.047C58.353,166.485 59.082,166.301 59.645,166.637Z" style="fill:#f7c5ad;fill-rule:nonzero;"/>
        <path d="M76.027,167.611C80.962,164.627 83.988,159.263 83.988,153.496C83.988,144.448 76.542,137.002 67.494,137.002C58.446,137.002 51,144.448 51,153.496C51,159.294 54.058,164.683 59.036,167.656" style="fill:none;fill-rule:nonzero;stroke:#f7c5ad;stroke-width:0.79px;stroke-linecap:round;stroke-miterlimit:4;"/>
        <path d="M104.526,253.336C105.901,253.336 106.703,252.878 107.255,252.388L107.255,248.93L104.682,248.93L104.682,250.138L105.859,250.138L105.859,251.711C105.589,251.93 105.151,252.118 104.578,252.118L104.484,252.118C103.203,252.118 102.807,251.18 102.807,249.347L102.807,248.93C102.807,247.097 103.214,246.159 104.411,246.159L104.505,246.159C105.526,246.159 105.859,246.836 105.859,248.128L107.255,248.128L107.255,247.774C107.255,245.795 106.286,244.941 104.422,244.941C102.391,244.941 101.38,246.118 101.38,248.93L101.38,249.347C101.38,252.159 102.391,253.336 104.526,253.336Z" style="fill:#f7c5ad;fill-rule:nonzero;"/>
        <path d="M110.036,245.034L107.901,253.201L109.411,253.201L109.859,251.347L112.151,251.347L112.599,253.201L114.099,253.201L111.964,245.034L110.036,245.034ZM111.005,246.628L111.849,250.128L110.151,250.128L111.005,246.628Z" style="fill:#f7c5ad;fill-rule:nonzero;"/>
        <rect x="114.974" y="245.076" width="1.396" height="8.125" style="fill:#f7c5ad;fill-rule:nonzero;"/>
        <path d="M123.453,245.076L122.13,245.076L122.13,248.961L122.172,250.68L119.172,245.076L117.693,245.076L117.693,253.201L119.016,253.201L119.016,249.316L118.974,247.597L121.974,253.201L123.453,253.201L123.453,245.076Z" style="fill:#f7c5ad;fill-rule:nonzero;"/>
        <g id="SMCTR3" serif:id="SMCTR">
            <path d="M112.5,231.316L112.5,203.809" style="fill:none;stroke:#f7c5ad;stroke-width:0.83px;stroke-linecap:square;"/>
            <path id="line873" serif:id="line87" d="M112.509,193.956L112.509,191.224" style="fill:none;fill-rule:nonzero;stroke:#f7c5ad;stroke-width:0.61px;stroke-linecap:round;stroke-miterlimit:4;"/>
            <path d="M101.979,213.511C102.325,213.896 102.918,213.928 103.303,213.582C103.688,213.236 103.72,212.643 103.374,212.258C103.028,211.873 102.435,211.841 102.05,212.187C101.665,212.533 101.633,213.126 101.979,213.511Z" style="fill:#f7c5ad;"/>
            <path d="M123.021,213.511C122.675,213.896 122.082,213.928 121.697,213.582C121.312,213.236 121.28,212.643 121.626,212.258C121.972,211.873 122.565,211.841 122.95,212.187C123.335,212.533 123.367,213.126 123.021,213.511Z" style="fill:#f7c5ad;"/>
            <path d="M102.676,212.885C100.575,210.546 99.295,207.453 99.295,204.064C99.295,196.776 105.212,190.859 112.5,190.859C119.788,190.859 125.705,196.776 125.705,204.064C125.705,207.453 124.425,210.546 122.324,212.885" style="fill:none;stroke:#f7c5ad;stroke-width:0.63px;stroke-linecap:square;"/>
        </g>
    </g>
</svg>
