<?xml version="1.0" encoding="UTF-8" standalone="no"?>
<!DOCTYPE svg PUBLIC "-//W3C//DTD SVG 1.1//EN" "http://www.w3.org/Graphics/SVG/1.1/DTD/svg11.dtd">
<svg width="100%" height="100%" viewBox="0 0 360 380" version="1.1" xmlns="http://www.w3.org/2000/svg" xmlns:xlink="http://www.w3.org/1999/xlink" xml:space="preserve" xmlns:serif="http://www.serif.com/" style="fill-rule:evenodd;clip-rule:evenodd;stroke-linejoin:round;stroke-miterlimit:2;">
    <g id="Layer1">
        <rect x="-0" y="0" width="360" height="380" style="fill:#909090;"/>
        <path d="M339.25,317.8C339.25,316.255 337.995,315 336.45,315L310.55,315C309.005,315 307.75,316.255 307.75,317.8L307.75,352.2C307.75,353.745 309.005,355 310.55,355L336.45,355C337.995,355 339.25,353.745 339.25,352.2L339.25,317.8Z" style="fill:#ab5b87;"/>
        <path d="M317.13,352.355C319.161,352.355 320.13,351.178 320.13,348.365L320.13,347.949C320.13,345.136 319.161,343.959 317.13,343.959C315.089,343.959 314.12,345.136 314.12,347.949L314.12,348.365C314.12,351.178 315.089,352.355 317.13,352.355ZM317.078,351.136C315.943,351.136 315.547,350.199 315.547,348.365L315.547,347.949C315.547,346.115 315.943,345.178 317.078,345.178L317.172,345.178C318.307,345.178 318.703,346.115 318.703,347.949L318.703,348.365C318.703,350.199 318.307,351.136 317.172,351.136L317.078,351.136Z" style="fill:#ecedf1;fill-rule:nonzero;"/>
        <path d="M324.005,352.355C326.057,352.355 326.828,351.49 326.828,349.667L326.828,344.094L325.432,344.094L325.432,349.615C325.432,350.688 325.047,351.136 324.005,351.136C322.953,351.136 322.568,350.688 322.568,349.615L322.568,344.094L321.172,344.094L321.172,349.667C321.172,351.49 321.943,352.355 324.005,352.355Z" style="fill:#ecedf1;fill-rule:nonzero;"/>
        <path d="M330.943,345.313L332.88,345.313L332.88,344.094L327.609,344.094L327.609,345.313L329.547,345.313L329.547,352.219L330.943,352.219L330.943,345.313Z" style="fill:#ecedf1;fill-rule:nonzero;"/>
        <path d="M321.094,298.521L321.052,300.199L321.052,304.219L322.448,304.219L322.448,296.094L320.396,296.094L318.656,301.803L316.927,296.094L314.875,296.094L314.875,304.219L316.271,304.219L316.271,300.199L316.229,298.521L317.958,304.219L319.354,304.219L321.094,298.521Z" style="fill:#ecedf1;fill-rule:nonzero;"/>
        <rect x="323.771" y="296.094" width="1.396" height="8.125" style="fill:#ecedf1;fill-rule:nonzero;"/>
        <path d="M326.083,304.219L327.646,304.219L329.167,300.969L330.708,304.219L332.26,304.219L330.167,299.99L332.26,296.094L330.635,296.094L329.177,299.021L327.708,296.094L326.083,296.094L328.177,300.001L326.083,304.219Z" style="fill:#ecedf1;fill-rule:nonzero;"/>
        <path d="M253.172,300.365L253.172,299.949C253.172,298.115 253.547,297.178 254.703,297.178L254.797,297.178C255.786,297.178 256.109,297.855 256.109,299.146L257.516,299.146L257.516,298.792C257.516,296.813 256.578,295.959 254.714,295.959C252.682,295.959 251.745,297.136 251.745,299.949L251.745,300.365C251.745,303.178 252.682,304.355 254.714,304.355C256.578,304.355 257.516,303.501 257.516,301.584L257.516,301.48L256.109,301.48C256.109,302.501 255.745,303.136 254.797,303.136L254.703,303.136C253.536,303.136 253.172,302.199 253.172,300.365Z" style="fill:#ecedf1;fill-rule:nonzero;"/>
        <path d="M261.422,304.355C263.453,304.355 264.422,303.178 264.422,300.365L264.422,299.949C264.422,297.136 263.453,295.959 261.422,295.959C259.38,295.959 258.411,297.136 258.411,299.949L258.411,300.365C258.411,303.178 259.38,304.355 261.422,304.355ZM261.37,303.136C260.234,303.136 259.839,302.199 259.839,300.365L259.839,299.949C259.839,298.115 260.234,297.178 261.37,297.178L261.464,297.178C262.599,297.178 262.995,298.115 262.995,299.949L262.995,300.365C262.995,302.199 262.599,303.136 261.464,303.136L261.37,303.136Z" style="fill:#ecedf1;fill-rule:nonzero;"/>
        <path d="M270.047,304.219L270.047,303.001L266.911,303.001L266.911,296.094L265.516,296.094L265.516,304.219L270.047,304.219Z" style="fill:#ecedf1;fill-rule:nonzero;"/>
        <path d="M273.495,304.355C275.526,304.355 276.495,303.178 276.495,300.365L276.495,299.949C276.495,297.136 275.526,295.959 273.495,295.959C271.453,295.959 270.484,297.136 270.484,299.949L270.484,300.365C270.484,303.178 271.453,304.355 273.495,304.355ZM273.443,303.136C272.307,303.136 271.911,302.199 271.911,300.365L271.911,299.949C271.911,298.115 272.307,297.178 273.443,297.178L273.536,297.178C274.672,297.178 275.068,298.115 275.068,299.949L275.068,300.365C275.068,302.199 274.672,303.136 273.536,303.136L273.443,303.136Z" style="fill:#ecedf1;fill-rule:nonzero;"/>
        <path d="M278.984,301.188L280.172,301.188L281.339,304.219L282.849,304.219L281.526,300.969C282.266,300.678 282.849,300.042 282.849,298.74L282.849,298.532C282.849,296.469 281.401,296.094 280.13,296.094L277.589,296.094L277.589,304.219L278.984,304.219L278.984,301.188ZM278.984,299.969L278.984,297.313L280.182,297.313C280.724,297.313 281.432,297.511 281.432,298.584L281.432,298.699C281.432,299.771 280.724,299.969 280.182,299.969L278.984,299.969Z" style="fill:#ecedf1;fill-rule:nonzero;"/>
        <path d="M205.818,300.365L205.818,299.949C205.818,297.136 204.766,296.094 202.484,296.094L200.089,296.094L200.089,304.219L202.484,304.219C204.766,304.219 205.818,303.178 205.818,300.365ZM201.484,303.001L201.484,297.313L202.401,297.313C203.849,297.313 204.391,298.115 204.391,299.949L204.391,300.365C204.391,302.199 203.849,303.001 202.401,303.001L201.484,303.001Z" style="fill:#ecedf1;fill-rule:nonzero;"/>
        <path d="M206.911,296.094L206.911,304.219L211.745,304.219L211.745,303.001L208.307,303.001L208.307,300.678L211.224,300.678L211.224,299.469L208.307,299.469L208.307,297.313L211.745,297.313L211.745,296.094L206.911,296.094Z" style="fill:#ecedf1;fill-rule:nonzero;"/>
        <path d="M214.047,300.365L214.047,299.949C214.047,298.115 214.422,297.178 215.578,297.178L215.672,297.178C216.661,297.178 216.984,297.855 216.984,299.146L218.391,299.146L218.391,298.792C218.391,296.813 217.453,295.959 215.589,295.959C213.557,295.959 212.62,297.136 212.62,299.949L212.62,300.365C212.62,303.178 213.557,304.355 215.589,304.355C217.453,304.355 218.391,303.501 218.391,301.584L218.391,301.48L216.984,301.48C216.984,302.501 216.62,303.136 215.672,303.136L215.578,303.136C214.411,303.136 214.047,302.199 214.047,300.365Z" style="fill:#ecedf1;fill-rule:nonzero;"/>
        <path d="M221.026,296.053L218.891,304.219L220.401,304.219L220.849,302.365L223.141,302.365L223.589,304.219L225.089,304.219L222.953,296.053L221.026,296.053ZM221.995,297.646L222.839,301.146L221.141,301.146L221.995,297.646Z" style="fill:#ecedf1;fill-rule:nonzero;"/>
        <path d="M228.672,301.74L231.026,296.094L229.505,296.094L227.974,300.021L226.443,296.094L224.922,296.094L227.276,301.74L227.276,304.219L228.672,304.219L228.672,301.74Z" style="fill:#ecedf1;fill-rule:nonzero;"/>
        <rect x="48.156" y="344.094" width="1.396" height="8.125" style="fill:#ecedf1;fill-rule:nonzero;"/>
        <path d="M56.635,344.094L55.312,344.094L55.312,347.98L55.354,349.699L52.354,344.094L50.875,344.094L50.875,352.219L52.198,352.219L52.198,348.334L52.156,346.615L55.156,352.219L56.635,352.219L56.635,344.094Z" style="fill:#ecedf1;fill-rule:nonzero;"/>
        <path d="M162.327,375.731C165.077,375.731 166.287,375.117 166.507,373.302L164.178,373.302C163.977,373.953 163.546,374.136 161.96,374.136L161.74,374.136C159.797,374.136 159.476,373.724 159.476,372.541L159.476,372.33C159.476,371.13 159.797,370.726 161.74,370.726L161.96,370.726C163.546,370.726 163.977,370.91 164.178,371.56L166.507,371.56C166.287,369.745 165.077,369.131 162.327,369.131L161.373,369.131C158.321,369.131 157.157,369.874 157.157,372.23L157.157,372.633C157.157,374.989 158.321,375.731 161.373,375.731L162.327,375.731Z" style="fill:#ecedf1;fill-rule:nonzero;"/>
        <path d="M175.133,374.127L169.724,374.127L169.724,373.183L175.133,373.183L175.133,371.67L169.724,371.67L169.724,370.735L175.133,370.735L175.133,369.223L167.451,369.223L167.451,375.64L175.133,375.64L175.133,374.127Z" style="fill:#ecedf1;fill-rule:nonzero;"/>
        <path d="M183.52,373.925L178.515,373.925L178.515,369.223L176.242,369.223L176.242,375.64L183.52,375.64L183.52,373.925Z" style="fill:#ecedf1;fill-rule:nonzero;"/>
        <path d="M191.596,373.925L186.591,373.925L186.591,369.223L184.318,369.223L184.318,375.64L191.596,375.64L191.596,373.925Z" style="fill:#ecedf1;fill-rule:nonzero;"/>
        <path d="M199.094,369.223L195.611,369.223L191.862,375.64L194.373,375.64L195.098,374.365L199.516,374.365L200.249,375.64L202.843,375.64L199.094,369.223ZM197.353,370.58L198.654,372.853L195.959,372.853L197.27,370.58L197.353,370.58Z" style="fill:#ecedf1;fill-rule:nonzero;"/>
    </g>
</svg>
