<?xml version="1.0" encoding="UTF-8" standalone="no"?>
<!DOCTYPE svg PUBLIC "-//W3C//DTD SVG 1.1//EN" "http://www.w3.org/Graphics/SVG/1.1/DTD/svg11.dtd">
<svg width="100%" height="100%" viewBox="0 0 180 380" version="1.1" xmlns="http://www.w3.org/2000/svg" xmlns:xlink="http://www.w3.org/1999/xlink" xml:space="preserve" xmlns:serif="http://www.serif.com/" style="fill-rule:evenodd;clip-rule:evenodd;stroke-linecap:square;stroke-miterlimit:1.5;">
    <g id="Layer1">
        <rect x="-0" y="0" width="180" height="380" style="fill:#909090;"/>
        <path d="M125.25,317.084C125.25,315.539 123.995,314.284 122.45,314.284L96.55,314.284C95.005,314.284 93.75,315.539 93.75,317.084L93.75,351.484C93.75,353.029 95.005,354.284 96.55,354.284L122.45,354.284C123.995,354.284 125.25,353.029 125.25,351.484L125.25,317.084Z" style="fill:#ab5b87;"/>
        <path d="M125.25,267.8C125.25,266.255 123.995,265 122.45,265L96.55,265C95.005,265 93.75,266.255 93.75,267.8L93.75,302.2C93.75,303.745 95.005,305 96.55,305L122.45,305C123.995,305 125.25,303.745 125.25,302.2L125.25,267.8Z" style="fill:#ab5b87;"/>
        <path d="M170.25,267.8C170.25,266.255 168.995,265 167.45,265L141.55,265C140.005,265 138.75,266.255 138.75,267.8L138.75,302.2C138.75,303.745 140.005,305 141.55,305L167.45,305C168.995,305 170.25,303.745 170.25,302.2L170.25,267.8Z" style="fill:#ab5b87;"/>
        <path d="M170.25,317.8C170.25,316.255 168.995,315 167.45,315L141.55,315C140.005,315 138.75,316.255 138.75,317.8L138.75,352.2C138.75,353.745 140.005,355 141.55,355L167.45,355C168.995,355 170.25,353.745 170.25,352.2L170.25,317.8Z" style="fill:#ab5b87;"/>
        <path d="M148.13,303.108C150.161,303.108 151.13,301.931 151.13,299.118L151.13,298.702C151.13,295.889 150.161,294.712 148.13,294.712C146.089,294.712 145.12,295.889 145.12,298.702L145.12,299.118C145.12,301.931 146.089,303.108 148.13,303.108ZM148.078,301.889C146.943,301.889 146.547,300.952 146.547,299.118L146.547,298.702C146.547,296.868 146.943,295.931 148.078,295.931L148.172,295.931C149.307,295.931 149.703,296.868 149.703,298.702L149.703,299.118C149.703,300.952 149.307,301.889 148.172,301.889L148.078,301.889Z" style="fill:#ecedf1;fill-rule:nonzero;"/>
        <path d="M155.005,303.108C157.057,303.108 157.828,302.243 157.828,300.42L157.828,294.848L156.432,294.848L156.432,300.368C156.432,301.441 156.047,301.889 155.005,301.889C153.953,301.889 153.568,301.441 153.568,300.368L153.568,294.848L152.172,294.848L152.172,300.42C152.172,302.243 152.943,303.108 155.005,303.108Z" style="fill:#ecedf1;fill-rule:nonzero;"/>
        <path d="M161.943,296.066L163.88,296.066L163.88,294.848L158.609,294.848L158.609,296.066L160.547,296.066L160.547,302.973L161.943,302.973L161.943,296.066Z" style="fill:#ecedf1;fill-rule:nonzero;"/>
        <path d="M145.566,293.805L163.499,293.805" style="fill:none;stroke:#ecedf1;stroke-width:0.83px;"/>
        <path d="M111.198,234.585L111.198,206.284" style="fill:none;stroke:#ecedf1;stroke-width:0.83px;stroke-linejoin:round;"/>
        <path d="M155.366,233.452L155.366,205.952" style="fill:none;stroke:#ecedf1;stroke-width:0.83px;stroke-linejoin:round;"/>
        <path d="M0,25L180,25" style="fill:none;stroke:#ecedf1;stroke-width:0.83px;stroke-linecap:butt;stroke-linejoin:round;"/>
        <path d="M102.403,345.306L104.341,345.306L104.341,344.088L99.07,344.088L99.07,345.306L101.008,345.306L101.008,352.213L102.403,352.213L102.403,345.306Z" style="fill:#ecedf1;fill-rule:nonzero;"/>
        <path d="M106.57,349.181L107.758,349.181L108.924,352.213L110.435,352.213L109.112,348.963C109.851,348.671 110.435,348.035 110.435,346.733L110.435,346.525C110.435,344.463 108.987,344.088 107.716,344.088L105.174,344.088L105.174,352.213L106.57,352.213L106.57,349.181ZM106.57,347.963L106.57,345.306L107.768,345.306C108.31,345.306 109.018,345.504 109.018,346.577L109.018,346.692C109.018,347.765 108.31,347.963 107.768,347.963L106.57,347.963Z" style="fill:#ecedf1;fill-rule:nonzero;"/>
        <rect x="111.591" y="344.088" width="1.396" height="8.125" style="fill:#ecedf1;fill-rule:nonzero;"/>
        <path d="M117.278,352.348C118.653,352.348 119.455,351.89 120.008,351.4L120.008,347.942L117.435,347.942L117.435,349.15L118.612,349.15L118.612,350.723C118.341,350.942 117.903,351.129 117.33,351.129L117.237,351.129C115.955,351.129 115.56,350.192 115.56,348.358L115.56,347.942C115.56,346.108 115.966,345.171 117.164,345.171L117.258,345.171C118.278,345.171 118.612,345.848 118.612,347.14L120.008,347.14L120.008,346.785C120.008,344.806 119.039,343.952 117.174,343.952C115.143,343.952 114.133,345.129 114.133,347.942L114.133,348.358C114.133,351.171 115.143,352.348 117.278,352.348Z" style="fill:#ecedf1;fill-rule:nonzero;"/>
        <path d="M103.169,303.108C105.2,303.108 106.169,301.931 106.169,299.118L106.169,298.702C106.169,295.889 105.2,294.712 103.169,294.712C101.127,294.712 100.159,295.889 100.159,298.702L100.159,299.118C100.159,301.931 101.127,303.108 103.169,303.108ZM103.117,301.889C101.982,301.889 101.586,300.952 101.586,299.118L101.586,298.702C101.586,296.868 101.982,295.931 103.117,295.931L103.211,295.931C104.346,295.931 104.742,296.868 104.742,298.702L104.742,299.118C104.742,300.952 104.346,301.889 103.211,301.889L103.117,301.889Z" style="fill:#ecedf1;fill-rule:nonzero;"/>
        <path d="M110.044,303.108C112.096,303.108 112.867,302.243 112.867,300.42L112.867,294.848L111.471,294.848L111.471,300.368C111.471,301.441 111.086,301.889 110.044,301.889C108.992,301.889 108.607,301.441 108.607,300.368L108.607,294.848L107.211,294.848L107.211,300.42C107.211,302.243 107.982,303.108 110.044,303.108Z" style="fill:#ecedf1;fill-rule:nonzero;"/>
        <path d="M116.982,296.066L118.919,296.066L118.919,294.848L113.648,294.848L113.648,296.066L115.586,296.066L115.586,302.973L116.982,302.973L116.982,296.066Z" style="fill:#ecedf1;fill-rule:nonzero;"/>
        <path d="M145.896,353.068C147.271,353.068 148.073,352.61 148.625,352.12L148.625,348.662L146.052,348.662L146.052,349.87L147.229,349.87L147.229,351.443C146.958,351.662 146.521,351.849 145.948,351.849L145.854,351.849C144.573,351.849 144.177,350.912 144.177,349.078L144.177,348.662C144.177,346.828 144.583,345.891 145.781,345.891L145.875,345.891C146.896,345.891 147.229,346.568 147.229,347.86L148.625,347.86L148.625,347.505C148.625,345.526 147.656,344.672 145.792,344.672C143.76,344.672 142.75,345.849 142.75,348.662L142.75,349.078C142.75,351.891 143.76,353.068 145.896,353.068Z" style="fill:#ecedf1;fill-rule:nonzero;"/>
        <path d="M151.406,344.766L149.271,352.933L150.781,352.933L151.229,351.078L153.521,351.078L153.969,352.933L155.469,352.933L153.333,344.766L151.406,344.766ZM152.375,346.36L153.219,349.86L151.521,349.86L152.375,346.36Z" style="fill:#ecedf1;fill-rule:nonzero;"/>
        <path d="M158.646,346.026L160.583,346.026L160.583,344.808L155.313,344.808L155.313,346.026L157.25,346.026L157.25,352.933L158.646,352.933L158.646,346.026Z" style="fill:#ecedf1;fill-rule:nonzero;"/>
        <path d="M161.417,344.808L161.417,352.933L166.25,352.933L166.25,351.714L162.813,351.714L162.813,349.391L165.729,349.391L165.729,348.183L162.813,348.183L162.813,346.026L166.25,346.026L166.25,344.808L161.417,344.808Z" style="fill:#ecedf1;fill-rule:nonzero;"/>
        <path d="M49.679,9.24L52.596,9.24L52.946,6.507L43.946,6.507L43.596,9.24L46.512,9.24L45.162,19.507L48.329,19.507L49.679,9.24Z" style="fill:#ecedf1;fill-rule:nonzero;"/>
        <path d="M60.829,19.507L64.862,19.507L68.629,6.507L65.329,6.507L63.196,15.14L62.862,6.507L58.962,6.507L56.362,15.14L56.496,6.507L53.196,6.507L53.562,19.507L57.579,19.507L60.429,10.14L60.829,19.507Z" style="fill:#ecedf1;fill-rule:nonzero;"/>
        <path d="M72.912,6.507L69.746,6.507L68.046,19.507L71.212,19.507L72.912,6.507Z" style="fill:#ecedf1;fill-rule:nonzero;"/>
        <path d="M84.496,6.507L81.496,6.507L80.879,11.173L80.646,13.673L77.996,6.507L74.662,6.507L72.962,19.507L75.962,19.507L76.562,14.84L76.812,12.34L79.462,19.507L82.796,19.507L84.496,6.507Z" style="fill:#ecedf1;fill-rule:nonzero;"/>
        <path d="M91.546,15.04L92.862,15.04C95.062,15.04 97.596,14.54 98.079,10.94L98.129,10.573C98.612,6.973 96.179,6.507 93.979,6.507L89.496,6.507L87.796,19.507L90.962,19.507L91.546,15.04ZM91.896,12.307L92.312,9.24L93.762,9.24C94.379,9.24 95.029,9.44 94.912,10.673L94.896,10.857C94.779,12.057 93.962,12.307 93.346,12.307L91.896,12.307Z" style="fill:#ecedf1;fill-rule:nonzero;"/>
        <path d="M103.079,6.507L99.912,6.507L98.212,19.507L101.379,19.507L103.079,6.507Z" style="fill:#ecedf1;fill-rule:nonzero;"/>
        <path d="M114.662,6.507L111.662,6.507L111.046,11.173L110.812,13.673L108.162,6.507L104.829,6.507L103.129,19.507L106.129,19.507L106.729,14.84L106.979,12.34L109.629,19.507L112.962,19.507L114.662,6.507Z" style="fill:#ecedf1;fill-rule:nonzero;"/>
        <path d="M119.779,19.74C122.246,19.74 123.529,19.023 124.529,18.207L125.312,12.273L120.579,12.273L120.212,15.007L121.779,15.007L121.562,16.673C121.229,16.857 120.612,17.007 120.129,17.007L119.946,17.007C118.362,17.007 118.062,15.607 118.362,13.34L118.446,12.707C118.746,10.457 119.262,9.007 120.846,9.007L121.029,9.007C122.279,9.007 122.462,10.007 122.262,11.507L125.429,11.507L125.512,10.857C125.912,7.723 124.312,6.273 121.129,6.273C117.629,6.273 115.829,8.207 115.229,12.707L115.146,13.34C114.546,17.84 116.279,19.74 119.779,19.74Z" style="fill:#ecedf1;fill-rule:nonzero;"/>
        <path d="M130.562,14.273C132.329,14.507 132.646,15.023 132.579,15.673L132.562,15.84C132.496,16.473 132.012,17.007 130.929,17.007L130.762,17.007C129.679,17.007 129.196,16.44 129.379,15.007L126.212,15.007L126.179,15.273C125.796,18.29 127.429,19.74 130.596,19.74C133.662,19.74 135.496,18.44 135.762,15.99L135.796,15.69C136.079,13.207 134.846,12.107 132.062,11.723C130.346,11.49 130.062,11.04 130.129,10.34L130.146,10.173C130.212,9.523 130.746,9.007 131.662,9.007L131.829,9.007C132.996,9.007 133.329,9.707 133.129,11.173L136.296,11.173L136.346,10.773C136.712,7.807 135.362,6.273 132.112,6.273C128.862,6.273 127.179,7.84 126.929,10.14L126.896,10.44C126.629,12.79 127.779,13.907 130.562,14.273Z" style="fill:#ecedf1;fill-rule:nonzero;"/>
        <path d="M72.327,375.731C75.077,375.731 76.287,375.117 76.507,373.302L74.178,373.302C73.977,373.953 73.546,374.136 71.96,374.136L71.74,374.136C69.797,374.136 69.476,373.724 69.476,372.541L69.476,372.33C69.476,371.13 69.797,370.726 71.74,370.726L71.96,370.726C73.546,370.726 73.977,370.91 74.178,371.56L76.507,371.56C76.287,369.745 75.077,369.131 72.327,369.131L71.373,369.131C68.321,369.131 67.157,369.874 67.157,372.23L67.157,372.633C67.157,374.989 68.321,375.731 71.373,375.731L72.327,375.731Z" style="fill:#ecedf1;fill-rule:nonzero;"/>
        <path d="M85.133,374.127L79.724,374.127L79.724,373.183L85.133,373.183L85.133,371.67L79.724,371.67L79.724,370.735L85.133,370.735L85.133,369.223L77.451,369.223L77.451,375.64L85.133,375.64L85.133,374.127Z" style="fill:#ecedf1;fill-rule:nonzero;"/>
        <path d="M93.52,373.925L88.515,373.925L88.515,369.223L86.242,369.223L86.242,375.64L93.52,375.64L93.52,373.925Z" style="fill:#ecedf1;fill-rule:nonzero;"/>
        <path d="M101.596,373.925L96.591,373.925L96.591,369.223L94.318,369.223L94.318,375.64L101.596,375.64L101.596,373.925Z" style="fill:#ecedf1;fill-rule:nonzero;"/>
        <path d="M109.094,369.223L105.611,369.223L101.862,375.64L104.373,375.64L105.098,374.365L109.516,374.365L110.249,375.64L112.843,375.64L109.094,369.223ZM107.353,370.58L108.654,372.853L105.959,372.853L107.27,370.58L107.353,370.58Z" style="fill:#ecedf1;fill-rule:nonzero;"/>
        <path d="M95.913,71.665L95.913,81.415L97.588,81.415L97.588,77.165L101.001,77.165L101.001,75.715L97.588,75.715L97.588,73.127L101.626,73.127L101.626,71.665L95.913,71.665Z" style="fill:#ecedf1;fill-rule:nonzero;"/>
        <path d="M104.313,77.777L105.738,77.777L107.138,81.415L108.951,81.415L107.363,77.515C108.251,77.165 108.951,76.402 108.951,74.84L108.951,74.59C108.951,72.115 107.213,71.665 105.688,71.665L102.638,71.665L102.638,81.415L104.313,81.415L104.313,77.777ZM104.313,76.315L104.313,73.127L105.751,73.127C106.401,73.127 107.251,73.365 107.251,74.652L107.251,74.79C107.251,76.077 106.401,76.315 105.751,76.315L104.313,76.315Z" style="fill:#ecedf1;fill-rule:nonzero;"/>
        <path d="M110.276,71.665L110.276,81.415L116.076,81.415L116.076,79.952L111.951,79.952L111.951,77.165L115.451,77.165L115.451,75.715L111.951,75.715L111.951,73.127L116.076,73.127L116.076,71.665L110.276,71.665Z" style="fill:#ecedf1;fill-rule:nonzero;"/>
        <path d="M120.738,81.577C120.913,81.577 121.088,81.565 121.263,81.552L121.688,82.665L123.026,82.665L122.463,81.252C123.726,80.652 124.338,79.24 124.338,76.79L124.338,76.29C124.338,72.915 123.176,71.502 120.738,71.502C118.288,71.502 117.126,72.915 117.126,76.29L117.126,76.79C117.126,80.165 118.288,81.577 120.738,81.577ZM121.301,78.277L120.013,78.277L120.713,80.115L120.676,80.115C119.313,80.115 118.838,78.99 118.838,76.79L118.838,76.29C118.838,74.09 119.313,72.965 120.676,72.965L120.788,72.965C122.151,72.965 122.626,74.09 122.626,76.29L122.626,76.79C122.626,78.252 122.413,79.24 121.876,79.74L121.301,78.277Z" style="fill:#ecedf1;fill-rule:nonzero;"/>
        <path d="M143.598,81.253L143.598,79.791L139.835,79.791L139.835,71.503L138.16,71.503L138.16,81.253L143.598,81.253Z" style="fill:#ecedf1;fill-rule:nonzero;"/>
        <path d="M144.548,71.503L144.548,81.253L150.348,81.253L150.348,79.791L146.223,79.791L146.223,77.003L149.723,77.003L149.723,75.553L146.223,75.553L146.223,72.966L150.348,72.966L150.348,71.503L144.548,71.503Z" style="fill:#ecedf1;fill-rule:nonzero;"/>
        <path d="M155.948,81.303L158.51,71.503L156.71,71.503L154.798,79.391L152.873,71.503L151.073,71.503L153.635,81.303L155.948,81.303Z" style="fill:#ecedf1;fill-rule:nonzero;"/>
        <path d="M159.498,71.503L159.498,81.253L165.298,81.253L165.298,79.791L161.173,79.791L161.173,77.003L164.673,77.003L164.673,75.553L161.173,75.553L161.173,72.966L165.298,72.966L165.298,71.503L159.498,71.503Z" style="fill:#ecedf1;fill-rule:nonzero;"/>
        <path d="M171.998,81.253L171.998,79.791L168.235,79.791L168.235,71.503L166.56,71.503L166.56,81.253L171.998,81.253Z" style="fill:#ecedf1;fill-rule:nonzero;"/>
        <path d="M93.389,127.61L93.389,127.11C93.389,124.91 93.839,123.785 95.226,123.785L95.339,123.785C96.526,123.785 96.914,124.598 96.914,126.148L98.601,126.148L98.601,125.723C98.601,123.348 97.476,122.323 95.239,122.323C92.801,122.323 91.676,123.735 91.676,127.11L91.676,127.61C91.676,130.985 92.801,132.398 95.239,132.398C97.476,132.398 98.601,131.373 98.601,129.073L98.601,128.948L96.914,128.948C96.914,130.173 96.476,130.935 95.339,130.935L95.226,130.935C93.826,130.935 93.389,129.81 93.389,127.61Z" style="fill:#ecedf1;fill-rule:nonzero;"/>
        <path d="M103.226,132.398C105.689,132.398 106.614,131.36 106.614,129.173L106.614,122.485L104.939,122.485L104.939,129.11C104.939,130.398 104.476,130.935 103.226,130.935C101.964,130.935 101.501,130.398 101.501,129.11L101.501,122.485L99.826,122.485L99.826,129.173C99.826,131.36 100.751,132.398 103.226,132.398Z" style="fill:#ecedf1;fill-rule:nonzero;"/>
        <path d="M109.751,128.598L111.176,128.598L112.576,132.235L114.389,132.235L112.801,128.335C113.689,127.985 114.389,127.223 114.389,125.66L114.389,125.41C114.389,122.935 112.651,122.485 111.126,122.485L108.076,122.485L108.076,132.235L109.751,132.235L109.751,128.598ZM109.751,127.135L109.751,123.948L111.189,123.948C111.839,123.948 112.689,124.185 112.689,125.473L112.689,125.61C112.689,126.898 111.839,127.135 111.189,127.135L109.751,127.135Z" style="fill:#ecedf1;fill-rule:nonzero;"/>
        <path d="M120.051,132.285L122.614,122.485L120.814,122.485L118.901,130.373L116.976,122.485L115.176,122.485L117.739,132.285L120.051,132.285Z" style="fill:#ecedf1;fill-rule:nonzero;"/>
        <path d="M123.601,122.485L123.601,132.235L129.401,132.235L129.401,130.773L125.276,130.773L125.276,127.985L128.776,127.985L128.776,126.535L125.276,126.535L125.276,123.948L129.401,123.948L129.401,122.485L123.601,122.485Z" style="fill:#ecedf1;fill-rule:nonzero;"/>
        <path d="M104.601,246.43L104.601,254.555L105.997,254.555L105.997,251.013L108.841,251.013L108.841,249.805L105.997,249.805L105.997,247.649L109.362,247.649L109.362,246.43L104.601,246.43Z" style="fill:#ecedf1;fill-rule:nonzero;"/>
        <path d="M116.424,248.857L116.383,250.534L116.383,254.555L117.778,254.555L117.778,246.43L115.726,246.43L113.987,252.138L112.258,246.43L110.205,246.43L110.205,254.555L111.601,254.555L111.601,250.534L111.56,248.857L113.289,254.555L114.685,254.555L116.424,248.857Z" style="fill:#ecedf1;fill-rule:nonzero;"/>
        <rect x="105.877" y="175.846" width="1.396" height="8.125" style="fill:#ecedf1;fill-rule:nonzero;"/>
        <path d="M114.356,175.846L113.033,175.846L113.033,179.731L113.075,181.45L110.075,175.846L108.596,175.846L108.596,183.971L109.918,183.971L109.918,180.085L109.877,178.366L112.877,183.971L114.356,183.971L114.356,175.846Z" style="fill:#ecedf1;fill-rule:nonzero;"/>
        <path d="M152.391,154.336L152.391,154.086C152.391,152.986 152.616,152.423 153.31,152.423L153.366,152.423C153.96,152.423 154.153,152.829 154.153,153.604L154.997,153.604L154.997,153.392C154.997,152.204 154.435,151.692 153.316,151.692C152.097,151.692 151.535,152.398 151.535,154.086L151.535,154.336C151.535,156.023 152.097,156.729 153.316,156.729C154.435,156.729 154.997,156.217 154.997,155.067L154.997,155.004L154.153,155.004C154.153,155.617 153.935,155.998 153.366,155.998L153.31,155.998C152.61,155.998 152.391,155.436 152.391,154.336Z" style="fill:#ecedf1;fill-rule:nonzero;"/>
        <path d="M158.36,156.648L158.36,155.917L156.478,155.917L156.478,151.773L155.641,151.773L155.641,156.648L158.36,156.648Z" style="fill:#ecedf1;fill-rule:nonzero;"/>
        <rect x="158.866" y="151.773" width="0.838" height="4.875" style="fill:#ecedf1;fill-rule:nonzero;"/>
        <path d="M161.335,154.829L162.022,154.829C162.785,154.829 163.653,154.604 163.653,153.361L163.653,153.236C163.653,151.998 162.785,151.773 162.022,151.773L160.497,151.773L160.497,156.648L161.335,156.648L161.335,154.829ZM161.335,154.098L161.335,152.504L162.053,152.504C162.378,152.504 162.803,152.623 162.803,153.267L162.803,153.336C162.803,153.979 162.378,154.098 162.053,154.098L161.335,154.098Z" style="fill:#ecedf1;fill-rule:nonzero;"/>
        <path d="M151.641,160.435L151.641,165.31L152.478,165.31L152.478,163.185L154.185,163.185L154.185,162.46L152.478,162.46L152.478,161.166L154.497,161.166L154.497,160.435L151.641,160.435Z" style="fill:#ecedf1;fill-rule:nonzero;"/>
        <path d="M156.703,165.391C157.922,165.391 158.503,164.685 158.503,162.998L158.503,162.748C158.503,161.06 157.922,160.354 156.703,160.354C155.478,160.354 154.897,161.06 154.897,162.748L154.897,162.998C154.897,164.685 155.478,165.391 156.703,165.391ZM156.672,164.66C155.991,164.66 155.753,164.098 155.753,162.998L155.753,162.748C155.753,161.648 155.991,161.085 156.672,161.085L156.728,161.085C157.41,161.085 157.647,161.648 157.647,162.748L157.647,162.998C157.647,164.098 157.41,164.66 156.728,164.66L156.672,164.66Z" style="fill:#ecedf1;fill-rule:nonzero;"/>
        <path d="M161.878,165.31L161.878,164.579L159.997,164.579L159.997,160.435L159.16,160.435L159.16,165.31L161.878,165.31Z" style="fill:#ecedf1;fill-rule:nonzero;"/>
        <path d="M165.791,162.998L165.791,162.748C165.791,161.06 165.16,160.435 163.791,160.435L162.353,160.435L162.353,165.31L163.791,165.31C165.16,165.31 165.791,164.685 165.791,162.998ZM163.191,164.579L163.191,161.166L163.741,161.166C164.61,161.166 164.935,161.648 164.935,162.748L164.935,162.998C164.935,164.098 164.61,164.579 163.741,164.579L163.191,164.579Z" style="fill:#ecedf1;fill-rule:nonzero;"/>
        <path d="M154.947,173.978L156.035,173.978L156.872,169.078L155.997,169.078L155.441,172.853L154.672,169.078L153.616,169.078L152.853,172.853L152.297,169.078L151.422,169.078L152.26,173.978L153.341,173.978L154.147,170.028L154.947,173.978Z" style="fill:#ecedf1;fill-rule:nonzero;"/>
        <path d="M158.253,172.134L158.966,172.134L159.666,173.953L160.572,173.953L159.778,172.003C160.222,171.828 160.572,171.447 160.572,170.666L160.572,170.541C160.572,169.303 159.703,169.078 158.941,169.078L157.416,169.078L157.416,173.953L158.253,173.953L158.253,172.134ZM158.253,171.403L158.253,169.809L158.972,169.809C159.297,169.809 159.722,169.928 159.722,170.572L159.722,170.641C159.722,171.284 159.297,171.403 158.972,171.403L158.253,171.403Z" style="fill:#ecedf1;fill-rule:nonzero;"/>
        <path d="M162.185,169.053L160.903,173.953L161.81,173.953L162.078,172.841L163.453,172.841L163.722,173.953L164.622,173.953L163.341,169.053L162.185,169.053ZM162.766,170.009L163.272,172.109L162.253,172.109L162.766,170.009Z" style="fill:#ecedf1;fill-rule:nonzero;"/>
        <path d="M165.953,172.134L166.641,172.134C167.403,172.134 168.272,171.909 168.272,170.666L168.272,170.541C168.272,169.303 167.403,169.078 166.641,169.078L165.116,169.078L165.116,173.953L165.953,173.953L165.953,172.134ZM165.953,171.403L165.953,169.809L166.672,169.809C166.997,169.809 167.422,169.928 167.422,170.572L167.422,170.641C167.422,171.284 166.997,171.403 166.672,171.403L165.953,171.403Z" style="fill:#ecedf1;fill-rule:nonzero;"/>
        <g id="CTR">
            <circle id="Base" cx="110.126" cy="53.545" r="16.496" style="fill:none;"/>
            <circle cx="101.706" cy="67.703" r="0.911" style="fill:#ecedf1;"/>
            <circle cx="118.633" cy="67.703" r="0.911" style="fill:#ecedf1;"/>
            <path id="path89" d="M118.649,67.658C123.585,64.674 126.61,59.311 126.61,53.543C126.61,44.495 119.164,37.049 110.116,37.049C101.068,37.049 93.622,44.495 93.622,53.543C93.622,59.342 96.68,64.73 101.658,67.703" style="fill:none;fill-rule:nonzero;stroke:#ecedf1;stroke-width:0.79px;stroke-linecap:round;stroke-linejoin:round;stroke-miterlimit:4;"/>
        </g>
        <g id="CTR1" serif:id="CTR">
            <circle id="Base1" serif:id="Base" cx="155.12" cy="53.545" r="16.496" style="fill:none;"/>
            <circle cx="146.7" cy="67.703" r="0.911" style="fill:#ecedf1;"/>
            <circle cx="163.627" cy="67.703" r="0.911" style="fill:#ecedf1;"/>
            <path id="path891" serif:id="path89" d="M163.643,67.658C168.579,64.674 171.604,59.311 171.604,53.543C171.604,44.495 164.158,37.049 155.11,37.049C146.062,37.049 138.616,44.495 138.616,53.543C138.616,59.342 141.674,64.73 146.653,67.703" style="fill:none;fill-rule:nonzero;stroke:#ecedf1;stroke-width:0.79px;stroke-linecap:round;stroke-linejoin:round;stroke-miterlimit:4;"/>
        </g>
        <path d="M146.583,254.538L146.583,253.319L143.448,253.319L143.448,246.413L142.052,246.413L142.052,254.538L146.583,254.538Z" style="fill:#ecedf1;fill-rule:nonzero;"/>
        <path d="M147.375,246.413L147.375,254.538L152.208,254.538L152.208,253.319L148.771,253.319L148.771,250.996L151.687,250.996L151.687,249.788L148.771,249.788L148.771,247.632L152.208,247.632L152.208,246.413L147.375,246.413Z" style="fill:#ecedf1;fill-rule:nonzero;"/>
        <path d="M156.875,254.579L159.01,246.413L157.51,246.413L155.917,252.986L154.313,246.413L152.813,246.413L154.948,254.579L156.875,254.579Z" style="fill:#ecedf1;fill-rule:nonzero;"/>
        <path d="M159.833,246.413L159.833,254.538L164.667,254.538L164.667,253.319L161.229,253.319L161.229,250.996L164.146,250.996L164.146,249.788L161.229,249.788L161.229,247.632L164.667,247.632L164.667,246.413L159.833,246.413Z" style="fill:#ecedf1;fill-rule:nonzero;"/>
        <path d="M170.25,254.538L170.25,253.319L167.115,253.319L167.115,246.413L165.719,246.413L165.719,254.538L170.25,254.538Z" style="fill:#ecedf1;fill-rule:nonzero;"/>
        <g id="SMCTR">
            <path id="line87" d="M155.266,193.097L155.266,190.365" style="fill:none;fill-rule:nonzero;stroke:#ecedf1;stroke-width:0.61px;stroke-linecap:round;stroke-linejoin:round;stroke-miterlimit:4;"/>
            <path d="M145.434,212.026C143.332,209.687 142.052,206.594 142.052,203.205C142.052,195.917 147.969,190 155.257,190C162.545,190 168.462,195.917 168.462,203.205C168.462,206.594 167.183,209.687 165.081,212.026" style="fill:none;stroke:#ecedf1;stroke-width:0.63px;stroke-linejoin:round;"/>
            <circle cx="145.473" cy="212.13" r="0.73" style="fill:#ecedf1;"/>
            <circle cx="165.047" cy="212.13" r="0.73" style="fill:#ecedf1;"/>
        </g>
        <g id="SMCTR1" serif:id="SMCTR">
            <path id="line871" serif:id="line87" d="M111.199,194.232L111.199,191.5" style="fill:none;fill-rule:nonzero;stroke:#ecedf1;stroke-width:0.61px;stroke-linecap:round;stroke-linejoin:round;stroke-miterlimit:4;"/>
            <path d="M101.366,213.16C99.264,210.821 97.985,207.729 97.985,204.34C97.985,197.051 103.902,191.135 111.19,191.135C118.478,191.135 124.395,197.051 124.395,204.34C124.395,207.729 123.115,210.821 121.013,213.16" style="fill:none;stroke:#ecedf1;stroke-width:0.63px;stroke-linejoin:round;"/>
            <circle cx="101.405" cy="213.265" r="0.73" style="fill:#ecedf1;"/>
            <circle cx="120.979" cy="213.265" r="0.73" style="fill:#ecedf1;"/>
        </g>
        <g id="CTR2" serif:id="CTR">
            <circle id="Base2" serif:id="Base" cx="110.527" cy="104.357" r="16.496" style="fill:none;"/>
            <path id="line872" serif:id="line87" d="M110.517,87.861L110.517,84.448" style="fill:none;fill-rule:nonzero;stroke:#ecedf1;stroke-width:0.76px;stroke-linecap:round;stroke-linejoin:round;stroke-miterlimit:4;"/>
            <path id="line873" serif:id="line87" d="M110.517,87.861L110.517,84.448" style="fill:none;fill-rule:nonzero;stroke:#ecedf1;stroke-width:0.76px;stroke-linecap:round;stroke-linejoin:round;stroke-miterlimit:4;"/>
            <circle cx="102.107" cy="118.515" r="0.911" style="fill:#ecedf1;"/>
            <path id="line874" serif:id="line87" d="M126.484,100.071L129.779,99.186" style="fill:none;fill-rule:nonzero;stroke:#ecedf1;stroke-width:0.76px;stroke-linecap:round;stroke-linejoin:round;stroke-miterlimit:4;"/>
            <path id="line875" serif:id="line87" d="M94.548,100.076L91.252,99.193" style="fill:none;fill-rule:nonzero;stroke:#ecedf1;stroke-width:0.76px;stroke-linecap:round;stroke-linejoin:round;stroke-miterlimit:4;"/>
            <circle cx="119.034" cy="118.515" r="0.911" style="fill:#ecedf1;"/>
            <path id="path892" serif:id="path89" d="M119.05,118.47C123.986,115.486 127.011,110.122 127.011,104.354C127.011,95.306 119.565,87.861 110.517,87.861C101.469,87.861 94.023,95.306 94.023,104.354C94.023,110.153 97.081,115.541 102.059,118.515" style="fill:none;fill-rule:nonzero;stroke:#ecedf1;stroke-width:0.79px;stroke-linecap:round;stroke-linejoin:round;stroke-miterlimit:4;"/>
        </g>
        <g id="CTR3" serif:id="CTR">
            <circle id="Base3" serif:id="Base" cx="155.504" cy="104.357" r="16.496" style="fill:none;"/>
            <path id="line876" serif:id="line87" d="M155.494,87.861L155.494,84.448" style="fill:none;fill-rule:nonzero;stroke:#ecedf1;stroke-width:0.76px;stroke-linecap:round;stroke-linejoin:round;stroke-miterlimit:4;"/>
            <path id="line877" serif:id="line87" d="M171.425,100.076L174.721,99.191" style="fill:none;fill-rule:nonzero;stroke:#ecedf1;stroke-width:0.76px;stroke-linecap:round;stroke-linejoin:round;stroke-miterlimit:4;"/>
            <path id="line878" serif:id="line87" d="M139.56,100.087L136.264,99.204" style="fill:none;fill-rule:nonzero;stroke:#ecedf1;stroke-width:0.76px;stroke-linecap:round;stroke-linejoin:round;stroke-miterlimit:4;"/>
            <path d="M155.495,87.694L155.495,84.451" style="fill:none;stroke:#ecedf1;stroke-width:0.83px;stroke-linecap:round;"/>
            <circle cx="147.084" cy="118.515" r="0.911" style="fill:#ecedf1;"/>
            <circle cx="164.01" cy="118.515" r="0.911" style="fill:#ecedf1;"/>
            <path id="path893" serif:id="path89" d="M164.027,118.47C168.962,115.486 171.988,110.122 171.988,104.354C171.988,95.306 164.542,87.861 155.494,87.861C146.446,87.861 139,95.306 139,104.354C139,110.153 142.058,115.541 147.036,118.515" style="fill:none;fill-rule:nonzero;stroke:#ecedf1;stroke-width:0.79px;stroke-linecap:round;stroke-linejoin:round;stroke-miterlimit:4;"/>
        </g>
        <path d="M141.354,132.398C143.792,132.398 144.954,130.985 144.954,127.61L144.954,127.11C144.954,123.735 143.792,122.323 141.354,122.323C138.904,122.323 137.742,123.735 137.742,127.11L137.742,127.61C137.742,130.985 138.904,132.398 141.354,132.398ZM141.292,130.935C139.929,130.935 139.454,129.81 139.454,127.61L139.454,127.11C139.454,124.91 139.929,123.785 141.292,123.785L141.404,123.785C142.767,123.785 143.242,124.91 143.242,127.11L143.242,127.61C143.242,129.81 142.767,130.935 141.404,130.935L141.292,130.935Z" style="fill:#ecedf1;fill-rule:nonzero;"/>
        <path d="M146.267,122.485L146.267,132.235L147.942,132.235L147.942,127.985L151.354,127.985L151.354,126.535L147.942,126.535L147.942,123.948L151.979,123.948L151.979,122.485L146.267,122.485Z" style="fill:#ecedf1;fill-rule:nonzero;"/>
        <path d="M152.992,122.485L152.992,132.235L154.667,132.235L154.667,127.985L158.079,127.985L158.079,126.535L154.667,126.535L154.667,123.948L158.704,123.948L158.704,122.485L152.992,122.485Z" style="fill:#ecedf1;fill-rule:nonzero;"/>
        <path d="M162.579,127.985C164.067,128.185 164.542,128.635 164.542,129.485L164.542,129.56C164.542,130.373 163.942,130.935 162.892,130.935L162.779,130.935C161.729,130.935 161.092,130.335 161.092,128.948L159.417,128.948L159.417,129.073C159.417,131.31 160.604,132.398 162.842,132.398C165.017,132.398 166.254,131.323 166.254,129.498L166.254,129.36C166.254,127.648 165.242,126.885 163.117,126.598C161.579,126.385 161.217,125.935 161.217,125.135L161.217,125.06C161.217,124.298 161.817,123.785 162.742,123.785L162.854,123.785C164.017,123.785 164.492,124.435 164.492,125.898L166.167,125.898L166.167,125.61C166.167,123.41 165.154,122.323 162.842,122.323C160.729,122.323 159.504,123.423 159.504,125.148L159.504,125.273C159.504,126.885 160.454,127.698 162.579,127.985Z" style="fill:#ecedf1;fill-rule:nonzero;"/>
        <path d="M170.954,123.948L173.279,123.948L173.279,122.485L166.954,122.485L166.954,123.948L169.279,123.948L169.279,132.235L170.954,132.235L170.954,123.948Z" style="fill:#ecedf1;fill-rule:nonzero;"/>
        <path d="M101.594,68.041L118.745,68.041" style="fill:none;"/>
        <path d="M170.674,148.561C170.674,147.016 169.419,145.761 167.874,145.761L135.416,145.761C133.871,145.761 132.616,147.016 132.616,148.561L132.616,177.108C132.616,178.654 133.871,179.908 135.416,179.908L167.874,179.908C169.419,179.908 170.674,178.654 170.674,177.108L170.674,148.561Z" style="fill:none;stroke:#ecedf1;stroke-width:0.63px;stroke-linejoin:round;"/>
        <path d="M110.116,37.049L110.116,35.153L155.116,35.153L155.116,36.962" style="fill:none;stroke:#ecedf1;stroke-width:0.83px;stroke-linecap:butt;"/>
    </g>
    <g id="Mockup">
        <rect x="-0" y="29.695" width="180" height="331.433" style="fill:#909090;"/>
        <g>
            <path d="M25.506,105.123L25.506,114.873L27.181,114.873L27.181,110.623L30.594,110.623L30.594,109.173L27.181,109.173L27.181,106.585L31.219,106.585L31.219,105.123L25.506,105.123Z" style="fill:#ecedf1;fill-rule:nonzero;"/>
            <path d="M33.906,111.235L35.331,111.235L36.731,114.873L38.544,114.873L36.956,110.973C37.844,110.623 38.544,109.86 38.544,108.298L38.544,108.048C38.544,105.573 36.806,105.123 35.281,105.123L32.231,105.123L32.231,114.873L33.906,114.873L33.906,111.235ZM33.906,109.773L33.906,106.585L35.344,106.585C35.994,106.585 36.844,106.823 36.844,108.11L36.844,108.248C36.844,109.535 35.994,109.773 35.344,109.773L33.906,109.773Z" style="fill:#ecedf1;fill-rule:nonzero;"/>
            <path d="M39.869,105.123L39.869,114.873L45.669,114.873L45.669,113.41L41.544,113.41L41.544,110.623L45.044,110.623L45.044,109.173L41.544,109.173L41.544,106.585L45.669,106.585L45.669,105.123L39.869,105.123Z" style="fill:#ecedf1;fill-rule:nonzero;"/>
            <path d="M50.331,115.035C50.506,115.035 50.681,115.023 50.856,115.01L51.281,116.123L52.619,116.123L52.056,114.71C53.319,114.11 53.931,112.698 53.931,110.248L53.931,109.748C53.931,106.373 52.769,104.96 50.331,104.96C47.881,104.96 46.719,106.373 46.719,109.748L46.719,110.248C46.719,113.623 47.881,115.035 50.331,115.035ZM50.894,111.735L49.606,111.735L50.306,113.573L50.269,113.573C48.906,113.573 48.431,112.448 48.431,110.248L48.431,109.748C48.431,107.548 48.906,106.423 50.269,106.423L50.381,106.423C51.744,106.423 52.219,107.548 52.219,109.748L52.219,110.248C52.219,111.71 52.006,112.698 51.469,113.198L50.894,111.735Z" style="fill:#ecedf1;fill-rule:nonzero;"/>
            <path d="M59.619,105.073L57.056,114.873L58.869,114.873L59.406,112.648L62.156,112.648L62.694,114.873L64.494,114.873L61.931,105.073L59.619,105.073ZM60.781,106.985L61.794,111.185L59.756,111.185L60.781,106.985Z" style="fill:#ecedf1;fill-rule:nonzero;"/>
            <circle cx="45" cy="76.38" r="10.292" style="fill:#fff;"/>
            <path d="M45,65.255C51.14,65.255 56.125,70.24 56.125,76.38C56.125,82.52 51.14,87.505 45,87.505C38.86,87.505 33.875,82.52 33.875,76.38C33.875,70.24 38.86,65.255 45,65.255ZM45,66.088C39.32,66.088 34.708,70.7 34.708,76.38C34.708,82.06 39.32,86.672 45,86.672C50.68,86.672 55.292,82.06 55.292,76.38C55.292,70.7 50.68,66.088 45,66.088Z" style="fill:#ecedf1;"/>
        </g>
        <g>
            <rect x="18.26" y="346.661" width="1.396" height="8.125" style="fill:#ecedf1;fill-rule:nonzero;"/>
            <path d="M26.74,346.661L25.417,346.661L25.417,350.546L25.458,352.265L22.458,346.661L20.979,346.661L20.979,354.786L22.302,354.786L22.302,350.9L22.26,349.182L25.26,354.786L26.74,354.786L26.74,346.661Z" style="fill:#ecedf1;fill-rule:nonzero;"/>
            <circle cx="22.5" cy="328.29" r="10.292" style="fill:#001f99;"/>
            <path d="M22.5,317.165C28.64,317.165 33.625,322.15 33.625,328.29C33.625,334.43 28.64,339.415 22.5,339.415C16.36,339.415 11.375,334.43 11.375,328.29C11.375,322.15 16.36,317.165 22.5,317.165ZM22.5,317.998C16.82,317.998 12.208,322.61 12.208,328.29C12.208,333.97 16.82,338.582 22.5,338.582C28.18,338.582 32.792,333.97 32.792,328.29C32.792,322.61 28.18,317.998 22.5,317.998Z" style="fill:#ecedf1;"/>
        </g>
        <g>
            <path d="M51.255,347.288L51.255,355.413L52.651,355.413L52.651,351.871L55.495,351.871L55.495,350.663L52.651,350.663L52.651,348.507L56.016,348.507L56.016,347.288L51.255,347.288Z" style="fill:#ecedf1;fill-rule:nonzero;"/>
            <path d="M58.255,352.382L59.443,352.382L60.609,355.413L62.12,355.413L60.797,352.163C61.536,351.871 62.12,351.236 62.12,349.934L62.12,349.726C62.12,347.663 60.672,347.288 59.401,347.288L56.859,347.288L56.859,355.413L58.255,355.413L58.255,352.382ZM58.255,351.163L58.255,348.507L59.453,348.507C59.995,348.507 60.703,348.705 60.703,349.778L60.703,349.892C60.703,350.965 59.995,351.163 59.453,351.163L58.255,351.163Z" style="fill:#ecedf1;fill-rule:nonzero;"/>
            <path d="M63.224,347.288L63.224,355.413L68.057,355.413L68.057,354.194L64.62,354.194L64.62,351.871L67.536,351.871L67.536,350.663L64.62,350.663L64.62,348.507L68.057,348.507L68.057,347.288L63.224,347.288Z" style="fill:#ecedf1;fill-rule:nonzero;"/>
            <path d="M71.943,355.548C72.089,355.548 72.234,355.538 72.38,355.528L72.734,356.455L73.849,356.455L73.38,355.278C74.432,354.778 74.943,353.601 74.943,351.559L74.943,351.142C74.943,348.33 73.974,347.153 71.943,347.153C69.901,347.153 68.932,348.33 68.932,351.142L68.932,351.559C68.932,354.371 69.901,355.548 71.943,355.548ZM72.411,352.798L71.339,352.798L71.922,354.33L71.891,354.33C70.755,354.33 70.359,353.392 70.359,351.559L70.359,351.142C70.359,349.309 70.755,348.371 71.891,348.371L71.984,348.371C73.12,348.371 73.516,349.309 73.516,351.142L73.516,351.559C73.516,352.778 73.339,353.601 72.891,354.017L72.411,352.798Z" style="fill:#ecedf1;fill-rule:nonzero;"/>
            <path d="M79.682,347.246L77.547,355.413L79.057,355.413L79.505,353.559L81.797,353.559L82.245,355.413L83.745,355.413L81.609,347.246L79.682,347.246ZM80.651,348.84L81.495,352.34L79.797,352.34L80.651,348.84Z" style="fill:#ecedf1;fill-rule:nonzero;"/>
            <circle cx="67.5" cy="327.248" r="10.292" style="fill:#001f99;"/>
            <path d="M67.5,316.123C73.64,316.123 78.625,321.108 78.625,327.248C78.625,333.389 73.64,338.373 67.5,338.373C61.36,338.373 56.375,333.389 56.375,327.248C56.375,321.108 61.36,316.123 67.5,316.123ZM67.5,316.957C61.82,316.957 57.208,321.568 57.208,327.248C57.208,332.929 61.82,337.54 67.5,337.54C73.18,337.54 77.792,332.929 77.792,327.248C77.792,321.568 73.18,316.957 67.5,316.957Z" style="fill:#ecedf1;"/>
        </g>
        <g>
            <path d="M96.437,346.619L96.437,354.744L97.833,354.744L97.833,351.203L100.677,351.203L100.677,349.994L97.833,349.994L97.833,347.838L101.198,347.838L101.198,346.619L96.437,346.619Z" style="fill:#ecedf1;fill-rule:nonzero;"/>
            <path d="M103.437,351.713L104.625,351.713L105.792,354.744L107.302,354.744L105.979,351.494C106.719,351.203 107.302,350.567 107.302,349.265L107.302,349.057C107.302,346.994 105.854,346.619 104.583,346.619L102.042,346.619L102.042,354.744L103.437,354.744L103.437,351.713ZM103.437,350.494L103.437,347.838L104.635,347.838C105.177,347.838 105.885,348.036 105.885,349.109L105.885,349.223C105.885,350.296 105.177,350.494 104.635,350.494L103.437,350.494Z" style="fill:#ecedf1;fill-rule:nonzero;"/>
            <path d="M108.406,346.619L108.406,354.744L113.24,354.744L113.24,353.525L109.802,353.525L109.802,351.203L112.719,351.203L112.719,349.994L109.802,349.994L109.802,347.838L113.24,347.838L113.24,346.619L108.406,346.619Z" style="fill:#ecedf1;fill-rule:nonzero;"/>
            <path d="M117.125,354.88C117.271,354.88 117.417,354.869 117.562,354.859L117.917,355.786L119.031,355.786L118.562,354.609C119.615,354.109 120.125,352.932 120.125,350.89L120.125,350.473C120.125,347.661 119.156,346.484 117.125,346.484C115.083,346.484 114.115,347.661 114.115,350.473L114.115,350.89C114.115,353.703 115.083,354.88 117.125,354.88ZM117.594,352.13L116.521,352.13L117.104,353.661L117.073,353.661C115.937,353.661 115.542,352.723 115.542,350.89L115.542,350.473C115.542,348.64 115.937,347.703 117.073,347.703L117.167,347.703C118.302,347.703 118.698,348.64 118.698,350.473L118.698,350.89C118.698,352.109 118.521,352.932 118.073,353.348L117.594,352.13Z" style="fill:#ecedf1;fill-rule:nonzero;"/>
            <path d="M123.302,346.619L123.302,354.744L125.896,354.744C127.229,354.744 128.563,354.307 128.563,352.463L128.563,352.255C128.563,351.328 128.083,350.828 127.448,350.557C127.979,350.286 128.354,349.817 128.354,349.015L128.354,348.807C128.354,347.025 127.083,346.619 125.792,346.619L123.302,346.619ZM125.948,351.192C126.552,351.192 127.146,351.463 127.146,352.307L127.146,352.421C127.146,353.255 126.552,353.525 125.948,353.525L124.698,353.525L124.698,351.192L125.948,351.192ZM125.792,347.838C126.375,347.838 126.937,348.057 126.937,348.838L126.937,348.973C126.937,349.755 126.375,349.973 125.792,349.973L124.698,349.973L124.698,347.838L125.792,347.838Z" style="fill:#ecedf1;fill-rule:nonzero;"/>
            <circle cx="112.682" cy="327.248" r="10.292" style="fill:#001f99;"/>
            <path d="M112.682,316.123C118.822,316.123 123.807,321.108 123.807,327.248C123.807,333.389 118.822,338.373 112.682,338.373C106.542,338.373 101.557,333.389 101.557,327.248C101.557,321.108 106.542,316.123 112.682,316.123ZM112.682,316.957C107.002,316.957 102.391,321.568 102.391,327.248C102.391,332.929 107.002,337.54 112.682,337.54C118.362,337.54 122.974,332.929 122.974,327.248C122.974,321.568 118.362,316.957 112.682,316.957Z" style="fill:#ecedf1;"/>
        </g>
        <g>
            <path d="M60.047,306.012L61.234,306.012L62.401,309.044L63.911,309.044L62.589,305.794C63.328,305.502 63.911,304.867 63.911,303.565L63.911,303.356C63.911,301.294 62.464,300.919 61.193,300.919L58.651,300.919L58.651,309.044L60.047,309.044L60.047,306.012ZM60.047,304.794L60.047,302.137L61.245,302.137C61.786,302.137 62.495,302.335 62.495,303.408L62.495,303.523C62.495,304.596 61.786,304.794 61.245,304.794L60.047,304.794Z" style="fill:#ecedf1;fill-rule:nonzero;"/>
            <path d="M65.016,300.919L65.016,309.044L69.849,309.044L69.849,307.825L66.411,307.825L66.411,305.502L69.328,305.502L69.328,304.294L66.411,304.294L66.411,302.137L69.849,302.137L69.849,300.919L65.016,300.919Z" style="fill:#ecedf1;fill-rule:nonzero;"/>
            <path d="M73.286,305.502C74.526,305.669 74.922,306.044 74.922,306.752L74.922,306.815C74.922,307.492 74.422,307.96 73.547,307.96L73.453,307.96C72.578,307.96 72.047,307.46 72.047,306.304L70.651,306.304L70.651,306.408C70.651,308.273 71.641,309.179 73.505,309.179C75.318,309.179 76.349,308.283 76.349,306.762L76.349,306.648C76.349,305.221 75.505,304.585 73.734,304.346C72.453,304.169 72.151,303.794 72.151,303.127L72.151,303.065C72.151,302.429 72.651,302.002 73.422,302.002L73.516,302.002C74.484,302.002 74.88,302.544 74.88,303.762L76.276,303.762L76.276,303.523C76.276,301.69 75.432,300.783 73.505,300.783C71.745,300.783 70.724,301.7 70.724,303.137L70.724,303.242C70.724,304.585 71.516,305.262 73.286,305.502Z" style="fill:#ecedf1;fill-rule:nonzero;"/>
            <circle cx="67.5" cy="282.41" r="10.292" style="fill:#001f99;"/>
            <path d="M67.5,271.285C73.64,271.285 78.625,276.27 78.625,282.41C78.625,288.55 73.64,293.535 67.5,293.535C61.36,293.535 56.375,288.55 56.375,282.41C56.375,276.27 61.36,271.285 67.5,271.285ZM67.5,272.118C61.82,272.118 57.208,276.73 57.208,282.41C57.208,288.09 61.82,292.702 67.5,292.702C73.18,292.702 77.792,288.09 77.792,282.41C77.792,276.73 73.18,272.118 67.5,272.118Z" style="fill:#ecedf1;"/>
        </g>
        <g>
            <path d="M94.01,305.664L94.01,305.248C94.01,303.414 94.385,302.477 95.542,302.477L95.635,302.477C96.625,302.477 96.948,303.154 96.948,304.446L98.354,304.446L98.354,304.091C98.354,302.112 97.417,301.258 95.552,301.258C93.521,301.258 92.583,302.435 92.583,305.248L92.583,305.664C92.583,308.477 93.521,309.654 95.552,309.654C97.417,309.654 98.354,308.8 98.354,306.883L98.354,306.779L96.948,306.779C96.948,307.8 96.583,308.435 95.635,308.435L95.542,308.435C94.375,308.435 94.01,307.498 94.01,305.664Z" style="fill:#ecedf1;fill-rule:nonzero;"/>
            <path d="M102.208,309.654C104.26,309.654 105.031,308.789 105.031,306.966L105.031,301.394L103.635,301.394L103.635,306.914C103.635,307.987 103.25,308.435 102.208,308.435C101.156,308.435 100.771,307.987 100.771,306.914L100.771,301.394L99.375,301.394L99.375,306.966C99.375,308.789 100.146,309.654 102.208,309.654Z" style="fill:#ecedf1;fill-rule:nonzero;"/>
            <path d="M107.646,306.487L108.833,306.487L110,309.519L111.51,309.519L110.187,306.269C110.927,305.977 111.51,305.341 111.51,304.039L111.51,303.831C111.51,301.769 110.062,301.394 108.792,301.394L106.25,301.394L106.25,309.519L107.646,309.519L107.646,306.487ZM107.646,305.269L107.646,302.612L108.844,302.612C109.385,302.612 110.094,302.81 110.094,303.883L110.094,303.998C110.094,305.071 109.385,305.269 108.844,305.269L107.646,305.269Z" style="fill:#ecedf1;fill-rule:nonzero;"/>
            <path d="M116.229,309.56L118.365,301.394L116.865,301.394L115.271,307.966L113.667,301.394L112.167,301.394L114.302,309.56L116.229,309.56Z" style="fill:#ecedf1;fill-rule:nonzero;"/>
            <path d="M119.187,301.394L119.187,309.519L124.021,309.519L124.021,308.3L120.583,308.3L120.583,305.977L123.5,305.977L123.5,304.769L120.583,304.769L120.583,302.612L124.021,302.612L124.021,301.394L119.187,301.394Z" style="fill:#ecedf1;fill-rule:nonzero;"/>
            <path d="M127.156,301.394L127.156,309.519L129.75,309.519C131.083,309.519 132.417,309.081 132.417,307.237L132.417,307.029C132.417,306.102 131.938,305.602 131.302,305.331C131.833,305.06 132.208,304.591 132.208,303.789L132.208,303.581C132.208,301.8 130.938,301.394 129.646,301.394L127.156,301.394ZM129.802,305.966C130.406,305.966 131,306.237 131,307.081L131,307.196C131,308.029 130.406,308.3 129.802,308.3L128.552,308.3L128.552,305.966L129.802,305.966ZM129.646,302.612C130.229,302.612 130.792,302.831 130.792,303.612L130.792,303.748C130.792,304.529 130.229,304.748 129.646,304.748L128.552,304.748L128.552,302.612L129.646,302.612Z" style="fill:#ecedf1;fill-rule:nonzero;"/>
            <circle cx="112.5" cy="282.888" r="10.292" style="fill:#001f99;"/>
            <path d="M112.5,271.763C118.64,271.763 123.625,276.748 123.625,282.888C123.625,289.028 118.64,294.013 112.5,294.013C106.36,294.013 101.375,289.028 101.375,282.888C101.375,276.748 106.36,271.763 112.5,271.763ZM112.5,272.596C106.82,272.596 102.208,277.208 102.208,282.888C102.208,288.568 106.82,293.179 112.5,293.179C118.18,293.179 122.792,288.568 122.792,282.888C122.792,277.208 118.18,272.596 112.5,272.596Z" style="fill:#ecedf1;"/>
        </g>
        <g>
            <path d="M151.592,353.88C153.623,353.88 154.592,352.703 154.592,349.89L154.592,349.473C154.592,346.661 153.623,345.484 151.592,345.484C149.551,345.484 148.582,346.661 148.582,349.473L148.582,349.89C148.582,352.703 149.551,353.88 151.592,353.88ZM151.54,352.661C150.405,352.661 150.009,351.723 150.009,349.89L150.009,349.473C150.009,347.64 150.405,346.703 151.54,346.703L151.634,346.703C152.769,346.703 153.165,347.64 153.165,349.473L153.165,349.89C153.165,351.723 152.769,352.661 151.634,352.661L151.54,352.661Z" style="fill:#ecedf1;fill-rule:nonzero;"/>
            <path d="M158.467,353.88C160.519,353.88 161.29,353.015 161.29,351.192L161.29,345.619L159.894,345.619L159.894,351.14C159.894,352.213 159.509,352.661 158.467,352.661C157.415,352.661 157.03,352.213 157.03,351.14L157.03,345.619L155.634,345.619L155.634,351.192C155.634,353.015 156.405,353.88 158.467,353.88Z" style="fill:#ecedf1;fill-rule:nonzero;"/>
            <path d="M165.405,346.838L167.342,346.838L167.342,345.619L162.071,345.619L162.071,346.838L164.009,346.838L164.009,353.744L165.405,353.744L165.405,346.838Z" style="fill:#ecedf1;fill-rule:nonzero;"/>
            <circle cx="157.5" cy="327.248" r="10.292" style="fill:#001f99;"/>
            <path d="M157.5,316.123C163.64,316.123 168.625,321.108 168.625,327.248C168.625,333.389 163.64,338.373 157.5,338.373C151.36,338.373 146.375,333.389 146.375,327.248C146.375,321.108 151.36,316.123 157.5,316.123ZM157.5,316.957C151.82,316.957 147.208,321.568 147.208,327.248C147.208,332.929 151.82,337.54 157.5,337.54C163.18,337.54 167.792,332.929 167.792,327.248C167.792,321.568 163.18,316.957 157.5,316.957Z" style="fill:#ecedf1;"/>
        </g>
        <g>
            <path d="M59.852,175.211L61.039,175.211L62.206,178.242L63.716,178.242L62.393,174.992C63.133,174.7 63.716,174.065 63.716,172.763L63.716,172.555C63.716,170.492 62.268,170.117 60.997,170.117L58.456,170.117L58.456,178.242L59.852,178.242L59.852,175.211ZM59.852,173.992L59.852,171.336L61.05,171.336C61.591,171.336 62.3,171.534 62.3,172.607L62.3,172.721C62.3,173.794 61.591,173.992 61.05,173.992L59.852,173.992Z" style="fill:#ecedf1;fill-rule:nonzero;"/>
            <path d="M64.82,170.117L64.82,178.242L69.654,178.242L69.654,177.023L66.216,177.023L66.216,174.7L69.133,174.7L69.133,173.492L66.216,173.492L66.216,171.336L69.654,171.336L69.654,170.117L64.82,170.117Z" style="fill:#ecedf1;fill-rule:nonzero;"/>
            <path d="M73.091,174.7C74.331,174.867 74.727,175.242 74.727,175.95L74.727,176.013C74.727,176.69 74.227,177.159 73.352,177.159L73.258,177.159C72.383,177.159 71.852,176.659 71.852,175.503L70.456,175.503L70.456,175.607C70.456,177.471 71.445,178.378 73.31,178.378C75.122,178.378 76.154,177.482 76.154,175.961L76.154,175.846C76.154,174.419 75.31,173.784 73.539,173.544C72.258,173.367 71.956,172.992 71.956,172.325L71.956,172.263C71.956,171.628 72.456,171.2 73.227,171.2L73.32,171.2C74.289,171.2 74.685,171.742 74.685,172.961L76.081,172.961L76.081,172.721C76.081,170.888 75.237,169.982 73.31,169.982C71.55,169.982 70.529,170.898 70.529,172.336L70.529,172.44C70.529,173.784 71.32,174.461 73.091,174.7Z" style="fill:#ecedf1;fill-rule:nonzero;"/>
            <circle cx="67.305" cy="151.75" r="10.292" style="fill:#fff;"/>
            <path d="M67.305,140.625C73.445,140.625 78.43,145.61 78.43,151.75C78.43,157.89 73.445,162.875 67.305,162.875C61.165,162.875 56.18,157.89 56.18,151.75C56.18,145.61 61.165,140.625 67.305,140.625ZM67.305,141.458C61.625,141.458 57.013,146.07 57.013,151.75C57.013,157.43 61.625,162.042 67.305,162.042C72.985,162.042 77.596,157.43 77.596,151.75C77.596,146.07 72.985,141.458 67.305,141.458Z" style="fill:#ecedf1;"/>
        </g>
        <g>
            <path d="M96.023,174.388L96.023,173.971C96.023,172.138 96.398,171.2 97.554,171.2L97.648,171.2C98.638,171.2 98.961,171.878 98.961,173.169L100.367,173.169L100.367,172.815C100.367,170.836 99.429,169.982 97.565,169.982C95.534,169.982 94.596,171.159 94.596,173.971L94.596,174.388C94.596,177.2 95.534,178.378 97.565,178.378C99.429,178.378 100.367,177.523 100.367,175.607L100.367,175.503L98.961,175.503C98.961,176.523 98.596,177.159 97.648,177.159L97.554,177.159C96.388,177.159 96.023,176.221 96.023,174.388Z" style="fill:#ecedf1;fill-rule:nonzero;"/>
            <path d="M104.221,178.378C106.273,178.378 107.044,177.513 107.044,175.69L107.044,170.117L105.648,170.117L105.648,175.638C105.648,176.711 105.263,177.159 104.221,177.159C103.169,177.159 102.784,176.711 102.784,175.638L102.784,170.117L101.388,170.117L101.388,175.69C101.388,177.513 102.159,178.378 104.221,178.378Z" style="fill:#ecedf1;fill-rule:nonzero;"/>
            <path d="M109.659,175.211L110.846,175.211L112.013,178.242L113.523,178.242L112.2,174.992C112.94,174.7 113.523,174.065 113.523,172.763L113.523,172.555C113.523,170.492 112.075,170.117 110.804,170.117L108.263,170.117L108.263,178.242L109.659,178.242L109.659,175.211ZM109.659,173.992L109.659,171.336L110.857,171.336C111.398,171.336 112.107,171.534 112.107,172.607L112.107,172.721C112.107,173.794 111.398,173.992 110.857,173.992L109.659,173.992Z" style="fill:#ecedf1;fill-rule:nonzero;"/>
            <path d="M118.242,178.284L120.377,170.117L118.877,170.117L117.284,176.69L115.679,170.117L114.179,170.117L116.315,178.284L118.242,178.284Z" style="fill:#ecedf1;fill-rule:nonzero;"/>
            <path d="M121.2,170.117L121.2,178.242L126.034,178.242L126.034,177.023L122.596,177.023L122.596,174.7L125.513,174.7L125.513,173.492L122.596,173.492L122.596,171.336L126.034,171.336L126.034,170.117L121.2,170.117Z" style="fill:#ecedf1;fill-rule:nonzero;"/>
            <path d="M129.169,170.117L129.169,178.242L131.763,178.242C133.096,178.242 134.429,177.805 134.429,175.961L134.429,175.753C134.429,174.825 133.95,174.325 133.315,174.055C133.846,173.784 134.221,173.315 134.221,172.513L134.221,172.305C134.221,170.523 132.95,170.117 131.659,170.117L129.169,170.117ZM131.815,174.69C132.419,174.69 133.013,174.961 133.013,175.805L133.013,175.919C133.013,176.753 132.419,177.023 131.815,177.023L130.565,177.023L130.565,174.69L131.815,174.69ZM131.659,171.336C132.242,171.336 132.804,171.555 132.804,172.336L132.804,172.471C132.804,173.253 132.242,173.471 131.659,173.471L130.565,173.471L130.565,171.336L131.659,171.336Z" style="fill:#ecedf1;fill-rule:nonzero;"/>
            <circle cx="112.94" cy="151.746" r="10.292" style="fill:#fff;"/>
            <path d="M112.94,140.621C119.08,140.621 124.065,145.606 124.065,151.746C124.065,157.886 119.08,162.871 112.94,162.871C106.8,162.871 101.815,157.886 101.815,151.746C101.815,145.606 106.8,140.621 112.94,140.621ZM112.94,141.455C107.26,141.455 102.648,146.066 102.648,151.746C102.648,157.427 107.26,162.038 112.94,162.038C118.62,162.038 123.231,157.427 123.231,151.746C123.231,146.066 118.62,141.455 112.94,141.455Z" style="fill:#ecedf1;"/>
        </g>
        <g>
            <path d="M52.14,228.871L53.702,228.871L55.223,225.621L56.765,228.871L58.317,228.871L56.223,224.642L58.317,220.746L56.692,220.746L55.233,223.674L53.765,220.746L52.14,220.746L54.233,224.653L52.14,228.871Z" style="fill:#ecedf1;fill-rule:nonzero;"/>
            <path d="M59.192,220.746L59.192,228.871L60.588,228.871L60.588,225.33L63.431,225.33L63.431,224.121L60.588,224.121L60.588,221.965L63.952,221.965L63.952,220.746L59.192,220.746Z" style="fill:#ecedf1;fill-rule:nonzero;"/>
            <path d="M71.015,223.174L70.973,224.851L70.973,228.871L72.369,228.871L72.369,220.746L70.317,220.746L68.577,226.455L66.848,220.746L64.796,220.746L64.796,228.871L66.192,228.871L66.192,224.851L66.15,223.174L67.879,228.871L69.275,228.871L71.015,223.174Z" style="fill:#ecedf1;fill-rule:nonzero;"/>
            <rect x="73.421" y="224.632" width="2.76" height="1.188" style="fill:#ecedf1;fill-rule:nonzero;"/>
            <path d="M77.233,220.746L77.233,228.871L79.827,228.871C81.161,228.871 82.494,228.434 82.494,226.59L82.494,226.382C82.494,225.455 82.015,224.955 81.379,224.684C81.911,224.413 82.286,223.944 82.286,223.142L82.286,222.934C82.286,221.153 81.015,220.746 79.723,220.746L77.233,220.746ZM79.879,225.319C80.483,225.319 81.077,225.59 81.077,226.434L81.077,226.549C81.077,227.382 80.483,227.653 79.879,227.653L78.629,227.653L78.629,225.319L79.879,225.319ZM79.723,221.965C80.306,221.965 80.869,222.184 80.869,222.965L80.869,223.101C80.869,223.882 80.306,224.101 79.723,224.101L78.629,224.101L78.629,221.965L79.723,221.965Z" style="fill:#ecedf1;fill-rule:nonzero;"/>
            <circle cx="68.088" cy="201.376" r="10.292" style="fill:#fff;"/>
            <path d="M68.088,190.251C74.228,190.251 79.213,195.236 79.213,201.376C79.213,207.516 74.228,212.501 68.088,212.501C61.948,212.501 56.963,207.516 56.963,201.376C56.963,195.236 61.948,190.251 68.088,190.251ZM68.088,191.084C62.408,191.084 57.796,195.696 57.796,201.376C57.796,207.056 62.408,211.667 68.088,211.667C73.768,211.667 78.379,207.056 78.379,201.376C78.379,195.696 73.768,191.084 68.088,191.084Z" style="fill:#ecedf1;"/>
        </g>
        <g>
            <path d="M104.513,222.101L106.45,222.101L106.45,220.882L101.179,220.882L101.179,222.101L103.117,222.101L103.117,229.007L104.513,229.007L104.513,222.101Z" style="fill:#ecedf1;fill-rule:nonzero;"/>
            <path d="M110.523,226.528L112.877,220.882L111.357,220.882L109.825,224.809L108.294,220.882L106.773,220.882L109.127,226.528L109.127,229.007L110.523,229.007L110.523,226.528Z" style="fill:#ecedf1;fill-rule:nonzero;"/>
            <path d="M115.034,225.976L116.179,225.976C117.45,225.976 118.898,225.601 118.898,223.528L118.898,223.319C118.898,221.257 117.45,220.882 116.179,220.882L113.638,220.882L113.638,229.007L115.034,229.007L115.034,225.976ZM115.034,224.757L115.034,222.101L116.232,222.101C116.773,222.101 117.482,222.299 117.482,223.371L117.482,223.486C117.482,224.559 116.773,224.757 116.232,224.757L115.034,224.757Z" style="fill:#ecedf1;fill-rule:nonzero;"/>
            <path d="M119.867,220.882L119.867,229.007L124.7,229.007L124.7,227.788L121.263,227.788L121.263,225.465L124.179,225.465L124.179,224.257L121.263,224.257L121.263,222.101L124.7,222.101L124.7,220.882L119.867,220.882Z" style="fill:#ecedf1;fill-rule:nonzero;"/>
            <g id="Switch">
                <path d="M114.046,194.458L113.608,194.464L115.015,192.933C115.402,192.514 115.571,192.227 115.571,191.677L115.571,191.57C115.571,190.895 115.115,190.233 113.99,190.233C112.908,190.233 112.408,190.777 112.408,191.808L112.408,191.939L113.233,191.939C113.233,191.227 113.502,190.964 113.965,190.964L114.015,190.964C114.44,190.964 114.74,191.227 114.74,191.72L114.74,191.783C114.74,192.077 114.627,192.264 114.365,192.545L112.408,194.67L112.408,195.189L115.571,195.189L115.571,194.458L114.046,194.458Z" style="fill:#ecedf1;fill-rule:nonzero;"/>
                <path d="M118.815,195.189L118.815,194.052L119.433,194.052L119.433,193.327L118.815,193.327L118.815,190.314L118.033,190.314L116.046,193.483L116.046,194.052L117.99,194.052L117.99,195.189L118.815,195.189ZM118.002,191.639L117.99,192.083L117.99,193.327L117.315,193.327L116.927,193.333L118.002,191.639Z" style="fill:#ecedf1;fill-rule:nonzero;"/>
                <path d="M123.433,192.877L123.433,192.627C123.433,190.939 122.802,190.314 121.433,190.314L119.996,190.314L119.996,195.189L121.433,195.189C122.802,195.189 123.433,194.564 123.433,192.877ZM120.833,194.458L120.833,191.045L121.383,191.045C122.252,191.045 122.577,191.527 122.577,192.627L122.577,192.877C122.577,193.977 122.252,194.458 121.383,194.458L120.833,194.458Z" style="fill:#ecedf1;fill-rule:nonzero;"/>
                <path d="M124.09,190.314L124.09,195.189L125.646,195.189C126.446,195.189 127.246,194.927 127.246,193.82L127.246,193.695C127.246,193.139 126.958,192.839 126.577,192.677C126.896,192.514 127.121,192.233 127.121,191.752L127.121,191.627C127.121,190.558 126.358,190.314 125.583,190.314L124.09,190.314ZM125.677,193.058C126.04,193.058 126.396,193.22 126.396,193.727L126.396,193.795C126.396,194.295 126.04,194.458 125.677,194.458L124.927,194.458L124.927,193.058L125.677,193.058ZM125.583,191.045C125.933,191.045 126.271,191.177 126.271,191.645L126.271,191.727C126.271,192.195 125.933,192.327 125.583,192.327L124.927,192.327L124.927,191.045L125.583,191.045Z" style="fill:#ecedf1;fill-rule:nonzero;"/>
                <path d="M115.602,203.851L115.602,203.12L114.465,203.12L114.465,198.963L113.865,198.963L112.346,200.001L112.752,200.607L113.64,200.007L113.64,203.12L112.502,203.12L112.502,203.851L115.602,203.851Z" style="fill:#ecedf1;fill-rule:nonzero;"/>
                <path d="M117.74,203.932C118.833,203.932 119.352,203.238 119.352,202.57L119.352,202.457C119.352,201.901 119.065,201.551 118.702,201.363C119.052,201.176 119.321,200.838 119.321,200.301L119.321,200.188C119.321,199.551 118.865,198.895 117.74,198.895C116.615,198.895 116.158,199.551 116.158,200.188L116.158,200.301C116.158,200.838 116.421,201.176 116.777,201.363C116.408,201.551 116.127,201.901 116.127,202.457L116.127,202.57C116.127,203.238 116.646,203.932 117.74,203.932ZM117.683,201.726L117.796,201.726C118.227,201.726 118.521,201.957 118.521,202.413L118.521,202.488C118.521,202.988 118.165,203.201 117.771,203.201L117.708,203.201C117.315,203.201 116.958,202.988 116.958,202.488L116.958,202.413C116.958,201.957 117.252,201.726 117.683,201.726ZM117.771,199.626C118.196,199.626 118.49,199.882 118.49,200.288L118.49,200.338C118.49,200.788 118.202,201.001 117.777,201.001L117.702,201.001C117.277,201.001 116.99,200.788 116.99,200.338L116.99,200.288C116.99,199.882 117.283,199.626 117.708,199.626L117.771,199.626Z" style="fill:#ecedf1;fill-rule:nonzero;"/>
                <path d="M123.433,201.538L123.433,201.288C123.433,199.601 122.802,198.976 121.433,198.976L119.996,198.976L119.996,203.851L121.433,203.851C122.802,203.851 123.433,203.226 123.433,201.538ZM120.833,203.12L120.833,199.707L121.383,199.707C122.252,199.707 122.577,200.188 122.577,201.288L122.577,201.538C122.577,202.638 122.252,203.12 121.383,203.12L120.833,203.12Z" style="fill:#ecedf1;fill-rule:nonzero;"/>
                <path d="M124.09,198.976L124.09,203.851L125.646,203.851C126.446,203.851 127.246,203.588 127.246,202.482L127.246,202.357C127.246,201.801 126.958,201.501 126.577,201.338C126.896,201.176 127.121,200.895 127.121,200.413L127.121,200.288C127.121,199.22 126.358,198.976 125.583,198.976L124.09,198.976ZM125.677,201.72C126.04,201.72 126.396,201.882 126.396,202.388L126.396,202.457C126.396,202.957 126.04,203.12 125.677,203.12L124.927,203.12L124.927,201.72L125.677,201.72ZM125.583,199.707C125.933,199.707 126.271,199.838 126.271,200.307L126.271,200.388C126.271,200.857 125.933,200.988 125.583,200.988L124.927,200.988L124.927,199.707L125.583,199.707Z" style="fill:#ecedf1;fill-rule:nonzero;"/>
                <path d="M115.602,212.494L115.602,211.763L114.465,211.763L114.465,207.606L113.865,207.606L112.346,208.644L112.752,209.25L113.64,208.65L113.64,211.763L112.502,211.763L112.502,212.494L115.602,212.494Z" style="fill:#ecedf1;fill-rule:nonzero;"/>
                <path d="M117.796,211.763L117.358,211.769L118.765,210.238C119.152,209.819 119.321,209.531 119.321,208.981L119.321,208.875C119.321,208.2 118.865,207.538 117.74,207.538C116.658,207.538 116.158,208.081 116.158,209.113L116.158,209.244L116.983,209.244C116.983,208.531 117.252,208.269 117.715,208.269L117.765,208.269C118.19,208.269 118.49,208.531 118.49,209.025L118.49,209.088C118.49,209.381 118.377,209.569 118.115,209.85L116.158,211.975L116.158,212.494L119.321,212.494L119.321,211.763L117.796,211.763Z" style="fill:#ecedf1;fill-rule:nonzero;"/>
                <path d="M123.433,210.181L123.433,209.931C123.433,208.244 122.802,207.619 121.433,207.619L119.996,207.619L119.996,212.494L121.433,212.494C122.802,212.494 123.433,211.869 123.433,210.181ZM120.833,211.763L120.833,208.35L121.383,208.35C122.252,208.35 122.577,208.831 122.577,209.931L122.577,210.181C122.577,211.281 122.252,211.763 121.383,211.763L120.833,211.763Z" style="fill:#ecedf1;fill-rule:nonzero;"/>
                <path d="M124.09,207.619L124.09,212.494L125.646,212.494C126.446,212.494 127.246,212.231 127.246,211.125L127.246,211C127.246,210.444 126.958,210.144 126.577,209.981C126.896,209.819 127.121,209.538 127.121,209.056L127.121,208.931C127.121,207.863 126.358,207.619 125.583,207.619L124.09,207.619ZM125.677,210.363C126.04,210.363 126.396,210.525 126.396,211.031L126.396,211.1C126.396,211.6 126.04,211.763 125.677,211.763L124.927,211.763L124.927,210.363L125.677,210.363ZM125.583,208.35C125.933,208.35 126.271,208.481 126.271,208.95L126.271,209.031C126.271,209.5 125.933,209.631 125.583,209.631L124.927,209.631L124.927,208.35L125.583,208.35Z" style="fill:#ecedf1;fill-rule:nonzero;"/>
                <path d="M131.529,187.102C131.529,185.557 130.274,184.302 128.729,184.302L96.271,184.302C94.726,184.302 93.471,185.557 93.471,187.102L93.471,215.649C93.471,217.194 94.726,218.449 96.271,218.449L128.729,218.449C130.274,218.449 131.529,217.194 131.529,215.649L131.529,187.102Z" style="fill:none;stroke:#ecedf1;stroke-width:0.63px;stroke-linejoin:round;"/>
                <circle id="slope" cx="103.02" cy="201.413" r="5.293" style="fill:#00f;"/>
            </g>
        </g>
        <g>
            <path d="M8.833,221.965L10.771,221.965L10.771,220.746L5.5,220.746L5.5,221.965L7.437,221.965L7.437,228.871L8.833,228.871L8.833,221.965Z" style="fill:#ecedf1;fill-rule:nonzero;"/>
            <path d="M13,225.84L14.187,225.84L15.354,228.871L16.865,228.871L15.542,225.621C16.281,225.33 16.865,224.694 16.865,223.392L16.865,223.184C16.865,221.121 15.417,220.746 14.146,220.746L11.604,220.746L11.604,228.871L13,228.871L13,225.84ZM13,224.621L13,221.965L14.198,221.965C14.74,221.965 15.448,222.163 15.448,223.236L15.448,223.351C15.448,224.424 14.74,224.621 14.198,224.621L13,224.621Z" style="fill:#ecedf1;fill-rule:nonzero;"/>
            <path d="M19.552,220.705L17.417,228.871L18.927,228.871L19.375,227.017L21.667,227.017L22.115,228.871L23.615,228.871L21.479,220.705L19.552,220.705ZM20.521,222.299L21.365,225.799L19.667,225.799L20.521,222.299Z" style="fill:#ecedf1;fill-rule:nonzero;"/>
            <path d="M25.562,225.017L25.562,224.601C25.562,222.767 25.937,221.83 27.094,221.83L27.187,221.83C28.177,221.83 28.5,222.507 28.5,223.799L29.906,223.799L29.906,223.444C29.906,221.465 28.969,220.611 27.104,220.611C25.073,220.611 24.135,221.788 24.135,224.601L24.135,225.017C24.135,227.83 25.073,229.007 27.104,229.007C28.969,229.007 29.906,228.153 29.906,226.236L29.906,226.132L28.5,226.132C28.5,227.153 28.135,227.788 27.187,227.788L27.094,227.788C25.927,227.788 25.562,226.851 25.562,225.017Z" style="fill:#ecedf1;fill-rule:nonzero;"/>
            <path d="M32.375,220.746L30.979,220.746L30.979,228.871L32.375,228.871L32.375,226.476L33.198,225.309L34.844,228.871L36.396,228.871L34.083,224.049L36.396,220.746L34.708,220.746L32.375,224.34L32.375,220.746Z" style="fill:#ecedf1;fill-rule:nonzero;"/>
            <path d="M40.937,220.705L38.802,228.871L40.312,228.871L40.76,227.017L43.052,227.017L43.5,228.871L45,228.871L42.865,220.705L40.937,220.705ZM41.906,222.299L42.75,225.799L41.052,225.799L41.906,222.299Z" style="fill:#ecedf1;fill-rule:nonzero;"/>
            <circle cx="23.552" cy="201.376" r="10.292" style="fill:#fff;"/>
            <path d="M23.552,190.251C29.692,190.251 34.677,195.236 34.677,201.376C34.677,207.516 29.692,212.501 23.552,212.501C17.412,212.501 12.427,207.516 12.427,201.376C12.427,195.236 17.412,190.251 23.552,190.251ZM23.552,191.084C17.872,191.084 13.26,195.696 13.26,201.376C13.26,207.056 17.872,211.667 23.552,211.667C29.232,211.667 33.844,207.056 33.844,201.376C33.844,195.696 29.232,191.084 23.552,191.084Z" style="fill:#ecedf1;"/>
        </g>
        <g>
            <path d="M141.266,222.228L143.203,222.228L143.203,221.009L137.932,221.009L137.932,222.228L139.87,222.228L139.87,229.134L141.266,229.134L141.266,222.228Z" style="fill:#ecedf1;fill-rule:nonzero;"/>
            <path d="M145.432,226.103L146.62,226.103L147.786,229.134L149.297,229.134L147.974,225.884C148.714,225.592 149.297,224.957 149.297,223.655L149.297,223.446C149.297,221.384 147.849,221.009 146.578,221.009L144.036,221.009L144.036,229.134L145.432,229.134L145.432,226.103ZM145.432,224.884L145.432,222.228L146.63,222.228C147.172,222.228 147.88,222.426 147.88,223.499L147.88,223.613C147.88,224.686 147.172,224.884 146.63,224.884L145.432,224.884Z" style="fill:#ecedf1;fill-rule:nonzero;"/>
            <path d="M151.984,220.967L149.849,229.134L151.359,229.134L151.807,227.28L154.099,227.28L154.547,229.134L156.047,229.134L153.911,220.967L151.984,220.967ZM152.953,222.561L153.797,226.061L152.099,226.061L152.953,222.561Z" style="fill:#ecedf1;fill-rule:nonzero;"/>
            <path d="M157.995,225.28L157.995,224.863C157.995,223.03 158.37,222.092 159.526,222.092L159.62,222.092C160.609,222.092 160.932,222.769 160.932,224.061L162.339,224.061L162.339,223.707C162.339,221.728 161.401,220.874 159.536,220.874C157.505,220.874 156.568,222.051 156.568,224.863L156.568,225.28C156.568,228.092 157.505,229.269 159.536,229.269C161.401,229.269 162.339,228.415 162.339,226.499L162.339,226.394L160.932,226.394C160.932,227.415 160.568,228.051 159.62,228.051L159.526,228.051C158.359,228.051 157.995,227.113 157.995,225.28Z" style="fill:#ecedf1;fill-rule:nonzero;"/>
            <path d="M164.807,221.009L163.411,221.009L163.411,229.134L164.807,229.134L164.807,226.738L165.63,225.571L167.276,229.134L168.828,229.134L166.516,224.311L168.828,221.009L167.141,221.009L164.807,224.603L164.807,221.009Z" style="fill:#ecedf1;fill-rule:nonzero;"/>
            <path d="M171.807,221.009L171.807,229.134L174.401,229.134C175.734,229.134 177.068,228.696 177.068,226.853L177.068,226.644C177.068,225.717 176.589,225.217 175.953,224.946C176.484,224.676 176.859,224.207 176.859,223.405L176.859,223.196C176.859,221.415 175.589,221.009 174.297,221.009L171.807,221.009ZM174.453,225.582C175.057,225.582 175.651,225.853 175.651,226.696L175.651,226.811C175.651,227.644 175.057,227.915 174.453,227.915L173.203,227.915L173.203,225.582L174.453,225.582ZM174.297,222.228C174.88,222.228 175.443,222.446 175.443,223.228L175.443,223.363C175.443,224.144 174.88,224.363 174.297,224.363L173.203,224.363L173.203,222.228L174.297,222.228Z" style="fill:#ecedf1;fill-rule:nonzero;"/>
            <circle cx="157.5" cy="201.638" r="10.292" style="fill:#fff;"/>
            <path d="M157.5,190.513C163.64,190.513 168.625,195.498 168.625,201.638C168.625,207.778 163.64,212.763 157.5,212.763C151.36,212.763 146.375,207.778 146.375,201.638C146.375,195.498 151.36,190.513 157.5,190.513ZM157.5,191.347C151.82,191.347 147.208,195.958 147.208,201.638C147.208,207.318 151.82,211.93 157.5,211.93C163.18,211.93 167.792,207.318 167.792,201.638C167.792,195.958 163.18,191.347 157.5,191.347Z" style="fill:#ecedf1;"/>
        </g>
        <g>
            <path d="M11.626,170.185L11.626,178.31L13.022,178.31L13.022,174.768L15.866,174.768L15.866,173.56L13.022,173.56L13.022,171.404L16.387,171.404L16.387,170.185L11.626,170.185Z" style="fill:#ecedf1;fill-rule:nonzero;"/>
            <path d="M23.449,172.612L23.407,174.289L23.407,178.31L24.803,178.31L24.803,170.185L22.751,170.185L21.012,175.893L19.282,170.185L17.23,170.185L17.23,178.31L18.626,178.31L18.626,174.289L18.584,172.612L20.314,178.31L21.709,178.31L23.449,172.612Z" style="fill:#ecedf1;fill-rule:nonzero;"/>
            <path d="M29.72,170.143L27.584,178.31L29.095,178.31L29.543,176.456L31.834,176.456L32.282,178.31L33.782,178.31L31.647,170.143L29.72,170.143ZM30.689,171.737L31.532,175.237L29.834,175.237L30.689,171.737Z" style="fill:#ecedf1;fill-rule:nonzero;"/>
            <circle cx="22.704" cy="151.81" r="10.292" style="fill:#fff;"/>
            <path d="M22.704,140.685C28.844,140.685 33.829,145.67 33.829,151.81C33.829,157.95 28.844,162.935 22.704,162.935C16.564,162.935 11.579,157.95 11.579,151.81C11.579,145.67 16.564,140.685 22.704,140.685ZM22.704,141.518C17.024,141.518 12.413,146.13 12.413,151.81C12.413,157.49 17.024,162.102 22.704,162.102C28.384,162.102 32.996,157.49 32.996,151.81C32.996,146.13 28.384,141.518 22.704,141.518Z" style="fill:#ecedf1;"/>
        </g>
        <g>
            <path d="M146.582,170.185L146.582,178.31L147.978,178.31L147.978,174.768L150.822,174.768L150.822,173.56L147.978,173.56L147.978,171.404L151.343,171.404L151.343,170.185L146.582,170.185Z" style="fill:#ecedf1;fill-rule:nonzero;"/>
            <path d="M158.405,172.612L158.363,174.289L158.363,178.31L159.759,178.31L159.759,170.185L157.707,170.185L155.968,175.893L154.238,170.185L152.186,170.185L152.186,178.31L153.582,178.31L153.582,174.289L153.541,172.612L155.27,178.31L156.666,178.31L158.405,172.612Z" style="fill:#ecedf1;fill-rule:nonzero;"/>
            <path d="M163.113,170.185L163.113,178.31L165.707,178.31C167.041,178.31 168.374,177.872 168.374,176.029L168.374,175.82C168.374,174.893 167.895,174.393 167.259,174.122C167.791,173.852 168.166,173.383 168.166,172.581L168.166,172.372C168.166,170.591 166.895,170.185 165.603,170.185L163.113,170.185ZM165.759,174.758C166.363,174.758 166.957,175.029 166.957,175.872L166.957,175.987C166.957,176.82 166.363,177.091 165.759,177.091L164.509,177.091L164.509,174.758L165.759,174.758ZM165.603,171.404C166.186,171.404 166.749,171.622 166.749,172.404L166.749,172.539C166.749,173.32 166.186,173.539 165.603,173.539L164.509,173.539L164.509,171.404L165.603,171.404Z" style="fill:#ecedf1;fill-rule:nonzero;"/>
            <circle cx="157.66" cy="151.814" r="10.292" style="fill:#fff;"/>
            <path d="M157.66,140.689C163.8,140.689 168.785,145.674 168.785,151.814C168.785,157.954 163.8,162.939 157.66,162.939C151.52,162.939 146.535,157.954 146.535,151.814C146.535,145.674 151.52,140.689 157.66,140.689ZM157.66,141.522C151.98,141.522 147.369,146.134 147.369,151.814C147.369,157.494 151.98,162.106 157.66,162.106C163.34,162.106 167.952,157.494 167.952,151.814C167.952,146.134 163.34,141.522 157.66,141.522Z" style="fill:#ecedf1;"/>
        </g>
        <circle cx="67.5" cy="257.042" r="5.146" style="fill:#d9107d;"/>
        <path d="M67.5,251.063C70.8,251.063 73.479,253.742 73.479,257.042C73.479,260.342 70.8,263.021 67.5,263.021C64.2,263.021 61.521,260.342 61.521,257.042C61.521,253.742 64.2,251.063 67.5,251.063ZM67.5,251.896C64.66,251.896 62.354,254.202 62.354,257.042C62.354,259.882 64.66,262.188 67.5,262.188C70.34,262.188 72.646,259.882 72.646,257.042C72.646,254.202 70.34,251.896 67.5,251.896Z" style="fill:#ecedf1;"/>
        <g>
            <path d="M3.005,301.394L3.005,309.519L4.401,309.519L4.401,305.977L7.245,305.977L7.245,304.769L4.401,304.769L4.401,302.612L7.766,302.612L7.766,301.394L3.005,301.394Z" style="fill:#ecedf1;fill-rule:nonzero;"/>
            <path d="M14.828,303.821L14.786,305.498L14.786,309.519L16.182,309.519L16.182,301.394L14.13,301.394L12.391,307.102L10.661,301.394L8.609,301.394L8.609,309.519L10.005,309.519L10.005,305.498L9.964,303.821L11.693,309.519L13.089,309.519L14.828,303.821Z" style="fill:#ecedf1;fill-rule:nonzero;"/>
            <rect x="17.234" y="305.279" width="2.76" height="1.188" style="fill:#ecedf1;fill-rule:nonzero;"/>
            <path d="M22.734,301.352L20.599,309.519L22.109,309.519L22.557,307.664L24.849,307.664L25.297,309.519L26.797,309.519L24.661,301.352L22.734,301.352ZM23.703,302.946L24.547,306.446L22.849,306.446L23.703,302.946Z" style="fill:#ecedf1;fill-rule:nonzero;"/>
            <path d="M30.953,305.664L30.953,305.248C30.953,303.414 31.328,302.477 32.484,302.477L32.578,302.477C33.568,302.477 33.891,303.154 33.891,304.446L35.297,304.446L35.297,304.091C35.297,302.112 34.359,301.258 32.495,301.258C30.464,301.258 29.526,302.435 29.526,305.248L29.526,305.664C29.526,308.477 30.464,309.654 32.495,309.654C34.359,309.654 35.297,308.8 35.297,306.883L35.297,306.779L33.891,306.779C33.891,307.8 33.526,308.435 32.578,308.435L32.484,308.435C31.318,308.435 30.953,307.498 30.953,305.664Z" style="fill:#ecedf1;fill-rule:nonzero;"/>
            <path d="M39.859,309.56L41.995,301.394L40.495,301.394L38.901,307.966L37.297,301.394L35.797,301.394L37.932,309.56L39.859,309.56Z" style="fill:#ecedf1;fill-rule:nonzero;"/>
            <circle cx="22.5" cy="282.888" r="10.292" style="fill:#001f99;"/>
            <path d="M22.5,271.763C28.64,271.763 33.625,276.748 33.625,282.888C33.625,289.028 28.64,294.013 22.5,294.013C16.36,294.013 11.375,289.028 11.375,282.888C11.375,276.748 16.36,271.763 22.5,271.763ZM22.5,272.596C16.82,272.596 12.208,277.208 12.208,282.888C12.208,288.568 16.82,293.179 22.5,293.179C28.18,293.179 32.792,288.568 32.792,282.888C32.792,277.208 28.18,272.596 22.5,272.596Z" style="fill:#ecedf1;"/>
        </g>
        <circle cx="22.5" cy="257.04" r="5.146" style="fill:#d9107d;"/>
        <path d="M22.5,251.061C25.8,251.061 28.479,253.74 28.479,257.04C28.479,260.34 25.8,263.019 22.5,263.019C19.2,263.019 16.521,260.34 16.521,257.04C16.521,253.74 19.2,251.061 22.5,251.061ZM22.5,251.894C19.66,251.894 17.354,254.2 17.354,257.04C17.354,259.88 19.66,262.186 22.5,262.186C25.34,262.186 27.646,259.88 27.646,257.04C27.646,254.2 25.34,251.894 22.5,251.894Z" style="fill:#ecedf1;"/>
        <g>
            <path d="M138.078,300.646L138.078,308.771L139.474,308.771L139.474,305.229L142.318,305.229L142.318,304.021L139.474,304.021L139.474,301.865L142.839,301.865L142.839,300.646L138.078,300.646Z" style="fill:#ecedf1;fill-rule:nonzero;"/>
            <path d="M149.901,303.073L149.859,304.75L149.859,308.771L151.255,308.771L151.255,300.646L149.203,300.646L147.464,306.354L145.734,300.646L143.682,300.646L143.682,308.771L145.078,308.771L145.078,304.75L145.036,303.073L146.766,308.771L148.161,308.771L149.901,303.073Z" style="fill:#ecedf1;fill-rule:nonzero;"/>
            <rect x="152.307" y="304.531" width="2.76" height="1.188" style="fill:#ecedf1;fill-rule:nonzero;"/>
            <path d="M156.12,300.646L156.12,308.771L158.714,308.771C160.047,308.771 161.38,308.334 161.38,306.49L161.38,306.281C161.38,305.354 160.901,304.854 160.266,304.584C160.797,304.313 161.172,303.844 161.172,303.042L161.172,302.834C161.172,301.052 159.901,300.646 158.609,300.646L156.12,300.646ZM158.766,305.219C159.37,305.219 159.964,305.49 159.964,306.334L159.964,306.448C159.964,307.281 159.37,307.552 158.766,307.552L157.516,307.552L157.516,305.219L158.766,305.219ZM158.609,301.865C159.193,301.865 159.755,302.084 159.755,302.865L159.755,303C159.755,303.781 159.193,304 158.609,304L157.516,304L157.516,301.865L158.609,301.865Z" style="fill:#ecedf1;fill-rule:nonzero;"/>
            <path d="M165.88,304.917L165.88,304.5C165.88,302.667 166.255,301.729 167.411,301.729L167.505,301.729C168.495,301.729 168.818,302.406 168.818,303.698L170.224,303.698L170.224,303.344C170.224,301.365 169.286,300.511 167.422,300.511C165.391,300.511 164.453,301.688 164.453,304.5L164.453,304.917C164.453,307.729 165.391,308.906 167.422,308.906C169.286,308.906 170.224,308.052 170.224,306.136L170.224,306.031L168.818,306.031C168.818,307.052 168.453,307.688 167.505,307.688L167.411,307.688C166.245,307.688 165.88,306.75 165.88,304.917Z" style="fill:#ecedf1;fill-rule:nonzero;"/>
            <path d="M174.786,308.813L176.922,300.646L175.422,300.646L173.828,307.219L172.224,300.646L170.724,300.646L172.859,308.813L174.786,308.813Z" style="fill:#ecedf1;fill-rule:nonzero;"/>
            <circle cx="157.5" cy="282.888" r="10.292" style="fill:#001f99;"/>
            <path d="M157.5,271.763C163.64,271.763 168.625,276.748 168.625,282.888C168.625,289.028 163.64,294.013 157.5,294.013C151.36,294.013 146.375,289.028 146.375,282.888C146.375,276.748 151.36,271.763 157.5,271.763ZM157.5,272.596C151.82,272.596 147.208,277.208 147.208,282.888C147.208,288.568 151.82,293.179 157.5,293.179C163.18,293.179 167.792,288.568 167.792,282.888C167.792,277.208 163.18,272.596 157.5,272.596Z" style="fill:#ecedf1;"/>
        </g>
        <circle cx="157.573" cy="257.042" r="5.146" style="fill:#d9107d;"/>
        <path d="M157.573,251.063C160.873,251.063 163.552,253.742 163.552,257.042C163.552,260.342 160.873,263.021 157.573,263.021C154.273,263.021 151.594,260.342 151.594,257.042C151.594,253.742 154.273,251.063 157.573,251.063ZM157.573,251.896C154.733,251.896 152.427,254.202 152.427,257.042C152.427,259.882 154.733,262.188 157.573,262.188C160.413,262.188 162.719,259.882 162.719,257.042C162.719,254.202 160.413,251.896 157.573,251.896Z" style="fill:#ecedf1;"/>
        <circle cx="112.5" cy="257.042" r="5.146" style="fill:#d9107d;"/>
        <path d="M112.5,251.063C115.8,251.063 118.479,253.742 118.479,257.042C118.479,260.342 115.8,263.021 112.5,263.021C109.2,263.021 106.521,260.342 106.521,257.042C106.521,253.742 109.2,251.063 112.5,251.063ZM112.5,251.896C109.66,251.896 107.354,254.202 107.354,257.042C107.354,259.882 109.66,262.188 112.5,262.188C115.34,262.188 117.646,259.882 117.646,257.042C117.646,254.202 115.34,251.896 112.5,251.896Z" style="fill:#ecedf1;"/>
        <g>
            <path d="M115.907,104.123L115.907,113.873L117.582,113.873L117.582,109.623L120.995,109.623L120.995,108.173L117.582,108.173L117.582,105.585L121.62,105.585L121.62,104.123L115.907,104.123Z" style="fill:#ecedf1;fill-rule:nonzero;"/>
            <path d="M124.307,110.235L125.732,110.235L127.132,113.873L128.945,113.873L127.357,109.973C128.245,109.623 128.945,108.86 128.945,107.298L128.945,107.048C128.945,104.573 127.207,104.123 125.682,104.123L122.632,104.123L122.632,113.873L124.307,113.873L124.307,110.235ZM124.307,108.773L124.307,105.585L125.745,105.585C126.395,105.585 127.245,105.823 127.245,107.11L127.245,107.248C127.245,108.535 126.395,108.773 125.745,108.773L124.307,108.773Z" style="fill:#ecedf1;fill-rule:nonzero;"/>
            <path d="M130.27,104.123L130.27,113.873L136.07,113.873L136.07,112.41L131.945,112.41L131.945,109.623L135.445,109.623L135.445,108.173L131.945,108.173L131.945,105.585L136.07,105.585L136.07,104.123L130.27,104.123Z" style="fill:#ecedf1;fill-rule:nonzero;"/>
            <path d="M140.732,114.035C140.907,114.035 141.082,114.023 141.257,114.01L141.682,115.123L143.02,115.123L142.457,113.71C143.72,113.11 144.332,111.698 144.332,109.248L144.332,108.748C144.332,105.373 143.17,103.96 140.732,103.96C138.282,103.96 137.12,105.373 137.12,108.748L137.12,109.248C137.12,112.623 138.282,114.035 140.732,114.035ZM141.295,110.735L140.007,110.735L140.707,112.573L140.67,112.573C139.307,112.573 138.832,111.448 138.832,109.248L138.832,108.748C138.832,106.548 139.307,105.423 140.67,105.423L140.782,105.423C142.145,105.423 142.62,106.548 142.62,108.748L142.62,109.248C142.62,110.71 142.407,111.698 141.87,112.198L141.295,110.735Z" style="fill:#ecedf1;fill-rule:nonzero;"/>
            <path d="M148.145,104.123L148.145,113.873L151.257,113.873C152.857,113.873 154.457,113.348 154.457,111.135L154.457,110.885C154.457,109.773 153.882,109.173 153.12,108.848C153.757,108.523 154.207,107.96 154.207,106.998L154.207,106.748C154.207,104.61 152.682,104.123 151.132,104.123L148.145,104.123ZM151.32,109.61C152.045,109.61 152.757,109.935 152.757,110.948L152.757,111.085C152.757,112.085 152.045,112.41 151.32,112.41L149.82,112.41L149.82,109.61L151.32,109.61ZM151.132,105.585C151.832,105.585 152.507,105.848 152.507,106.785L152.507,106.948C152.507,107.885 151.832,108.148 151.132,108.148L149.82,108.148L149.82,105.585L151.132,105.585Z" style="fill:#ecedf1;fill-rule:nonzero;"/>
            <circle cx="135.182" cy="76.377" r="10.292" style="fill:#fff;"/>
            <path d="M135.182,65.252C141.322,65.252 146.307,70.237 146.307,76.377C146.307,82.517 141.322,87.502 135.182,87.502C129.042,87.502 124.057,82.517 124.057,76.377C124.057,70.237 129.042,65.252 135.182,65.252ZM135.182,66.085C129.502,66.085 124.891,70.697 124.891,76.377C124.891,82.057 129.502,86.669 135.182,86.669C140.862,86.669 145.474,82.057 145.474,76.377C145.474,70.697 140.862,66.085 135.182,66.085Z" style="fill:#ecedf1;"/>
        </g>
    </g>
</svg>
