<?xml version="1.0" encoding="UTF-8" standalone="no"?>
<!DOCTYPE svg PUBLIC "-//W3C//DTD SVG 1.1//EN" "http://www.w3.org/Graphics/SVG/1.1/DTD/svg11.dtd">
<svg width="100%" height="100%" viewBox="0 0 180 380" version="1.1" xmlns="http://www.w3.org/2000/svg" xmlns:xlink="http://www.w3.org/1999/xlink" xml:space="preserve" xmlns:serif="http://www.serif.com/" style="fill-rule:evenodd;clip-rule:evenodd;stroke-linejoin:round;stroke-miterlimit:1.5;">
    <g id="Layer1">
        <rect x="-0" y="0" width="180" height="380" style="fill:#909090;"/>
        <g>
            <path d="M10.083,90.312C35.494,85.327 50.271,36.574 68.085,38.271C80.689,39.472 76.571,78.341 154.336,88.279" style="fill:none;stroke:#fff;stroke-width:0.83px;stroke-linecap:round;"/>
            <path d="M10.083,87.312C35.494,82.327 50.271,33.574 68.085,35.271C80.689,36.472 76.571,75.341 154.336,85.279" style="fill:none;stroke:#fff;stroke-width:0.83px;stroke-linecap:round;"/>
            <path d="M10.083,93.312C35.494,88.327 50.271,39.574 68.085,41.271C80.689,42.472 76.571,81.341 154.336,91.279" style="fill:none;stroke:#fff;stroke-width:0.83px;stroke-linecap:round;"/>
            <path d="M10.083,96.312C35.494,91.327 50.271,42.574 68.085,44.271C80.689,45.472 76.571,84.341 154.336,94.279" style="fill:none;stroke:#fff;stroke-width:0.83px;stroke-linecap:round;"/>
            <path d="M28.625,90.249C92.982,92.38 96.92,35.319 116.59,38.391C128.742,40.289 141.925,85.262 173.582,90.312" style="fill:none;stroke:#fff;stroke-width:0.83px;stroke-linecap:round;"/>
            <path d="M28.625,93.249C92.982,95.38 96.92,38.319 116.59,41.391C128.742,43.289 141.925,88.262 173.582,93.312" style="fill:none;stroke:#fff;stroke-width:0.83px;stroke-linecap:round;"/>
            <path d="M28.625,86.249C92.982,88.38 96.92,31.319 116.59,34.391C128.742,36.289 141.925,81.262 173.582,86.312" style="fill:none;stroke:#fff;stroke-width:0.83px;stroke-linecap:round;"/>
            <path d="M28.625,97.249C92.982,99.38 96.92,42.319 116.59,45.391C128.742,47.289 141.925,92.262 173.582,97.312" style="fill:none;stroke:#fff;stroke-width:0.83px;stroke-linecap:round;"/>
        </g>
        <path d="M173.25,317.8C173.25,316.255 171.995,315 170.45,315L144.55,315C143.005,315 141.75,316.255 141.75,317.8L141.75,352.2C141.75,353.745 143.005,355 144.55,355L170.45,355C171.995,355 173.25,353.745 173.25,352.2L173.25,317.8Z" style="fill:#ab5b87;"/>
        <path d="M0,25L180,25" style="fill:none;stroke:#ecedf1;stroke-width:0.83px;"/>
        <path d="M151.13,352.355C153.161,352.355 154.13,351.178 154.13,348.365L154.13,347.949C154.13,345.136 153.161,343.959 151.13,343.959C149.089,343.959 148.12,345.136 148.12,347.949L148.12,348.365C148.12,351.178 149.089,352.355 151.13,352.355ZM151.078,351.136C149.943,351.136 149.547,350.199 149.547,348.365L149.547,347.949C149.547,346.115 149.943,345.178 151.078,345.178L151.172,345.178C152.307,345.178 152.703,346.115 152.703,347.949L152.703,348.365C152.703,350.199 152.307,351.136 151.172,351.136L151.078,351.136Z" style="fill:#ecedf1;fill-rule:nonzero;"/>
        <path d="M158.005,352.355C160.057,352.355 160.828,351.49 160.828,349.667L160.828,344.094L159.432,344.094L159.432,349.615C159.432,350.688 159.047,351.136 158.005,351.136C156.953,351.136 156.568,350.688 156.568,349.615L156.568,344.094L155.172,344.094L155.172,349.667C155.172,351.49 155.943,352.355 158.005,352.355Z" style="fill:#ecedf1;fill-rule:nonzero;"/>
        <path d="M164.943,345.313L166.88,345.313L166.88,344.094L161.609,344.094L161.609,345.313L163.547,345.313L163.547,352.219L164.943,352.219L164.943,345.313Z" style="fill:#ecedf1;fill-rule:nonzero;"/>
        <path d="M96.437,344.094L96.437,352.219L97.833,352.219L97.833,348.678L100.677,348.678L100.677,347.469L97.833,347.469L97.833,345.313L101.198,345.313L101.198,344.094L96.437,344.094Z" style="fill:#ecedf1;fill-rule:nonzero;"/>
        <path d="M103.437,349.188L104.625,349.188L105.792,352.219L107.302,352.219L105.979,348.969C106.719,348.678 107.302,348.042 107.302,346.74L107.302,346.532C107.302,344.469 105.854,344.094 104.583,344.094L102.042,344.094L102.042,352.219L103.437,352.219L103.437,349.188ZM103.437,347.969L103.437,345.313L104.635,345.313C105.177,345.313 105.885,345.511 105.885,346.584L105.885,346.699C105.885,347.771 105.177,347.969 104.635,347.969L103.437,347.969Z" style="fill:#ecedf1;fill-rule:nonzero;"/>
        <path d="M108.406,344.094L108.406,352.219L113.24,352.219L113.24,351.001L109.802,351.001L109.802,348.678L112.719,348.678L112.719,347.469L109.802,347.469L109.802,345.313L113.24,345.313L113.24,344.094L108.406,344.094Z" style="fill:#ecedf1;fill-rule:nonzero;"/>
        <path d="M117.125,352.355C117.271,352.355 117.417,352.344 117.562,352.334L117.917,353.261L119.031,353.261L118.562,352.084C119.615,351.584 120.125,350.407 120.125,348.365L120.125,347.949C120.125,345.136 119.156,343.959 117.125,343.959C115.083,343.959 114.115,345.136 114.115,347.949L114.115,348.365C114.115,351.178 115.083,352.355 117.125,352.355ZM117.594,349.605L116.521,349.605L117.104,351.136L117.073,351.136C115.937,351.136 115.542,350.199 115.542,348.365L115.542,347.949C115.542,346.115 115.937,345.178 117.073,345.178L117.167,345.178C118.302,345.178 118.698,346.115 118.698,347.949L118.698,348.365C118.698,349.584 118.521,350.407 118.073,350.824L117.594,349.605Z" style="fill:#ecedf1;fill-rule:nonzero;"/>
        <path d="M123.302,344.094L123.302,352.219L125.896,352.219C127.229,352.219 128.562,351.782 128.562,349.938L128.562,349.73C128.562,348.803 128.083,348.303 127.448,348.032C127.979,347.761 128.354,347.292 128.354,346.49L128.354,346.282C128.354,344.501 127.083,344.094 125.792,344.094L123.302,344.094ZM125.948,348.667C126.552,348.667 127.146,348.938 127.146,349.782L127.146,349.896C127.146,350.73 126.552,351.001 125.948,351.001L124.698,351.001L124.698,348.667L125.948,348.667ZM125.792,345.313C126.375,345.313 126.937,345.532 126.937,346.313L126.937,346.449C126.937,347.23 126.375,347.449 125.792,347.449L124.698,347.449L124.698,345.313L125.792,345.313Z" style="fill:#ecedf1;fill-rule:nonzero;"/>
        <path d="M51.437,344.094L51.437,352.219L52.833,352.219L52.833,348.678L55.677,348.678L55.677,347.469L52.833,347.469L52.833,345.313L56.198,345.313L56.198,344.094L51.437,344.094Z" style="fill:#ecedf1;fill-rule:nonzero;"/>
        <path d="M58.437,349.188L59.625,349.188L60.792,352.219L62.302,352.219L60.979,348.969C61.719,348.678 62.302,348.042 62.302,346.74L62.302,346.532C62.302,344.469 60.854,344.094 59.583,344.094L57.042,344.094L57.042,352.219L58.437,352.219L58.437,349.188ZM58.437,347.969L58.437,345.313L59.635,345.313C60.177,345.313 60.885,345.511 60.885,346.584L60.885,346.699C60.885,347.771 60.177,347.969 59.635,347.969L58.437,347.969Z" style="fill:#ecedf1;fill-rule:nonzero;"/>
        <path d="M63.406,344.094L63.406,352.219L68.24,352.219L68.24,351.001L64.802,351.001L64.802,348.678L67.719,348.678L67.719,347.469L64.802,347.469L64.802,345.313L68.24,345.313L68.24,344.094L63.406,344.094Z" style="fill:#ecedf1;fill-rule:nonzero;"/>
        <path d="M72.125,352.355C72.271,352.355 72.417,352.344 72.562,352.334L72.917,353.261L74.031,353.261L73.562,352.084C74.615,351.584 75.125,350.407 75.125,348.365L75.125,347.949C75.125,345.136 74.156,343.959 72.125,343.959C70.083,343.959 69.115,345.136 69.115,347.949L69.115,348.365C69.115,351.178 70.083,352.355 72.125,352.355ZM72.594,349.605L71.521,349.605L72.104,351.136L72.073,351.136C70.937,351.136 70.542,350.199 70.542,348.365L70.542,347.949C70.542,346.115 70.937,345.178 72.073,345.178L72.167,345.178C73.302,345.178 73.698,346.115 73.698,347.949L73.698,348.365C73.698,349.584 73.521,350.407 73.073,350.824L72.594,349.605Z" style="fill:#ecedf1;fill-rule:nonzero;"/>
        <path d="M79.865,344.053L77.729,352.219L79.24,352.219L79.687,350.365L81.979,350.365L82.427,352.219L83.927,352.219L81.792,344.053L79.865,344.053ZM80.833,345.646L81.677,349.146L79.979,349.146L80.833,345.646Z" style="fill:#ecedf1;fill-rule:nonzero;"/>
        <path d="M86.926,152.088L79.614,152.727C79.12,147.087 74.799,142.534 69.192,141.746L70.214,134.477C79.205,135.74 86.134,143.042 86.926,152.088Z" style="fill:#ab5b87;"/>
        <path d="M86.995,152.876L79.683,153.516C79.247,153.554 78.863,153.232 78.825,152.796C78.364,147.523 74.324,143.266 69.082,142.529C68.649,142.469 68.348,142.068 68.408,141.635L69.43,134.367C69.491,133.934 69.891,133.632 70.324,133.693C79.68,135.008 86.891,142.606 87.714,152.019C87.753,152.454 87.43,152.838 86.995,152.876ZM86.926,152.088C86.134,143.042 79.205,135.74 70.214,134.477L69.192,141.746C74.799,142.534 79.12,147.087 79.614,152.727L86.926,152.088Z" style="fill:#ab5b87;"/>
        <g id="CTR">
            <circle id="Base" cx="45.007" cy="78.875" r="30.493" style="fill:none;"/>
            <path id="path89" d="M60.147,103.946C59.586,104.285 59.406,105.016 59.745,105.577C60.084,106.138 60.815,106.318 61.376,105.979C61.937,105.64 62.117,104.909 61.778,104.348C61.439,103.787 60.708,103.607 60.147,103.946Z" style="fill:#ecedf1;fill-rule:nonzero;"/>
            <path d="M29.964,104.027C30.526,104.363 30.71,105.092 30.374,105.655C30.038,106.218 29.309,106.402 28.746,106.066C28.183,105.73 27.999,105 28.335,104.437C28.671,103.875 29.401,103.691 29.964,104.027Z" style="fill:#ecedf1;fill-rule:nonzero;"/>
            <path d="M60.761,104.963C69.885,99.447 75.477,89.532 75.477,78.871C75.477,62.145 61.714,48.382 44.989,48.382C28.263,48.382 14.5,62.145 14.5,78.871C14.5,89.59 20.153,99.55 29.355,105.046" style="fill:none;fill-rule:nonzero;stroke:#ecedf1;stroke-width:0.79px;stroke-linecap:round;stroke-miterlimit:4;"/>
        </g>
        <g id="CTR1" serif:id="CTR">
            <circle id="Base1" serif:id="Base" cx="135.007" cy="78.875" r="30.493" style="fill:none;"/>
            <path id="path891" serif:id="path89" d="M150.147,103.946C149.586,104.285 149.406,105.016 149.745,105.577C150.084,106.138 150.815,106.318 151.376,105.979C151.937,105.64 152.117,104.909 151.778,104.348C151.439,103.787 150.708,103.607 150.147,103.946Z" style="fill:#ecedf1;fill-rule:nonzero;"/>
            <path d="M119.964,104.027C120.526,104.363 120.71,105.092 120.374,105.655C120.038,106.218 119.309,106.402 118.746,106.066C118.183,105.73 117.999,105 118.335,104.437C118.671,103.875 119.401,103.691 119.964,104.027Z" style="fill:#ecedf1;fill-rule:nonzero;"/>
            <path d="M150.761,104.963C159.885,99.447 165.477,89.532 165.477,78.871C165.477,62.145 151.714,48.382 134.989,48.382C118.263,48.382 104.5,62.145 104.5,78.871C104.5,89.59 110.153,99.55 119.355,105.046" style="fill:none;fill-rule:nonzero;stroke:#ecedf1;stroke-width:0.79px;stroke-linecap:round;stroke-miterlimit:4;"/>
        </g>
        <rect x="18.26" y="343.959" width="1.396" height="8.125" style="fill:#ecedf1;fill-rule:nonzero;"/>
        <path d="M26.74,343.959L25.417,343.959L25.417,347.844L25.458,349.563L22.458,343.959L20.979,343.959L20.979,352.084L22.302,352.084L22.302,348.199L22.26,346.48L25.26,352.084L26.74,352.084L26.74,343.959Z" style="fill:#ecedf1;fill-rule:nonzero;"/>
        <path d="M138.172,294.844L138.172,302.969L139.568,302.969L139.568,299.428L142.411,299.428L142.411,298.219L139.568,298.219L139.568,296.063L142.932,296.063L142.932,294.844L138.172,294.844Z" style="fill:#ecedf1;fill-rule:nonzero;"/>
        <path d="M149.995,297.271L149.953,298.949L149.953,302.969L151.349,302.969L151.349,294.844L149.297,294.844L147.557,300.553L145.828,294.844L143.776,294.844L143.776,302.969L145.172,302.969L145.172,298.949L145.13,297.271L146.859,302.969L148.255,302.969L149.995,297.271Z" style="fill:#ecedf1;fill-rule:nonzero;"/>
        <rect x="152.401" y="298.73" width="2.76" height="1.188" style="fill:#ecedf1;fill-rule:nonzero;"/>
        <path d="M156.214,294.844L156.214,302.969L158.807,302.969C160.141,302.969 161.474,302.532 161.474,300.688L161.474,300.48C161.474,299.553 160.995,299.053 160.359,298.782C160.891,298.511 161.266,298.042 161.266,297.24L161.266,297.032C161.266,295.251 159.995,294.844 158.703,294.844L156.214,294.844ZM158.859,299.417C159.464,299.417 160.057,299.688 160.057,300.532L160.057,300.646C160.057,301.48 159.464,301.751 158.859,301.751L157.609,301.751L157.609,299.417L158.859,299.417ZM158.703,296.063C159.286,296.063 159.849,296.282 159.849,297.063L159.849,297.199C159.849,297.98 159.286,298.199 158.703,298.199L157.609,298.199L157.609,296.063L158.703,296.063Z" style="fill:#ecedf1;fill-rule:nonzero;"/>
        <path d="M165.974,299.115L165.974,298.699C165.974,296.865 166.349,295.928 167.505,295.928L167.599,295.928C168.589,295.928 168.911,296.605 168.911,297.896L170.318,297.896L170.318,297.542C170.318,295.563 169.38,294.709 167.516,294.709C165.484,294.709 164.547,295.886 164.547,298.699L164.547,299.115C164.547,301.928 165.484,303.105 167.516,303.105C169.38,303.105 170.318,302.251 170.318,300.334L170.318,300.23L168.911,300.23C168.911,301.251 168.547,301.886 167.599,301.886L167.505,301.886C166.339,301.886 165.974,300.949 165.974,299.115Z" style="fill:#ecedf1;fill-rule:nonzero;"/>
        <path d="M174.88,303.011L177.016,294.844L175.516,294.844L173.922,301.417L172.318,294.844L170.818,294.844L172.953,303.011L174.88,303.011Z" style="fill:#ecedf1;fill-rule:nonzero;"/>
        <path d="M99.344,302.969L99.344,301.751L96.208,301.751L96.208,294.844L94.812,294.844L94.812,302.969L99.344,302.969Z" style="fill:#ecedf1;fill-rule:nonzero;"/>
        <path d="M101.531,299.938L102.677,299.938C103.948,299.938 105.396,299.563 105.396,297.49L105.396,297.282C105.396,295.219 103.948,294.844 102.677,294.844L100.135,294.844L100.135,302.969L101.531,302.969L101.531,299.938ZM101.531,298.719L101.531,296.063L102.729,296.063C103.271,296.063 103.979,296.261 103.979,297.334L103.979,297.449C103.979,298.521 103.271,298.719 102.729,298.719L101.531,298.719Z" style="fill:#ecedf1;fill-rule:nonzero;"/>
        <rect x="106.146" y="298.73" width="2.76" height="1.188" style="fill:#ecedf1;fill-rule:nonzero;"/>
        <path d="M112.854,296.063L114.792,296.063L114.792,294.844L109.521,294.844L109.521,296.063L111.458,296.063L111.458,302.969L112.854,302.969L112.854,296.063Z" style="fill:#ecedf1;fill-rule:nonzero;"/>
        <path d="M121.01,303.011L122.823,303.011L124.219,294.844L122.76,294.844L121.833,301.136L120.552,294.844L118.792,294.844L117.521,301.136L116.594,294.844L115.135,294.844L116.531,303.011L118.333,303.011L119.677,296.428L121.01,303.011Z" style="fill:#ecedf1;fill-rule:nonzero;"/>
        <path d="M126.521,299.938L127.667,299.938C128.937,299.938 130.385,299.563 130.385,297.49L130.385,297.282C130.385,295.219 128.937,294.844 127.667,294.844L125.125,294.844L125.125,302.969L126.521,302.969L126.521,299.938ZM126.521,298.719L126.521,296.063L127.719,296.063C128.26,296.063 128.969,296.261 128.969,297.334L128.969,297.449C128.969,298.521 128.26,298.719 127.719,298.719L126.521,298.719Z" style="fill:#ecedf1;fill-rule:nonzero;"/>
        <path d="M60.13,299.938L61.318,299.938L62.484,302.969L63.995,302.969L62.672,299.719C63.411,299.428 63.995,298.792 63.995,297.49L63.995,297.282C63.995,295.219 62.547,294.844 61.276,294.844L58.734,294.844L58.734,302.969L60.13,302.969L60.13,299.938ZM60.13,298.719L60.13,296.063L61.328,296.063C61.87,296.063 62.578,296.261 62.578,297.334L62.578,297.449C62.578,298.521 61.87,298.719 61.328,298.719L60.13,298.719Z" style="fill:#ecedf1;fill-rule:nonzero;"/>
        <path d="M65.099,294.844L65.099,302.969L69.932,302.969L69.932,301.751L66.495,301.751L66.495,299.428L69.411,299.428L69.411,298.219L66.495,298.219L66.495,296.063L69.932,296.063L69.932,294.844L65.099,294.844Z" style="fill:#ecedf1;fill-rule:nonzero;"/>
        <path d="M73.37,299.428C74.609,299.594 75.005,299.969 75.005,300.678L75.005,300.74C75.005,301.417 74.505,301.886 73.63,301.886L73.536,301.886C72.661,301.886 72.13,301.386 72.13,300.23L70.734,300.23L70.734,300.334C70.734,302.199 71.724,303.105 73.589,303.105C75.401,303.105 76.432,302.209 76.432,300.688L76.432,300.574C76.432,299.146 75.589,298.511 73.818,298.271C72.536,298.094 72.234,297.719 72.234,297.053L72.234,296.99C72.234,296.355 72.734,295.928 73.505,295.928L73.599,295.928C74.568,295.928 74.964,296.469 74.964,297.688L76.359,297.688L76.359,297.449C76.359,295.615 75.516,294.709 73.589,294.709C71.828,294.709 70.807,295.626 70.807,297.063L70.807,297.167C70.807,298.511 71.599,299.188 73.37,299.428Z" style="fill:#ecedf1;fill-rule:nonzero;"/>
        <path d="M3.203,294.709L3.203,302.834L4.599,302.834L4.599,299.292L7.443,299.292L7.443,298.084L4.599,298.084L4.599,295.928L7.964,295.928L7.964,294.709L3.203,294.709Z" style="fill:#ecedf1;fill-rule:nonzero;"/>
        <path d="M15.026,297.136L14.984,298.813L14.984,302.834L16.38,302.834L16.38,294.709L14.328,294.709L12.589,300.417L10.859,294.709L8.807,294.709L8.807,302.834L10.203,302.834L10.203,298.813L10.161,297.136L11.891,302.834L13.286,302.834L15.026,297.136Z" style="fill:#ecedf1;fill-rule:nonzero;"/>
        <rect x="17.432" y="298.594" width="2.76" height="1.188" style="fill:#ecedf1;fill-rule:nonzero;"/>
        <path d="M22.932,294.667L20.797,302.834L22.307,302.834L22.755,300.98L25.047,300.98L25.495,302.834L26.995,302.834L24.859,294.667L22.932,294.667ZM23.901,296.261L24.745,299.761L23.047,299.761L23.901,296.261Z" style="fill:#ecedf1;fill-rule:nonzero;"/>
        <path d="M31.151,298.98L31.151,298.563C31.151,296.73 31.526,295.792 32.682,295.792L32.776,295.792C33.766,295.792 34.089,296.469 34.089,297.761L35.495,297.761L35.495,297.407C35.495,295.428 34.557,294.574 32.693,294.574C30.661,294.574 29.724,295.751 29.724,298.563L29.724,298.98C29.724,301.792 30.661,302.969 32.693,302.969C34.557,302.969 35.495,302.115 35.495,300.199L35.495,300.094L34.089,300.094C34.089,301.115 33.724,301.751 32.776,301.751L32.682,301.751C31.516,301.751 31.151,300.813 31.151,298.98Z" style="fill:#ecedf1;fill-rule:nonzero;"/>
        <path d="M40.057,302.876L42.193,294.709L40.693,294.709L39.099,301.282L37.495,294.709L35.995,294.709L38.13,302.876L40.057,302.876Z" style="fill:#ecedf1;fill-rule:nonzero;"/>
        <path d="M140.969,223.654L142.906,223.654L142.906,222.435L137.635,222.435L137.635,223.654L139.573,223.654L139.573,230.56L140.969,230.56L140.969,223.654Z" style="fill:#ecedf1;fill-rule:nonzero;"/>
        <path d="M145.135,227.529L146.323,227.529L147.49,230.56L149,230.56L147.677,227.31C148.417,227.019 149,226.383 149,225.081L149,224.873C149,222.81 147.552,222.435 146.281,222.435L143.74,222.435L143.74,230.56L145.135,230.56L145.135,227.529ZM145.135,226.31L145.135,223.654L146.333,223.654C146.875,223.654 147.583,223.852 147.583,224.925L147.583,225.04C147.583,226.113 146.875,226.31 146.333,226.31L145.135,226.31Z" style="fill:#ecedf1;fill-rule:nonzero;"/>
        <path d="M151.688,222.394L149.552,230.56L151.063,230.56L151.51,228.706L153.802,228.706L154.25,230.56L155.75,230.56L153.615,222.394L151.688,222.394ZM152.656,223.988L153.5,227.488L151.802,227.488L152.656,223.988Z" style="fill:#ecedf1;fill-rule:nonzero;"/>
        <path d="M157.698,226.706L157.698,226.29C157.698,224.456 158.073,223.519 159.229,223.519L159.323,223.519C160.313,223.519 160.635,224.196 160.635,225.488L162.042,225.488L162.042,225.133C162.042,223.154 161.104,222.3 159.24,222.3C157.208,222.3 156.271,223.477 156.271,226.29L156.271,226.706C156.271,229.519 157.208,230.696 159.24,230.696C161.104,230.696 162.042,229.842 162.042,227.925L162.042,227.821L160.635,227.821C160.635,228.842 160.271,229.477 159.323,229.477L159.229,229.477C158.063,229.477 157.698,228.54 157.698,226.706Z" style="fill:#ecedf1;fill-rule:nonzero;"/>
        <path d="M164.51,222.435L163.115,222.435L163.115,230.56L164.51,230.56L164.51,228.165L165.333,226.998L166.979,230.56L168.531,230.56L166.219,225.738L168.531,222.435L166.844,222.435L164.51,226.029L164.51,222.435Z" style="fill:#ecedf1;fill-rule:nonzero;"/>
        <path d="M171.51,222.435L171.51,230.56L174.104,230.56C175.438,230.56 176.771,230.123 176.771,228.279L176.771,228.071C176.771,227.144 176.292,226.644 175.656,226.373C176.188,226.102 176.563,225.633 176.563,224.831L176.563,224.623C176.563,222.842 175.292,222.435 174,222.435L171.51,222.435ZM174.156,227.008C174.76,227.008 175.354,227.279 175.354,228.123L175.354,228.238C175.354,229.071 174.76,229.342 174.156,229.342L172.906,229.342L172.906,227.008L174.156,227.008ZM174,223.654C174.583,223.654 175.146,223.873 175.146,224.654L175.146,224.79C175.146,225.571 174.583,225.79 174,225.79L172.906,225.79L172.906,223.654L174,223.654Z" style="fill:#ecedf1;fill-rule:nonzero;"/>
        <path d="M52.13,230.425L53.693,230.425L55.214,227.175L56.755,230.425L58.307,230.425L56.214,226.196L58.307,222.3L56.682,222.3L55.224,225.227L53.755,222.3L52.13,222.3L54.224,226.206L52.13,230.425Z" style="fill:#ecedf1;fill-rule:nonzero;"/>
        <path d="M59.182,222.3L59.182,230.425L60.578,230.425L60.578,226.883L63.422,226.883L63.422,225.675L60.578,225.675L60.578,223.519L63.943,223.519L63.943,222.3L59.182,222.3Z" style="fill:#ecedf1;fill-rule:nonzero;"/>
        <path d="M71.005,224.727L70.964,226.404L70.964,230.425L72.359,230.425L72.359,222.3L70.307,222.3L68.568,228.008L66.839,222.3L64.786,222.3L64.786,230.425L66.182,230.425L66.182,226.404L66.141,224.727L67.87,230.425L69.266,230.425L71.005,224.727Z" style="fill:#ecedf1;fill-rule:nonzero;"/>
        <rect x="73.411" y="226.185" width="2.76" height="1.188" style="fill:#ecedf1;fill-rule:nonzero;"/>
        <path d="M77.224,222.3L77.224,230.425L79.818,230.425C81.151,230.425 82.484,229.988 82.484,228.144L82.484,227.935C82.484,227.008 82.005,226.508 81.37,226.238C81.901,225.967 82.276,225.498 82.276,224.696L82.276,224.488C82.276,222.706 81.005,222.3 79.714,222.3L77.224,222.3ZM79.87,226.873C80.474,226.873 81.068,227.144 81.068,227.988L81.068,228.102C81.068,228.935 80.474,229.206 79.87,229.206L78.62,229.206L78.62,226.873L79.87,226.873ZM79.714,223.519C80.297,223.519 80.859,223.738 80.859,224.519L80.859,224.654C80.859,225.435 80.297,225.654 79.714,225.654L78.62,225.654L78.62,223.519L79.714,223.519Z" style="fill:#ecedf1;fill-rule:nonzero;"/>
        <path d="M6.062,223.654L8,223.654L8,222.435L2.729,222.435L2.729,223.654L4.667,223.654L4.667,230.56L6.062,230.56L6.062,223.654Z" style="fill:#ecedf1;fill-rule:nonzero;"/>
        <path d="M10.229,227.529L11.417,227.529L12.583,230.56L14.094,230.56L12.771,227.31C13.51,227.019 14.094,226.383 14.094,225.081L14.094,224.873C14.094,222.81 12.646,222.435 11.375,222.435L8.833,222.435L8.833,230.56L10.229,230.56L10.229,227.529ZM10.229,226.31L10.229,223.654L11.427,223.654C11.969,223.654 12.677,223.852 12.677,224.925L12.677,225.04C12.677,226.113 11.969,226.31 11.427,226.31L10.229,226.31Z" style="fill:#ecedf1;fill-rule:nonzero;"/>
        <path d="M16.781,222.394L14.646,230.56L16.156,230.56L16.604,228.706L18.896,228.706L19.344,230.56L20.844,230.56L18.708,222.394L16.781,222.394ZM17.75,223.988L18.594,227.488L16.896,227.488L17.75,223.988Z" style="fill:#ecedf1;fill-rule:nonzero;"/>
        <path d="M22.792,226.706L22.792,226.29C22.792,224.456 23.167,223.519 24.323,223.519L24.417,223.519C25.406,223.519 25.729,224.196 25.729,225.488L27.135,225.488L27.135,225.133C27.135,223.154 26.198,222.3 24.333,222.3C22.302,222.3 21.365,223.477 21.365,226.29L21.365,226.706C21.365,229.519 22.302,230.696 24.333,230.696C26.198,230.696 27.135,229.842 27.135,227.925L27.135,227.821L25.729,227.821C25.729,228.842 25.365,229.477 24.417,229.477L24.323,229.477C23.156,229.477 22.792,228.54 22.792,226.706Z" style="fill:#ecedf1;fill-rule:nonzero;"/>
        <path d="M29.604,222.435L28.208,222.435L28.208,230.56L29.604,230.56L29.604,228.165L30.427,226.998L32.073,230.56L33.625,230.56L31.312,225.738L33.625,222.435L31.937,222.435L29.604,226.029L29.604,222.435Z" style="fill:#ecedf1;fill-rule:nonzero;"/>
        <path d="M38.167,222.394L36.031,230.56L37.542,230.56L37.99,228.706L40.281,228.706L40.729,230.56L42.229,230.56L40.094,222.394L38.167,222.394ZM39.135,223.988L39.979,227.488L38.281,227.488L39.135,223.988Z" style="fill:#ecedf1;fill-rule:nonzero;"/>
        <path d="M146.526,171.9L146.526,180.025L147.922,180.025L147.922,176.483L150.766,176.483L150.766,175.275L147.922,175.275L147.922,173.119L151.286,173.119L151.286,171.9L146.526,171.9Z" style="fill:#ecedf1;fill-rule:nonzero;"/>
        <path d="M158.349,174.327L158.307,176.004L158.307,180.025L159.703,180.025L159.703,171.9L157.651,171.9L155.911,177.608L154.182,171.9L152.13,171.9L152.13,180.025L153.526,180.025L153.526,176.004L153.484,174.327L155.214,180.025L156.609,180.025L158.349,174.327Z" style="fill:#ecedf1;fill-rule:nonzero;"/>
        <path d="M163.057,171.9L163.057,180.025L165.651,180.025C166.984,180.025 168.318,179.588 168.318,177.744L168.318,177.535C168.318,176.608 167.839,176.108 167.203,175.838C167.734,175.567 168.109,175.098 168.109,174.296L168.109,174.088C168.109,172.306 166.839,171.9 165.547,171.9L163.057,171.9ZM165.703,176.473C166.307,176.473 166.901,176.744 166.901,177.588L166.901,177.702C166.901,178.535 166.307,178.806 165.703,178.806L164.453,178.806L164.453,176.473L165.703,176.473ZM165.547,173.119C166.13,173.119 166.693,173.338 166.693,174.119L166.693,174.254C166.693,175.035 166.13,175.254 165.547,175.254L164.453,175.254L164.453,173.119L165.547,173.119Z" style="fill:#ecedf1;fill-rule:nonzero;"/>
        <path d="M99.344,180.025L99.344,178.806L96.208,178.806L96.208,171.9L94.812,171.9L94.812,180.025L99.344,180.025Z" style="fill:#ecedf1;fill-rule:nonzero;"/>
        <path d="M101.531,176.994L102.677,176.994C103.948,176.994 105.396,176.619 105.396,174.546L105.396,174.338C105.396,172.275 103.948,171.9 102.677,171.9L100.135,171.9L100.135,180.025L101.531,180.025L101.531,176.994ZM101.531,175.775L101.531,173.119L102.729,173.119C103.271,173.119 103.979,173.317 103.979,174.39L103.979,174.504C103.979,175.577 103.271,175.775 102.729,175.775L101.531,175.775Z" style="fill:#ecedf1;fill-rule:nonzero;"/>
        <rect x="106.146" y="175.785" width="2.76" height="1.188" style="fill:#ecedf1;fill-rule:nonzero;"/>
        <path d="M112.854,173.119L114.792,173.119L114.792,171.9L109.521,171.9L109.521,173.119L111.458,173.119L111.458,180.025L112.854,180.025L112.854,173.119Z" style="fill:#ecedf1;fill-rule:nonzero;"/>
        <path d="M121.01,180.067L122.823,180.067L124.219,171.9L122.76,171.9L121.833,178.192L120.552,171.9L118.792,171.9L117.521,178.192L116.594,171.9L115.135,171.9L116.531,180.067L118.333,180.067L119.677,173.483L121.01,180.067Z" style="fill:#ecedf1;fill-rule:nonzero;"/>
        <path d="M126.521,176.994L127.667,176.994C128.937,176.994 130.385,176.619 130.385,174.546L130.385,174.338C130.385,172.275 128.937,171.9 127.667,171.9L125.125,171.9L125.125,180.025L126.521,180.025L126.521,176.994ZM126.521,175.775L126.521,173.119L127.719,173.119C128.26,173.119 128.969,173.317 128.969,174.39L128.969,174.504C128.969,175.577 128.26,175.775 127.719,175.775L126.521,175.775Z" style="fill:#ecedf1;fill-rule:nonzero;"/>
        <path d="M60.13,177.129L61.318,177.129L62.484,180.16L63.995,180.16L62.672,176.91C63.411,176.619 63.995,175.983 63.995,174.681L63.995,174.473C63.995,172.41 62.547,172.035 61.276,172.035L58.734,172.035L58.734,180.16L60.13,180.16L60.13,177.129ZM60.13,175.91L60.13,173.254L61.328,173.254C61.87,173.254 62.578,173.452 62.578,174.525L62.578,174.64C62.578,175.713 61.87,175.91 61.328,175.91L60.13,175.91Z" style="fill:#ecedf1;fill-rule:nonzero;"/>
        <path d="M65.099,172.035L65.099,180.16L69.932,180.16L69.932,178.942L66.495,178.942L66.495,176.619L69.411,176.619L69.411,175.41L66.495,175.41L66.495,173.254L69.932,173.254L69.932,172.035L65.099,172.035Z" style="fill:#ecedf1;fill-rule:nonzero;"/>
        <path d="M73.37,176.619C74.609,176.785 75.005,177.16 75.005,177.869L75.005,177.931C75.005,178.608 74.505,179.077 73.63,179.077L73.536,179.077C72.661,179.077 72.13,178.577 72.13,177.421L70.734,177.421L70.734,177.525C70.734,179.39 71.724,180.296 73.589,180.296C75.401,180.296 76.432,179.4 76.432,177.879L76.432,177.765C76.432,176.338 75.589,175.702 73.818,175.463C72.536,175.285 72.234,174.91 72.234,174.244L72.234,174.181C72.234,173.546 72.734,173.119 73.505,173.119L73.599,173.119C74.568,173.119 74.964,173.66 74.964,174.879L76.359,174.879L76.359,174.64C76.359,172.806 75.516,171.9 73.589,171.9C71.828,171.9 70.807,172.817 70.807,174.254L70.807,174.358C70.807,175.702 71.599,176.379 73.37,176.619Z" style="fill:#ecedf1;fill-rule:nonzero;"/>
        <path d="M11.62,171.942L11.62,180.067L13.016,180.067L13.016,176.525L15.859,176.525L15.859,175.317L13.016,175.317L13.016,173.16L16.38,173.16L16.38,171.942L11.62,171.942Z" style="fill:#ecedf1;fill-rule:nonzero;"/>
        <path d="M23.443,174.369L23.401,176.046L23.401,180.067L24.797,180.067L24.797,171.942L22.745,171.942L21.005,177.65L19.276,171.942L17.224,171.942L17.224,180.067L18.62,180.067L18.62,176.046L18.578,174.369L20.307,180.067L21.703,180.067L23.443,174.369Z" style="fill:#ecedf1;fill-rule:nonzero;"/>
        <path d="M29.714,171.9L27.578,180.067L29.089,180.067L29.536,178.213L31.828,178.213L32.276,180.067L33.776,180.067L31.641,171.9L29.714,171.9ZM30.682,173.494L31.526,176.994L29.828,176.994L30.682,173.494Z" style="fill:#ecedf1;fill-rule:nonzero;"/>
        <path d="M48.112,9.24L51.029,9.24L51.379,6.507L42.379,6.507L42.029,9.24L44.946,9.24L43.596,19.507L46.762,19.507L48.112,9.24Z" style="fill:#ecedf1;fill-rule:nonzero;"/>
        <path d="M59.262,19.507L63.296,19.507L67.062,6.507L63.762,6.507L61.629,15.14L61.296,6.507L57.396,6.507L54.796,15.14L54.929,6.507L51.629,6.507L51.996,19.507L56.012,19.507L58.862,10.14L59.262,19.507Z" style="fill:#ecedf1;fill-rule:nonzero;"/>
        <path d="M71.346,6.507L68.179,6.507L66.479,19.507L69.646,19.507L71.346,6.507Z" style="fill:#ecedf1;fill-rule:nonzero;"/>
        <path d="M82.929,6.507L79.929,6.507L79.312,11.173L79.079,13.673L76.429,6.507L73.096,6.507L71.396,19.507L74.396,19.507L74.996,14.84L75.246,12.34L77.896,19.507L81.229,19.507L82.929,6.507Z" style="fill:#ecedf1;fill-rule:nonzero;"/>
        <path d="M89.979,15.04L91.296,15.04C93.496,15.04 96.029,14.54 96.512,10.94L96.562,10.573C97.046,6.973 94.612,6.507 92.412,6.507L87.929,6.507L86.229,19.507L89.396,19.507L89.979,15.04ZM90.329,12.307L90.746,9.24L92.196,9.24C92.812,9.24 93.462,9.44 93.346,10.673L93.329,10.857C93.212,12.057 92.396,12.307 91.779,12.307L90.329,12.307Z" style="fill:#ecedf1;fill-rule:nonzero;"/>
        <path d="M98.262,6.507L96.562,19.507L104.729,19.507L105.079,16.773L100.079,16.773L100.412,14.24L104.579,14.24L104.946,11.507L100.779,11.507L101.079,9.24L106.079,9.24L106.429,6.507L98.262,6.507Z" style="fill:#ecedf1;fill-rule:nonzero;"/>
        <path d="M110.346,6.507L105.546,19.507L108.946,19.507L109.796,16.873L112.496,16.873L112.696,19.507L116.079,19.507L114.679,6.507L110.346,6.507ZM112.029,10.173L112.312,14.14L110.712,14.14L112.029,10.173Z" style="fill:#ecedf1;fill-rule:nonzero;"/>
        <path d="M121.929,6.507L118.762,6.507L117.062,19.507L120.229,19.507L120.696,15.84L121.762,14.557L123.229,19.507L126.729,19.507L124.196,11.623L128.429,6.507L124.596,6.507L121.346,10.973L121.929,6.507Z" style="fill:#ecedf1;fill-rule:nonzero;"/>
        <path d="M132.129,14.273C133.896,14.507 134.212,15.023 134.146,15.673L134.129,15.84C134.062,16.473 133.579,17.007 132.496,17.007L132.329,17.007C131.246,17.007 130.762,16.44 130.946,15.007L127.779,15.007L127.746,15.273C127.362,18.29 128.996,19.74 132.162,19.74C135.229,19.74 137.062,18.44 137.329,15.99L137.362,15.69C137.646,13.207 136.412,12.107 133.629,11.723C131.912,11.49 131.629,11.04 131.696,10.34L131.712,10.173C131.779,9.523 132.312,9.007 133.229,9.007L133.396,9.007C134.562,9.007 134.896,9.707 134.696,11.173L137.862,11.173L137.912,10.773C138.279,7.807 136.929,6.273 133.679,6.273C130.429,6.273 128.746,7.84 128.496,10.14L128.462,10.44C128.196,12.79 129.346,13.907 132.129,14.273Z" style="fill:#ecedf1;fill-rule:nonzero;"/>
        <path d="M72.327,375.731C75.077,375.731 76.287,375.117 76.507,373.302L74.178,373.302C73.977,373.953 73.546,374.136 71.96,374.136L71.74,374.136C69.797,374.136 69.476,373.724 69.476,372.541L69.476,372.33C69.476,371.13 69.797,370.726 71.74,370.726L71.96,370.726C73.546,370.726 73.977,370.91 74.178,371.56L76.507,371.56C76.287,369.745 75.077,369.131 72.327,369.131L71.373,369.131C68.321,369.131 67.157,369.874 67.157,372.23L67.157,372.633C67.157,374.989 68.321,375.731 71.373,375.731L72.327,375.731Z" style="fill:#ecedf1;fill-rule:nonzero;"/>
        <path d="M85.133,374.127L79.724,374.127L79.724,373.183L85.133,373.183L85.133,371.67L79.724,371.67L79.724,370.735L85.133,370.735L85.133,369.223L77.451,369.223L77.451,375.64L85.133,375.64L85.133,374.127Z" style="fill:#ecedf1;fill-rule:nonzero;"/>
        <path d="M93.52,373.925L88.515,373.925L88.515,369.223L86.242,369.223L86.242,375.64L93.52,375.64L93.52,373.925Z" style="fill:#ecedf1;fill-rule:nonzero;"/>
        <path d="M101.596,373.925L96.591,373.925L96.591,369.223L94.318,369.223L94.318,375.64L101.596,375.64L101.596,373.925Z" style="fill:#ecedf1;fill-rule:nonzero;"/>
        <path d="M109.094,369.223L105.611,369.223L101.862,375.64L104.373,375.64L105.098,374.365L109.516,374.365L110.249,375.64L112.843,375.64L109.094,369.223ZM107.353,370.58L108.654,372.853L105.959,372.853L107.27,370.58L107.353,370.58Z" style="fill:#ecedf1;fill-rule:nonzero;"/>
        <g id="CTR2" serif:id="CTR">
            <circle id="Base2" serif:id="Base" cx="22.504" cy="153.38" r="16.496" style="fill:none;"/>
            <path id="path892" serif:id="path89" d="M30.412,166.477C29.851,166.816 29.671,167.546 30.01,168.107C30.349,168.668 31.08,168.848 31.641,168.509C32.202,168.17 32.382,167.44 32.043,166.879C31.704,166.318 30.973,166.138 30.412,166.477Z" style="fill:#ecedf1;fill-rule:nonzero;"/>
            <path d="M14.645,166.519C15.208,166.855 15.392,167.584 15.056,168.147C14.72,168.71 13.99,168.894 13.427,168.558C12.865,168.222 12.681,167.492 13.017,166.929C13.353,166.367 14.082,166.183 14.645,166.519Z" style="fill:#ecedf1;fill-rule:nonzero;"/>
            <path d="M31.027,167.493C35.962,164.509 38.988,159.145 38.988,153.378C38.988,144.33 31.542,136.884 22.494,136.884C13.446,136.884 6,144.33 6,153.378C6,159.176 9.058,164.565 14.036,167.538" style="fill:none;fill-rule:nonzero;stroke:#ecedf1;stroke-width:0.79px;stroke-linecap:round;stroke-miterlimit:4;"/>
        </g>
        <path id="line87" d="M22.5,136.884L22.5,133.471" style="fill:none;fill-rule:nonzero;stroke:#ecedf1;stroke-width:0.76px;stroke-linecap:round;stroke-miterlimit:4;"/>
        <path id="line871" serif:id="line87" d="M157.5,136.884L157.5,133.471" style="fill:none;fill-rule:nonzero;stroke:#ecedf1;stroke-width:0.76px;stroke-linecap:round;stroke-miterlimit:4;"/>
        <path id="line872" serif:id="line87" d="M157.5,187.206L157.5,183.793" style="fill:none;fill-rule:nonzero;stroke:#ecedf1;stroke-width:0.76px;stroke-linecap:round;stroke-miterlimit:4;"/>
        <path id="line873" serif:id="line87" d="M22.5,187.206L22.5,183.793" style="fill:none;fill-rule:nonzero;stroke:#ecedf1;stroke-width:0.76px;stroke-linecap:round;stroke-miterlimit:4;"/>
        <path id="line874" serif:id="line87" d="M67.5,187.206L67.5,183.793" style="fill:none;fill-rule:nonzero;stroke:#ecedf1;stroke-width:0.76px;stroke-linecap:round;stroke-miterlimit:4;"/>
        <g id="CTR3" serif:id="CTR">
            <circle id="Base3" serif:id="Base" cx="67.504" cy="153.38" r="16.496" style="fill:none;"/>
            <path id="path893" serif:id="path89" d="M75.412,166.477C74.851,166.816 74.671,167.546 75.01,168.107C75.349,168.668 76.08,168.848 76.641,168.509C77.202,168.17 77.382,167.44 77.043,166.879C76.704,166.318 75.973,166.138 75.412,166.477Z" style="fill:#ecedf1;fill-rule:nonzero;"/>
            <path d="M59.645,166.519C60.208,166.855 60.392,167.584 60.056,168.147C59.72,168.71 58.99,168.894 58.427,168.558C57.865,168.222 57.681,167.492 58.017,166.929C58.353,166.367 59.082,166.183 59.645,166.519Z" style="fill:#ecedf1;fill-rule:nonzero;"/>
            <path d="M76.027,167.493C80.962,164.509 83.988,159.145 83.988,153.378C83.988,144.33 76.542,136.884 67.494,136.884C58.446,136.884 51,144.33 51,153.378C51,159.176 54.058,164.565 59.036,167.538" style="fill:none;fill-rule:nonzero;stroke:#ecedf1;stroke-width:0.79px;stroke-linecap:round;stroke-miterlimit:4;"/>
        </g>
        <g id="CTR4" serif:id="CTR">
            <circle id="Base4" serif:id="Base" cx="112.504" cy="153.38" r="16.496" style="fill:none;"/>
            <path id="path894" serif:id="path89" d="M120.412,166.477C119.851,166.816 119.671,167.546 120.01,168.107C120.349,168.668 121.08,168.848 121.641,168.509C122.202,168.17 122.382,167.44 122.043,166.879C121.704,166.318 120.973,166.138 120.412,166.477Z" style="fill:#ecedf1;fill-rule:nonzero;"/>
            <path d="M104.645,166.519C105.208,166.855 105.392,167.584 105.056,168.147C104.72,168.71 103.99,168.894 103.427,168.558C102.865,168.222 102.681,167.492 103.017,166.929C103.353,166.367 104.082,166.183 104.645,166.519Z" style="fill:#ecedf1;fill-rule:nonzero;"/>
            <path d="M121.027,167.493C125.962,164.509 128.988,159.145 128.988,153.378C128.988,144.33 121.542,136.884 112.494,136.884C103.446,136.884 96,144.33 96,153.378C96,159.176 99.058,164.565 104.036,167.538" style="fill:none;fill-rule:nonzero;stroke:#ecedf1;stroke-width:0.79px;stroke-linecap:round;stroke-miterlimit:4;"/>
        </g>
        <g id="CTR5" serif:id="CTR">
            <circle id="Base5" serif:id="Base" cx="157.504" cy="153.38" r="16.496" style="fill:none;"/>
            <path id="path895" serif:id="path89" d="M165.412,166.477C164.851,166.816 164.671,167.546 165.01,168.107C165.349,168.668 166.08,168.848 166.641,168.509C167.202,168.17 167.382,167.44 167.043,166.879C166.704,166.318 165.973,166.138 165.412,166.477Z" style="fill:#ecedf1;fill-rule:nonzero;"/>
            <path d="M149.645,166.519C150.208,166.855 150.392,167.584 150.056,168.147C149.72,168.71 148.99,168.894 148.427,168.558C147.865,168.222 147.681,167.492 148.017,166.929C148.353,166.367 149.082,166.183 149.645,166.519Z" style="fill:#ecedf1;fill-rule:nonzero;"/>
            <path d="M166.027,167.493C170.962,164.509 173.988,159.145 173.988,153.378C173.988,144.33 166.542,136.884 157.494,136.884C148.446,136.884 141,144.33 141,153.378C141,159.176 144.058,164.565 149.036,167.538" style="fill:none;fill-rule:nonzero;stroke:#ecedf1;stroke-width:0.79px;stroke-linecap:round;stroke-miterlimit:4;"/>
        </g>
        <g id="CTR6" serif:id="CTR">
            <circle id="Base6" serif:id="Base" cx="22.504" cy="203.79" r="16.496" style="fill:none;"/>
            <path id="path896" serif:id="path89" d="M30.412,216.887C29.851,217.226 29.671,217.956 30.01,218.517C30.349,219.078 31.08,219.258 31.641,218.919C32.202,218.58 32.382,217.85 32.043,217.289C31.704,216.728 30.973,216.548 30.412,216.887Z" style="fill:#ecedf1;fill-rule:nonzero;"/>
            <path d="M14.645,216.929C15.208,217.265 15.392,217.994 15.056,218.557C14.72,219.12 13.99,219.304 13.427,218.968C12.865,218.632 12.681,217.902 13.017,217.339C13.353,216.777 14.082,216.593 14.645,216.929Z" style="fill:#ecedf1;fill-rule:nonzero;"/>
            <path d="M31.027,217.903C35.962,214.919 38.988,209.555 38.988,203.788C38.988,194.74 31.542,187.294 22.494,187.294C13.446,187.294 6,194.74 6,203.788C6,209.586 9.058,214.975 14.036,217.948" style="fill:none;fill-rule:nonzero;stroke:#ecedf1;stroke-width:0.79px;stroke-linecap:round;stroke-miterlimit:4;"/>
        </g>
        <g id="CTR7" serif:id="CTR">
            <circle id="Base7" serif:id="Base" cx="67.504" cy="203.786" r="16.496" style="fill:none;"/>
            <path id="path897" serif:id="path89" d="M75.412,216.883C74.851,217.222 74.671,217.952 75.01,218.513C75.349,219.074 76.08,219.254 76.641,218.915C77.202,218.576 77.382,217.846 77.043,217.285C76.704,216.724 75.973,216.544 75.412,216.883Z" style="fill:#ecedf1;fill-rule:nonzero;"/>
            <path d="M59.645,216.925C60.208,217.261 60.392,217.99 60.056,218.553C59.72,219.116 58.99,219.3 58.427,218.964C57.865,218.628 57.681,217.898 58.017,217.335C58.353,216.773 59.082,216.589 59.645,216.925Z" style="fill:#ecedf1;fill-rule:nonzero;"/>
            <path d="M76.027,217.899C80.962,214.915 83.988,209.551 83.988,203.784C83.988,194.736 76.542,187.29 67.494,187.29C58.446,187.29 51,194.736 51,203.784C51,209.583 54.058,214.971 59.036,217.944" style="fill:none;fill-rule:nonzero;stroke:#ecedf1;stroke-width:0.79px;stroke-linecap:round;stroke-miterlimit:4;"/>
        </g>
        <g id="CTR8" serif:id="CTR">
            <circle id="Base8" serif:id="Base" cx="157.504" cy="203.79" r="16.496" style="fill:none;"/>
            <path id="path898" serif:id="path89" d="M165.412,216.887C164.851,217.226 164.671,217.956 165.01,218.517C165.349,219.078 166.08,219.258 166.641,218.919C167.202,218.58 167.382,217.85 167.043,217.289C166.704,216.728 165.973,216.548 165.412,216.887Z" style="fill:#ecedf1;fill-rule:nonzero;"/>
            <path d="M149.645,216.929C150.208,217.265 150.392,217.994 150.056,218.557C149.72,219.12 148.99,219.304 148.427,218.968C147.865,218.632 147.681,217.902 148.017,217.339C148.353,216.777 149.082,216.593 149.645,216.929Z" style="fill:#ecedf1;fill-rule:nonzero;"/>
            <path d="M166.027,217.903C170.962,214.919 173.988,209.555 173.988,203.788C173.988,194.74 166.542,187.294 157.494,187.294C148.446,187.294 141,194.74 141,203.788C141,209.586 144.058,214.975 149.036,217.948" style="fill:none;fill-rule:nonzero;stroke:#ecedf1;stroke-width:0.79px;stroke-linecap:round;stroke-miterlimit:4;"/>
        </g>
        <g id="SMCTR">
            <path d="M22.5,280.007L22.5,252.5" style="fill:none;stroke:#ecedf1;stroke-width:0.83px;stroke-linecap:square;"/>
            <path id="line875" serif:id="line87" d="M22.509,242.647L22.509,239.916" style="fill:none;fill-rule:nonzero;stroke:#ecedf1;stroke-width:0.61px;stroke-linecap:round;stroke-miterlimit:4;"/>
            <path d="M11.979,262.202C12.325,262.587 12.918,262.619 13.303,262.273C13.688,261.927 13.72,261.334 13.374,260.949C13.028,260.564 12.435,260.533 12.05,260.879C11.665,261.224 11.633,261.818 11.979,262.202Z" style="fill:#ecedf1;"/>
            <path d="M33.021,262.202C32.675,262.587 32.082,262.619 31.697,262.273C31.312,261.927 31.28,261.334 31.626,260.949C31.972,260.564 32.565,260.533 32.95,260.879C33.335,261.224 33.367,261.818 33.021,262.202Z" style="fill:#ecedf1;"/>
            <path d="M12.676,261.576C10.575,259.237 9.295,256.144 9.295,252.755C9.295,245.467 15.212,239.55 22.5,239.55C29.788,239.55 35.705,245.467 35.705,252.755C35.705,256.144 34.425,259.237 32.324,261.576" style="fill:none;stroke:#ecedf1;stroke-width:0.63px;stroke-linecap:square;"/>
        </g>
        <g id="SMCTR1" serif:id="SMCTR">
            <path d="M67.5,280.007L67.5,252.5" style="fill:none;stroke:#ecedf1;stroke-width:0.83px;stroke-linecap:square;"/>
            <path id="line876" serif:id="line87" d="M67.509,242.647L67.509,239.916" style="fill:none;fill-rule:nonzero;stroke:#ecedf1;stroke-width:0.61px;stroke-linecap:round;stroke-miterlimit:4;"/>
            <path d="M56.979,262.202C57.325,262.587 57.918,262.619 58.303,262.273C58.688,261.927 58.72,261.334 58.374,260.949C58.028,260.564 57.435,260.533 57.05,260.879C56.665,261.224 56.633,261.818 56.979,262.202Z" style="fill:#ecedf1;"/>
            <path d="M78.021,262.202C77.675,262.587 77.082,262.619 76.697,262.273C76.312,261.927 76.28,261.334 76.626,260.949C76.972,260.564 77.565,260.533 77.95,260.879C78.335,261.224 78.367,261.818 78.021,262.202Z" style="fill:#ecedf1;"/>
            <path d="M57.676,261.576C55.575,259.237 54.295,256.144 54.295,252.755C54.295,245.467 60.212,239.55 67.5,239.55C74.788,239.55 80.705,245.467 80.705,252.755C80.705,256.144 79.425,259.237 77.324,261.576" style="fill:none;stroke:#ecedf1;stroke-width:0.63px;stroke-linecap:square;"/>
        </g>
        <g id="SMCTR2" serif:id="SMCTR">
            <path d="M112.5,280.007L112.5,252.5" style="fill:none;stroke:#ecedf1;stroke-width:0.83px;stroke-linecap:square;"/>
            <path id="line877" serif:id="line87" d="M112.509,242.647L112.509,239.916" style="fill:none;fill-rule:nonzero;stroke:#ecedf1;stroke-width:0.61px;stroke-linecap:round;stroke-miterlimit:4;"/>
            <path d="M101.979,262.202C102.325,262.587 102.918,262.619 103.303,262.273C103.688,261.927 103.72,261.334 103.374,260.949C103.028,260.564 102.435,260.533 102.05,260.879C101.665,261.224 101.633,261.818 101.979,262.202Z" style="fill:#ecedf1;"/>
            <path d="M123.021,262.202C122.675,262.587 122.082,262.619 121.697,262.273C121.312,261.927 121.28,261.334 121.626,260.949C121.972,260.564 122.565,260.533 122.95,260.879C123.335,261.224 123.367,261.818 123.021,262.202Z" style="fill:#ecedf1;"/>
            <path d="M102.676,261.576C100.575,259.237 99.295,256.144 99.295,252.755C99.295,245.467 105.212,239.55 112.5,239.55C119.788,239.55 125.705,245.467 125.705,252.755C125.705,256.144 124.425,259.237 122.324,261.576" style="fill:none;stroke:#ecedf1;stroke-width:0.63px;stroke-linecap:square;"/>
        </g>
        <g id="SMCTR3" serif:id="SMCTR">
            <path d="M157.5,280.007L157.5,252.5" style="fill:none;stroke:#ecedf1;stroke-width:0.83px;stroke-linecap:square;"/>
            <path id="line878" serif:id="line87" d="M157.509,242.647L157.509,239.916" style="fill:none;fill-rule:nonzero;stroke:#ecedf1;stroke-width:0.61px;stroke-linecap:round;stroke-miterlimit:4;"/>
            <path d="M146.979,262.202C147.325,262.587 147.918,262.619 148.303,262.273C148.688,261.927 148.72,261.334 148.374,260.949C148.028,260.564 147.435,260.533 147.05,260.879C146.665,261.224 146.633,261.818 146.979,262.202Z" style="fill:#ecedf1;"/>
            <path d="M168.021,262.202C167.675,262.587 167.082,262.619 166.697,262.273C166.312,261.927 166.28,261.334 166.626,260.949C166.972,260.564 167.565,260.533 167.95,260.879C168.335,261.224 168.367,261.818 168.021,262.202Z" style="fill:#ecedf1;"/>
            <path d="M147.676,261.576C145.575,259.237 144.295,256.144 144.295,252.755C144.295,245.467 150.212,239.55 157.5,239.55C164.788,239.55 170.705,245.467 170.705,252.755C170.705,256.144 169.425,259.237 167.324,261.576" style="fill:none;stroke:#ecedf1;stroke-width:0.63px;stroke-linecap:square;"/>
        </g>
        <path d="M19.008,112.621L19.008,125.621L21.242,125.621L21.242,119.955L25.792,119.955L25.792,118.021L21.242,118.021L21.242,114.571L26.625,114.571L26.625,112.621L19.008,112.621Z" style="fill:#ecedf1;fill-rule:nonzero;"/>
        <path d="M30.208,120.771L32.108,120.771L33.975,125.621L36.392,125.621L34.275,120.421C35.458,119.955 36.392,118.938 36.392,116.855L36.392,116.521C36.392,113.221 34.075,112.621 32.042,112.621L27.975,112.621L27.975,125.621L30.208,125.621L30.208,120.771ZM30.208,118.821L30.208,114.571L32.125,114.571C32.992,114.571 34.125,114.888 34.125,116.605L34.125,116.788C34.125,118.505 32.992,118.821 32.125,118.821L30.208,118.821Z" style="fill:#ecedf1;fill-rule:nonzero;"/>
        <path d="M38.158,112.621L38.158,125.621L45.892,125.621L45.892,123.671L40.392,123.671L40.392,119.955L45.058,119.955L45.058,118.021L40.392,118.021L40.392,114.571L45.892,114.571L45.892,112.621L38.158,112.621Z" style="fill:#ecedf1;fill-rule:nonzero;"/>
        <path d="M52.108,125.838C52.342,125.838 52.575,125.821 52.808,125.805L53.375,127.288L55.158,127.288L54.408,125.405C56.092,124.605 56.908,122.721 56.908,119.455L56.908,118.788C56.908,114.288 55.358,112.405 52.108,112.405C48.842,112.405 47.292,114.288 47.292,118.788L47.292,119.455C47.292,123.955 48.842,125.838 52.108,125.838ZM52.858,121.438L51.142,121.438L52.075,123.888L52.025,123.888C50.208,123.888 49.575,122.388 49.575,119.455L49.575,118.788C49.575,115.855 50.208,114.355 52.025,114.355L52.175,114.355C53.992,114.355 54.625,115.855 54.625,118.788L54.625,119.455C54.625,121.405 54.342,122.721 53.625,123.388L52.858,121.438Z" style="fill:#ecedf1;fill-rule:nonzero;"/>
        <path d="M64.492,112.555L61.075,125.621L63.492,125.621L64.208,122.655L67.875,122.655L68.592,125.621L70.992,125.621L67.575,112.555L64.492,112.555ZM66.042,115.105L67.392,120.705L64.675,120.705L66.042,115.105Z" style="fill:#ecedf1;fill-rule:nonzero;"/>
        <path d="M109.025,112.621L109.025,125.621L111.258,125.621L111.258,119.955L115.808,119.955L115.808,118.021L111.258,118.021L111.258,114.571L116.642,114.571L116.642,112.621L109.025,112.621Z" style="fill:#ecedf1;fill-rule:nonzero;"/>
        <path d="M120.225,120.771L122.125,120.771L123.992,125.621L126.408,125.621L124.292,120.421C125.475,119.955 126.408,118.938 126.408,116.855L126.408,116.521C126.408,113.221 124.092,112.621 122.058,112.621L117.992,112.621L117.992,125.621L120.225,125.621L120.225,120.771ZM120.225,118.821L120.225,114.571L122.142,114.571C123.008,114.571 124.142,114.888 124.142,116.605L124.142,116.788C124.142,118.505 123.008,118.821 122.142,118.821L120.225,118.821Z" style="fill:#ecedf1;fill-rule:nonzero;"/>
        <path d="M128.175,112.621L128.175,125.621L135.908,125.621L135.908,123.671L130.408,123.671L130.408,119.955L135.075,119.955L135.075,118.021L130.408,118.021L130.408,114.571L135.908,114.571L135.908,112.621L128.175,112.621Z" style="fill:#ecedf1;fill-rule:nonzero;"/>
        <path d="M142.125,125.838C142.358,125.838 142.592,125.821 142.825,125.805L143.392,127.288L145.175,127.288L144.425,125.405C146.108,124.605 146.925,122.721 146.925,119.455L146.925,118.788C146.925,114.288 145.375,112.405 142.125,112.405C138.858,112.405 137.308,114.288 137.308,118.788L137.308,119.455C137.308,123.955 138.858,125.838 142.125,125.838ZM142.875,121.438L141.158,121.438L142.092,123.888L142.042,123.888C140.225,123.888 139.592,122.388 139.592,119.455L139.592,118.788C139.592,115.855 140.225,114.355 142.042,114.355L142.192,114.355C144.008,114.355 144.642,115.855 144.642,118.788L144.642,119.455C144.642,121.405 144.358,122.721 143.642,123.388L142.875,121.438Z" style="fill:#ecedf1;fill-rule:nonzero;"/>
        <path d="M152.008,112.621L152.008,125.621L156.158,125.621C158.292,125.621 160.425,124.921 160.425,121.971L160.425,121.638C160.425,120.155 159.658,119.355 158.642,118.921C159.492,118.488 160.092,117.738 160.092,116.455L160.092,116.121C160.092,113.271 158.058,112.621 155.992,112.621L152.008,112.621ZM156.242,119.938C157.208,119.938 158.158,120.371 158.158,121.721L158.158,121.905C158.158,123.238 157.208,123.671 156.242,123.671L154.242,123.671L154.242,119.938L156.242,119.938ZM155.992,114.571C156.925,114.571 157.825,114.921 157.825,116.171L157.825,116.388C157.825,117.638 156.925,117.988 155.992,117.988L154.242,117.988L154.242,114.571L155.992,114.571Z" style="fill:#ecedf1;fill-rule:nonzero;"/>
        <g>
            <g id="Switch">
                <path d="M114.046,201.172L113.608,201.178L115.015,199.647C115.402,199.228 115.571,198.941 115.571,198.391L115.571,198.285C115.571,197.61 115.115,196.947 113.99,196.947C112.908,196.947 112.408,197.491 112.408,198.522L112.408,198.653L113.233,198.653C113.233,197.941 113.502,197.678 113.965,197.678L114.015,197.678C114.44,197.678 114.74,197.941 114.74,198.435L114.74,198.497C114.74,198.791 114.627,198.978 114.365,199.26L112.408,201.385L112.408,201.903L115.571,201.903L115.571,201.172L114.046,201.172Z" style="fill:#ecedf1;fill-rule:nonzero;"/>
                <path d="M118.815,201.903L118.815,200.766L119.433,200.766L119.433,200.041L118.815,200.041L118.815,197.028L118.033,197.028L116.046,200.197L116.046,200.766L117.99,200.766L117.99,201.903L118.815,201.903ZM118.002,198.353L117.99,198.797L117.99,200.041L117.315,200.041L116.927,200.047L118.002,198.353Z" style="fill:#ecedf1;fill-rule:nonzero;"/>
                <path d="M121.121,198.51C120.215,198.51 119.877,199.197 119.877,200.147L119.877,200.347C119.877,201.291 120.215,201.985 121.121,201.985C121.59,201.985 121.89,201.772 122.071,201.491L122.14,201.903L122.858,201.903L122.808,200.966L122.808,196.903L121.996,196.903L121.996,198.897C121.808,198.672 121.527,198.51 121.121,198.51ZM121.996,200.897C121.902,201.053 121.69,201.272 121.346,201.272C120.883,201.272 120.69,200.928 120.69,200.347L120.69,200.147C120.69,199.566 120.883,199.216 121.346,199.216C121.69,199.216 121.902,199.441 121.996,199.597L121.996,200.897Z" style="fill:#ecedf1;fill-rule:nonzero;"/>
                <path d="M124.34,196.903L123.527,196.903L123.527,200.966L123.477,201.903L124.196,201.903L124.265,201.491C124.446,201.772 124.746,201.985 125.221,201.985C126.127,201.985 126.458,201.291 126.458,200.347L126.458,200.147C126.458,199.197 126.127,198.51 125.221,198.51C124.808,198.51 124.527,198.672 124.34,198.897L124.34,196.903ZM124.34,199.597C124.44,199.441 124.646,199.216 124.99,199.216C125.452,199.216 125.646,199.566 125.646,200.147L125.646,200.347C125.646,200.928 125.452,201.272 124.99,201.272C124.646,201.272 124.44,201.053 124.34,200.897L124.34,199.597Z" style="fill:#ecedf1;fill-rule:nonzero;"/>
                <path d="M115.756,210.527L115.756,209.796L114.619,209.796L114.619,205.64L114.019,205.64L112.5,206.677L112.906,207.284L113.794,206.684L113.794,209.796L112.656,209.796L112.656,210.527L115.756,210.527Z" style="fill:#ecedf1;fill-rule:nonzero;"/>
                <path d="M117.894,210.609C118.988,210.609 119.506,209.915 119.506,209.246L119.506,209.134C119.506,208.577 119.219,208.227 118.856,208.04C119.206,207.852 119.475,207.515 119.475,206.977L119.475,206.865C119.475,206.227 119.019,205.571 117.894,205.571C116.769,205.571 116.313,206.227 116.313,206.865L116.313,206.977C116.313,207.515 116.575,207.852 116.931,208.04C116.563,208.227 116.281,208.577 116.281,209.134L116.281,209.246C116.281,209.915 116.8,210.609 117.894,210.609ZM117.837,208.402L117.95,208.402C118.381,208.402 118.675,208.634 118.675,209.09L118.675,209.165C118.675,209.665 118.319,209.877 117.925,209.877L117.863,209.877C117.469,209.877 117.113,209.665 117.113,209.165L117.113,209.09C117.113,208.634 117.406,208.402 117.837,208.402ZM117.925,206.302C118.35,206.302 118.644,206.559 118.644,206.965L118.644,207.015C118.644,207.465 118.356,207.677 117.931,207.677L117.856,207.677C117.431,207.677 117.144,207.465 117.144,207.015L117.144,206.965C117.144,206.559 117.438,206.302 117.863,206.302L117.925,206.302Z" style="fill:#ecedf1;fill-rule:nonzero;"/>
                <path d="M121.275,207.134C120.369,207.134 120.031,207.821 120.031,208.771L120.031,208.971C120.031,209.915 120.369,210.609 121.275,210.609C121.744,210.609 122.044,210.396 122.225,210.115L122.294,210.527L123.013,210.527L122.962,209.59L122.962,205.527L122.15,205.527L122.15,207.521C121.962,207.296 121.681,207.134 121.275,207.134ZM122.15,209.521C122.056,209.677 121.844,209.896 121.5,209.896C121.037,209.896 120.844,209.552 120.844,208.971L120.844,208.771C120.844,208.19 121.037,207.84 121.5,207.84C121.844,207.84 122.056,208.065 122.15,208.221L122.15,209.521Z" style="fill:#ecedf1;fill-rule:nonzero;"/>
                <path d="M124.494,205.527L123.681,205.527L123.681,209.59L123.631,210.527L124.35,210.527L124.419,210.115C124.6,210.396 124.9,210.609 125.375,210.609C126.281,210.609 126.612,209.915 126.612,208.971L126.612,208.771C126.612,207.821 126.281,207.134 125.375,207.134C124.962,207.134 124.681,207.296 124.494,207.521L124.494,205.527ZM124.494,208.221C124.594,208.065 124.8,207.84 125.144,207.84C125.606,207.84 125.8,208.19 125.8,208.771L125.8,208.971C125.8,209.552 125.606,209.896 125.144,209.896C124.8,209.896 124.594,209.677 124.494,209.521L124.494,208.221Z" style="fill:#ecedf1;fill-rule:nonzero;"/>
                <path d="M115.602,219.208L115.602,218.477L114.465,218.477L114.465,214.321L113.865,214.321L112.346,215.358L112.752,215.964L113.64,215.364L113.64,218.477L112.502,218.477L112.502,219.208L115.602,219.208Z" style="fill:#ecedf1;fill-rule:nonzero;"/>
                <path d="M117.796,218.477L117.358,218.483L118.765,216.952C119.152,216.533 119.321,216.246 119.321,215.696L119.321,215.589C119.321,214.914 118.865,214.252 117.74,214.252C116.658,214.252 116.158,214.796 116.158,215.827L116.158,215.958L116.983,215.958C116.983,215.246 117.252,214.983 117.715,214.983L117.765,214.983C118.19,214.983 118.49,215.246 118.49,215.739L118.49,215.802C118.49,216.096 118.377,216.283 118.115,216.564L116.158,218.689L116.158,219.208L119.321,219.208L119.321,218.477L117.796,218.477Z" style="fill:#ecedf1;fill-rule:nonzero;"/>
                <path d="M121.121,215.814C120.215,215.814 119.877,216.502 119.877,217.452L119.877,217.652C119.877,218.596 120.215,219.289 121.121,219.289C121.59,219.289 121.89,219.077 122.071,218.796L122.14,219.208L122.858,219.208L122.808,218.271L122.808,214.208L121.996,214.208L121.996,216.202C121.808,215.977 121.527,215.814 121.121,215.814ZM121.996,218.202C121.902,218.358 121.69,218.577 121.346,218.577C120.883,218.577 120.69,218.233 120.69,217.652L120.69,217.452C120.69,216.871 120.883,216.521 121.346,216.521C121.69,216.521 121.902,216.746 121.996,216.902L121.996,218.202Z" style="fill:#ecedf1;fill-rule:nonzero;"/>
                <path d="M124.34,214.208L123.527,214.208L123.527,218.271L123.477,219.208L124.196,219.208L124.265,218.796C124.446,219.077 124.746,219.289 125.221,219.289C126.127,219.289 126.458,218.596 126.458,217.652L126.458,217.452C126.458,216.502 126.127,215.814 125.221,215.814C124.808,215.814 124.527,215.977 124.34,216.202L124.34,214.208ZM124.34,216.902C124.44,216.746 124.646,216.521 124.99,216.521C125.452,216.521 125.646,216.871 125.646,217.452L125.646,217.652C125.646,218.233 125.452,218.577 124.99,218.577C124.646,218.577 124.44,218.358 124.34,218.202L124.34,216.902Z" style="fill:#ecedf1;fill-rule:nonzero;"/>
                <path d="M131.529,193.817C131.529,192.271 130.274,191.017 128.729,191.017L96.271,191.017C94.726,191.017 93.471,192.271 93.471,193.817L93.471,222.363C93.471,223.909 94.726,225.163 96.271,225.163L128.729,225.163C130.274,225.163 131.529,223.909 131.529,222.363L131.529,193.817Z" style="fill:none;stroke:#ecedf1;stroke-width:0.63px;stroke-linecap:square;"/>
            </g>
        </g>
    </g>
</svg>
